<svg xmlns="http://www.w3.org/2000/svg" width="128" height="41" viewBox="0 0 128 41">
    <g fill="#020303" fill-rule="evenodd">
        <path d="M104.87 5.977h5V1.074h-5v4.903zM18.945 19.962c-1.438 1.044-3.301 1.587-5.383 1.587-4.597 0-7.832-3.5-7.832-8.264v-.074c0-4.43 3.28-8.122 7.43-8.122 2.985 0 4.754.966 6.722 2.622l3.454-4.192C20.682 1.248 17.917 0 13.344 0 5.626 0 0 5.995 0 13.285v.073C0 20.942 5.438 26.57 13.384 26.57c4.647 0 8.253-1.835 10.864-4.065v-6.086h-5.302v3.544zm-5.447-3.544h5.447v-5.34h-5.447v5.34zm107.752-1.69c-2.738-.55-3.797-.846-3.797-1.654 0-.809.73-1.508 2.373-1.508 1.643 0 2.883.81 3.359 2.022l4.416-1.875c-1.314-2.574-3.65-4.299-7.738-4.266-4.528.039-7.484 2.684-7.484 5.774 0 3.934 3.288 5.056 6.57 5.664 2.12.392 3.906.697 3.906 1.691 0 .882-.875 1.655-2.518 1.655-1.79 0-3.176-.81-3.834-2.501l-4.782 1.875c1.315 3.236 3.98 4.933 8.397 4.964 5.257.037 7.739-3.456 7.739-6.14 0-3.972-3.541-5.076-6.607-5.7zm-16.382 11.474h5V7.815h-5v18.387zm-8.625-11.474c-2.738-.55-3.797-.846-3.797-1.654 0-.809.73-1.508 2.373-1.508 1.643 0 2.884.81 3.358 2.022l4.418-1.875c-1.315-2.574-3.65-4.299-7.74-4.266-4.526.039-7.483 2.684-7.483 5.774 0 3.934 3.288 5.056 6.57 5.664 2.12.392 3.907.697 3.907 1.691 0 .882-.876 1.655-2.52 1.655-1.787 0-3.175-.81-3.832-2.501l-4.782 1.875c1.315 3.236 3.979 4.933 8.397 4.964 5.256.037 7.739-3.456 7.739-6.14 0-3.972-3.542-5.076-6.608-5.7zm-20.166-7.28c-5.256 0-9.491 4.265-9.491 9.56 0 5.296 3.943 9.561 9.637 9.561 4.053 0 6.937-2.022 8.506-4.89l-3.979-2.391c-.803 1.766-2.482 2.87-4.49 2.87-2.628 0-4.27-1.325-4.855-3.348h14.091v-1.838c0-5.296-3.834-9.525-9.419-9.525zm-4.453 7.317c.767-1.728 2.373-2.905 4.49-2.905s3.686.994 4.344 2.905h-8.834zm-14.05-7.318c-2.082 0-3.87.92-5.038 2.427V7.815H47.57v18.387h5.002v-10.04c0-3.088 1.57-4.411 3.467-4.411 2.227 0 3.359 1.434 3.359 3.896v10.555h5.074V14.986c0-4.744-2.592-7.539-6.898-7.539zm-21.626 0c-5.256 0-9.491 4.266-9.491 9.561 0 5.296 3.942 9.561 9.637 9.561 4.052 0 6.936-2.022 8.505-4.89l-3.978-2.391c-.804 1.766-2.483 2.87-4.49 2.87-2.629 0-4.272-1.325-4.856-3.348h14.09v-1.838c0-5.296-3.831-9.525-9.417-9.525zm-4.454 7.318c.767-1.728 2.373-2.905 4.491-2.905 2.117 0 3.686.994 4.344 2.905h-8.835z"/>
        <path d="M104.87 5.977h5V1.074h-5v4.903zM18.945 19.962c-1.438 1.044-3.301 1.587-5.383 1.587-4.597 0-7.832-3.5-7.832-8.265v-.073c0-4.43 3.28-8.122 7.43-8.122 2.985 0 4.754.966 6.722 2.622l3.454-4.192C20.682 1.248 17.917 0 13.344 0 5.626 0 0 5.995 0 13.284v.074C0 20.942 5.438 26.57 13.384 26.57c4.647 0 8.253-1.835 10.864-4.065v-6.086h-5.302v3.544zm-5.447-3.544h5.447v-5.34h-5.447v5.34zm107.752-1.69c-2.738-.55-3.797-.846-3.797-1.654 0-.809.73-1.508 2.373-1.508 1.643 0 2.883.81 3.359 2.022l4.416-1.875c-1.314-2.574-3.65-4.299-7.738-4.266-4.528.039-7.484 2.684-7.484 5.774 0 3.934 3.288 5.056 6.57 5.664 2.12.392 3.906.697 3.906 1.691 0 .882-.875 1.655-2.518 1.655-1.79 0-3.176-.81-3.834-2.501l-4.782 1.875c1.315 3.236 3.98 4.933 8.397 4.964 5.257.037 7.739-3.456 7.739-6.14 0-3.972-3.541-5.076-6.607-5.7zm-16.382 11.474h5V7.815h-5v18.387zm-8.625-11.474c-2.738-.55-3.797-.846-3.797-1.654 0-.809.73-1.508 2.373-1.508 1.643 0 2.884.81 3.358 2.022l4.418-1.875c-1.315-2.574-3.65-4.299-7.74-4.266-4.526.039-7.483 2.684-7.483 5.774 0 3.934 3.288 5.056 6.57 5.664 2.12.392 3.907.697 3.907 1.691 0 .882-.876 1.655-2.52 1.655-1.787 0-3.175-.81-3.832-2.501l-4.782 1.875c1.315 3.236 3.979 4.933 8.397 4.964 5.256.037 7.739-3.456 7.739-6.14 0-3.972-3.542-5.076-6.608-5.7zm-20.166-7.28c-5.256 0-9.491 4.265-9.491 9.56 0 5.296 3.943 9.561 9.637 9.561 4.053 0 6.937-2.022 8.506-4.89l-3.979-2.391c-.803 1.766-2.482 2.87-4.49 2.87-2.628 0-4.27-1.325-4.855-3.348h14.091v-1.838c0-5.296-3.834-9.525-9.419-9.525zm-4.453 7.317c.767-1.728 2.373-2.905 4.49-2.905s3.686.993 4.344 2.905h-8.834zm-14.05-7.318c-2.082 0-3.87.92-5.038 2.427V7.815H47.57v18.387h5.002v-10.04c0-3.088 1.57-4.411 3.467-4.411 2.227 0 3.359 1.434 3.359 3.896v10.555h5.074V14.986c0-4.744-2.592-7.539-6.898-7.539zm-21.626 0c-5.256 0-9.491 4.266-9.491 9.561 0 5.296 3.942 9.561 9.637 9.561 4.052 0 6.936-2.022 8.505-4.89l-3.978-2.391c-.804 1.766-2.483 2.87-4.49 2.87-2.629 0-4.272-1.325-4.856-3.348h14.09v-1.838c0-5.296-3.831-9.525-9.417-9.525zm-4.454 7.318c.767-1.728 2.373-2.905 4.491-2.905 2.117 0 3.686.993 4.344 2.905h-8.835zM2.783 35.267L1.626 37.87h2.308l-1.15-2.602zm2.583 4.468h-.615l-.593-1.349H1.401l-.6 1.349H.215l2.308-5.138h.535l2.308 5.138zM10.292 35.165H9.105v4.038h1.187c1.28 0 2.098-.875 2.098-2.012s-.818-2.026-2.098-2.026m0 4.57H8.533v-5.102h1.759c1.591 0 2.69 1.1 2.69 2.544 0 1.443-1.099 2.558-2.69 2.558M14.147 39.735h.557v-3.768h-.557v3.768zm-.037-4.592h.637v-.62h-.637v.62zM17.648 36.382c-.71 0-1.295.489-1.295 1.276 0 .772.6 1.29 1.295 1.29.709 0 1.375-.51 1.375-1.283 0-.78-.666-1.283-1.375-1.283m.007 4.533a2.918 2.918 0 0 1-1.7-.524l.253-.437c.427.313.905.48 1.44.48.825 0 1.36-.459 1.36-1.34v-.445c-.326.437-.781.794-1.469.794-.897 0-1.758-.67-1.758-1.77 0-1.109.868-1.786 1.758-1.786.702 0 1.158.35 1.462.758v-.678h.557v3.112c0 1.217-.753 1.836-1.903 1.836M20.852 39.735h.557v-3.768h-.557v3.768zm-.036-4.592h.636v-.62h-.636v.62zM23.456 38.663c0 .46.253.627.63.627.188 0 .347-.036.542-.131v.481c-.195.102-.405.16-.673.16-.6 0-1.056-.298-1.056-1.064v-2.273h-.521v-.496h.52V34.83h.558v1.137h1.187v.496h-1.187v2.2zM25.908 38.612c0 .481.434.759.94.759.688 0 1.252-.423 1.252-1.02v-.365a3.877 3.877 0 0 0-1.1-.16c-.701 0-1.092.306-1.092.786m-.065-1.924l-.166-.459a3.07 3.07 0 0 1 1.36-.313c1.02 0 1.591.525 1.591 1.516v2.303h-.535v-.569c-.26.343-.695.649-1.353.649-.695 0-1.396-.393-1.396-1.18 0-.802.65-1.225 1.599-1.225.477 0 .817.066 1.15.16v-.13c0-.679-.412-1.029-1.114-1.029-.441 0-.789.117-1.136.277M29.865 39.735h.557v-5.32h-.557zM36.296 39.822c-1.462 0-2.54-1.158-2.54-2.63 0-1.458 1.07-2.646 2.561-2.646.92 0 1.469.328 1.975.809l-.39.422c-.427-.408-.905-.7-1.592-.7-1.121 0-1.96.912-1.96 2.1 0 1.188.846 2.113 1.96 2.113.695 0 1.15-.27 1.635-.736l.376.372c-.528.54-1.107.896-2.025.896M41.88 35.967h.55v3.768h-.55v-.656c-.253.408-.637.736-1.28.736-.905 0-1.433-.612-1.433-1.509v-2.34h.557v2.202c0 .7.376 1.137 1.035 1.137.636 0 1.12-.474 1.12-1.18v-2.158zM44.238 39.735h-.558v-3.768h.558v.984c.274-.627.817-1.079 1.526-1.05v.605h-.043c-.818 0-1.483.59-1.483 1.728v1.5zM47.167 39.735h-.557v-3.768h.557v.984c.275-.627.818-1.079 1.527-1.05v.605h-.044c-.817 0-1.483.59-1.483 1.728v1.5zM52.282 37.643c-.058-.685-.449-1.283-1.194-1.283-.651 0-1.143.547-1.216 1.283h2.41zm-1.093 1.69c.514 0 .876-.21 1.18-.531l.347.313c-.376.423-.832.707-1.541.707-1.028 0-1.867-.794-1.867-1.968 0-1.093.76-1.967 1.794-1.967 1.107 0 1.744.889 1.744 1.997 0 .05 0 .109-.007.175h-2.967c.08.816.659 1.275 1.317 1.275zM54.379 39.735h-.557v-3.768h.557v.656c.246-.408.636-.736 1.28-.736.905 0 1.433.612 1.433 1.508v2.34h-.557v-2.201c0-.7-.376-1.137-1.035-1.137-.644 0-1.121.474-1.121 1.18v2.158zM59.963 39.822c-1.092 0-1.917-.896-1.917-1.96 0-1.072.825-1.975 1.917-1.975.71 0 1.15.299 1.498.67l-.369.394c-.296-.314-.63-.569-1.136-.569-.76 0-1.338.649-1.338 1.465 0 .824.593 1.472 1.374 1.472.478 0 .847-.24 1.144-.56l.354.334c-.376.423-.825.73-1.527.73M64.231 39.859c-.318.78-.68 1.064-1.244 1.064a1.69 1.69 0 0 1-.796-.19l.188-.444c.18.094.347.138.586.138.333 0 .543-.175.767-.707l-1.7-3.753h.615l1.36 3.141 1.2-3.141h.594l-1.57 3.892zM71.298 39.822c-1.591 0-2.575-1.166-2.575-2.63 0-1.407 1.02-2.646 2.54-2.646.853 0 1.38.247 1.887.678l-.368.437c-.391-.343-.825-.583-1.542-.583-1.12 0-1.924.954-1.924 2.099 0 1.224.774 2.128 2.004 2.128.579 0 1.114-.226 1.462-.51v-1.269H71.24v-.517h2.091v2.034c-.47.422-1.179.78-2.033.78M75.081 39.735h-.557v-3.768h.557v.984c.275-.627.818-1.079 1.526-1.05v.605h-.043c-.817 0-1.483.59-1.483 1.728v1.5zM79.161 36.382c-.81 0-1.367.649-1.367 1.465 0 .817.593 1.472 1.381 1.472.81 0 1.375-.648 1.375-1.457 0-.824-.6-1.48-1.389-1.48m0 3.44c-1.121 0-1.939-.889-1.939-1.96 0-1.072.825-1.975 1.953-1.975 1.122 0 1.947.889 1.947 1.96 0 1.072-.832 1.975-1.961 1.975M84.782 35.967h.55v3.768h-.55v-.656c-.254.408-.637.736-1.281.736-.904 0-1.433-.612-1.433-1.509v-2.34h.558v2.202c0 .7.376 1.137 1.034 1.137.637 0 1.122-.474 1.122-1.18v-2.158zM88.47 36.39c-.694 0-1.353.583-1.353 1.457 0 .882.659 1.465 1.353 1.465.724 0 1.317-.54 1.317-1.458 0-.896-.607-1.464-1.317-1.464m.102 3.425c-.695 0-1.144-.379-1.433-.802v1.888h-.557v-4.934h.557v.758c.304-.452.745-.838 1.433-.838.897 0 1.787.714 1.787 1.96 0 1.24-.883 1.968-1.787 1.968M95.964 39.822c-1.461 0-2.54-1.158-2.54-2.63 0-1.458 1.072-2.646 2.562-2.646.919 0 1.469.328 1.975.809l-.39.422c-.427-.408-.905-.7-1.592-.7-1.121 0-1.96.912-1.96 2.1 0 1.188.846 2.113 1.96 2.113.695 0 1.15-.27 1.635-.736l.376.372c-.528.54-1.107.896-2.026.896M100.6 36.382c-.81 0-1.366.649-1.366 1.465 0 .817.593 1.472 1.381 1.472.81 0 1.375-.648 1.375-1.457 0-.824-.6-1.48-1.39-1.48m0 3.44c-1.12 0-1.938-.889-1.938-1.96 0-1.072.825-1.975 1.953-1.975 1.122 0 1.947.889 1.947 1.96 0 1.072-.832 1.975-1.961 1.975M107.85 35.887c.86 0 1.389.583 1.389 1.516v2.332h-.558v-2.201c0-.729-.361-1.137-.97-1.137-.563 0-1.034.423-1.034 1.166v2.172h-.55v-2.216c0-.707-.368-1.122-.962-1.122-.593 0-1.042.496-1.042 1.188v2.15h-.557v-3.768h.557v.634c.246-.372.58-.714 1.209-.714.607 0 .998.328 1.2.75.268-.415.666-.75 1.317-.75M112.334 36.39c-.695 0-1.353.583-1.353 1.457 0 .882.658 1.465 1.353 1.465.723 0 1.316-.54 1.316-1.458 0-.896-.607-1.464-1.316-1.464m.1 3.425c-.694 0-1.142-.379-1.432-.802v1.888h-.557v-4.934h.557v.758c.304-.452.746-.838 1.433-.838.897 0 1.787.714 1.787 1.96 0 1.24-.883 1.968-1.787 1.968M115.53 38.612c0 .481.434.759.94.759.688 0 1.252-.423 1.252-1.02v-.365a3.877 3.877 0 0 0-1.1-.16c-.7 0-1.092.306-1.092.786m-.065-1.924l-.166-.459a3.07 3.07 0 0 1 1.36-.313c1.02 0 1.592.525 1.592 1.516v2.303h-.536v-.569c-.26.343-.694.649-1.353.649-.694 0-1.396-.393-1.396-1.18 0-.802.651-1.225 1.599-1.225.477 0 .817.066 1.15.16v-.13c0-.679-.412-1.029-1.114-1.029-.441 0-.789.117-1.136.277M119.993 39.735h-.557v-3.768h.557v.656c.247-.408.637-.736 1.281-.736.904 0 1.433.612 1.433 1.508v2.34h-.557v-2.201c0-.7-.377-1.137-1.035-1.137-.644 0-1.122.474-1.122 1.18v2.158zM125.715 39.859c-.318.78-.68 1.064-1.244 1.064a1.69 1.69 0 0 1-.796-.19l.188-.444c.181.094.348.138.586.138.333 0 .543-.175.767-.707l-1.7-3.753h.615l1.36 3.141 1.201-3.141h.594l-1.57 3.892z"/>
    </g>
</svg>
