<?xml version="1.0" encoding="UTF-8"?>
<svg width="256px" height="82px" viewBox="0 0 256 82" version="1.1" xmlns="http://www.w3.org/2000/svg" xmlns:xlink="http://www.w3.org/1999/xlink">
    <!-- Generator: Sketch 51.3 (57544) - http://www.bohemiancoding.com/sketch -->
    <title>Kyber network</title>
    <desc>Created with Sketch.</desc>
    <defs></defs>
    <g id="Kyber-network" stroke="none" stroke-width="1" fill="none" fill-rule="evenodd">
        <g id="Logo" transform="translate(45.000000, 0.000000)">
            <path d="M24.5281722,41.0024576 L55.0901157,23.4216104 C56.1600479,22.8062559 57.4936891,23.5799389 57.4936891,24.8156104 L57.4936891,57.1758352 C57.4936891,58.4112703 56.1602838,59.1849533 55.0905874,58.5700715 L24.5281722,41.0024576 Z M53.3370167,15.8679452 C54.2489121,16.5650634 54.1573924,17.9678069 53.1627045,18.5399164 L23.0536424,35.8601124 L30.4716975,1.27336311 C30.7188952,0.12110951 32.0784828,-0.381760807 33.0137299,0.333080692 L53.3370167,15.8679452 Z M33.0129044,81.6692115 C32.0776572,82.3838167 30.7180696,81.8809464 30.4711078,80.7289291 L23.0523451,46.1367447 L53.1765032,63.4524507 C54.1718987,64.0245602 54.2634185,65.4277764 53.3512871,66.1248945 L33.0129044,81.6692115 Z M16.7024767,41.0010634 L24.6963044,78.2746715 C25.0093114,79.7348386 23.3393114,80.7961124 22.1542719,79.8903314 L1.67176907,64.2349481 C0.619527542,63.430781 0.00224081921,62.1809308 0.00224081921,60.8549885 L0.00224081921,21.1490288 C0.00224081921,19.8230865 0.619527542,18.5732363 1.67153319,17.7690692 L22.1549795,2.1120317 C23.3400191,1.20625072 25.0100191,2.2675245 24.6967761,3.72769164 L16.7024767,41.0010634 Z" fill="#31CB9E"></path>
            <path d="M97.4779236,25.3477597 L91.609336,38.8033216 C91.0939476,39.9595925 90.4799631,40.795898 89.7678544,41.3370507 C89.0559815,41.8784398 88.1964504,42.1490161 87.1652018,42.1490161 C86.5023911,42.1490161 85.8393445,42.075287 85.1765338,41.9032524 L85.1765338,39.7135925 C85.9374688,39.7873216 86.4040309,39.811898 86.6005154,39.811898 C87.214264,39.811898 87.7298883,39.6890161 88.1473883,39.4430161 C88.5648883,39.1970161 88.9330903,38.7295925 89.227699,38.0655579 L89.7187922,36.9338634 L84.9062202,25.3969124 L87.6808261,25.3969124 L91.1430097,34.2035233 L94.7030818,25.3969124 L97.4779236,25.3477597 Z M106.007331,25.1509597 C107.70139,25.1509597 109.125607,25.7412651 110.25498,26.9466888 C111.384589,28.1518761 111.949276,29.6526888 111.949276,31.4484179 C111.949276,33.244147 111.384589,34.744487 110.279747,35.950147 C109.17467,37.1553343 107.775219,37.7458761 106.080924,37.7458761 C105.197098,37.7458761 104.386629,37.5736052 103.649989,37.2290634 C102.913349,36.8847579 102.324131,36.3927579 101.8821,35.7776398 L101.8821,37.4750634 L99.4759323,37.4750634 L99.4759323,19.0257723 L102.054054,19.0257723 L102.054054,26.8727233 C103.011709,25.7166888 104.362098,25.1263833 106.105691,25.1263833 L106.007331,25.1509597 Z M105.620023,35.4085216 C106.676038,35.4085216 107.505141,35.0150634 108.21725,34.2770634 C108.929123,33.5390634 109.272794,32.5798761 109.272794,31.4238415 C109.272794,30.2675706 108.929123,29.3327233 108.21725,28.5947233 C107.505141,27.8567233 106.621079,27.4878415 105.5653,27.4878415 C104.558582,27.4878415 103.699051,27.832147 102.987178,28.5209942 C102.275069,29.2098415 101.931163,30.1938415 101.931163,31.4727579 C101.931163,32.7767233 102.2996,33.760487 103.011709,34.4247579 C103.723818,35.0887925 104.583113,35.4085216 105.589831,35.4085216 L105.620023,35.4085216 Z M78.9287288,50.5723539 C80.3284153,50.5723539 81.4308983,51.0393049 82.2411314,51.9249994 C83.0516003,52.8102213 83.4443333,53.9664922 83.4443333,55.4179159 L83.4443333,62.9699504 L80.8662119,62.9699504 L80.8662119,55.7622213 C80.8662119,54.9259159 80.6206653,54.2370686 80.129572,53.7204922 C79.6384788,53.2039159 79.0001992,52.9333395 78.2144972,52.9333395 C77.4040282,52.9333395 76.7412175,53.2039159 76.2255932,53.7204922 C75.7099689,54.2370686 75.4641864,54.9013395 75.4641864,55.7130686 L75.4641864,62.9699504 L72.886065,62.9699504 L72.886065,50.8424576 L75.2924689,50.8424576 L75.2924689,52.047645 C76.2010621,51.063645 77.4040282,50.5718813 78.901839,50.5718813 L78.9287288,50.5723539 Z M97.77015,57.7301504 L88.7835215,57.7301504 C88.955239,58.7387268 89.3972701,59.5258795 90.1093788,60.091845 C90.8214876,60.6575741 91.7053138,60.9281504 92.7613294,60.9281504 C94.0135935,60.9281504 95.1922644,60.4604905 96.2725751,59.5010669 L97.5003082,61.2724559 C96.1251528,62.576185 94.5292178,63.2156432 92.6877362,63.2156432 C90.8214876,63.2156432 89.2746147,62.6009977 88.0468816,61.3955741 C86.8193845,60.1901504 86.2054,58.6898104 86.2054,56.893845 C86.2054,55.1226922 86.8193845,53.6221159 88.0223506,52.3921159 C89.2255525,51.1621159 90.6988322,50.547234 92.4421895,50.547234 C94.0381246,50.547234 95.3639819,51.0635741 96.4197616,52.1215395 C97.4755412,53.1795049 98.0156966,54.5078104 98.0156966,56.1066922 C98.0156966,56.1066922 97.9904579,57.1218853 97.77015,57.7301504 Z M92.3192983,52.761234 C91.4597672,52.761234 90.7231274,53.0318104 90.0848477,53.5731994 C89.4463322,54.1143522 89.0290681,54.8275395 88.8328195,55.7375741 L95.3887489,55.7375741 C95.3639819,54.8275395 95.0693732,54.1143522 94.4799198,53.5731994 C93.8907023,53.0318104 93.1540624,52.761234 92.2947672,52.761234 L92.3192983,52.761234 Z M125.675591,32.2845816 L116.688962,32.2845816 C116.86068,33.2931579 117.302711,34.0803107 118.014819,34.6460398 C118.726928,35.2120052 119.610754,35.4825816 120.66677,35.4825816 C121.919034,35.4825816 123.097705,35.0151579 124.178016,34.0557343 L125.405513,35.826887 C124.030593,37.1308524 122.434658,37.7700744 120.593177,37.7700744 C118.726928,37.7700744 117.180055,37.1554288 115.952322,35.9500052 C114.724825,34.7445816 114.110841,33.2440052 114.110841,31.4482761 C114.110841,29.6771233 114.724825,28.176547 115.927791,26.946547 C117.130993,25.716547 118.604273,25.1016651 120.34763,25.1016651 C121.943565,25.1016651 123.269422,25.6182415 124.325202,26.6759706 C125.380982,27.733936 125.921137,29.0622415 125.921137,30.6611233 C125.921137,30.6611233 125.921137,31.6427602 125.675591,32.2845816 Z M120.224739,27.3156651 C119.365208,27.3156651 118.628568,27.5862415 117.990288,28.1273942 C117.351773,28.668547 116.934509,29.3819706 116.738024,30.2920052 L123.293954,30.2920052 C123.269422,29.3819706 122.974814,28.668547 122.38536,28.1273942 C121.796143,27.5862415 121.059503,27.3156651 120.200208,27.3156651 L120.224739,27.3156651 Z M107.056223,60.8539723 C107.424661,60.8539723 107.935803,60.7804795 108.647912,60.7067504 L108.647912,62.8961741 C107.837679,63.0682086 107.12557,63.1667504 106.511586,63.1667504 C105.112371,63.1667504 104.031824,62.8222086 103.246122,62.1333614 C102.46042,61.4447504 102.067687,60.386785 102.067687,58.9847504 L102.067687,53.0807504 L100.103079,53.0807504 L100.103079,50.8424104 L102.067687,50.8424104 L102.067687,47.6692231 L104.67034,47.6692231 L104.67034,50.8424104 L108.255179,50.8424104 L108.255179,53.0807504 L104.67034,53.0807504 L104.67034,58.7633268 C104.67034,59.5259032 104.866589,60.0670559 105.259557,60.386785 C105.652526,60.7067504 106.241744,60.8542086 107.027446,60.8542086 L107.056223,60.8539723 Z M129.692931,50.8423631 L124.340204,63.1912795 L123.456378,63.1912795 L119.674818,55.1474813 L115.893495,63.1912795 L115.009669,63.1912795 L109.656941,50.8423631 L112.407016,50.8423631 L115.574591,58.7387032 L119.232787,50.5717867 L120.116849,50.5717867 L123.82458,58.6403977 L126.942856,50.8423631 L129.692931,50.8423631 Z M141.677752,52.3676576 C142.930016,53.5730813 143.568296,55.0736576 143.568296,56.8448104 C143.568296,58.6157268 142.954547,60.1163032 141.702283,61.3463032 C140.450019,62.5763032 138.952208,63.191185 137.18432,63.191185 C135.391901,63.166845 133.89409,62.5517268 132.666357,61.3463032 C131.438624,60.1408795 130.824875,58.6403032 130.824875,56.8691504 C130.824875,55.0979977 131.438624,53.5974213 132.666357,52.392234 C133.89409,51.1868104 135.391665,50.5719285 137.18432,50.5719285 C138.93098,50.5827988 140.437046,51.1735769 141.677752,52.3676576 Z M139.786973,59.6491159 C140.499317,58.9108795 140.867283,57.9762686 140.867283,56.8691504 C140.867283,55.7374559 140.523612,54.802845 139.811504,54.064845 C139.099631,53.3270813 138.213918,52.9589084 137.158138,52.934332 L137.135258,52.9333867 C136.054947,52.9581994 135.170885,53.3270813 134.458776,54.064845 C133.746903,54.802845 133.403232,55.7374559 133.403232,56.8691504 C133.403232,57.9762686 133.746903,58.9108795 134.458776,59.6491159 C135.170885,60.3868795 136.054947,60.7559977 137.135258,60.7559977 C138.190802,60.7559977 139.074864,60.3868795 139.786973,59.6491159 Z M152.422221,50.7193631 C152.790659,50.7193631 153.109563,50.7687522 153.404171,50.8424813 L153.404171,53.1302104 L152.618469,53.1302104 C151.611752,53.1302104 150.776988,53.4251268 150.114177,54.0156686 C149.451131,54.6059741 149.107224,55.4179395 149.107224,56.4756686 L149.107224,62.966902 L146.529338,62.966902 L146.529338,50.8424813 L148.935506,50.8424813 L148.935506,52.4167867 C149.794801,51.2853285 150.973472,50.7193631 152.471283,50.7193631 L152.422221,50.7193631 Z M134.992516,25.2737942 C135.360954,25.2737942 135.680094,25.322947 135.974702,25.3969124 L135.974702,27.6846415 L135.189,27.6846415 C134.182047,27.6846415 133.347283,27.9797942 132.684472,28.5700997 C132.021425,29.1604052 131.677755,29.9723706 131.677755,31.0300997 L131.677755,37.5213331 L129.099633,37.5213331 L129.099633,25.3969124 L131.506037,25.3969124 L131.506037,26.9712179 C132.365096,25.8397597 133.543767,25.2737942 135.041578,25.2737942 L134.992516,25.2737942 Z M166.997901,62.9669256 L163.899909,62.9669256 L158.634928,56.1311504 L163.349139,50.8422686 L166.541245,50.8422686 L161.679611,56.1557268 L166.997901,62.9669256 Z M155.983213,62.9669256 L155.983213,44.4710813 L158.561334,44.4710813 L158.561334,62.9669256 L155.983213,62.9669256 Z M83.9010123,37.5213568 L80.8030208,37.5213568 L75.5380391,30.6855816 L80.252251,25.3966997 L83.4443569,25.3966997 L78.5827227,30.7101579 L83.9010123,37.5213568 Z M72.8860886,37.5213568 L72.8860886,19.0257487 L75.46421,19.0257487 L75.46421,37.5213568 L72.8860886,37.5213568 Z" id="Text" fill="#141927"></path>
        </g>
    </g>
</svg>