<svg xmlns="http://www.w3.org/2000/svg" xmlns:xlink="http://www.w3.org/1999/xlink" width="128" height="31" viewBox="0 0 128 31">
    <defs>
        <path id="a" d="M75.99.016v.003c-3.515.06-6.677 1.208-8.933 3.246-2.518 2.276-3.85 5.544-3.85 9.453v14.987c0 1.12.927 2.065 2.025 2.065 1.137 0 2.064-.927 2.064-2.52V12.465c.046-4.741 3.766-8.372 9.045-8.372h.024c5.3 0 9.02 3.63 9.067 8.83v14.782c0 1.138.926 2.065 2.065 2.065 1.097 0 2.023-.946 2.023-2.065V12.718c0-3.863-1.302-7.104-3.766-9.375-2.196-2.024-5.28-3.194-8.716-3.314l-.002-.007-.348-.004-.243-.002h-.454zm26.044 5.112c-2.69 2.804-4.17 6.54-4.17 10.52v.081c0 3.981 1.466 7.703 4.129 10.48 2.77 2.887 6.624 4.478 10.856 4.478 4.231 0 8.101-1.605 10.896-4.518 2.69-2.804 4.17-6.54 4.17-10.52v-.081c0-3.981-1.466-7.703-4.13-10.48C121.018 2.2 117.163.61 112.93.61c-4.231 0-8.101 1.605-10.896 4.518zm3.154 18.434c-1.973-2.082-3.059-4.892-3.059-7.914v-.08c0-6.333 4.609-11.108 10.72-11.108 2.991 0 5.74 1.163 7.742 3.275 1.972 2.082 3.059 4.892 3.059 7.913v.081c0 6.333-4.609 11.108-10.72 11.108-2.991 0-5.741-1.163-7.742-3.275zM.007 2.837v14.987c0 3.908 1.33 7.177 3.849 9.452 2.256 2.039 5.418 3.186 8.934 3.247v.003h.454l.243-.002.055-.001v.003h5.922a2.067 2.067 0 0 0 2.064-2.066c0-1.098-.945-2.026-2.064-2.026l-6.358.014c-5.26-.015-8.965-3.641-9.011-8.826V2.837A2.067 2.067 0 0 0 2.03.771C.933.772.007 1.718.007 2.837zm50.561.301V17.92c-.047 5.199-3.766 8.83-9.067 8.83h-.024c-5.28 0-8.999-3.631-9.046-8.826V3.138a2.067 2.067 0 0 0-2.064-2.066c-1.097 0-2.024.946-2.024 2.066v14.987c0 3.908 1.332 7.177 3.85 9.452 2.255 2.039 5.418 3.186 8.933 3.247v.003h.454l.244-.002.347-.004.002-.008c3.436-.12 6.52-1.29 8.717-3.313 2.464-2.271 3.766-5.513 3.766-9.375V3.138c0-1.12-.927-2.066-2.024-2.066a2.067 2.067 0 0 0-2.064 2.066z"/>
    </defs>
    <g fill="none" fill-rule="evenodd">
        <path fill="#12326B" d="M19.464 26.592c1.119 0 2.064.927 2.064 2.025a2.067 2.067 0 0 1-2.064 2.066h-5.921v-.003l-.056.001-.243.002h-.454v-.003c-3.516-.06-6.678-1.208-8.934-3.246C1.338 25.158.006 21.89.006 17.98V2.994C.007 1.874.934.93 2.032.93c1.138 0 2.064.926 2.064 2.065V17.78c.046 5.184 3.75 8.81 9.011 8.826l6.358-.014zM52.632 1.23c1.097 0 2.024.946 2.024 2.065v14.987c0 3.863-1.302 7.104-3.766 9.375-2.196 2.024-5.28 3.194-8.717 3.314l-.001.007-.348.004-.244.002h-.454v-.003c-3.515-.06-6.678-1.208-8.934-3.246-2.518-2.276-3.849-5.544-3.849-9.453V3.295c0-1.12.927-2.065 2.024-2.065 1.138 0 2.064.927 2.064 2.065v14.786c.047 5.195 3.767 8.826 9.046 8.826h.024c5.3 0 9.02-3.63 9.067-8.83V3.295c0-1.138.926-2.065 2.064-2.065zm34.865 28.698a2.067 2.067 0 0 1-2.065-2.066V13.08c-.046-5.199-3.766-8.83-9.067-8.83h-.024c-5.279 0-8.999 3.631-9.046 8.372v14.785c0 1.594-.925 2.52-2.064 2.52-1.097 0-2.023-.945-2.023-2.065V12.875c0-3.908 1.33-7.177 3.849-9.452C69.313 1.384 72.475.237 75.99.176V.173h.454l.243.002.348.004.002.008c3.436.12 6.52 1.29 8.716 3.313 2.464 2.271 3.767 5.513 3.767 9.375v14.987c0 1.12-.927 2.066-2.024 2.066zm25.351.916c-4.23 0-8.086-1.59-10.855-4.478-2.663-2.777-4.13-6.499-4.13-10.48v-.08c0-3.981 1.481-7.717 4.17-10.52C104.83 2.372 108.7.768 112.93.768c4.232 0 8.087 1.59 10.856 4.477 2.663 2.777 4.13 6.5 4.13 10.48v.08c0 3.981-1.482 7.718-4.171 10.52-2.795 2.914-6.665 4.52-10.897 4.52zm0-26.227c-6.11 0-10.719 4.776-10.719 11.108v.08c0 3.022 1.086 5.833 3.059 7.914 2 2.112 4.75 3.276 7.742 3.276 6.111 0 10.72-4.776 10.72-11.109v-.08c0-3.021-1.087-5.832-3.059-7.914-2.001-2.112-4.75-3.275-7.743-3.275z"/>
        <g transform="translate(0 .157)">
            <mask id="b" fill="#fff">
                <use xlink:href="#a"/>
            </mask>
            <path fill="#12326B" d="M-2.663 33.5h133.248V-2.657H-2.663z" mask="url(#b)"/>
        </g>
    </g>
</svg>
