<svg xmlns="http://www.w3.org/2000/svg" width="154" height="52" viewBox="0 0 154 52">
    <defs>
        <linearGradient id="a" x1="0%" y1="50%" y2="50%">
            <stop offset="27%" stop-color="#5C769B"/>
            <stop offset="100%" stop-color="#495F7D"/>
        </linearGradient>
        <linearGradient id="b" x1="100.08%" x2="44.136%" y1="-45.282%" y2="89.845%">
            <stop offset="13%" stop-color="#314259"/>
            <stop offset="38%" stop-color="#425774"/>
            <stop offset="69%" stop-color="#5C769B"/>
            <stop offset="79%" stop-color="#5A7498"/>
            <stop offset="86%" stop-color="#546C8F"/>
            <stop offset="93%" stop-color="#4A607F"/>
            <stop offset="98%" stop-color="#3C4F69"/>
            <stop offset="100%" stop-color="#374961"/>
        </linearGradient>
        <linearGradient id="c" x1="99.809%" x2="-4.606%" y1="63.342%" y2="7.408%">
            <stop offset="0%" stop-color="#5C769B"/>
            <stop offset="48%" stop-color="#5B7499"/>
            <stop offset="69%" stop-color="#566F92"/>
            <stop offset="85%" stop-color="#4F6685"/>
            <stop offset="91%" stop-color="#4A607E"/>
        </linearGradient>
        <linearGradient id="d" x1="728.331%" x2="-348.488%" y1="50%" y2="50%">
            <stop offset="25%" stop-color="#25344A"/>
            <stop offset="41%" stop-color="#2C3D55"/>
            <stop offset="68%" stop-color="#3F5471"/>
            <stop offset="100%" stop-color="#5C769B"/>
        </linearGradient>
        <linearGradient id="e" x1="-653.906%" x2="455.58%" y1="49.996%" y2="49.996%">
            <stop offset="25%" stop-color="#5C769B"/>
            <stop offset="41%" stop-color="#556D90"/>
            <stop offset="69%" stop-color="#425774"/>
            <stop offset="100%" stop-color="#28384E"/>
        </linearGradient>
        <linearGradient id="f" x1="50.987%" x2="48.896%" y1="-209.612%" y2="236.046%">
            <stop offset="1%" stop-color="#5C769B"/>
            <stop offset="20%" stop-color="#587195"/>
            <stop offset="45%" stop-color="#4D6485"/>
            <stop offset="74%" stop-color="#3B4E6A"/>
            <stop offset="100%" stop-color="#26354B"/>
        </linearGradient>
        <linearGradient id="g" x1="183.934%" x2="-71.265%" y1="-95.776%" y2="173.207%">
            <stop offset="25%" stop-color="#5C769B"/>
            <stop offset="41%" stop-color="#556E90"/>
            <stop offset="69%" stop-color="#425774"/>
            <stop offset="100%" stop-color="#27374C"/>
        </linearGradient>
        <linearGradient id="h" x1="-60.786%" x2="153.26%" y1="-60.281%" y2="146.989%">
            <stop offset="25%" stop-color="#5C769B"/>
            <stop offset="41%" stop-color="#556E90"/>
            <stop offset="69%" stop-color="#425774"/>
            <stop offset="100%" stop-color="#27374C"/>
        </linearGradient>
        <linearGradient id="i" x1="-19.379%" x2="154.799%" y1="31.605%" y2="103.778%">
            <stop offset="27%" stop-color="#5C769B"/>
            <stop offset="100%" stop-color="#495F7D"/>
        </linearGradient>
        <linearGradient id="j" x1="-71.29%" x2="149.246%" y1="-81.38%" y2="102.791%">
            <stop offset="46%" stop-color="#5C769B" stop-opacity="0"/>
            <stop offset="59%" stop-color="#597296" stop-opacity=".06"/>
            <stop offset="71%" stop-color="#4E6586" stop-opacity=".23"/>
            <stop offset="83%" stop-color="#3C506D" stop-opacity=".53"/>
            <stop offset="95%" stop-color="#243349" stop-opacity=".94"/>
            <stop offset="97%" stop-color="#202E43"/>
        </linearGradient>
        <linearGradient id="k" x1="50.156%" x2="50.156%" y1="296.046%" y2="-124.719%">
            <stop offset="25%" stop-color="#5C769B"/>
            <stop offset="41%" stop-color="#556E90"/>
            <stop offset="69%" stop-color="#425774"/>
            <stop offset="100%" stop-color="#27374C"/>
        </linearGradient>
    </defs>
    <g fill="none" fill-rule="nonzero">
        <path fill="#3B4E68" d="M41.192 29.674c-2.238 0-4.626.892-4.626 3.06 0 1.93 2.187 2.497 4.777 2.93 3.516.562 6.988 1.275 6.988 5.303-.025 4.001-3.797 5.301-7.164 5.301-3.118 0-6.084-1.147-7.442-4.129l1.81-1.07c1.132 2.115 3.494 3.134 5.657 3.134 2.136 0 4.982-.688 4.982-3.313.025-2.218-2.44-2.854-5.079-3.269-3.394-.535-6.686-1.325-6.686-4.944-.051-3.714 3.694-4.997 6.74-4.997 2.616 0 5.104.537 6.663 3.238l-1.66 1.04c-.965-1.544-3-2.257-4.96-2.284zM51.92 28.095v7.316c1.057-1.659 2.716-2.219 4.3-2.244 3.494 0 5.203 2.345 5.203 5.81v6.932h-2.036v-6.905c0-2.473-1.257-3.874-3.516-3.874-2.26 0-3.921 1.81-3.921 4.103v6.676h-2.065v-17.84h2.035v.026zM74.014 45.962l-.052-2.294c-.98 1.734-2.864 2.55-4.574 2.55-3.57 0-6.36-2.5-6.36-6.603 0-4.078 2.84-6.525 6.385-6.5 1.86 0 3.695.868 4.6 2.5l.026-2.295h2.009V45.91h-1.984l-.05.053zm-4.525-10.858c-2.465 0-4.45 1.783-4.45 4.588s1.985 4.606 4.45 4.606c5.983 0 5.983-9.228.025-9.228l-.025.034zM77.699 33.37h1.96l.1 2.422c.982-1.681 2.816-2.65 4.777-2.65 3.57.076 6.185 2.625 6.185 6.498 0 3.978-2.59 6.55-6.311 6.55-1.758 0-3.72-.763-4.7-2.547v8.208h-2.011v-18.48zm10.96 6.322c0-2.83-1.836-4.512-4.374-4.512-2.589 0-4.349 1.932-4.349 4.512 0 2.581 1.835 4.511 4.35 4.538 2.487 0 4.373-1.709 4.373-4.538zM104.021 43.897c-1.257 1.505-3.418 2.243-5.356 2.243-3.844 0-6.535-2.574-6.535-6.575 0-3.798 2.69-6.526 6.436-6.526 3.795 0 6.686 2.377 6.208 7.392H94.217c.226 2.319 2.111 3.772 4.5 3.772 1.408 0 3.116-.56 3.946-1.58l1.383 1.274h-.025zm-1.207-5.2c-.1-2.447-1.759-3.772-4.198-3.772-2.162 0-4.047 1.325-4.396 3.745h8.597l-.003.027z"/>
        <path fill="#5C769B" d="M113.17 29.674c-2.237 0-4.626.892-4.626 3.06 0 1.93 2.188 2.497 4.777 2.93 3.517.562 6.988 1.275 6.988 5.303-.025 4.001-3.795 5.301-7.164 5.301-3.116 0-6.083-1.147-7.44-4.129l1.81-1.07c1.13 2.115 3.494 3.134 5.655 3.134 2.137 0 4.982-.688 4.982-3.313.025-2.218-2.438-2.854-5.078-3.269-3.398-.529-6.695-1.32-6.695-4.935-.05-3.715 3.695-4.997 6.74-4.997 2.614 0 5.103.537 6.661 3.238l-1.659 1.04c-.954-1.553-2.99-2.266-4.95-2.293zM123.9 28.095v7.316c1.055-1.659 2.716-2.219 4.3-2.244 3.493 0 5.203 2.345 5.203 5.81v6.932h-2.037v-6.905c0-2.473-1.257-3.874-3.517-3.874s-3.92 1.81-3.92 4.103v6.676h-2.065v-17.84h2.036v.026zM135.079 45.909h2.062v-12.41h-2.062v12.41zm1.056-14.31l-1.632-1.812 1.632-1.811 1.631 1.811-1.63 1.811zM140.99 45.936v-.024h-.025zM143.027 32.48c0-1.888.854-2.729 2.186-2.729h.077l.465-1.796a4.608 4.608 0 0 0-.586-.041c-2.614 0-4.173 1.681-4.173 4.562v.994h-2.444v1.835h2.438v10.604h2.037V35.308h2.466v-1.835h-2.466v-.994zM153.499 44.161c-.158.027-.318.041-.478.042-1.483 0-1.96-.942-1.96-2.42v-6.491h2.637V33.48h-2.62v-3.832l-2.06.23v3.602h-2.49v1.81h2.49v6.492c0 2.777 1.257 4.357 3.921 4.308.323-.01.644-.048.96-.116l-.4-1.814z"/>
        <path fill="url(#a)" d="M.006 28.135L0 34.723l8.904 14.074 9.548 3.07 6.988-4.498z"/>
        <path fill="url(#b)" d="M14.344 15.031L.02 27.781l19.965 11.654.074-24.02z"/>
        <path fill="#4C6382" d="M12.304 22.916l7.698 20.844.055-19.68z"/>
        <path fill="#3B4E68" d="M27.702 22.991l-7.7 20.77.055-19.68z"/>
        <path fill="url(#c)" d="M33.827.012L26.186 4.08l-6.118 1.36L13.9 4.08 6.279 0l2.625 12.297-2.5 6.906 8.747 5.504 4.869 5.348v.05l.022-.025.023.025v-.05l4.87-5.348 8.762-5.5-2.487-6.9z"/>
        <path fill="url(#d)" d="M33.827.012l-2.123 12.32 1.993 6.875-2.487-6.9z"/>
        <path fill="url(#e)" d="M6.279 0l2.138 12.323-2.012 6.88 2.5-6.906z"/>
        <path fill="url(#f)" d="M6.279 0l8.895 3.77h9.762L33.827.011 26.186 4.08l-6.118 1.36L13.9 4.08z"/>
        <path fill="url(#g)" d="M8.904 12.297l-.442 1.23 9.23-8.617z"/>
        <path fill="url(#h)" d="M31.21 12.308L22.461 4.91l9.17 8.562z"/>
        <path fill="url(#i)" d="M.02 27.781l21.456 12.006 2.719 6.885-5.75 2.226-8.949-.945-9.481-13.23z"/>
        <path fill="#FFF" d="M17.775 37.728L9.52 47.923l-.024.03 8.937 3.046.012.003 6.98-3.626.015-.007v-5.378z"/>
        <path fill="url(#j)" d="M31.21 12.308L33.827.012 26.186 4.08l-3.725.83z"/>
        <path fill="#FFF" d="M20.06 30.105l-2.431-2.698 2.43-2.698 2.431 2.698z"/>
        <path fill="url(#k)" d="M19.822 5.386l.246.055.223-.05-.238 15.7z"/>
    </g>
</svg>
