<svg width="24" height="24" viewBox="0 0 24 24" fill="none" xmlns="http://www.w3.org/2000/svg">
<path d="M2.25586 18.78H3.74386V15.66H20.2799L20.2559 18.78H21.7439V11.844C21.7439 9.82797 20.2079 8.29197 18.1919 8.29197L11.8559 8.31597V14.1H3.74386V5.21997H2.25586V18.78ZM4.82386 10.068C4.82386 11.724 6.16786 13.044 7.79986 13.044C9.43186 13.044 10.7759 11.724 10.7759 10.068C10.7759 8.43597 9.43186 7.11597 7.79986 7.11597C6.16786 7.11597 4.82386 8.43597 4.82386 10.068ZM6.11986 10.068C6.11986 9.15597 6.86386 8.38797 7.79986 8.38797C8.73586 8.38797 9.47986 9.15597 9.47986 10.068C9.47986 11.004 8.73586 11.748 7.79986 11.748C6.86386 11.748 6.11986 11.004 6.11986 10.068ZM13.3199 14.1V9.77997L18.6239 9.75597C19.7039 9.75597 20.2799 10.332 20.2799 11.412V14.1H13.3199Z" fill="black"/>
</svg>
