<svg width="24" height="24" viewBox="0 0 24 24" fill="none" xmlns="http://www.w3.org/2000/svg">
<path d="M19.7159 20.3519C21.0599 20.3519 22.1639 19.2479 22.1639 17.9039C22.1639 16.5599 21.0599 15.4559 19.7159 15.4559C19.0679 15.4559 18.4679 15.6959 18.0359 16.1279L15.6359 14.6879C15.7559 14.3519 15.8279 13.9679 15.8279 13.5839C15.8279 11.7359 14.3399 10.2239 12.4919 10.2239C12.2039 10.2239 11.9159 10.2719 11.6519 10.3439L10.4999 7.91995C11.0279 7.48795 11.3399 6.81595 11.3399 6.09595C11.3399 4.75195 10.2359 3.64795 8.89194 3.64795C7.54794 3.64795 6.44394 4.75195 6.44394 6.09595C6.44394 7.43995 7.54794 8.54395 8.89194 8.54395C9.05994 8.54395 9.20394 8.51995 9.34794 8.49595L10.4999 10.9199C9.68394 11.5199 9.17994 12.4799 9.17994 13.5839C9.17994 15.4319 10.6439 16.8959 12.4919 16.8959C13.4759 16.8959 14.3639 16.4879 14.9639 15.8159L17.3639 17.2319C17.2919 17.4479 17.2679 17.6639 17.2679 17.9039C17.2679 19.2479 18.3719 20.3519 19.7159 20.3519ZM1.83594 13.5839C1.83594 14.6159 2.69994 15.4799 3.73194 15.4799C4.78794 15.4799 5.65194 14.6159 5.65194 13.5839C5.65194 12.5039 4.78794 11.6639 3.73194 11.6639C2.69994 11.6639 1.83594 12.5039 1.83594 13.5839ZM6.46794 14.1359H8.29194V13.0319H6.46794V14.1359ZM7.73994 6.09595C7.73994 5.44795 8.26794 4.91995 8.89194 4.91995C9.53994 4.91995 10.0679 5.44795 10.0679 6.09595C10.0679 6.71995 9.53994 7.24795 8.89194 7.24795C8.26794 7.24795 7.73994 6.71995 7.73994 6.09595ZM10.5479 13.5839C10.5479 12.4799 11.4119 11.6159 12.4919 11.6159C13.5719 11.6159 14.4599 12.4799 14.4599 13.5839C14.4599 14.6639 13.5719 15.5279 12.4919 15.5279C11.4119 15.5279 10.5479 14.6639 10.5479 13.5839ZM15.7079 10.5119L16.3799 11.3999L18.2039 10.0559L17.5559 9.16795L15.7079 10.5119ZM18.3479 7.87195C18.3479 8.92795 19.2119 9.79195 20.2439 9.79195C21.3239 9.79195 22.1639 8.92795 22.1639 7.87195C22.1639 6.81595 21.3239 5.95195 20.2439 5.95195C19.2119 5.95195 18.3479 6.81595 18.3479 7.87195ZM18.5639 17.9039C18.5639 17.2559 19.0919 16.7279 19.7159 16.7279C20.3639 16.7279 20.8919 17.2559 20.8919 17.9039C20.8919 18.5279 20.3639 19.0559 19.7159 19.0559C19.0919 19.0559 18.5639 18.5279 18.5639 17.9039Z" fill="black"/>
</svg>
