<svg width="24" height="24" viewBox="0 0 24 24" fill="none" xmlns="http://www.w3.org/2000/svg">
<path d="M11.0638 16.344L12.0238 15.36L10.8238 14.136C10.3438 13.68 9.86377 13.2 9.35977 12.744H17.0398V11.256H9.33577C9.83977 10.776 10.3438 10.32 10.8238 9.84001L12.0238 8.59201L11.0638 7.63201L6.71977 12L11.0638 16.344ZM2.75977 12C2.75977 17.16 6.83977 21.24 11.9998 21.24C17.1838 21.24 21.2398 17.04 21.2398 12C21.2398 6.84001 17.1598 2.76001 11.9998 2.76001C6.83977 2.76001 2.75977 6.84001 2.75977 12ZM4.31977 12C4.31977 7.68001 7.70377 4.32001 11.9998 4.32001C16.3198 4.32001 19.6798 7.68001 19.6798 12C19.6798 16.176 16.3198 19.68 11.9998 19.68C7.70377 19.68 4.31977 16.296 4.31977 12Z" fill="black"/>
</svg>
