<svg width="24" height="24" viewBox="0 0 24 24" fill="none" xmlns="http://www.w3.org/2000/svg">
<path d="M11.9998 17.28L16.3438 12.936L15.3598 11.976L14.1358 13.176C13.6798 13.656 13.1998 14.136 12.7438 14.64V6.96001H11.2558V14.664C10.7758 14.16 10.3198 13.656 9.83977 13.176L8.61577 11.976L7.63177 12.936L11.9998 17.28ZM2.75977 12C2.75977 17.16 6.83977 21.24 11.9998 21.24C17.1838 21.24 21.2398 17.04 21.2398 12C21.2398 6.84001 17.1598 2.76001 11.9998 2.76001C6.83977 2.76001 2.75977 6.84001 2.75977 12ZM4.31977 12C4.31977 7.68001 7.70377 4.32001 11.9998 4.32001C16.3198 4.32001 19.6798 7.68001 19.6798 12C19.6798 16.176 16.3198 19.68 11.9998 19.68C7.70377 19.68 4.31977 16.296 4.31977 12Z" fill="black"/>
</svg>
