<svg width="24" height="24" viewBox="0 0 24 24" fill="none" xmlns="http://www.w3.org/2000/svg">
<path d="M5.20792 18.18H18.7919V16.812H16.9679C18.9599 15.372 20.1599 13.068 20.1599 10.5C20.1599 6.01197 16.4879 2.33997 11.9999 2.33997C7.51192 2.33997 3.83992 6.01197 3.83992 10.5C3.83992 13.068 5.03992 15.348 7.03192 16.812H5.20792V18.18ZM1.91992 21.66H22.0799V14.82H20.5199V20.196H3.47992V14.82H1.91992V21.66ZM5.39992 10.5C5.39992 6.85197 8.35192 3.89997 11.9999 3.89997C15.6479 3.89997 18.5999 6.85197 18.5999 10.5C18.5999 13.572 16.4399 16.164 13.5839 16.812H10.4399C7.55992 16.164 5.39992 13.572 5.39992 10.5ZM8.99992 11.556C8.97592 13.02 10.0079 14.076 11.4959 14.292V15.228H12.5039V14.292C13.9679 14.124 14.9999 13.164 14.9999 11.94C14.9999 10.764 14.1839 10.068 12.8399 9.89997L11.5679 9.73197C10.7759 9.63597 10.4639 9.37197 10.4639 8.74797C10.4639 7.97997 11.0159 7.66797 12.0239 7.66797C13.1519 7.66797 13.5599 8.02797 13.5359 9.08397H14.8319C14.8319 7.78797 13.8719 6.77997 12.5039 6.56397V5.62797H11.4959V6.58797C10.1759 6.75597 9.23992 7.66797 9.23992 8.84397C9.23992 9.97197 9.95992 10.644 11.2079 10.788L12.4319 10.932C13.3199 11.028 13.6799 11.316 13.6799 12.012C13.6799 12.852 13.1759 13.188 12.0239 13.188C10.7039 13.188 10.2719 12.78 10.2479 11.556H8.99992Z" fill="black"/>
</svg>
