<svg width="24" height="24" viewBox="0 0 24 24" fill="none" xmlns="http://www.w3.org/2000/svg">
<path d="M2.63989 4.37996V17.748L6.93589 14.46H17.5919V4.37996C17.5919 3.39596 16.7519 2.57996 15.7919 2.57996H4.43989C3.45589 2.57996 2.63989 3.39596 2.63989 4.37996ZM4.19989 14.652V4.40396C4.19989 4.21196 4.36789 4.04396 4.55989 4.04396H15.6479C15.8639 4.04396 16.0319 4.21196 16.0319 4.40396V12.996H6.40789L4.19989 14.652ZM7.75189 9.29996C7.75189 10.404 8.56789 11.244 9.74389 11.388V12.108H10.4879V11.388C11.6159 11.244 12.4559 10.524 12.4559 9.58796C12.4559 8.69996 11.8079 8.14796 10.7519 8.00396L9.79189 7.88396C9.21589 7.81196 8.95189 7.61996 8.95189 7.18796C8.95189 6.65996 9.35989 6.41996 10.1279 6.41996C10.9679 6.41996 11.2799 6.68396 11.2559 7.42796H12.3119C12.3119 6.44396 11.5439 5.65196 10.4879 5.50796V4.78796H9.74389V5.50796C8.68789 5.65196 7.94389 6.34796 7.94389 7.25996C7.94389 8.12396 8.47189 8.65196 9.45589 8.77196L10.4399 8.89196C11.1119 8.96396 11.3519 9.15596 11.3519 9.63596C11.3519 10.212 10.9919 10.476 10.1039 10.476C9.14389 10.476 8.80789 10.164 8.78389 9.27596L7.75189 9.29996ZM7.79989 16.308C7.79989 17.292 8.61589 18.108 9.59989 18.108H17.0639L21.3599 21.42V8.45996C21.3599 7.45196 20.4959 6.56396 19.4639 6.56396V8.12396C19.6559 8.12396 19.7999 8.36396 19.7999 8.81996V18.324L17.5919 16.644H10.0559C9.50389 16.644 9.35989 16.5 9.35989 16.308H7.79989Z" fill="black"/>
</svg>
