<svg width="24" height="24" viewBox="0 0 24 24" fill="none" xmlns="http://www.w3.org/2000/svg">
<path d="M4.57198 19.92H11.916V18.528H9.77998L10.356 15.84H11.916V14.376H3.89998C3.68398 14.376 3.53998 14.208 3.53998 13.992V4.944C3.53998 4.728 3.68398 4.584 3.89998 4.584H18.78C18.996 4.584 19.14 4.728 19.14 4.944V6.12H20.7V4.92C20.7 3.936 19.884 3.12 18.9 3.12H3.77998C2.79598 3.12 1.97998 3.936 1.97998 4.92V14.04C1.97998 15.024 2.79598 15.84 3.77998 15.84H9.01198L8.45998 18.528H6.29998C5.45998 18.528 4.73998 19.152 4.57198 19.92ZM13.5 19.08C13.5 20.064 14.316 20.88 15.3 20.88H20.22C21.204 20.88 22.02 20.064 22.02 19.08V9.6C22.02 8.616 21.204 7.8 20.22 7.8H15.3C14.316 7.8 13.5 8.616 13.5 9.6V19.08ZM14.964 19.128V9.552C14.964 9.336 15.132 9.168 15.348 9.168H20.196C20.412 9.168 20.556 9.336 20.556 9.552V19.128C20.556 19.344 20.412 19.488 20.196 19.488H15.348C15.132 19.488 14.964 19.344 14.964 19.128ZM16.98 17.904C16.98 18.336 17.316 18.696 17.772 18.696C18.204 18.696 18.54 18.336 18.54 17.904C18.54 17.472 18.204 17.136 17.772 17.136C17.316 17.136 16.98 17.472 16.98 17.904Z" fill="black"/>
</svg>
