<svg width="24" height="24" viewBox="0 0 24 24" fill="none" xmlns="http://www.w3.org/2000/svg">
<path d="M5.81982 14.4961C5.89182 17.8081 8.02782 20.0161 11.2918 20.3521L11.2678 22.3201H12.9238L12.9478 20.3521C15.8998 20.0881 18.1798 18.2161 18.1798 15.4081C18.1798 12.8401 16.3558 11.4721 13.5718 11.1121L11.1238 10.7761C9.20382 10.4881 8.26782 9.79205 8.26782 8.30405V8.04005C8.26782 6.26405 9.49182 5.32805 11.7718 5.32805H12.2998C14.8198 5.32805 15.8998 6.50405 15.9238 9.00005H17.8918C17.8438 6.04805 15.8758 3.96005 12.9478 3.64805V1.68005H11.2918V3.64805C8.57982 3.93605 6.39582 5.66405 6.39582 8.28005C6.39582 10.6801 8.02782 12.0721 10.6918 12.4561L13.0438 12.7441C15.2278 13.0561 16.2598 13.7761 16.2598 15.4321V15.7681C16.2598 17.7121 14.9158 18.6721 12.3958 18.6721H11.9638C8.96382 18.6721 7.81182 17.2801 7.78782 14.4961H5.81982Z" fill="black"/>
</svg>
