<svg width="24" height="24" viewBox="0 0 24 24" fill="none" xmlns="http://www.w3.org/2000/svg">
<path d="M11.9333 21.7631L14.1893 19.5071C15.1253 18.2111 14.2133 15.7871 11.8133 13.1711L13.0613 11.9471C15.6773 14.3711 18.0533 15.2591 19.4933 14.2031L21.7493 11.9471C22.9013 10.4111 21.7253 7.81914 18.9413 5.05914C16.1813 2.27514 13.5893 1.09914 12.0533 2.25114L9.79726 4.50714C8.74126 5.94714 9.62926 8.32314 12.0533 10.9391L10.8293 12.1871C8.21326 9.78714 5.78926 8.87514 4.49326 9.81114L2.23725 12.0671C1.13325 13.5791 2.21325 16.1951 5.02126 18.9791C7.80526 21.7871 10.4213 22.8671 11.9333 21.7631ZM3.34126 13.0031L4.27726 12.0431C4.39726 13.3391 5.54926 15.0191 7.27726 16.7231C8.98126 18.4511 10.6613 19.6031 11.9573 19.7231L10.9973 20.6831C10.2053 21.1391 8.16526 20.1071 6.02926 17.9711C3.89325 15.8351 2.88525 13.7951 3.34126 13.0031ZM5.45326 10.8911C6.17326 10.4351 7.94926 11.3231 9.89326 13.0991L8.69326 14.2991C8.59726 14.3951 8.71726 14.7071 9.02926 14.9711C9.29326 15.2831 9.60526 15.4031 9.70126 15.3071L10.9013 14.1071C12.6773 16.0511 13.5653 17.8271 13.1093 18.5471C12.5093 19.1471 10.2773 17.9711 8.16526 15.8351C6.02926 13.7231 4.85326 11.4911 5.45326 10.8911ZM10.8773 5.44314L11.8133 4.50714C11.9333 5.80314 13.0853 7.48314 14.8133 9.18714C16.5173 10.9151 18.1973 12.0671 19.4933 12.1871L18.5573 13.1231C17.7653 13.5791 15.6773 12.5711 13.5653 10.4351C11.4293 8.32314 10.4213 6.23514 10.8773 5.44314ZM12.9893 3.33114C13.7813 2.85114 15.7973 3.93114 17.9573 6.04314C20.0693 8.20314 21.1493 10.2191 20.6693 11.0111C20.0453 11.6351 17.8133 10.4351 15.6773 8.32314C13.5653 6.18714 12.3653 3.95514 12.9893 3.33114ZM16.1093 6.73914C16.0133 6.83514 16.1573 7.17114 16.4933 7.50714C16.8293 7.84314 17.1653 7.98714 17.2613 7.89114L17.9093 7.29114C18.0053 7.19514 17.8373 6.83514 17.5013 6.49914C17.1413 6.16314 16.8053 5.99514 16.7093 6.09114L16.1093 6.73914Z" fill="black"/>
</svg>
