<svg width="24" height="24" viewBox="0 0 24 24" fill="none" xmlns="http://www.w3.org/2000/svg">
<path d="M20.8319 21.8881L21.8879 20.8321L3.16792 2.11206L2.11192 3.16806L5.87992 6.93606C4.22392 8.25606 2.83192 10.0081 1.91992 12.0001C3.91192 16.2961 8.11192 19.5121 11.9999 19.5121C13.6319 19.5121 15.3119 18.9121 16.8959 17.9521L20.8319 21.8881ZM3.55192 12.0001C4.39192 10.4161 5.54392 9.04806 6.91192 7.96806L9.07192 10.1281C8.73592 10.6801 8.51992 11.3281 8.51992 12.0001C8.51992 13.9201 10.0799 15.4801 11.9999 15.4801C12.6719 15.4801 13.3199 15.2641 13.8719 14.9281L15.8159 16.8721C14.5439 17.6401 13.2959 18.0241 11.9999 18.0241C8.78392 18.0241 5.47192 15.6241 3.55192 12.0001ZM9.07192 5.06406L10.1999 6.21606C10.7999 6.04806 11.3999 5.95206 11.9999 5.95206C15.1679 5.95206 18.4559 8.35206 20.3759 12.0001C19.8479 12.9601 19.2719 13.8241 18.5759 14.5921L19.6319 15.6481C20.6159 14.5921 21.4559 13.3441 22.0799 12.0001C20.0879 7.70406 15.8879 4.48806 11.9999 4.48806C11.0159 4.48806 10.0319 4.70406 9.07192 5.06406ZM9.91192 12.0001C9.91192 11.6881 9.95992 11.4001 10.0799 11.1361L12.8639 13.9201C12.5999 14.0401 12.3119 14.0881 11.9999 14.0881C10.8479 14.0881 9.91192 13.1521 9.91192 12.0001Z" fill="black"/>
</svg>
