<svg width="24" height="24" viewBox="0 0 24 24" fill="none" xmlns="http://www.w3.org/2000/svg">
<path d="M7.39195 12.72H13.3919V11.2561H7.39195V12.72ZM3.64795 12C3.64795 17.4481 6.50395 22.2001 10.5119 22.2001H13.5599C17.4719 22.2001 20.3519 17.496 20.3519 12C20.3519 6.50405 17.4719 1.80005 13.5599 1.80005H10.5119C6.50395 1.80005 3.64795 6.55205 3.64795 12ZM5.20795 12C5.20795 7.22405 7.58395 3.36005 10.5119 3.36005C13.3919 3.36005 15.7919 7.22405 15.7919 12C15.7919 16.7521 13.3919 20.6401 10.5119 20.6401C7.58395 20.6401 5.20795 16.7521 5.20795 12ZM13.7999 20.6401C15.7919 18.9121 17.0879 15.6481 17.0879 12C17.0879 8.35205 15.7919 5.08805 13.7999 3.36005C16.5359 3.57605 18.7919 7.34405 18.7919 12C18.7919 16.6321 16.5359 20.4241 13.7999 20.6401Z" fill="black"/>
</svg>
