<svg width="24" height="24" viewBox="0 0 24 24" fill="none" xmlns="http://www.w3.org/2000/svg">
<path d="M11.9999 21.312C16.2719 21.312 19.7039 19.968 19.7039 17.64V6.31199C19.7039 4.00799 16.4159 2.68799 11.9999 2.68799C7.7279 2.68799 4.2959 4.00799 4.2959 6.31199V17.64C4.2959 19.968 7.6319 21.312 11.9999 21.312ZM5.8559 17.64V16.032C7.1279 16.92 9.3599 17.448 11.9999 17.448C14.6159 17.448 16.8479 16.92 18.1439 16.032V17.64C18.1439 18.816 15.8639 19.728 11.9999 19.728C8.0639 19.728 5.8559 18.816 5.8559 17.64ZM5.8559 13.872V12.264C7.1279 13.176 9.3599 13.68 11.9999 13.68C14.6159 13.68 16.8479 13.176 18.1439 12.264V13.872C18.1439 15.096 15.8159 16.056 11.9999 16.056C8.1119 16.056 5.8559 15.096 5.8559 13.872ZM5.8559 10.104V8.49599C7.1279 9.40799 9.3599 9.91199 11.9999 9.91199C14.5919 9.91199 16.8479 9.40799 18.1439 8.49599V10.104C18.1439 11.328 15.8159 12.312 11.9999 12.312C8.1119 12.312 5.8559 11.328 5.8559 10.104ZM5.8559 6.31199C5.8559 5.15999 8.1359 4.24799 11.9999 4.24799C15.9839 4.24799 18.1439 5.15999 18.1439 6.31199C18.1439 7.58399 15.8159 8.51999 11.9999 8.51999C8.1119 8.51999 5.8559 7.58399 5.8559 6.31199Z" fill="black"/>
</svg>
