<svg width="24" height="24" viewBox="0 0 24 24" fill="none" xmlns="http://www.w3.org/2000/svg">
<path d="M4.67977 20.7839H19.3198C20.4238 20.7839 21.2398 19.9679 21.2398 18.8639V9.98394C21.2398 8.87994 20.4238 8.06394 19.3198 8.06394H18.3598C18.7918 7.55994 18.9838 6.91194 18.9838 6.31194C18.9838 4.65594 17.6398 3.21594 15.9118 3.21594C15.3598 3.21594 14.7838 3.35994 14.3278 3.64794C13.5358 4.12794 12.9118 4.99194 12.4078 5.97594L11.9998 6.76794L11.5918 5.97594C11.0878 4.99194 10.4638 4.12794 9.67177 3.64794C9.21577 3.35994 8.63977 3.21594 8.08777 3.21594C6.35977 3.21594 5.01577 4.65594 5.01577 6.31194C5.01577 6.91194 5.20777 7.55994 5.63977 8.06394H4.67977C3.57577 8.06394 2.75977 8.87994 2.75977 9.98394V18.8639C2.75977 19.9679 3.57577 20.7839 4.67977 20.7839ZM4.31977 18.9119V13.7039H19.6798V18.9119C19.6798 19.1519 19.5358 19.3199 19.2958 19.3199H4.72777C4.46377 19.3199 4.31977 19.1519 4.31977 18.9119ZM4.31977 11.7839V9.93594C4.31977 9.67194 4.46377 9.52794 4.72777 9.52794H19.2958C19.5358 9.52794 19.6798 9.67194 19.6798 9.93594V11.7839H4.31977ZM5.87977 17.4719H9.47977V15.5519H5.87977V17.4719ZM6.40777 6.31194C6.40777 5.39994 7.12777 4.58394 8.08777 4.58394C9.19177 4.58394 9.83977 5.59194 10.3678 6.59994L11.1838 8.15994H9.40777C8.61577 8.15994 7.77577 8.13594 7.17577 7.75194C6.62377 7.43994 6.40777 6.83994 6.40777 6.31194ZM12.8158 8.15994L13.6318 6.59994C14.1598 5.59194 14.8078 4.58394 15.9118 4.58394C16.8718 4.58394 17.5918 5.39994 17.5918 6.31194C17.5918 6.83994 17.3758 7.43994 16.8238 7.75194C16.2478 8.13594 15.3838 8.15994 14.5918 8.15994H12.8158Z" fill="black"/>
</svg>
