<svg width="24" height="24" viewBox="0 0 24 24" fill="none" xmlns="http://www.w3.org/2000/svg">
<path d="M11.9998 21.24C17.2318 21.24 21.2398 17.016 21.2398 12C21.2398 6.84001 17.2078 2.76001 11.9998 2.76001C6.79177 2.76001 2.75977 6.84001 2.75977 12C2.75977 17.16 6.79177 21.24 11.9998 21.24ZM4.22377 12C4.22377 11.16 4.34377 10.344 4.58377 9.60001H7.75177C7.65577 10.368 7.60777 11.184 7.60777 12C7.60777 12.816 7.65577 13.632 7.75177 14.4H4.58377C4.34377 13.656 4.22377 12.84 4.22377 12ZM5.08777 15.672H7.99177C8.35177 17.232 8.97577 18.576 9.98377 19.584C7.82377 19.032 6.07177 17.592 5.08777 15.672ZM5.11177 8.30401C6.09577 6.36001 7.84777 4.94401 10.0078 4.36801C8.99977 5.37601 8.35177 6.74401 7.99177 8.30401H5.11177ZM9.07177 12C9.07177 11.16 9.11977 10.368 9.23977 9.60001H14.7598C14.8798 10.368 14.9278 11.16 14.9278 12C14.9278 12.84 14.8798 13.632 14.7598 14.4H9.23977C9.11977 13.632 9.07177 12.84 9.07177 12ZM9.47977 15.672H14.5198C14.0398 17.664 13.1518 19.224 11.9998 19.848C10.8478 19.224 9.95977 17.664 9.47977 15.672ZM9.47977 8.30401C9.95977 6.31201 10.8478 4.75201 11.9998 4.12801C13.1518 4.75201 14.0398 6.31201 14.5198 8.30401H9.47977ZM13.9918 4.36801C16.1518 4.94401 17.9038 6.36001 18.8878 8.30401H16.0318C15.6478 6.74401 14.9998 5.37601 13.9918 4.36801ZM14.0398 19.584C15.0238 18.576 15.6718 17.208 16.0318 15.672H18.8878C17.8798 17.568 16.1518 19.008 14.0398 19.584ZM16.2718 14.4C16.3678 13.632 16.4158 12.816 16.4158 12C16.4158 11.184 16.3678 10.368 16.2718 9.60001H19.4158C19.6558 10.344 19.7758 11.16 19.7758 12C19.7758 12.84 19.6558 13.632 19.4158 14.4H16.2718Z" fill="black"/>
</svg>
