<svg width="24" height="24" viewBox="0 0 24 24" fill="none" xmlns="http://www.w3.org/2000/svg">
<path d="M13.6082 8.09999L11.1602 10.548C10.9442 10.74 10.7282 10.86 10.4642 10.86C9.84018 10.86 9.48018 10.38 9.48018 9.89999C9.48018 9.63599 9.60018 9.34799 9.74418 9.20399L12.2402 6.73199C12.6002 6.41999 13.0562 6.22799 13.5122 6.22799H15.4322C15.9122 6.22799 16.3442 6.41999 16.7042 6.73199L18.1442 8.14799C18.4802 8.50799 18.9362 8.67599 19.3922 8.67599H22.3202V7.21199H19.5842C19.4162 7.21199 19.2722 7.16399 19.1762 7.04399L17.8082 5.72399C17.1842 5.09999 16.2962 4.73999 15.4322 4.73999H8.56818C7.70418 4.73999 6.81618 5.09999 6.19218 5.72399L4.82418 7.04399C4.72818 7.16399 4.60818 7.21199 4.41618 7.21199H1.68018V8.67599H4.60818C5.06418 8.67599 5.52018 8.50799 5.88018 8.14799L7.32018 6.73199C7.65618 6.41999 8.11218 6.22799 8.56818 6.22799H10.9442L8.85618 8.29199C8.44818 8.69999 8.20818 9.29999 8.20818 9.87599C8.20818 11.124 9.19218 12.156 10.4642 12.156C11.0402 12.156 11.5922 11.94 12.0242 11.508L12.5522 10.98L16.6802 15.108L14.4722 17.268C14.1362 17.58 13.6802 17.796 13.2242 17.796H9.26418C8.80818 17.796 8.35218 17.58 8.04018 17.268L5.42418 14.7C5.06418 14.388 4.63218 14.196 4.15218 14.196H1.68018V15.66H3.98418C4.12818 15.66 4.27218 15.708 4.39218 15.828L6.93618 18.324C7.51218 18.876 8.40018 19.26 9.26418 19.26H13.2242C14.0882 19.26 14.9762 18.876 15.5522 18.3L18.2402 15.66H22.3202V14.196H17.5922L13.4642 10.068L14.5202 9.01199L13.6082 8.09999Z" fill="black"/>
</svg>
