<svg width="24" height="24" viewBox="0 0 24 24" fill="none" xmlns="http://www.w3.org/2000/svg">
<path d="M7.99214 20.6423C9.07214 21.2663 10.4401 21.3623 12.0721 20.5943L20.8321 16.5623C21.6241 16.2023 22.1521 15.3863 22.1521 14.4983C22.1521 13.2263 21.0961 12.2903 19.9201 12.2903C19.6801 12.2903 19.4641 12.3383 19.0561 12.5063L18.9841 12.3383C18.4561 11.3303 17.2561 10.9463 16.2001 11.4023L14.3521 12.2423C14.6881 12.5543 14.9521 12.9383 15.1441 13.3943L16.7761 12.6743C17.1601 12.4823 17.6161 12.6503 17.8081 13.0583L17.9041 13.2983L13.9201 15.0983C14.0401 14.1383 13.5121 13.1783 12.6481 12.7703L8.80814 10.9943C6.24014 9.79428 3.81614 10.2503 1.84814 12.5543V18.7943H3.31214V13.1303C4.75214 11.6903 6.33614 11.4743 8.18414 12.3143L12.0001 14.0903C12.3121 14.2343 12.5041 14.5463 12.5041 14.9063C12.5041 15.5303 11.8321 15.9623 11.2801 15.6983L8.08814 14.2343L7.60814 15.3143L11.0401 16.9223C11.6161 17.1863 12.2881 17.1383 13.2721 16.7063L19.6081 13.8503C20.1121 13.6103 20.6641 13.9703 20.6641 14.4983C20.6641 14.7863 20.4961 15.0983 20.2321 15.2183L11.4481 19.2743C10.3921 19.7543 9.50414 19.8023 8.71214 19.3463L6.12014 17.9063L5.40014 19.2023L7.99214 20.6423ZM8.71214 6.19428C8.71214 8.04228 10.2001 9.53028 12.0481 9.53028C13.8961 9.53028 15.3841 8.04228 15.3841 6.19428C15.3841 4.34628 13.8961 2.85828 12.0481 2.85828C10.2001 2.85828 8.71214 4.34628 8.71214 6.19428ZM10.1041 6.19428C10.1041 5.11428 10.9681 4.25028 12.0481 4.25028C13.1281 4.25028 13.9921 5.11428 13.9921 6.19428C13.9921 7.27428 13.1281 8.13828 12.0481 8.13828C10.9681 8.13828 10.1041 7.27428 10.1041 6.19428Z" fill="black"/>
</svg>
