<svg width="24" height="24" viewBox="0 0 24 24" fill="none" xmlns="http://www.w3.org/2000/svg">
<path d="M11.1118 13.464H12.0478C14.5438 13.464 15.7678 11.784 15.7678 9.93601C15.7678 8.06401 14.4958 6.28801 12.1438 6.28801C10.0318 6.28801 8.51977 7.92001 8.51977 9.69601V9.84001H10.0798V9.50401C10.0798 8.28001 10.6558 7.75201 12.0238 7.75201H12.2398C13.6318 7.75201 14.2078 8.28001 14.2078 9.52801V10.488C14.2078 11.64 13.6798 12.096 12.3838 12.096H11.1118V13.464ZM2.75977 12C2.75977 17.16 6.83977 21.24 11.9998 21.24C17.1838 21.24 21.2398 17.04 21.2398 12C21.2398 6.84001 17.1598 2.76001 11.9998 2.76001C6.83977 2.76001 2.75977 6.84001 2.75977 12ZM4.31977 12C4.31977 7.68001 7.70377 4.32001 11.9998 4.32001C16.3198 4.32001 19.6798 7.68001 19.6798 12C19.6798 16.176 16.3198 19.68 11.9998 19.68C7.70377 19.68 4.31977 16.296 4.31977 12ZM10.9678 17.16H13.0558V15.072H10.9678V17.16Z" fill="black"/>
</svg>
