<svg width="24" height="24" viewBox="0 0 24 24" fill="none" xmlns="http://www.w3.org/2000/svg">
<path d="M7.91997 21.36L9.07197 20.208L6.76797 17.904L8.06397 16.608L10.368 18.888L11.52 17.736L9.23997 15.432L13.344 11.304C14.112 11.808 15.024 12.096 16.008 12.096C18.72 12.096 20.832 9.96002 20.832 7.36802C20.832 4.77601 18.72 2.64001 16.008 2.64001C13.296 2.64001 11.184 4.77601 11.184 7.36802C11.184 8.42402 11.544 9.40802 12.144 10.176L3.16797 19.176L4.31997 20.328L5.59197 19.08L7.91997 21.36ZM12.84 7.36802C12.84 5.59201 14.256 4.20001 16.008 4.20001C17.784 4.20001 19.176 5.59201 19.176 7.36802C19.176 9.12002 17.784 10.536 16.008 10.536C14.256 10.536 12.84 9.12002 12.84 7.36802Z" fill="black"/>
</svg>
