<svg width="24" height="24" viewBox="0 0 24 24" fill="none" xmlns="http://www.w3.org/2000/svg">
<path d="M8.5681 17.688V21.72H15.4321V17.688C15.4321 16.704 15.6481 16.296 16.6801 15.12L17.2561 14.472C18.6241 12.96 19.2961 11.352 19.2961 9.45603C19.2961 5.20803 15.8641 2.28003 12.0001 2.28003C8.1361 2.28003 4.7041 5.20803 4.7041 9.45603C4.7041 11.352 5.3761 12.96 6.7441 14.472L7.3201 15.12C8.3521 16.296 8.5681 16.704 8.5681 17.688ZM6.2641 9.45603C6.2641 6.04803 8.9521 3.74403 12.0001 3.74403C15.0481 3.74403 17.7361 6.04803 17.7361 9.45603C17.7361 10.992 17.1841 12.264 16.0801 13.512L15.5281 14.136C14.4241 15.384 13.9441 16.2 13.8721 17.472H12.7441V12.48H11.2561V17.472H10.1281C10.0561 16.2 9.5761 15.384 8.4721 14.136L7.9201 13.512C6.8161 12.264 6.2641 10.992 6.2641 9.45603ZM10.1281 20.256V18.84H13.8721V20.256H10.1281Z" fill="black"/>
</svg>
