<svg width="24" height="24" viewBox="0 0 24 24" fill="none" xmlns="http://www.w3.org/2000/svg">
<path d="M7.67976 16.3439L11.9998 22.1279L16.3198 16.3439C17.9758 14.1119 19.3438 11.8319 19.3438 9.33595C19.3198 4.72795 15.7918 1.87195 11.9998 1.87195C8.20776 1.87195 4.67976 4.72795 4.65576 9.33595C4.65576 11.8319 6.02376 14.1119 7.67976 16.3439ZM6.21576 9.33595C6.23976 5.66395 8.99976 3.43195 11.9998 3.43195C14.9998 3.43195 17.7598 5.66395 17.7838 9.33595C17.7838 11.3519 16.6558 13.2959 15.0718 15.4079L11.9998 19.5119L8.92776 15.4079C7.36776 13.2959 6.21576 11.3519 6.21576 9.33595ZM8.51976 9.23995C8.51976 11.1839 10.0798 12.7199 11.9998 12.7199C13.9198 12.7199 15.4798 11.1839 15.4798 9.23995C15.4798 7.31995 13.9198 5.75995 11.9998 5.75995C10.0798 5.75995 8.51976 7.31995 8.51976 9.23995ZM9.91176 9.23995C9.91176 8.08795 10.8478 7.15195 11.9998 7.15195C13.1518 7.15195 14.1118 8.08795 14.1118 9.23995C14.1118 10.4159 13.1518 11.3519 11.9998 11.3519C10.8478 11.3519 9.91176 10.4159 9.91176 9.23995Z" fill="black"/>
</svg>
