<svg width="24" height="24" viewBox="0 0 24 24" fill="none" xmlns="http://www.w3.org/2000/svg">
<path d="M17.6639 22.3201L22.3199 17.6641L6.31193 1.68005L1.67993 6.33605L17.6639 22.3201ZM3.62393 6.33605L6.31193 3.62405L12.7679 10.0561C12.0959 10.1041 11.4479 10.4161 10.8959 10.9201C10.3919 11.4241 10.1039 12.0961 10.0559 12.7441L3.62393 6.33605ZM11.8319 14.5441C11.1359 13.8241 11.1599 12.6241 11.8799 11.8801C12.6479 11.1601 13.8239 11.1601 14.5199 11.8321L20.3759 17.6641L17.6639 20.3761L11.8319 14.5441ZM12.3119 13.3441C12.3119 13.8961 12.7679 14.3761 13.3439 14.3761C13.8959 14.3761 14.3759 13.8961 14.3759 13.3441C14.3759 12.7681 13.8959 12.3121 13.3439 12.3121C12.7679 12.3121 12.3119 12.7681 12.3119 13.3441Z" fill="black"/>
</svg>
