<svg width="24" height="24" viewBox="0 0 24 24" fill="none" xmlns="http://www.w3.org/2000/svg">
<path d="M10.7041 16.704C13.0321 16.704 14.3041 14.832 14.2801 11.904C14.2561 9.04801 12.9361 7.34401 10.7041 7.34401C8.9761 7.34401 7.5121 8.66401 7.5121 10.488C7.5121 12.216 8.8081 13.512 10.4641 13.512C11.3521 13.512 12.1441 13.128 12.5521 12.432H12.7441C12.7681 14.28 12.1921 15.336 10.6801 15.336C9.6001 15.336 9.0481 14.832 8.9521 13.848H7.4161C7.5361 15.576 8.9041 16.704 10.7041 16.704ZM4.1521 21.24H10.6081C15.7921 21.24 19.8481 17.016 19.8481 12C19.8481 6.84001 15.7681 2.76001 10.6081 2.76001H4.1521V4.32001H10.6081C14.9281 4.32001 18.2881 7.68001 18.2881 12C18.2881 16.176 14.9281 19.68 10.6081 19.68H4.1521V21.24ZM9.0481 10.704V10.152C9.0481 9.21601 9.5761 8.73601 10.6561 8.73601H10.8481C11.9521 8.73601 12.4801 9.24001 12.4801 10.152V10.704C12.4801 11.64 11.9521 12.12 10.8481 12.12H10.6561C9.5761 12.12 9.0481 11.64 9.0481 10.704Z" fill="black"/>
</svg>
