<svg width="24" height="24" viewBox="0 0 24 24" fill="none" xmlns="http://www.w3.org/2000/svg">
<path d="M12 21.24C17.184 21.24 21.24 17.04 21.24 12C21.24 6.84001 17.16 2.76001 12 2.76001C6.84001 2.76001 2.76001 6.84001 2.76001 12C2.76001 17.16 6.84001 21.24 12 21.24ZM4.32001 12C4.32001 7.68001 7.70401 4.32001 12 4.32001C16.32 4.32001 19.68 7.68001 19.68 12C19.68 16.176 16.32 19.68 12 19.68C7.70401 19.68 4.32001 16.296 4.32001 12ZM8.80801 13.848C8.92801 15.576 10.296 16.704 12.096 16.704C14.424 16.704 15.696 14.832 15.672 11.904C15.648 9.04801 14.328 7.34401 12.096 7.34401C10.368 7.34401 8.90401 8.66401 8.90401 10.488C8.90401 12.216 10.2 13.512 11.856 13.512C12.744 13.512 13.536 13.128 13.92 12.432H14.136C14.16 14.28 13.584 15.336 12.072 15.336C10.992 15.336 10.44 14.832 10.344 13.848H8.80801ZM10.44 10.704V10.152C10.44 9.21601 10.968 8.73601 12.048 8.73601H12.24C13.344 8.73601 13.872 9.24001 13.872 10.152V10.704C13.872 11.64 13.344 12.12 12.24 12.12H12.048C10.968 12.12 10.44 11.64 10.44 10.704Z" fill="black"/>
</svg>
