<svg width="24" height="24" viewBox="0 0 24 24" fill="none" xmlns="http://www.w3.org/2000/svg">
<path d="M9.9482 22.092L13.1162 19.02L12.0602 15.9L14.1002 13.836L17.9642 21.156L20.5562 18.324L18.5402 9.41996L21.3242 6.63596C21.8042 6.13196 22.0922 5.43596 22.0922 4.71596C22.0922 3.08396 20.8202 1.90796 19.2842 1.90796C18.5162 1.90796 17.8442 2.24396 17.1482 2.93996L14.6042 5.45996L5.6282 3.41996L2.9162 6.10796L10.1642 9.89996L8.1242 11.94L4.9802 10.956L1.9082 14.052L7.1402 16.932L9.9482 22.092ZM4.3322 13.716L5.4122 12.612L8.5322 13.62L12.6362 9.51596L5.3882 5.72396L6.1082 5.02796L15.0602 7.06796L18.1802 3.97196C18.6122 3.53996 18.9242 3.37196 19.2842 3.37196C20.0282 3.37196 20.6282 3.89996 20.6282 4.71596C20.6282 5.05196 20.5082 5.36396 20.2922 5.57996L16.9322 8.93996L18.9482 17.892L18.3002 18.612L14.4842 11.388L10.3562 15.492L11.4362 18.612L10.3082 19.692L8.2202 15.852L4.3322 13.716Z" fill="black"/>
</svg>
