<svg width="24" height="24" viewBox="0 0 24 24" fill="none" xmlns="http://www.w3.org/2000/svg">
<path d="M13.4641 9.88799H20.1121V3.23999H13.4641V9.88799ZM2.64014 13.08H21.3601V11.592H2.64014V13.08ZM3.88814 20.76H10.5361V14.76H9.21614V19.44H5.20814V14.76H3.88814V20.76ZM3.88814 9.88799H10.5361V3.23999H3.88814V9.88799ZM5.20814 8.56799V4.55999H9.21614V8.56799H5.20814ZM6.48014 18.192H7.99214V16.656H6.48014V18.192ZM6.48014 7.31999H7.99214V5.80799H6.48014V7.31999ZM13.4641 20.76H14.9761V19.248H13.4641V20.76ZM13.4641 16.272H16.4881V14.76H13.4641V16.272ZM14.7841 8.56799V4.55999H18.7921V8.56799H14.7841ZM14.9761 19.248H17.9761V16.272H16.4881V17.736H14.9761V19.248ZM16.0321 7.31999H17.5441V5.80799H16.0321V7.31999ZM18.1201 20.76H20.1121V17.736H18.1201V20.76Z" fill="black"/>
</svg>
