<svg width="24" height="24" viewBox="0 0 24 24" fill="none" xmlns="http://www.w3.org/2000/svg">
<path d="M14.5919 22.104L14.8559 18.984C15.5519 18.72 16.1519 18.384 16.7279 17.952L19.5359 19.272L22.0799 14.88L19.5599 13.152C19.6079 12.768 19.6319 12.408 19.6319 12C19.6319 11.592 19.6079 11.232 19.5599 10.848L22.0799 9.12L19.5599 4.728L16.7519 6.024C16.1759 5.592 15.5519 5.256 14.8559 4.992L14.5919 1.896H9.40792L9.14392 4.992C8.44792 5.256 7.84792 5.616 7.27192 6.048L4.46392 4.728L1.91992 9.096L4.48792 10.872C4.43992 11.232 4.41592 11.616 4.41592 12C4.41592 12.384 4.43992 12.768 4.48792 13.128L1.91992 14.904L4.46392 19.272L7.27192 17.952C7.84792 18.384 8.44792 18.744 9.14392 19.008L9.40792 22.104H14.5919ZM3.95992 15.336L6.23992 13.752C6.04792 13.152 5.97592 12.648 5.97592 12C5.97592 11.352 6.04792 10.848 6.23992 10.248L3.95992 8.664L5.11192 6.672L7.55992 7.824C8.44792 6.912 9.35992 6.36 10.6319 6.096L10.8479 3.36H13.1519L13.3679 6.096C14.6639 6.384 15.5759 6.888 16.4639 7.8L18.8879 6.672L20.0399 8.688L17.8079 10.2C17.9999 10.872 18.0719 11.376 18.0719 12C18.0719 12.624 17.9999 13.128 17.8079 13.8L20.0399 15.312L18.8879 17.328L16.4399 16.176C15.5759 17.064 14.6399 17.592 13.3679 17.928L13.1519 20.64H10.8479L10.6319 17.904C9.35992 17.64 8.44792 17.088 7.55992 16.176L5.11192 17.328L3.95992 15.336ZM8.51992 12C8.51992 13.92 10.0799 15.48 11.9999 15.48C13.9199 15.48 15.4799 13.92 15.4799 12C15.4799 10.08 13.9199 8.52 11.9999 8.52C10.0799 8.52 8.51992 10.08 8.51992 12ZM9.91192 12C9.91192 10.848 10.8479 9.888 11.9999 9.888C13.1519 9.888 14.1119 10.848 14.1119 12C14.1119 13.152 13.1519 14.088 11.9999 14.088C10.8479 14.088 9.91192 13.152 9.91192 12Z" fill="black"/>
</svg>
