<svg width="24" height="24" viewBox="0 0 24 24" fill="none" xmlns="http://www.w3.org/2000/svg">
<path d="M10.5601 16.704C12.4801 16.704 13.8001 15.384 13.8001 13.608C13.8001 11.832 12.4561 10.536 10.8001 10.536C9.9361 10.536 9.1441 10.92 8.7361 11.592H8.5201C8.5201 9.79201 9.0481 8.71201 10.6081 8.71201C11.5921 8.71201 12.2161 9.12001 12.3361 9.98401H13.7761C13.5361 8.37601 12.3361 7.34401 10.6081 7.34401C8.3041 7.34401 6.9841 9.21601 7.0081 12.144C7.0321 15 8.3281 16.704 10.5601 16.704ZM4.1521 21.24H10.6081C15.7921 21.24 19.8481 17.016 19.8481 12C19.8481 6.84001 15.7681 2.76001 10.6081 2.76001H4.1521V4.32001H10.6081C14.9281 4.32001 18.2881 7.68001 18.2881 12C18.2881 16.176 14.9281 19.68 10.6081 19.68H4.1521V21.24ZM8.7601 13.872V13.272C8.7601 12.336 9.3121 11.832 10.4401 11.832H10.6321C11.7601 11.832 12.2881 12.336 12.2881 13.272V13.872C12.2881 14.808 11.7601 15.312 10.6321 15.312H10.4401C9.2881 15.312 8.7601 14.784 8.7601 13.872Z" fill="black"/>
</svg>
