<svg width="24" height="24" viewBox="0 0 24 24" fill="none" xmlns="http://www.w3.org/2000/svg">
<path d="M4.06813 20.124H19.9081C21.2281 18.444 22.0681 16.284 22.0681 13.956C22.0681 12.012 21.5161 10.212 20.5561 8.69998L19.4281 9.85198C20.1001 11.052 20.5081 12.468 20.5081 13.956C20.5081 15.66 19.9801 17.244 19.1161 18.564H4.86013C3.99613 17.244 3.49213 15.66 3.49213 13.956C3.49213 9.25198 7.30813 5.43598 11.9881 5.43598C13.4761 5.43598 14.8921 5.84398 16.0921 6.51598L17.2441 5.38798C15.7321 4.42798 13.9321 3.87598 11.9881 3.87598C6.44413 3.87598 1.93213 8.41198 1.93213 13.956C1.93213 16.284 2.74813 18.444 4.06813 20.124ZM11.2201 13.956C11.2201 14.388 11.5561 14.724 11.9881 14.724C12.2041 14.724 12.3961 14.652 12.5401 14.508L19.6681 7.35598L18.5881 6.27598L11.4361 13.404C11.2921 13.548 11.2201 13.74 11.2201 13.956Z" fill="black"/>
</svg>
