<svg width="24" height="24" viewBox="0 0 24 24" fill="none" xmlns="http://www.w3.org/2000/svg">
<path d="M11.9402 22.3201C13.1882 22.3201 14.1962 21.3121 14.1962 20.0641C14.1962 19.1041 13.5722 18.2881 12.7322 17.9761V15.1441L17.0762 13.7761C17.8442 13.5361 18.3242 12.9121 18.3242 12.1441V8.59205H19.0922V5.71205H16.1162V8.59205H16.9322V12.0961C16.9322 12.3121 16.8362 12.4081 16.6202 12.4801L12.7322 13.7041V5.49605H14.2442L11.9402 1.68005L9.6362 5.49605H11.1722V15.3121L7.5962 14.1121C7.3562 14.0401 7.2602 13.9201 7.2602 13.6801V10.0801C7.8122 9.81605 8.2202 9.24005 8.2202 8.59205C8.2202 7.68005 7.4762 6.93605 6.5642 6.93605C5.6522 6.93605 4.9082 7.68005 4.9082 8.59205C4.9082 9.24005 5.2922 9.81605 5.8682 10.0801V13.8001C5.8682 14.5681 6.3482 15.1681 7.0922 15.4081L11.1722 16.7521V17.9761C10.3082 18.2881 9.6842 19.1041 9.6842 20.0641C9.6842 21.3121 10.6922 22.3201 11.9402 22.3201Z" fill="black"/>
</svg>
