<svg width="24" height="24" viewBox="0 0 24 24" fill="none" xmlns="http://www.w3.org/2000/svg">
<path d="M13.3919 16.704C15.7919 16.704 17.0639 14.856 17.0639 12.024C17.0639 9.16801 15.8159 7.34401 13.3919 7.34401C10.9919 7.34401 9.71986 9.19201 9.71986 12.024C9.71986 14.856 10.9919 16.704 13.3919 16.704ZM4.15186 12C4.15186 17.16 8.23186 21.24 13.3919 21.24H19.8479V19.68H13.3919C9.09586 19.68 5.71186 16.296 5.71186 12C5.71186 7.80001 9.09586 4.32001 13.3919 4.32001H19.8479V2.76001H13.3919C8.20786 2.76001 4.15186 6.96001 4.15186 12ZM11.3279 12.888V11.208C11.3279 9.26401 11.9279 8.66401 13.3679 8.66401C14.1839 8.66401 14.7359 8.85601 15.0719 9.33601L11.3519 13.536C11.3279 13.344 11.3279 13.128 11.3279 12.888ZM11.6879 14.712L15.4319 10.488C15.4559 10.704 15.4559 10.944 15.4559 11.208V12.888C15.4559 14.808 14.8079 15.408 13.3679 15.408C12.5519 15.408 12.0239 15.216 11.6879 14.712Z" fill="black"/>
</svg>
