<svg width="24" height="24" viewBox="0 0 24 24" fill="none" xmlns="http://www.w3.org/2000/svg">
<path d="M12 21.24C17.184 21.24 21.24 17.04 21.24 12C21.24 6.84001 17.16 2.76001 12 2.76001C6.84001 2.76001 2.76001 6.84001 2.76001 12C2.76001 17.16 6.84001 21.24 12 21.24ZM4.32001 12C4.32001 7.68001 7.70401 4.32001 12 4.32001C16.32 4.32001 19.68 7.68001 19.68 12C19.68 16.176 16.32 19.68 12 19.68C7.70401 19.68 4.32001 16.296 4.32001 12ZM8.32801 12.024C8.32801 14.856 9.60001 16.704 12 16.704C14.4 16.704 15.672 14.856 15.672 12.024C15.672 9.16801 14.424 7.34401 12 7.34401C9.60001 7.34401 8.32801 9.19201 8.32801 12.024ZM9.93601 12.888V11.208C9.93601 9.26401 10.536 8.66401 11.976 8.66401C12.792 8.66401 13.344 8.85601 13.68 9.33601L9.96001 13.536C9.93601 13.344 9.93601 13.128 9.93601 12.888ZM10.296 14.712L14.04 10.488C14.064 10.704 14.064 10.944 14.064 11.208V12.888C14.064 14.808 13.416 15.408 11.976 15.408C11.16 15.408 10.632 15.216 10.296 14.712Z" fill="black"/>
</svg>
