<?xml version="1.0" encoding="utf-8"?>
<!-- Generator: Adobe Illustrator 26.0.3, SVG Export Plug-In . SVG Version: 6.00 Build 0)  -->
<svg version="1.1" id="Layer_1" xmlns="http://www.w3.org/2000/svg" xmlns:xlink="http://www.w3.org/1999/xlink" x="0px" y="0px"
	 viewBox="0 0 506 294" style="enable-background:new 0 0 506 294;" xml:space="preserve">
<style type="text/css">
	.st0{clip-path:url(#SVGID_00000074424788286508350760000007922715950751937202_);}
	.st1{opacity:0.5;}
	.st2{opacity:0.5;fill:url(#SVGID_00000087409774574925923970000000275124637835639215_);enable-background:new    ;}
	.st3{opacity:0.5;fill:url(#SVGID_00000048499725178450863450000007002410320679760545_);enable-background:new    ;}
	.st4{opacity:0.5;fill:url(#SVGID_00000077303864225951899000000018234887121886813061_);enable-background:new    ;}
	.st5{opacity:0.5;fill:url(#SVGID_00000072983198238420230900000013530492158478093495_);enable-background:new    ;}
	.st6{opacity:0.5;fill:url(#SVGID_00000067942539072337763800000013528695778498303648_);enable-background:new    ;}
	.st7{opacity:0.5;fill:url(#SVGID_00000061460462301807123260000003451751646926859447_);enable-background:new    ;}
	.st8{fill:url(#SVGID_00000106861575067974055910000005142431566699654046_);}
	.st9{opacity:0.5;fill:url(#SVGID_00000075842050854765916390000011889174374626692501_);enable-background:new    ;}
	.st10{opacity:0.5;fill:url(#SVGID_00000140012080998860257430000015543957819919929015_);enable-background:new    ;}
	.st11{opacity:0.5;fill:url(#SVGID_00000173852446878543258560000001534284248531910315_);enable-background:new    ;}
	.st12{fill:url(#SVGID_00000036226693452951656030000013036227731196038807_);}
	.st13{fill:url(#SVGID_00000032637191412104392280000017960119428461203615_);}
	.st14{fill:url(#SVGID_00000029753060606913973180000003645548631252735119_);}
	.st15{fill:url(#SVGID_00000040533517277771614320000008684996406409209226_);}
	.st16{fill:url(#SVGID_00000093178898069807920930000011038060423240004262_);}
	.st17{fill:#BFC8D6;}
	.st18{fill:url(#SVGID_00000134966598532521498150000011565610665557899928_);}
	.st19{fill:#475B80;}
	.st20{fill:url(#SVGID_00000115503166515663224110000002970535317969178032_);}
	.st21{fill:url(#SVGID_00000121966579007121507120000017841018172782060730_);}
	.st22{fill:#4970BC;}
	.st23{fill:url(#SVGID_00000182494837478220059900000013320219849190455453_);}
	.st24{fill:#5075CF;}
	.st25{fill:url(#SVGID_00000055707642335296641140000007366581692346561438_);}
	.st26{fill:url(#SVGID_00000060740581805505544760000010932843109890228411_);}
	.st27{fill:url(#SVGID_00000041288444753750304050000006223116453559418800_);}
	.st28{fill:url(#SVGID_00000003073873195804836490000010164830786619803041_);}
	.st29{fill:url(#SVGID_00000021803115428432186720000014017248829706872755_);}
	.st30{fill:url(#SVGID_00000179642647161712096450000013490340867851035294_);}
	.st31{fill:url(#SVGID_00000173871698808428378420000005533991620332155296_);}
	.st32{fill:url(#SVGID_00000183961407731470003390000012653292481041518740_);}
	.st33{fill:url(#SVGID_00000111875458555738996960000000365960264964858552_);}
	.st34{fill:url(#SVGID_00000060737158402490819910000012487684092512394898_);}
	.st35{fill:url(#SVGID_00000182490319333252782450000005260770636468431253_);}
	.st36{fill:url(#SVGID_00000127025140113717836700000002219154288031724191_);}
	.st37{fill:url(#SVGID_00000085222870724962352260000010605998504137242246_);}
	.st38{opacity:0.8;fill:url(#SVGID_00000111907268455264592340000012756059615653788856_);enable-background:new    ;}
	.st39{fill:url(#SVGID_00000020358656123245620190000016406467291535337111_);}
	.st40{fill:url(#SVGID_00000150789837751252530830000012535040118723105722_);}
	.st41{fill:url(#SVGID_00000160904774005294487810000000724638133947339425_);}
	.st42{fill:url(#SVGID_00000121987081750733034580000011807481559876665765_);}
	.st43{fill:url(#SVGID_00000134215929909058366960000013650192475773579953_);}
	.st44{fill:url(#SVGID_00000088097526180150043670000008669030893155507843_);}
	.st45{fill:url(#SVGID_00000103982375849604256280000000419223150062928299_);}
	.st46{fill:url(#SVGID_00000105391151721091263340000017663125748812485558_);}
	.st47{fill:#2F2F2F;}
	.st48{fill:url(#SVGID_00000105409704257917606140000010916648930064069047_);}
	.st49{fill:#FFFFFF;}
	.st50{fill:none;stroke:#BFC8D6;stroke-width:3;stroke-linecap:round;stroke-linejoin:round;stroke-miterlimit:10;}
	.st51{fill:#6088F5;}
	.st52{fill:url(#SVGID_00000098942852431135430280000017858027100787311525_);}
	.st53{fill:url(#SVGID_00000092448966627806673560000000332267139174664074_);}
	.st54{fill:url(#SVGID_00000039095622916182900560000009306366738729007505_);}
	.st55{fill:url(#SVGID_00000100370270147117661690000008414081340063863214_);}
	.st56{fill:url(#SVGID_00000079484261640121430720000017619939676598463673_);}
	.st57{fill:url(#SVGID_00000182507497420774108140000010229911464359069336_);}
	.st58{fill:url(#SVGID_00000039132002123544019930000011949910025543786652_);}
	.st59{fill:url(#SVGID_00000169519248672242502470000008723001004070854061_);}
	.st60{opacity:0.4;fill:url(#SVGID_00000088114946754070429600000003142753894061412028_);enable-background:new    ;}
	.st61{fill:url(#SVGID_00000109008797057367100670000002103007474771765900_);}
	.st62{fill:url(#SVGID_00000111188794204345062910000003693357647973694122_);}
	.st63{fill:url(#SVGID_00000025424946475870392020000015059276325952225697_);}
	.st64{fill:none;}
	.st65{fill:url(#SVGID_00000010311092478497090090000011957325352551589808_);}
	.st66{fill:url(#SVGID_00000137825533525579449510000015738520137980338623_);}
	.st67{fill:url(#SVGID_00000021817223769835240300000011195669978593564804_);}
	.st68{fill:none;stroke:#CCF5F5;stroke-width:2;stroke-linecap:round;stroke-linejoin:round;stroke-miterlimit:10;}
	.st69{opacity:0.5;fill:#AAAAB9;enable-background:new    ;}
	.st70{opacity:0.5;fill:url(#SVGID_00000149359718837537771560000005633755498067051172_);enable-background:new    ;}
	.st71{opacity:0.5;fill:#E9EAF0;enable-background:new    ;}
	.st72{opacity:0.6;fill:url(#SVGID_00000167397899938592363230000004871200024843284904_);}
</style>
<g>
	<defs>
		<rect id="SVGID_1_" width="506" height="293"/>
	</defs>
	<clipPath id="SVGID_00000046313852507675193900000003433143800744742572_">
		<use xlink:href="#SVGID_1_"  style="overflow:visible;"/>
	</clipPath>
	<g style="clip-path:url(#SVGID_00000046313852507675193900000003433143800744742572_);">
		<g class="st1">
			<g class="st1">
				
					<linearGradient id="SVGID_00000026848382554117562570000010148552245445534850_" gradientUnits="userSpaceOnUse" x1="59.5083" y1="83.3134" x2="153.5734" y2="160.3004" gradientTransform="matrix(1 0 0 -1 0 296)">
					<stop  offset="0" style="stop-color:#6D9AF8"/>
					<stop  offset="1" style="stop-color:#83AAFF"/>
				</linearGradient>
				
					<path style="opacity:0.5;fill:url(#SVGID_00000026848382554117562570000010148552245445534850_);enable-background:new    ;" d="
					M114.3,167.4H109v5.3h5.3V167.4z"/>
				
					<linearGradient id="SVGID_00000000903737289304446210000000179061063564636077_" gradientUnits="userSpaceOnUse" x1="55.0181" y1="88.7987" x2="149.0829" y2="165.7867" gradientTransform="matrix(1 0 0 -1 0 296)">
					<stop  offset="0" style="stop-color:#6D9AF8"/>
					<stop  offset="1" style="stop-color:#83AAFF"/>
				</linearGradient>
				
					<path style="opacity:0.5;fill:url(#SVGID_00000000903737289304446210000000179061063564636077_);enable-background:new    ;" d="
					M114.3,158.2H109v5.3h5.3V158.2z"/>
				
					<linearGradient id="SVGID_00000025441811307541693760000010106480277821786764_" gradientUnits="userSpaceOnUse" x1="50.5275" y1="94.2853" x2="144.5921" y2="171.2733" gradientTransform="matrix(1 0 0 -1 0 296)">
					<stop  offset="0" style="stop-color:#6D9AF8"/>
					<stop  offset="1" style="stop-color:#83AAFF"/>
				</linearGradient>
				
					<path style="opacity:0.5;fill:url(#SVGID_00000025441811307541693760000010106480277821786764_);enable-background:new    ;" d="
					M114.3,149.1H109v5.3h5.3V149.1z"/>
			</g>
			<g class="st1">
				
					<linearGradient id="SVGID_00000068671290256461674500000005717597733658622083_" gradientUnits="userSpaceOnUse" x1="59.5068" y1="110.8412" x2="153.5719" y2="187.8282" gradientTransform="matrix(1 0 0 -1 0 296)">
					<stop  offset="0" style="stop-color:#6D9AF8"/>
					<stop  offset="1" style="stop-color:#83AAFF"/>
				</linearGradient>
				
					<path style="opacity:0.5;fill:url(#SVGID_00000068671290256461674500000005717597733658622083_);enable-background:new    ;" d="
					M114.3,139.9H109v5.3h5.3V139.9z"/>
				
					<linearGradient id="SVGID_00000063602437618482322700000009851385005933802429_" gradientUnits="userSpaceOnUse" x1="55.0165" y1="116.3276" x2="149.0813" y2="193.3146" gradientTransform="matrix(1 0 0 -1 0 296)">
					<stop  offset="0" style="stop-color:#6D9AF8"/>
					<stop  offset="1" style="stop-color:#83AAFF"/>
				</linearGradient>
				
					<path style="opacity:0.5;fill:url(#SVGID_00000063602437618482322700000009851385005933802429_);enable-background:new    ;" d="
					M114.3,130.7H109v5.3h5.3V130.7z"/>
				
					<linearGradient id="SVGID_00000146462759367781489870000007328447786291463076_" gradientUnits="userSpaceOnUse" x1="50.5261" y1="121.8141" x2="144.5916" y2="198.8014" gradientTransform="matrix(1 0 0 -1 0 296)">
					<stop  offset="0" style="stop-color:#6D9AF8"/>
					<stop  offset="1" style="stop-color:#83AAFF"/>
				</linearGradient>
				
					<path style="opacity:0.5;fill:url(#SVGID_00000146462759367781489870000007328447786291463076_);enable-background:new    ;" d="
					M114.3,121.5H109v5.3h5.3V121.5z"/>
			</g>
		</g>
		
			<radialGradient id="SVGID_00000050663462907710501570000011966556286826404742_" cx="-144.4322" cy="542.4016" r="1" gradientTransform="matrix(54.2208 -12.1975 -10.8945 -48.4284 14016.7969 24570.3438)" gradientUnits="userSpaceOnUse">
			<stop  offset="0.1182" style="stop-color:#000000;stop-opacity:0.2"/>
			<stop  offset="1" style="stop-color:#000000;stop-opacity:0"/>
		</radialGradient>
		<path style="fill:url(#SVGID_00000050663462907710501570000011966556286826404742_);" d="M284.7,105.5
			c-37.4-15.6-59.1-27.8-59.1-27.8l51.7,12.8L284.7,105.5z"/>
		<g class="st1">
			
				<linearGradient id="SVGID_00000162315174524553818490000008195435014707543455_" gradientUnits="userSpaceOnUse" x1="268.9653" y1="186.0139" x2="363.0303" y2="263.0013" gradientTransform="matrix(1 0 0 -1 0 296)">
				<stop  offset="0" style="stop-color:#6D9AF8"/>
				<stop  offset="1" style="stop-color:#83AAFF"/>
			</linearGradient>
			<path style="opacity:0.5;fill:url(#SVGID_00000162315174524553818490000008195435014707543455_);enable-background:new    ;" d="
				M323.7,64.7h-5.3V70h5.3V64.7z"/>
			
				<linearGradient id="SVGID_00000039846251092378943840000014967014196578887057_" gradientUnits="userSpaceOnUse" x1="264.4748" y1="191.5001" x2="358.5398" y2="268.4878" gradientTransform="matrix(1 0 0 -1 0 296)">
				<stop  offset="0" style="stop-color:#6D9AF8"/>
				<stop  offset="1" style="stop-color:#83AAFF"/>
			</linearGradient>
			<path style="opacity:0.5;fill:url(#SVGID_00000039846251092378943840000014967014196578887057_);enable-background:new    ;" d="
				M323.7,55.5h-5.3v5.3h5.3V55.5z"/>
			
				<linearGradient id="SVGID_00000142155269839570959130000004830762448401067668_" gradientUnits="userSpaceOnUse" x1="259.9844" y1="196.9866" x2="354.0494" y2="273.9741" gradientTransform="matrix(1 0 0 -1 0 296)">
				<stop  offset="0" style="stop-color:#6D9AF8"/>
				<stop  offset="1" style="stop-color:#83AAFF"/>
			</linearGradient>
			<path style="opacity:0.5;fill:url(#SVGID_00000142155269839570959130000004830762448401067668_);enable-background:new    ;" d="
				M323.7,46.4h-5.3v5.3h5.3V46.4z"/>
		</g>
		
			<radialGradient id="SVGID_00000019659629009440098240000012339258940393002634_" cx="-144.1773" cy="538.0911" r="1.0002" gradientTransform="matrix(80.0893 0 0 -25.4322 11943.1162 13912.9854)" gradientUnits="userSpaceOnUse">
			<stop  offset="0" style="stop-color:#181384;stop-opacity:0.5"/>
			<stop  offset="1" style="stop-color:#6088F5;stop-opacity:0"/>
		</radialGradient>
		<path style="fill:url(#SVGID_00000019659629009440098240000012339258940393002634_);" d="M286.5,219.7c0,0-3,2.6,9.1,7.5
			s77.7,30.8,91.7,29.8c14-1,122.5-22.6,118.5-35.7c-3.9-13.1-96.7-22.1-109.8-22.1C382.9,199.3,286.5,219.7,286.5,219.7z"/>
		
			<radialGradient id="SVGID_00000171700198414815408240000017068936229424016556_" cx="-142.2726" cy="529.3799" r="0.9992" gradientTransform="matrix(39.7197 0.3267 0.1108 -13.467 5985.8774 7404.2441)" gradientUnits="userSpaceOnUse">
			<stop  offset="0" style="stop-color:#181384;stop-opacity:0.5"/>
			<stop  offset="1" style="stop-color:#294D8B;stop-opacity:0"/>
		</radialGradient>
		<path style="fill:url(#SVGID_00000171700198414815408240000017068936229424016556_);" d="M393.5,242.5c21.7,0,39.2-6.2,39.2-13.9
			c0-7.7-17.6-13.9-39.2-13.9c-21.7,0-39.2,6.2-39.2,13.9C354.3,236.3,371.8,242.5,393.5,242.5z"/>
		
			<radialGradient id="SVGID_00000068678485882970239510000008344633493612690613_" cx="-140.8599" cy="539.1469" r="1" gradientTransform="matrix(28.4031 0 0 -28.4631 4387.1426 15565.6592)" gradientUnits="userSpaceOnUse">
			<stop  offset="0" style="stop-color:#9099C2"/>
			<stop  offset="0.1286" style="stop-color:#7985AD"/>
			<stop  offset="0.3551" style="stop-color:#55678C"/>
			<stop  offset="0.476" style="stop-color:#475B80"/>
			<stop  offset="0.6107" style="stop-color:#405374"/>
			<stop  offset="0.8513" style="stop-color:#2D3F55"/>
			<stop  offset="1" style="stop-color:#20313F"/>
		</radialGradient>
		<path style="fill:url(#SVGID_00000068678485882970239510000008344633493612690613_);" d="M386.3,234.7c20.6,0,37.3-6.7,37.3-14.9
			c0-8.2-16.7-14.9-37.3-14.9s-37.3,6.7-37.3,14.9C349,228.1,365.7,234.7,386.3,234.7z"/>
		
			<radialGradient id="SVGID_00000137812662842129914790000000667259386020875949_" cx="-140.7067" cy="526.9426" r="1.0005" gradientTransform="matrix(27.5814 0 0 -11.968 4267.1743 6525.687)" gradientUnits="userSpaceOnUse">
			<stop  offset="0.2861" style="stop-color:#20313F"/>
			<stop  offset="0.786" style="stop-color:#475B80"/>
			<stop  offset="0.9377" style="stop-color:#53658A"/>
			<stop  offset="1" style="stop-color:#596B90"/>
		</radialGradient>
		<path style="fill:url(#SVGID_00000137812662842129914790000000667259386020875949_);" d="M386.3,233.1c20.1,0,36.5-6.2,36.5-13.8
			c0-7.6-16.3-13.8-36.5-13.8s-36.5,6.2-36.5,13.8C349.8,226.9,366.1,233.1,386.3,233.1z"/>
		
			<linearGradient id="SVGID_00000068663087421996414350000004402833807768632243_" gradientUnits="userSpaceOnUse" x1="411.363" y1="75.0434" x2="373.68" y2="75.2144" gradientTransform="matrix(1 0 0 -1 0 296)">
			<stop  offset="4.802550e-02" style="stop-color:#79829A"/>
			<stop  offset="0.5332" style="stop-color:#25375E"/>
			<stop  offset="0.6138" style="stop-color:#223357"/>
			<stop  offset="0.7336" style="stop-color:#1A2743"/>
			<stop  offset="0.8771" style="stop-color:#0D1422"/>
			<stop  offset="1" style="stop-color:#000000"/>
		</linearGradient>
		<path style="fill:url(#SVGID_00000068663087421996414350000004402833807768632243_);" d="M400.7,214.6l-0.9,5.2
			c-0.3,1.4-1,2.7-2.1,3.8c-1.1,1.1-2.6,2-4.4,2.6c-7.3,2.1-13.3,0.3-14,0c0,0-0.1,0-0.1,0c-3.5-1.2-5.9-3.5-6.4-6.3l-1-5.2
			c0.4,1,1.7,1.9,3.8,2.6c2.6,0.9,6.4,1.4,10.7,1.4s8-0.5,10.7-1.4c0.7-0.2,1.3-0.5,1.8-0.8C399.8,215.9,400.5,215.3,400.7,214.6z"
			/>
		<path class="st17" d="M414.7,187.4c0,2-1.3,3.9-3.5,5.5c-0.3,0.2-0.6,0.4-1,0.7c-5.1,3.1-13.8,5.2-23.9,5.2
			c-10,0-18.8-2.1-23.9-5.2c-2.9-1.8-4.5-3.9-4.5-6.2c0-6.3,12.7-11.4,28.4-11.4C402,176,414.7,181.1,414.7,187.4z"/>
		
			<linearGradient id="SVGID_00000040537151588908161410000005498453181729778590_" gradientUnits="userSpaceOnUse" x1="424.736" y1="108.602" x2="366.956" y2="108.602" gradientTransform="matrix(1 0 0 -1 0 296)">
			<stop  offset="0.1972" style="stop-color:#79829A"/>
			<stop  offset="0.5332" style="stop-color:#25375E"/>
			<stop  offset="0.6138" style="stop-color:#223357"/>
			<stop  offset="0.7336" style="stop-color:#1A2743"/>
			<stop  offset="0.8771" style="stop-color:#0D1422"/>
			<stop  offset="1" style="stop-color:#000000"/>
		</linearGradient>
		<path style="fill:url(#SVGID_00000040537151588908161410000005498453181729778590_);" d="M414.7,187.4c0,2-1.3,3.9-3.5,5.5
			c-0.3,0.2-0.6,0.4-1,0.7c-5.1,3.1-13.8,5.2-23.9,5.2c-10,0-18.8-2.1-23.9-5.2c-2.9-1.8-4.5-3.9-4.5-6.2c0-6.3,12.7-11.4,28.4-11.4
			C402,176,414.7,181.1,414.7,187.4z"/>
		<path class="st19" d="M386.3,174.4c-17.1,0-30.1,5.6-30.1,13l0.2,1.7c0.8,2.9,3.6,5.4,7.8,7.4c5.4,2.5,13.1,4,22,4
			c8.9,0,16.6-1.5,22-4c1.4-0.7,2.7-1.4,3.8-2.2c2.1-1.5,3.5-3.3,4-5.3c0.1-0.5,0.2-1.1,0.2-1.6
			C416.4,179.9,403.4,174.4,386.3,174.4z M411.2,192.9c-0.3,0.2-0.6,0.4-1,0.7c-5.1,3.1-13.8,5.2-23.9,5.2c-10,0-18.8-2.1-23.9-5.2
			c-2.9-1.8-4.5-3.9-4.5-6.2c0-6.3,12.7-11.4,28.4-11.4c15.7,0,28.4,5.1,28.4,11.4C414.7,189.4,413.4,191.3,411.2,192.9z"/>
		
			<radialGradient id="SVGID_00000168835211389714971640000005261488274007455933_" cx="-142.9297" cy="542.7117" r="1" gradientTransform="matrix(47.5519 0 0 -47.6523 7189.6104 26047.793)" gradientUnits="userSpaceOnUse">
			<stop  offset="0" style="stop-color:#9099C2"/>
			<stop  offset="0.1286" style="stop-color:#7985AD"/>
			<stop  offset="0.3551" style="stop-color:#55678C"/>
			<stop  offset="0.476" style="stop-color:#475B80"/>
			<stop  offset="0.6107" style="stop-color:#405374"/>
			<stop  offset="0.8513" style="stop-color:#2D3F55"/>
			<stop  offset="1" style="stop-color:#20313F"/>
		</radialGradient>
		<path style="fill:url(#SVGID_00000168835211389714971640000005261488274007455933_);" d="M416.1,189l-1.9,14.9
			c-0.5,4-2.1,7.7-4.4,10.8c-2.3,3.1-5.4,5.7-9.1,7.4c-15,6-27.4,0.8-28.9,0.1c-0.1,0-0.1-0.1-0.1-0.1c-7.2-3.4-12.2-10.2-13.3-18.1
			l-2-15c0.8,2.9,3.6,5.4,7.8,7.4c5.4,2.5,13.1,4,22,4c8.9,0,16.6-1.5,22-4c1.4-0.7,2.7-1.4,3.8-2.2
			C414.2,192.7,415.6,190.9,416.1,189z"/>
		
			<linearGradient id="SVGID_00000150104851726489356730000016355248719690525837_" gradientUnits="userSpaceOnUse" x1="388.6157" y1="155.7038" x2="384.9777" y2="72.6088" gradientTransform="matrix(1 0 0 -1 0 296)">
			<stop  offset="0.1972" style="stop-color:#79829A"/>
			<stop  offset="0.5332" style="stop-color:#25375E"/>
			<stop  offset="0.6138" style="stop-color:#223357"/>
			<stop  offset="0.7336" style="stop-color:#1A2743"/>
			<stop  offset="0.8771" style="stop-color:#0D1422"/>
			<stop  offset="1" style="stop-color:#000000"/>
		</linearGradient>
		<path style="fill:url(#SVGID_00000150104851726489356730000016355248719690525837_);" d="M410.2,193.5c-5.1,3.1-13.8,5.2-23.9,5.2
			c-10,0-18.8-2.1-23.9-5.2c0-2.6,4.4-4.8,11-6.2c3.7-0.7,8.2-1.2,12.9-1.2c4.8,0,9.2,0.4,12.9,1.2
			C405.7,188.7,410.1,190.9,410.2,193.5z"/>
		<path class="st22" d="M375.4,118l-1.3-1.1l-0.9-3.3c0,0-14.4-7.6-12.2-22c2.2-14.3,8.5-14.5,8.5-14.5s-5.4,3.3,5.6,36.5L375.4,118
			z"/>
		
			<radialGradient id="SVGID_00000022551772729349277500000015510544111065244858_" cx="-135.1961" cy="529.3928" r="0.9992" gradientTransform="matrix(13.5136 0 0 -13.5422 2201.1396 7264.4766)" gradientUnits="userSpaceOnUse">
			<stop  offset="0" style="stop-color:#B6D3F8;stop-opacity:0.4"/>
			<stop  offset="1" style="stop-color:#A1CAF6;stop-opacity:0.6"/>
		</radialGradient>
		<path style="fill:url(#SVGID_00000022551772729349277500000015510544111065244858_);" d="M378,109.2c-2,2.1-2.7,4.4-2.7,4.4
			c-11-33.2-5.6-36.5-5.6-36.5s8.8,1.3,9.9,13.6C380.6,103.1,379.9,107.1,378,109.2z"/>
		<path class="st22" d="M400.6,110.8c-0.7,9.3-13.9,18.4-13.9,18.4s2.9-33.5,0.5-45.5C391.1,84.8,401.3,101.5,400.6,110.8z"/>
		<path class="st22" d="M386.6,129.1c-4.9-1.5-6.6-10.1-7.3-15.9c-0.7-5.9,1.9-22.5,2.2-24.4c0.9-6.4,5.6-5.2,5.6-5.2
			C389.6,95.6,386.6,129.1,386.6,129.1z"/>
		<path class="st24" d="M383.5,192.3c0,0-1.7-16.3-1.2-23.4c0.5-7.1-1-31.6-7-46.2c-6-14.6-5.4-25.7-5.4-25.7l-1.7-8.7
			c0,0,2.4,11.1,3.6,17c1.2,5.8,5.6,17.5,5.6,17.5s8,21.6,7.3,35.3c0,0,0.7-44.2,1.2-47.6c0.5-3.4,2.7-7.5,2.7-7.5s-0.7,4.1-0.7,6.6
			s0.2,22.6,0.2,26c0,3.4,0,22.6,0,25.1s-1.7,11.2-1.7,14.8s2.5,15.2,0.7,17.5C385.6,194.7,383.5,192.3,383.5,192.3z"/>
		<path class="st22" d="M420.4,206.4c0,0-2.2-5.1-6.5-9c-4.3-3.9-17.5-13.6-19.4-17.2c-1.9-3.6-4.8-4.6-4.8-4.6s-2.7-0.6-3.3,2.1
			c0,0.1,0,0.2,0,0.3l-0.7-1c0-0.2,0.6-3.1,5.3-3.1c0.8,0,1.8,0,3,0.2c5.5,0.6,13.7,2.7,17.9,7.1C416.7,186.5,422,193.5,420.4,206.4
			z"/>
		
			<radialGradient id="SVGID_00000117650707469980638150000005826409959386587790_" cx="-135.9281" cy="530.6567" r="0.9984" gradientTransform="matrix(14.4992 0 0 -14.5299 2375.9531 7878.542)" gradientUnits="userSpaceOnUse">
			<stop  offset="0" style="stop-color:#99B9FB"/>
			<stop  offset="1" style="stop-color:#7EACF4"/>
		</radialGradient>
		<path style="fill:url(#SVGID_00000117650707469980638150000005826409959386587790_);" d="M387.5,164.1c0,0,1.2-6.4,10.8-6.4
			c9.6,0,26.9,4.8,24.1,15.3l-2.8,5.6c0,0,1-6.8-9.6-12c-10.6-5.2-13.8-6.4-14.7-6.4s-4.3-1.2-7.8,5.1L387.5,164.1z"/>
		<path class="st22" d="M380.6,185.8l-8.2,13.1c-1.1,1.5-2.1,3.1-2.7,4.2c-1,0.6-1.6,0.8-1.5,0c0.2-2.2-4.2-6.9,1.5-12.7
			C373.1,186.9,377.6,186,380.6,185.8z"/>
		<path class="st24" d="M372.3,198.9l-2.6,4c0,0-0.1,0.1-0.2,0.1C370.2,201.9,371.2,200.4,372.3,198.9z"/>
		
			<radialGradient id="SVGID_00000098183353677174830220000002459317444895406260_" cx="-129.5157" cy="519.6086" r="0.9996" gradientTransform="matrix(8.8572 0 0 -8.8759 1517.147 4787.1123)" gradientUnits="userSpaceOnUse">
			<stop  offset="0" style="stop-color:#99B9FB"/>
			<stop  offset="1" style="stop-color:#7EACF4"/>
		</radialGradient>
		<path style="fill:url(#SVGID_00000098183353677174830220000002459317444895406260_);" d="M382.3,177.3c-1.8,0.4-22.8-0.4-24.2-1.5
			c-1.4-1,1.3-2.3,1.3-2.3s0.2-0.3,0.7-0.8c1.8,0.6,4.9,1.8,7.8,2.8C372.3,177.1,382.3,177.3,382.3,177.3z"/>
		<path class="st22" d="M385.2,157.5C385.2,157.5,386,158.1,385.2,157.5c-1.8-1-4.8-2.6-7-2.6c-3.2,0-23.4,6-34.1,8.9
			c-10.8,2.9-11.9,5.9-11.9,5.9v0c0-0.3,0.2-1.8,0.9-4.9c0.8-3.6,6.1-6.6,6.9-7.3c0.8-0.7,4.8-6.2,18-8.7c5.8-1.1,12.1,0.4,17.2,2.5
			c6.5,2.6,11.2,6,11.2,6v0L385.2,157.5z"/>
		
			<radialGradient id="SVGID_00000008840682095580894100000005723123198019547810_" cx="-138.8001" cy="535.6001" r="0.9988" gradientTransform="matrix(20.2798 0 0 -20.3227 3173.9888 11045.2383)" gradientUnits="userSpaceOnUse">
			<stop  offset="0" style="stop-color:#99B9FB"/>
			<stop  offset="1" style="stop-color:#7EACF4"/>
		</radialGradient>
		<path style="fill:url(#SVGID_00000008840682095580894100000005723123198019547810_);" d="M386.2,157.3l-1.1,0.3
			c-1.8-1-4.8-2.6-7-2.6c-3.2,0-23.4,6-34.1,8.9c-10.8,2.9-11.9,5.9-11.9,5.9v0c0.3-1.1,4.3-16.3,28.7-18.4c6-0.5,10.7-0.4,14.3,0
			C381.5,153.9,386.2,157.3,386.2,157.3z"/>
		<path class="st22" d="M371,117.2c-20.4,13.4-25.5,21.3-26.8,24.7c0-0.9-0.1-1.9-0.9-2.8c-1.6-2.1-6-14.1,5-19.9
			C359.4,113.7,371,117.2,371,117.2z"/>
		
			<radialGradient id="SVGID_00000114756556233789037230000003607086430512325306_" cx="-136.0147" cy="530.8005" r="0.9999" gradientTransform="matrix(14.6199 0 0 -14.6508 2348.3884 7907.0601)" gradientUnits="userSpaceOnUse">
			<stop  offset="0" style="stop-color:#B6D3F8;stop-opacity:0.4"/>
			<stop  offset="1" style="stop-color:#A1CAF6;stop-opacity:0.6"/>
		</radialGradient>
		<path style="fill:url(#SVGID_00000114756556233789037230000003607086430512325306_);" d="M375.8,118.9c0,2-14.3,10.5-17.6,11.7
			c-0.4,0.2-1,0.5-1.7,0.9c-4.1,2.6-11.4,9.4-12.5,12.1c0.1-0.3,0.3-0.9,0.3-1.7c1.3-3.4,6.4-11.4,26.8-24.7
			C371,117.2,375.8,116.9,375.8,118.9z"/>
		
			<radialGradient id="SVGID_00000025440474076272196060000010341266831157415312_" cx="-139.8538" cy="537.411" r="1.0003" gradientTransform="matrix(23.7501 0 0 -23.8003 3734.6025 12887.0947)" gradientUnits="userSpaceOnUse">
			<stop  offset="0" style="stop-color:#99B9FB"/>
			<stop  offset="1" style="stop-color:#7EACF4"/>
		</radialGradient>
		<path style="fill:url(#SVGID_00000025440474076272196060000010341266831157415312_);" d="M438.2,74.2c0,0-8.6,7.3-9.8,9.2
			c-0.8,1.2-8.6,7.7-15,12.7c-3.7,2.9-6.8,5.4-7.7,6c-2.5,1.8-13,10.5-13,10.5l-4.2,6.2l-0.6-2.5l2.9-4.1l0.1-0.1
			c1.9-1.8,13.8-13.2,19.4-16.7c6-3.8,15.5-19.4,25.6-21.2c0.1,0,0.2,0,0.4,0C436.9,74.2,437.6,74.2,438.2,74.2z"/>
		<path class="st22" d="M436.3,74.2c-0.1,0-0.2,0-0.4,0c-10.1,1.8-19.6,17.4-25.6,21.2c-5.5,3.5-17.5,14.9-19.4,16.7l0.3-0.4
			c0,0-1.1-11.2,9.1-21.2C410.1,80.8,420.1,73.9,436.3,74.2z"/>
		<path class="st24" d="M390.9,112.1l-0.1,0.1l-0.1,0.1C390.8,112.4,390.9,112.3,390.9,112.1z"/>
		<path class="st24" d="M390.2,103.2c-0.2,0.2-0.3,0.2-0.3,0.2l-1.5,5.1l-1.2-0.9l1.3-4.8L390.2,103.2z"/>
		
			<radialGradient id="SVGID_00000067945756062587910470000013832866714455803823_" cx="-138.2672" cy="534.6814" r="0.9998" gradientTransform="matrix(18.8795 0 0 -18.9194 3008.7678 10197.5215)" gradientUnits="userSpaceOnUse">
			<stop  offset="0" style="stop-color:#99B9FB"/>
			<stop  offset="1" style="stop-color:#7EACF4"/>
		</radialGradient>
		<path style="fill:url(#SVGID_00000067945756062587910470000013832866714455803823_);" d="M414.2,60.2c0,0-0.2,0.3-0.6,0.8
			c0,0,0,0-0.1,0.1c-0.1,0.1-0.2,0.3-0.3,0.4l-0.4,0.5c-0.5,0.7-1.1,1.5-1.7,2.4c-0.1,0.2-0.2,0.3-0.4,0.5c-0.1,0.1-0.1,0.2-0.2,0.3
			c0,0-0.1,0.1-0.1,0.2c-3.2,4.5-7.5,10.7-9.1,14c-2.6,5.5-6.2,18.5-8.5,21c-1.5,1.7-2.3,2.5-2.6,2.8l-1.6-0.4
			c0,0-10.1,0.1-4.3-11.2c5.8-11.3,10.5-25.9,26-31.1C410.4,60.6,412.1,60,414.2,60.2z"/>
		<path class="st24" d="M400,79.2c1.4-1.4,6.9-8.8,10.4-13.7c-3.2,4.5-7.5,10.7-9.1,14c-2.6,5.5-6.2,18.5-8.5,21
			c-1.5,1.7-2.3,2.5-2.6,2.8l-1.6-0.4C388.6,102.8,397.8,81.3,400,79.2z"/>
		<path class="st24" d="M413.2,61.5l0.4-0.6c0,0,0,0-0.1,0.1c0,0,0,0-0.1,0.1c-0.4,0.6-1.5,2.2-3,4.1c0.1-0.1,0.1-0.2,0.2-0.3
			l0.4-0.5l1.7-2.4L413.2,61.5z"/>
		<path class="st22" d="M380,105.9c-3.7-1.6-12.2-4.9-29.2-10c-23-7-27.7-1.6-28.1-0.9c0.5-0.9,6.8-10.7,23.6-8.2
			c17.6,2.6,27.8,10.6,33,18.7C379.3,105.4,379.6,105.6,380,105.9z"/>
		
			<radialGradient id="SVGID_00000096747972580187287820000008194406363199281594_" cx="-139.9044" cy="537.5007" r="1" gradientTransform="matrix(23.9521 0 0 -24.0027 3705.2236 13006.1064)" gradientUnits="userSpaceOnUse">
			<stop  offset="0" style="stop-color:#99B9FB"/>
			<stop  offset="1" style="stop-color:#7EACF4"/>
		</radialGradient>
		<path style="fill:url(#SVGID_00000096747972580187287820000008194406363199281594_);" d="M385.8,113.9l-0.4,3.1
			c0,0-1.5-7.8-5.6-9.6c-1-0.4-4.2-1.4-8.7-2.7c-14.6-4.2-42-11.5-44-11c-2.6,0.7-4.3,1.3-4.3,1.3s0,0,0,0l0,0
			c0.6-0.8,5.5-5.8,28.1,1c16.9,5.1,25.5,8.4,29.2,10c0.3,0.2,0.7,0.5,1.1,0.8C382.9,108.1,385.4,110.6,385.8,113.9z"/>
		<path class="st22" d="M408.4,145.4c-0.1,3.6-2.2,12.3-2.2,12.3c-0.2-0.4-6.3-13.4-20.6-14c3.3-2.7,9.6-7.3,13.4-6.7
			C404.4,137.9,408.6,141.8,408.4,145.4z"/>
		
			<radialGradient id="SVGID_00000132806847067878978110000004338813947041061260_" cx="-130.5901" cy="521.4594" r="0.9995" gradientTransform="matrix(9.4744 0 0 -9.4944 1631.9844 5101.583)" gradientUnits="userSpaceOnUse">
			<stop  offset="0" style="stop-color:#99B9FB"/>
			<stop  offset="1" style="stop-color:#7EACF4"/>
		</radialGradient>
		<path style="fill:url(#SVGID_00000132806847067878978110000004338813947041061260_);" d="M406.2,157.6c-0.4-0.3-4.8-3.7-8.4-5.6
			c-1.4-0.7-5.4-1.9-6.2-2.3c-5.6-2.7-8.2-4.1-8.2-4.1s0.8-0.7,2.1-1.8c0.1,0,0.1-0.1,0.2-0.2C399.9,144.2,406,157.2,406.2,157.6z"
			/>
		<path class="st24" d="M385,143.7c0.2,0,0.4,0,0.5,0c-0.1,0-0.2,0.1-0.2,0.2L385,143.7z"/>
		<path class="st24" d="M406.1,157.6l-8.4-5.5C401.4,153.9,405.8,157.4,406.1,157.6z"/>
		<path class="st24" d="M372.3,198.9l-2.6,4c0,0-0.1,0.1-0.2,0.1C370.2,201.9,371.2,200.4,372.3,198.9z"/>
		
			<radialGradient id="SVGID_00000138542148633914773040000014078743095974953352_" cx="-128.7379" cy="518.2697" r="0.9987" gradientTransform="matrix(8.4578 0 0 -8.4757 1466.9226 4587.0078)" gradientUnits="userSpaceOnUse">
			<stop  offset="0" style="stop-color:#99B9FB"/>
			<stop  offset="1" style="stop-color:#7EACF4"/>
		</radialGradient>
		<path style="fill:url(#SVGID_00000138542148633914773040000014078743095974953352_);" d="M384.9,189.6c-2.6,3.1-7.6,7.6-9.2,8.7
			c-1.2,0.9-3.5,2.9-5.3,4.2c-0.2,0.2-0.4,0.3-0.6,0.4l0.2-0.3l1.4-2.2l0.9-1.5l8.2-13.1c0.1,0,0.3,0,0.4,0c1.6,0,2.7,0.1,2.7,0.1
			s2-0.9,2.6,0.8C386.6,187.3,385.9,188.3,384.9,189.6z"/>
		<path class="st22" d="M382.3,177.3c0,0-10-0.2-14.4-1.8c-2.9-1-6-2.2-7.8-2.8c0,0,0.1-0.1,0.2-0.2c1.3-1.3,4.3-3.4,10.4-4.6
			c8.9-1.8,12.3,8,12.3,8S384.1,176.9,382.3,177.3z"/>
		
			<radialGradient id="SVGID_00000059288266630193521010000004187614089963621038_" cx="-137.3471" cy="533.0956" r="1.0004" gradientTransform="matrix(16.873 0 0 -16.9086 2720.3569 9204.0156)" gradientUnits="userSpaceOnUse">
			<stop  offset="0" style="stop-color:#99B9FB"/>
			<stop  offset="1" style="stop-color:#7EACF4"/>
		</radialGradient>
		<path style="fill:url(#SVGID_00000059288266630193521010000004187614089963621038_);" d="M420.4,206.4c0,0-2.2-5.1-6.5-9
			c-3.2-2.8-11-8.8-15.8-13.2c-1.7-1.7-3.1-3.1-3.6-4c-1.9-3.6-4.8-4.6-4.8-4.6s-2.7-0.6-3.3,2.1l-0.8-0.7c0.1-0.1,1.1-1.8,5.3-3.1
			c0.8,0,1.8,0,3,0.2c3.8,1.4,8.4,7,16.2,11.9c7,4.5,9.3,12.8,10.1,17.2C420.3,205.1,420.4,206.4,420.4,206.4z"/>
		
			<radialGradient id="SVGID_00000157276389154807470070000013117401172287638664_" cx="-132.8783" cy="525.3984" r="1.0006" gradientTransform="matrix(11.1266 0 0 -11.1501 1887.6766 6053.5469)" gradientUnits="userSpaceOnUse">
			<stop  offset="0.1182" style="stop-color:#000000;stop-opacity:0.2"/>
			<stop  offset="1" style="stop-color:#000000;stop-opacity:0"/>
		</radialGradient>
		<path style="fill:url(#SVGID_00000157276389154807470070000013117401172287638664_);" d="M420.4,206.4c0,0-19.8-11.6-21.3-14.6
			c-0.9-1.8-1-5.1-1-7.6c4.8,4.4,12.6,10.4,15.8,13.2C418.2,201.3,420.4,206.4,420.4,206.4z"/>
		
			<radialGradient id="SVGID_00000167374276093949998940000006460041574909956790_" cx="-137.4616" cy="533.2935" r="1" gradientTransform="matrix(17.0992 0 0 -17.1353 2726.9622 9329.2432)" gradientUnits="userSpaceOnUse">
			<stop  offset="0.1182" style="stop-color:#000000;stop-opacity:0.2"/>
			<stop  offset="1" style="stop-color:#000000;stop-opacity:0"/>
		</radialGradient>
		<path style="fill:url(#SVGID_00000167374276093949998940000006460041574909956790_);" d="M380.6,198.2c-3.3,2.1-7.6,3.5-10.2,4.3
			c1.7-1.3,4.1-3.4,5.3-4.2c1.6-1.1,6.6-5.5,9.2-8.7C385,190.7,385.1,195.4,380.6,198.2z"/>
		
			<radialGradient id="SVGID_00000044893936803328471720000014574436087883326377_" cx="-144.482" cy="527.2825" r="0.9999" gradientTransform="matrix(99.6152 2.0926 0.2523 -12.0101 14477.9355 6869.0254)" gradientUnits="userSpaceOnUse">
			<stop  offset="0.2909" style="stop-color:#181384;stop-opacity:0.1"/>
			<stop  offset="0.4006" style="stop-color:#1C198A;stop-opacity:8.452320e-02"/>
			<stop  offset="0.5431" style="stop-color:#252999;stop-opacity:6.443580e-02"/>
			<stop  offset="0.7035" style="stop-color:#3644B3;stop-opacity:4.180510e-02"/>
			<stop  offset="0.8759" style="stop-color:#4D69D7;stop-opacity:1.749600e-02"/>
			<stop  offset="1" style="stop-color:#6088F5;stop-opacity:0"/>
		</radialGradient>
		<path style="fill:url(#SVGID_00000044893936803328471720000014574436087883326377_);" d="M82.1,227.2c0,0-3.7,1.1,11.3,3.8
			c15.1,2.7,96.4,16.6,113.7,16.5c17.4-0.1,152.5-7.5,147.8-13.8c-4.8-6.3-120-13-136.4-13.3C202.3,220,82.1,227.2,82.1,227.2z"/>
		
			<radialGradient id="SVGID_00000049218181661508509350000014085355347212760972_" cx="-122.9906" cy="508.369" r="1" gradientTransform="matrix(6.3452 0 0 -6.3587 882.8391 3297.2058)" gradientUnits="userSpaceOnUse">
			<stop  offset="0" style="stop-color:#FFFFFF"/>
			<stop  offset="1" style="stop-color:#90B0FF"/>
		</radialGradient>
		<path style="opacity:0.8;fill:url(#SVGID_00000049218181661508509350000014085355347212760972_);enable-background:new    ;" d="
			M100.4,69.5c1.4,0,2.6-1.1,2.6-2.6c0-1.4-1.1-2.6-2.6-2.6c-1.4,0-2.6,1.1-2.6,2.6C97.9,68.4,99,69.5,100.4,69.5z"/>
		
			<radialGradient id="SVGID_00000137825524324894034570000014360670564831018650_" cx="-142.021" cy="541.1467" r="1" gradientTransform="matrix(36.6929 0 0 -36.7704 5503.9067 20138.1934)" gradientUnits="userSpaceOnUse">
			<stop  offset="0" style="stop-color:#181384;stop-opacity:0.5"/>
			<stop  offset="0.1693" style="stop-color:#1B1888;stop-opacity:0.4153"/>
			<stop  offset="0.3592" style="stop-color:#232595;stop-opacity:0.3204"/>
			<stop  offset="0.559" style="stop-color:#313CAB;stop-opacity:0.2205"/>
			<stop  offset="0.7657" style="stop-color:#445BC9;stop-opacity:0.1171"/>
			<stop  offset="0.9758" style="stop-color:#5D83F0;stop-opacity:1.207670e-02"/>
			<stop  offset="1" style="stop-color:#6088F5;stop-opacity:0"/>
		</radialGradient>
		<path style="fill:url(#SVGID_00000137825524324894034570000014360670564831018650_);" d="M282.3,242.8c1.7,1.8,4.3,2.2,4.3,2.2
			l0.4-0.1l0.6-0.2l1.6-0.4l1.1-0.3l0.4-0.1l1.3-0.4l4.7-1.3l9.9-2.9c-4,1.3-9.9,3.6-10.2,3.8c-0.6,0.4-0.6,1-0.6,1s18-6.2,18.6-6.9
			c0.3-0.3,0.3,0,0.1-0.3c0.1,0,0.3-0.1,0.5-0.2c-0.4-1.5-1.6-2.6-2.9-3.3c-0.6-0.3-1.3-0.2-1.9-0.3c-2.6-0.1-16,3.7-23.7,5.7
			c-0.4,0.1-0.9,0.2-1.3,0.4c-0.1,0-0.3,0-0.4,0.1c-0.4,0.1-0.9,0.2-1.3,0.3c-0.7,0.2-1.3,0.3-1.7,0.4c-0.4,0.1-0.5,0.1-0.5,0.1
			s0,0,0,0.1C281.1,240.5,280.9,241.3,282.3,242.8z M306.6,239.2l6.2-1.8l1.3-0.4c0,0,0.1,0,0.2-0.1c-0.1,0-0.2,0.1-0.2,0.1
			L306.6,239.2z M289.3,240C289.4,240,289.4,240,289.3,240c0,0-0.1,0-0.1,0C289.2,239.9,289.3,239.9,289.3,240z M287.7,239.2
			C287.7,239.2,287.6,239.2,287.7,239.2C287.7,239.2,287.7,239.2,287.7,239.2z M288.1,239.4c0,0-0.1,0-0.2-0.1
			C288.1,239.3,288.1,239.3,288.1,239.4z M288.6,239.6c-0.1,0-0.1-0.1-0.2-0.1C288.4,239.5,288.5,239.5,288.6,239.6z M289,239.8
			c-0.1,0-0.2-0.1-0.3-0.1C288.9,239.7,288.9,239.7,289,239.8z M291.3,241.8C291.3,241.8,291.3,241.8,291.3,241.8
			C291.3,241.8,291.3,241.8,291.3,241.8z M289.8,240.3c-0.1,0-0.1-0.1-0.2-0.1C289.7,240.2,289.8,240.3,289.8,240.3z M290.2,240.6
			c0,0-0.1-0.1-0.2-0.2C290.1,240.5,290.2,240.6,290.2,240.6z M290.7,241c0,0-0.1-0.1-0.2-0.2C290.6,240.9,290.6,240.9,290.7,241z
			 M291,241.4c0,0-0.1-0.1-0.1-0.1C290.9,241.3,291,241.4,291,241.4z"/>
		
			<linearGradient id="SVGID_00000065771638990489525810000005037999199119302847_" gradientUnits="userSpaceOnUse" x1="307.4456" y1="64.2533" x2="306.6577" y2="66.5503" gradientTransform="matrix(1 0 0 -1 0 296)">
			<stop  offset="0" style="stop-color:#CCC9C7"/>
			<stop  offset="0.5959" style="stop-color:#FFFFFF"/>
			<stop  offset="0.8267" style="stop-color:#D2CFCE"/>
			<stop  offset="1" style="stop-color:#B4AFAE"/>
		</linearGradient>
		<path style="fill:url(#SVGID_00000065771638990489525810000005037999199119302847_);" d="M306.7,230.7c0.3,0.3,0.6,0.6,0.9,1.1
			c0.6,1,1,2.4,0.5,4.4c0.2-0.1,0.4-0.2,0.6-0.3c0.4-1.9,0-3.3-0.6-4.3c-0.3-0.4-0.5-0.7-0.9-1c-0.1,0-0.2,0-0.3,0
			C306.9,230.7,306.8,230.7,306.7,230.7z"/>
		
			<linearGradient id="SVGID_00000127737880199417500930000012315122067054500997_" gradientUnits="userSpaceOnUse" x1="286.1147" y1="56.9338" x2="285.3267" y2="59.2319" gradientTransform="matrix(1 0 0 -1 0 296)">
			<stop  offset="0" style="stop-color:#CCC9C7"/>
			<stop  offset="0.5959" style="stop-color:#FFFFFF"/>
			<stop  offset="0.8267" style="stop-color:#D2CFCE"/>
			<stop  offset="1" style="stop-color:#B4AFAE"/>
		</linearGradient>
		<path style="fill:url(#SVGID_00000127737880199417500930000012315122067054500997_);" d="M284.1,236c0.8,0.5,3,2.5,1.8,6.4
			l1.1-0.3c1.2-3.8-1-5.8-1.8-6.4C284.9,235.8,284.5,235.9,284.1,236z"/>
		
			<linearGradient id="SVGID_00000176763379391951059190000017248644103966639015_" gradientUnits="userSpaceOnUse" x1="298.969" y1="52.3953" x2="295.3279" y2="67.2093" gradientTransform="matrix(1 0 0 -1 0 296)">
			<stop  offset="0.5193" style="stop-color:#465A80"/>
			<stop  offset="0.9886" style="stop-color:#F5F5F7"/>
		</linearGradient>
		<path style="fill:url(#SVGID_00000176763379391951059190000017248644103966639015_);" d="M285.3,235.7c0.4,0.3,1,0.9,1.5,1.8
			c0.5,1,0.9,2.6,0.2,4.6l4.3-1.2l9-2.5c0,0,0,0,0,0l5.6-1.6l1.1-0.3c0,0,0.1,0,0.4-0.1c0.1,0,0.3-0.1,0.5-0.2
			c0.5-2,0.1-3.4-0.5-4.4c-0.3-0.4-0.6-0.8-0.9-1.1C304.4,231.2,292.2,234.1,285.3,235.7z"/>
		
			<linearGradient id="SVGID_00000101077165018784099290000018034570920482393247_" gradientUnits="userSpaceOnUse" x1="284.7595" y1="56.4692" x2="283.9715" y2="58.7672" gradientTransform="matrix(1 0 0 -1 0 296)">
			<stop  offset="0" style="stop-color:#CCC9C7"/>
			<stop  offset="0.5959" style="stop-color:#FFFFFF"/>
			<stop  offset="0.8267" style="stop-color:#D2CFCE"/>
			<stop  offset="1" style="stop-color:#B4AFAE"/>
		</linearGradient>
		<path style="fill:url(#SVGID_00000101077165018784099290000018034570920482393247_);" d="M282.7,236.3c0.7,0.4,3.1,2.4,1.9,6.4
			l1-0.3c1.2-3.9-1-5.9-1.8-6.4C283.4,236.1,283,236.2,282.7,236.3z"/>
		
			<linearGradient id="SVGID_00000167366786696263237960000001957422111374630812_" gradientUnits="userSpaceOnUse" x1="286.6782" y1="56.1162" x2="282.7352" y2="57.5442" gradientTransform="matrix(1 0 0 -1 0 296)">
			<stop  offset="5.636160e-02" style="stop-color:#595959"/>
			<stop  offset="1" style="stop-color:#C2BABD"/>
		</linearGradient>
		<path style="fill:url(#SVGID_00000167366786696263237960000001957422111374630812_);" d="M285.6,242.5l0.4-0.1
			c1.2-3.9-1.1-5.9-1.8-6.4c-0.1,0-0.2,0-0.4,0.1C284.6,236.6,286.8,238.6,285.6,242.5z"/>
		
			<linearGradient id="SVGID_00000078741349524576773590000000647513916085491609_" gradientUnits="userSpaceOnUse" x1="283.8383" y1="55.2872" x2="279.5912" y2="56.8262" gradientTransform="matrix(1 0 0 -1 0 296)">
			<stop  offset="5.636160e-02" style="stop-color:#595959"/>
			<stop  offset="1" style="stop-color:#C2BABD"/>
		</linearGradient>
		<path style="fill:url(#SVGID_00000078741349524576773590000000647513916085491609_);" d="M280.6,236.9c0.6,0.4,3.1,2.3,2,6.4
			l0.6-0.2c1.2-4.1-1.4-6.1-2-6.5C280.9,236.8,280.7,236.8,280.6,236.9C280.7,236.8,280.7,236.8,280.6,236.9z"/>
		
			<linearGradient id="SVGID_00000124867103733207716680000003512073354882016143_" gradientUnits="userSpaceOnUse" x1="283.4992" y1="56.0371" x2="282.7112" y2="58.3351" gradientTransform="matrix(1 0 0 -1 0 296)">
			<stop  offset="0" style="stop-color:#CCC9C7"/>
			<stop  offset="0.5959" style="stop-color:#FFFFFF"/>
			<stop  offset="0.8267" style="stop-color:#D2CFCE"/>
			<stop  offset="1" style="stop-color:#B4AFAE"/>
		</linearGradient>
		<path style="fill:url(#SVGID_00000124867103733207716680000003512073354882016143_);" d="M283.1,243.1l1.4-0.4
			c1.2-4-1.3-6-1.9-6.4c-0.6,0.1-1.1,0.3-1.5,0.4C281.8,237,284.4,239,283.1,243.1z"/>
		<path class="st47" d="M280,240.3c0.9,3.3,2.5,3.1,2.5,3.1c1.2-4.1-1.3-6-2-6.4C280.4,237.2,279.5,238.3,280,240.3z"/>
		
			<linearGradient id="SVGID_00000024682770279283962440000009582009290752366469_" gradientUnits="userSpaceOnUse" x1="300.1978" y1="54.5128" x2="299.3808" y2="57.2998" gradientTransform="matrix(1 0 0 -1 0 296)">
			<stop  offset="0" style="stop-color:#CCC9C7"/>
			<stop  offset="0.4143" style="stop-color:#FFFFFF"/>
			<stop  offset="0.7488" style="stop-color:#D2CFCE"/>
			<stop  offset="1" style="stop-color:#B4AFAE"/>
		</linearGradient>
		<path style="fill:url(#SVGID_00000024682770279283962440000009582009290752366469_);" d="M291.5,242.2c0,0,14.7-3.8,15.5-4.7
			c0.4-0.4,0.5-0.8,0.5-1.1c-0.3,0.1-0.4,0.2-0.4,0.2l-6.8,1.8c0,0,0,0,0,0c-3.7,1.1-7.7,2.4-8.1,2.6
			C291.6,241.4,291.5,242.2,291.5,242.2z"/>
		<path class="st47" d="M291.3,240.9l9-2.5c0,0,0,0,0,0l5.6-1.6c-0.1,0-0.2,0-0.3-0.1c-0.3-0.1-11.2,2.7-12.3,3.1
			C292.7,240,291.9,240.5,291.3,240.9z"/>
		<path class="st47" d="M307.2,230.6c0.3,0.3,0.6,0.6,0.9,1c0.6,1,1.1,2.4,0.6,4.3c1.5-0.8,3.5-2.1,2.9-3.4c-0.4-1-1.1-1.5-1.8-1.8
			C309,230.4,308.1,230.5,307.2,230.6z"/>
		<path class="st49" d="M249.4,1l-126,40.8l62.2,192.9l126-40.8L249.4,1z"/>
		<path class="st17" d="M186.7,48.5l-46.9,15.6l-1.6-5.1L185,43.4L186.7,48.5z"/>
		<path class="st17" d="M163,65.2l-20.6,6.9l-1.5-4.5l20.7-6.9L163,65.2z"/>
		<path class="st50" d="M148.4,90.1L196,74.3"/>
		<path class="st19" d="M148.6,87.2l-0.9-2.6c-0.1,0.1-0.4,0.3-0.5,0.4l-0.1-0.5c0.3-0.1,0.5-0.4,0.6-0.7l0.4-0.1l1.1,3.4
			L148.6,87.2z"/>
		<path class="st19" d="M150.2,86.7l-0.3-0.9l0.6-0.2l0.3,0.9L150.2,86.7z"/>
		<path class="st50" d="M209.7,69.8l47.6-15.9"/>
		<path class="st19" d="M209.9,66.8l-0.9-2.6c-0.1,0.1-0.4,0.3-0.5,0.4l-0.1-0.5c0.3-0.1,0.5-0.4,0.6-0.7l0.4-0.1l1.1,3.4
			L209.9,66.8z"/>
		<path class="st19" d="M210.7,63.8c-0.1-0.4,0-1,0.8-1.3c0.7-0.2,1.2,0.1,1.3,0.6c0.1,0.4,0,0.7-0.2,0.8c0.3,0,0.6,0.1,0.8,0.7
			c0.2,0.5,0,1.2-0.8,1.4c-0.8,0.3-1.3-0.2-1.4-0.6l0.6-0.2c0.1,0.2,0.4,0.4,0.7,0.3c0.4-0.1,0.4-0.4,0.4-0.8
			c-0.1-0.4-0.4-0.5-0.8-0.4l-0.3,0.1l-0.2-0.5l0.2-0.1c0.4-0.1,0.4-0.3,0.4-0.6c-0.1-0.3-0.3-0.4-0.6-0.3c-0.4,0.1-0.4,0.4-0.4,0.6
			L210.7,63.8z"/>
		<path class="st19" d="M214.4,65.3l-0.3-0.9l0.6-0.2l0.3,0.9L214.4,65.3z"/>
		<path class="st50" d="M213.4,81.3L261,65.5"/>
		<path class="st19" d="M213.7,78.4l-0.9-2.6c-0.1,0.1-0.4,0.3-0.5,0.4l-0.1-0.5c0.3-0.1,0.5-0.4,0.6-0.7l0.4-0.1l1.1,3.4
			L213.7,78.4z"/>
		<path class="st19" d="M216.6,77.4l-0.3-0.8l-1.4,0.5l-0.2-0.5l0.7-2.5l0.6-0.2l0.7,2.1l0.4-0.1l0.1,0.5l-0.3,0.1l0.3,0.8
			L216.6,77.4z M215.9,75.4c-0.1-0.3-0.2-0.6-0.2-0.8c0,0.3-0.3,1.2-0.4,1.8l0.9-0.3L215.9,75.4z"/>
		<path class="st19" d="M218.1,76.9l-0.3-0.9l0.6-0.2l0.3,0.9L218.1,76.9z"/>
		<path class="st50" d="M264.7,77.1l-47.6,15.8"/>
		<path class="st19" d="M217.4,90l-0.9-2.6c-0.1,0.1-0.4,0.3-0.5,0.4l-0.1-0.5c0.3-0.1,0.5-0.4,0.6-0.7l0.4-0.1l1.1,3.4L217.4,90z"
			/>
		<path class="st19" d="M220.1,86l-1.3,0.4c0,0.2,0.1,0.6,0.1,0.8c0.1-0.2,0.2-0.3,0.5-0.4c0.6-0.2,1.1,0.1,1.3,0.8
			c0.2,0.7,0.1,1.3-0.8,1.6c-0.6,0.2-1.2,0-1.4-0.6l0.6-0.2c0.1,0.2,0.4,0.4,0.7,0.3c0.4-0.1,0.4-0.4,0.3-0.9
			c-0.1-0.4-0.4-0.6-0.7-0.5c-0.3,0.1-0.4,0.3-0.4,0.5l-0.6,0.1c0-0.4-0.2-1.5-0.4-2l1.8-0.6L220.1,86z"/>
		<path class="st19" d="M221.9,88.5l-0.3-0.9l0.6-0.2l0.3,0.9L221.9,88.5z"/>
		<path class="st50" d="M220.9,104.6l47.6-15.9"/>
		<path class="st19" d="M221.1,101.6l-0.9-2.7c-0.1,0.1-0.4,0.3-0.5,0.4l-0.1-0.5c0.3-0.1,0.5-0.4,0.6-0.7l0.4-0.1l1.1,3.4
			L221.1,101.6z"/>
		<path class="st19" d="M223.5,98c-0.1-0.2-0.3-0.3-0.6-0.2c-0.4,0.1-0.4,0.7-0.3,1.2c0.1-0.2,0.2-0.5,0.6-0.6
			c0.6-0.2,1.1,0.1,1.3,0.8c0.2,0.7,0,1.4-0.7,1.6c-0.9,0.3-1.4-0.4-1.7-1.3c-0.3-0.9-0.3-1.9,0.6-2.2c0.7-0.2,1.1,0.1,1.3,0.5
			L223.5,98z M224,99.4c-0.1-0.4-0.3-0.6-0.8-0.5c-0.4,0.1-0.5,0.4-0.4,0.9c0.1,0.3,0.4,0.7,0.8,0.5
			C224.1,100.2,224.1,99.8,224,99.4z"/>
		<path class="st19" d="M225.7,100.1l-0.3-0.9L226,99l0.3,0.9L225.7,100.1z"/>
		<path class="st50" d="M224.6,116.1l47.6-15.9"/>
		<path class="st19" d="M224.9,113.2l-0.9-2.6c-0.1,0.1-0.4,0.3-0.5,0.4l-0.1-0.5c0.3-0.1,0.5-0.4,0.6-0.7l0.4-0.1l1.1,3.4
			L224.9,113.2z"/>
		<path class="st19" d="M227.3,108.6l0.1,0.5c-0.3,0.9-0.4,2.2-0.2,3.3l-0.6,0.2c-0.2-1,0-2.4,0.2-3.2l-1.5,0.5l-0.2-0.5
			L227.3,108.6z"/>
		<path class="st19" d="M229,111.8l-0.3-0.9l0.6-0.2l0.3,0.9L229,111.8z"/>
		<path class="st50" d="M228.4,127.7l47.6-15.8"/>
		<path class="st19" d="M228.6,124.8l-0.9-2.7c-0.1,0.1-0.4,0.3-0.5,0.4l-0.1-0.5c0.3-0.1,0.5-0.4,0.6-0.7l0.4-0.1l1.1,3.4
			L228.6,124.8z"/>
		<path class="st19" d="M229.8,123.3c-0.1-0.4,0-0.8,0.3-1c-0.3-0.1-0.5-0.2-0.6-0.6c-0.2-0.5,0.1-1.1,0.8-1.3
			c0.6-0.2,1.2,0,1.3,0.6c0.1,0.4,0,0.6-0.2,0.8c0.3,0,0.7,0.2,0.8,0.7c0.2,0.7-0.2,1.2-0.9,1.4C230.6,124.2,230,124,229.8,123.3z
			 M230,121.6c0.1,0.3,0.3,0.4,0.6,0.3c0.3-0.1,0.4-0.3,0.4-0.6c-0.1-0.3-0.3-0.4-0.6-0.3C230,121.1,229.9,121.3,230,121.6z
			 M231.5,122.7c-0.1-0.4-0.4-0.4-0.8-0.4c-0.4,0.1-0.5,0.4-0.4,0.7c0.1,0.3,0.4,0.5,0.8,0.4C231.5,123.4,231.7,123.1,231.5,122.7z"
			/>
		<path class="st19" d="M233.2,123.3l-0.3-0.9l0.6-0.2l0.3,0.9L233.2,123.3z"/>
		<path class="st50" d="M232.1,139.4l47.6-15.9"/>
		<path class="st19" d="M232.3,136.4l-0.9-2.6c-0.1,0.1-0.4,0.3-0.5,0.4l-0.1-0.5c0.3-0.1,0.5-0.4,0.6-0.7l0.4-0.1l1.1,3.4
			L232.3,136.4z"/>
		<path class="st19" d="M234.2,134.9c0.1,0.2,0.3,0.3,0.6,0.2c0.5-0.2,0.3-0.9,0.2-1.3c0,0.3-0.3,0.4-0.6,0.5
			c-0.6,0.2-1.2-0.1-1.3-0.8c-0.2-0.6,0-1.3,0.8-1.5c0.9-0.3,1.4,0.3,1.7,1.2c0.3,0.9,0.4,2-0.6,2.3c-0.7,0.2-1.1-0.1-1.3-0.5
			L234.2,134.9z M233.7,133.4c0.1,0.4,0.4,0.5,0.7,0.4c0.4-0.1,0.4-0.4,0.4-0.8c-0.1-0.2-0.3-0.6-0.7-0.4
			C233.6,132.7,233.6,133.1,233.7,133.4z"/>
		<path class="st19" d="M236.8,134.9l-0.3-0.9l0.6-0.2l0.3,0.9L236.8,134.9z"/>
		<path class="st50" d="M235.8,151l47.6-15.9"/>
		<path class="st19" d="M235.5,148.2c-0.2-0.6-0.1-1.2,0.4-1.9c0.4-0.5,0.4-0.7,0.4-1c-0.1-0.3-0.3-0.4-0.6-0.4
			c-0.3,0.1-0.4,0.4-0.4,0.7l-0.6,0.2c-0.1-0.6,0-1.2,0.8-1.4c0.8-0.3,1.2,0.1,1.4,0.7c0.2,0.5,0,0.8-0.4,1.4
			c-0.3,0.4-0.4,0.7-0.4,0.9l1.6-0.5l0.1,0.6L235.5,148.2z"/>
		<path class="st19" d="M240.1,144.8c0.3,0.9,0.3,1.8-0.6,2.2c-0.9,0.3-1.4-0.4-1.7-1.3c-0.3-0.9-0.3-1.8,0.6-2.2
			C239.3,143.1,239.8,143.9,240.1,144.8z M238.4,145.3c0.2,0.6,0.5,1.2,0.9,1c0.5-0.2,0.4-0.8,0.1-1.4c-0.2-0.7-0.5-1.2-0.9-1
			C238.1,144.1,238.2,144.6,238.4,145.3z"/>
		<path class="st19" d="M241.4,146.2l-0.3-0.9l0.6-0.2l0.3,0.9L241.4,146.2z"/>
		<path class="st50" d="M239.6,162.5l47.6-15.8"/>
		<path class="st19" d="M239.2,159.8c-0.2-0.6-0.1-1.2,0.4-1.9c0.4-0.5,0.4-0.7,0.4-1c-0.1-0.3-0.3-0.4-0.6-0.4
			c-0.3,0.1-0.4,0.4-0.4,0.7l-0.6,0.2c-0.1-0.6,0-1.2,0.8-1.4c0.8-0.3,1.2,0.1,1.4,0.7c0.2,0.5,0,0.8-0.4,1.4
			c-0.3,0.4-0.4,0.7-0.4,0.9l1.6-0.5l0.1,0.6L239.2,159.8z"/>
		<path class="st19" d="M242.7,158.7l-0.9-2.7c-0.1,0.1-0.4,0.3-0.5,0.4l-0.1-0.5c0.3-0.1,0.5-0.4,0.6-0.7l0.4-0.1l1.1,3.4
			L242.7,158.7z"/>
		<path class="st19" d="M244.2,158.1l-0.3-0.9l0.6-0.2l0.3,0.9L244.2,158.1z"/>
		<path class="st50" d="M243.3,174.2l47.6-15.9"/>
		<path class="st19" d="M243,171.4c-0.2-0.6-0.1-1.2,0.4-1.9c0.4-0.5,0.4-0.7,0.4-1c-0.1-0.3-0.3-0.4-0.6-0.4
			c-0.3,0.1-0.4,0.4-0.4,0.7l-0.6,0.2c-0.1-0.6,0-1.2,0.8-1.4c0.8-0.3,1.2,0.1,1.4,0.7c0.2,0.5,0,0.8-0.4,1.4
			c-0.3,0.4-0.4,0.7-0.4,0.9l1.6-0.5l0.1,0.6L243,171.4z"/>
		<path class="st19" d="M245.8,170.4c-0.2-0.6-0.1-1.2,0.4-1.9c0.4-0.5,0.4-0.7,0.4-1c-0.1-0.3-0.3-0.4-0.6-0.4
			c-0.3,0.1-0.4,0.4-0.4,0.7L245,168c-0.1-0.6,0-1.2,0.8-1.4c0.8-0.3,1.2,0.1,1.4,0.7c0.2,0.5,0,0.8-0.4,1.4
			c-0.3,0.4-0.4,0.7-0.4,0.9l1.6-0.5l0.1,0.6L245.8,170.4z"/>
		<path class="st19" d="M248.7,169.5l-0.3-0.9l0.6-0.2l0.3,0.9L248.7,169.5z"/>
		<path class="st50" d="M247,185.8l47.6-15.9"/>
		<path class="st19" d="M246.7,183c-0.2-0.6-0.1-1.2,0.4-1.9c0.4-0.5,0.4-0.7,0.4-1c-0.1-0.3-0.3-0.4-0.6-0.4
			c-0.3,0.1-0.4,0.4-0.4,0.7l-0.6,0.2c-0.1-0.6,0-1.2,0.8-1.4c0.8-0.3,1.2,0.1,1.4,0.7c0.2,0.5,0,0.8-0.4,1.4
			c-0.3,0.4-0.4,0.7-0.4,0.9l1.6-0.5l0.1,0.6L246.7,183z"/>
		<path class="st19" d="M248.7,179.5c-0.1-0.4,0-1,0.8-1.3c0.7-0.2,1.2,0.1,1.3,0.6c0.1,0.4,0,0.7-0.2,0.8c0.3,0,0.6,0.1,0.8,0.7
			c0.2,0.5,0,1.2-0.8,1.4c-0.8,0.3-1.3-0.2-1.4-0.6l0.6-0.2c0.1,0.2,0.4,0.4,0.7,0.3c0.4-0.1,0.4-0.4,0.4-0.8
			c-0.1-0.4-0.4-0.5-0.8-0.4l-0.3,0.1l-0.2-0.5l0.2-0.1c0.4-0.1,0.4-0.3,0.4-0.6c-0.1-0.3-0.3-0.4-0.6-0.3c-0.4,0.1-0.4,0.4-0.4,0.6
			L248.7,179.5z"/>
		<path class="st19" d="M252.5,181.1l-0.3-0.9l0.6-0.2l0.3,0.9L252.5,181.1z"/>
		<path class="st50" d="M250.8,197.3l47.6-15.8"/>
		<path class="st19" d="M250.4,194.6c-0.2-0.6-0.1-1.2,0.4-1.9c0.4-0.5,0.4-0.7,0.4-1c-0.1-0.3-0.3-0.4-0.6-0.4
			c-0.3,0.1-0.4,0.4-0.4,0.7l-0.6,0.2c-0.1-0.6,0-1.2,0.8-1.4c0.8-0.3,1.2,0.1,1.4,0.7c0.2,0.5,0,0.8-0.4,1.4
			c-0.3,0.4-0.4,0.7-0.4,0.9l1.6-0.5l0.1,0.6L250.4,194.6z"/>
		<path class="st19" d="M254.7,193.2l-0.3-0.8l-1.4,0.5l-0.2-0.5l0.7-2.5l0.6-0.2l0.7,2.1l0.4-0.1l0.1,0.5l-0.3,0.1l0.3,0.8
			L254.7,193.2z M254,191.2c-0.1-0.3-0.2-0.6-0.2-0.8c0,0.3-0.3,1.2-0.4,1.8l0.9-0.3L254,191.2z"/>
		<path class="st19" d="M256.2,192.7l-0.3-0.9l0.6-0.2l0.3,0.9L256.2,192.7z"/>
		<path class="st50" d="M152.1,101.8l47.6-15.9"/>
		<path class="st19" d="M151,99.3c-0.2-0.6-0.1-1.2,0.4-1.9c0.4-0.5,0.4-0.7,0.4-1c-0.1-0.3-0.3-0.4-0.6-0.4
			c-0.3,0.1-0.4,0.4-0.4,0.7l-0.6,0.2c-0.1-0.6,0-1.2,0.8-1.4c0.8-0.3,1.2,0.1,1.4,0.7c0.2,0.5,0,0.8-0.4,1.4
			c-0.3,0.4-0.4,0.7-0.4,0.9l1.6-0.5l0.1,0.6L151,99.3z"/>
		<path class="st19" d="M153.9,98.3l-0.3-0.9l0.6-0.2l0.3,0.9L153.9,98.3z"/>
		<path class="st50" d="M155.8,113.4l47.6-15.8"/>
		<path class="st19" d="M153.9,108.4c-0.1-0.4,0-1,0.8-1.3c0.7-0.2,1.2,0.1,1.3,0.6c0.1,0.4,0,0.7-0.2,0.8c0.3,0,0.6,0.1,0.8,0.7
			c0.2,0.5,0,1.2-0.8,1.4c-0.8,0.3-1.3-0.2-1.4-0.6l0.6-0.2c0.1,0.2,0.4,0.4,0.7,0.3c0.4-0.1,0.4-0.4,0.4-0.8
			c-0.1-0.4-0.4-0.5-0.8-0.4l-0.3,0.1l-0.2-0.5l0.2-0.1c0.4-0.1,0.4-0.3,0.4-0.6c-0.1-0.3-0.3-0.4-0.6-0.3c-0.4,0.1-0.4,0.4-0.4,0.6
			L153.9,108.4z"/>
		<path class="st19" d="M157.6,109.9l-0.3-0.9l0.6-0.2l0.3,0.9L157.6,109.9z"/>
		<path class="st50" d="M159.6,125l47.6-15.9"/>
		<path class="st19" d="M159.8,122l-0.3-0.8l-1.4,0.5l-0.2-0.5l0.7-2.5l0.6-0.2l0.7,2.1l0.4-0.1l0.1,0.5l-0.3,0.1l0.3,0.8L159.8,122
			z M159.2,120.1c-0.1-0.3-0.2-0.6-0.2-0.8c0,0.3-0.3,1.2-0.4,1.8l0.9-0.3L159.2,120.1z"/>
		<path class="st19" d="M161.4,121.5l-0.3-0.9l0.6-0.2l0.3,0.9L161.4,121.5z"/>
		<path class="st50" d="M163.3,136.6l47.6-15.8"/>
		<path class="st19" d="M163.3,130.6L162,131c0,0.2,0.1,0.6,0.1,0.8c0.1-0.2,0.2-0.3,0.5-0.4c0.6-0.2,1.1,0.1,1.3,0.8
			c0.2,0.7,0.1,1.3-0.8,1.6c-0.6,0.2-1.2,0-1.4-0.5l0.6-0.2c0.1,0.2,0.4,0.4,0.7,0.3c0.4-0.1,0.4-0.4,0.3-0.9
			c-0.1-0.4-0.4-0.6-0.7-0.5c-0.3,0.1-0.4,0.3-0.4,0.5l-0.6,0.1c0-0.4-0.2-1.5-0.4-2l1.8-0.6L163.3,130.6z"/>
		<path class="st19" d="M165.1,133.1l-0.3-0.9l0.6-0.2l0.3,0.9L165.1,133.1z"/>
		<path class="st50" d="M167.1,148.2l47.6-15.9"/>
		<path class="st19" d="M166.7,142.6c-0.1-0.2-0.3-0.3-0.6-0.2c-0.4,0.1-0.4,0.7-0.3,1.2c0.1-0.2,0.2-0.5,0.6-0.6
			c0.6-0.2,1.1,0.1,1.3,0.8c0.2,0.7,0,1.4-0.7,1.6c-0.9,0.3-1.4-0.4-1.7-1.3c-0.3-0.9-0.3-1.9,0.6-2.2c0.7-0.2,1.1,0.1,1.3,0.5
			L166.7,142.6z M167.2,144c-0.1-0.4-0.3-0.6-0.8-0.5c-0.3,0.1-0.5,0.4-0.4,0.9c0.1,0.3,0.4,0.7,0.8,0.5
			C167.3,144.8,167.4,144.4,167.2,144z"/>
		<path class="st19" d="M168.9,144.8l-0.3-0.9l0.6-0.2l0.3,0.9L168.9,144.8z"/>
		<path class="st50" d="M170.8,159.8l47.6-15.8"/>
		<path class="st19" d="M170.7,153.2l0.1,0.5c-0.3,0.9-0.4,2.2-0.2,3.3l-0.6,0.2c-0.2-1,0-2.4,0.2-3.2l-1.5,0.5l-0.2-0.5
			L170.7,153.2z"/>
		<path class="st19" d="M172.4,156.4l-0.3-0.9l0.6-0.2l0.3,0.9L172.4,156.4z"/>
		<path class="st50" d="M174.5,171.4l47.6-15.9"/>
		<path class="st19" d="M173,168c-0.1-0.4,0-0.8,0.3-1c-0.3-0.1-0.5-0.2-0.6-0.6c-0.2-0.5,0.1-1.1,0.8-1.3c0.6-0.2,1.2,0,1.3,0.6
			c0.1,0.4,0,0.6-0.2,0.8c0.3,0,0.7,0.2,0.8,0.7c0.2,0.7-0.2,1.2-0.9,1.4C173.9,168.9,173.2,168.6,173,168z M173.2,166.3
			c0.1,0.3,0.3,0.4,0.6,0.3c0.3-0.1,0.4-0.3,0.4-0.6c-0.1-0.3-0.3-0.4-0.6-0.3C173.2,165.7,173.1,166,173.2,166.3z M174.8,167.4
			c-0.1-0.4-0.4-0.4-0.8-0.4c-0.4,0.1-0.5,0.4-0.4,0.7c0.1,0.3,0.4,0.5,0.8,0.4C174.7,168,174.9,167.7,174.8,167.4z"/>
		<path class="st19" d="M176.4,168l-0.3-0.9l0.6-0.2l0.3,0.9L176.4,168z"/>
		<path class="st50" d="M178.3,183l47.6-15.8"/>
		<path class="st19" d="M177.4,179.6c0.1,0.2,0.3,0.3,0.6,0.2c0.5-0.2,0.3-0.9,0.2-1.3c0,0.3-0.3,0.4-0.6,0.5
			c-0.6,0.2-1.2-0.1-1.3-0.8c-0.2-0.6,0-1.3,0.8-1.5c0.9-0.3,1.4,0.3,1.7,1.2c0.3,0.9,0.4,2-0.6,2.3c-0.7,0.2-1.1-0.1-1.3-0.5
			L177.4,179.6z M177,178.1c0.1,0.4,0.4,0.5,0.7,0.4c0.4-0.1,0.4-0.4,0.4-0.8c-0.1-0.2-0.3-0.6-0.7-0.4
			C176.9,177.4,176.8,177.7,177,178.1z"/>
		<path class="st19" d="M180,179.6l-0.3-0.9l0.6-0.2l0.3,0.9L180,179.6z"/>
		<path class="st50" d="M182.2,194.6l47.6-15.8"/>
		<path class="st19" d="M181.8,191.9l-0.9-2.6c-0.1,0.1-0.4,0.3-0.5,0.4l-0.1-0.5c0.3-0.1,0.5-0.4,0.6-0.7l0.4-0.1l1.1,3.4
			L181.8,191.9z"/>
		<path class="st19" d="M185.1,188.9c0.3,0.9,0.3,1.8-0.6,2.2c-0.9,0.3-1.4-0.4-1.7-1.3s-0.3-1.8,0.6-2.2
			C184.3,187.2,184.8,187.9,185.1,188.9z M183.4,189.4c0.2,0.6,0.5,1.2,0.9,1c0.5-0.2,0.4-0.8,0.1-1.4c-0.2-0.7-0.5-1.2-0.9-1
			C183.1,188.2,183.1,188.7,183.4,189.4z"/>
		<path class="st19" d="M186.4,190.3l-0.3-0.9l0.6-0.2l0.3,0.9L186.4,190.3z"/>
		<path class="st50" d="M186,206.2l47.6-15.9"/>
		<path class="st19" d="M185.5,203.5l-0.9-2.6c-0.1,0.1-0.4,0.3-0.5,0.4l-0.1-0.5c0.3-0.1,0.5-0.4,0.6-0.7l0.4-0.1l1.1,3.4
			L185.5,203.5z"/>
		<path class="st19" d="M187.6,202.8l-0.9-2.6c-0.1,0.1-0.4,0.3-0.5,0.4l-0.1-0.5c0.3-0.1,0.5-0.4,0.6-0.7l0.4-0.1l1.1,3.4
			L187.6,202.8z"/>
		<path class="st19" d="M189.1,202.3l-0.3-0.9l0.6-0.2l0.3,0.9L189.1,202.3z"/>
		<path class="st50" d="M189.5,217.9l47.6-15.9"/>
		<path class="st19" d="M189.6,214.9l-0.9-2.6c-0.1,0.1-0.4,0.3-0.5,0.4l-0.1-0.5c0.3-0.1,0.5-0.4,0.6-0.7l0.4-0.1l1.1,3.4
			L189.6,214.9z"/>
		<path class="st19" d="M191.1,214.5c-0.2-0.6-0.1-1.2,0.4-1.9c0.4-0.5,0.4-0.7,0.4-1c-0.1-0.3-0.3-0.4-0.6-0.4s-0.4,0.4-0.4,0.7
			l-0.6,0.2c-0.1-0.6,0-1.2,0.8-1.4c0.8-0.3,1.2,0.1,1.4,0.7c0.2,0.5,0,0.8-0.4,1.4c-0.3,0.4-0.4,0.7-0.4,0.9l1.6-0.5l0.1,0.6
			L191.1,214.5z"/>
		<path class="st19" d="M194,213.5l-0.3-0.9l0.6-0.2l0.3,0.9L194,213.5z"/>
		<path class="st51" d="M215,61c0,0-2.6-0.7-3.7-0.1c-1,0.6,2,1.7,2,1.7L215,61z"/>
		<path class="st47" d="M303.3,81.6l-0.9-0.4L301,87h1.1c0.5,0,0.9-0.3,1-0.8l0.9-3.5C304,82.3,303.8,81.8,303.3,81.6z"/>
		<path class="st47" d="M224.3,61.4c-4.2-0.6-9.4-1.2-10.1-0.9c-0.6,0.2-1.5,1.9-1,2.3c0.1,0.1,0.2,0.2,0.4,0.3
			c1.4,0.9,5.2,2.3,8.4,3.5C222.1,65,222.6,63,224.3,61.4z"/>
		
			<linearGradient id="SVGID_00000006697018145851445420000009894850878380388260_" gradientUnits="userSpaceOnUse" x1="261.2352" y1="218.7648" x2="263.5492" y2="227.2419" gradientTransform="matrix(1 0 0 -1 0 296)">
			<stop  offset="0.5193" style="stop-color:#465A80"/>
			<stop  offset="0.9886" style="stop-color:#F5F5F7"/>
		</linearGradient>
		<path style="fill:url(#SVGID_00000006697018145851445420000009894850878380388260_);" d="M302.4,81.1L301,87l-1-0.3L263,77.4
			l-2.1-0.5l-33.6-8.5l-0.7-0.2h0c0,0-1.1-0.4-2.7-0.9c-0.3-0.1-0.5-0.2-0.8-0.3c-0.4-0.1-0.7-0.3-1.1-0.4c0-0.3,0-0.6,0.1-1
			c0.2-1.1,0.6-2.3,1.4-3.4c0.2-0.3,0.5-0.5,0.8-0.8c0.4,0,0.8,0.1,1.1,0.2c1.3,0.2,2.4,0.4,3.2,0.5c0.2,0,0.4,0.1,0.6,0.1
			c0,0,0.1,0,0.3,0c2.4,0.6,17.4,4.4,33.1,8.5c0.6,0.1,1.2,0.3,1.8,0.4c14,3.6,28.3,7.3,34.6,8.9C301.1,80.8,302.4,81.1,302.4,81.1z
			"/>
		
			<linearGradient id="SVGID_00000147204760287759856400000017244542152674077086_" gradientUnits="userSpaceOnUse" x1="260.8401" y1="220.9764" x2="262.7771" y2="237.6984" gradientTransform="matrix(1 0 0 -1 0 296)">
			<stop  offset="0" style="stop-color:#FFFFFF;stop-opacity:0"/>
			<stop  offset="1" style="stop-color:#C2BABD"/>
		</linearGradient>
		<path style="fill:url(#SVGID_00000147204760287759856400000017244542152674077086_);" d="M299,80.3l-0.3,1.2l-36.9-9.3l-2.1-0.5
			l-33.6-8.5l-0.7-0.2h0c0,0-0.8-0.3-1.9-0.7c0.2-0.3,0.5-0.5,0.8-0.8c0.4,0,0.8,0.1,1.1,0.2c1.3,0.2,2.4,0.4,3.2,0.5
			c0.2,0,0.4,0.1,0.6,0.1c0,0,0.1,0,0.3,0c2.4,0.6,17.4,4.4,33.1,8.5c0.6,0.1,1.2,0.3,1.8,0.4C278.4,75,292.7,78.6,299,80.3z"/>
		<path class="st47" d="M264.4,71.3c-0.6-0.1-1.2-0.3-1.8-0.4l-1.7,6l2.1,0.5L264.4,71.3z"/>
		
			<linearGradient id="SVGID_00000155835662445270874100000017735959809099085225_" gradientUnits="userSpaceOnUse" x1="263.0523" y1="224.9873" x2="261.3713" y2="218.3224" gradientTransform="matrix(1 0 0 -1 0 296)">
			<stop  offset="0" style="stop-color:#CCC9C7"/>
			<stop  offset="0.5959" style="stop-color:#FFFFFF"/>
			<stop  offset="0.8267" style="stop-color:#D2CFCE"/>
			<stop  offset="1" style="stop-color:#B4AFAE"/>
		</linearGradient>
		<path style="fill:url(#SVGID_00000155835662445270874100000017735959809099085225_);" d="M263.9,71.2c-0.6-0.1-1.2-0.3-1.8-0.4
			l-1.7,6l2.1,0.5L263.9,71.2z"/>
		
			<linearGradient id="SVGID_00000015351155080537349350000006182266865783282331_" gradientUnits="userSpaceOnUse" x1="167.5112" y1="161.414" x2="165.0253" y2="109.886" gradientTransform="matrix(1 0 0 -1 0 296)">
			<stop  offset="0" style="stop-color:#687B99"/>
			<stop  offset="0.1381" style="stop-color:#5F738F"/>
			<stop  offset="0.6786" style="stop-color:#41576B"/>
			<stop  offset="0.9671" style="stop-color:#364C5D"/>
		</linearGradient>
		<path style="fill:url(#SVGID_00000015351155080537349350000006182266865783282331_);" d="M204,156.3l-49.1,50.3l-2.5,2.6
			c0,0,0,0,0,0l-1.4,1.5l0,0l-1.7,1.7l-5.2,5.3l-0.2,0.2c-0.2,0.2-0.4,0.3-0.6,0.4c-0.2,0-0.3,0-0.4,0h0l-17-5.9l15.6-16l45.1-46.3
			c0.7-0.7,1.6-1,2.4-0.7c0,0,14.6,5.1,15.4,5.3l0,0c0,0,0.1,0.1,0.1,0.2c0,0,0,0,0,0.1c0,0,0,0,0,0.1c0,0,0,0,0,0.1s0,0.1,0,0.1
			s0,0.1,0,0.1C204.3,155.8,204.2,156.1,204,156.3z"/>
		
			<linearGradient id="SVGID_00000160898035075996362390000010908392049375843748_" gradientUnits="userSpaceOnUse" x1="144.1607" y1="78.2014" x2="143.8557" y2="77.9804" gradientTransform="matrix(1 0 0 -1 0 296)">
			<stop  offset="0" style="stop-color:#475B80"/>
			<stop  offset="0.6559" style="stop-color:#2C3D51"/>
			<stop  offset="1" style="stop-color:#21313E"/>
		</linearGradient>
		<path style="fill:url(#SVGID_00000160898035075996362390000010908392049375843748_);" d="M144.1,217.8c0,0-0.1,0.1-0.1,0.1
			c0,0,0,0-0.1,0.1L144.1,217.8z"/>
		
			<linearGradient id="SVGID_00000048480565758029864430000003633207151975600552_" gradientUnits="userSpaceOnUse" x1="138.8761" y1="85.2018" x2="139.7921" y2="85.7247" gradientTransform="matrix(1 0 0 -1 0 296)">
			<stop  offset="0" style="stop-color:#475B80"/>
			<stop  offset="0.6559" style="stop-color:#2C3D51"/>
			<stop  offset="1" style="stop-color:#21313E"/>
		</linearGradient>
		<path style="fill:url(#SVGID_00000048480565758029864430000003633207151975600552_);" d="M206.4,161.9l-58.9,62.2c0,0,0,0-0.1,0.1
			c-0.2,0.2-0.4,0.4-0.7,0.4l-0.8-1.4l-2.5-4.6l-0.6-0.2h0c0.1,0,0.3,0,0.4,0c0.2,0,0.4-0.2,0.6-0.4c0,0,0,0,0.1-0.1
			c0,0,0,0,0.1-0.1l5.2-5.3l1.7-1.8l0,0l1.4-1.5c0,0,0,0,0,0l2.5-2.6l49.1-50.3c0.2-0.2,0.4-0.4,0.4-0.7c0,0,0-0.1,0-0.1
			c0,0,0-0.1,0-0.1c0,0,0-0.1,0-0.1c0,0,0,0,0-0.1s0,0,0-0.1l2.4,4.7C207.1,160.4,207,161.2,206.4,161.9z"/>
		
			<radialGradient id="SVGID_00000128475543688802695580000013448522154464492723_" cx="-120.88" cy="529.0598" r="0.9997" gradientTransform="matrix(8.2963 2.8826 3.2945 -9.482 -604.0003 5583.5601)" gradientUnits="userSpaceOnUse">
			<stop  offset="0" style="stop-color:#687B99"/>
			<stop  offset="0.5133" style="stop-color:#55688A"/>
			<stop  offset="1" style="stop-color:#475B80"/>
		</radialGradient>
		<path style="fill:url(#SVGID_00000128475543688802695580000013448522154464492723_);" d="M146.6,224.6c-0.2,0-0.3,0-0.4,0l-0.1,0
			l-4-1.5l-1.9-0.7l-7.2-2.6l-0.1,0l-1-0.4l-3.1-1.1l-2.9-5.7l17.6,6.1l2.5,4.6L146.6,224.6z"/>
		
			<linearGradient id="SVGID_00000138574717791156061690000000948571482703496096_" gradientUnits="userSpaceOnUse" x1="137.2641" y1="42.6362" x2="111.1031" y2="82.8072" gradientTransform="matrix(1 0 0 -1 0 296)">
			<stop  offset="0" style="stop-color:#8598B6"/>
			<stop  offset="0.2128" style="stop-color:#899CB9"/>
			<stop  offset="0.4407" style="stop-color:#96A7C1"/>
			<stop  offset="0.6757" style="stop-color:#ACBBCE"/>
			<stop  offset="0.9139" style="stop-color:#C9D6E1"/>
			<stop  offset="1" style="stop-color:#D6E1E9"/>
		</linearGradient>
		<path style="fill:url(#SVGID_00000138574717791156061690000000948571482703496096_);" d="M149.2,211.5c-1.3,1-2.7,1.8-4.1,2.4v0
			l-13.8,5.6L81,240.1l-5.7,2.3c-0.1,0-0.3,0.1-0.4,0c-0.3,0-0.6-0.3-0.5-0.7l0-0.2l2.2-16.9l0-0.3c0.1-0.9,0.9-1.8,1.8-2.2l61.1-25
			c6.8-3.2,13.3-5.1,16-1.2v0c1.1,1.6,1.2,3.6,0.6,5.8C155.4,205.2,152.9,208.8,149.2,211.5z"/>
		
			<linearGradient id="SVGID_00000088817227332031483330000015564823908937813921_" gradientUnits="userSpaceOnUse" x1="90.3773" y1="87.7575" x2="143.4993" y2="63.6921" gradientTransform="matrix(1 0 0 -1 0 296)">
			<stop  offset="0" style="stop-color:#475B80"/>
			<stop  offset="0.6559" style="stop-color:#2C3D51"/>
			<stop  offset="1" style="stop-color:#21313E"/>
		</linearGradient>
		<path style="opacity:0.4;fill:url(#SVGID_00000088817227332031483330000015564823908937813921_);enable-background:new    ;" d="
			M154.9,206.7l-5.7,5.8c-1.2,0.8-2.4,1.5-3.6,2v0l-6.3,2.6l-7.5,3.1l-50.3,20.5l-5.7,2.3c-0.5,0.2-1-0.1-0.9-0.6c0.1,0,0.3,0,0.4,0
			l5.7-2.3l50.3-20.5l6.9-2.8l6.9-2.8v0c1.4-0.6,2.8-1.4,4.1-2.4c3.7-2.7,6.1-6.2,7-9.5c0.6-2.2,0.4-4.3-0.6-5.8
			c0.2,0.2,0.4,0.4,0.5,0.6c1.1,1.6,1.3,3.7,0.7,5.9C156.4,203.9,155.8,205.3,154.9,206.7z"/>
		
			<linearGradient id="SVGID_00000167387495950469735080000018352095618076716209_" gradientUnits="userSpaceOnUse" x1="117.5217" y1="66.6382" x2="117.2077" y2="67.5962" gradientTransform="matrix(1 0 0 -1 0 296)">
			<stop  offset="0" style="stop-color:#8598B6"/>
			<stop  offset="0.1225" style="stop-color:#92A4BE"/>
			<stop  offset="0.5" style="stop-color:#B7C5D6"/>
			<stop  offset="0.8059" style="stop-color:#CEDAE4"/>
			<stop  offset="1" style="stop-color:#D6E1E9"/>
		</linearGradient>
		<path style="fill:url(#SVGID_00000167387495950469735080000018352095618076716209_);" d="M149,212.3c-1.3,1-2.7,1.8-4.1,2.4v0
			l-12.3,5l-1.5,0.6l-50.3,20.5l-0.4,0.2l-5.3,2.2c-0.3,0.1-0.6,0.1-0.8-0.1c-0.1-0.3-0.1-0.5-0.1-0.8c0,0,0,0,0,0l0-0.4l2.2-16.7
			c0-0.2,0.1-0.4,0.1-0.5l-2.2,16.9l0,0.2c-0.1,0.5,0.4,0.9,0.9,0.6l5.7-2.3l50.4-20.5l13.8-5.7v0c1.4-0.6,2.8-1.4,4.1-2.4
			c3.7-2.7,6.1-6.2,7-9.5C155.6,205.4,153,209.4,149,212.3z"/>
		
			<linearGradient id="SVGID_00000182488447919432083950000012215382556169575599_" gradientUnits="userSpaceOnUse" x1="82.1857" y1="53.6961" x2="71.4326" y2="46.9281" gradientTransform="matrix(1 0 0 -1 0 296)">
			<stop  offset="0" style="stop-color:#8598B6"/>
			<stop  offset="0.3943" style="stop-color:#66799B"/>
			<stop  offset="0.7649" style="stop-color:#4F6387"/>
			<stop  offset="1" style="stop-color:#475B80"/>
		</linearGradient>
		<path style="fill:url(#SVGID_00000182488447919432083950000012215382556169575599_);" d="M78.5,248.6c-0.5,0-0.7-0.3-0.7-0.3
			s-3-3.9-3.5-5c0,0,0,0,0-0.1c0.2,0.2,0.4,0.2,0.8,0.1l5.3-2.2L78.5,248.6z"/>
		
			<linearGradient id="SVGID_00000145017222636998494660000014640219391984662431_" gradientUnits="userSpaceOnUse" x1="99.5681" y1="17.4979" x2="128.1703" y2="131.6669" gradientTransform="matrix(1 0 0 -1 0 296)">
			<stop  offset="0" style="stop-color:#7C889D"/>
			<stop  offset="0.2662" style="stop-color:#7F8BA0"/>
			<stop  offset="0.4642" style="stop-color:#8894A8"/>
			<stop  offset="0.6403" style="stop-color:#99A4B5"/>
			<stop  offset="0.8035" style="stop-color:#AFBBC8"/>
			<stop  offset="0.9565" style="stop-color:#CCD7E1"/>
			<stop  offset="1" style="stop-color:#D6E1E9"/>
		</linearGradient>
		<path style="fill:url(#SVGID_00000145017222636998494660000014640219391984662431_);" d="M142,223.1c0,0-60.4,24.7-62,25.3
			c-0.7,0.2-1.2,0.3-1.5,0.2l1.8-7.5l0.4-0.2l50.3-20.5l1.7-0.7L142,223.1z"/>
		<rect x="137" y="196.6" class="st64" width="14.8" height="14.8"/>
		
			<linearGradient id="SVGID_00000155112263749550182050000004024315808610778525_" gradientUnits="userSpaceOnUse" x1="101.7682" y1="76.4698" x2="171.1272" y2="101.7398" gradientTransform="matrix(1 0 0 -1 0 296)">
			<stop  offset="0" style="stop-color:#8598B6"/>
			<stop  offset="0.1225" style="stop-color:#92A4BE"/>
			<stop  offset="0.5" style="stop-color:#B7C5D6"/>
			<stop  offset="0.8059" style="stop-color:#CEDAE4"/>
			<stop  offset="1" style="stop-color:#D6E1E9"/>
		</linearGradient>
		<path style="fill:url(#SVGID_00000155112263749550182050000004024315808610778525_);" d="M148.2,207.2c-3,3.2-7.2,4.4-9.2,2.6
			c-2.1-1.8-1.3-5.7,1.7-9c3-3.2,7.2-4.4,9.2-2.6C152,200,151.2,204,148.2,207.2z"/>
		
			<linearGradient id="SVGID_00000165234942602726881600000006780554968220923525_" gradientUnits="userSpaceOnUse" x1="191.3689" y1="139.0318" x2="180.5809" y2="127.7698" gradientTransform="matrix(1 0 0 -1 0 296)">
			<stop  offset="0" style="stop-color:#28394C"/>
			<stop  offset="0.7981" style="stop-color:#5F7398"/>
		</linearGradient>
		<path style="fill:url(#SVGID_00000165234942602726881600000006780554968220923525_);" d="M192.6,161.8c-2.2,2.6-5.9,4-8.4,3.1
			c-2.5-0.9-2.6-3.6-0.4-6.2c2.2-2.6,5.9-4,8.4-3.1C194.6,156.5,194.8,159.3,192.6,161.8z"/>
		
			<linearGradient id="SVGID_00000101809832269005418710000013416647823136428990_" gradientUnits="userSpaceOnUse" x1="177.3773" y1="128.9658" x2="199.3653" y2="142.8518" gradientTransform="matrix(1 0 0 -1 0 296)">
			<stop  offset="0" style="stop-color:#556A81"/>
			<stop  offset="0.308" style="stop-color:#455B6F"/>
			<stop  offset="0.6534" style="stop-color:#3A5062"/>
			<stop  offset="0.9671" style="stop-color:#364C5D"/>
		</linearGradient>
		<path style="fill:url(#SVGID_00000101809832269005418710000013416647823136428990_);" d="M192.5,161.6c-2.1,2.4-5.7,3.8-8,3
			c-2.3-0.8-2.6-3.5-0.4-5.9c2.1-2.4,5.7-3.8,8-3C194.3,156.6,194.5,159.2,192.5,161.6z"/>
		<path class="st68" d="M162.7,188.1l16-16.3"/>
		<path class="st68" d="M159.5,185.9l7.9-8.1"/>
		<g class="st1">
			<path class="st69" d="M66.9,142.8l-2.4,3.1l-3.9-4.4l2.6-2.9L66.9,142.8z"/>
			
				<linearGradient id="SVGID_00000079481030115014720530000005565594867960255655_" gradientUnits="userSpaceOnUse" x1="59.4168" y1="149.8495" x2="62.4842" y2="152.4945" gradientTransform="matrix(1 0 0 -1 0 296)">
				<stop  offset="0" style="stop-color:#132534"/>
				<stop  offset="5.182770e-02" style="stop-color:#152735"/>
				<stop  offset="0.4477" style="stop-color:#1E2F3C"/>
				<stop  offset="1" style="stop-color:#21313E"/>
			</linearGradient>
			<path style="opacity:0.5;fill:url(#SVGID_00000079481030115014720530000005565594867960255655_);enable-background:new    ;" d="
				M60.9,148l3.6-2.1l-3.9-4.5l-3.4,2.3L60.9,148z"/>
			<path class="st71" d="M63.3,138.6l-3.2,2.2l-2.8,3l3.4-2.3L63.3,138.6z"/>
		</g>
	</g>
</g>
<linearGradient id="SVGID_00000054963512367075533900000007073607452808678311_" gradientUnits="userSpaceOnUse" x1="80.1852" y1="222.4472" x2="120.2081" y2="222.4472">
	<stop  offset="0" style="stop-color:#7C889D"/>
	<stop  offset="0.1864" style="stop-color:#929EB0"/>
	<stop  offset="0.5363" style="stop-color:#B7C2CF"/>
	<stop  offset="0.82" style="stop-color:#A5AEB5"/>
	<stop  offset="1" style="stop-color:#A9B1B8"/>
</linearGradient>
<path style="opacity:0.6;fill:url(#SVGID_00000054963512367075533900000007073607452808678311_);" d="M113.8,221.3l0,0.7l5.7-2.3
	l0.2-3l-0.8,0.3l-0.2,2.3L113.8,221.3z M114.5,211.6l0,0.7l4.9-2l-0.2,2.3l0.8-0.3l0.2-3L114.5,211.6z M111.2,217.8l0.1-1.5l1.3-0.5
	c0.6-0.3,0.8-0.2,0.8,0.3l0,0.3c0,0.5-0.3,0.7-0.9,1L111.2,217.8z M113.3,217.3c0.6-0.4,1-1,1.1-1.5c0-0.3-0.1-0.6-0.4-0.7
	c-0.4-0.1-0.9-0.1-1.6,0.2l-1.8,0.7l-0.3,4.5l0.8-0.3l0.1-1.8l1.2-0.5c0.6-0.3,0.9-0.1,0.8,0.4l-0.1,1.1l0.8-0.3l0.1-1
	C114.1,217.4,113.9,217.2,113.3,217.3L113.3,217.3z M106.4,220.2l2.5-1l0-0.6l-2.5,1l0.1-1.4l2.7-1.1l0-0.6l-3.6,1.4l-0.3,4.5
	l3.7-1.5l0-0.6l-2.9,1.2L106.4,220.2z M103.7,221.5l0,0.3c0,0.7-0.4,1-1.1,1.3l-0.2,0.1c-0.8,0.3-1.1,0.3-1-0.6l0.1-1.2
	c0.1-0.9,0.5-1.2,1.2-1.6l0.2-0.1c0.7-0.3,1-0.2,0.9,0.4l0.9-0.4c0-0.9-0.7-1.1-1.8-0.7c-0.5,0.2-1,0.5-1.4,0.9
	c-0.5,0.6-0.9,1.3-0.9,2.3c-0.1,0.9,0.1,1.4,0.6,1.6c0.3,0.1,0.8,0.1,1.2-0.1c0.5-0.2,0.9-0.5,1.2-1l0.1,0l0,0.4l0.7-0.3l0.2-2.3
	l-2.2,0.9l0,0.6L103.7,221.5z M96.7,222.2l0.9-0.4c0.8-0.3,1.3-0.4,1.2,0.5l-0.1,1.2c-0.1,0.9-0.5,1.3-1.4,1.6l-0.9,0.4L96.7,222.2z
	 M97.4,225.8c1.5-0.6,2.2-1.8,2.3-3.1c0.1-1.3-0.5-2-2-1.4l-1.8,0.7l-0.3,4.5L97.4,225.8L97.4,225.8z M91.8,226.1l2.5-1l0-0.6
	l-2.5,1l0.1-1.4l2.7-1.1l0-0.6l-3.6,1.4l-0.3,4.5l3.7-1.5l0-0.6l-2.9,1.2L91.8,226.1z M87.2,225.5l-0.8,0.3l-0.3,4.5l3.7-1.5l0-0.6
	l-2.9,1.2L87.2,225.5z M80.4,232.7l-0.2,3l5.7-2.3l0-0.7l-4.9,2l0.2-2.3L80.4,232.7z M80.9,225.2l-0.2,3l0.8-0.3l0.2-2.3l4.9-2
	l0-0.7L80.9,225.2z"/>
</svg>
