<svg width="296" height="231" viewBox="0 0 296 231" fill="none" xmlns="http://www.w3.org/2000/svg">
    <path d="M160.852 129.866C159.265 134.022 155.277 137.244 149.304 138.514L42.5321 161.303C42.5321 161.303 42.5321 161.303 42.5154 161.311C42.3241 161.388 42.1158 161.432 41.9032 161.446C41.8906 161.442 41.874 161.45 41.8615 161.446L39.4331 161.964L9.36576 130.007L124.271 103.953C136.042 101.44 151.213 107.403 157.996 117.201C161.045 121.599 161.895 126.061 160.852 129.866Z" fill="#2A3448"/>
    <g style="mix-blend-mode:multiply" opacity="0.4">
        <path d="M262.138 103.164L264.002 98.2157L282.322 119.636L64.2997 167.748L49.2312 152.186" fill="url(#paint0_linear)"/>
    </g>
    <path d="M275.011 97.6314C275.011 97.6314 272.046 106.748 271.53 108.333C270.847 110.433 269.145 112.299 267.234 112.804L132.969 143.172L137.452 129.389L275.011 97.6314Z" fill="url(#paint1_linear)"/>
    <path d="M275.101 97.3545C274.819 98.2222 274.03 98.814 273.001 99.0356L265.084 100.869L164.725 123.296L138.185 129.224C137.735 129.328 137.259 129.173 136.956 128.824L107.98 96.0266C107.342 95.3044 107.714 94.16 108.647 93.935L181.091 77.7098L221.23 69.3091L243.916 64.1024C244.711 63.9161 245.654 63.9586 246.582 64.2603C247.385 64.5213 248.067 64.938 248.584 65.4396C248.676 65.5392 248.781 65.6428 248.861 65.7383L274.064 94.4032L274.699 95.1379C275.162 95.8449 275.334 96.6378 275.101 97.3545Z" fill="url(#paint2_linear)"/>
    <path d="M172.606 101.601C173.921 102.028 175.237 101.605 175.546 100.655C175.855 99.7044 175.04 98.5876 173.725 98.1601C172.41 97.7326 171.094 98.1562 170.785 99.1064C170.476 100.057 171.291 101.173 172.606 101.601Z" fill="white"/>
    <path d="M180.903 99.7425C182.218 100.17 183.534 99.7463 183.843 98.7962C184.152 97.846 183.337 96.7292 182.022 96.3017C180.707 95.8742 179.391 96.2978 179.082 97.248C178.773 98.1981 179.588 99.3149 180.903 99.7425Z" fill="white"/>
    <path d="M189.2 97.8841C190.514 98.3116 191.831 97.8879 192.14 96.9378C192.449 95.9876 191.633 94.8708 190.319 94.4433C189.004 94.0158 187.688 94.4394 187.379 95.3896C187.07 96.3397 187.885 97.4565 189.2 97.8841Z" fill="white"/>
    <path fill-rule="evenodd" clip-rule="evenodd" d="M210.658 86.8221L211.616 87.2387L207.968 94.405L204.042 92.6972L204.516 91.7665L207.484 93.0577L210.658 86.8221Z" fill="white"/>
    <path d="M106.56 94.4243L102.077 108.207L132.969 143.171L137.451 129.389L106.56 94.4243Z" fill="url(#paint3_linear)"/>
    <path d="M214.431 117.323C214.389 117.282 214.347 117.241 214.302 117.213L214.318 117.204L214.431 117.323Z" fill="url(#paint4_linear)"/>
    <path d="M256.283 107.85C256.241 107.809 256.199 107.768 256.153 107.739L256.17 107.731L256.283 107.85Z" fill="url(#paint5_linear)"/>
    <path d="M236.503 93.4109C242.826 95.4671 249.156 93.4294 250.643 88.8595C252.129 84.2896 248.208 78.918 241.885 76.8618C235.562 74.8056 229.232 76.8433 227.746 81.4132C226.259 85.9831 230.18 91.3547 236.503 93.4109Z" fill="url(#paint6_linear)"/>
    <path d="M236.677 92.8823C243 94.9385 249.33 92.9008 250.816 88.3309C252.303 83.761 248.382 78.3895 242.059 76.3332C235.736 74.277 229.406 76.3147 227.919 80.8846C226.433 85.4546 230.354 90.8261 236.677 92.8823Z" fill="url(#paint7_linear)"/>
    <path d="M140.854 132.316L139.492 136.504C139.492 136.504 143.463 137.212 144.486 134.068C145.508 130.924 140.854 132.316 140.854 132.316Z" fill="#2A3448"/>
    <path d="M38.4644 160.939L38.1168 162.008L8.24682 130.254L9.36722 130.007L38.4644 160.939Z" fill="url(#paint8_linear)"/>
    <path d="M42.7378 148.479C42.7378 148.479 39.814 156.873 38.4639 160.939L9.36673 130.007L8.59394 129.185L22.5297 126.028L42.7378 148.479Z" fill="#2A3448"/>
    <path d="M42.7379 148.48L42.3126 149.787L11.4333 115.467L12.8495 115.163L12.8249 115.238L42.7379 148.48Z" fill="url(#paint9_linear)"/>
    <path d="M161.255 122.447C159.239 124.127 156.595 125.394 153.35 126.077L141.787 128.547L125.709 131.981L45.378 149.144C45.2905 149.157 45.203 149.17 45.1114 149.196C45.0948 149.205 45.0822 149.201 45.0656 149.209C45.0656 149.209 45.0531 149.205 45.049 149.218C44.6534 149.325 44.3001 149.516 44.0016 149.795C43.8149 149.943 43.6617 150.115 43.5461 150.3C43.4387 150.46 43.3604 150.615 43.3073 150.779L40.3832 159.77C40.1542 160.474 39.6354 161.515 40.3501 161.748C40.5633 161.817 42.3208 161.401 42.5122 161.324C42.5288 161.316 133.373 141.927 133.373 141.927L132.964 143.184L39.3322 163.002L39.1656 163.045C39.1365 163.049 39.1073 163.054 39.0656 163.054C38.6196 163.104 37.4842 162.971 37.5617 162.69C37.6105 162.497 37.9894 162.398 38.108 162.034L38.4556 160.965C39.8057 156.898 42.7294 148.505 42.7294 148.505L22.5255 126.041L124.616 102.897C136.387 100.384 151.558 106.347 158.341 116.145C159.802 118.261 160.762 120.381 161.255 122.447Z" fill="url(#paint10_linear)"/>
    <path d="M165.098 116.854C164.407 118.98 163.11 120.88 161.259 122.433C160.766 120.368 159.806 118.248 158.345 116.132C151.562 106.334 136.391 100.371 124.62 102.884L22.5295 126.028L12.8245 115.238L12.8491 115.162L13.4864 115.036L128.668 90.4345C140.439 87.9217 155.61 93.8844 162.393 103.683C165.585 108.28 166.37 112.943 165.098 116.854Z" fill="url(#paint11_linear)"/>
    <path d="M13.4887 115.036L12.8514 115.162L13.0518 114.546L13.4887 115.036Z" fill="url(#paint12_linear)"/>
    <path d="M43.0159 148.779C42.8292 148.926 42.676 149.099 42.5604 149.284C42.453 149.444 42.3747 149.599 42.3216 149.763L38.1911 162.464C37.9008 163.356 37.1315 162.439 36.5138 161.737L8.59645 130.716C7.62603 129.649 7.31178 128.143 7.76164 126.76L11.4382 115.454C11.4913 115.291 11.5696 115.136 11.677 114.976C11.7926 114.791 11.9458 114.618 12.1325 114.47L12.7753 115.18L12.8257 115.238L14.1491 116.711L42.2892 147.986L43.0159 148.779Z" fill="url(#paint13_linear)"/>
    <path d="M165.524 115.547C165.451 115.773 165.36 116.008 165.274 116.23C163.649 120.332 159.69 123.509 153.78 124.757L44.3918 148.128C44.3042 148.141 44.2167 148.154 44.1251 148.18C44.1085 148.188 44.096 148.184 44.0793 148.193C43.6838 148.301 43.3139 148.5 43.0154 148.778L42.2886 147.986L14.1485 116.711L12.8251 115.238L12.7747 115.18L12.1319 114.47C12.4471 114.183 12.8336 113.975 13.2417 113.872L129.094 89.1271C140.865 86.6143 156.036 92.577 162.819 102.375C166.011 106.973 166.796 111.636 165.524 115.547Z" fill="url(#paint14_linear)"/>
    <path d="M40.1929 121.874C40.845 121.729 41.468 121.589 42.1034 121.454C43.067 121.239 44.0182 121.02 44.9776 120.819C45.908 120.622 47.1684 121.054 47.9088 121.858C49.1331 123.199 50.3201 124.528 51.5319 125.865C51.5816 125.923 51.6063 125.973 51.6642 126.049C49.5293 126.524 47.3944 127 45.2304 127.481C43.5595 125.615 41.8969 123.765 40.1929 121.874Z" fill="url(#paint15_linear)"/>
    <path d="M80.5206 125.829C80.4345 125.547 80.3731 125.315 80.3321 125.189C81.1323 125.135 81.9157 125.131 82.5752 125.004C83.886 124.731 84.0172 123.912 83.0261 122.789C82.8568 122.593 82.6751 122.394 82.4025 122.095C82.4007 122.645 82.1923 122.988 81.7231 123.205C80.403 123.799 78.456 123.415 76.8227 122.2C75.6525 121.33 74.8349 120.39 74.5729 119.388C74.1471 117.796 76.1725 117.018 78.4744 117.869C78.5117 117.881 78.549 117.893 78.6525 117.912C78.4792 117.687 78.3223 117.495 78.1572 117.287C78.4559 117.213 78.7338 117.161 79.0449 117.091C79.1564 117.212 79.2555 117.328 79.3546 117.445C80.8869 119.137 82.4067 120.824 83.9389 122.516C85.3597 124.088 85.1319 125.286 83.3521 125.733C82.5223 125.961 81.6143 126.01 80.5206 125.829ZM80.6062 120.036C80.2218 119.7 79.8458 119.34 79.4157 119.018C78.6094 118.421 77.7686 118.222 76.9516 118.328C76.1761 118.432 75.6819 118.726 75.7254 119.348C75.7928 120.273 77.1972 121.769 78.5839 122.354C79.5235 122.754 80.311 122.781 80.9627 122.509C81.6102 122.25 81.6782 121.749 81.3487 121.121C81.1343 120.77 80.8536 120.412 80.6062 120.036Z" fill="url(#paint16_linear)"/>
    <path d="M72.0641 119.414C71.6224 118.92 71.1765 118.438 70.7349 117.944C70.3014 117.466 69.868 116.988 69.4263 116.494C69.7663 116.419 70.0483 116.354 70.3593 116.284C72.7245 118.906 75.0816 121.51 77.4551 124.148C77.1607 124.209 76.8912 124.278 76.5678 124.344C76.3448 124.103 76.1219 123.862 75.8412 123.547C75.8115 123.763 75.8027 123.916 75.7567 124.056C75.3876 125.392 72.7275 125.429 70.681 124.096C69.3126 123.206 68.3838 122.188 67.9732 121.097C67.3694 119.506 69.0259 118.512 71.1949 119.136C71.4722 119.21 71.7536 119.315 72.0641 119.414ZM74.0913 121.518C73.645 121.163 73.2195 120.787 72.7276 120.446C71.8388 119.85 70.9034 119.565 70.0493 119.743C69.1994 119.908 68.9118 120.409 69.158 121.123C69.4616 122.04 70.2376 122.895 71.4284 123.616C72.367 124.184 73.2737 124.39 74.0907 124.158C74.8911 123.934 75.1248 123.43 74.8166 122.696C74.6355 122.327 74.3509 121.94 74.0913 121.518Z" fill="url(#paint17_linear)"/>
    <path d="M63.3766 123.868C64.2495 124.728 65.2229 125.323 66.4466 125.489C67.9856 125.7 68.7881 125.221 69.1603 124.336C69.4876 124.512 69.8191 124.675 70.134 124.846C69.9935 125.948 68.2484 126.577 66.3281 126.23C64.3828 125.875 62.4489 124.561 61.6196 123.021C60.877 121.637 61.4282 120.583 63.0394 120.279C64.389 120.018 66.1095 120.598 67.4007 121.734C67.6573 121.958 67.8806 122.199 68.1164 122.445C68.3563 122.677 68.3062 122.789 68.0238 122.854C66.6243 123.141 65.2537 123.465 63.8625 123.769C63.7005 123.802 63.5552 123.826 63.3766 123.868ZM66.7142 122.278C65.995 121.368 64.5815 120.816 63.5268 121.015C62.3558 121.234 62.008 122.255 62.8311 123.141C64.1227 122.848 65.3977 122.563 66.7142 122.278Z" fill="url(#paint18_linear)"/>
    <path d="M88.289 118.648C86.6278 119.021 85.0122 119.381 83.3966 119.74C83.7765 120.343 84.9571 121.061 85.9648 121.299C87.4535 121.664 88.5171 121.311 89.1306 120.234C89.4455 120.406 89.7521 120.561 90.1043 120.745C90.0033 121.179 89.7118 121.482 89.3126 121.736C88.1523 122.468 86.0528 122.332 84.2919 121.414C82.4357 120.451 81.1047 118.764 81.2372 117.561C81.3398 116.618 82.5246 115.979 83.9809 116.106C85.3584 116.223 86.5019 116.844 87.4743 117.736C87.7806 118.018 88.0078 118.332 88.289 118.648ZM82.7723 119.002C84.0764 118.712 85.3805 118.423 86.6721 118.13C85.8741 117.209 84.5477 116.684 83.5095 116.875C82.3676 117.089 81.9745 117.996 82.7723 119.002Z" fill="url(#paint19_linear)"/>
    <path d="M52.6716 119.952C52.9835 119.882 53.2496 119.826 53.5906 119.751C55.7445 122.13 57.8818 124.519 60.0564 126.919C61.4828 126.597 62.8592 126.301 64.2565 125.984C64.4884 126.243 64.6914 126.464 64.9109 126.719C63.2184 127.097 61.5134 127.472 59.7918 127.855C57.4308 125.225 55.0657 122.607 52.6716 119.952Z" fill="url(#paint20_linear)"/>
    <path d="M92.4193 121.08C92.1083 121.149 91.8264 121.214 91.5197 121.271C89.8317 119.39 88.1353 117.534 86.4349 115.648C86.7168 115.583 87.0112 115.522 87.3221 115.452C87.644 115.809 87.9784 116.171 88.3003 116.528C88.1708 115.625 88.4133 114.969 89.6771 114.88C89.9288 115.158 90.1517 115.399 90.3704 115.652C90.1091 115.738 89.8314 115.79 89.6404 115.912C89.1049 116.249 89.103 116.799 89.4241 117.41C89.638 117.846 89.9555 118.3 90.3227 118.728C90.8839 119.402 91.5278 120.074 92.1304 120.747C92.246 120.855 92.3244 120.95 92.4193 121.08Z" fill="url(#paint21_linear)"/>
    <path d="M41.2377 128.258C40.5928 127.542 39.9561 126.843 39.3112 126.127C40.125 125.949 40.9387 125.772 41.7691 125.585C42.4016 126.297 43.0507 127 43.6956 127.716C42.8652 127.903 42.0515 128.08 41.2377 128.258Z" fill="url(#paint22_linear)"/>
    <path d="M50.8457 130.334C50.032 130.512 49.2431 130.697 48.417 130.871C47.772 130.155 47.1478 129.46 46.5029 128.744C47.3042 128.562 48.1013 128.393 48.9317 128.207C49.5435 128.898 50.1802 129.597 50.8457 130.334Z" fill="url(#paint23_linear)"/>
    <path d="M40.5234 124.266C39.7064 124.457 38.9102 124.625 38.1098 124.807C36.7419 123.662 36.2656 122.352 38.6283 122.176C39.2517 122.87 39.8876 123.568 40.5234 124.266Z" fill="url(#paint24_linear)"/>
    <path d="M46.8403 131.151C45.2145 131.749 43.7499 131.222 42.4675 129.549C42.8665 129.465 43.2697 129.367 43.6811 129.287C44.0801 129.203 44.4833 129.105 44.9114 129.016C45.5571 129.733 46.1946 130.434 46.8403 131.151Z" fill="url(#paint25_linear)"/>
    <path d="M52.3924 130.018C51.7608 129.307 51.1332 128.626 50.5015 127.915C51.3144 127.737 52.1147 127.556 52.8985 127.384C54.3986 128.627 54.6017 129.85 52.3924 130.018Z" fill="url(#paint26_linear)"/>
    <path d="M136.586 115.675C143.518 117.929 150.458 115.697 152.086 110.69C153.715 105.683 149.415 99.7956 142.483 97.5412C135.55 95.2868 128.611 97.5186 126.982 102.526C125.354 107.533 129.653 113.42 136.586 115.675Z" fill="url(#paint27_linear)"/>
    <path d="M136.863 114.82C143.185 116.876 149.516 114.839 151.002 110.269C152.488 105.699 148.567 100.327 142.244 98.271C135.922 96.2148 129.591 98.2525 128.105 102.822C126.619 107.392 130.54 112.764 136.863 114.82Z" fill="url(#paint28_linear)"/>
    <defs>
        <linearGradient id="paint0_linear" x1="65.8699" y1="101.023" x2="267.089" y2="166.461" gradientUnits="userSpaceOnUse">
            <stop stop-color="#A3B4CE"/>
            <stop offset="1" stop-color="#DFEAFF"/>
        </linearGradient>
        <linearGradient id="paint1_linear" x1="146.46" y1="101.697" x2="261.522" y2="139.116" gradientUnits="userSpaceOnUse">
            <stop stop-color="#394A66"/>
            <stop offset="1" stop-color="#2A3448"/>
        </linearGradient>
        <linearGradient id="paint2_linear" x1="276.786" y1="65.6254" x2="148.318" y2="111.372" gradientUnits="userSpaceOnUse">
            <stop stop-color="#5F748F"/>
            <stop offset="1" stop-color="#65769D"/>
        </linearGradient>
        <linearGradient id="paint3_linear" x1="100.654" y1="112.584" x2="138.876" y2="125.014" gradientUnits="userSpaceOnUse">
            <stop stop-color="#394A66"/>
            <stop offset="1" stop-color="#2A3448"/>
        </linearGradient>
        <linearGradient id="paint4_linear" x1="214.306" y1="117.225" x2="214.46" y2="117.271" gradientUnits="userSpaceOnUse">
            <stop stop-color="#5F748F"/>
            <stop offset="1" stop-color="#65769D"/>
        </linearGradient>
        <linearGradient id="paint5_linear" x1="256.147" y1="107.756" x2="256.301" y2="107.802" gradientUnits="userSpaceOnUse">
            <stop stop-color="#5F748F"/>
            <stop offset="1" stop-color="#65769D"/>
        </linearGradient>
        <linearGradient id="paint6_linear" x1="221.712" y1="92.686" x2="256.442" y2="77.8007" gradientUnits="userSpaceOnUse">
            <stop stop-color="#394A66"/>
            <stop offset="1" stop-color="#2A3448"/>
        </linearGradient>
        <linearGradient id="paint7_linear" x1="221.884" y1="92.1613" x2="256.615" y2="77.2761" gradientUnits="userSpaceOnUse">
            <stop stop-color="#535F7A"/>
            <stop offset="1" stop-color="#65769D"/>
        </linearGradient>
        <linearGradient id="paint8_linear" x1="5.09446" y1="139.948" x2="41.4464" y2="151.77" gradientUnits="userSpaceOnUse">
            <stop stop-color="#A3B4CE"/>
            <stop offset="1" stop-color="#5F748F"/>
        </linearGradient>
        <linearGradient id="paint9_linear" x1="7.9742" y1="126.103" x2="45.9939" y2="138.468" gradientUnits="userSpaceOnUse">
            <stop stop-color="#A3B4CE"/>
            <stop offset="1" stop-color="#5F748F"/>
        </linearGradient>
        <linearGradient id="paint10_linear" x1="26.7331" y1="113.101" x2="151.137" y2="153.558" gradientUnits="userSpaceOnUse">
            <stop stop-color="#A3B4CE"/>
            <stop offset="1" stop-color="#5F748F"/>
        </linearGradient>
        <linearGradient id="paint11_linear" x1="21.4993" y1="88.563" x2="159.684" y2="133.502" gradientUnits="userSpaceOnUse">
            <stop stop-color="#A3B4CE"/>
            <stop offset="1" stop-color="#5F748F"/>
        </linearGradient>
        <linearGradient id="paint12_linear" x1="13.4853" y1="114.638" x2="12.939" y2="115.032" gradientUnits="userSpaceOnUse">
            <stop stop-color="#A3B4CE"/>
            <stop offset="1" stop-color="#5F748F"/>
        </linearGradient>
        <linearGradient id="paint13_linear" x1="29.6846" y1="134.378" x2="22.0148" y2="141.391" gradientUnits="userSpaceOnUse">
            <stop stop-color="#A3B4CE"/>
            <stop offset="1" stop-color="#5F748F"/>
        </linearGradient>
        <linearGradient id="paint14_linear" x1="18.494" y1="94.907" x2="157.532" y2="140.123" gradientUnits="userSpaceOnUse">
            <stop stop-color="#A3B4CE"/>
            <stop offset="1" stop-color="#DFEAFF"/>
        </linearGradient>
        <linearGradient id="paint15_linear" x1="43.669" y1="107.46" x2="47.9567" y2="133.266" gradientUnits="userSpaceOnUse">
            <stop stop-color="#A3B4CE"/>
            <stop offset="1" stop-color="#5F748F"/>
        </linearGradient>
        <linearGradient id="paint16_linear" x1="77.0388" y1="102.418" x2="81.3191" y2="128.174" gradientUnits="userSpaceOnUse">
            <stop stop-color="#A3B4CE"/>
            <stop offset="1" stop-color="#5F748F"/>
        </linearGradient>
        <linearGradient id="paint17_linear" x1="70.0734" y1="103.504" x2="74.3512" y2="129.243" gradientUnits="userSpaceOnUse">
            <stop stop-color="#A3B4CE"/>
            <stop offset="1" stop-color="#5F748F"/>
        </linearGradient>
        <linearGradient id="paint18_linear" x1="63.0995" y1="104.497" x2="67.3867" y2="130.299" gradientUnits="userSpaceOnUse">
            <stop stop-color="#A3B4CE"/>
            <stop offset="1" stop-color="#5F748F"/>
        </linearGradient>
        <linearGradient id="paint19_linear" x1="83.2197" y1="101.46" x2="87.5069" y2="127.262" gradientUnits="userSpaceOnUse">
            <stop stop-color="#A3B4CE"/>
            <stop offset="1" stop-color="#5F748F"/>
        </linearGradient>
        <linearGradient id="paint20_linear" x1="56.3441" y1="105.472" x2="60.6395" y2="131.331" gradientUnits="userSpaceOnUse">
            <stop stop-color="#A3B4CE"/>
            <stop offset="1" stop-color="#5F748F"/>
        </linearGradient>
        <linearGradient id="paint21_linear" x1="87.0499" y1="100.938" x2="91.3269" y2="126.673" gradientUnits="userSpaceOnUse">
            <stop stop-color="#A3B4CE"/>
            <stop offset="1" stop-color="#5F748F"/>
        </linearGradient>
        <linearGradient id="paint22_linear" x1="38.9291" y1="108.168" x2="43.2145" y2="133.958" gradientUnits="userSpaceOnUse">
            <stop stop-color="#A3B4CE"/>
            <stop offset="1" stop-color="#5F748F"/>
        </linearGradient>
        <linearGradient id="paint23_linear" x1="45.5973" y1="107.12" x2="49.8825" y2="132.909" gradientUnits="userSpaceOnUse">
            <stop stop-color="#A3B4CE"/>
            <stop offset="1" stop-color="#5F748F"/>
        </linearGradient>
        <linearGradient id="paint24_linear" x1="36.6749" y1="108.576" x2="40.9537" y2="134.322" gradientUnits="userSpaceOnUse">
            <stop stop-color="#A3B4CE"/>
            <stop offset="1" stop-color="#5F748F"/>
        </linearGradient>
        <linearGradient id="paint25_linear" x1="41.5494" y1="107.695" x2="45.8413" y2="133.53" gradientUnits="userSpaceOnUse">
            <stop stop-color="#A3B4CE"/>
            <stop offset="1" stop-color="#5F748F"/>
        </linearGradient>
        <linearGradient id="paint26_linear" x1="49.2743" y1="106.605" x2="53.553" y2="132.35" gradientUnits="userSpaceOnUse">
            <stop stop-color="#A3B4CE"/>
            <stop offset="1" stop-color="#5F748F"/>
        </linearGradient>
        <linearGradient id="paint27_linear" x1="139.485" y1="106.628" x2="115.683" y2="115.836" gradientUnits="userSpaceOnUse">
            <stop stop-color="#A3B4CE"/>
            <stop offset="1" stop-color="#5F748F"/>
        </linearGradient>
        <linearGradient id="paint28_linear" x1="128.103" y1="102.821" x2="151.012" y2="110.272" gradientUnits="userSpaceOnUse">
            <stop stop-color="#A3B4CE"/>
            <stop offset="1" stop-color="#DFEAFF"/>
        </linearGradient>
    </defs>
</svg>
