<?xml version="1.0" encoding="utf-8"?>
<!-- Generator: Adobe Illustrator 26.0.3, SVG Export Plug-In . SVG Version: 6.00 Build 0)  -->
<svg version="1.1" id="Layer_1" xmlns="http://www.w3.org/2000/svg" xmlns:xlink="http://www.w3.org/1999/xlink" x="0px" y="0px"
	 viewBox="0 0 340 248" style="enable-background:new 0 0 340 248;" xml:space="preserve">
<style type="text/css">
	.st0{clip-path:url(#SVGID_00000091014787792008258370000005306886316059779217_);}
	.st1{fill:url(#SVGID_00000116196404088900327310000018084145791558554264_);}
	.st2{fill:url(#SVGID_00000139276562556676744730000012247352911566469544_);}
	.st3{fill:url(#SVGID_00000091013379544756427500000009940848128389876363_);}
	.st4{opacity:0.8;fill:url(#SVGID_00000160878778306388254030000006690847516756955804_);enable-background:new    ;}
	.st5{opacity:0.6;fill:#FFFFFF;enable-background:new    ;}
	.st6{fill:url(#SVGID_00000025419134439610336790000017570067135008851863_);}
	.st7{opacity:0.5;}
	.st8{opacity:0.5;fill:url(#SVGID_00000067235007858978238890000014792608627040954253_);enable-background:new    ;}
	.st9{opacity:0.5;fill:url(#SVGID_00000074443820936024350170000014476129505950318492_);enable-background:new    ;}
	.st10{opacity:0.5;fill:url(#SVGID_00000153695238983171547530000014621149934256926128_);enable-background:new    ;}
	.st11{fill:url(#SVGID_00000033367076785551163520000010086430249658118834_);}
	.st12{fill:url(#SVGID_00000096058114688377139770000008755363582599909290_);}
	.st13{fill:url(#SVGID_00000096754451936666161350000010882882525714509740_);}
	.st14{fill:url(#SVGID_00000174584858053906086790000004659484996219839379_);}
	.st15{fill:url(#SVGID_00000072261432649370978830000003976851271238052494_);}
	.st16{opacity:0.4;fill:url(#SVGID_00000036965738754809312230000007226342909247493524_);enable-background:new    ;}
	.st17{fill:url(#SVGID_00000004544593310469263980000012564526117290790035_);}
	.st18{fill:url(#SVGID_00000155862381647336659320000007439458258461753739_);}
	.st19{fill:url(#SVGID_00000122679597961403042900000015050700010622159548_);}
	.st20{fill:none;}
	.st21{fill:url(#SVGID_00000057860721178170910060000012594626145898659732_);}
	.st22{fill:url(#SVGID_00000065039787548634223700000005201960324346584252_);}
	.st23{fill:url(#SVGID_00000062893673390150531540000005656191727950894724_);}
	.st24{fill:none;stroke:#90B0FF;stroke-width:2;stroke-miterlimit:10;}
	.st25{fill:url(#SVGID_00000083049600367325672640000017356731816905244848_);}
	.st26{fill:url(#SVGID_00000172400332505333253780000014689371381140795302_);}
	.st27{fill:url(#SVGID_00000078020487781430507790000011845021910094435773_);}
	.st28{fill:url(#SVGID_00000118383278151257347270000015808746366639839617_);}
	.st29{fill:url(#SVGID_00000003101687980271110950000003484207622145866112_);}
	.st30{fill:#EAEAEF;}
	.st31{fill:#ECECF1;}
	.st32{fill:#EEEEF2;}
	.st33{fill:#F0F0F4;}
	.st34{fill:#F2F2F5;}
	.st35{fill:#F4F4F6;}
	.st36{fill:#F5F5F7;}
	.st37{fill:#F7F7F8;}
	.st38{fill:#F8F8F9;}
	.st39{fill:#F9F9FA;}
	.st40{fill:#FAFAFB;}
	.st41{fill:#FBFBFB;}
	.st42{fill:#FBFBFC;}
	.st43{fill:#FCFCFC;}
	.st44{fill:#FCFCFF;}
	.st45{fill:#FFFFFF;}
	.st46{fill:url(#SVGID_00000000938901058869183250000007733261829052395172_);}
	.st47{fill:url(#SVGID_00000168111025540917847730000002660193622391257008_);}
	.st48{fill:url(#SVGID_00000179631474897987729090000007196607957641371573_);}
	.st49{fill:url(#SVGID_00000169551387137679515900000011670918997231251644_);}
	.st50{fill:#141B20;}
	.st51{fill:url(#SVGID_00000138541768995092696550000009744961960662783896_);}
	.st52{fill:url(#SVGID_00000071533707974729372620000009879034787806178710_);}
	.st53{fill:url(#SVGID_00000039123315086149489560000001802885562290375053_);}
	.st54{fill:url(#SVGID_00000134236212002927213540000010498844513728806051_);}
	.st55{fill:url(#SVGID_00000124154111279467289780000011939617189265115574_);}
	.st56{fill:url(#SVGID_00000101812864239015544180000002284248725699806629_);}
	.st57{fill:url(#SVGID_00000067947653957693984760000001110790810173188254_);}
	.st58{fill:url(#SVGID_00000009590777700685328400000016965219185818748340_);}
	.st59{fill:url(#SVGID_00000127022042340978459340000008616449486011267985_);}
	.st60{fill:url(#SVGID_00000048491637192428322580000007936132506822710182_);}
	.st61{fill:url(#SVGID_00000158707898509311262200000011915906502211996340_);}
	.st62{fill:url(#SVGID_00000173871573770745034690000015065990371187439805_);}
	.st63{fill:url(#SVGID_00000152264677111512015730000017382511901001162647_);}
	.st64{fill:url(#SVGID_00000083773286702107670100000006839249883477709704_);}
	.st65{fill:url(#SVGID_00000111181877737764998530000005499716664507522722_);}
	.st66{fill:url(#SVGID_00000132056906823947766560000002121802021778955195_);}
	.st67{fill:url(#SVGID_00000183231078871829708250000009484630595241506950_);}
	.st68{fill:url(#SVGID_00000098902004613720460290000018138197956913090486_);}
</style>
<g>
	<g>
		<defs>
			<rect id="SVGID_1_" width="340" height="248"/>
		</defs>
		<clipPath id="SVGID_00000088123741161576430730000000439638746770095035_">
			<use xlink:href="#SVGID_1_"  style="overflow:visible;"/>
		</clipPath>
		<g style="clip-path:url(#SVGID_00000088123741161576430730000000439638746770095035_);">
			
				<radialGradient id="SVGID_00000065764830772409759070000015613027548845074075_" cx="-454.0692" cy="44.2975" r="0.9999" gradientTransform="matrix(119.3978 2.5009 -0.2554 12.1941 54389.9805 829.8757)" gradientUnits="userSpaceOnUse">
				<stop  offset="0.2909" style="stop-color:#181384;stop-opacity:0.1"/>
				<stop  offset="0.4006" style="stop-color:#1C198A;stop-opacity:8.452320e-02"/>
				<stop  offset="0.5431" style="stop-color:#252999;stop-opacity:6.443580e-02"/>
				<stop  offset="0.7035" style="stop-color:#3644B3;stop-opacity:4.180510e-02"/>
				<stop  offset="0.8759" style="stop-color:#4D69D7;stop-opacity:1.749600e-02"/>
				<stop  offset="1" style="stop-color:#6088F5;stop-opacity:0"/>
			</radialGradient>
			<path style="fill:url(#SVGID_00000065764830772409759070000015613027548845074075_);" d="M0.5,227c0,0-4.5,1.1,13.6,3.9
				c18.1,2.7,115.5,17.2,136.4,17.2s182.8-7,177.1-13.4c-5.7-6.4-143.9-13.6-163.5-14C144.5,220.2,0.5,227,0.5,227z"/>
			
				<radialGradient id="SVGID_00000182502898557623645930000015945447928819273911_" cx="-444.8149" cy="148.5934" r="1.0001" gradientTransform="matrix(35.5941 0.7456 -7.614473e-02 3.6352 16135.2334 22.9429)" gradientUnits="userSpaceOnUse">
				<stop  offset="0.2921" style="stop-color:#181384;stop-opacity:5.000000e-02"/>
				<stop  offset="0.4016" style="stop-color:#1C198A;stop-opacity:4.226160e-02"/>
				<stop  offset="0.5438" style="stop-color:#252999;stop-opacity:3.221790e-02"/>
				<stop  offset="0.704" style="stop-color:#3644B3;stop-opacity:2.090250e-02"/>
				<stop  offset="0.8761" style="stop-color:#4D69D7;stop-opacity:1.000000e-02"/>
				<stop  offset="1" style="stop-color:#6088F5;stop-opacity:0"/>
			</radialGradient>
			<path style="fill:url(#SVGID_00000182502898557623645930000015945447928819273911_);" d="M242.4,229.2c0,0-1.3,0.3,4.1,1.1
				c5.4,0.8,34.5,5.1,40.7,5.1s54.5-2.1,52.8-4s-42.9-4.1-48.7-4.2C285.4,227.2,242.4,229.2,242.4,229.2z"/>
			
				<linearGradient id="SVGID_00000077304682837697384290000009832200242254663820_" gradientUnits="userSpaceOnUse" x1="155.4468" y1="604.9445" x2="201.4348" y2="703.8311" gradientTransform="matrix(1 0 0 1 0 -550)">
				<stop  offset="0" style="stop-color:#475B80"/>
				<stop  offset="0.6559" style="stop-color:#2C3D51"/>
				<stop  offset="1" style="stop-color:#21313E"/>
			</linearGradient>
			<path style="fill:url(#SVGID_00000077304682837697384290000009832200242254663820_);" d="M52.1,218.2c-0.3-0.4-6-9.2-10.2-21.5
				c-5.5-16.4-5.3-31,0.7-42.2c10.1-18.9,36-28.6,77-28.8c21.2-0.1,62.7-1.5,102.7-9.9c40.8-8.5,69.4-21.8,85-39.6
				c10.8-12.3,15.1-26.8,13-43.2c-1.1-8.9-4.4-16-9.7-21.2c-4.4-4.4-10.2-7.3-16.9-8.6c-10.1-1.8-23.8,0.8-27.4,7.5L264,9.5
				c3.8-7.1,17.6-11.1,30.2-8.8c16,2.9,26.4,14.6,28.6,32c2.2,17.2-2.4,32.4-13.7,45.3c-15.9,18.2-45,31.7-86.4,40.4
				c-40.2,8.4-81.9,9.8-103.2,9.9c-39.9,0.2-65.1,9.5-74.7,27.4c-7.2,13.3-4.3,29.2-0.6,40.1c4,12,9.8,20.9,9.9,21L52.1,218.2z"/>
			
				<radialGradient id="SVGID_00000183969339010402447680000011664254678393375925_" cx="-382.1472" cy="91.1591" r="1" gradientTransform="matrix(6.038 0 0 6.0334 2490.7795 -494.7826)" gradientUnits="userSpaceOnUse">
				<stop  offset="0" style="stop-color:#FFFFFF;stop-opacity:0.8"/>
				<stop  offset="1" style="stop-color:#90B0FF"/>
			</radialGradient>
			<path style="opacity:0.8;fill:url(#SVGID_00000183969339010402447680000011664254678393375925_);enable-background:new    ;" d="
				M181.5,59.8c1.3,0,2.4-1.1,2.4-2.4c0-1.3-1.1-2.4-2.4-2.4s-2.4,1.1-2.4,2.4S180.2,59.8,181.5,59.8z"/>
			<path class="st5" d="M256.7,177.9l1.2,0.7l-1.2,0.7l-0.7,1.3l-0.7-1.3l-1.2-0.7l1.2-0.7l0.7-1.3L256.7,177.9z"/>
			
				<linearGradient id="SVGID_00000024683260465602713920000010110492441972529336_" gradientUnits="userSpaceOnUse" x1="246.929" y1="697.6" x2="250.034" y2="697.6" gradientTransform="matrix(1 0 0 1 0 -550)">
				<stop  offset="0" style="stop-color:#475B80"/>
				<stop  offset="0.257" style="stop-color:#405374"/>
				<stop  offset="0.7162" style="stop-color:#2D3F55"/>
				<stop  offset="1" style="stop-color:#20313F"/>
			</linearGradient>
			<path style="fill:url(#SVGID_00000024683260465602713920000010110492441972529336_);" d="M249,147l1,0.6l-1,0.6l-0.6,1l-0.6-1
				l-1-0.6l1-0.6l0.6-1L249,147z"/>
			<g class="st7">
				
					<linearGradient id="SVGID_00000009554845380624666210000010617399122709403836_" gradientUnits="userSpaceOnUse" x1="77.1092" y1="673.8229" x2="129.1263" y2="631.1266" gradientTransform="matrix(1 0 0 1 0 -550)">
					<stop  offset="0" style="stop-color:#6D9AF8"/>
					<stop  offset="1" style="stop-color:#83AAFF"/>
				</linearGradient>
				
					<path style="opacity:0.5;fill:url(#SVGID_00000009554845380624666210000010617399122709403836_);enable-background:new    ;" d="
					M107.4,98.7h-2.9v2.9h2.9V98.7z"/>
				
					<linearGradient id="SVGID_00000176012379759426540730000010598677650091836339_" gradientUnits="userSpaceOnUse" x1="74.6572" y1="670.8354" x2="126.6742" y2="628.1395" gradientTransform="matrix(1 0 0 1 0 -550)">
					<stop  offset="0" style="stop-color:#6D9AF8"/>
					<stop  offset="1" style="stop-color:#83AAFF"/>
				</linearGradient>
				
					<path style="opacity:0.5;fill:url(#SVGID_00000176012379759426540730000010598677650091836339_);enable-background:new    ;" d="
					M107.4,93.7h-2.9v2.9h2.9V93.7z"/>
				
					<linearGradient id="SVGID_00000134250814823344240020000007305536637733003450_" gradientUnits="userSpaceOnUse" x1="72.1563" y1="667.7883" x2="124.1731" y2="625.0922" gradientTransform="matrix(1 0 0 1 0 -550)">
					<stop  offset="0" style="stop-color:#6D9AF8"/>
					<stop  offset="1" style="stop-color:#83AAFF"/>
				</linearGradient>
				
					<path style="opacity:0.5;fill:url(#SVGID_00000134250814823344240020000007305536637733003450_);enable-background:new    ;" d="
					M107.4,88.6h-2.9v2.9h2.9V88.6z"/>
			</g>
			
				<linearGradient id="SVGID_00000013156261718419915030000000640905996135626900_" gradientUnits="userSpaceOnUse" x1="213.4841" y1="530.0549" x2="239.783" y2="722.8026" gradientTransform="matrix(1 0 0 1 0 -550)">
				<stop  offset="0" style="stop-color:#687B99"/>
				<stop  offset="0.1381" style="stop-color:#5F738F"/>
				<stop  offset="0.6786" style="stop-color:#41576B"/>
				<stop  offset="0.9671" style="stop-color:#364C5D"/>
			</linearGradient>
			<path style="fill:url(#SVGID_00000013156261718419915030000000640905996135626900_);" d="M278.9,14.6l-27.4,51.9l-3.9,7.4
				l-24,45.4l-2.8,5.3c0,0,0,0,0,0.1l-1.6,3.1c0,0,0,0,0,0.1l-1.9,3.6l-5.8,11l-0.2,0.4c-0.3,0.4-0.6,0.7-0.9,0.8
				c-0.3,0.1-0.6,0.1-0.8,0.1h-0.1l-35.8-5.8l17.5-33.3l36.6-69.3l6.9-13L242,8.5c0.7-1.4,2.3-2.2,3.9-2c0,0,30.8,5,32.5,5.3
				c0,0,0.1,0,0.1,0.1c0.1,0.1,0.3,0.2,0.4,0.3c0,0.1,0.1,0.1,0.1,0.2c0,0,0,0.1,0.1,0.1c0,0.1,0,0.1,0.1,0.2c0,0.1,0,0.1,0.1,0.2
				l0,0c0,0.1,0,0.1,0,0.2C279.3,13.7,279.1,14.2,278.9,14.6z"/>
			
				<linearGradient id="SVGID_00000160886798902644876870000009130945648780387220_" gradientUnits="userSpaceOnUse" x1="211.5648" y1="692.3362" x2="211.1658" y2="692.8282" gradientTransform="matrix(1 0 0 1 0 -550)">
				<stop  offset="0" style="stop-color:#475B80"/>
				<stop  offset="0.6559" style="stop-color:#2C3D51"/>
				<stop  offset="1" style="stop-color:#21313E"/>
			</linearGradient>
			<path style="fill:url(#SVGID_00000160886798902644876870000009130945648780387220_);" d="M211.4,142.5L211.4,142.5
				c0,0.1-0.1,0.2-0.1,0.2l-0.1,0.1L211.4,142.5z"/>
			
				<linearGradient id="SVGID_00000034079845231373218750000013452226115311837846_" gradientUnits="userSpaceOnUse" x1="199.7488" y1="683.2379" x2="200.9978" y2="681.9919" gradientTransform="matrix(1 0 0 1 0 -550)">
				<stop  offset="0" style="stop-color:#475B80"/>
				<stop  offset="0.6559" style="stop-color:#2C3D51"/>
				<stop  offset="1" style="stop-color:#21313E"/>
			</linearGradient>
			<path style="fill:url(#SVGID_00000034079845231373218750000013452226115311837846_);" d="M287.3,24l-65.2,128.8
				c0,0.1-0.1,0.1-0.1,0.2c-0.3,0.4-0.6,0.8-1,1l-2.5-2.4l-7.9-7.6l-1.3-0.2h0.1c0.3,0,0.6,0,0.8-0.1c0.4-0.1,0.7-0.4,0.9-0.8
				c0,0,0-0.1,0.1-0.1c0-0.1,0.1-0.1,0.1-0.2l0,0l5.8-11l1.9-3.6c0,0,0,0,0-0.1l1.6-3.1c0,0,0,0,0-0.1l2.8-5.3l55.3-104.7
				c0.2-0.4,0.3-0.9,0.3-1.3c0-0.1,0-0.1,0-0.2l0,0c0-0.1,0-0.1-0.1-0.2c0-0.1,0-0.1-0.1-0.2c0,0,0-0.1-0.1-0.1
				c0-0.1-0.1-0.1-0.1-0.2l7.7,7.8C287.7,21.1,287.9,22.7,287.3,24z"/>
			
				<radialGradient id="SVGID_00000032609166036987980640000017629945039580964007_" cx="-427.4678" cy="26.5294" r="0.9988" gradientTransform="matrix(17.471 2.8442 -2.8421 17.4583 7740.9727 898.7467)" gradientUnits="userSpaceOnUse">
				<stop  offset="0" style="stop-color:#687B99"/>
				<stop  offset="0.5133" style="stop-color:#55688A"/>
				<stop  offset="1" style="stop-color:#475B80"/>
			</radialGradient>
			<path style="fill:url(#SVGID_00000032609166036987980640000017629945039580964007_);" d="M221,154c-0.3,0.1-0.6,0.1-0.8,0.1h-0.3
				l0,0l-8.5-1.5l-4.1-0.7l-15.2-2.7h-0.3l-2.1-0.4l-6.6-1.2l-9.5-9.6l37,6l7.9,7.6L221,154z"/>
			
				<linearGradient id="SVGID_00000033333645517890323570000000672565792876605321_" gradientUnits="userSpaceOnUse" x1="226.1904" y1="763.7601" x2="146.7034" y2="692.5911" gradientTransform="matrix(1 0 0 1 0 -550)">
				<stop  offset="0" style="stop-color:#8598B6"/>
				<stop  offset="0.2128" style="stop-color:#899CB9"/>
				<stop  offset="0.4407" style="stop-color:#96A7C1"/>
				<stop  offset="0.6757" style="stop-color:#ACBBCE"/>
				<stop  offset="0.9139" style="stop-color:#C9D6E1"/>
				<stop  offset="1" style="stop-color:#D6E1E9"/>
			</linearGradient>
			<path style="fill:url(#SVGID_00000033333645517890323570000000672565792876605321_);" d="M216.5,129.6c-1.8,2.2-3.8,4.1-5.9,5.5
				l0,0l-21.7,14.1l-78.8,51.3l-9,5.8c-0.2,0.1-0.5,0.2-0.7,0.2c-0.7,0-1.3-0.4-1.4-1.1l-0.1-0.4L91,174l-0.1-0.6
				c-0.4-1.7,0.3-3.5,1.7-4.4l95.9-62.4c10.4-7.7,21.1-13,28.8-6.7c0,0,0,0,0.1,0.1l0,0c3.1,2.5,4.9,6.2,5.3,10.3l0,0
				C223.5,116.6,221.4,123.6,216.5,129.6z"/>
			
				<linearGradient id="SVGID_00000142888188499260308320000011572515210708192670_" gradientUnits="userSpaceOnUse" x1="110.1923" y1="695.9267" x2="216.5371" y2="713.2654" gradientTransform="matrix(1 0 0 1 0 -550)">
				<stop  offset="0" style="stop-color:#475B80"/>
				<stop  offset="0.6559" style="stop-color:#2C3D51"/>
				<stop  offset="1" style="stop-color:#21313E"/>
			</linearGradient>
			<path style="opacity:0.4;fill:url(#SVGID_00000142888188499260308320000011572515210708192670_);enable-background:new    ;" d="
				M223.6,119.3l-6.4,12.2c-1.6,1.8-3.4,3.4-5.2,4.7l0,0l-9.9,6.4l-11.8,7.7l-78.8,51.3l-9,5.8c-0.8,0.5-1.9,0.1-2.2-0.8
				c0.3,0,0.5-0.1,0.7-0.2l9-5.8l78.8-51.3l10.8-7l10.9-7.1l0,0c2.1-1.5,4.1-3.4,5.9-5.5c4.9-5.9,7-13,6.2-19.1l0,0
				c-0.5-4.1-2.3-7.8-5.3-10.3c0.4,0.3,0.9,0.6,1.4,1c3.1,2.5,4.9,6.3,5.5,10.4l0,0C224.5,114,224.3,116.6,223.6,119.3z"/>
			
				<linearGradient id="SVGID_00000151507210679009791900000003803546342196794507_" gradientUnits="userSpaceOnUse" x1="165.7201" y1="716.0823" x2="164.6101" y2="714.3894" gradientTransform="matrix(1 0 0 1 0 -550)">
				<stop  offset="0" style="stop-color:#8598B6"/>
				<stop  offset="0.1225" style="stop-color:#92A4BE"/>
				<stop  offset="0.5" style="stop-color:#B7C5D6"/>
				<stop  offset="0.8059" style="stop-color:#CEDAE4"/>
				<stop  offset="1" style="stop-color:#D6E1E9"/>
			</linearGradient>
			<path style="fill:url(#SVGID_00000151507210679009791900000003803546342196794507_);" d="M216.8,131.2c-1.8,2.2-3.8,4.1-5.9,5.5
				l0,0l-19.3,12.6l-2.4,1.6l-78.8,51.2l-0.7,0.4l-8.3,5.4c-0.5,0.3-1,0.3-1.5,0.1c-0.4-0.4-0.7-0.9-0.8-1.3l0,0l-0.2-0.8l0,0
				l-7.8-30.6c-0.1-0.3-0.1-0.7-0.1-1l7.9,31l0.1,0.4c0.3,1,1.4,1.4,2.2,0.8l9-5.8l78.8-51.3l21.7-14.1l0,0c2.1-1.5,4.1-3.4,5.9-5.5
				c4.9-5.9,7-13,6.2-19.1C224.1,116.9,222,124.7,216.8,131.2z"/>
			
				<linearGradient id="SVGID_00000077314214609405375540000001822143699542799242_" gradientUnits="userSpaceOnUse" x1="113.4676" y1="753.8489" x2="98.8694" y2="769.7399" gradientTransform="matrix(1 0 0 1 0 -550)">
				<stop  offset="0" style="stop-color:#8598B6"/>
				<stop  offset="0.3943" style="stop-color:#66799B"/>
				<stop  offset="0.7649" style="stop-color:#4F6387"/>
				<stop  offset="1" style="stop-color:#475B80"/>
			</linearGradient>
			<path style="fill:url(#SVGID_00000077314214609405375540000001822143699542799242_);" d="M111.6,216.5c-0.9,0-1.5-0.3-1.5-0.3
				s-8.2-6.1-10.1-8.1l-0.1-0.1c0.4,0.2,1,0.3,1.5-0.1l8.3-5.4L111.6,216.5z"/>
			
				<linearGradient id="SVGID_00000009550607970559063300000017000751814066036353_" gradientUnits="userSpaceOnUse" x1="164.1641" y1="764.3932" x2="152.9371" y2="654.3522" gradientTransform="matrix(1 0 0 1 0 -550)">
				<stop  offset="0" style="stop-color:#9FB1CC"/>
				<stop  offset="1" style="stop-color:#5E748D"/>
			</linearGradient>
			<path style="fill:url(#SVGID_00000009550607970559063300000017000751814066036353_);" d="M211.3,152.5c0,0-94.6,61.7-97.1,63.2
				c-1,0.6-2,0.8-2.7,0.8l-2-14l0.7-0.4l78.8-51.3l2.7-1.8L211.3,152.5z"/>
			<rect x="189.8" y="103.3" class="st20" width="24.7" height="28.4"/>
			
				<linearGradient id="SVGID_00000093153983014928941080000015362246278985326219_" gradientUnits="userSpaceOnUse" x1="139.1865" y1="712.0061" x2="241.7295" y2="639.5566" gradientTransform="matrix(1 0 0 1 0 -550)">
				<stop  offset="0" style="stop-color:#8598B6"/>
				<stop  offset="0.1225" style="stop-color:#92A4BE"/>
				<stop  offset="0.5" style="stop-color:#B7C5D6"/>
				<stop  offset="0.8059" style="stop-color:#CEDAE4"/>
				<stop  offset="1" style="stop-color:#D6E1E9"/>
			</linearGradient>
			<path style="fill:url(#SVGID_00000093153983014928941080000015362246278985326219_);" d="M211.5,122.1
				c-3.3,6.6-10.2,9.9-15.3,7.3c-5.1-2.6-6.6-10-3.2-16.6c3.3-6.6,10.2-9.9,15.3-7.3C213.4,108.1,214.8,115.5,211.5,122.1z"/>
			
				<linearGradient id="SVGID_00000156555948045984203700000017612826723496337305_" gradientUnits="userSpaceOnUse" x1="256.0011" y1="569.3903" x2="243.5051" y2="592.3815" gradientTransform="matrix(1 0 0 1 0 -550)">
				<stop  offset="0" style="stop-color:#28394C"/>
				<stop  offset="0.7981" style="stop-color:#5F7398"/>
			</linearGradient>
			<path style="fill:url(#SVGID_00000156555948045984203700000017612826723496337305_);" d="M261.6,27.7c-2.2,5.2-8.2,8.8-13.3,8
				s-7.5-5.7-5.3-11c2.2-5.2,8.2-8.8,13.3-8C261.5,17.6,263.9,22.5,261.6,27.7z"/>
			
				<linearGradient id="SVGID_00000026134592004879663340000014212031122788648871_" gradientUnits="userSpaceOnUse" x1="237.6936" y1="592.0056" x2="267.3976" y2="559.574" gradientTransform="matrix(1 0 0 1 0 -550)">
				<stop  offset="0" style="stop-color:#556A81"/>
				<stop  offset="0.308" style="stop-color:#455B6F"/>
				<stop  offset="0.6534" style="stop-color:#3A5062"/>
				<stop  offset="0.9671" style="stop-color:#364C5D"/>
			</linearGradient>
			<path style="fill:url(#SVGID_00000026134592004879663340000014212031122788648871_);" d="M261.2,27.5c-2.1,5-7.8,8.4-12.8,7.6
				c-4.9-0.8-7.2-5.5-5-10.5c2.1-5,7.9-8.4,12.8-7.6C261.1,17.8,263.4,22.5,261.2,27.5z"/>
			<path class="st24" d="M232.5,174.2l-2.5,30.3l-48.8,12.9"/>
			<path class="st24" d="M232.5,174.2l-51.3,43.2"/>
			
				<radialGradient id="SVGID_00000173857247273721318970000001751085311037209001_" cx="-409.1783" cy="58.6742" r="1" gradientTransform="matrix(9.3811 0 0 9.3738 4066.8352 -349.022)" gradientUnits="userSpaceOnUse">
				<stop  offset="0" style="stop-color:#90B0FF"/>
				<stop  offset="0.1375" style="stop-color:#89ABFD"/>
				<stop  offset="0.342" style="stop-color:#759EF7"/>
				<stop  offset="0.5882" style="stop-color:#5488EE"/>
				<stop  offset="0.8645" style="stop-color:#266AE2"/>
				<stop  offset="1" style="stop-color:#0D5ADB"/>
			</radialGradient>
			<path style="fill:url(#SVGID_00000173857247273721318970000001751085311037209001_);" d="M230.3,208.2c1.8,0,3.3-1.5,3.3-3.3
				s-1.5-3.3-3.3-3.3s-3.3,1.5-3.3,3.3S228.5,208.2,230.3,208.2z"/>
			
				<radialGradient id="SVGID_00000137128181716463617680000013822733660277412786_" cx="-411.5745" cy="55.794" r="1" gradientTransform="matrix(9.8653 0 0 9.8577 4240.0244 -336.7107)" gradientUnits="userSpaceOnUse">
				<stop  offset="0" style="stop-color:#90B0FF"/>
				<stop  offset="0.1375" style="stop-color:#89ABFD"/>
				<stop  offset="0.342" style="stop-color:#759EF7"/>
				<stop  offset="0.5882" style="stop-color:#5488EE"/>
				<stop  offset="0.8645" style="stop-color:#266AE2"/>
				<stop  offset="1" style="stop-color:#0D5ADB"/>
			</radialGradient>
			<path style="fill:url(#SVGID_00000137128181716463617680000013822733660277412786_);" d="M181.3,220.7c1.8,0,3.3-1.5,3.3-3.3
				s-1.5-3.3-3.3-3.3s-3.3,1.5-3.3,3.3C177.9,219.2,179.4,220.7,181.3,220.7z"/>
			
				<radialGradient id="SVGID_00000177477976145498139940000015694668201375480467_" cx="-406.2638" cy="62.1764" r="1" gradientTransform="matrix(8.8526 0 0 8.8458 3827.2249 -380.387)" gradientUnits="userSpaceOnUse">
				<stop  offset="0" style="stop-color:#90B0FF"/>
				<stop  offset="0.1375" style="stop-color:#89ABFD"/>
				<stop  offset="0.342" style="stop-color:#759EF7"/>
				<stop  offset="0.5882" style="stop-color:#5488EE"/>
				<stop  offset="0.8645" style="stop-color:#266AE2"/>
				<stop  offset="1" style="stop-color:#0D5ADB"/>
			</radialGradient>
			<path style="fill:url(#SVGID_00000177477976145498139940000015694668201375480467_);" d="M232.9,177.1c1.8,0,3.3-1.5,3.3-3.3
				s-1.5-3.3-3.3-3.3s-3.3,1.5-3.3,3.3C229.6,175.6,231.1,177.1,232.9,177.1z"/>
			
				<linearGradient id="SVGID_00000031191982914423469470000006381927989451784338_" gradientUnits="userSpaceOnUse" x1="285.9333" y1="642.9407" x2="309.4103" y2="682.5665" gradientTransform="matrix(1 0 0 1 0 -550)">
				<stop  offset="0" style="stop-color:#90B0FF"/>
				<stop  offset="0.1375" style="stop-color:#89ABFD"/>
				<stop  offset="0.342" style="stop-color:#759EF7"/>
				<stop  offset="0.5882" style="stop-color:#5488EE"/>
				<stop  offset="0.8645" style="stop-color:#266AE2"/>
				<stop  offset="1" style="stop-color:#0D5ADB"/>
			</linearGradient>
			<path style="fill:url(#SVGID_00000031191982914423469470000006381927989451784338_);" d="M303.3,97.4c0.6,5.3-1.1,10-4.8,12.6
				l-0.2,0.1c-0.5,0.4-1.1,0.7-1.7,0.9c-0.6,0.3-1.3,0.5-2,0.7c-0.4,0.1-0.9,0.2-1.4,0.2c-7.9,0.9-17.2-5.3-21.3-14.6
				c-1.5-3.4-2.1-6.8-2-9.8c0.1-2.2,0.7-4.2,1.6-5.9c0.4-0.8,1-1.5,1.6-2.2c0.4-0.4,0.9-0.9,1.4-1.3l0.4-0.3l0,0
				c1.1-0.7,2.3-1.2,3.6-1.5c8.1-1.8,18.3,4.6,22.7,14.3C302.4,93,303.1,95.3,303.3,97.4z"/>
			
				<linearGradient id="SVGID_00000096763745035970108070000005272930094059633322_" gradientUnits="userSpaceOnUse" x1="362.2186" y1="707.2285" x2="291.3606" y2="655.3555" gradientTransform="matrix(1 0 0 1 0 -550)">
				<stop  offset="0" style="stop-color:#90B0FF"/>
				<stop  offset="0.1375" style="stop-color:#89ABFD"/>
				<stop  offset="0.342" style="stop-color:#759EF7"/>
				<stop  offset="0.5882" style="stop-color:#5488EE"/>
				<stop  offset="0.8645" style="stop-color:#266AE2"/>
				<stop  offset="1" style="stop-color:#0D5ADB"/>
			</linearGradient>
			<path style="fill:url(#SVGID_00000096763745035970108070000005272930094059633322_);" d="M298.4,110.2l-2.6,1.8
				c-0.5,0.4-1.1,0.8-1.1,0.8c-0.9,0.5-1.9,0.9-3,1.1c-8.1,1.8-18.3-4.6-22.7-14.3c-3.5-7.8-2.2-15.4,2.5-19.1c0,0,0,0,0.1,0
				l3.1-2.2c-0.5,0.4-1,0.8-1.4,1.3c-0.6,0.7-1.1,1.4-1.6,2.2c-2.2,4.1-2.3,9.8,0.3,15.7c4.1,9.2,13.4,15.5,21.3,14.5
				c0.4,0,0.9-0.1,1.4-0.2c0.7-0.1,1.4-0.4,2-0.7C297.2,110.9,297.8,110.5,298.4,110.2z"/>
			<path class="st30" d="M297.2,93.6l-9-10.5l6.3-1.4L297.2,93.6z"/>
			<path class="st30" d="M297.4,94.4l-9.6-11.2l0.4-0.1l9,10.5L297.4,94.4z"/>
			<path class="st31" d="M297.6,95.1l-10.2-11.8l0.4-0.1l9.6,11.2L297.6,95.1z"/>
			<path class="st32" d="M297.7,95.8L287,83.4l0.4-0.1l10.2,11.8L297.7,95.8z"/>
			<path class="st33" d="M297.9,96.6l-11.3-13.1l0.4-0.1l10.7,12.4L297.9,96.6z"/>
			<path class="st34" d="M298.1,97.3l-11.9-13.8l0.4-0.1l11.3,13.1L298.1,97.3z"/>
			<path class="st35" d="M298.2,98l-12.4-14.4l0.4-0.1l11.9,13.8L298.2,98z"/>
			<path class="st36" d="M298.4,98.8l-13-15.1l0.4-0.1L298.2,98L298.4,98.8z"/>
			<path class="st37" d="M298.1,98.9l-13-15.1l0.4-0.1l13,15.1l0,0L298.1,98.9z"/>
			<path class="st38" d="M297.6,99l-13-15.1l0.4-0.1l13,15.1L297.6,99z"/>
			<path class="st39" d="M297.3,99.1l-13-15.1l0.4-0.1l13,15.1L297.3,99.1z"/>
			<path class="st40" d="M296.9,99.1l-13-15.1l0.4-0.1l13,15.1L296.9,99.1z"/>
			<path class="st41" d="M296.5,99.3l-13-15.1l0.4-0.1l13,15.1L296.5,99.3z"/>
			<path class="st42" d="M296.1,99.3l-13-15.1l0.4-0.1l13,15.1L296.1,99.3z"/>
			<path class="st43" d="M295.7,99.4l-13-15.1l0.4-0.1l13,15.1L295.7,99.4z"/>
			<path class="st44" d="M295.3,99.5l-12.7-14.8l-0.1-0.3l0.2-0.1l13,15.1L295.3,99.5z"/>
			<path class="st45" d="M295,99.6l-12.2-14.1l-0.2-0.7l12.7,14.8L295,99.6z"/>
			<path class="st45" d="M294.6,99.7L283,86.2l-0.1-0.7L295,99.6L294.6,99.7z"/>
			<path class="st45" d="M294.2,99.8L283.1,87l-0.2-0.7l11.6,13.5H294.2z"/>
			<path class="st45" d="M293.8,99.9l-10.5-12.2l-0.2-0.7l11.1,12.8L293.8,99.9z"/>
			<path class="st45" d="M283.3,87.7l10.5,12.2l-7.3,1.7L283.3,87.7z"/>
			<path class="st30" d="M291.1,100.1l-10.5-12.2l7.3-1.7L291.1,100.1z"/>
			<path class="st30" d="M291.2,100.8L280.1,88l0.4-0.1l10.5,12.2L291.2,100.8z"/>
			<path class="st31" d="M291.4,101.5L279.8,88l0.4-0.1l11.1,12.8L291.4,101.5z"/>
			<path class="st32" d="M291.5,102.3l-12.2-14.1l0.4-0.1l11.6,13.5L291.5,102.3z"/>
			<path class="st33" d="M291.7,103L279,88.2l0.4-0.1l12.2,14.1L291.7,103z"/>
			<path class="st34" d="M291.6,103.4l-13-15.1l0.4-0.1l12.7,14.8l0.1,0.3L291.6,103.4z"/>
			<path class="st35" d="M291.2,103.5l-13-15.1l0.4-0.1l13,15.1L291.2,103.5z"/>
			<path class="st36" d="M290.8,103.6l-13-15.1l0.4-0.1l13,15.1L290.8,103.6z"/>
			<path class="st37" d="M290.4,103.7l-13-15.1l0.4-0.1l13,15.1L290.4,103.7z"/>
			<path class="st38" d="M290,103.7l-13-15.1l0.4-0.1l13,15.1L290,103.7z"/>
			<path class="st39" d="M289.7,103.9l-13-15.1l0.4-0.1l13,15.1L289.7,103.9z"/>
			<path class="st40" d="M289.2,103.9l-13-15.1l0.4-0.1l13,15.1L289.2,103.9z"/>
			<path class="st41" d="M288.9,104l-13-15l0,0l0.4-0.1l13,15.1H288.9z"/>
			<path class="st42" d="M288.5,104.1l-12.4-14.4l-0.2-0.7l13,15L288.5,104.1z"/>
			<path class="st43" d="M288.1,104.2l-11.8-13.7l-0.2-0.7l12.4,14.4L288.1,104.2z"/>
			<path class="st44" d="M287.7,104.3l-11.3-13.1l-0.1-0.7l11.8,13.7L287.7,104.3z"/>
			<path class="st45" d="M287.3,104.4L276.6,92l-0.2-0.7l11.3,13.1H287.3z"/>
			<path class="st45" d="M287,104.5l-10.2-11.8l-0.1-0.7l10.7,12.4L287,104.5z"/>
			<path class="st45" d="M286.6,104.6L277,93.4l-0.2-0.7l10.2,11.8L286.6,104.6z"/>
			<path class="st45" d="M286.2,104.6l-9.1-10.5l-0.2-0.7l9.6,11.2H286.2z"/>
			<path class="st45" d="M277.1,94.1l9.1,10.5l-6.3,1.5L277.1,94.1z"/>
			
				<linearGradient id="SVGID_00000148649814025700953760000014023318751219867010_" gradientUnits="userSpaceOnUse" x1="267.1353" y1="622.7613" x2="317.5413" y2="662.1525" gradientTransform="matrix(1 0 0 1 0 -550)">
				<stop  offset="0" style="stop-color:#FFFFFF;stop-opacity:0.3"/>
				<stop  offset="1" style="stop-color:#FFFFFF;stop-opacity:0"/>
			</linearGradient>
			<path style="fill:url(#SVGID_00000148649814025700953760000014023318751219867010_);" d="M303.3,97.4
				c-12.7-0.1-24.4-3.6-33.3-9.8c0.1-2.2,0.7-4.2,1.6-5.9c0.4-0.8,1-1.5,1.6-2.2c0.4-0.4,0.9-0.9,1.4-1.3l0.4-0.3l0,0
				c1.1-0.7,2.3-1.2,3.6-1.5c8.1-1.8,18.3,4.6,22.7,14.3C302.4,93,303.1,95.3,303.3,97.4z"/>
			
				<linearGradient id="SVGID_00000041996569348314030490000011601452203506864779_" gradientUnits="userSpaceOnUse" x1="135.919" y1="604.6242" x2="144.55" y2="609.4823" gradientTransform="matrix(1 0 0 1 0 -550)">
				<stop  offset="0" style="stop-color:#142533"/>
				<stop  offset="1" style="stop-color:#354249"/>
			</linearGradient>
			<path style="fill:url(#SVGID_00000041996569348314030490000011601452203506864779_);" d="M132.1,66.5c-0.1,0-0.2,0-0.3,0
				C131.9,66.5,132,66.5,132.1,66.5s0.2,0,0.3,0.1C132.3,66.5,132.2,66.5,132.1,66.5z M132.9,67.3C132.9,67.2,132.9,67.2,132.9,67.3
				C132.9,67.2,132.9,67.2,132.9,67.3L132.9,67.3L132.9,67.3z M150.4,48.4c0,0.2,0.1,0.3,0.1,0.5C150.5,48.8,150.5,48.6,150.4,48.4z
				 M143.2,51.4c-0.1-0.1-0.2-0.3-0.3-0.4c-0.1-0.1-0.2-0.2-0.3-0.3l-0.1-0.1c0,0,0,0-0.1,0c0,0,0.1,0,0.1,0.1
				c0.1,0.2,0.2,0.4,0.2,0.6c0.2,0.1,0.4,0.2,0.5,0.3l0,0C143.2,51.4,143.2,51.4,143.2,51.4z M134.6,59.3c-0.1-0.1-0.2-0.4-0.2-0.6
				c-0.2-0.1-0.4-0.2-0.5-0.3c0,0,0-0.1-0.1-0.1v0.1c0,0,0,0.1,0.1,0.1c0.1,0.1,0.1,0.3,0.3,0.4C134.3,59,134.4,59.1,134.6,59.3
				C134.6,59.3,134.6,59.3,134.6,59.3L134.6,59.3z"/>
			
				<linearGradient id="SVGID_00000091717676636081047550000006584042775186877092_" gradientUnits="userSpaceOnUse" x1="170.7529" y1="596.9788" x2="117.0038" y2="603.551" gradientTransform="matrix(1 0 0 1 0 -550)">
				<stop  offset="0" style="stop-color:#22313D"/>
				<stop  offset="0.1912" style="stop-color:#293642"/>
				<stop  offset="0.3674" style="stop-color:#676771"/>
				<stop  offset="0.5879" style="stop-color:#39434E"/>
				<stop  offset="0.6915" style="stop-color:#22313D"/>
				<stop  offset="0.9971" style="stop-color:#3D4652"/>
			</linearGradient>
			<path style="fill:url(#SVGID_00000091717676636081047550000006584042775186877092_);" d="M143.7,51.9c-0.1-0.1-0.3-0.3-0.4-0.4
				c0,0,0,0,0,0.1v0.1c0.1,0.1,0.1,0.3,0.1,0.4c0,0.1,0.1,0.3,0.1,0.4c0,0.1,0,0.3,0,0.4s0,0.3,0,0.4c0,0.1,0,0.3,0,0.4l0,0
				c0,0.1,0,0.3-0.1,0.5c0,0.1-0.1,0.3-0.1,0.4l0,0c0,0.1-0.1,0.3-0.2,0.4c-0.1,0.1-0.1,0.3-0.2,0.4c-0.3,0.5-0.6,1-1,1.4
				c-0.1,0.1-0.2,0.2-0.3,0.3c-0.2,0.2-0.3,0.4-0.5,0.5c-0.2,0.2-0.4,0.3-0.6,0.5c-0.1,0.1-0.3,0.2-0.4,0.3c-0.5,0.3-1,0.6-1.5,0.8
				c-0.1,0-0.3,0.1-0.4,0.1c-0.1,0-0.3,0.1-0.5,0.1l0,0c-0.1,0-0.3,0.1-0.5,0.1c-0.1,0-0.3,0-0.5,0l0,0c-0.1,0-0.3,0-0.4,0
				c-0.1,0-0.3,0-0.4,0c-0.1,0-0.3,0-0.4-0.1c-0.1,0-0.3-0.1-0.4-0.1c-0.1,0-0.3-0.1-0.4-0.2c0,0-0.1,0-0.1-0.1h-0.1
				c0.1,0.1,0.2,0.3,0.3,0.5c1.5,1.6,4.6,1.1,7-1C144.4,56.6,145.1,53.5,143.7,51.9z M126.6,61C126.6,61.1,126.6,61.1,126.6,61
				C126.6,61.1,126.6,61.1,126.6,61z M142.5,50.6C142.4,50.6,142.4,50.6,142.5,50.6C142.4,50.6,142.4,50.6,142.5,50.6
				c0,0,0.1,0,0.1,0.1C142.5,50.7,142.5,50.7,142.5,50.6z M133.9,58.5c0,0,0-0.1-0.1-0.1C133.8,58.4,133.8,58.4,133.9,58.5
				L133.9,58.5L133.9,58.5z M123.6,60.2C123.6,60.3,123.6,60.3,123.6,60.2C123.7,60.3,123.7,60.3,123.6,60.2L123.6,60.2z
				 M144.6,41.2L144.6,41.2C144.6,41.2,144.6,41.2,144.6,41.2L144.6,41.2L144.6,41.2z M144.4,40.8L144.4,40.8L144.4,40.8
				C144.5,40.8,144.4,40.8,144.4,40.8z M150.4,48.4c0,0.2,0.1,0.3,0.1,0.5C150.5,48.8,150.4,48.6,150.4,48.4z"/>
			
				<linearGradient id="SVGID_00000067953042574014306170000010889825617476905134_" gradientUnits="userSpaceOnUse" x1="133.2351" y1="592.1388" x2="149.2051" y2="634.6608" gradientTransform="matrix(1 0 0 1 0 -550)">
				<stop  offset="0" style="stop-color:#142533"/>
				<stop  offset="1" style="stop-color:#354249"/>
			</linearGradient>
			<path style="fill:url(#SVGID_00000067953042574014306170000010889825617476905134_);" d="M134.4,58.7c-0.2-0.1-0.4-0.2-0.5-0.3
				c0,0,0-0.1-0.1-0.1v0.1c-0.1-0.1-0.3-0.2-0.4-0.4c-1.5-1.6-0.7-4.7,1.7-6.9s5.5-2.7,7-1c0.1,0.1,0.3,0.3,0.3,0.5c0,0,0,0-0.1,0
				c0,0,0.1,0,0.1,0.1c0.1,0.2,0.2,0.4,0.2,0.6c-1.6-0.7-4.1-0.1-6,1.7C134.7,54.7,133.9,57.1,134.4,58.7z"/>
			<path class="st50" d="M132.1,66.5H132H132.1c0.1,0,0.2,0,0.3,0.1C132.3,66.5,132.2,66.5,132.1,66.5z M132.9,67.3
				C132.9,67.2,132.9,67.2,132.9,67.3C132.9,67.2,132.9,67.2,132.9,67.3L132.9,67.3L132.9,67.3z M123.5,60.1
				C123.5,60.1,123.5,60.2,123.5,60.1l0.2,0.2L123.5,60.1z"/>
			
				<linearGradient id="SVGID_00000166644212295941311800000000506594305847170442_" gradientUnits="userSpaceOnUse" x1="150.5652" y1="597.8891" x2="163.1552" y2="601.8113" gradientTransform="matrix(1 0 0 1 0 -550)">
				<stop  offset="0" style="stop-color:#142533"/>
				<stop  offset="1" style="stop-color:#354249"/>
			</linearGradient>
			<path style="fill:url(#SVGID_00000166644212295941311800000000506594305847170442_);" d="M150.5,48.9c0-0.1,0-0.2-0.1-0.3
				C150.5,48.8,150.5,48.8,150.5,48.9c-0.4,0.1-0.7-0.2-0.7-0.5c-0.1-0.5-0.2-1-0.4-1.5c0-0.1,0-0.3,0-0.5l1.6,1.7
				c-0.1,0.1-0.1,0.3,0,0.5c0,0.1,0,0.1,0,0.2L150.5,48.9z"/>
			
				<linearGradient id="SVGID_00000061450477968376026040000008118445700749416090_" gradientUnits="userSpaceOnUse" x1="147.7096" y1="586.7009" x2="163.6796" y2="629.2229" gradientTransform="matrix(1 0 0 1 0 -550)">
				<stop  offset="0" style="stop-color:#142533"/>
				<stop  offset="1" style="stop-color:#354249"/>
			</linearGradient>
			<path style="fill:url(#SVGID_00000061450477968376026040000008118445700749416090_);" d="M151,48.1l-1.6-1.7
				c0-0.1,0.1-0.1,0.1-0.2l1.9-1.7c0.3-0.2,0.3-0.6,0-0.8l1.5,1.7c0.2,0.3,0.2,0.6,0,0.8l-1.9,1.7C151.1,48,151,48.1,151,48.1z"/>
			
				<linearGradient id="SVGID_00000149377635696103297260000004010233758621496973_" gradientUnits="userSpaceOnUse" x1="132.6082" y1="592.3727" x2="148.5782" y2="634.8948" gradientTransform="matrix(1 0 0 1 0 -550)">
				<stop  offset="0" style="stop-color:#142533"/>
				<stop  offset="1" style="stop-color:#354249"/>
			</linearGradient>
			<path style="fill:url(#SVGID_00000149377635696103297260000004010233758621496973_);" d="M143.4,65.1c-0.2-0.2-0.5-0.3-0.8-0.1
				c-0.7,0.5-1.5,0.9-2.3,1.2l-0.1,0.1l-1.5-1.7l0.1-0.1c0.7-0.3,1.5-0.7,2.3-1.2c0.3-0.1,0.6-0.1,0.8,0.1L143.4,65.1z"/>
			
				<linearGradient id="SVGID_00000161606630199379012770000013858097462793524655_" gradientUnits="userSpaceOnUse" x1="121.7504" y1="596.4501" x2="137.7204" y2="638.9722" gradientTransform="matrix(1 0 0 1 0 -550)">
				<stop  offset="0" style="stop-color:#142533"/>
				<stop  offset="1" style="stop-color:#354249"/>
			</linearGradient>
			<path style="fill:url(#SVGID_00000161606630199379012770000013858097462793524655_);" d="M131.9,67.1c-0.1,0-0.2-0.1-0.3-0.1
				c-0.2-0.1-0.4,0-0.6,0.1l-2.1,1.9c-0.3,0.2-0.6,0.2-0.8,0l-1.5-1.7c0.2,0.3,0.6,0.3,0.8,0l2.1-1.9c0.2-0.1,0.4-0.2,0.6-0.1
				c0.5,0.2,1,0.3,1.5,0.4c0.4,0,0.6,0.4,0.5,0.7v0.1H132h0.1L131.9,67.1z"/>
			
				<linearGradient id="SVGID_00000114753873799351180420000017226867274279509648_" gradientUnits="userSpaceOnUse" x1="143.103" y1="588.4305" x2="159.073" y2="630.9525" gradientTransform="matrix(1 0 0 1 0 -550)">
				<stop  offset="0" style="stop-color:#142533"/>
				<stop  offset="1" style="stop-color:#354249"/>
			</linearGradient>
			<path style="fill:url(#SVGID_00000114753873799351180420000017226867274279509648_);" d="M145.3,42.1c0-0.2,0-0.4-0.1-0.5
				l-0.7-0.8l0,0l-0.7-0.8c0.1,0.1,0.1,0.3,0.1,0.5v0.1v0.1l-0.2,0.9l-0.1,0.3c-0.1,0.3,0.1,0.7,0.5,0.7c0.1,0,0.2,0,0.3,0
				c0.3,0.1,0.6,0.1,0.9,0.3V42.1z"/>
			
				<linearGradient id="SVGID_00000005258559656376250140000007745689263363012498_" gradientUnits="userSpaceOnUse" x1="141.8244" y1="588.9111" x2="157.7944" y2="631.433" gradientTransform="matrix(1 0 0 1 0 -550)">
				<stop  offset="0" style="stop-color:#142533"/>
				<stop  offset="1" style="stop-color:#354249"/>
			</linearGradient>
			<path style="fill:url(#SVGID_00000005258559656376250140000007745689263363012498_);" d="M148.8,60l-1.5-1.7
				c-0.2-0.2-0.2-0.5,0-0.7c0.5-0.7,0.9-1.4,1.3-2.2c0-0.1,0.1-0.1,0.1-0.2l1.7,1.6c-0.1,0-0.3,0.1-0.3,0.3
				c-0.4,0.7-0.8,1.5-1.3,2.2C148.6,59.5,148.6,59.8,148.8,60z"/>
			
				<linearGradient id="SVGID_00000173852261868176044440000008250376993586732218_" gradientUnits="userSpaceOnUse" x1="151.4729" y1="603.9095" x2="150.5389" y2="604.7623" gradientTransform="matrix(1 0 0 1 0 -550)">
				<stop  offset="0" style="stop-color:#142533"/>
				<stop  offset="1" style="stop-color:#354249"/>
			</linearGradient>
			<path style="fill:url(#SVGID_00000173852261868176044440000008250376993586732218_);" d="M152.7,56.4l-2.3,0.3h-0.1l-1.7-1.6
				c0.1-0.1,0.2-0.1,0.3-0.1l2.3-0.3c0.3,0,0.4-0.2,0.5-0.4l0.9-3.7l0.1-0.5l0.1-0.6v-0.1c0-0.2,0-0.3-0.1-0.4l0.6,0.7l0.1,0.1
				l0.6,0.7c0.2,0.1,0.3,0.4,0.2,0.6l-1.2,4.8C153.2,56.2,153,56.4,152.7,56.4z"/>
			
				<linearGradient id="SVGID_00000027587847606700891200000008062639120351830416_" gradientUnits="userSpaceOnUse" x1="144.2735" y1="611.5847" x2="148.56" y2="613.9977" gradientTransform="matrix(1 0 0 1 0 -550)">
				<stop  offset="0" style="stop-color:#142533"/>
				<stop  offset="1" style="stop-color:#354249"/>
			</linearGradient>
			<path style="fill:url(#SVGID_00000027587847606700891200000008062639120351830416_);" d="M149.7,61.9l-4.6,4.2
				c-0.1,0.1-0.1,0.1-0.2,0.1c-0.2,0.1-0.4,0-0.6-0.2l-1.5-1.7c0.1,0.1,0.4,0.2,0.6,0.2c0.1,0,0.2-0.1,0.3-0.1l4.6-4.2
				c0.3-0.2,0.3-0.6,0-0.8l1.5,1.7C150,61.4,149.9,61.7,149.7,61.9z"/>
			
				<linearGradient id="SVGID_00000092416700484306995440000014190750890948861368_" gradientUnits="userSpaceOnUse" x1="156.6878" y1="596.8691" x2="102.5448" y2="618.4521" gradientTransform="matrix(1 0 0 1 0 -550)">
				<stop  offset="0" style="stop-color:#475B80"/>
				<stop  offset="0.6559" style="stop-color:#2C3D51"/>
				<stop  offset="1" style="stop-color:#21313E"/>
			</linearGradient>
			<path style="fill:url(#SVGID_00000092416700484306995440000014190750890948861368_);" d="M148.2,59.4l-1-1.1
				c-0.2-0.2-0.2-0.5,0-0.7c0.5-0.7,0.9-1.4,1.3-2.2c0.1-0.2,0.3-0.3,0.4-0.3l2.3-0.3c0.3,0,0.4-0.2,0.5-0.4l0.9-3.7l0.1-0.5
				l0.1-0.5v-0.1c0-0.2,0-0.3-0.1-0.4c0-0.1-0.1-0.1-0.1-0.1c-0.1-0.1-0.3-0.1-0.4-0.1l-1.1,0.2l-0.6,0.1l0,0
				c-0.3,0-0.6-0.2-0.7-0.5c-0.1-0.5-0.2-1-0.4-1.5c-0.1-0.2,0-0.5,0.1-0.7l1.9-1.7c0.3-0.2,0.3-0.6,0-0.8l-2.5-2.8
				c-0.2-0.3-0.6-0.3-0.8,0l-2.1,1.9c-0.2,0.1-0.4,0.2-0.6,0.1c-0.1,0-0.2-0.1-0.3-0.1c-0.3-0.1-0.6-0.2-0.9-0.3c-0.1,0-0.2,0-0.3,0
				c-0.3-0.1-0.6-0.4-0.5-0.7l0.1-0.3l0.2-0.9v-0.1v-0.1c0-0.2,0-0.4-0.1-0.5l-0.1-0.1c-0.1-0.1-0.3-0.2-0.5-0.2l-4.9,0.7
				c-0.2,0-0.4,0.2-0.5,0.4l-0.6,2.5c0,0.2-0.2,0.3-0.3,0.4c-0.8,0.3-1.5,0.7-2.3,1.2c-0.3,0.1-0.6,0.1-0.8-0.1l-0.8-0.9
				c-0.2-0.3-0.6-0.3-0.8,0l-4.6,4.2c-0.3,0.2-0.3,0.6,0,0.8l1,1.1c0.2,0.2,0.2,0.5,0,0.8c-0.5,0.7-0.9,1.4-1.3,2.2
				c-0.1,0.2-0.3,0.3-0.4,0.3l-2.3,0.3c-0.2,0-0.4,0.2-0.5,0.4l-1.2,4.8c-0.1,0.3,0,0.5,0.2,0.6c0.1,0.1,0.3,0.1,0.4,0.1h0.1l1-0.1
				l0.5-0.1c0.3,0,0.6,0.2,0.7,0.5c0,0.1,0,0.2,0,0.4c0.1,0.3,0.1,0.6,0.3,0.9c0,0.1,0,0.1,0.1,0.2c0.1,0.3,0,0.5-0.1,0.7L124,64
				c-0.3,0.2-0.3,0.6,0,0.8l2.5,2.8c0.2,0.3,0.6,0.3,0.8,0l2.1-1.9c0.2-0.1,0.4-0.2,0.6-0.1c0.5,0.2,1,0.3,1.5,0.4
				c0.4,0,0.6,0.4,0.5,0.7v0.1c0.1,0,0.2,0,0.3,0.1c-0.1,0-0.2,0-0.3,0l-0.1,0.6l-0.2,0.7c-0.1,0.3,0,0.5,0.2,0.6
				c0.1,0.1,0.3,0.1,0.4,0.1h0.1l1-0.1l3.8-0.6c0.3,0,0.4-0.2,0.5-0.4l0.6-2.5c0-0.1,0.1-0.2,0.2-0.3l0.1-0.1
				c0.8-0.3,1.5-0.7,2.3-1.2c0.3-0.1,0.6-0.1,0.8,0.1l0.8,1c0.1,0.1,0.4,0.2,0.6,0.2c0.1,0,0.2-0.1,0.3-0.1l4.6-4.2
				C148.4,60,148.4,59.6,148.2,59.4z M140.6,58.4c-0.1,0.1-0.3,0.2-0.4,0.3c-0.5,0.3-1,0.6-1.5,0.8c-0.1,0-0.3,0.1-0.4,0.1
				c-0.1,0-0.3,0.1-0.5,0.1l0,0c-0.1,0-0.3,0.1-0.5,0.1c-0.1,0-0.3,0-0.5,0l0,0c-0.1,0-0.3,0-0.4,0c-0.1,0-0.3,0-0.4,0
				c-0.1,0-0.3,0-0.4-0.1c-0.1,0-0.3-0.1-0.4-0.1c-0.1,0-0.3-0.1-0.4-0.2c0,0-0.1,0-0.1-0.1c0,0,0,0-0.1-0.1l0,0l0,0
				c-0.1-0.1-0.2-0.2-0.3-0.3s-0.2-0.2-0.3-0.3c0,0,0-0.1-0.1-0.1c-0.1-0.1-0.3-0.3-0.4-0.4c-1.5-1.6-0.7-4.7,1.7-6.8
				c2.4-2.2,5.5-2.7,7-1c0.1,0.1,0.3,0.3,0.3,0.5c0,0,0.1,0,0.1,0.1c0.1,0.1,0.2,0.2,0.3,0.3s0.2,0.2,0.3,0.4l0,0l0,0
				c0,0,0,0.1,0.1,0.1v0.1c0.1,0.1,0.1,0.3,0.1,0.4c0,0.1,0.1,0.3,0.1,0.4c0,0.1,0,0.3,0,0.4c0,0.1,0,0.3,0,0.4c0,0.1,0,0.3,0,0.4
				l0,0c0,0.1,0,0.3-0.1,0.5c0,0.1-0.1,0.3-0.1,0.4l0,0c0,0.1-0.1,0.3-0.2,0.5c-0.1,0.1-0.1,0.3-0.2,0.4c-0.3,0.5-0.6,1-1,1.4
				c-0.1,0.1-0.2,0.2-0.3,0.3c-0.2,0.2-0.3,0.4-0.5,0.5C141,58,140.8,58.2,140.6,58.4z M126.6,61.1C126.6,61,126.6,61.1,126.6,61.1
				L126.6,61.1z M132.9,67.3L132.9,67.3C132.9,67.2,132.9,67.2,132.9,67.3L132.9,67.3L132.9,67.3z"/>
			
				<linearGradient id="SVGID_00000141416393783654967280000017348576893736112831_" gradientUnits="userSpaceOnUse" x1="136.7731" y1="617.8216" x2="137.8661" y2="616.6896" gradientTransform="matrix(1 0 0 1 0 -550)">
				<stop  offset="0" style="stop-color:#142533"/>
				<stop  offset="1" style="stop-color:#354249"/>
			</linearGradient>
			<path style="fill:url(#SVGID_00000141416393783654967280000017348576893736112831_);" d="M138.9,69.6l-3.8,0.6l-1.1,0.1
				c-0.3,0-0.5-0.1-0.6-0.3l-0.6-0.7l-0.1-0.1l-0.6-0.7c0.1,0.1,0.3,0.1,0.4,0.1h0.1l1-0.1l3.8-0.6c0.3,0,0.4-0.2,0.5-0.4l0.6-2.5
				c0-0.1,0.1-0.2,0.2-0.3l1.5,1.7c-0.1,0.1-0.2,0.2-0.2,0.3l-0.6,2.5C139.4,69.3,139.2,69.5,138.9,69.6z"/>
			
				<linearGradient id="SVGID_00000039123839875561598950000013287332365635975834_" gradientUnits="userSpaceOnUse" x1="119.6678" y1="597.2325" x2="135.6378" y2="639.7545" gradientTransform="matrix(1 0 0 1 0 -550)">
				<stop  offset="0" style="stop-color:#142533"/>
				<stop  offset="1" style="stop-color:#354249"/>
			</linearGradient>
			<path style="fill:url(#SVGID_00000039123839875561598950000013287332365635975834_);" d="M126,61.1l-1.1,0.2
				c-0.2,0-0.3,0-0.4-0.1l-1.5-1.7c0.1,0.1,0.3,0.1,0.4,0.1h0.1l1-0.1l0.5-0.1c0.3,0,0.6,0.2,0.7,0.5c0,0.1,0,0.2,0,0.3
				C125.9,60.5,125.9,60.8,126,61.1z"/>
			
				<linearGradient id="SVGID_00000099660864533542893300000004075128214034141850_" gradientUnits="userSpaceOnUse" x1="240.6057" y1="564.7228" x2="283.5167" y2="618.4029" gradientTransform="matrix(1 0 0 1 0 -550)">
				<stop  offset="0" style="stop-color:#FFFFFF;stop-opacity:0.1"/>
				<stop  offset="1" style="stop-color:#FFFFFF;stop-opacity:0"/>
			</linearGradient>
			<path style="fill:url(#SVGID_00000099660864533542893300000004075128214034141850_);" d="M278.9,14.6l-27.4,51.9l-3.9,7.4
				l-19.8-38.5l6.9-13L242,8.5c0.7-1.4,2.3-2.2,3.9-2c0,0,30.8,5,32.5,5.3c0,0,0.1,0,0.1,0.1c0.1,0.1,0.3,0.2,0.4,0.3
				c0,0.1,0.1,0.1,0.1,0.2c0,0,0,0.1,0.1,0.1c0,0.1,0,0.1,0.1,0.2c0,0.1,0,0.1,0.1,0.2l0,0c0,0.1,0,0.1,0,0.2
				C279.3,13.7,279.2,14.2,278.9,14.6z"/>
			
				<linearGradient id="SVGID_00000165942808030401241950000002199923256089944491_" gradientUnits="userSpaceOnUse" x1="46.8" y1="771.1223" x2="64.7491" y2="771.1223" gradientTransform="matrix(1 0 0 1 0 -550)">
				<stop  offset="0" style="stop-color:#687B99"/>
				<stop  offset="0.1381" style="stop-color:#5F738F"/>
				<stop  offset="0.6786" style="stop-color:#41576B"/>
				<stop  offset="0.9671" style="stop-color:#364C5D"/>
			</linearGradient>
			<path style="fill:url(#SVGID_00000165942808030401241950000002199923256089944491_);" d="M64.7,224.7c0,0.1,0,0.2,0,0.3
				c0,0.3-0.2,0.6-0.5,0.7l-0.1,0.1l-7.7,4.6c-0.5,0.3-1.1,0.1-1.4-0.3l-7.7-12.5l-0.4-0.7c-0.1-0.1-0.1-0.2-0.1-0.3
				c0-0.2,0.1-0.4,0.3-0.6l8.1-4.2c0.4-0.2,0.9-0.1,1.2,0.3l8.1,11.9C64.6,224.2,64.7,224.4,64.7,224.7
				C64.7,224.6,64.7,224.7,64.7,224.7z"/>
			
				<linearGradient id="SVGID_00000037664882047810803300000007701539507246867600_" gradientUnits="userSpaceOnUse" x1="60.2452" y1="752.2862" x2="51.6649" y2="787.9052" gradientTransform="matrix(1 0 0 1 0 -550)">
				<stop  offset="0" style="stop-color:#475B80"/>
				<stop  offset="0.6559" style="stop-color:#2C3D51"/>
				<stop  offset="1" style="stop-color:#21313E"/>
			</linearGradient>
			<path style="fill:url(#SVGID_00000037664882047810803300000007701539507246867600_);" d="M64.7,224.9l-0.1,1.8
				c-0.1,0.3-0.3,0.5-0.6,0.7l-7.7,4.7c-0.8,0.6-1.9,0.2-2.4-0.6l-7.6-12.3c-0.2-0.3-0.2-0.7-0.1-1.1l0.5-1.5l0,0
				c0,0.1,0,0.2,0.1,0.3l0.4,0.7v0.1l7.7,12.4c0.3,0.4,0.9,0.6,1.4,0.3l7.7-4.7l0.1-0.1C64.5,225.5,64.7,225.2,64.7,224.9z"/>
			
				<linearGradient id="SVGID_00000115480207277521052520000005947977655685356207_" gradientUnits="userSpaceOnUse" x1="46.7974" y1="767.1" x2="47.3245" y2="767.1" gradientTransform="matrix(1 0 0 1 0 -550)">
				<stop  offset="0" style="stop-color:#142533"/>
				<stop  offset="5.182770e-02" style="stop-color:#162734"/>
				<stop  offset="0.4477" style="stop-color:#1F2F3B"/>
				<stop  offset="1" style="stop-color:#22313D"/>
			</linearGradient>
			<path style="fill:url(#SVGID_00000115480207277521052520000005947977655685356207_);" d="M46.8,216.6l0.5,1l-0.4-0.7
				C46.8,216.8,46.8,216.7,46.8,216.6z"/>
			
				<linearGradient id="SVGID_00000147910256519145996740000011025699965612023982_" gradientUnits="userSpaceOnUse" x1="58.6415" y1="781.7598" x2="58.9468" y2="781.5767" gradientTransform="matrix(1 0 0 1 0 -550)">
				<stop  offset="0" style="stop-color:#899BB6"/>
				<stop  offset="0.3179" style="stop-color:#C6D1DF"/>
				<stop  offset="1" style="stop-color:#8E9FB9"/>
			</linearGradient>
			<path style="fill:url(#SVGID_00000147910256519145996740000011025699965612023982_);" d="M64.7,229.7c0,0.1,0,0.2-0.1,0.3
				l-4.8,3.1c-0.1,0-0.1,0-0.2,0c-0.1,0-0.2-0.1-0.3-0.1l-1.4-2.3c-0.1-0.1,0-0.3,0.1-0.4l4.7-3c0.1-0.1,0.3-0.1,0.4,0.1L64.7,229.7
				C64.7,229.6,64.7,229.7,64.7,229.7z"/>
			
				<linearGradient id="SVGID_00000039827231895752177450000017033221351600754096_" gradientUnits="userSpaceOnUse" x1="61.7366" y1="777.2709" x2="62.2039" y2="782.6489" gradientTransform="matrix(1 0 0 1 0 -550)">
				<stop  offset="0" style="stop-color:#8598B6"/>
				<stop  offset="0.3943" style="stop-color:#66799B"/>
				<stop  offset="0.7649" style="stop-color:#4F6387"/>
				<stop  offset="1" style="stop-color:#475B80"/>
			</linearGradient>
			<path style="fill:url(#SVGID_00000039827231895752177450000017033221351600754096_);" d="M64.7,229.7c0,0.1,0,0.2-0.1,0.3
				l-4.8,3.1c-0.1,0-0.1,0-0.2,0c-0.1-0.1-0.3-0.2,0.2-0.6c0.6-0.4,4.5-2.9,4.5-2.9S64.6,229.5,64.7,229.7z"/>
		</g>
	</g>
</g>
<linearGradient id="SVGID_00000054963565118481230440000013155213550173863593_" gradientUnits="userSpaceOnUse" x1="130.0747" y1="73.6275" x2="122.5247" y2="94.3709" gradientTransform="matrix(1 0 0 -1 0 250)">
	<stop  offset="1.154727e-02" style="stop-color:#8099A8;stop-opacity:0.5"/>
	<stop  offset="0.7872" style="stop-color:#A3B7C4;stop-opacity:0.4"/>
</linearGradient>
<path style="fill:url(#SVGID_00000054963565118481230440000013155213550173863593_);" d="M146.3,164.8l0.4,1.2l6.8-4.5l-1.7-5.3
	l-1,0.7l1.3,4.2L146.3,164.8z M140.8,147.2l0.4,1.2l5.8-3.8l1.3,4.2l1-0.7l-1.7-5.3L140.8,147.2z M140.1,158.6l-0.9-2.8l1.6-1
	c0.8-0.5,1.1-0.4,1.4,0.4l0.2,0.5c0.3,0.8,0.1,1.3-0.7,1.8L140.1,158.6z M142.7,157.5c0.6-0.7,0.9-1.8,0.6-2.7c-0.2-0.6-0.5-1-1-1.2
	c-0.6-0.2-1.3-0.1-2.2,0.4l-2.2,1.4l2.5,8.1l1-0.6l-1-3.2l1.5-1c0.8-0.5,1.2-0.3,1.5,0.6l0.6,1.9l1-0.7l-0.5-1.8
	c-0.4-1.3-0.8-1.6-1.6-1.2H142.7z M134.6,163.2l3-2l-0.3-1.1l-3,2l-0.8-2.4l3.3-2.2l-0.3-1.1l-4.3,2.8l2.5,8.1l4.4-2.9l-0.3-1.1
	l-3.5,2.3L134.6,163.2z M131.5,165.7l0.2,0.6c0.4,1.2,0.1,1.8-0.8,2.4l-0.2,0.1c-0.9,0.6-1.5,0.5-2-1.1l-0.7-2.2
	c-0.5-1.6-0.1-2.3,0.8-2.9l0.2-0.1c0.9-0.6,1.3-0.4,1.6,0.7l1.1-0.7c-0.6-1.5-1.8-2-3.2-1.1c-0.7,0.4-1.1,1-1.4,1.8
	c-0.4,1.1-0.4,2.5,0.1,4.1s1.1,2.5,2,2.9c0.6,0.2,1.2,0.1,1.8-0.3c0.6-0.4,1-1,1.1-1.8l0.1-0.1l0.2,0.8l0.9-0.6L132,164l-2.6,1.7
	l0.3,1.1L131.5,165.7z M121.6,167.5l1.1-0.7c1-0.7,1.6-0.7,2.2,0.9l0.7,2.1c0.5,1.6,0.1,2.3-1,2.9l-1.1,0.7L121.6,167.5z M125,173.8
	c1.9-1.2,2-3.4,1.3-5.7c-0.7-2.4-2-3.6-3.8-2.4l-2.1,1.4l2.5,8.1L125,173.8L125,173.8z M117,174.7l3-2l-0.3-1.1l-3,2l-0.8-2.4
	l3.3-2.2l-0.3-1.1l-4.3,2.8l2.5,8.1l4.4-2.9l-0.3-1.1l-3.5,2.3L117,174.7z M109.8,173.9l-1,0.7l2.5,8.1l4.5-2.9l-0.3-1.1L112,181
	L109.8,173.9z M104.5,187.2l1.7,5.3l6.8-4.5l-0.4-1.2l-5.8,3.8l-1.3-4.2L104.5,187.2z M100.3,173.7l1.7,5.3l1-0.7l-1.3-4.2l5.8-3.8
	l-0.4-1.2L100.3,173.7z"/>
</svg>
