<svg width="456" height="277" viewBox="0 0 456 277" fill="none" xmlns="http://www.w3.org/2000/svg">
    <path d="M221.2 131.722V246.03C221.2 248.148 199.64 249.854 173.064 249.854C146.488 249.854 124.927 248.148 124.927 246.03V131.722H221.2Z" fill="url(#paint0_linear)"/>
    <path d="M221.2 131.722C221.2 132.342 219.494 132.859 216.444 133.376C208.688 134.668 192.142 135.546 173.012 135.546C146.436 135.546 124.875 133.841 124.875 131.722C124.875 131.412 125.392 131.05 126.374 130.792C131.7 129.138 150.572 127.898 173.012 127.898C193.952 127.898 211.738 128.983 218.357 130.43C220.218 130.844 221.2 131.257 221.2 131.722Z" fill="url(#paint1_linear)"/>
    <path d="M221.201 148C221.201 148.62 219.494 149.137 216.444 149.654C215.358 149.809 214.169 150.016 212.773 150.171C204.087 151.204 189.558 151.824 173.064 151.824C156.57 151.824 141.99 151.152 133.303 150.171C127.978 149.551 125.186 148.827 125.186 148" stroke="url(#paint2_linear)" stroke-width="2" stroke-miterlimit="10"/>
    <path d="M221.201 148.517C221.201 149.137 219.494 149.654 216.444 150.17C215.358 150.326 214.169 150.532 212.773 150.687C204.087 151.721 189.558 152.341 173.064 152.341C156.57 152.341 141.99 151.669 133.303 150.687C127.978 150.067 125.186 149.344 125.186 148.517" stroke="url(#paint3_linear)" stroke-miterlimit="10"/>
    <path opacity="0.2" d="M87.2348 219.726C87.1314 219.726 87.0797 219.726 86.9763 219.675L31.9628 204.947L17.3821 206.601C17.0719 206.859 16.71 207.169 16.2446 207.427C13.4526 209.133 7.66169 210.941 0.629883 212.182L10.7639 214.869C11.5395 214.765 12.4185 214.61 13.2975 214.455C18.2094 213.629 24.3105 212.337 27.0508 211.458L58.1252 219.778C52.5411 220.605 46.8019 221.948 41.2696 224.17C24.2071 230.837 36.9781 235.901 36.9781 235.901C36.9781 235.901 70.4826 244.841 87.9587 247.011C102.694 248.872 145.144 230.888 145.144 230.888C145.144 230.888 102.384 221.742 87.2348 219.726Z" fill="url(#paint4_linear)"/>
    <path d="M326.781 118.028V229.545C326.781 231.664 305.221 233.369 278.645 233.369C252.069 233.369 230.508 231.664 230.508 229.545V118.028C230.508 120.147 252.069 121.852 278.645 121.852C305.221 121.904 326.781 120.147 326.781 118.028Z" fill="url(#paint5_linear)"/>
    <path opacity="0.5" d="M209.67 274.71L128.753 264.788C143.437 263.548 153.002 261.532 153.002 259.259V249.905L224.199 256.313L209.67 274.71Z" fill="black"/>
    <path d="M326.781 118.028C326.781 120.147 305.221 121.852 278.645 121.852C252.069 121.852 230.508 120.147 230.508 118.028C230.508 117.511 231.852 116.995 234.231 116.529C239.815 115.444 251.241 114.669 265.253 114.307C269.493 114.204 273.991 114.152 278.645 114.152C305.221 114.204 326.781 115.909 326.781 118.028Z" fill="url(#paint6_linear)"/>
    <path d="M326.781 173.683C326.781 175.802 305.221 177.507 278.645 177.507C252.069 177.507 230.508 175.802 230.508 173.683" stroke="#2E4378" stroke-width="2" stroke-miterlimit="10"/>
    <path d="M153.003 174.872V264.013C153.003 265.098 150.779 266.183 146.85 267.062C142.61 268.043 136.354 268.922 128.753 269.542C119.653 270.317 108.589 270.731 96.6449 270.731C76.2217 270.731 58.3319 269.439 48.4564 267.475C46.9052 267.165 45.5092 266.855 44.3717 266.493C41.7348 265.718 40.2354 264.839 40.2354 263.961V174.872H153.003Z" fill="url(#paint7_linear)"/>
    <path d="M153.003 174.872C153.003 178.593 127.771 181.59 96.5932 181.59C70.8443 181.59 49.1285 179.523 42.3552 176.732C41.2694 176.267 40.5972 175.802 40.3387 175.337C40.2353 175.182 40.1836 175.027 40.1836 174.872C40.1836 173.373 44.32 171.978 51.3001 170.841C59.9347 169.446 72.9642 168.464 87.9068 168.206C90.6988 168.154 93.5943 168.102 96.5415 168.102C127.771 168.102 153.003 171.151 153.003 174.872Z" fill="url(#paint8_linear)"/>
    <path d="M153.003 218.28C153.003 222 127.771 224.997 96.5933 224.997C70.8445 224.997 49.1286 222.93 42.3553 220.14C41.2696 219.675 40.5974 219.21 40.3389 218.745" stroke="url(#paint9_linear)" stroke-width="2" stroke-miterlimit="10"/>
    <path opacity="0.2" d="M325.954 251.249L329.574 253.109C325.644 252.334 323.162 251.404 322.594 250.422L322.645 249.389L322.438 195.594L325.954 251.249Z" fill="black"/>
    <path opacity="0.39" d="M221.201 131.722V217.401H216.289V134.616C216.289 134.203 216.341 133.789 216.444 133.376C219.495 132.859 221.201 132.291 221.201 131.722Z" fill="black"/>
    <path opacity="0.2" d="M221.201 131.722C221.201 132.342 219.495 132.859 216.444 133.376C216.703 132.187 217.427 131.154 218.409 130.43C220.219 130.844 221.201 131.257 221.201 131.722Z" fill="black"/>
    <path opacity="0.2" d="M153.003 250.164V264.013C153.003 265.098 150.779 266.183 146.85 267.062L145.35 267.113C145.299 267.113 142.92 248.768 153.003 250.164Z" fill="black"/>
    <path opacity="0.3" d="M283.917 117.563L281.487 117.718L234.178 116.581C239.762 115.496 251.189 114.721 265.2 114.359L283.142 114.669L283.917 117.563Z" fill="black"/>
    <path d="M292.294 83.7668C292.242 85.6272 292.139 87.7976 291.932 90.0196L282.005 90.5881C283.556 90.3814 285.004 90.0196 286.348 89.3995C288.83 88.3143 290.898 86.5057 292.294 83.7668Z" fill="#323235"/>
    <path d="M273.73 98.5459C273.782 98.7526 273.782 98.9593 273.834 99.2177L284.588 98.5459H273.73Z" fill="black"/>
    <path d="M287.589 104.23C286.193 105.884 284.383 106.866 282.005 106.866C278.23 106.866 275.955 105.264 274.559 102.473C274.042 101.492 273.68 100.406 273.318 99.1661L273.835 99.1144L284.59 98.4426C285.21 100.975 286.141 102.938 287.589 104.23Z" fill="#C8C9D2"/>
    <path d="M302.738 69.659C302.324 64.5948 301.394 59.8923 299.791 55.8615C297.205 49.2987 292.966 44.6479 286.451 43.2009C285.055 42.8909 283.607 42.7358 282.004 42.7358C269.13 42.7358 261.581 53.6395 261.581 67.5403C261.581 80.666 268.303 90.7429 279.729 90.7429C280.505 90.7429 281.229 90.6912 281.953 90.5878C283.504 90.3811 284.951 90.0194 286.296 89.3993C288.778 88.3141 290.846 86.4538 292.242 83.7666C292.19 85.6269 292.087 87.7973 291.88 90.0194C291.415 95.2903 290.277 100.975 287.537 104.23C286.141 105.884 284.331 106.866 281.953 106.866C278.178 106.866 275.903 105.264 274.507 102.473C273.99 101.491 273.628 100.406 273.266 99.166H262.408C263.132 104.695 265.511 110.638 270.319 114.204C270.423 114.255 270.474 114.359 270.578 114.41C273.111 116.219 276.317 117.408 280.298 117.614H280.35C280.712 117.614 281.074 117.666 281.436 117.666C282.263 117.666 283.09 117.614 283.866 117.511C285.365 117.356 286.761 116.994 288.054 116.478C289.14 116.064 290.122 115.547 291.001 114.927C291.156 114.824 291.259 114.721 291.415 114.617C291.57 114.514 291.725 114.41 291.828 114.307C291.828 114.307 291.828 114.307 291.88 114.255C292.035 114.152 292.138 114.049 292.294 113.945C292.449 113.842 292.552 113.739 292.655 113.635C292.655 113.635 292.655 113.635 292.707 113.635C292.862 113.532 292.966 113.377 293.121 113.274C293.276 113.119 293.431 112.964 293.586 112.809C293.69 112.705 293.793 112.602 293.896 112.498C293.896 112.498 293.896 112.498 293.948 112.447C294 112.395 294.103 112.292 294.155 112.24C294.258 112.137 294.362 112.033 294.465 111.93C294.517 111.827 294.62 111.775 294.672 111.672C294.827 111.517 294.93 111.362 295.086 111.207C295.189 111.052 295.292 110.948 295.396 110.793C295.499 110.638 295.603 110.483 295.758 110.328C295.861 110.173 295.965 110.018 296.068 109.863C296.171 109.708 296.275 109.553 296.378 109.398C296.585 109.088 296.792 108.726 296.999 108.364C297.102 108.209 297.205 108.003 297.309 107.848C297.412 107.693 297.516 107.486 297.567 107.331C297.671 107.176 297.723 106.969 297.826 106.814C297.929 106.607 298.033 106.401 298.084 106.246C298.188 106.039 298.24 105.884 298.343 105.677C298.446 105.471 298.498 105.315 298.602 105.109C298.705 104.902 298.757 104.747 298.86 104.54C298.963 104.334 299.015 104.127 299.067 103.972C299.119 103.817 299.17 103.662 299.222 103.507C299.274 103.403 299.274 103.3 299.325 103.197C299.377 103.042 299.429 102.887 299.48 102.732C301.342 97.4091 302.273 91.0529 302.686 84.5934C302.841 81.9063 302.945 79.1674 302.945 76.4286C302.996 74.0515 302.893 71.8294 302.738 69.659ZM288.364 77.7205C286.813 79.2191 284.693 79.9426 282.056 79.9426C277.816 79.9426 274.714 77.3071 273.37 72.7596C272.853 71.0543 272.594 69.0906 272.594 66.8685C272.594 64.6465 272.853 62.5278 273.421 60.7191C274.714 56.43 277.558 53.5878 282.056 53.5878C284.279 53.5878 285.986 54.2596 287.33 55.3448C290.846 58.187 291.621 63.8197 291.621 67.2303C291.57 72.1912 290.536 75.7051 288.364 77.7205Z" fill="#797A91"/>
    <path d="M288.364 77.7206C286.813 79.2192 284.693 79.9427 282.056 79.9427C277.816 79.9427 274.714 77.3072 273.369 72.7597C272.852 71.0544 272.594 69.0907 272.594 66.8686C272.594 64.6466 272.852 62.5278 273.421 60.7192C274.714 56.4301 277.557 53.5879 282.056 53.5879C284.279 53.5879 285.985 54.2597 287.33 55.3449C285.003 57.722 283.865 61.6494 283.865 66.1968C283.814 71.6228 285.52 75.6536 288.364 77.7206Z" fill="#C8C9D2"/>
    <path d="M284.589 98.5459L273.783 99.166L273.318 99.2177H262.408L273.731 98.5459H284.589Z" fill="#E8E9EC"/>
    <path d="M314.269 75.6536C314.269 95.4455 310.546 116.684 293.173 116.994L283.918 117.563C285.417 117.408 286.813 117.046 288.106 116.529C293.69 114.307 297.309 109.243 299.584 102.68C301.446 97.3575 302.376 91.0014 302.79 84.5419C302.945 81.8547 303.049 79.1159 303.049 76.3771C303.049 74.1033 302.945 71.8296 302.79 69.6592C302.376 64.595 301.446 59.8924 299.843 55.8617C297.258 49.2989 293.018 44.648 286.503 43.2011C285.107 42.891 283.659 42.736 282.057 42.736L293.328 42.3743C308.788 42.3743 314.269 57.3086 314.269 75.6536Z" fill="url(#paint10_linear)"/>
    <path d="M257.135 167.534L255.842 167.379L252.533 167.017C253.619 167.017 254.653 167.12 255.635 167.275C256.153 167.327 256.67 167.43 257.135 167.534Z" fill="#2E4378"/>
    <path d="M171.461 83.6636H164.171V95.084H171.461V83.6636Z" fill="black"/>
    <path opacity="0.3" d="M174.356 132.394L126.374 130.74C131.7 129.087 150.572 127.846 173.011 127.846L174.356 132.394Z" fill="black"/>
    <path opacity="0.3" d="M378.64 195.697L323.472 194.405C324.868 193.578 327.66 192.803 331.538 192.131C334.174 192.235 337.173 192.286 340.327 192.286C350.772 192.286 359.251 191.615 359.251 190.839C359.251 190.478 357.597 190.168 354.856 189.909C361.319 189.599 368.455 189.393 375.952 189.393L378.64 195.697Z" fill="black"/>
    <path d="M184.542 88.9847V88.6747C188.524 86.7627 193.487 82.2152 193.487 72.8618C193.487 63.0434 187.541 53.7934 174.408 52.3464C174.046 52.2948 173.684 52.2948 173.323 52.2431C172.961 52.1914 172.599 52.1914 172.185 52.1914C171.927 52.1914 171.72 52.1914 171.461 52.1914C171.358 52.1914 171.254 52.1914 171.099 52.1914C170.996 52.1914 170.892 52.1914 170.737 52.1914H170.686C170.479 52.1914 170.272 52.1914 170.065 52.1914C169.29 52.1914 168.514 52.2431 167.738 52.2948C167.532 52.2948 167.273 52.3464 167.066 52.3464C166.911 52.3464 166.808 52.3981 166.653 52.3981C166.601 52.3981 166.601 52.3981 166.549 52.3981C166.446 52.3981 166.394 52.3981 166.291 52.4498C166.084 52.5015 165.929 52.5015 165.722 52.5531C165.567 52.5531 165.412 52.6048 165.308 52.6048C165.257 52.6048 165.205 52.6048 165.205 52.6048H165.153C165.102 52.6048 165.102 52.6048 165.05 52.6048C164.998 52.6048 164.998 52.6048 164.946 52.6048C164.533 52.6565 164.119 52.7598 163.706 52.8632C152.279 55.5503 147.729 64.8004 146.902 72.8618H159.569C160.345 69.0895 161.948 65.3688 166.549 64.1286C167.635 63.8185 168.876 63.6635 170.272 63.6635C171.616 63.6635 172.805 63.8185 173.84 64.1286C178.079 65.3171 180.251 68.8311 180.251 73.5336C180.251 80.5615 176.994 83.6104 169.238 83.6104H164.119V95.0825H170.013C178.648 95.0825 182.784 99.5266 182.784 107.743C182.784 113.893 180.148 118.957 174.563 120.455C173.478 120.765 172.288 120.921 170.944 120.921C169.6 120.921 168.359 120.765 167.221 120.507C161.844 119.164 159.104 114.874 158.173 110.069H145.195C145.712 116.58 148.556 123.814 155.174 128.207C157.656 129.86 160.655 131.101 164.223 131.772C165.102 131.928 165.981 132.083 166.911 132.134C167.325 132.186 167.738 132.186 168.204 132.238C168.824 132.289 169.445 132.289 170.117 132.289H170.169C170.272 132.289 170.427 132.289 170.53 132.289C171.823 132.289 173.064 132.238 174.202 132.134H174.253C175.236 132.031 176.166 131.928 177.045 131.772C180.82 131.101 183.974 129.809 186.507 128.103C193.539 123.401 196.228 115.443 196.228 108.002C196.279 96.0644 189.661 90.9484 184.542 88.9847Z" fill="#797A91"/>
    <path d="M174.408 52.3478C160.448 53.8464 155.174 64.13 154.192 72.9149H146.901C147.935 63.4065 154.037 52.1411 170.737 52.1411C172.03 52.1411 173.271 52.1928 174.408 52.3478Z" fill="#797A91"/>
    <path d="M191.884 88.9861V88.6761C195.866 86.764 200.829 82.2166 200.829 72.8632C200.829 62.1663 193.797 52.1411 178.079 52.1411C176.787 52.1411 175.597 52.1928 174.408 52.3478C173.943 52.3995 173.426 52.4512 172.96 52.5545C172.702 52.6062 172.443 52.6579 172.133 52.7095C172.03 52.7095 171.978 52.7612 171.875 52.7612C171.771 52.7612 171.616 52.8129 171.513 52.8129C171.358 52.8646 171.202 52.8646 171.047 52.9163C170.582 53.0196 170.117 53.1746 169.651 53.278C167.583 53.8981 165.722 54.7249 164.119 55.7584C163.809 55.9135 163.55 56.1202 163.292 56.3269C162.309 56.9987 161.482 57.7221 160.655 58.5489C160.448 58.7556 160.189 59.014 159.983 59.2207C159.776 59.4274 159.569 59.6858 159.362 59.9442C158.587 60.926 157.863 61.9079 157.242 62.9931C157.035 63.4065 156.829 63.7682 156.622 64.1816C156.518 64.44 156.363 64.6984 156.26 64.9568C156.26 65.0084 156.26 65.0084 156.208 65.0601C156.105 65.2668 156.053 65.4735 155.95 65.6802C155.898 65.7836 155.846 65.9386 155.795 66.042C155.691 66.2487 155.639 66.4554 155.536 66.7138C155.484 66.8688 155.433 66.9721 155.381 67.1272C154.709 69.0908 154.295 71.0545 154.088 73.0182H166.756C167.531 69.2459 169.134 65.5252 173.736 64.285C174.822 63.9749 176.063 63.8199 177.459 63.8199C184.129 63.8199 187.438 67.799 187.438 73.69C187.438 80.718 184.18 83.7668 176.425 83.7668H171.306V95.0839H177.407C186.042 95.0839 190.178 99.528 190.178 107.745C190.178 115.083 186.455 120.87 178.338 120.87C176.993 120.87 175.752 120.715 174.615 120.457C169.238 119.113 166.497 114.824 165.618 110.018H152.589C153.106 116.478 155.898 123.609 162.309 128.002C164.843 129.758 167.893 131.05 171.616 131.722C172.443 131.877 173.322 131.981 174.253 132.084H174.305C175.442 132.187 176.631 132.239 177.872 132.239C180.251 132.239 182.422 132.032 184.387 131.671C188.006 130.999 191.057 129.81 193.539 128.208C200.829 123.506 203.569 115.444 203.569 107.848C203.621 96.0657 197.003 90.9498 191.884 88.9861Z" fill="url(#paint11_linear)"/>
    <path opacity="0.2" d="M322.542 250.422H322.438V205.981L322.387 205.722C322.387 205.722 319.44 206.084 314.786 207.118C308.065 204.224 297.569 200.555 286.142 196.834C281.954 195.49 277.766 194.147 273.578 192.907C271.406 192.235 269.286 191.615 267.166 190.995C267.011 190.943 266.908 190.891 266.753 190.891C264.529 190.219 262.306 189.599 260.083 188.979C257.808 188.359 255.533 187.739 253.361 187.171C247.57 185.672 242.038 184.328 237.023 183.347C234.748 182.881 232.576 182.52 230.508 182.158C230.198 182.106 229.887 182.055 229.577 182.003C227.716 181.745 226.01 181.486 224.355 181.383H224.303C223.218 181.28 222.183 181.228 221.201 181.176C220.581 181.176 220.012 181.125 219.495 181.125C219.391 181.125 219.34 181.125 219.236 181.125C218.926 181.125 218.668 181.125 218.357 181.125H217.065H216.289H206.31C196.641 181.125 202.949 184.845 216.289 189.909C217.22 190.271 218.202 190.633 219.236 190.995C219.857 191.253 220.529 191.46 221.201 191.718C223.011 192.39 224.924 193.062 226.94 193.733C226.992 193.733 226.992 193.733 227.044 193.785C227.457 193.94 227.871 194.044 228.285 194.199C228.698 194.354 229.06 194.457 229.474 194.612C229.836 194.715 230.146 194.819 230.508 194.974C231.904 195.439 233.352 195.956 234.851 196.421C235.265 196.576 235.73 196.679 236.144 196.834C236.454 196.937 236.764 197.041 237.023 197.144C240.745 198.333 244.52 199.573 248.294 200.71C250.724 201.485 253.206 202.208 255.585 202.932C257.498 203.5 259.411 204.069 261.324 204.585C262.41 204.895 263.495 205.206 264.529 205.464C265.874 205.826 267.218 206.187 268.562 206.549C279.265 209.391 289.141 211.562 296.948 212.544C296.121 212.854 295.242 213.215 294.415 213.577C290.227 215.282 285.935 217.401 281.799 219.933C279.886 221.122 277.973 222.362 276.111 223.706C271.354 227.22 269.028 230.475 268.304 233.421C266.546 240.5 273.836 245.668 277.456 247.787C277.817 247.993 278.179 248.2 278.49 248.355C279.058 248.665 279.42 248.82 279.42 248.82L299.223 250.577L329.522 253.264C325.592 252.334 323.111 251.404 322.542 250.422ZM259.617 196.989C259.514 196.937 259.411 196.937 259.359 196.886C256.929 196.111 254.654 195.335 252.482 194.612C248.398 193.268 244.83 192.028 241.831 190.943C239.143 189.961 236.971 189.134 235.316 188.411C238.16 189.134 241.211 190.013 244.468 190.943C247.105 191.718 249.897 192.545 252.741 193.475C254.964 194.199 257.291 194.922 259.617 195.645C260.858 196.059 262.099 196.472 263.392 196.886C264.012 197.092 264.633 197.299 265.202 197.454C267.58 198.229 269.907 199.004 272.078 199.728C279.11 202.053 284.953 204.12 288.469 205.671C283.402 204.379 277.662 202.725 271.716 200.865C269.441 200.141 267.115 199.418 264.788 198.694C263.082 198.126 261.324 197.557 259.617 196.989Z" fill="url(#paint12_linear)"/>
    <path d="M56.1088 222.93V237.71C56.1088 237.71 47.4742 237.865 40.4424 235.074" stroke="url(#paint13_linear)" stroke-width="2" stroke-miterlimit="10"/>
    <path d="M137.905 223.189V199.676C137.905 199.676 150.004 199.366 152.693 196.369" stroke="#2E4378" stroke-width="2" stroke-miterlimit="10"/>
    <path d="M298.137 176.629V162.159C298.137 162.159 257.394 163.193 230.404 161.591" stroke="url(#paint14_linear)" stroke-width="2" stroke-miterlimit="10"/>
    <path d="M186.146 170.944C186.517 170.944 186.818 170.643 186.818 170.272C186.818 169.901 186.517 169.601 186.146 169.601C185.775 169.601 185.474 169.901 185.474 170.272C185.474 170.643 185.775 170.944 186.146 170.944Z" fill="url(#paint15_linear)"/>
    <path d="M76.2736 92.9135H61.3311V106.814C65.3123 106.298 71.7236 104.489 76.2736 102.422C77.1526 102.008 77.9799 101.595 78.652 101.182V173.373L93.5946 174.562L93.7497 168.154L96.1798 82.2166C90.6992 87.2291 83.202 91.3632 76.2736 92.9135Z" fill="#797A91"/>
    <path d="M98.7122 79.6843C97.9366 80.5628 97.0576 81.3896 96.1787 82.2165C90.698 87.229 83.2009 91.3631 76.2725 92.9134V106.814C76.9963 106.711 77.8236 106.608 78.6509 106.401C83.4077 105.419 89.9224 103.3 93.5934 101.182V174.561L111.121 172.649V79.6843H98.7122Z" fill="url(#paint16_linear)"/>
    <path d="M76.2736 92.9136H61.3311V106.814H76.2736V92.9136Z" fill="#797A91"/>
    <path d="M98.7133 79.6843C97.9378 80.5628 97.0588 81.3896 96.1798 82.2165C90.6992 87.229 83.202 91.3631 76.2736 92.9134H61.3311C69.4486 91.1047 78.2384 85.8338 83.8225 79.6843H98.7133Z" fill="#C8C9D2"/>
    <path opacity="0.5" d="M78.6525 168.464V173.321L51.3525 170.841C59.9872 169.446 63.7099 168.774 78.6525 168.464Z" fill="black"/>
    <path d="M186.455 213.474V267.733C186.455 272.591 211.687 276.518 242.865 276.518C273.991 276.518 299.274 272.591 299.274 267.733V213.474H186.455Z" fill="url(#paint17_linear)"/>
    <path d="M299.222 213.474C299.222 218.331 273.991 222.259 242.813 222.259C211.687 222.259 186.403 218.331 186.403 213.474C186.403 213.37 186.403 213.267 186.455 213.164C187.127 210.115 197.933 207.428 213.858 205.929C222.338 205.154 232.213 204.689 242.813 204.689C273.991 204.689 299.222 208.616 299.222 213.474Z" fill="url(#paint18_linear)"/>
    <path d="M229.835 249.233C205.069 248.303 186.61 244.841 186.61 240.707C186.61 240.603 186.61 240.5 186.662 240.397" stroke="url(#paint19_linear)" stroke-width="2" stroke-miterlimit="10"/>
    <path d="M299.222 240.707C299.222 244.789 281.953 248.2 257.703 249.182" stroke="url(#paint20_linear)" stroke-width="2" stroke-miterlimit="10"/>
    <path d="M229.835 249.905C204.965 248.975 186.352 245.358 186.352 241.224" stroke="url(#paint21_linear)" stroke-miterlimit="10"/>
    <path d="M299.223 241.379C299.223 245.461 281.954 248.872 257.756 249.853" stroke="url(#paint22_linear)" stroke-miterlimit="10"/>
    <path opacity="0.3" d="M243.33 214.92L186.455 213.164C187.127 210.115 197.933 207.427 213.858 205.929C222.338 205.774 231.231 205.722 240.331 205.722L243.33 214.92Z" fill="black"/>
    <path d="M142.559 150.532V135.03" stroke="url(#paint23_linear)" stroke-width="2" stroke-miterlimit="10"/>
    <path d="M201.087 207.169V151.359" stroke="url(#paint24_linear)" stroke-width="2" stroke-miterlimit="10"/>
    <path d="M169.239 179.109L167.739 178.954L168.411 176.887L169.911 177.042L169.239 179.109Z" fill="url(#paint25_linear)"/>
    <path opacity="0.7" d="M166.343 178.127L167.739 178.954L168.411 176.836L167.015 176.112L166.343 178.127Z" fill="#2E4378"/>
    <path d="M169.91 177.042L168.566 176.422L167.015 176.112L168.411 176.887L169.91 177.042Z" fill="url(#paint26_linear)"/>
    <g opacity="0.5">
        <path opacity="0.5" d="M242.555 32.4006H238.729V36.2247H242.555V32.4006Z" fill="url(#paint27_linear)"/>
        <path opacity="0.5" d="M242.555 38.9116H238.729V42.7356H242.555V38.9116Z" fill="url(#paint28_linear)"/>
        <path opacity="0.5" d="M242.555 45.4749H238.729V49.2989H242.555V45.4749Z" fill="url(#paint29_linear)"/>
        <path opacity="0.5" d="M242.555 52.0376H238.729V55.8616H242.555V52.0376Z" fill="url(#paint30_linear)"/>
        <path opacity="0.5" d="M242.555 58.5486H238.729V62.3726H242.555V58.5486Z" fill="url(#paint31_linear)"/>
    </g>
    <g opacity="0.5">
        <path opacity="0.5" d="M50.1621 121.904H46.3359V125.728H50.1621V121.904Z" fill="url(#paint32_linear)"/>
        <path opacity="0.5" d="M50.1621 128.467H46.3359V132.291H50.1621V128.467Z" fill="url(#paint33_linear)"/>
    </g>
    <g opacity="0.5">
        <path opacity="0.5" d="M210.084 0H206.258V3.82402H210.084V0Z" fill="url(#paint34_linear)"/>
        <path opacity="0.5" d="M210.084 6.56274H206.258V10.3868H210.084V6.56274Z" fill="url(#paint35_linear)"/>
        <path opacity="0.5" d="M210.084 13.0742H206.258V16.8982H210.084V13.0742Z" fill="url(#paint36_linear)"/>
    </g>
    <path d="M452.165 276.88C453.707 276.88 454.957 276.255 454.957 275.485C454.957 274.714 453.707 274.09 452.165 274.09C450.623 274.09 449.373 274.714 449.373 275.485C449.373 276.255 450.623 276.88 452.165 276.88Z" fill="#547BD9"/>
    <path d="M22.087 272.695C23.629 272.695 24.879 272.07 24.879 271.299C24.879 270.529 23.629 269.904 22.087 269.904C20.545 269.904 19.2949 270.529 19.2949 271.299C19.2949 272.07 20.545 272.695 22.087 272.695Z" fill="#547BD9"/>
    <path d="M241.47 266.493C241.211 266.338 238.936 265.046 236.558 263.289C230.87 259.052 230.25 256.003 230.25 254.091V240.965L243.797 235.539L257.757 240.914V253.988C257.757 258.07 254.034 261.274 251.19 263.289C249.122 264.788 247.106 265.925 246.382 266.338L244.159 267.889L241.47 266.493Z" stroke="url(#paint37_linear)" stroke-width="2" stroke-miterlimit="10"/>
    <path d="M242.606 264.426C242.503 264.374 240.228 263.134 237.953 261.429C234.281 258.69 232.627 256.416 232.627 254.143V242.67L243.795 238.226L255.325 242.67V254.091C255.325 256.365 253.567 258.69 249.793 261.429C247.725 262.927 245.657 264.064 245.088 264.374L243.95 265.15L242.606 264.426Z" stroke="url(#paint38_linear)" stroke-width="2" stroke-miterlimit="10"/>
    <path d="M243.796 240.759L235.058 244.273V254.143C235.058 257.45 243.796 262.307 243.796 262.307C243.796 262.307 252.896 257.45 252.896 254.091V244.324L243.796 240.759Z" fill="url(#paint39_linear)"/>
    <path d="M246.537 250.629C246.537 249.182 245.347 248.045 243.951 248.045C242.504 248.045 241.366 249.233 241.366 250.629C241.366 251.817 242.142 252.799 243.228 253.109V255.745H244.675V253.109C245.761 252.799 246.537 251.817 246.537 250.629Z" fill="url(#paint40_linear)"/>
    <path d="M257.807 167.585L257.187 167.534C256.721 167.43 256.204 167.327 255.687 167.275C254.705 167.12 253.671 167.069 252.585 167.017C252.378 167.017 252.171 167.017 251.913 167.017C245.45 167.017 241.21 168.826 238.418 171.358C238.676 169.911 239.142 167.43 239.555 164.743C240.9 164.536 242.399 164.433 244.054 164.433C247.621 164.433 250.775 165.053 253.516 166.242L257.807 167.585Z" fill="#2E4378"/>
    <path d="M229.009 211.045C221.201 208.255 215.824 202.26 214.635 193.682H228.078C228.336 194.612 228.647 195.491 229.06 196.317H222.494C223.269 202.105 225.958 206.704 230.043 209.908C231.129 210.735 232.266 211.51 233.507 212.182C234.334 212.595 235.161 213.009 236.04 213.319L229.009 211.045Z" fill="#797A91"/>
    <path d="M265.149 177.352C263.546 173.166 260.806 169.756 257.135 167.482C256.928 167.379 256.773 167.275 256.566 167.172C254.756 166.138 252.688 165.363 250.413 164.898C249.948 164.795 249.431 164.692 248.914 164.64C247.932 164.485 246.897 164.433 245.812 164.382C245.708 164.382 245.605 164.382 245.501 164.382C245.398 164.382 245.243 164.382 245.139 164.382C243.071 164.382 241.21 164.588 239.555 164.898C236.091 165.622 233.558 166.965 231.645 168.671C231.903 167.224 232.368 164.743 232.782 162.056C232.782 161.953 232.834 161.798 232.834 161.694C233.351 158.697 233.816 155.545 234.126 153.323H262.977L264.425 145.158L264.839 142.884L264.891 142.574H223.113C223.113 142.678 223.062 142.781 223.062 142.884C222.648 146.398 221.924 151.462 221.149 156.837C219.959 164.898 218.563 173.735 217.374 179.316C217.271 179.833 217.167 180.349 217.064 180.814L219.184 181.125L221.149 181.383L224.148 181.796H224.199L229.266 182.52C229.318 182.365 229.421 182.158 229.473 182.003C229.732 181.383 230.042 180.763 230.404 180.246C231.748 178.024 233.558 176.37 236.401 175.544C237.797 175.13 239.452 174.923 241.417 174.923C241.52 174.923 241.572 174.923 241.675 174.923C244.467 174.975 246.691 175.595 248.397 176.68C248.81 176.939 249.172 177.249 249.534 177.559C251.964 179.729 253.05 183.088 253.205 187.119C253.205 187.532 253.257 187.946 253.257 188.359C253.257 189.238 253.205 190.116 253.102 190.943C252.999 191.821 252.843 192.648 252.688 193.475C252.585 193.889 252.481 194.25 252.378 194.612C251.551 197.144 250.155 199.211 248.242 200.555C246.432 201.847 244.054 202.57 241.21 202.57C240.693 202.57 240.176 202.57 239.711 202.518C236.918 202.26 234.695 201.382 232.937 199.935C231.903 199.056 231.076 198.023 230.404 196.834C230.3 196.679 230.197 196.472 230.094 196.317C229.835 195.749 229.576 195.18 229.37 194.56C229.318 194.405 229.266 194.25 229.215 194.095C229.163 193.992 229.163 193.837 229.111 193.733H215.668C215.668 193.837 215.72 193.94 215.72 194.095C215.823 194.922 216.03 195.749 216.237 196.524C217.167 200.038 218.822 202.984 221.097 205.412L221.149 205.464C221.252 205.619 221.407 205.722 221.511 205.877C222.028 206.394 222.596 206.911 223.217 207.376C224.303 208.203 225.44 208.978 226.681 209.65C227.508 210.063 228.336 210.477 229.215 210.787C229.576 210.942 229.99 211.097 230.404 211.2C231.231 211.458 232.058 211.717 232.886 211.923C235.367 212.492 238.056 212.802 240.848 212.802C241.417 212.802 241.986 212.802 242.554 212.75C250.827 212.389 256.773 209.495 260.651 205.154C260.858 204.947 261.064 204.689 261.22 204.482C262.667 202.725 263.805 200.761 264.684 198.694C264.839 198.281 264.994 197.919 265.149 197.506C265.873 195.439 266.338 193.268 266.597 190.995C266.597 190.943 266.597 190.891 266.597 190.891C266.7 189.754 266.752 188.566 266.752 187.377C266.855 183.657 266.287 180.298 265.149 177.352Z" fill="#797A91"/>
    <path d="M263.805 142.522L271.664 145.158H229.938L222.079 142.522H263.805Z" fill="#C8C9D2"/>
    <path d="M214.687 193.682L222.546 196.317H235.989L228.13 193.682H214.687Z" fill="#2E4378"/>
    <path d="M270.785 177.456C268.045 172.34 263.392 168.774 257.187 167.534H257.135C256.67 167.43 256.205 167.379 255.688 167.275C254.705 167.12 253.671 167.069 252.585 167.017C252.379 167.017 252.172 167.017 251.913 167.017C245.45 167.017 241.21 168.826 238.418 171.358C238.47 171.151 238.47 170.996 238.522 170.789C238.522 170.686 238.573 170.583 238.573 170.479C238.573 170.479 238.573 170.479 238.573 170.428C238.573 170.273 238.625 170.118 238.677 169.963C238.677 169.911 238.677 169.911 238.677 169.911C238.729 169.756 238.729 169.601 238.78 169.394C238.78 169.342 238.78 169.239 238.832 169.187C238.832 169.136 238.832 169.032 238.884 168.981C238.987 168.412 239.09 167.792 239.194 167.12C239.246 166.862 239.297 166.604 239.349 166.345C239.452 165.88 239.504 165.415 239.607 164.898C239.607 164.847 239.659 164.743 239.659 164.64C239.814 163.761 239.969 162.831 240.125 161.953C240.486 159.731 240.797 157.56 241.004 155.907H269.855L271.768 145.106H229.99C229.525 149.137 228.646 155.235 227.715 161.591C227.715 161.591 227.715 161.591 227.715 161.643C226.63 168.774 225.44 176.215 224.406 181.28C224.355 181.435 224.355 181.59 224.303 181.745C224.303 181.796 224.303 181.796 224.303 181.848C224.2 182.313 224.096 182.83 223.993 183.243V183.295V183.347L230.559 184.277L236.195 185.052C236.454 184.432 236.764 183.812 237.074 183.243C239.039 179.678 242.089 177.456 248.397 177.456C248.501 177.456 248.552 177.456 248.656 177.456C249.018 177.456 249.38 177.456 249.742 177.507C256.722 178.024 259.669 182.572 260.186 188.876C260.238 189.548 260.238 190.22 260.238 190.891C260.238 192.545 260.082 194.147 259.772 195.594C259.669 196.007 259.565 196.421 259.462 196.834C258.738 199.315 257.497 201.33 255.739 202.725C254.602 203.655 253.257 204.327 251.706 204.741C250.621 204.999 249.483 205.154 248.19 205.154C246.691 205.154 245.347 204.999 244.106 204.637C242.451 204.172 241.055 203.449 239.918 202.518C239.918 202.518 239.918 202.518 239.866 202.518C238.108 201.072 236.919 199.056 236.195 196.731C236.143 196.576 236.092 196.472 236.092 196.317H222.648C222.7 196.524 222.7 196.731 222.752 196.937C222.804 197.093 222.804 197.299 222.855 197.454C222.855 197.558 222.907 197.609 222.907 197.713C222.907 197.816 222.959 197.971 222.959 198.074C222.959 198.126 222.959 198.178 223.01 198.229C223.062 198.384 223.062 198.591 223.114 198.746C223.165 198.953 223.217 199.108 223.269 199.315C223.321 199.521 223.372 199.676 223.424 199.883C223.476 200.09 223.527 200.245 223.579 200.451C223.631 200.658 223.683 200.813 223.786 201.02C223.838 201.227 223.941 201.382 223.993 201.588C224.044 201.743 224.096 201.898 224.148 202.002C224.2 202.053 224.2 202.157 224.251 202.208C224.303 202.363 224.355 202.467 224.406 202.622C224.51 202.777 224.562 202.984 224.665 203.139C224.82 203.5 225.027 203.81 225.182 204.12C225.285 204.275 225.389 204.43 225.44 204.586C225.544 204.741 225.647 204.896 225.751 205.051C225.802 205.154 225.854 205.206 225.906 205.309C225.958 205.412 226.009 205.464 226.061 205.567C226.113 205.619 226.113 205.671 226.164 205.722C226.319 205.929 226.423 206.136 226.578 206.291C227.043 206.911 227.509 207.479 228.077 208.048C228.181 208.151 228.284 208.306 228.439 208.41C228.491 208.461 228.543 208.513 228.594 208.565C228.75 208.72 228.853 208.823 229.008 208.978C229.06 209.03 229.06 209.03 229.111 209.03C229.267 209.185 229.422 209.288 229.577 209.443C229.629 209.495 229.68 209.495 229.68 209.546C229.835 209.701 229.99 209.805 230.146 209.96C230.249 210.063 230.404 210.167 230.508 210.218L230.559 210.27C230.663 210.373 230.766 210.425 230.869 210.528C230.973 210.58 231.076 210.632 231.128 210.735C231.231 210.787 231.335 210.89 231.438 210.942C231.697 211.148 232.007 211.303 232.317 211.51C232.421 211.562 232.524 211.665 232.627 211.717C232.783 211.82 232.886 211.872 233.041 211.975C233.248 212.079 233.403 212.182 233.61 212.285C234.437 212.699 235.264 213.112 236.143 213.422C236.247 213.474 236.35 213.474 236.454 213.525C238.056 214.146 239.814 214.611 241.624 214.921C243.589 215.282 245.657 215.437 247.777 215.437C252.172 215.437 255.998 214.766 259.152 213.525C263.236 211.975 266.339 209.546 268.665 206.549C268.872 206.291 269.027 206.032 269.234 205.774C270.268 204.275 271.147 202.622 271.819 200.917C271.974 200.555 272.078 200.193 272.233 199.831C272.957 197.661 273.422 195.336 273.629 193.01C273.681 192.39 273.732 191.718 273.732 191.098C273.732 190.736 273.732 190.375 273.732 190.065C273.629 185.207 272.647 180.97 270.785 177.456Z" fill="url(#paint41_linear)"/>
    <path d="M216.031 180.815L223.89 183.45C223.89 183.45 228.492 158.801 229.888 145.21L222.029 142.574L216.031 180.815Z" fill="#797A91"/>
    <path d="M429.518 195.645V250.422H429.415C427.554 253.677 404.338 256.261 376.004 256.261C356.15 256.261 338.829 255.021 329.574 253.109C325.644 252.334 323.162 251.404 322.594 250.422H322.49V195.645H429.518Z" fill="url(#paint42_linear)"/>
    <path d="M429.519 241.379C429.519 244.841 405.528 247.631 376.005 247.631C346.481 247.631 322.801 244.841 322.801 241.379" stroke="url(#paint43_linear)" stroke-width="2" stroke-miterlimit="10"/>
    <path d="M429.518 195.646C429.518 199.108 405.528 201.898 376.004 201.898C346.481 201.898 322.49 199.108 322.49 195.646C322.49 195.232 322.852 194.819 323.524 194.405C324.92 193.579 327.712 192.803 331.59 192.132C337.329 191.15 345.395 190.375 354.909 189.858C361.372 189.548 368.507 189.341 376.004 189.341C405.528 189.393 429.518 192.235 429.518 195.646Z" fill="url(#paint44_linear)"/>
    <path d="M382.622 183.76C379.416 183.76 377.348 181.228 376.055 177.197C374.763 181.28 372.746 183.76 369.489 183.76C369.024 183.76 368.61 183.708 368.196 183.605C368.248 183.812 368.351 184.019 368.455 184.225C368.455 184.277 368.507 184.329 368.507 184.38C368.507 184.432 368.558 184.484 368.558 184.484C368.61 184.69 368.713 184.845 368.817 185.052C368.92 185.259 369.024 185.517 369.127 185.724C369.23 185.931 369.334 186.086 369.385 186.292C369.489 186.499 369.592 186.654 369.696 186.861C369.696 186.912 369.747 186.912 369.747 186.964C369.851 187.171 369.954 187.377 370.109 187.584C370.161 187.688 370.213 187.791 370.264 187.894C370.316 187.998 370.368 188.101 370.471 188.204C370.523 188.308 370.575 188.411 370.678 188.514C370.73 188.618 370.782 188.721 370.885 188.824C370.988 188.979 371.092 189.134 371.195 189.289C371.247 189.341 371.247 189.393 371.299 189.444L371.35 189.496C371.402 189.548 371.454 189.651 371.505 189.703C371.66 189.91 371.816 190.116 372.022 190.323C372.126 190.426 372.178 190.53 372.281 190.633C372.384 190.736 372.436 190.84 372.539 190.891C372.643 190.995 372.746 191.098 372.798 191.201C372.901 191.305 372.953 191.357 373.057 191.46C373.108 191.512 373.212 191.615 373.263 191.667C373.315 191.718 373.418 191.822 373.47 191.873C373.522 191.925 373.574 191.977 373.625 191.977C373.677 192.028 373.729 192.028 373.729 192.08C373.832 192.183 373.884 192.235 373.987 192.287C374.142 192.39 374.297 192.545 374.453 192.648C374.556 192.752 374.711 192.855 374.814 192.907C374.918 193.01 375.073 193.062 375.176 193.165C375.176 193.165 375.176 193.165 375.228 193.217C375.331 193.32 375.487 193.372 375.59 193.475C375.745 193.579 375.849 193.63 376.004 193.734C376.521 193.424 377.038 193.113 377.503 192.7C378.227 192.132 378.847 191.512 379.468 190.84C379.675 190.633 379.881 190.375 380.088 190.116C380.295 189.858 380.502 189.6 380.709 189.289C381.898 187.636 382.88 185.672 383.759 183.502C383.346 183.708 382.984 183.76 382.622 183.76Z" fill="url(#paint45_linear)"/>
    <path d="M382.518 195.592L370.678 195.541C370.264 195.592 369.799 195.592 369.385 195.592C355.322 195.592 351.082 176.472 351.082 155.544C351.082 134.821 355.735 115.495 369.592 115.495L381.536 115.546C379.52 115.701 377.762 116.27 376.107 117.252C375.9 117.355 375.693 117.51 375.487 117.665C375.435 117.717 375.331 117.768 375.28 117.82C375.228 117.872 375.176 117.923 375.125 117.923C375.021 117.975 374.918 118.078 374.814 118.182C374.659 118.285 374.504 118.44 374.349 118.595C374.246 118.647 374.194 118.75 374.091 118.802C373.987 118.854 373.935 118.957 373.832 119.009C373.677 119.164 373.522 119.319 373.367 119.474C373.263 119.525 373.212 119.629 373.108 119.732C373.005 119.835 372.953 119.887 372.901 119.99C372.798 120.094 372.746 120.145 372.695 120.249C371.867 121.179 371.143 122.213 370.471 123.349C370.213 123.763 370.006 124.176 369.747 124.641C369.696 124.745 369.644 124.848 369.592 124.951C369.489 125.106 369.437 125.261 369.334 125.416C369.23 125.623 369.127 125.83 369.023 126.037C368.92 126.243 368.817 126.45 368.765 126.657C368.765 126.708 368.713 126.76 368.713 126.812C368.61 127.018 368.506 127.277 368.455 127.483C365.456 134.925 364.267 145.105 364.267 155.595C364.267 166.137 365.352 176.266 368.196 183.707C368.3 183.965 368.403 184.224 368.506 184.43C368.61 184.689 368.713 184.896 368.817 185.102C368.92 185.309 369.023 185.567 369.127 185.774C369.23 185.981 369.334 186.136 369.385 186.342C369.851 187.221 370.316 188.048 370.833 188.875C371.04 189.185 371.247 189.495 371.505 189.805C371.66 190.011 371.816 190.218 372.022 190.425C372.126 190.528 372.177 190.632 372.281 190.735C372.384 190.838 372.436 190.942 372.539 190.993C372.643 191.097 372.746 191.2 372.85 191.303C372.953 191.407 373.005 191.458 373.108 191.562C373.418 191.872 373.729 192.182 374.039 192.44C374.194 192.544 374.349 192.699 374.504 192.802C374.608 192.905 374.763 193.009 374.866 193.06C374.97 193.164 375.125 193.215 375.228 193.319C375.228 193.319 375.228 193.319 375.28 193.37C375.383 193.474 375.538 193.525 375.642 193.629C375.797 193.732 375.9 193.784 376.055 193.887C377.865 194.972 380.037 195.592 382.518 195.592Z" fill="#797A91"/>
    <path d="M370.471 123.196C371.143 122.059 371.918 121.025 372.694 120.095C371.867 121.025 371.143 122.059 370.471 123.196Z" fill="url(#paint46_linear)"/>
    <path d="M382.777 115.444C382.363 115.444 382.001 115.444 381.588 115.496C379.571 115.651 377.813 116.219 376.159 117.201C375.952 117.305 375.745 117.46 375.538 117.615C375.486 117.615 375.486 117.666 375.435 117.666L375.383 117.718C375.383 117.718 375.383 117.718 375.331 117.718C375.28 117.77 375.228 117.821 375.176 117.821C375.073 117.873 374.969 117.976 374.866 118.08C374.711 118.183 374.556 118.338 374.401 118.493C374.297 118.545 374.246 118.648 374.142 118.7C374.039 118.752 373.987 118.855 373.884 118.907C373.78 118.958 373.728 119.062 373.625 119.113L373.573 119.165C373.573 119.165 373.573 119.165 373.522 119.217C373.47 119.268 373.418 119.32 373.367 119.372C373.315 119.475 373.211 119.527 373.108 119.63C373.056 119.682 372.953 119.785 372.901 119.888C372.85 119.992 372.746 120.044 372.694 120.147C372.591 120.25 372.488 120.354 372.436 120.457C372.332 120.56 372.229 120.664 372.177 120.767C372.074 120.87 371.971 120.974 371.919 121.129C371.867 121.18 371.815 121.284 371.712 121.387L371.66 121.439L371.609 121.49C371.609 121.49 371.609 121.49 371.609 121.542L371.557 121.594C371.505 121.645 371.453 121.697 371.453 121.749C371.402 121.852 371.35 121.904 371.298 122.007C371.298 122.007 371.298 122.059 371.247 122.059C371.143 122.162 371.092 122.266 370.988 122.421C370.885 122.576 370.833 122.679 370.73 122.834C370.626 122.989 370.575 123.092 370.471 123.247C370.419 123.351 370.368 123.454 370.264 123.557C370.213 123.661 370.161 123.764 370.057 123.868C370.006 123.971 369.954 124.074 369.902 124.178C369.851 124.281 369.799 124.384 369.747 124.488C369.696 124.539 369.696 124.591 369.644 124.643C369.644 124.694 369.592 124.694 369.592 124.746C369.592 124.746 369.592 124.746 369.592 124.798C369.592 124.798 369.592 124.798 369.592 124.849C369.489 125.004 369.437 125.159 369.334 125.314C369.23 125.521 369.127 125.728 369.023 125.935C368.92 126.141 368.817 126.348 368.765 126.555C368.713 126.606 368.713 126.658 368.713 126.71C368.61 126.916 368.506 127.175 368.455 127.381C365.456 134.823 364.267 145.003 364.267 155.493C364.267 166.035 365.352 176.164 368.196 183.605C368.248 183.812 368.351 184.018 368.455 184.225C368.455 184.277 368.506 184.328 368.506 184.38C368.506 184.432 368.558 184.483 368.558 184.483C368.61 184.69 368.713 184.845 368.817 185.052C368.92 185.259 369.023 185.517 369.127 185.724C369.23 185.93 369.334 186.085 369.385 186.292C369.489 186.499 369.592 186.654 369.696 186.861C369.696 186.912 369.747 186.912 369.747 186.964C369.851 187.171 369.954 187.377 370.109 187.584C370.161 187.687 370.213 187.791 370.264 187.894C370.316 187.997 370.368 188.101 370.471 188.204C370.523 188.308 370.575 188.411 370.678 188.514C370.73 188.618 370.781 188.721 370.885 188.824C370.988 188.979 371.092 189.134 371.195 189.289C371.247 189.341 371.247 189.393 371.298 189.444L371.35 189.496C371.402 189.548 371.454 189.651 371.505 189.703C371.66 189.909 371.815 190.116 372.022 190.323C372.126 190.426 372.177 190.53 372.281 190.633C372.384 190.736 372.436 190.84 372.539 190.891C372.643 190.995 372.746 191.098 372.798 191.201C372.901 191.305 372.953 191.356 373.056 191.46C373.108 191.511 373.211 191.615 373.263 191.666C373.315 191.718 373.418 191.821 373.47 191.873C373.522 191.925 373.573 191.977 373.625 191.977C373.677 192.028 373.728 192.028 373.728 192.08C373.832 192.183 373.884 192.235 373.987 192.287C374.142 192.39 374.297 192.545 374.452 192.648C374.556 192.752 374.711 192.855 374.814 192.907C374.918 193.01 375.073 193.062 375.176 193.165C375.176 193.165 375.176 193.165 375.228 193.217C375.331 193.32 375.486 193.372 375.59 193.475C375.745 193.578 375.848 193.63 376.003 193.734C376.107 193.785 376.262 193.889 376.365 193.94C376.469 193.992 376.572 194.044 376.676 194.095H376.727C376.831 194.147 376.986 194.199 377.089 194.25C377.193 194.302 377.296 194.354 377.451 194.405C377.555 194.457 377.658 194.509 377.761 194.509C377.865 194.56 377.917 194.56 378.02 194.612C378.072 194.612 378.072 194.664 378.123 194.664C378.175 194.715 378.278 194.715 378.33 194.715C378.589 194.819 378.796 194.87 379.054 194.922C379.157 194.974 379.261 194.974 379.416 195.025C379.468 195.025 379.468 195.025 379.519 195.025C379.623 195.077 379.778 195.077 379.881 195.129C379.985 195.129 380.14 195.18 380.243 195.18C380.295 195.18 380.347 195.18 380.347 195.18C380.45 195.18 380.605 195.232 380.709 195.232C380.864 195.232 380.967 195.284 381.122 195.284H381.174C381.329 195.284 381.432 195.284 381.588 195.335C381.639 195.335 381.639 195.335 381.639 195.335C381.743 195.335 381.898 195.335 382.001 195.335C382.053 195.335 382.105 195.335 382.156 195.335C382.26 195.335 382.363 195.335 382.467 195.335C386.603 195.335 389.912 193.63 392.497 190.736C392.859 190.375 393.169 189.961 393.48 189.496C398.96 182.055 400.77 168.516 400.77 154.718C400.822 133.789 396.272 115.444 382.777 115.444ZM376.055 133.841C377.4 129.655 379.571 127.278 382.777 127.278C383.139 127.278 383.449 127.33 383.759 127.381C389.964 128.518 391.153 140.869 391.153 155.132C391.153 169.911 390.17 182.52 383.604 183.708C383.294 183.76 382.932 183.812 382.57 183.812C379.364 183.812 377.296 181.28 376.003 177.249C374.246 171.823 373.832 163.71 373.832 155.442C373.884 146.243 374.401 138.802 376.055 133.841Z" fill="url(#paint47_linear)"/>
    <path d="M391.204 155.08C391.204 169.859 390.222 182.468 383.655 183.657C383.345 183.708 382.983 183.76 382.621 183.76C379.415 183.76 377.347 181.228 376.055 177.197C377.709 171.874 378.071 163.865 378.071 155.131C378.071 146.76 377.658 139.06 376.055 133.841C377.399 129.655 379.571 127.278 382.776 127.278C383.138 127.278 383.448 127.33 383.759 127.381C390.015 128.518 391.204 140.869 391.204 155.08Z" fill="#797A91"/>
    <defs>
        <linearGradient id="paint0_linear" x1="231.683" y1="190.798" x2="120.706" y2="190.798" gradientUnits="userSpaceOnUse">
            <stop stop-color="#9099C2"/>
            <stop offset="0.1286" stop-color="#7985AD"/>
            <stop offset="0.3551" stop-color="#55678C"/>
            <stop offset="0.476" stop-color="#475B80"/>
            <stop offset="0.6107" stop-color="#405374"/>
            <stop offset="0.8513" stop-color="#2D3F55"/>
            <stop offset="1" stop-color="#20313F"/>
        </linearGradient>
        <linearGradient id="paint1_linear" x1="124.881" y1="131.712" x2="221.193" y2="131.712" gradientUnits="userSpaceOnUse">
            <stop stop-color="#5E86E2"/>
            <stop offset="1" stop-color="#83AAFF"/>
        </linearGradient>
        <linearGradient id="paint2_linear" x1="124.676" y1="150.181" x2="221.71" y2="150.181" gradientUnits="userSpaceOnUse">
            <stop stop-color="#0B1539"/>
            <stop offset="1" stop-color="#21345B"/>
        </linearGradient>
        <linearGradient id="paint3_linear" x1="124.935" y1="150.576" x2="221.452" y2="150.576" gradientUnits="userSpaceOnUse">
            <stop stop-color="#6D9AF8"/>
            <stop offset="1" stop-color="#83AAFF"/>
        </linearGradient>
        <linearGradient id="paint4_linear" x1="0.81121" y1="213.045" x2="99.1676" y2="235.359" gradientUnits="userSpaceOnUse">
            <stop stop-color="#2F4478" stop-opacity="0"/>
            <stop offset="0.1663" stop-color="#23335A" stop-opacity="0.1663"/>
            <stop offset="0.4173" stop-color="#141D33" stop-opacity="0.4173"/>
            <stop offset="0.6484" stop-color="#090D17" stop-opacity="0.6484"/>
            <stop offset="0.8501" stop-color="#020306" stop-opacity="0.8501"/>
            <stop offset="1"/>
        </linearGradient>
        <linearGradient id="paint5_linear" x1="354.043" y1="175.725" x2="233.107" y2="175.725" gradientUnits="userSpaceOnUse">
            <stop stop-color="#9099C2"/>
            <stop offset="0.1286" stop-color="#7985AD"/>
            <stop offset="0.3551" stop-color="#55678C"/>
            <stop offset="0.476" stop-color="#475B80"/>
            <stop offset="0.6107" stop-color="#405374"/>
            <stop offset="0.8513" stop-color="#2D3F55"/>
            <stop offset="1" stop-color="#20313F"/>
        </linearGradient>
        <linearGradient id="paint6_linear" x1="230.459" y1="118.042" x2="326.774" y2="118.042" gradientUnits="userSpaceOnUse">
            <stop stop-color="#5E86E2"/>
            <stop offset="1" stop-color="#83AAFF"/>
        </linearGradient>
        <linearGradient id="paint7_linear" x1="152.008" y1="222.797" x2="58.1038" y2="222.797" gradientUnits="userSpaceOnUse">
            <stop stop-color="#9099C2"/>
            <stop offset="0.1286" stop-color="#7985AD"/>
            <stop offset="0.3551" stop-color="#55678C"/>
            <stop offset="0.476" stop-color="#475B80"/>
            <stop offset="0.6107" stop-color="#405374"/>
            <stop offset="0.8513" stop-color="#2D3F55"/>
            <stop offset="1" stop-color="#20313F"/>
        </linearGradient>
        <linearGradient id="paint8_linear" x1="40.2034" y1="174.866" x2="153.005" y2="174.866" gradientUnits="userSpaceOnUse">
            <stop stop-color="#6D9AF8"/>
            <stop offset="1" stop-color="#83AAFF"/>
        </linearGradient>
        <linearGradient id="paint9_linear" x1="39.8834" y1="221.909" x2="153.522" y2="221.909" gradientUnits="userSpaceOnUse">
            <stop stop-color="#0B1539"/>
            <stop offset="1" stop-color="#152449"/>
        </linearGradient>
        <linearGradient id="paint10_linear" x1="298.133" y1="128.023" x2="298.133" y2="42.4369" gradientUnits="userSpaceOnUse">
            <stop offset="0.0106784"/>
            <stop offset="0.0639761" stop-color="#2F4478"/>
            <stop offset="0.3974" stop-color="white"/>
            <stop offset="0.886" stop-color="#E6EFF7"/>
            <stop offset="0.984" stop-color="#E6EFF7"/>
        </linearGradient>
        <linearGradient id="paint11_linear" x1="152.611" y1="92.2022" x2="203.626" y2="92.2022" gradientUnits="userSpaceOnUse">
            <stop stop-color="#DDDCE6"/>
            <stop offset="1" stop-color="white"/>
        </linearGradient>
        <linearGradient id="paint12_linear" x1="210.263" y1="201.605" x2="313.363" y2="230.78" gradientUnits="userSpaceOnUse">
            <stop offset="0.1162" stop-color="#2F4478" stop-opacity="0"/>
            <stop offset="0.6388"/>
        </linearGradient>
        <linearGradient id="paint13_linear" x1="40.2157" y1="230.574" x2="56.6085" y2="230.574" gradientUnits="userSpaceOnUse">
            <stop stop-color="#0B1539"/>
            <stop offset="1" stop-color="#152449"/>
        </linearGradient>
        <linearGradient id="paint14_linear" x1="230.358" y1="168.843" x2="298.639" y2="168.843" gradientUnits="userSpaceOnUse">
            <stop stop-color="#0B1539"/>
            <stop offset="1" stop-color="#21345B"/>
        </linearGradient>
        <linearGradient id="paint15_linear" x1="185.457" y1="170.295" x2="186.852" y2="170.295" gradientUnits="userSpaceOnUse">
            <stop stop-color="#9099C2"/>
            <stop offset="0.1286" stop-color="#7985AD"/>
            <stop offset="0.3551" stop-color="#55678C"/>
            <stop offset="0.476" stop-color="#475B80"/>
            <stop offset="0.6107" stop-color="#405374"/>
            <stop offset="0.8513" stop-color="#2D3F55"/>
            <stop offset="1" stop-color="#20313F"/>
        </linearGradient>
        <linearGradient id="paint16_linear" x1="76.2554" y1="127.099" x2="111.124" y2="127.099" gradientUnits="userSpaceOnUse">
            <stop stop-color="#DDDCE6"/>
            <stop offset="1" stop-color="white"/>
        </linearGradient>
        <linearGradient id="paint17_linear" x1="299.977" y1="244.983" x2="153.43" y2="244.983" gradientUnits="userSpaceOnUse">
            <stop stop-color="#9099C2"/>
            <stop offset="0.1286" stop-color="#7985AD"/>
            <stop offset="0.3551" stop-color="#55678C"/>
            <stop offset="0.476" stop-color="#475B80"/>
            <stop offset="0.6107" stop-color="#405374"/>
            <stop offset="0.8513" stop-color="#2D3F55"/>
            <stop offset="1" stop-color="#20313F"/>
        </linearGradient>
        <linearGradient id="paint18_linear" x1="186.432" y1="213.462" x2="299.234" y2="213.462" gradientUnits="userSpaceOnUse">
            <stop stop-color="#6D9AF8"/>
            <stop offset="1" stop-color="#83AAFF"/>
        </linearGradient>
        <linearGradient id="paint19_linear" x1="186.071" y1="244.968" x2="229.834" y2="244.968" gradientUnits="userSpaceOnUse">
            <stop stop-color="#0B1539"/>
            <stop offset="1" stop-color="#152449"/>
        </linearGradient>
        <linearGradient id="paint20_linear" x1="257.68" y1="245.206" x2="299.75" y2="245.206" gradientUnits="userSpaceOnUse">
            <stop stop-color="#0B1539"/>
            <stop offset="1" stop-color="#152449"/>
        </linearGradient>
        <linearGradient id="paint21_linear" x1="186.09" y1="245.691" x2="229.851" y2="245.691" gradientUnits="userSpaceOnUse">
            <stop stop-color="#6D9AF8"/>
            <stop offset="1" stop-color="#83AAFF"/>
        </linearGradient>
        <linearGradient id="paint22_linear" x1="257.762" y1="245.76" x2="299.493" y2="245.76" gradientUnits="userSpaceOnUse">
            <stop stop-color="#A3BDF6"/>
            <stop offset="1" stop-color="#B8D7FF"/>
        </linearGradient>
        <linearGradient id="paint23_linear" x1="-nan" y1="-nan" x2="-nan" y2="-nan" gradientUnits="userSpaceOnUse">
            <stop stop-color="#0B1539"/>
            <stop offset="1" stop-color="#152449"/>
        </linearGradient>
        <linearGradient id="paint24_linear" x1="-nan" y1="-nan" x2="-nan" y2="-nan" gradientUnits="userSpaceOnUse">
            <stop stop-color="#0B1539"/>
            <stop offset="1" stop-color="#152449"/>
        </linearGradient>
        <linearGradient id="paint25_linear" x1="170.222" y1="178.418" x2="167.891" y2="177.659" gradientUnits="userSpaceOnUse">
            <stop offset="0.1299" stop-color="#AAA8D2"/>
            <stop offset="1" stop-color="#83AAFF"/>
        </linearGradient>
        <linearGradient id="paint26_linear" x1="166.98" y1="176.115" x2="169.891" y2="177.064" gradientUnits="userSpaceOnUse">
            <stop stop-color="#5E86E2"/>
            <stop offset="0.1027" stop-color="#678FE9"/>
            <stop offset="0.3414" stop-color="#779EF6"/>
            <stop offset="0.6152" stop-color="#80A7FD"/>
            <stop offset="1" stop-color="#83AAFF"/>
        </linearGradient>
        <linearGradient id="paint27_linear" x1="238.716" y1="34.3089" x2="242.552" y2="34.3089" gradientUnits="userSpaceOnUse">
            <stop stop-color="#6D9AF8"/>
            <stop offset="1" stop-color="#83AAFF"/>
        </linearGradient>
        <linearGradient id="paint28_linear" x1="238.716" y1="40.8526" x2="242.552" y2="40.8526" gradientUnits="userSpaceOnUse">
            <stop stop-color="#6D9AF8"/>
            <stop offset="1" stop-color="#83AAFF"/>
        </linearGradient>
        <linearGradient id="paint29_linear" x1="238.716" y1="47.3969" x2="242.552" y2="47.3969" gradientUnits="userSpaceOnUse">
            <stop stop-color="#6D9AF8"/>
            <stop offset="1" stop-color="#83AAFF"/>
        </linearGradient>
        <linearGradient id="paint30_linear" x1="238.716" y1="53.9407" x2="242.552" y2="53.9407" gradientUnits="userSpaceOnUse">
            <stop stop-color="#6D9AF8"/>
            <stop offset="1" stop-color="#83AAFF"/>
        </linearGradient>
        <linearGradient id="paint31_linear" x1="238.716" y1="60.4845" x2="242.552" y2="60.4845" gradientUnits="userSpaceOnUse">
            <stop stop-color="#6D9AF8"/>
            <stop offset="1" stop-color="#83AAFF"/>
        </linearGradient>
        <linearGradient id="paint32_linear" x1="46.3303" y1="123.827" x2="50.1665" y2="123.827" gradientUnits="userSpaceOnUse">
            <stop stop-color="#6D9AF8"/>
            <stop offset="1" stop-color="#83AAFF"/>
        </linearGradient>
        <linearGradient id="paint33_linear" x1="46.3303" y1="130.371" x2="50.1665" y2="130.371" gradientUnits="userSpaceOnUse">
            <stop stop-color="#6D9AF8"/>
            <stop offset="1" stop-color="#83AAFF"/>
        </linearGradient>
        <linearGradient id="paint34_linear" x1="206.283" y1="1.91708" x2="210.12" y2="1.91708" gradientUnits="userSpaceOnUse">
            <stop stop-color="#6D9AF8"/>
            <stop offset="1" stop-color="#83AAFF"/>
        </linearGradient>
        <linearGradient id="paint35_linear" x1="206.283" y1="8.46091" x2="210.12" y2="8.46091" gradientUnits="userSpaceOnUse">
            <stop stop-color="#6D9AF8"/>
            <stop offset="1" stop-color="#83AAFF"/>
        </linearGradient>
        <linearGradient id="paint36_linear" x1="206.283" y1="15.0051" x2="210.12" y2="15.0051" gradientUnits="userSpaceOnUse">
            <stop stop-color="#6D9AF8"/>
            <stop offset="1" stop-color="#83AAFF"/>
        </linearGradient>
        <linearGradient id="paint37_linear" x1="229.69" y1="251.807" x2="258.248" y2="251.807" gradientUnits="userSpaceOnUse">
            <stop stop-color="#152449"/>
            <stop offset="1" stop-color="#2E4378"/>
        </linearGradient>
        <linearGradient id="paint38_linear" x1="232.102" y1="251.684" x2="255.833" y2="251.684" gradientUnits="userSpaceOnUse">
            <stop stop-color="#152449"/>
            <stop offset="1" stop-color="#2E4378"/>
        </linearGradient>
        <linearGradient id="paint39_linear" x1="270.558" y1="214.093" x2="222.384" y2="278.498" gradientUnits="userSpaceOnUse">
            <stop offset="0.1972" stop-color="#79829A"/>
            <stop offset="0.5332" stop-color="#25375E"/>
            <stop offset="0.6138" stop-color="#223357"/>
            <stop offset="0.7336" stop-color="#1A2743"/>
            <stop offset="0.8771" stop-color="#0D1422"/>
            <stop offset="1"/>
        </linearGradient>
        <linearGradient id="paint40_linear" x1="235.732" y1="320.126" x2="242.343" y2="264.059" gradientUnits="userSpaceOnUse">
            <stop offset="0.1972" stop-color="#79829A"/>
            <stop offset="0.5332" stop-color="#25375E"/>
            <stop offset="0.6138" stop-color="#223357"/>
            <stop offset="0.7336" stop-color="#1A2743"/>
            <stop offset="0.8771" stop-color="#0D1422"/>
            <stop offset="1"/>
        </linearGradient>
        <linearGradient id="paint41_linear" x1="222.528" y1="180.281" x2="273.649" y2="180.281" gradientUnits="userSpaceOnUse">
            <stop stop-color="#DDDCE6"/>
            <stop offset="1" stop-color="white"/>
        </linearGradient>
        <linearGradient id="paint42_linear" x1="481.94" y1="225.956" x2="334.588" y2="225.956" gradientUnits="userSpaceOnUse">
            <stop stop-color="#9099C2"/>
            <stop offset="0.1286" stop-color="#7985AD"/>
            <stop offset="0.3551" stop-color="#55678C"/>
            <stop offset="0.476" stop-color="#475B80"/>
            <stop offset="0.6107" stop-color="#405374"/>
            <stop offset="0.8513" stop-color="#2D3F55"/>
            <stop offset="1" stop-color="#20313F"/>
        </linearGradient>
        <linearGradient id="paint43_linear" x1="322.228" y1="244.748" x2="430.02" y2="244.748" gradientUnits="userSpaceOnUse">
            <stop stop-color="#0B1539"/>
            <stop offset="1" stop-color="#21345B"/>
        </linearGradient>
        <linearGradient id="paint44_linear" x1="322.432" y1="195.656" x2="429.502" y2="195.656" gradientUnits="userSpaceOnUse">
            <stop stop-color="#6D9AF8"/>
            <stop offset="1" stop-color="#83AAFF"/>
        </linearGradient>
        <linearGradient id="paint45_linear" x1="375.928" y1="136.6" x2="375.928" y2="107.942" gradientUnits="userSpaceOnUse">
            <stop offset="0.0280112"/>
            <stop offset="0.6779" stop-color="#5E86E2"/>
            <stop offset="1" stop-color="#83AAFF"/>
        </linearGradient>
        <linearGradient id="paint46_linear" x1="371.586" y1="136.596" x2="371.586" y2="107.937" gradientUnits="userSpaceOnUse">
            <stop offset="0.0280112"/>
            <stop offset="0.6779" stop-color="#5E86E2"/>
            <stop offset="1" stop-color="#83AAFF"/>
        </linearGradient>
        <linearGradient id="paint47_linear" x1="364.25" y1="155.512" x2="400.845" y2="155.512" gradientUnits="userSpaceOnUse">
            <stop stop-color="#DDDCE6"/>
            <stop offset="1" stop-color="white"/>
        </linearGradient>
    </defs>
</svg>
