<svg width="270" height="215" viewBox="0 0 270 215" fill="none" xmlns="http://www.w3.org/2000/svg">
    <g clip-path="url(#clip0)">
        <path d="M149.621 182.76C149.3 182.76 149.003 182.686 148.707 182.49C143.62 179.299 129.246 175.273 117.688 172.032C109.908 169.848 103.19 167.957 100.029 166.607C68.491 152.934 48.1406 122.004 48.1406 87.8084C48.1406 73.9389 51.5488 60.1429 57.9948 47.9426C64.2431 36.1351 73.3069 25.7513 84.2231 17.9696C84.9887 17.4295 86.0506 17.6014 86.594 18.3624C87.1373 19.1233 84.5935 20.3998 83.8279 20.9644C73.3316 28.4516 66.9845 38.1725 60.9831 49.5382C54.7841 61.2721 51.5241 74.5034 51.5241 87.833C51.5241 120.678 71.0842 150.381 101.388 163.539C104.326 164.815 111.266 166.755 118.601 168.817C130.975 172.278 145.027 176.205 150.51 179.667C151.3 180.158 151.547 181.213 151.053 181.999C150.732 182.465 150.189 182.76 149.621 182.76Z" fill="url(#paint0_radial)"/>
        <path d="M125.915 182.759C125.347 182.759 124.779 182.465 124.458 181.949C123.964 181.164 124.211 180.108 125.001 179.617C130.361 176.328 149.056 170.093 158.046 167.073C159.577 166.558 160.837 166.141 161.676 165.846C195.166 154.382 217.64 123.034 217.64 87.8081C217.64 73.4231 213.861 59.2589 206.724 46.8377C199.784 34.8092 190.868 22.5352 178.964 15.2936C178.174 14.8026 177.359 15.0236 177.853 14.238C178.347 13.4525 178.89 13.9925 179.705 14.4835C192.103 22.0197 202.451 32.649 209.688 45.1684C217.121 58.0806 221.073 72.8339 221.073 87.8081C221.048 124.458 197.635 157.107 162.813 169.062C161.973 169.356 160.713 169.774 159.157 170.289C150.983 173.014 131.842 179.421 126.829 182.489C126.532 182.661 126.236 182.759 125.915 182.759Z" fill="url(#paint1_radial)"/>
        <path d="M98.6459 164.3C98.6459 164.3 50.4866 161.035 65.5271 173.8C78.7401 185.043 98.6459 164.3 98.6459 164.3Z" fill="url(#paint2_radial)"/>
        <path d="M76.3932 147.557C76.3932 147.557 32.3831 127.87 42.0149 145.029C50.486 160.126 76.3932 147.557 76.3932 147.557Z" fill="url(#paint3_radial)"/>
        <path d="M57.6735 123.035C57.6735 123.035 23.2951 89.355 26.3082 108.772C29.0002 125.882 57.6735 123.035 57.6735 123.035Z" fill="url(#paint4_radial)"/>
        <path d="M49.7222 95.9093C49.7222 95.9093 29.2484 52.4594 25.2968 71.705C21.8145 88.6431 49.7222 95.9093 49.7222 95.9093Z" fill="url(#paint5_radial)"/>
        <path d="M51.0798 69.4709C51.0798 69.4709 47.0789 21.6515 36.632 38.3441C27.4694 53.0238 51.0798 69.4709 51.0798 69.4709Z" fill="url(#paint6_radial)"/>
        <path d="M59.33 47.0832C59.33 47.0832 73.6296 1.25223 57.6506 12.8389C43.598 23.0508 59.33 47.0832 59.33 47.0832Z" fill="url(#paint7_radial)"/>
        <path d="M72.3203 31.5199C72.3203 31.5199 111.243 3.14252 91.4606 3.01978C74.0491 2.92159 72.3203 31.5199 72.3203 31.5199Z" fill="url(#paint8_radial)"/>
        <path d="M169.949 164.3C169.949 164.3 218.109 161.035 203.068 173.8C189.855 185.043 169.949 164.3 169.949 164.3Z" fill="url(#paint9_radial)"/>
        <path d="M192.203 147.557C192.203 147.557 236.213 127.87 226.581 145.029C218.11 160.126 192.203 147.557 192.203 147.557Z" fill="url(#paint10_radial)"/>
        <path d="M210.922 123.035C210.922 123.035 245.3 89.355 242.287 108.772C239.595 125.882 210.922 123.035 210.922 123.035Z" fill="url(#paint11_radial)"/>
        <path d="M218.875 95.9093C218.875 95.9093 239.349 52.4594 243.3 71.705C246.783 88.6431 218.875 95.9093 218.875 95.9093Z" fill="url(#paint12_radial)"/>
        <path d="M217.516 69.4709C217.516 69.4709 221.517 21.6515 231.963 38.3441C241.126 53.0238 217.516 69.4709 217.516 69.4709Z" fill="url(#paint13_radial)"/>
        <path d="M209.268 47.0832C209.268 47.0832 194.969 1.25223 210.948 12.8389C225 23.0508 209.268 47.0832 209.268 47.0832Z" fill="url(#paint14_radial)"/>
        <path d="M196.274 31.5199C196.274 31.5199 157.352 3.14252 177.134 3.01978C194.521 2.92159 196.274 31.5199 196.274 31.5199Z" fill="url(#paint15_radial)"/>
        <path d="M150.758 179.74C150.437 179.74 150.14 179.666 149.844 179.47C144.756 176.279 130.382 172.253 118.824 169.012C111.045 166.828 104.327 164.937 101.166 163.587C69.6277 149.914 49.2773 118.984 49.2773 84.7884C49.2773 70.9188 52.6855 57.1229 59.1315 44.9226C65.3798 33.115 74.4436 22.7313 85.3597 14.9496C86.1254 14.4095 87.1873 14.5814 87.7307 15.3423C88.274 16.1033 85.7302 17.3798 84.9646 17.9444C74.4683 25.4315 68.1212 35.1525 62.1198 46.5182C55.9209 58.2521 52.6608 71.4834 52.6608 84.813C52.6608 117.658 72.2209 147.361 102.524 160.519C105.463 161.795 112.403 163.735 119.738 165.797C132.111 169.258 146.164 173.185 151.647 176.647C152.437 177.138 152.684 178.193 152.19 178.979C151.869 179.445 151.326 179.74 150.758 179.74Z" fill="#AFCCF8"/>
        <path d="M127.048 179.74C126.48 179.74 125.912 179.446 125.591 178.93C125.097 178.144 125.344 177.089 126.134 176.598C131.493 173.309 150.189 167.073 159.179 164.054C160.71 163.538 161.97 163.121 162.809 162.827C196.274 151.338 218.748 119.99 218.748 84.7642C218.748 70.3791 214.969 56.215 207.832 43.7937C200.892 31.7652 191.977 19.4913 180.073 12.2496C179.282 11.7587 178.467 11.9796 178.961 11.1941C179.455 10.4085 179.998 10.9486 180.813 11.4396C193.211 18.9758 203.559 29.605 210.796 42.1245C218.23 55.0367 222.181 69.79 222.181 84.7642C222.181 121.414 198.768 154.063 163.945 166.018C163.106 166.312 161.846 166.73 160.29 167.245C152.115 169.97 132.975 176.377 127.962 179.446C127.665 179.642 127.369 179.74 127.048 179.74Z" fill="#AFCCF8"/>
        <path d="M99.7826 161.28C99.7826 161.28 51.6233 158.015 66.6639 170.78C79.8768 182.023 99.7826 161.28 99.7826 161.28Z" fill="#AFCCF8"/>
        <path d="M77.53 144.538C77.53 144.538 33.5198 124.851 43.1516 142.009C51.6227 157.106 77.53 144.538 77.53 144.538Z" fill="#AFCCF8"/>
        <path d="M58.8102 120.015C58.8102 120.015 24.4319 86.3355 27.4449 105.753C30.1369 122.863 58.8102 120.015 58.8102 120.015Z" fill="#AFCCF8"/>
        <path d="M50.859 92.8897C50.859 92.8897 30.3851 49.4399 26.4336 68.6855C22.9513 85.6235 50.859 92.8897 50.859 92.8897Z" fill="#AFCCF8"/>
        <path d="M52.2165 66.4513C52.2165 66.4513 48.2156 18.632 37.7687 35.3246C28.6061 50.0042 52.2165 66.4513 52.2165 66.4513Z" fill="#AFCCF8"/>
        <path d="M60.4667 44.0637C60.4667 44.0637 74.7663 -1.7673 58.7873 9.81932C44.7347 20.0313 60.4667 44.0637 60.4667 44.0637Z" fill="#AFCCF8"/>
        <path d="M73.457 28.5004C73.457 28.5004 112.38 0.122992 92.5973 0.000252276C75.2105 -0.0979394 73.457 28.5004 73.457 28.5004Z" fill="#AFCCF8"/>
        <path d="M171.082 161.28C171.082 161.28 219.241 158.015 204.201 170.78C190.988 182.023 171.082 161.28 171.082 161.28Z" fill="#AFCCF8"/>
        <path d="M193.336 144.538C193.336 144.538 237.346 124.851 227.714 142.009C219.243 157.106 193.336 144.538 193.336 144.538Z" fill="#AFCCF8"/>
        <path d="M212.055 120.015C212.055 120.015 246.433 86.3355 243.42 105.753C240.728 122.863 212.055 120.015 212.055 120.015Z" fill="#AFCCF8"/>
        <path d="M220.008 92.8897C220.008 92.8897 240.482 49.4399 244.433 68.6855C247.915 85.6235 220.008 92.8897 220.008 92.8897Z" fill="#AFCCF8"/>
        <path d="M218.648 66.4513C218.648 66.4513 222.649 18.632 233.096 35.3246C242.259 50.0042 218.648 66.4513 218.648 66.4513Z" fill="#AFCCF8"/>
        <path d="M210.401 44.0637C210.401 44.0637 196.102 -1.7673 212.081 9.81932C226.133 20.0313 210.401 44.0637 210.401 44.0637Z" fill="#AFCCF8"/>
        <path d="M197.407 28.5004C197.407 28.5004 158.484 0.122992 178.267 0.000252276C195.678 -0.0979394 197.407 28.5004 197.407 28.5004Z" fill="#AFCCF8"/>
        <path d="M245.122 67.2283L226.761 104.094C225.242 107.121 221.308 108.978 217.926 108.187L177.303 98.592C175.715 98.2137 174.542 97.3195 173.886 96.1503L173.645 95.3249C173.955 95.6344 174.3 95.9095 174.714 96.1159C175.163 96.391 175.681 96.563 176.268 96.7005L177.683 97.0444L216.925 106.261C220.273 107.052 224.207 105.229 225.726 102.169L243.293 66.8844L244.087 65.3024C244.501 64.4771 244.674 63.6517 244.674 62.8951C244.674 62.5856 244.639 62.2417 244.57 61.9666C244.57 61.9322 246.158 65.0961 245.122 67.2283Z" fill="url(#paint16_linear)"/>
        <path d="M244.673 62.8955C244.673 63.6864 244.501 64.4774 244.086 65.3028L243.293 66.8847L230.695 92.2301L225.76 102.169C224.241 105.195 220.306 107.052 216.959 106.261L177.716 97.0448L176.301 96.7009C175.715 96.5633 175.197 96.357 174.748 96.1162C174.334 95.9099 173.989 95.6348 173.678 95.3253C172.298 93.9496 171.918 91.8519 172.954 89.7885L191.315 52.9223C191.833 51.8563 192.661 50.9621 193.662 50.2399C195.526 48.9331 197.942 48.3141 200.116 48.8299L240.739 58.356C242.809 58.8374 244.19 60.213 244.535 61.9325C244.639 62.242 244.673 62.5859 244.673 62.8955Z" fill="url(#paint17_linear)"/>
        <path d="M211.464 65.337C209.152 69.9109 206.943 74.2096 204.734 78.5427C209.221 79.6776 213.604 80.7781 218.056 81.8786C219.748 78.5084 221.439 75.3445 222.992 72.1118C223.993 70.014 223.337 68.3633 221.232 67.7787C218.091 66.9533 214.847 66.1967 211.464 65.337ZM203.768 72.9028C202.077 72.4901 200.524 72.0774 198.901 71.6647C198.039 73.3499 197.245 74.8974 196.485 76.445C198.211 76.892 199.764 77.2703 201.352 77.683C202.215 76.0323 202.974 74.5191 203.768 72.9028ZM194.829 79.884C192.378 83.5293 193.241 85.6271 197.176 85.799C197.969 84.2515 198.763 82.6696 199.661 80.9501C198.453 80.6405 197.417 80.3654 196.347 80.1247C195.83 80.0215 195.312 79.9527 194.829 79.884ZM208.876 88.8941C212.707 90.201 215.364 88.7566 215.986 85.2144C214.433 84.8361 212.914 84.4234 211.326 84.0452C210.498 85.7303 209.704 87.2434 208.876 88.8941ZM208.048 64.5804C204.216 63.4111 202.077 64.5116 200.8 68.1913C202.387 68.604 203.94 68.9823 205.597 69.395C206.46 67.7099 207.219 66.2311 208.048 64.5804Z" fill="url(#paint18_linear)"/>
        <path d="M211.468 65.3364C214.851 66.1962 218.095 66.9528 221.236 67.8125C223.341 68.3971 224.031 70.0479 222.996 72.1457C221.443 75.3783 219.752 78.5766 218.061 81.9124C213.574 80.7776 209.225 79.6771 204.738 78.5766C206.947 74.2091 209.156 69.9103 211.468 65.3364Z" fill="url(#paint19_linear)"/>
        <path d="M203.771 72.9026C202.942 74.5189 202.183 76.0321 201.355 77.6828C199.802 77.3045 198.214 76.8918 196.488 76.4448C197.282 74.9316 198.041 73.3497 198.904 71.6646C200.526 72.0772 202.114 72.4899 203.771 72.9026Z" fill="url(#paint20_linear)"/>
        <path d="M207.982 83.2537C207.153 84.87 206.394 86.3832 205.566 88.0339C204.013 87.6556 202.425 87.2429 200.699 86.7958C201.493 85.2827 202.252 83.7007 203.115 82.0156C204.737 82.4627 206.29 82.841 207.982 83.2537Z" fill="url(#paint21_linear)"/>
        <path d="M194.831 79.8833C195.314 79.9521 195.831 80.0209 196.315 80.124C197.385 80.3648 198.42 80.6399 199.628 80.9494C198.731 82.7033 197.937 84.2508 197.143 85.7984C193.243 85.6264 192.38 83.5286 194.831 79.8833Z" fill="url(#paint22_linear)"/>
        <path d="M208.879 88.8939C209.707 87.2432 210.501 85.73 211.329 84.0449C212.917 84.4576 214.436 84.8359 215.989 85.2142C215.368 88.7564 212.71 90.2351 208.879 88.8939Z" fill="url(#paint23_linear)"/>
        <path d="M208.049 64.58C207.22 66.2307 206.461 67.7439 205.598 69.3946C203.942 68.9819 202.354 68.5692 200.801 68.1909C202.078 64.4768 204.218 63.3763 208.049 64.58Z" fill="url(#paint24_linear)"/>
        <path d="M244.675 62.895C244.675 63.6859 244.503 64.4769 244.089 65.3023L243.295 66.8842L230.697 92.2297C212.681 82.291 199.324 67.4688 193.664 50.2394C195.528 48.9326 197.944 48.3136 200.118 48.8294L240.741 58.3555C242.812 58.8369 244.192 60.2125 244.537 61.932C244.641 62.2416 244.675 62.5855 244.675 62.895Z" fill="url(#paint25_linear)"/>
        <path d="M140.669 39.7778H131.704L121.841 45.9106V54.27L130.786 48.8013H131.021V79.7778H140.669V39.7778Z" fill="#AFCCF8"/>
    </g>
    <g clip-path="url(#clip1)" filter="url(#filter0_d)">
        <path d="M137.139 152.527C136.387 153.016 135.473 153.278 134.559 153.18H134.526L132.762 152.984L131.489 152.82L116.531 151.057L4.41087 138.78C2.9412 138.616 1.7328 137.441 1.53684 135.971L0.230469 126.992L128.647 141.555L135.702 142.404L137.139 152.527Z" fill="url(#paint26_linear)"/>
        <path d="M150.269 114.616C150.236 114.681 150.236 114.747 150.204 114.812C150.171 114.877 150.138 114.975 150.073 115.073C150.04 115.138 150.008 115.236 149.942 115.302L136.127 141.979L135.115 141.881L102.129 138.551L101.574 138.485L70.8087 135.383L39.1944 132.183L3.17108 128.559L2.61587 128.526C1.50545 128.33 0.623646 127.775 0.231734 126.992C0.133755 126.796 0.0684367 126.567 0.0357773 126.371C-0.0295415 125.947 0.0684367 125.522 0.264393 125.13L13.0016 100.51C13.1975 100.118 13.4914 99.7587 13.8507 99.4648C14.4386 98.975 15.2551 98.6158 16.1695 98.5179C16.5288 98.4852 16.8554 98.4526 17.182 98.4852C17.3779 98.4852 17.5739 98.5179 17.7698 98.5505L48.5023 101.653L84.8522 105.31L147.199 111.612C147.395 111.612 147.591 111.644 147.787 111.677C147.95 111.71 148.113 111.742 148.244 111.808C148.277 111.808 148.309 111.84 148.375 111.84C148.505 111.873 148.636 111.938 148.734 111.971C148.865 112.036 148.995 112.102 149.093 112.167C149.779 112.559 150.236 113.179 150.334 113.865C150.367 114.061 150.367 114.289 150.334 114.485C150.302 114.485 150.269 114.551 150.269 114.616Z" fill="url(#paint27_linear)"/>
        <path d="M46.4123 114.779C46.6736 119.253 41.8727 123.204 35.6347 123.563C29.3968 123.955 24.1386 120.624 23.8774 116.151C23.6161 111.677 28.417 107.726 34.655 107.367C40.8929 107.008 46.1184 110.273 46.4123 114.779Z" fill="url(#paint28_linear)"/>
        <path d="M46.3811 114.257C46.6424 118.731 41.8414 122.682 35.6035 123.041C29.3656 123.433 24.1074 120.102 23.8461 115.629C23.5848 111.155 28.3858 107.204 34.6237 106.845C40.829 106.453 46.0872 109.784 46.3811 114.257Z" fill="url(#paint29_linear)"/>
        <path d="M85.1445 127.122L87.0388 140.543L127.406 157.261L125.512 143.841L85.1445 127.122Z" fill="url(#paint30_linear)"/>
        <path d="M135.835 134.372C135.77 134.339 135.737 134.339 135.672 134.339L135.835 134.372Z" fill="url(#paint31_linear)"/>
        <path d="M145.34 135.351C145.928 139.661 143.935 144.232 139.232 147.889L136.783 149.816L136.652 148.771L139.102 146.845C143.609 143.318 145.666 139.008 145.274 134.861C145.307 135.024 145.34 135.22 145.34 135.351Z" fill="url(#paint32_linear)"/>
        <path d="M129.598 144.918L130.153 149C130.153 149 133.778 147.988 133.353 144.918C132.962 141.849 129.598 144.918 129.598 144.918Z" fill="#2A3448"/>
        <path d="M54.8699 211.106L55.0005 212.151L16.7891 197.685L17.6382 197.032L54.8699 211.106Z" fill="url(#paint33_linear)"/>
        <path d="M145.274 134.861C145.633 139.008 143.608 143.35 139.101 146.844L58.4322 209.735C58.3016 209.865 58.1383 209.996 57.975 210.094C57.975 210.094 57.9423 210.094 57.9423 210.126L56.1134 211.563L17.6406 197.032L103.796 128.101C112.679 121.179 127.931 119.971 137.664 125.424C142.04 127.84 144.588 131.236 145.274 134.861Z" fill="#2A3448"/>
        <path d="M53.3328 198.894C53.3328 198.894 54.3125 207.155 54.8351 211.106L17.636 197.032L16.6562 196.673L27.1073 188.314L53.3328 198.894Z" fill="#2A3448"/>
        <path d="M146.22 134.533C146.253 134.729 146.285 134.893 146.285 135.088C146.645 139.235 144.62 143.578 140.113 147.072L59.4441 209.962L58.9868 210.322C58.9868 210.322 58.9542 210.322 58.9542 210.354C58.7582 210.452 58.4969 210.42 58.3336 210.583C57.5498 211.497 57.0926 210.224 56.9946 209.538L55.7862 200.787C55.7536 200.624 55.7536 200.46 55.7862 200.297C55.8189 200.101 55.8515 199.873 55.9495 199.677C56.0801 199.317 56.3088 199.024 56.6027 198.762C56.6027 198.762 56.6354 198.762 56.6354 198.73C56.7007 198.664 56.766 198.632 56.8313 198.566L138.382 134.958C140.831 133.064 142.53 130.909 143.542 128.656C145.044 130.484 145.926 132.476 146.22 134.533Z" fill="url(#paint34_linear)"/>
        <path d="M53.3356 198.894L53.5315 200.167L13.4258 183.971L14.5035 183.122V183.22L53.3356 198.894Z" fill="url(#paint35_linear)"/>
        <path d="M142.56 128.461C141.548 130.714 139.85 132.836 137.4 134.763L128.68 141.587L116.531 151.057L55.8496 198.338C55.7843 198.371 55.719 198.436 55.6537 198.502C55.6537 198.502 55.621 198.502 55.621 198.534C55.3271 198.796 55.0985 199.09 54.9678 199.449C54.8699 199.645 54.8045 199.873 54.8045 200.069C54.7719 200.232 54.7719 200.396 54.8045 200.559L56.0129 209.31C56.1109 209.996 56.1109 211.073 56.7968 210.975C56.9927 210.943 58.2991 209.865 58.4297 209.734L131.489 152.787L132.763 152.95L56.4375 212.445L56.3069 212.543C56.2742 212.543 56.2742 212.575 56.2416 212.575C55.8823 212.804 54.8699 213.163 54.8372 212.869C54.8045 212.673 55.0658 212.445 55.0332 212.086L54.9025 211.041C54.38 207.057 53.4002 198.828 53.4002 198.828L27.1094 188.314L103.663 127.056C112.546 120.134 127.798 118.926 137.531 124.379C139.621 125.554 141.287 126.926 142.56 128.461Z" fill="url(#paint36_linear)"/>
        <path d="M143.509 122.191C143.802 124.248 143.476 126.371 142.561 128.461C141.288 126.926 139.622 125.554 137.532 124.346C127.799 118.893 112.58 120.101 103.664 127.024L27.1104 188.281L14.5039 183.188V183.122L14.9938 182.763L101.966 114.942C110.849 108.02 126.101 106.812 135.834 112.265C140.406 114.812 142.986 118.403 143.509 122.191Z" fill="url(#paint37_linear)"/>
        <path d="M14.9902 182.763L14.5003 183.122L14.4023 182.535L14.9902 182.763Z" fill="url(#paint38_linear)"/>
        <path d="M137.206 133.489L127.408 141.13L54.5774 197.947C54.5121 197.979 54.4467 198.045 54.3814 198.11L54.3488 198.143C54.0548 198.404 53.8262 198.698 53.6956 199.057L52.7485 198.698L16.2353 183.906L14.5043 183.22L14.439 183.187L13.5898 182.861C13.7531 182.502 13.9818 182.143 14.2757 181.914L73.5525 135.71L101.77 113.701C105.199 111.024 109.576 109.195 114.213 108.281C121.039 106.942 128.42 107.562 134.234 110.305C134.691 110.534 135.148 110.762 135.605 111.024C140.178 113.571 142.758 117.163 143.28 120.983C143.313 121.212 143.346 121.44 143.346 121.669C143.705 125.718 141.68 129.995 137.206 133.489Z" fill="url(#paint39_linear)"/>
        <path d="M129.593 122.518C130.279 127.383 125.348 132.118 118.587 133.032C111.827 133.979 105.785 130.779 105.099 125.914C104.413 121.048 109.345 116.314 116.105 115.399C122.866 114.485 128.908 117.652 129.593 122.518Z" fill="url(#paint40_linear)"/>
        <path d="M129.105 122.223C129.725 126.664 125.218 130.975 119.045 131.824C112.873 132.673 107.353 129.766 106.733 125.326C106.112 120.885 110.619 116.574 116.792 115.725C122.997 114.876 128.484 117.783 129.105 122.223Z" fill="url(#paint41_linear)"/>
        <path d="M40.4023 178.779C40.8922 178.387 41.3821 178.028 41.8394 177.669C42.5579 177.114 43.309 176.559 44.0275 175.971C44.746 175.416 45.9871 175.285 46.9669 175.644C48.5672 176.265 50.1348 176.885 51.7025 177.505C51.7678 177.538 51.8005 177.571 51.8984 177.603C50.2655 178.844 48.6652 180.085 46.9995 181.359C44.8114 180.51 42.6558 179.661 40.4023 178.779Z" fill="url(#paint42_linear)"/>
        <path d="M76.1011 165.554C75.9051 165.358 75.7745 165.195 75.6765 165.097C76.3297 164.738 77.0155 164.411 77.5054 164.052C78.5179 163.301 78.2893 162.583 76.9829 162.06C76.7543 161.962 76.5256 161.864 76.1664 161.734C76.395 162.191 76.3624 162.55 76.0358 162.942C75.154 163.954 73.325 164.411 71.4308 164.085C70.0591 163.856 68.9813 163.399 68.3608 162.681C67.3484 161.538 68.7527 160.068 71.0715 159.84C71.1042 159.84 71.1369 159.84 71.2348 159.807C71.0062 159.709 70.7776 159.611 70.549 159.513C70.7776 159.35 70.9736 159.187 71.2348 158.991C71.3981 159.056 71.5288 159.089 71.6594 159.154C73.6516 159.938 75.6765 160.721 77.6687 161.505C79.5303 162.223 79.8242 163.301 78.4852 164.411C77.8647 164.836 77.1135 165.26 76.1011 165.554ZM73.7823 160.721C73.325 160.591 72.8351 160.46 72.3452 160.362C71.3981 160.199 70.6143 160.362 69.9611 160.787C69.3406 161.178 69.0467 161.636 69.3406 162.125C69.7652 162.876 71.5941 163.53 73.0311 163.464C74.0109 163.399 74.6641 163.105 75.1213 162.648C75.5785 162.158 75.4152 161.734 74.86 161.342C74.5334 161.113 74.1415 160.95 73.7823 160.721Z" fill="url(#paint43_linear)"/>
        <path d="M66.3017 163.693C65.7139 163.465 65.126 163.236 64.5708 163.007C64.0156 162.779 63.4277 162.55 62.8398 162.322C63.1011 162.126 63.3297 161.963 63.5584 161.767C66.661 162.975 69.7636 164.183 72.8663 165.391C72.6377 165.554 72.4417 165.718 72.1804 165.914C71.8865 165.816 71.5926 165.685 71.2333 165.554C71.2986 165.75 71.364 165.881 71.364 166.012C71.5926 167.252 69.3391 168.363 67.0529 168.101C65.5179 167.905 64.3095 167.448 63.493 166.697C62.3173 165.62 63.3297 164.15 65.4199 163.791C65.7139 163.758 66.0078 163.726 66.3017 163.693ZM68.9145 164.607C68.3919 164.509 67.8694 164.346 67.3142 164.281C66.3017 164.15 65.3873 164.281 64.7341 164.771C64.0809 165.26 64.0482 165.783 64.5381 166.273C65.1913 166.926 66.2038 167.285 67.5101 167.416C68.5552 167.514 69.4044 167.318 69.9923 166.795C70.5801 166.273 70.5801 165.783 70.0249 165.293C69.6983 165.065 69.3064 164.869 68.9145 164.607Z" fill="url(#paint44_linear)"/>
        <path d="M60.8128 170.942C61.9233 171.301 63.001 171.399 64.1114 171.04C65.5158 170.582 66.0057 169.864 65.9404 169.015C66.2996 169.015 66.6262 169.048 66.9855 169.048C67.3121 169.995 66.1037 171.236 64.3074 171.725C62.5111 172.215 60.3229 171.921 58.9839 170.974C57.7755 170.125 57.8082 169.048 59.0492 168.133C60.0943 167.382 61.7926 167.154 63.3603 167.578C63.6869 167.676 63.9481 167.774 64.2747 167.872C64.5687 167.97 64.5687 168.068 64.3727 168.231C63.295 169.048 62.2498 169.864 61.2047 170.648C61.0414 170.746 60.9435 170.844 60.8128 170.942ZM63.001 168.297C62.0212 167.84 60.5842 167.938 59.7677 168.525C58.8533 169.178 58.9839 170.158 60.0617 170.55C61.0088 169.799 61.9886 169.048 63.001 168.297Z" fill="url(#paint45_linear)"/>
        <path d="M79.6928 156.411C78.419 157.391 77.2106 158.338 75.9696 159.285C76.5248 159.644 77.8312 159.742 78.811 159.546C80.2153 159.252 80.9991 158.534 81.0644 157.391C81.391 157.391 81.7176 157.424 82.1095 157.424C82.2075 157.815 82.0769 158.207 81.8483 158.566C81.1624 159.644 79.3335 160.362 77.4393 160.33C75.4797 160.297 73.6181 159.415 73.2588 158.371C72.9649 157.554 73.7161 156.542 74.9898 156.052C76.1982 155.595 77.4393 155.66 78.6477 155.987C79.0069 156.117 79.3335 156.281 79.6928 156.411ZM75.1531 158.926C76.1329 158.175 77.1453 157.391 78.1251 156.64C77.08 156.215 75.7083 156.313 74.9245 156.868C74.01 157.522 74.0427 158.403 75.1531 158.926Z" fill="url(#paint46_linear)"/>
        <path d="M50.1367 172.085C50.3653 171.889 50.594 171.758 50.8226 171.53C53.6313 172.64 56.44 173.718 59.2814 174.828C60.3591 173.979 61.4042 173.195 62.482 172.379C62.7759 172.509 63.0372 172.607 63.3311 172.705C62.0574 173.685 60.751 174.697 59.4446 175.709C56.3747 174.534 53.272 173.326 50.1367 172.085Z" fill="url(#paint47_linear)"/>
        <path d="M84.1999 156.705C83.9713 156.869 83.7427 157.064 83.5141 157.228C81.2932 156.346 79.0724 155.497 76.8516 154.615C77.0802 154.452 77.2761 154.289 77.5374 154.093C77.962 154.256 78.3866 154.42 78.8111 154.583C78.3212 153.897 78.2559 153.244 79.301 152.656C79.6276 152.787 79.9215 152.885 80.2155 153.015C80.0195 153.179 79.8236 153.342 79.6929 153.505C79.3663 153.995 79.5949 154.452 80.1175 154.844C80.4767 155.105 80.934 155.366 81.4239 155.562C82.175 155.889 82.9915 156.183 83.808 156.509C83.9386 156.607 84.0693 156.64 84.1999 156.705Z" fill="url(#paint48_linear)"/>
        <path d="M43.964 183.709C43.1149 183.383 42.2984 183.056 41.4492 182.73C42.0697 182.24 42.6903 181.783 43.3108 181.293C44.16 181.619 44.9764 181.946 45.8256 182.273C45.2051 182.762 44.5845 183.22 43.964 183.709Z" fill="url(#paint49_linear)"/>
        <path d="M52.9453 181.554C52.3247 182.044 51.7369 182.501 51.1163 182.958C50.2672 182.632 49.4507 182.305 48.6016 181.979C49.2221 181.522 49.81 181.032 50.4305 180.575C51.247 180.869 52.0635 181.195 52.9453 181.554Z" fill="url(#paint50_linear)"/>
        <path d="M41.7426 180.673C41.1221 181.163 40.5015 181.62 39.9137 182.077C38.2807 181.685 37.3336 180.804 39.2605 179.693C40.077 180.02 40.8935 180.346 41.7426 180.673Z" fill="url(#paint51_linear)"/>
        <path d="M49.8724 183.872C48.7294 185.015 47.2924 185.178 45.4961 184.329C45.79 184.101 46.1166 183.872 46.4106 183.611C46.7045 183.382 47.0311 183.154 47.3577 182.893C48.2068 183.219 49.056 183.546 49.8724 183.872Z" fill="url(#paint52_linear)"/>
        <path d="M54.0876 180.607C53.2384 180.281 52.422 179.954 51.6055 179.628C52.226 179.138 52.8465 178.681 53.4344 178.224C55.2307 178.648 55.9165 179.595 54.0876 180.607Z" fill="url(#paint53_linear)"/>
        <path d="M53.6945 199.024C53.5965 199.22 53.5312 199.449 53.5312 199.645C53.4985 199.808 53.4985 199.971 53.5312 200.134L55.2621 212.477C55.3928 213.359 54.3477 212.902 53.5638 212.543L17.3119 197.914C16.0708 197.424 15.189 196.281 14.9931 194.942L13.4581 183.938C13.4254 183.775 13.4254 183.612 13.4581 183.449C13.4907 183.253 13.5234 183.024 13.6214 182.828L14.4379 183.155L14.5032 183.187L16.2341 183.873L52.78 198.632L53.6945 199.024Z" fill="url(#paint54_linear)"/>
        <path d="M150.336 114.028L151.283 123.856C151.349 124.575 151.218 125.261 150.924 125.914L138.514 150.991C138.187 151.612 137.73 152.134 137.175 152.526C137.175 152.526 137.142 152.526 137.142 152.559C136.881 152.722 136.587 152.885 136.293 152.983L134.758 142.044C134.888 142.012 135.019 141.946 135.15 141.914L136.162 142.012L150.108 115.073C150.238 114.714 150.336 114.354 150.336 114.028Z" fill="url(#paint55_linear)"/>
        <path d="M134.759 142.011L136.294 152.95C135.772 153.146 135.184 153.244 134.563 153.179H134.53L132.767 152.983L131.493 152.82L116.535 151.056L128.684 141.587L133.453 142.175H133.485C133.91 142.207 134.335 142.142 134.759 142.011Z" fill="url(#paint56_linear)"/>
        <path d="M142.921 128.886L136.748 140.347C136.16 141.555 134.821 142.274 133.449 142.143H133.417L128.648 141.555L137.368 134.731C139.818 132.837 141.516 130.682 142.529 128.429L142.921 128.886Z" fill="url(#paint57_linear)"/>
        <path d="M129.399 110.828C123.847 110.893 118.425 112.102 113.918 114.453L76.7844 133.914L73.7471 133.032L59.6055 102.795L122.638 108.836L129.399 110.828Z" fill="url(#paint58_linear)"/>
    </g>
    <defs>
        <filter id="filter0_d" x="0" y="89.4077" width="154.311" height="125.593" filterUnits="userSpaceOnUse" color-interpolation-filters="sRGB">
            <feFlood flood-opacity="0" result="BackgroundImageFix"/>
            <feColorMatrix in="SourceAlpha" type="matrix" values="0 0 0 0 0 0 0 0 0 0 0 0 0 0 0 0 0 0 127 0"/>
            <feOffset dx="3" dy="2"/>
            <feColorMatrix type="matrix" values="0 0 0 0 0 0 0 0 0 0 0 0 0 0 0 0 0 0 0.1 0"/>
            <feBlend mode="normal" in2="BackgroundImageFix" result="effect1_dropShadow"/>
            <feBlend mode="normal" in="SourceGraphic" in2="effect1_dropShadow" result="shape"/>
        </filter>
        <radialGradient id="paint0_radial" cx="0" cy="0" r="1" gradientUnits="userSpaceOnUse" gradientTransform="translate(99.5329 100.285) scale(118.696 61.3133)">
            <stop stop-color="#B6D3F8" stop-opacity="0.4"/>
            <stop offset="1" stop-color="#A1CAF6" stop-opacity="0.6"/>
        </radialGradient>
        <radialGradient id="paint1_radial" cx="0" cy="0" r="1" gradientUnits="userSpaceOnUse" gradientTransform="translate(172.458 98.379) scale(111.451 62.7298)">
            <stop stop-color="#B6D3F8" stop-opacity="0.4"/>
            <stop offset="1" stop-color="#A1CAF6" stop-opacity="0.6"/>
        </radialGradient>
        <radialGradient id="paint2_radial" cx="0" cy="0" r="1" gradientUnits="userSpaceOnUse" gradientTransform="translate(80.5647 170.539) scale(41.4517 4.90727)">
            <stop stop-color="#B6D3F8" stop-opacity="0.4"/>
            <stop offset="1" stop-color="#A1CAF6" stop-opacity="0.6"/>
        </radialGradient>
        <radialGradient id="paint3_radial" cx="0" cy="0" r="1" gradientUnits="userSpaceOnUse" gradientTransform="translate(58.4486 145.242) scale(41.1386 5.36844)">
            <stop stop-color="#B6D3F8" stop-opacity="0.4"/>
            <stop offset="1" stop-color="#A1CAF6" stop-opacity="0.6"/>
        </radialGradient>
        <radialGradient id="paint4_radial" cx="0" cy="0" r="1" gradientUnits="userSpaceOnUse" gradientTransform="translate(41.8387 112.986) scale(36.3016 7.60219)">
            <stop stop-color="#B6D3F8" stop-opacity="0.4"/>
            <stop offset="1" stop-color="#A1CAF6" stop-opacity="0.6"/>
        </radialGradient>
        <radialGradient id="paint5_radial" cx="0" cy="0" r="1" gradientUnits="userSpaceOnUse" gradientTransform="translate(37.3133 81.3618) scale(28.4479 10.8148)">
            <stop stop-color="#B6D3F8" stop-opacity="0.4"/>
            <stop offset="1" stop-color="#A1CAF6" stop-opacity="0.6"/>
        </radialGradient>
        <radialGradient id="paint6_radial" cx="0" cy="0" r="1" gradientUnits="userSpaceOnUse" gradientTransform="translate(42.7689 52.1554) scale(19.0529 12.8726)">
            <stop stop-color="#B6D3F8" stop-opacity="0.4"/>
            <stop offset="1" stop-color="#A1CAF6" stop-opacity="0.6"/>
        </radialGradient>
        <radialGradient id="paint7_radial" cx="0" cy="0" r="1" gradientUnits="userSpaceOnUse" gradientTransform="translate(58.4891 29.0392) scale(15.4205 13.4142)">
            <stop stop-color="#B6D3F8" stop-opacity="0.4"/>
            <stop offset="1" stop-color="#A1CAF6" stop-opacity="0.6"/>
        </radialGradient>
        <radialGradient id="paint8_radial" cx="0" cy="0" r="1" gradientUnits="userSpaceOnUse" gradientTransform="translate(84.6478 17.283) scale(28.4718 10.5839)">
            <stop stop-color="#B6D3F8" stop-opacity="0.4"/>
            <stop offset="1" stop-color="#A1CAF6" stop-opacity="0.6"/>
        </radialGradient>
        <radialGradient id="paint9_radial" cx="0" cy="0" r="1" gradientUnits="userSpaceOnUse" gradientTransform="translate(187.897 170.539) scale(41.4518 4.90727)">
            <stop stop-color="#B6D3F8" stop-opacity="0.4"/>
            <stop offset="1" stop-color="#A1CAF6" stop-opacity="0.6"/>
        </radialGradient>
        <radialGradient id="paint10_radial" cx="0" cy="0" r="1" gradientUnits="userSpaceOnUse" gradientTransform="translate(210.015 145.242) scale(41.1386 5.36844)">
            <stop stop-color="#B6D3F8" stop-opacity="0.4"/>
            <stop offset="1" stop-color="#A1CAF6" stop-opacity="0.6"/>
        </radialGradient>
        <radialGradient id="paint11_radial" cx="0" cy="0" r="1" gradientUnits="userSpaceOnUse" gradientTransform="translate(226.639 112.986) scale(36.3016 7.60219)">
            <stop stop-color="#B6D3F8" stop-opacity="0.4"/>
            <stop offset="1" stop-color="#A1CAF6" stop-opacity="0.6"/>
        </radialGradient>
        <radialGradient id="paint12_radial" cx="0" cy="0" r="1" gradientUnits="userSpaceOnUse" gradientTransform="translate(231.192 81.3618) scale(28.4479 10.8148)">
            <stop stop-color="#B6D3F8" stop-opacity="0.4"/>
            <stop offset="1" stop-color="#A1CAF6" stop-opacity="0.6"/>
        </radialGradient>
        <radialGradient id="paint13_radial" cx="0" cy="0" r="1" gradientUnits="userSpaceOnUse" gradientTransform="translate(225.765 52.1554) scale(19.0529 12.8726)">
            <stop stop-color="#B6D3F8" stop-opacity="0.4"/>
            <stop offset="1" stop-color="#A1CAF6" stop-opacity="0.6"/>
        </radialGradient>
        <radialGradient id="paint14_radial" cx="0" cy="0" r="1" gradientUnits="userSpaceOnUse" gradientTransform="translate(210.059 29.0392) scale(15.4204 13.4142)">
            <stop stop-color="#B6D3F8" stop-opacity="0.4"/>
            <stop offset="1" stop-color="#A1CAF6" stop-opacity="0.6"/>
        </radialGradient>
        <radialGradient id="paint15_radial" cx="0" cy="0" r="1" gradientUnits="userSpaceOnUse" gradientTransform="translate(183.855 17.283) scale(28.4718 10.5839)">
            <stop stop-color="#B6D3F8" stop-opacity="0.4"/>
            <stop offset="1" stop-color="#A1CAF6" stop-opacity="0.6"/>
        </radialGradient>
        <linearGradient id="paint16_linear" x1="209.665" y1="93.21" x2="216.009" y2="88.5045" gradientUnits="userSpaceOnUse">
            <stop stop-color="#7C889D"/>
            <stop offset="0.1864" stop-color="#929EB0"/>
            <stop offset="0.5363" stop-color="#B7C2CF"/>
            <stop offset="0.82" stop-color="#CED9E2"/>
            <stop offset="1" stop-color="#D6E1E9"/>
        </linearGradient>
        <linearGradient id="paint17_linear" x1="172.367" y1="77.5372" x2="244.682" y2="77.5372" gradientUnits="userSpaceOnUse">
            <stop stop-color="#C0D2E1"/>
            <stop offset="0.0382942" stop-color="#C5D6E3"/>
            <stop offset="0.2589" stop-color="#DFE8F0"/>
            <stop offset="0.488" stop-color="#F1F5F8"/>
            <stop offset="0.7286" stop-color="#FBFCFD"/>
            <stop offset="1" stop-color="white"/>
        </linearGradient>
        <linearGradient id="paint18_linear" x1="232.188" y1="48.7217" x2="225.031" y2="87.2455" gradientUnits="userSpaceOnUse">
            <stop stop-color="#21313E"/>
            <stop offset="0.1912" stop-color="#293643"/>
            <stop offset="0.3966" stop-color="#4A505B"/>
            <stop offset="0.6915" stop-color="#21313E"/>
            <stop offset="0.9971" stop-color="#3D4653"/>
        </linearGradient>
        <linearGradient id="paint19_linear" x1="224.126" y1="45.3201" x2="220.274" y2="85.412" gradientUnits="userSpaceOnUse">
            <stop stop-color="#21313E"/>
            <stop offset="0.1912" stop-color="#293643"/>
            <stop offset="0.3966" stop-color="#4A505B"/>
            <stop offset="0.6915" stop-color="#21313E"/>
            <stop offset="0.9971" stop-color="#3D4653"/>
        </linearGradient>
        <linearGradient id="paint20_linear" x1="210.58" y1="44.0189" x2="206.727" y2="84.1107" gradientUnits="userSpaceOnUse">
            <stop stop-color="#21313E"/>
            <stop offset="0.1912" stop-color="#293643"/>
            <stop offset="0.3966" stop-color="#4A505B"/>
            <stop offset="0.6915" stop-color="#21313E"/>
            <stop offset="0.9971" stop-color="#3D4653"/>
        </linearGradient>
        <linearGradient id="paint21_linear" x1="218.063" y1="44.7376" x2="214.211" y2="84.8295" gradientUnits="userSpaceOnUse">
            <stop stop-color="#21313E"/>
            <stop offset="0.1912" stop-color="#293643"/>
            <stop offset="0.3966" stop-color="#4A505B"/>
            <stop offset="0.6915" stop-color="#21313E"/>
            <stop offset="0.9971" stop-color="#3D4653"/>
        </linearGradient>
        <linearGradient id="paint22_linear" x1="209.467" y1="43.9116" x2="205.615" y2="84.0035" gradientUnits="userSpaceOnUse">
            <stop stop-color="#21313E"/>
            <stop offset="0.1912" stop-color="#293643"/>
            <stop offset="0.3966" stop-color="#4A505B"/>
            <stop offset="0.6915" stop-color="#21313E"/>
            <stop offset="0.9971" stop-color="#3D4653"/>
        </linearGradient>
        <linearGradient id="paint23_linear" x1="226.608" y1="45.559" x2="222.756" y2="85.6508" gradientUnits="userSpaceOnUse">
            <stop stop-color="#21313E"/>
            <stop offset="0.1912" stop-color="#293643"/>
            <stop offset="0.3966" stop-color="#4A505B"/>
            <stop offset="0.6915" stop-color="#21313E"/>
            <stop offset="0.9971" stop-color="#3D4653"/>
        </linearGradient>
        <linearGradient id="paint24_linear" x1="211.983" y1="44.1536" x2="208.13" y2="84.2455" gradientUnits="userSpaceOnUse">
            <stop stop-color="#21313E"/>
            <stop offset="0.1912" stop-color="#293643"/>
            <stop offset="0.3966" stop-color="#4A505B"/>
            <stop offset="0.6915" stop-color="#21313E"/>
            <stop offset="0.9971" stop-color="#3D4653"/>
        </linearGradient>
        <linearGradient id="paint25_linear" x1="193.668" y1="70.4393" x2="244.684" y2="70.4393" gradientUnits="userSpaceOnUse">
            <stop stop-color="white" stop-opacity="0.3"/>
            <stop offset="1" stop-color="white" stop-opacity="0"/>
        </linearGradient>
        <linearGradient id="paint26_linear" x1="104.867" y1="102.819" x2="50.5019" y2="158.441" gradientUnits="userSpaceOnUse">
            <stop stop-color="#152532"/>
            <stop offset="0.0518277" stop-color="#172733"/>
            <stop offset="0.4477" stop-color="#202F3A"/>
            <stop offset="1" stop-color="#23313C"/>
        </linearGradient>
        <linearGradient id="paint27_linear" x1="55.7919" y1="60.009" x2="88.9852" y2="163.122" gradientUnits="userSpaceOnUse">
            <stop stop-color="#23313C"/>
            <stop offset="0.1912" stop-color="#293641"/>
            <stop offset="0.3966" stop-color="#4A505B"/>
            <stop offset="0.6915" stop-color="#23313C"/>
            <stop offset="0.9971" stop-color="#3D4651"/>
        </linearGradient>
        <linearGradient id="paint28_linear" x1="22.5123" y1="128.068" x2="47.6204" y2="103.151" gradientUnits="userSpaceOnUse">
            <stop stop-color="#152532"/>
            <stop offset="0.0518277" stop-color="#172733"/>
            <stop offset="0.4477" stop-color="#202F3A"/>
            <stop offset="1" stop-color="#23313C"/>
        </linearGradient>
        <linearGradient id="paint29_linear" x1="31.803" y1="120.524" x2="45.9079" y2="97.1498" gradientUnits="userSpaceOnUse">
            <stop stop-color="#152532"/>
            <stop offset="0.0518277" stop-color="#172733"/>
            <stop offset="0.4477" stop-color="#202F3A"/>
            <stop offset="1" stop-color="#23313C"/>
        </linearGradient>
        <linearGradient id="paint30_linear" x1="87.6909" y1="144.793" x2="125.003" y2="139.578" gradientUnits="userSpaceOnUse">
            <stop stop-color="#394A66"/>
            <stop offset="1" stop-color="#2A3448"/>
        </linearGradient>
        <linearGradient id="paint31_linear" x1="135.728" y1="134.379" x2="135.877" y2="134.353" gradientUnits="userSpaceOnUse">
            <stop stop-color="#5F748F"/>
            <stop offset="1" stop-color="#65769D"/>
        </linearGradient>
        <linearGradient id="paint32_linear" x1="135.891" y1="143.084" x2="146.296" y2="141.63" gradientUnits="userSpaceOnUse">
            <stop stop-color="#A3B4CE"/>
            <stop offset="1" stop-color="#5F748F"/>
        </linearGradient>
        <linearGradient id="paint33_linear" x1="18.1924" y1="207.131" x2="53.6788" y2="202.171" gradientUnits="userSpaceOnUse">
            <stop stop-color="#A3B4CE"/>
            <stop offset="1" stop-color="#5F748F"/>
        </linearGradient>
        <linearGradient id="paint34_linear" x1="52.4545" y1="176.546" x2="150.235" y2="162.879" gradientUnits="userSpaceOnUse">
            <stop stop-color="#23313C"/>
            <stop offset="0.1912" stop-color="#293641"/>
            <stop offset="0.3966" stop-color="#4A505B"/>
            <stop offset="0.6915" stop-color="#23313C"/>
            <stop offset="0.9971" stop-color="#3D4651"/>
        </linearGradient>
        <linearGradient id="paint35_linear" x1="14.9425" y1="194.321" x2="52.057" y2="189.134" gradientUnits="userSpaceOnUse">
            <stop stop-color="#A3B4CE"/>
            <stop offset="1" stop-color="#5F748F"/>
        </linearGradient>
        <linearGradient id="paint36_linear" x1="25.4201" y1="175.715" x2="146.862" y2="158.742" gradientUnits="userSpaceOnUse">
            <stop stop-color="#A3B4CE"/>
            <stop offset="1" stop-color="#5F748F"/>
        </linearGradient>
        <linearGradient id="paint37_linear" x1="10.9466" y1="157.247" x2="145.842" y2="138.393" gradientUnits="userSpaceOnUse">
            <stop stop-color="#A3B4CE"/>
            <stop offset="1" stop-color="#5F748F"/>
        </linearGradient>
        <linearGradient id="paint38_linear" x1="14.8806" y1="182.434" x2="14.5833" y2="182.99" gradientUnits="userSpaceOnUse">
            <stop stop-color="#A3B4CE"/>
            <stop offset="1" stop-color="#5F748F"/>
        </linearGradient>
        <linearGradient id="paint39_linear" x1="68.5969" y1="148.594" x2="112.738" y2="158.597" gradientUnits="userSpaceOnUse">
            <stop stop-color="#A3B4CE"/>
            <stop offset="1" stop-color="#DFEAFF"/>
        </linearGradient>
        <linearGradient id="paint40_linear" x1="117.381" y1="124.277" x2="101.149" y2="141.81" gradientUnits="userSpaceOnUse">
            <stop stop-color="#A3B4CE"/>
            <stop offset="1" stop-color="#5F748F"/>
        </linearGradient>
        <linearGradient id="paint41_linear" x1="106.824" y1="125.348" x2="129.188" y2="122.222" gradientUnits="userSpaceOnUse">
            <stop stop-color="#A3B4CE"/>
            <stop offset="1" stop-color="#DFEAFF"/>
        </linearGradient>
        <linearGradient id="paint42_linear" x1="37.4962" y1="165.516" x2="51.2082" y2="185.455" gradientUnits="userSpaceOnUse">
            <stop stop-color="#A3B4CE"/>
            <stop offset="1" stop-color="#5F748F"/>
        </linearGradient>
        <linearGradient id="paint43_linear" x1="63.5253" y1="147.617" x2="77.2371" y2="167.557" gradientUnits="userSpaceOnUse">
            <stop stop-color="#A3B4CE"/>
            <stop offset="1" stop-color="#5F748F"/>
        </linearGradient>
        <linearGradient id="paint44_linear" x1="58.0956" y1="151.351" x2="71.8074" y2="171.29" gradientUnits="userSpaceOnUse">
            <stop stop-color="#A3B4CE"/>
            <stop offset="1" stop-color="#5F748F"/>
        </linearGradient>
        <linearGradient id="paint45_linear" x1="52.6469" y1="155.096" x2="66.3587" y2="175.035" gradientUnits="userSpaceOnUse">
            <stop stop-color="#A3B4CE"/>
            <stop offset="1" stop-color="#5F748F"/>
        </linearGradient>
        <linearGradient id="paint46_linear" x1="68.3651" y1="144.289" x2="82.077" y2="164.228" gradientUnits="userSpaceOnUse">
            <stop stop-color="#A3B4CE"/>
            <stop offset="1" stop-color="#5F748F"/>
        </linearGradient>
        <linearGradient id="paint47_linear" x1="47.3836" y1="158.718" x2="61.0955" y2="178.657" gradientUnits="userSpaceOnUse">
            <stop stop-color="#A3B4CE"/>
            <stop offset="1" stop-color="#5F748F"/>
        </linearGradient>
        <linearGradient id="paint48_linear" x1="71.3554" y1="142.233" x2="85.0672" y2="162.172" gradientUnits="userSpaceOnUse">
            <stop stop-color="#A3B4CE"/>
            <stop offset="1" stop-color="#5F748F"/>
        </linearGradient>
        <linearGradient id="paint49_linear" x1="33.7811" y1="168.072" x2="47.4928" y2="188.011" gradientUnits="userSpaceOnUse">
            <stop stop-color="#A3B4CE"/>
            <stop offset="1" stop-color="#5F748F"/>
        </linearGradient>
        <linearGradient id="paint50_linear" x1="38.9566" y1="164.513" x2="52.6684" y2="184.452" gradientUnits="userSpaceOnUse">
            <stop stop-color="#A3B4CE"/>
            <stop offset="1" stop-color="#5F748F"/>
        </linearGradient>
        <linearGradient id="paint51_linear" x1="32.0457" y1="169.265" x2="45.7575" y2="189.204" gradientUnits="userSpaceOnUse">
            <stop stop-color="#A3B4CE"/>
            <stop offset="1" stop-color="#5F748F"/>
        </linearGradient>
        <linearGradient id="paint52_linear" x1="35.798" y1="166.682" x2="49.51" y2="186.622" gradientUnits="userSpaceOnUse">
            <stop stop-color="#A3B4CE"/>
            <stop offset="1" stop-color="#5F748F"/>
        </linearGradient>
        <linearGradient id="paint53_linear" x1="41.8241" y1="162.54" x2="55.5359" y2="182.48" gradientUnits="userSpaceOnUse">
            <stop stop-color="#A3B4CE"/>
            <stop offset="1" stop-color="#5F748F"/>
        </linearGradient>
        <linearGradient id="paint54_linear" x1="36.6331" y1="192.38" x2="33.0683" y2="201.422" gradientUnits="userSpaceOnUse">
            <stop stop-color="#A3B4CE"/>
            <stop offset="1" stop-color="#5F748F"/>
        </linearGradient>
        <linearGradient id="paint55_linear" x1="133.873" y1="134.812" x2="136.049" y2="134.508" gradientUnits="userSpaceOnUse">
            <stop stop-color="#152532"/>
            <stop offset="0.0518277" stop-color="#172733"/>
            <stop offset="0.4477" stop-color="#202F3A"/>
            <stop offset="1" stop-color="#23313C"/>
        </linearGradient>
        <linearGradient id="paint56_linear" x1="145.95" y1="147.174" x2="113.081" y2="147.65" gradientUnits="userSpaceOnUse">
            <stop stop-color="#23313C"/>
            <stop offset="0.1912" stop-color="#293641"/>
            <stop offset="0.3674" stop-color="#676771"/>
            <stop offset="0.5909" stop-color="#39434D"/>
            <stop offset="0.6915" stop-color="#23313C"/>
            <stop offset="0.9971" stop-color="#3D4651"/>
        </linearGradient>
        <linearGradient id="paint57_linear" x1="144.694" y1="131.873" x2="128.503" y2="141.179" gradientUnits="userSpaceOnUse">
            <stop stop-color="#152532"/>
            <stop offset="0.0518277" stop-color="#172733"/>
            <stop offset="0.4477" stop-color="#202F3A"/>
            <stop offset="1" stop-color="#23313C"/>
        </linearGradient>
        <linearGradient id="paint58_linear" x1="80.7515" y1="54.2932" x2="97.3426" y2="120.575" gradientUnits="userSpaceOnUse">
            <stop stop-color="white" stop-opacity="0.3"/>
            <stop offset="1" stop-color="white" stop-opacity="0"/>
        </linearGradient>
        <clipPath id="clip0">
            <rect width="219.73" height="182.759" fill="white" transform="translate(25)"/>
        </clipPath>
        <clipPath id="clip1">
            <rect width="151.311" height="123.593" fill="white" transform="translate(0 89.4077)"/>
        </clipPath>
    </defs>
</svg>
