<?xml version="1.0" encoding="utf-8"?>
<!-- Generator: Adobe Illustrator 26.0.3, SVG Export Plug-In . SVG Version: 6.00 Build 0)  -->
<svg version="1.1" id="Layer_1" xmlns="http://www.w3.org/2000/svg" xmlns:xlink="http://www.w3.org/1999/xlink" x="0px" y="0px"
	 viewBox="0 0 246 212" style="enable-background:new 0 0 246 212;" xml:space="preserve">
<style type="text/css">
	.st0{fill:url(#Path_00000047754472675213408970000002303748747177775744_);}
	.st1{fill:url(#Path_00000176722759424742097130000015191913262643283363_);}
	.st2{fill:url(#Path_00000154396051283319573070000000872044574768875156_);}
	.st3{fill:url(#Path_00000083048871270976252380000015210139522508734644_);}
	.st4{fill:url(#Path_00000182495285971428877240000014320504075636046986_);}
	.st5{fill:url(#Path_00000076594694787661611710000008515730588670364081_);}
	.st6{fill:url(#Path_00000051368036536332824660000010041977062486328224_);}
	.st7{fill:url(#Path_00000133511476702492139600000000534931750898643349_);}
	.st8{fill:url(#Path_00000035529250098610518130000018264255603030316988_);}
	.st9{fill:url(#Path_00000008146761615589630620000008222526900418815107_);}
	.st10{fill:url(#Path_00000119803689505928768280000010199844135607404166_);}
	.st11{fill:url(#Path_00000125578896680636569300000015918826170197328533_);}
	.st12{fill:url(#Path_00000153688900291378892910000001213988573115374504_);}
	.st13{fill:url(#Path_00000103247748953841689560000000853032637990439076_);}
	.st14{fill:url(#Path_00000093866080540116806070000017709552357056307095_);}
	.st15{fill:url(#Path_00000164494746718514860740000010247396601167066032_);}
	.st16{fill:#AFCCF8;}
	.st17{fill:url(#Path_00000013911878553482381480000006388201659683029385_);}
	.st18{fill:url(#Path_00000012466438819500521680000003692963913831726500_);}
	.st19{fill:url(#Path_00000170255859837597700210000009008702398201148082_);}
	.st20{fill:url(#Path_00000093857236552518416740000015056670086344055946_);}
	.st21{fill:url(#Path_00000001656508980270057450000004295361634290560689_);}
	.st22{fill:url(#Path_00000120540623601181584320000014757953048136147856_);}
	.st23{fill:url(#Path_00000165925349748683356470000014366075319625283742_);}
	.st24{fill:url(#Path_00000163062531233011257000000005656821531237082033_);}
	.st25{fill:url(#Path_00000166659724829531100420000013392705051161739189_);}
	.st26{fill:#2A3448;}
	.st27{fill:url(#Path_00000141431810312754927030000014768296400206430631_);}
	.st28{fill:url(#Path_00000029015978369342275400000002731593560869246094_);}
	.st29{fill:url(#Path_00000114767341644498705340000011170699557674649525_);}
	.st30{fill:url(#Path_00000140000836777915858480000009547128744433000639_);}
	.st31{fill:url(#Path_00000062912697898825096780000016185177357944007835_);}
	.st32{fill:url(#Path_00000024719250736199773670000003951488929580259235_);}
	.st33{fill:url(#Path_00000168812730455389008980000002457142026929035434_);}
	.st34{fill:url(#Path_00000062183104152559691520000000716228662067873926_);}
	.st35{fill:url(#Path_00000098935192287762052370000017188802990477375668_);}
	.st36{fill:url(#Path_00000134936508307190745340000003892519038745655711_);}
	.st37{fill:url(#Path_00000120560944337586629080000017182573897078166944_);}
	.st38{fill:url(#Path_00000119805966837225133570000009647858656367624604_);}
	.st39{fill:url(#Path_00000157284608593459782250000010017010116371485624_);}
	.st40{fill:url(#Path_00000078014125339398137340000006268598347979397019_);}
	.st41{fill:url(#SVGID_1_);}
	.st42{fill:url(#SVGID_00000060732053143481438710000000290311797509978244_);}
</style>
<g id="Page-1">
	<g id="quizSuccess">
		<g id="Group" transform="translate(25.000000, 0.000000)">
			
				<radialGradient id="Path_00000168797680055192003580000007405508739363758751_" cx="-297.8266" cy="503.6602" r="1.1497" gradientTransform="matrix(103.1673 0 0 -103.1673 30800.4883 52061.4961)" gradientUnits="userSpaceOnUse">
				<stop  offset="0" style="stop-color:#B6D3F8;stop-opacity:0.4"/>
				<stop  offset="1" style="stop-color:#A1CAF6;stop-opacity:0.6"/>
			</radialGradient>
			<path id="Path" style="fill:url(#Path_00000168797680055192003580000007405508739363758751_);" d="M124.6,182.8
				c-0.3,0-0.6-0.1-0.9-0.3c-5.1-3.2-19.5-7.2-31-10.5c-7.8-2.2-14.5-4.1-17.7-5.4C43.5,152.9,23.1,122,23.1,87.8
				c0-13.9,3.4-27.7,9.9-39.9c6.2-11.8,15.3-22.2,26.2-30c0.8-0.5,1.8-0.4,2.4,0.4c0.5,0.8-2,2-2.8,2.6C48.3,28.5,42,38.2,36,49.5
				c-6.2,11.7-9.5,25-9.5,38.3c0,32.8,19.6,62.5,49.9,75.7c2.9,1.3,9.9,3.2,17.2,5.3c12.4,3.5,26.4,7.4,31.9,10.9
				c0.8,0.5,1,1.5,0.5,2.3C125.7,182.5,125.2,182.8,124.6,182.8z"/>
			
				<radialGradient id="Path_00000124122254129000102380000006268125095808560299_" cx="-297.6527" cy="503.4757" r="1.1497" gradientTransform="matrix(96.8699 0 0 -96.8699 28981.0352 48869.918)" gradientUnits="userSpaceOnUse">
				<stop  offset="0" style="stop-color:#B6D3F8;stop-opacity:0.4"/>
				<stop  offset="1" style="stop-color:#A1CAF6;stop-opacity:0.6"/>
			</radialGradient>
			
				<path id="Path_00000147218896678094281280000012371136987868741250_" style="fill:url(#Path_00000124122254129000102380000006268125095808560299_);" d="
				M100.9,182.8c-0.6,0-1.1-0.3-1.5-0.8c-0.5-0.8-0.2-1.8,0.5-2.3c5.4-3.3,24.1-9.5,33-12.5c1.5-0.5,2.8-0.9,3.6-1.2
				c33.5-11.5,56-42.8,56-78c0-14.4-3.8-28.5-10.9-41c-6.9-12-15.9-24.3-27.8-31.5c-0.8-0.5-1.6-0.3-1.1-1.1c0.5-0.8,1-0.2,1.9,0.2
				c12.4,7.5,22.7,18.2,30,30.7c7.4,12.9,11.4,27.7,11.4,42.6c0,36.6-23.4,69.3-58.3,81.3c-0.8,0.3-2.1,0.7-3.7,1.2
				c-8.2,2.7-27.3,9.1-32.3,12.2C101.5,182.7,101.2,182.8,100.9,182.8z"/>
			
				<radialGradient id="Path_00000142155614499320023410000008473449424449556919_" cx="-279.6153" cy="484.327" r="3.1366" gradientTransform="matrix(13.2143 0 0 -13.2143 3750.4746 6570.5576)" gradientUnits="userSpaceOnUse">
				<stop  offset="0" style="stop-color:#B6D3F8;stop-opacity:0.4"/>
				<stop  offset="1" style="stop-color:#A1CAF6;stop-opacity:0.6"/>
			</radialGradient>
			
				<path id="Path_00000001630723563068157440000016859515888033202327_" style="fill:url(#Path_00000142155614499320023410000008473449424449556919_);" d="
				M73.6,164.3c0,0-48.2-3.3-33.1,9.5C53.7,185,73.6,164.3,73.6,164.3z"/>
			
				<radialGradient id="Path_00000151529345898204276470000009890826526081183162_" cx="-281.4096" cy="486.2318" r="2.8454" gradientTransform="matrix(14.4561 0 0 -14.4561 4101.5322 7174.2578)" gradientUnits="userSpaceOnUse">
				<stop  offset="0" style="stop-color:#B6D3F8;stop-opacity:0.4"/>
				<stop  offset="1" style="stop-color:#A1CAF6;stop-opacity:0.6"/>
			</radialGradient>
			
				<path id="Path_00000098193456408655654490000016564350168971128754_" style="fill:url(#Path_00000151529345898204276470000009890826526081183162_);" d="
				M51.4,147.6c0,0-44-19.7-34.4-2.5C25.5,160.1,51.4,147.6,51.4,147.6z"/>
			
				<radialGradient id="Path_00000036227043563261084180000014894692350889324461_" cx="-287.0197" cy="492.1874" r="1.7728" gradientTransform="matrix(20.4715 0 0 -20.4715 5892.5557 10188.7783)" gradientUnits="userSpaceOnUse">
				<stop  offset="0" style="stop-color:#B6D3F8;stop-opacity:0.4"/>
				<stop  offset="1" style="stop-color:#A1CAF6;stop-opacity:0.6"/>
			</radialGradient>
			
				<path id="Path_00000057113049008382880540000017336886507128224910_" style="fill:url(#Path_00000036227043563261084180000014894692350889324461_);" d="
				M32.7,123c0,0-34.4-33.7-31.4-14.3C4,125.9,32.7,123,32.7,123z"/>
			
				<radialGradient id="Path_00000123417175409960633150000008254990165180199857_" cx="-289.3396" cy="494.6503" r="1.1499" gradientTransform="matrix(24.7261 0 0 -24.7261 7166.5664 12312.1436)" gradientUnits="userSpaceOnUse">
				<stop  offset="0" style="stop-color:#B6D3F8;stop-opacity:0.4"/>
				<stop  offset="1" style="stop-color:#A1CAF6;stop-opacity:0.6"/>
			</radialGradient>
			
				<path id="Path_00000144331053122481495300000010484257916420153533_" style="fill:url(#Path_00000123417175409960633150000008254990165180199857_);" d="
				M24.7,95.9c0,0-20.5-43.4-24.4-24.2C-3.2,88.6,24.7,95.9,24.7,95.9z"/>
			
				<radialGradient id="Path_00000161593255214947089630000001467494691795318684_" cx="-283.8355" cy="488.8076" r="1.1496" gradientTransform="matrix(16.5603 0 0 -16.5603 4718.1621 8146.9209)" gradientUnits="userSpaceOnUse">
				<stop  offset="0" style="stop-color:#B6D3F8;stop-opacity:0.4"/>
				<stop  offset="1" style="stop-color:#A1CAF6;stop-opacity:0.6"/>
			</radialGradient>
			
				<path id="Path_00000037692855061131596150000010445754961613087124_" style="fill:url(#Path_00000161593255214947089630000001467494691795318684_);" d="
				M26.1,69.5c0,0-4-47.8-14.4-31.1C2.5,53,26.1,69.5,26.1,69.5z"/>
			
				<radialGradient id="Path_00000124877222844050569690000013285610170477538464_" cx="-279.9095" cy="484.64" r="1.1496" gradientTransform="matrix(13.403 0 0 -13.403 3785.1223 6524.6587)" gradientUnits="userSpaceOnUse">
				<stop  offset="0" style="stop-color:#B6D3F8;stop-opacity:0.4"/>
				<stop  offset="1" style="stop-color:#A1CAF6;stop-opacity:0.6"/>
			</radialGradient>
			
				<path id="Path_00000075131939045877793980000010197817212326290833_" style="fill:url(#Path_00000124877222844050569690000013285610170477538464_);" d="
				M34.3,47.1c0,0,14.3-45.8-1.7-34.2C18.6,23.1,34.3,47.1,34.3,47.1z"/>
			
				<radialGradient id="Path_00000093135178872006298140000010894405561011411856_" cx="-289.349" cy="494.6603" r="1.1499" gradientTransform="matrix(24.747 0 0 -24.7472 7220.1553 12258.7158)" gradientUnits="userSpaceOnUse">
				<stop  offset="0" style="stop-color:#B6D3F8;stop-opacity:0.4"/>
				<stop  offset="1" style="stop-color:#A1CAF6;stop-opacity:0.6"/>
			</radialGradient>
			
				<path id="Path_00000029037383223983082160000012109728123066080183_" style="fill:url(#Path_00000093135178872006298140000010894405561011411856_);" d="
				M47.3,31.5c0,0,38.9-28.4,19.1-28.5C49,2.9,47.3,31.5,47.3,31.5z"/>
			
				<radialGradient id="Path_00000044868014657457789940000011123583874280534930_" cx="-279.6153" cy="484.327" r="3.1366" gradientTransform="matrix(13.2143 0 0 -13.2143 3857.8103 6570.5576)" gradientUnits="userSpaceOnUse">
				<stop  offset="0" style="stop-color:#B6D3F8;stop-opacity:0.4"/>
				<stop  offset="1" style="stop-color:#A1CAF6;stop-opacity:0.6"/>
			</radialGradient>
			
				<path id="Path_00000063608144311803082140000016827046839675887778_" style="fill:url(#Path_00000044868014657457789940000011123583874280534930_);" d="
				M144.9,164.3c0,0,48.2-3.3,33.1,9.5C164.9,185,144.9,164.3,144.9,164.3z"/>
			
				<radialGradient id="Path_00000155856214027337399730000012199283004457770125_" cx="-281.4096" cy="486.2318" r="2.8454" gradientTransform="matrix(14.4561 0 0 -14.4561 4253.0996 7174.2578)" gradientUnits="userSpaceOnUse">
				<stop  offset="0" style="stop-color:#B6D3F8;stop-opacity:0.4"/>
				<stop  offset="1" style="stop-color:#A1CAF6;stop-opacity:0.6"/>
			</radialGradient>
			
				<path id="Path_00000173844720181270988350000004892776109264505514_" style="fill:url(#Path_00000155856214027337399730000012199283004457770125_);" d="
				M167.2,147.6c0,0,44-19.7,34.4-2.5C193.1,160.1,167.2,147.6,167.2,147.6z"/>
			
				<radialGradient id="Path_00000012439505379852360020000013300926829657443968_" cx="-287.0197" cy="492.1874" r="1.7728" gradientTransform="matrix(20.4715 0 0 -20.4715 6077.354 10188.7783)" gradientUnits="userSpaceOnUse">
				<stop  offset="0" style="stop-color:#B6D3F8;stop-opacity:0.4"/>
				<stop  offset="1" style="stop-color:#A1CAF6;stop-opacity:0.6"/>
			</radialGradient>
			
				<path id="Path_00000012474361118264827060000013002363748205475994_" style="fill:url(#Path_00000012439505379852360020000013300926829657443968_);" d="
				M185.9,123c0,0,34.4-33.7,31.4-14.3C214.6,125.9,185.9,123,185.9,123z"/>
			
				<radialGradient id="Path_00000108307427859957832340000005523670144283571631_" cx="-289.3395" cy="494.6501" r="1.1499" gradientTransform="matrix(24.7259 0 0 -24.7259 7360.3638 12312.0098)" gradientUnits="userSpaceOnUse">
				<stop  offset="0" style="stop-color:#B6D3F8;stop-opacity:0.4"/>
				<stop  offset="1" style="stop-color:#A1CAF6;stop-opacity:0.6"/>
			</radialGradient>
			
				<path id="Path_00000159454931792000729680000009501949891283665828_" style="fill:url(#Path_00000108307427859957832340000005523670144283571631_);" d="
				M193.9,95.9c0,0,20.5-43.4,24.4-24.2C221.8,88.6,193.9,95.9,193.9,95.9z"/>
			
				<radialGradient id="Path_00000137109566219545685080000013958614536798658745_" cx="-283.8349" cy="488.8069" r="1.1497" gradientTransform="matrix(16.5597 0 0 -16.5597 4900.9741 8146.6211)" gradientUnits="userSpaceOnUse">
				<stop  offset="0" style="stop-color:#B6D3F8;stop-opacity:0.4"/>
				<stop  offset="1" style="stop-color:#A1CAF6;stop-opacity:0.6"/>
			</radialGradient>
			
				<path id="Path_00000180348724007824058740000007572509385393570998_" style="fill:url(#Path_00000137109566219545685080000013958614536798658745_);" d="
				M192.5,69.5c0,0,4-47.8,14.4-31.1C216.1,53,192.5,69.5,192.5,69.5z"/>
			
				<radialGradient id="Path_00000029036992404707781410000003975820159037336455_" cx="-279.9092" cy="484.6397" r="1.1496" gradientTransform="matrix(13.4028 0 0 -13.4028 3936.6262 6524.5483)" gradientUnits="userSpaceOnUse">
				<stop  offset="0" style="stop-color:#B6D3F8;stop-opacity:0.4"/>
				<stop  offset="1" style="stop-color:#A1CAF6;stop-opacity:0.6"/>
			</radialGradient>
			
				<path id="Path_00000122693415967943083490000017676706696399046545_" style="fill:url(#Path_00000029036992404707781410000003975820159037336455_);" d="
				M184.3,47.1c0,0-14.3-45.8,1.7-34.2C200,23.1,184.3,47.1,184.3,47.1z"/>
			
				<radialGradient id="Path_00000014596518761414952270000004104167650860188079_" cx="-289.3488" cy="494.6601" r="1.1499" gradientTransform="matrix(24.7466 0 0 -24.7467 7319.2393 12258.499)" gradientUnits="userSpaceOnUse">
				<stop  offset="0" style="stop-color:#B6D3F8;stop-opacity:0.4"/>
				<stop  offset="1" style="stop-color:#A1CAF6;stop-opacity:0.6"/>
			</radialGradient>
			
				<path id="Path_00000078742495395675935370000015667706891884868488_" style="fill:url(#Path_00000014596518761414952270000004104167650860188079_);" d="
				M171.3,31.5c0,0-38.9-28.4-19.1-28.5C169.5,2.9,171.3,31.5,171.3,31.5z"/>
			<path id="Path_00000032629013142588819260000001990808843162838680_" class="st16" d="M125.8,179.7c-0.3,0-0.6-0.1-0.9-0.3
				c-5.1-3.2-19.5-7.2-31-10.5c-7.8-2.2-14.5-4.1-17.7-5.4C44.6,149.9,24.3,119,24.3,84.8c0-13.9,3.4-27.7,9.9-39.9
				c6.2-11.8,15.3-22.2,26.2-30c0.8-0.5,1.8-0.4,2.4,0.4c0.5,0.8-2,2-2.8,2.6c-10.5,7.5-16.8,17.2-22.8,28.6
				c-6.2,11.7-9.5,25-9.5,38.3c0,32.8,19.6,62.5,49.9,75.7c2.9,1.3,9.9,3.2,17.2,5.3c12.4,3.5,26.4,7.4,31.9,10.9
				c0.8,0.5,1,1.5,0.5,2.3C126.9,179.4,126.3,179.7,125.8,179.7z"/>
			<path id="Path_00000125593063271855096390000015749591192730649260_" class="st16" d="M102,179.7c-0.6,0-1.1-0.3-1.5-0.8
				c-0.5-0.8-0.2-1.8,0.5-2.3c5.4-3.3,24.1-9.5,33-12.5c1.5-0.5,2.8-0.9,3.6-1.2c33.5-11.5,55.9-42.8,55.9-78.1
				c0-14.4-3.8-28.5-10.9-41c-6.9-12-15.9-24.3-27.8-31.5c-0.8-0.5-1.6-0.3-1.1-1.1c0.5-0.8,1-0.2,1.9,0.2
				c12.4,7.5,22.7,18.2,30,30.7c7.4,12.9,11.4,27.7,11.4,42.6c0,36.6-23.4,69.3-58.2,81.3c-0.8,0.3-2.1,0.7-3.7,1.2
				c-8.2,2.7-27.3,9.1-32.3,12.2C102.7,179.6,102.4,179.7,102,179.7z"/>
			<path id="Path_00000034083543363861946160000014033560196861747884_" class="st16" d="M74.8,161.3c0,0-48.2-3.3-33.1,9.5
				C54.9,182,74.8,161.3,74.8,161.3z"/>
			<path id="Path_00000030458094145251551730000004738324519394633111_" class="st16" d="M52.5,144.5c0,0-44-19.7-34.4-2.5
				C26.6,157.1,52.5,144.5,52.5,144.5z"/>
			<path id="Path_00000034084766742134999300000005714108604420017307_" class="st16" d="M33.8,120c0,0-34.4-33.7-31.4-14.3
				C5.1,122.9,33.8,120,33.8,120z"/>
			<path id="Path_00000108994892966403234990000008974370845213347766_" class="st16" d="M25.9,92.9c0,0-20.5-43.4-24.4-24.2
				C-2,85.6,25.9,92.9,25.9,92.9z"/>
			<path id="Path_00000011738721726409473680000018172402935081558960_" class="st16" d="M27.2,66.5c0,0-4-47.8-14.4-31.1
				C3.6,50,27.2,66.5,27.2,66.5z"/>
			<path id="Path_00000096773746445993058160000017281569014475911833_" class="st16" d="M35.5,44.1c0,0,14.3-45.8-1.7-34.2
				C19.7,20,35.5,44.1,35.5,44.1z"/>
			<path id="Path_00000057845670378451813280000012279976184945206192_" class="st16" d="M48.5,28.5c0,0,38.9-28.4,19.1-28.5
				C50.2-0.1,48.5,28.5,48.5,28.5z"/>
			<path id="Path_00000051356316697948465870000000246874026446489761_" class="st16" d="M146.1,161.3c0,0,48.2-3.3,33.1,9.5
				C166,182,146.1,161.3,146.1,161.3z"/>
			<path id="Path_00000056400945694103590850000005702138305686834053_" class="st16" d="M168.3,144.5c0,0,44-19.7,34.4-2.5
				C194.2,157.1,168.3,144.5,168.3,144.5z"/>
			<path id="Path_00000061433988021566161380000012532669188566811783_" class="st16" d="M187.1,120c0,0,34.4-33.7,31.4-14.3
				C215.7,122.9,187.1,120,187.1,120z"/>
			<path id="Path_00000111886141487932841660000002880349180136193194_" class="st16" d="M195,92.9c0,0,20.5-43.4,24.4-24.2
				C222.9,85.6,195,92.9,195,92.9z"/>
			<path id="Path_00000078014496512850929890000015023964537223299723_" class="st16" d="M193.6,66.5c0,0,4-47.8,14.4-31.1
				C217.3,50,193.6,66.5,193.6,66.5z"/>
			<path id="Path_00000067953347636760206080000011430157829782124949_" class="st16" d="M185.4,44.1c0,0-14.3-45.8,1.7-34.2
				C201.1,20,185.4,44.1,185.4,44.1z"/>
			<path id="Path_00000065061090781140605970000003408687804206234813_" class="st16" d="M172.4,28.5c0,0-38.9-28.4-19.1-28.5
				C170.7-0.1,172.4,28.5,172.4,28.5z"/>
			
				<linearGradient id="Path_00000162328808190938262390000017554360474800816796_" gradientUnits="userSpaceOnUse" x1="-296.6244" y1="500.0476" x2="-296.5361" y2="500.0899" gradientTransform="matrix(71.8279 0 0 -46.4034 21492.8379 23295.502)">
				<stop  offset="0" style="stop-color:#7C889D"/>
				<stop  offset="0.1864" style="stop-color:#929EB0"/>
				<stop  offset="0.5363" style="stop-color:#B7C2CF"/>
				<stop  offset="0.82" style="stop-color:#CED9E2"/>
				<stop  offset="1" style="stop-color:#D6E1E9"/>
			</linearGradient>
			
				<path id="Path_00000165222244605217024640000000558174035843743633_" style="fill:url(#Path_00000162328808190938262390000017554360474800816796_);" d="
				M220.1,67.2l-18.4,36.9c-1.5,3-5.5,4.9-8.8,4.1l-40.6-9.6c-1.6-0.4-2.8-1.3-3.4-2.4l-0.2-0.8c0.3,0.3,0.7,0.6,1.1,0.8
				c0.4,0.3,1,0.4,1.6,0.6l1.4,0.3l39.2,9.2c3.3,0.8,7.3-1,8.8-4.1l17.6-35.3l0.8-1.6c0.4-0.8,0.6-1.7,0.6-2.4c0-0.3,0-0.7-0.1-0.9
				C219.6,61.9,221.2,65.1,220.1,67.2z"/>
			
				<linearGradient id="Path_00000074418944699268559150000009737053365282854322_" gradientUnits="userSpaceOnUse" x1="-297.1831" y1="501.4304" x2="-296.1831" y2="501.4304" gradientTransform="matrix(72.3097 0 0 -57.795 21636.5859 29057.7383)">
				<stop  offset="0" style="stop-color:#C0D2E1"/>
				<stop  offset="3.829420e-02" style="stop-color:#C5D6E3"/>
				<stop  offset="0.2589" style="stop-color:#DFE8F0"/>
				<stop  offset="0.488" style="stop-color:#F1F5F8"/>
				<stop  offset="0.7286" style="stop-color:#FBFCFD"/>
				<stop  offset="1" style="stop-color:#FFFFFF"/>
			</linearGradient>
			
				<path id="Path_00000109745900814408946130000006886129218469225397_" style="fill:url(#Path_00000074418944699268559150000009737053365282854322_);" d="
				M219.7,62.9c0,0.8-0.2,1.6-0.6,2.4l-0.8,1.6l-12.6,25.3l-4.9,9.9c-1.5,3-5.5,4.9-8.8,4.1L152.7,97l-1.4-0.3
				c-0.6-0.1-1.1-0.3-1.6-0.6c-0.4-0.2-0.8-0.5-1.1-0.8c-1.4-1.4-1.8-3.5-0.7-5.5l18.4-36.9c0.5-1.1,1.3-2,2.3-2.7
				c1.9-1.3,4.3-1.9,6.5-1.4l40.6,9.5c2.1,0.5,3.5,1.9,3.8,3.6C219.6,62.2,219.7,62.6,219.7,62.9z"/>
			<polygon id="Path_00000035507062251045685100000010333971680866943126_" class="st16" points="115.7,39.8 106.7,39.8 96.8,45.9 
				96.8,54.3 105.8,48.8 106,48.8 106,79.8 115.7,79.8 			"/>
		</g>
		<g id="Group_00000000196059833069989490000008953146483761723277_" transform="translate(0.000000, 97.000000)">
			
				<linearGradient id="Path_00000106835002966743362450000014026232647975127432_" gradientUnits="userSpaceOnUse" x1="-273.22" y1="398.3736" x2="-273.6171" y2="398.2958" gradientTransform="matrix(136.9085 0 0 -26.2084 37510.9883 10481.418)">
				<stop  offset="0" style="stop-color:#152532"/>
				<stop  offset="5.182769e-02" style="stop-color:#172733"/>
				<stop  offset="0.4477" style="stop-color:#202F3A"/>
				<stop  offset="1" style="stop-color:#23313C"/>
			</linearGradient>
			
				<path id="Path_00000086655241390411046350000015724195218483484045_" style="fill:url(#Path_00000106835002966743362450000014026232647975127432_);" d="
				M137.1,54.5c-0.8,0.5-1.7,0.8-2.6,0.7h0l-1.8-0.2l-1.3-0.2l-15-1.8L4.4,40.8c-1.5-0.2-2.7-1.3-2.9-2.8l-1.3-9l128.4,14.6l7.1,0.8
				L137.1,54.5z"/>
			
				<linearGradient id="Path_00000031927598919625125930000008561479389668270007_" gradientUnits="userSpaceOnUse" x1="-273.7917" y1="402.883" x2="-273.571" y2="402.6845" gradientTransform="matrix(150.3431 0 0 -43.5073 41218.7188 17545.4648)">
				<stop  offset="0" style="stop-color:#23313C"/>
				<stop  offset="0.1912" style="stop-color:#293641"/>
				<stop  offset="0.3966" style="stop-color:#4A505B"/>
				<stop  offset="0.6915" style="stop-color:#23313C"/>
				<stop  offset="0.9971" style="stop-color:#3D4651"/>
			</linearGradient>
			
				<path id="Path_00000080912916440177469590000014197800073594692767_" style="fill:url(#Path_00000031927598919625125930000008561479389668270007_);" d="
				M150.3,16.6c0,0.1,0,0.1-0.1,0.2c0,0.1-0.1,0.2-0.1,0.3c0,0.1-0.1,0.2-0.1,0.2L136.1,44l-1-0.1l-33-3.3l-0.6-0.1l-30.8-3.1
				l-31.6-3.2l-36-3.6l-0.6,0c-1.1-0.2-2-0.8-2.4-1.5c-0.1-0.2-0.2-0.4-0.2-0.6c-0.1-0.4,0-0.8,0.2-1.2L13,2.5
				c0.2-0.4,0.5-0.8,0.8-1c0.6-0.5,1.4-0.8,2.3-0.9c0.4,0,0.7-0.1,1,0c0.2,0,0.4,0,0.6,0.1l30.7,3.1l36.3,3.7l62.3,6.3
				c0.2,0,0.4,0,0.6,0.1c0.2,0,0.3,0.1,0.5,0.1c0,0,0.1,0,0.1,0c0.1,0,0.3,0.1,0.4,0.1c0.1,0.1,0.3,0.1,0.4,0.2
				c0.7,0.4,1.1,1,1.2,1.7c0,0.2,0,0.4,0,0.6C150.3,16.5,150.3,16.6,150.3,16.6z"/>
			
				<linearGradient id="Path_00000044159930427429540630000011332688733028913051_" gradientUnits="userSpaceOnUse" x1="-263.8245" y1="391.0729" x2="-262.7113" y2="391.869" gradientTransform="matrix(22.5553 0 0 -16.2543 5973.1182 6380.6074)">
				<stop  offset="0" style="stop-color:#152532"/>
				<stop  offset="5.182769e-02" style="stop-color:#172733"/>
				<stop  offset="0.4477" style="stop-color:#202F3A"/>
				<stop  offset="1" style="stop-color:#23313C"/>
			</linearGradient>
			
				<path id="Path_00000167374547679685230500000009906391484910207910_" style="fill:url(#Path_00000044159930427429540630000011332688733028913051_);" d="
				M46.4,16.8c0.3,4.5-4.5,8.4-10.8,8.8c-6.2,0.4-11.5-2.9-11.8-7.4c-0.3-4.5,4.5-8.4,10.8-8.8C40.9,9,46.1,12.3,46.4,16.8z"/>
			
				<linearGradient id="Path_00000045590253100282874920000011150341306034419360_" gradientUnits="userSpaceOnUse" x1="-263.4117" y1="391.3018" x2="-262.7863" y2="392.0488" gradientTransform="matrix(22.5554 0 0 -16.2587 5973.1143 6381.875)">
				<stop  offset="0" style="stop-color:#152532"/>
				<stop  offset="5.182769e-02" style="stop-color:#172733"/>
				<stop  offset="0.4477" style="stop-color:#202F3A"/>
				<stop  offset="1" style="stop-color:#23313C"/>
			</linearGradient>
			
				<path id="Path_00000127043123159381290000000007173311827387915945_" style="fill:url(#Path_00000045590253100282874920000011150341306034419360_);" d="
				M46.4,16.3c0.3,4.5-4.5,8.4-10.8,8.8c-6.2,0.4-11.5-2.9-11.8-7.4c-0.3-4.5,4.5-8.4,10.8-8.8C40.8,8.5,46.1,11.8,46.4,16.3z"/>
			
				<linearGradient id="Path_00000046338260317060979590000000434785260550311317_" gradientUnits="userSpaceOnUse" x1="-269.409" y1="399.7346" x2="-268.5261" y2="399.8225" gradientTransform="matrix(42.2615 0 0 -30.139 11473.3174 12093.1123)">
				<stop  offset="0" style="stop-color:#394A66"/>
				<stop  offset="1" style="stop-color:#2A3448"/>
			</linearGradient>
			
				<polygon id="Path_00000129928298478467308590000015313561686244967042_" style="fill:url(#Path_00000046338260317060979590000000434785260550311317_);" points="
				85.1,29.1 87,42.5 127.4,59.3 125.5,45.8 			"/>
			
				<linearGradient id="Path_00000065778506365921367120000003984579809100284852_" gradientUnits="userSpaceOnUse" x1="1417.6227" y1="-8469.0381" x2="1417.7716" y2="-8469.0127" gradientTransform="matrix(0.163 0 0 -3.300095e-02 -95.3373 -243.1306)">
				<stop  offset="0" style="stop-color:#5F748F"/>
				<stop  offset="1" style="stop-color:#65769D"/>
			</linearGradient>
			
				<path id="Path_00000001625012286968327360000017742496668223651722_" style="fill:url(#Path_00000065778506365921367120000003984579809100284852_);" d="
				M135.8,36.4c-0.1,0-0.1,0-0.2,0L135.8,36.4z"/>
			
				<linearGradient id="Path_00000008125417868360708330000004921878937751267518_" gradientUnits="userSpaceOnUse" x1="-244.2975" y1="389.8601" x2="-243.8887" y2="389.9573" gradientTransform="matrix(8.7883 0 0 -14.955 2286.2144 5875.4116)">
				<stop  offset="0" style="stop-color:#A3B4CE"/>
				<stop  offset="1" style="stop-color:#5F748F"/>
			</linearGradient>
			
				<path id="Path_00000149373624913450298220000012852611558494535865_" style="fill:url(#Path_00000008125417868360708330000004921878937751267518_);" d="
				M145.3,37.4c0.6,4.3-1.4,8.9-6.1,12.5l-2.4,1.9l-0.1-1l2.5-1.9c4.5-3.5,6.6-7.8,6.2-12C145.3,37,145.3,37.2,145.3,37.4z"/>
			<path id="Path_00000145774947485595627390000016599539467528333470_" class="st26" d="M129.6,46.9l0.6,4.1c0,0,3.6-1,3.2-4.1
				C133,43.8,129.6,46.9,129.6,46.9z"/>
			
				<linearGradient id="Path_00000133531723320182161710000002163871240599561131_" gradientUnits="userSpaceOnUse" x1="-268.7403" y1="390.0942" x2="-267.8116" y2="390.1455" gradientTransform="matrix(38.2114 0 0 -15.119 10287.1348 6004.8232)">
				<stop  offset="0" style="stop-color:#A3B4CE"/>
				<stop  offset="1" style="stop-color:#5F748F"/>
			</linearGradient>
			
				<polygon id="Path_00000115477513349087580950000015251445184693935036_" style="fill:url(#Path_00000133531723320182161710000002163871240599561131_);" points="
				54.9,113.1 55,114.2 16.8,99.7 17.6,99 			"/>
			<path id="Path_00000000923479729162921890000009741146454667356288_" class="st26" d="M145.3,36.9c0.4,4.1-1.7,8.5-6.2,12
				l-80.7,62.9c-0.1,0.1-0.3,0.3-0.5,0.4c0,0,0,0,0,0l-1.8,1.4L17.6,99l86.2-68.9c8.9-6.9,24.1-8.1,33.9-2.7
				C142,29.8,144.6,33.2,145.3,36.9z"/>
			<path id="Path_00000165938867418052461960000013808865210786311590_" class="st26" d="M53.3,100.9c0,0,1,8.3,1.5,12.2L17.6,99
				l-1-0.4l10.5-8.4L53.3,100.9z"/>
			
				<linearGradient id="Path_00000080182381195545456640000009591377619287995540_" gradientUnits="userSpaceOnUse" x1="-272.989" y1="405.8699" x2="-271.9093" y2="406.007" gradientTransform="matrix(90.564 0 0 -82.2458 24775.416 33458.4336)">
				<stop  offset="0" style="stop-color:#23313C"/>
				<stop  offset="0.1912" style="stop-color:#293641"/>
				<stop  offset="0.3966" style="stop-color:#4A505B"/>
				<stop  offset="0.6915" style="stop-color:#23313C"/>
				<stop  offset="0.9971" style="stop-color:#3D4651"/>
			</linearGradient>
			
				<path id="Path_00000032622872771879977840000000461941924651174819_" style="fill:url(#Path_00000080182381195545456640000009591377619287995540_);" d="
				M146.2,36.5c0,0.2,0.1,0.4,0.1,0.6c0.4,4.1-1.7,8.5-6.2,12L59.4,112l-0.5,0.4c0,0,0,0,0,0c-0.2,0.1-0.5,0.1-0.6,0.2
				c-0.8,0.9-1.2-0.4-1.3-1l-1.2-8.8c0-0.2,0-0.3,0-0.5c0-0.2,0.1-0.4,0.2-0.6c0.1-0.4,0.4-0.7,0.7-0.9c0,0,0,0,0,0
				c0.1-0.1,0.1-0.1,0.2-0.2L138.4,37c2.4-1.9,4.1-4,5.2-6.3C145,32.5,145.9,34.5,146.2,36.5z"/>
			
				<linearGradient id="Path_00000077292681940268565570000000543916600579018138_" gradientUnits="userSpaceOnUse" x1="-269.0804" y1="392.282" x2="-268.155" y2="392.3369" gradientTransform="matrix(40.1057 0 0 -17.045 10806.5996 6780.5713)">
				<stop  offset="0" style="stop-color:#A3B4CE"/>
				<stop  offset="1" style="stop-color:#5F748F"/>
			</linearGradient>
			
				<polygon id="Path_00000072243630590395175110000012080393108995705751_" style="fill:url(#Path_00000077292681940268565570000000543916600579018138_);" points="
				53.3,100.9 53.5,102.2 13.4,86 14.5,85.1 14.5,85.2 			"/>
			
				<linearGradient id="Path_00000161627480693697960020000006252648639257898651_" gradientUnits="userSpaceOnUse" x1="-273.624" y1="406.2551" x2="-272.5721" y2="406.3723" gradientTransform="matrix(115.4506 0 0 -92.0168 31615.4746 37456.8359)">
				<stop  offset="0" style="stop-color:#A3B4CE"/>
				<stop  offset="1" style="stop-color:#5F748F"/>
			</linearGradient>
			
				<path id="Path_00000070823569038543684260000014622390874456620211_" style="fill:url(#Path_00000161627480693697960020000006252648639257898651_);" d="
				M142.6,30.5c-1,2.3-2.7,4.4-5.2,6.3l-8.7,6.8l-12.1,9.5l-60.7,47.3c-0.1,0-0.1,0.1-0.2,0.2c0,0,0,0,0,0c-0.3,0.3-0.5,0.6-0.7,0.9
				c-0.1,0.2-0.2,0.4-0.2,0.6c0,0.2,0,0.3,0,0.5l1.2,8.8c0.1,0.7,0.1,1.8,0.8,1.7c0.2,0,1.5-1.1,1.6-1.2l73.1-56.9l1.3,0.2
				l-76.3,59.5l-0.1,0.1c0,0,0,0-0.1,0c-0.4,0.2-1.4,0.6-1.4,0.3c0-0.2,0.2-0.4,0.2-0.8l-0.1-1c-0.5-4-1.5-12.2-1.5-12.2L27.1,90.3
				l76.6-61.3c8.9-6.9,24.1-8.1,33.9-2.7C139.6,27.6,141.3,28.9,142.6,30.5z"/>
			
				<linearGradient id="Path_00000022561021112649209590000014103725122375073440_" gradientUnits="userSpaceOnUse" x1="-273.8898" y1="405.7694" x2="-272.845" y2="405.8593" gradientTransform="matrix(129.1095 0 0 -79.432 35372.7305 32284.9746)">
				<stop  offset="0" style="stop-color:#A3B4CE"/>
				<stop  offset="1" style="stop-color:#5F748F"/>
			</linearGradient>
			
				<path id="Path_00000003819810994418743690000009339774966462133433_" style="fill:url(#Path_00000022561021112649209590000014103725122375073440_);" d="
				M143.5,24.2c0.3,2.1,0,4.2-0.9,6.3c-1.3-1.5-2.9-2.9-5-4.1c-9.7-5.5-25-4.2-33.9,2.7L27.1,90.3l-12.6-5.1v-0.1l0.5-0.4l87-67.8
				c8.9-6.9,24.1-8.1,33.9-2.7C140.4,16.8,143,20.4,143.5,24.2z"/>
			
				<linearGradient id="Path_00000030482269825840365420000003796316448839819409_" gradientUnits="userSpaceOnUse" x1="194.0453" y1="-89.1985" x2="193.748" y2="-89.7545" gradientTransform="matrix(0.5879 0 0 -0.587 -99.3373 32.2042)">
				<stop  offset="0" style="stop-color:#A3B4CE"/>
				<stop  offset="1" style="stop-color:#5F748F"/>
			</linearGradient>
			
				<polygon id="Path_00000040562302001624633520000008653009787938295477_" style="fill:url(#Path_00000030482269825840365420000003796316448839819409_);" points="
				15,84.8 14.5,85.1 14.4,84.5 			"/>
			
				<linearGradient id="Path_00000039841335671090810810000003253181221549016969_" gradientUnits="userSpaceOnUse" x1="-273.45" y1="406.3207" x2="-273.1099" y2="406.2664" gradientTransform="matrix(129.7967 0 0 -91.456 35561.4805 37213.5664)">
				<stop  offset="0" style="stop-color:#A3B4CE"/>
				<stop  offset="1" style="stop-color:#DFEAFF"/>
			</linearGradient>
			
				<path id="Path_00000003073381373964049970000010452909771512967352_" style="fill:url(#Path_00000039841335671090810810000003253181221549016969_);" d="
				M137.2,35.5l-9.8,7.6L54.6,99.9c-0.1,0-0.1,0.1-0.2,0.2l0,0c-0.3,0.3-0.5,0.6-0.7,0.9l-0.9-0.4L16.2,85.9l-1.7-0.7l-0.1,0
				l-0.8-0.3c0.2-0.4,0.4-0.7,0.7-0.9l59.3-46.2l28.2-22c3.4-2.7,7.8-4.5,12.4-5.4c6.8-1.3,14.2-0.7,20,2c0.5,0.2,0.9,0.5,1.4,0.7
				c4.6,2.5,7.2,6.1,7.7,10c0,0.2,0.1,0.5,0.1,0.7C143.7,27.7,141.7,32,137.2,35.5z"/>
			
				<linearGradient id="Path_00000026856137287446201160000017713812077164428189_" gradientUnits="userSpaceOnUse" x1="-264.2903" y1="393.1826" x2="-264.9496" y2="392.6633" gradientTransform="matrix(24.6214 0 0 -17.9561 6624.5542 7086.2588)">
				<stop  offset="0" style="stop-color:#A3B4CE"/>
				<stop  offset="1" style="stop-color:#5F748F"/>
			</linearGradient>
			
				<path id="Path_00000026856146880274756560000014498701834432991673_" style="fill:url(#Path_00000026856137287446201160000017713812077164428189_);" d="
				M129.6,24.5c0.7,4.9-4.2,9.6-11,10.5c-6.8,0.9-12.8-2.3-13.5-7.1c-0.7-4.9,4.2-9.6,11-10.5C122.9,16.5,128.9,19.7,129.6,24.5z"/>
			
				<linearGradient id="Path_00000027593786649018961670000006292379007544139442_" gradientUnits="userSpaceOnUse" x1="-263.7193" y1="391.5769" x2="-262.7247" y2="391.6783" gradientTransform="matrix(22.4862 0 0 -16.3936 6036.8706 6445.9624)">
				<stop  offset="0" style="stop-color:#A3B4CE"/>
				<stop  offset="1" style="stop-color:#DFEAFF"/>
			</linearGradient>
			
				<path id="Path_00000114047019948746317700000017422555680995488658_" style="fill:url(#Path_00000027593786649018961670000006292379007544139442_);" d="
				M129.1,24.2c0.6,4.4-3.9,8.8-10.1,9.6c-6.2,0.8-11.7-2.1-12.3-6.5c-0.6-4.4,3.9-8.8,10.1-9.6C123,16.9,128.5,19.8,129.1,24.2z"/>
			
				<linearGradient id="Path_00000038411718749675722460000000691033478769132204_" gradientUnits="userSpaceOnUse" x1="-268.8505" y1="399.8807" x2="-268.9357" y2="399.7249" gradientTransform="matrix(41.8397 0 0 -30.1583 11285.1855 12156.7285)">
				<stop  offset="0" style="stop-color:#A3B4CE"/>
				<stop  offset="1" style="stop-color:#5F748F"/>
			</linearGradient>
			
				<path id="Path_00000038383536598056072380000006232124027165695367_" style="fill:url(#Path_00000038411718749675722460000000691033478769132204_);" d="
				M53.7,101c-0.1,0.2-0.2,0.4-0.2,0.6c0,0.2,0,0.3,0,0.5l1.7,12.3c0.1,0.9-0.9,0.4-1.7,0.1L17.3,99.9c-1.2-0.5-2.1-1.6-2.3-3
				l-1.5-11c0-0.2,0-0.3,0-0.5c0-0.2,0.1-0.4,0.2-0.6l0.8,0.3l0.1,0l1.7,0.7l36.5,14.8L53.7,101z"/>
			
				<linearGradient id="Path_00000114045584229528788120000015815797263361081247_" gradientUnits="userSpaceOnUse" x1="-258.9124" y1="401.9378" x2="-258.8887" y2="401.9456" gradientTransform="matrix(16.5417 0 0 -38.955 4424.2803 15694.5791)">
				<stop  offset="0" style="stop-color:#152532"/>
				<stop  offset="5.182769e-02" style="stop-color:#172733"/>
				<stop  offset="0.4477" style="stop-color:#202F3A"/>
				<stop  offset="1" style="stop-color:#23313C"/>
			</linearGradient>
			
				<path id="Path_00000071531839284928242500000014407109823576477596_" style="fill:url(#Path_00000114045584229528788120000015815797263361081247_);" d="
				M150.3,16l0.9,9.8c0.1,0.7-0.1,1.4-0.4,2.1L138.5,53c-0.3,0.6-0.8,1.1-1.3,1.5c0,0,0,0,0,0c-0.3,0.2-0.6,0.3-0.8,0.4L134.8,44
				c0.1,0,0.3-0.1,0.4-0.1l1,0.1l13.9-26.9C150.2,16.7,150.3,16.4,150.3,16z"/>
			
				<linearGradient id="Path_00000142889387546613694770000003965757477411199417_" gradientUnits="userSpaceOnUse" x1="-260.543" y1="384.2735" x2="-262.2065" y2="384.2594" gradientTransform="matrix(19.759 0 0 -11.612 5294.0195 4511.5005)">
				<stop  offset="0" style="stop-color:#23313C"/>
				<stop  offset="0.1912" style="stop-color:#293641"/>
				<stop  offset="0.3674" style="stop-color:#676771"/>
				<stop  offset="0.5909" style="stop-color:#39434D"/>
				<stop  offset="0.6915" style="stop-color:#23313C"/>
				<stop  offset="0.9971" style="stop-color:#3D4651"/>
			</linearGradient>
			
				<path id="Path_00000101801309808338156180000001069811110594815407_" style="fill:url(#Path_00000142889387546613694770000003965757477411199417_);" d="
				M134.8,44l1.5,10.9c-0.5,0.2-1.1,0.3-1.7,0.2h0l-1.8-0.2l-1.3-0.2l-15-1.8l12.1-9.5l4.8,0.6h0C133.9,44.2,134.3,44.1,134.8,44z"
				/>
			
				<linearGradient id="Path_00000004520074557813187460000008721482989299289991_" gradientUnits="userSpaceOnUse" x1="-255.5414" y1="388.3943" x2="-256.6757" y2="387.7672" gradientTransform="matrix(14.273 0 0 -13.7293 3791.9988 5366.4458)">
				<stop  offset="0" style="stop-color:#152532"/>
				<stop  offset="5.182769e-02" style="stop-color:#172733"/>
				<stop  offset="0.4477" style="stop-color:#202F3A"/>
				<stop  offset="1" style="stop-color:#23313C"/>
			</linearGradient>
			
				<path id="Path_00000149352497098251600980000016422282239838341815_" style="fill:url(#Path_00000004520074557813187460000008721482989299289991_);" d="
				M142.9,30.9l-6.2,11.5c-0.6,1.2-1.9,1.9-3.3,1.8h0l-4.8-0.6l8.7-6.8c2.4-1.9,4.1-4,5.2-6.3L142.9,30.9z"/>
			
				<linearGradient id="Path_00000116224934140835783320000013445998887720546441_" gradientUnits="userSpaceOnUse" x1="-271.7394" y1="400.4955" x2="-271.5017" y2="400.0721" gradientTransform="matrix(69.7935 0 0 -31.119 19046.6113 12470.5859)">
				<stop  offset="0" style="stop-color:#FFFFFF;stop-opacity:0.3"/>
				<stop  offset="1" style="stop-color:#FFFFFF;stop-opacity:0"/>
			</linearGradient>
			
				<path id="Path_00000018202169503375887080000008831709048698624401_" style="fill:url(#Path_00000116224934140835783320000013445998887720546441_);" d="
				M129.4,12.8c-5.6,0.1-11,1.3-15.5,3.6L76.8,35.9l-3-0.9L59.6,4.8l63,6L129.4,12.8z"/>
		</g>
	</g>
</g>
<linearGradient id="SVGID_1_" gradientUnits="userSpaceOnUse" x1="33.1031" y1="165.6129" x2="92.9349" y2="165.6129">
	<stop  offset="1.091819e-02" style="stop-color:#244054;stop-opacity:0.3"/>
	<stop  offset="0.7872" style="stop-color:#7696A8;stop-opacity:0.4"/>
</linearGradient>
<path class="st41" d="M85.7,157.2l1.1,0.6l6.1-5.1l-5-2.7l-0.9,0.7l3.9,2.1L85.7,157.2z M69.3,148.4l1.1,0.6l5.2-4.3l3.9,2.1
	l0.9-0.7l-5-2.7L69.3,148.4z M74.7,155.6l-2.6-1.4l1.4-1.2c0.7-0.6,1.2-0.6,2-0.2l0.5,0.2c0.8,0.4,0.8,0.8,0.1,1.3L74.7,155.6z
	 M77.4,154c0.4-0.6,0.1-1.4-0.7-1.9c-0.6-0.3-1.2-0.4-2-0.4c-0.9,0.1-1.7,0.4-2.5,1l-2,1.6l7.6,4.1l0.9-0.7l-3-1.6L77,155
	c0.7-0.6,1.3-0.6,2.2-0.1l1.8,1l0.9-0.7l-1.6-0.9c-1.2-0.6-1.9-0.7-2.7-0.2L77.4,154z M70.2,160.3l2.7-2.2l-1-0.5l-2.7,2.2l-2.3-1.2
	l3-2.5l-1-0.5l-3.8,3.2l7.6,4.1l4-3.3l-1-0.5l-3.1,2.6L70.2,160.3z M67.7,162.9l0.5,0.3c1.1,0.6,1.1,1,0.3,1.7l-0.2,0.2
	c-0.8,0.7-1.5,0.8-3,0l-2-1.1c-1.5-0.8-1.4-1.3-0.6-2l0.2-0.1c0.8-0.7,1.4-0.7,2.4-0.1l1-0.8c-1.6-0.7-3.3-0.6-4.5,0.4
	c-0.6,0.5-0.8,1-0.8,1.6c0.1,0.8,0.9,1.6,2.4,2.4c1.5,0.8,2.8,1.1,4,1.1c0.8-0.1,1.6-0.4,2.1-0.8c0.5-0.4,0.7-1,0.4-1.5l0.1-0.1
	l0.7,0.4l0.8-0.7l-3.9-2.1l-2.4,2l1,0.5L67.7,162.9z M56.3,167.3l1-0.8c0.9-0.7,1.7-1,3.2-0.2l2,1.1c1.5,0.8,1.3,1.4,0.4,2.1l-1,0.8
	L56.3,167.3z M63.9,170c1.7-1.4,0.7-2.7-1.5-3.9c-2.2-1.2-4.4-1.5-6.1-0.1l-1.9,1.6l7.6,4.1L63.9,170L63.9,170z M54.5,173.3l2.7-2.2
	l-1-0.5l-2.7,2.2l-2.3-1.2l3-2.5l-1-0.5l-3.8,3.2l7.6,4.1l4-3.3l-1-0.5l-3.1,2.6L54.5,173.3z M45.1,175.3l-0.9,0.7l7.6,4.1l4-3.3
	l-1-0.5l-3.1,2.6L45.1,175.3z M45.6,185.2l5,2.7l6.1-5.1l-1.1-0.6l-5.2,4.3l-3.9-2.1L45.6,185.2z M33.1,178.5l5,2.7l0.9-0.7
	l-3.9-2.1l5.2-4.3l-1.1-0.6L33.1,178.5z"/>
<linearGradient id="SVGID_00000072983111659505412900000010544081176816078000_" gradientUnits="userSpaceOnUse" x1="193.0039" y1="74.3403" x2="224.8578" y2="74.3403" gradientTransform="matrix(0.9217 0.2265 -0.4514 0.974 49.2517 -41.8804)">
	<stop  offset="0" style="stop-color:#23313C"/>
	<stop  offset="0.1912" style="stop-color:#293641"/>
	<stop  offset="0.3966" style="stop-color:#4A505B"/>
	<stop  offset="0.6915" style="stop-color:#23313C"/>
	<stop  offset="0.9971" style="stop-color:#3D4651"/>
</linearGradient>
<path style="fill:url(#SVGID_00000072983111659505412900000010544081176816078000_);" d="M190.9,80.1l-3.6,7.7l11,2.7l0.8-1.7
	l-9.4-2.3l2.8-6L190.9,80.1z M218.6,86.9l-2.8,6l-9.4-2.3l-0.8,1.7l11,2.7l3.6-7.7L218.6,86.9z M207.4,71.1l-5.4,11.7l7.3,1.8
	l0.7-1.5l-5.6-1.4l4.7-10.1L207.4,71.1z M199.9,60.7l-3.6,7.7l1.6,0.4l2.8-6l9.4,2.3l0.8-1.7L199.9,60.7z M218.2,65.2l-0.8,1.7
	l9.4,2.3l-2.8,6l1.6,0.4l3.6-7.7L218.2,65.2z"/>
</svg>
