<?xml version="1.0" encoding="utf-8"?>
<!-- Generator: Adobe Illustrator 26.0.3, SVG Export Plug-In . SVG Version: 6.00 Build 0)  -->
<svg version="1.1" id="Layer_1" xmlns="http://www.w3.org/2000/svg" xmlns:xlink="http://www.w3.org/1999/xlink" x="0px" y="0px"
	 viewBox="0 0 285 228" style="enable-background:new 0 0 285 228;" xml:space="preserve">
<style type="text/css">
	.st0{clip-path:url(#SVGID_00000177461997330744535960000003505387558960859822_);}
	.st1{opacity:0.5;fill:#9D9CAE;enable-background:new    ;}
	.st2{fill:#9D9CAE;}
	.st3{fill:url(#SVGID_00000085934426613145847540000016610852410049264300_);}
	.st4{fill:url(#SVGID_00000091715570424377058250000012362208487912413077_);}
	.st5{fill:url(#SVGID_00000158713633909211029840000010624574222773856142_);}
	.st6{fill:url(#SVGID_00000165227900505414366840000007825456657777776826_);}
	.st7{fill:url(#SVGID_00000053538947085448580650000004005237229542734239_);}
	.st8{fill:#152532;}
	.st9{fill:url(#SVGID_00000137114604975315860490000003631230578726146211_);}
	.st10{fill:url(#SVGID_00000176036469010292776120000016089267345293729928_);}
	.st11{fill:url(#SVGID_00000132767235136189326430000005018008180646978967_);}
	.st12{fill:url(#SVGID_00000066517683055138395470000007986981158910300607_);}
	.st13{fill:none;stroke:url(#SVGID_00000171698193720409175740000004267302636881002682_);stroke-width:0.1;stroke-miterlimit:10;}
	.st14{fill:none;stroke:url(#SVGID_00000155861634052501318740000010171410429440988566_);stroke-width:0.1;stroke-miterlimit:10;}
	.st15{fill:none;stroke:url(#SVGID_00000172402791806556497760000018091539406206343847_);stroke-width:0.1;stroke-miterlimit:10;}
	.st16{fill:none;stroke:url(#SVGID_00000005988914469588712390000017308552710173962933_);stroke-width:0.1;stroke-miterlimit:10;}
	.st17{fill:none;stroke:url(#SVGID_00000057137287050978774840000008385565451979316645_);stroke-width:0.1;stroke-miterlimit:10;}
	.st18{fill:none;stroke:url(#SVGID_00000127737924167961098930000005654915076559001243_);stroke-width:0.1;stroke-miterlimit:10;}
	.st19{fill:none;stroke:url(#SVGID_00000034079916863674383130000011526111664750415014_);stroke-width:0.1;stroke-miterlimit:10;}
	.st20{fill:none;stroke:url(#SVGID_00000081619872593333984340000008109545782661981865_);stroke-width:0.1;stroke-miterlimit:10;}
	.st21{fill:none;stroke:url(#SVGID_00000064322226225894941490000012197954031926398597_);stroke-width:0.1;stroke-miterlimit:10;}
	.st22{fill:none;stroke:url(#SVGID_00000059271212497103720390000008471805860704198830_);stroke-width:0.1;stroke-miterlimit:10;}
	.st23{fill:none;stroke:url(#SVGID_00000106147707551318403440000012610477213548290695_);stroke-width:0.1;stroke-miterlimit:10;}
	.st24{fill:none;stroke:url(#SVGID_00000109748290205904574470000003403185261260683911_);stroke-width:0.1;stroke-miterlimit:10;}
	.st25{fill:none;stroke:url(#SVGID_00000115478322515519763020000006130097202914342072_);stroke-width:0.1;stroke-miterlimit:10;}
	.st26{fill:none;stroke:url(#SVGID_00000065776489162527340250000018161590925616122794_);stroke-width:0.1;stroke-miterlimit:10;}
	.st27{fill:none;stroke:url(#SVGID_00000081636223976652274890000018286321326050357150_);stroke-width:0.1;stroke-miterlimit:10;}
	.st28{fill:none;stroke:url(#SVGID_00000155860102762669831720000014542119065067841186_);stroke-width:0.1;stroke-miterlimit:10;}
	.st29{fill:none;stroke:url(#SVGID_00000146480882797010335080000009110312499945483396_);stroke-width:0.1;stroke-miterlimit:10;}
	.st30{fill:none;stroke:url(#SVGID_00000181802057705964701220000000836880640219909790_);stroke-width:0.1;stroke-miterlimit:10;}
	.st31{fill:none;stroke:url(#SVGID_00000145053994487580439290000003974386617681910702_);stroke-width:0.1;stroke-miterlimit:10;}
	.st32{fill:none;stroke:url(#SVGID_00000053506695993235102560000005533186394376048817_);stroke-width:0.1;stroke-miterlimit:10;}
	.st33{fill:none;stroke:url(#SVGID_00000122717275843919537260000003245760235564408709_);stroke-width:0.1;stroke-miterlimit:10;}
	.st34{fill:none;stroke:url(#SVGID_00000039856480648388010970000014448842513840637329_);stroke-width:0.1;stroke-miterlimit:10;}
	.st35{fill:none;stroke:url(#SVGID_00000150091630714345377170000017977470656139198142_);stroke-width:0.1;stroke-miterlimit:10;}
	.st36{fill:none;stroke:url(#SVGID_00000026149586175631394230000008340943129614692021_);stroke-width:0.1;stroke-miterlimit:10;}
	.st37{fill:none;stroke:url(#SVGID_00000038410873397457637730000014794492068745280951_);stroke-width:0.1;stroke-miterlimit:10;}
	.st38{fill:none;stroke:url(#SVGID_00000155113699743007032200000006328943531709253300_);stroke-width:0.1;stroke-miterlimit:10;}
	.st39{fill:none;stroke:url(#SVGID_00000114768738265593256490000004316046570331304087_);stroke-width:0.1;stroke-miterlimit:10;}
	.st40{fill:none;stroke:url(#SVGID_00000166650208889128682260000016009382477631162008_);stroke-width:0.1;stroke-miterlimit:10;}
	.st41{fill:none;stroke:url(#SVGID_00000156558214260076964040000003471861703565368749_);stroke-width:0.1;stroke-miterlimit:10;}
	.st42{fill:none;stroke:url(#SVGID_00000036248031652061553090000009765580202260380859_);stroke-width:0.1;stroke-miterlimit:10;}
	.st43{fill:none;stroke:url(#SVGID_00000005959775723653127440000001383425390797737908_);stroke-width:0.1;stroke-miterlimit:10;}
	.st44{fill:#FFFFFF;}
	.st45{fill:none;stroke:url(#SVGID_00000031924057621045356700000005333262876455229375_);stroke-width:0.1;stroke-miterlimit:10;}
	.st46{fill:none;stroke:#8A80DB;stroke-width:1.5;stroke-linecap:round;stroke-linejoin:round;stroke-miterlimit:10;}
	.st47{fill:url(#SVGID_00000003783929261921468800000015825344894049769393_);}
	.st48{fill:url(#SVGID_00000015347003437439533310000013166649371624584127_);}
	.st49{fill:#D5E0FF;}
	.st50{fill:url(#SVGID_00000081636846785432939280000006874665982564778666_);}
	.st51{fill:url(#SVGID_00000153688079910061906110000010205413022531406746_);}
</style>
<g>
	<defs>
		<rect id="SVGID_1_" width="285" height="228"/>
	</defs>
	<clipPath id="SVGID_00000034797566481131701230000002514815512197853615_">
		<use xlink:href="#SVGID_1_"  style="overflow:visible;"/>
	</clipPath>
	<g style="clip-path:url(#SVGID_00000034797566481131701230000002514815512197853615_);">
		<path class="st1" d="M11.7,146.8l-5.5,3.6c-3.8-9.1-5.7-16-3.8-16.9C2.4,133.4,6.7,138.9,11.7,146.8z"/>
		<path class="st2" d="M27.6,184.8c0,0.2,0,0.4,0,0.6c-6.2,1.2-27.6-31-27.6-31l6.3-4.1l5.5-3.6C18.8,157.8,27.3,173.5,27.6,184.8z"
			/>
		
			<linearGradient id="SVGID_00000011716976899868828070000009147404006007709062_" gradientUnits="userSpaceOnUse" x1="157.1042" y1="130.6327" x2="137.3502" y2="167.5784" gradientTransform="matrix(1 0 0 -1 0 230)">
			<stop  offset="0" style="stop-color:#E0DFE9"/>
			<stop  offset="0.6747" style="stop-color:#FFFFFF"/>
			<stop  offset="0.9102" style="stop-color:#E2E1EA"/>
		</linearGradient>
		<path style="fill:url(#SVGID_00000011716976899868828070000009147404006007709062_);" d="M285,44.6c0,0-108.2,53.6-126.2,64.9
			c-18,11.4-121.7,73.8-121.7,73.8s-0.1-1.3-0.5-3.6c-1.4-9.5-6.9-35.7-24.2-50.6c-0.6-0.5-1.2-1-1.9-1.5c0,0,61.7-28.7,102.7-48.7
			c15.2-7.4,27.6-13.6,32.8-16.6c4.6-2.7,13.3-7.7,23.9-13.7C203.3,29.5,255,0,255,0S281.2-0.6,285,44.6z"/>
		
			<linearGradient id="SVGID_00000072272190850298540810000006791081906232173958_" gradientUnits="userSpaceOnUse" x1="20.0752" y1="77.6177" x2="-5.8447" y2="130.0766" gradientTransform="matrix(1 0 0 -1 0 230)">
			<stop  offset="0" style="stop-color:#E0DFE9"/>
			<stop  offset="1" style="stop-color:#FFFFFF"/>
		</linearGradient>
		<path style="fill:url(#SVGID_00000072272190850298540810000006791081906232173958_);" d="M36.6,179.7l-7.2,4.7l-1,0.7l-0.7,0.4
			l-0.2,0.1c0,0,0-0.1,0-0.1c0-0.2,0-0.4,0-0.6c-0.2-11.3-8.8-27-15.8-38c-5-7.9-9.3-13.4-9.3-13.4c0,0,0.1,0,0.1-0.1l9.9-4.3
			C29.7,144,35.2,170.1,36.6,179.7z"/>
		<path class="st1" d="M176.8,93.6c-2.7,6.7-8.4,12.1-16.1,14.2c-13.3,3.7-27.5-4-31.7-17.1c-2-6.4-1.3-12.9,1.6-18.3
			c3-5.7,8.2-10.2,15.1-12.1c13.3-3.7,27.5,4,31.7,17.1C179.1,82.9,178.8,88.6,176.8,93.6z"/>
		
			<radialGradient id="SVGID_00000155843130366102428540000000063533128538240441_" cx="-253.1034" cy="506.5858" r="0.9991" gradientTransform="matrix(65.9554 0 0 -33.8661 16824.8711 17264.957)" gradientUnits="userSpaceOnUse">
			<stop  offset="0" style="stop-color:#B6D3F8"/>
			<stop  offset="1" style="stop-color:#A1CAF6"/>
		</radialGradient>
		<path style="fill:url(#SVGID_00000155843130366102428540000000063533128538240441_);" d="M160.1,90.3l-1-0.3l-19.7,64.4
			C132.7,154.1,123,135,123,135l-20.2,13.4c7.4-10,10-59.5,21.8-75.1c3.2-4.2,18.8-10,18.8-10L160.1,90.3z"/>
		
			<radialGradient id="SVGID_00000000916109426514100820000008815882522154007974_" cx="-254.4503" cy="500.8185" r="0.9992" gradientTransform="matrix(100.796 0 0 -20.0948 25834.5996 10146.8945)" gradientUnits="userSpaceOnUse">
			<stop  offset="0" style="stop-color:#B6D3F8"/>
			<stop  offset="1" style="stop-color:#A1CAF6"/>
		</radialGradient>
		<path style="fill:url(#SVGID_00000000916109426514100820000008815882522154007974_);" d="M207.7,87c1.7,10.1,13.7,23.1,13.7,23.1
			l-61.3-19.8l-16.7-27.1l13-6.9c0,0,29.4-1.9,38.9,3.6S231,76.7,231,76.7C228.9,80.9,207.7,87,207.7,87z"/>
		
			<radialGradient id="SVGID_00000080921765425946346600000014105823781288034460_" cx="-253.0597" cy="489.8081" r="0.9992" gradientTransform="matrix(65.2229 0 0 -11.3126 16646.7676 5604.7759)" gradientUnits="userSpaceOnUse">
			<stop  offset="0" style="stop-color:#B6D3F8"/>
			<stop  offset="1" style="stop-color:#A1CAF6"/>
		</radialGradient>
		<path style="fill:url(#SVGID_00000080921765425946346600000014105823781288034460_);" d="M169.9,48.5l-5.5,12.2L125.8,79
			l-12.6-0.1c15.2-7.4,27.6-13.6,32.8-16.6C150.7,59.5,159.4,54.6,169.9,48.5z"/>
		<path class="st8" d="M175.2,88.5c-2.7,6.7-8.4,12.1-16.1,14.2c-13.3,3.7-27.5-4-31.7-17.1c-2-6.4-1.3-12.9,1.5-18.3
			c3-5.7,8.2-10.2,15.1-12.1c13.3-3.7,27.5,4,31.7,17.1C177.5,77.9,177.2,83.6,175.2,88.5z"/>
		
			<linearGradient id="SVGID_00000101792187521545703030000018405553126836608393_" gradientUnits="userSpaceOnUse" x1="128.3902" y1="146.4499" x2="175.8266" y2="157.8099" gradientTransform="matrix(1 0 0 -1 0 230)">
			<stop  offset="0" style="stop-color:#23313C"/>
			<stop  offset="0.1912" style="stop-color:#293641"/>
			<stop  offset="0.3674" style="stop-color:#676771"/>
			<stop  offset="0.5909" style="stop-color:#39434D"/>
			<stop  offset="0.6915" style="stop-color:#23313C"/>
			<stop  offset="0.9971" style="stop-color:#3D4651"/>
		</linearGradient>
		<path style="fill:url(#SVGID_00000101792187521545703030000018405553126836608393_);" d="M175.2,88.5c-3,5.7-8.2,10.1-15.1,12
			c-13.3,3.7-27.5-4-31.7-17.1c-1.8-5.6-1.4-11.3,0.6-16.2c1.4-2.7,3.3-5.1,5.7-7.2c2.6-2.2,5.8-3.9,9.4-4.9
			c13.3-3.7,27.5,4,31.7,17.1c0.1,0.3,0.2,0.7,0.3,1C177.5,78.6,177.1,83.9,175.2,88.5z"/>
		
			<linearGradient id="SVGID_00000033359675792123490810000001692105402770797218_" gradientUnits="userSpaceOnUse" x1="134.1317" y1="148.4899" x2="169.7306" y2="157.0149" gradientTransform="matrix(1 0 0 -1 0 230)">
			<stop  offset="0" style="stop-color:#152532"/>
			<stop  offset="1" style="stop-color:#354249"/>
		</linearGradient>
		<path style="fill:url(#SVGID_00000033359675792123490810000001692105402770797218_);" d="M169.3,85.3c-2.2,4.3-6.2,7.6-11.3,9
			c-10,2.8-20.6-3-23.8-12.8c-1.3-4.2-1.1-8.5,0.4-12.2c2.2-4.3,6.2-7.7,11.3-9.1c10-2.8,20.7,3,23.8,12.8
			C171,77.2,170.8,81.5,169.3,85.3z"/>
		
			<linearGradient id="SVGID_00000176726441058281899840000000674773365955251119_" gradientUnits="userSpaceOnUse" x1="157.7364" y1="209.4356" x2="154.7424" y2="150.6512" gradientTransform="matrix(1 0 0 -1 0 230)">
			<stop  offset="0" style="stop-color:#FFFFFF;stop-opacity:0.3"/>
			<stop  offset="1" style="stop-color:#FFFFFF;stop-opacity:0"/>
		</linearGradient>
		<path style="fill:url(#SVGID_00000176726441058281899840000000674773365955251119_);" d="M176.1,73.3c-1.4,0.5-2.8,0.9-4.3,1.3
			c-16.5,4-32.4-2.5-37-14.4c2.6-2.2,5.8-3.9,9.4-4.9c13.3-3.7,27.5,4,31.7,17.1C175.9,72.6,176,72.9,176.1,73.3z"/>
		
			<linearGradient id="SVGID_00000014604596318013573070000018321229254572799649_" gradientUnits="userSpaceOnUse" x1="204.1765" y1="115.1723" x2="237.9345" y2="-2.9117" gradientTransform="matrix(1 0 0 -1 0 230)">
			<stop  offset="0" style="stop-color:#E0DFE9"/>
			<stop  offset="0.6747" style="stop-color:#FFFFFF"/>
			<stop  offset="0.9102" style="stop-color:#E2E1EA"/>
		</linearGradient>
		<path style="fill:url(#SVGID_00000014604596318013573070000018321229254572799649_);" d="M278.5,156.9c0,0-8.9,29.1-39.4,40.9
			c-3.4,1.3-6.8,2.6-10.2,3.8c-21.5,7.6-43.1,13.4-53.4,12.5c0,0-0.1,0-0.1,0c-2.9-0.3-4.9-1.1-5.7-2.6c0,0,0.8-0.6,2.4-1.7v0
			c8.1-6.2,35.5-29.8,55.7-75.9L278.5,156.9z"/>
		<path class="st1" d="M228.8,201.6c-21.5,7.6-43.1,13.4-53.4,12.5c11.9-2,17.4-15.8,17.4-15.8C196.6,202.8,214.4,202.6,228.8,201.6
			z"/>
		
			<linearGradient id="SVGID_00000054979301299812615470000001477946845903552166_" gradientUnits="userSpaceOnUse" x1="230.5668" y1="72.7182" x2="270.5258" y2="84.8122" gradientTransform="matrix(1 0 0 -1 0 230)">
			<stop  offset="0" style="stop-color:#C6D3EF"/>
			<stop  offset="1" style="stop-color:#D8DAEF"/>
		</linearGradient>
		
			<path style="fill:none;stroke:url(#SVGID_00000054979301299812615470000001477946845903552166_);stroke-width:0.1;stroke-miterlimit:10;" d="
			M275.9,163.1l-50.8-23.7"/>
		
			<linearGradient id="SVGID_00000058589189836115710180000003235403068523751064_" gradientUnits="userSpaceOnUse" x1="227.6883" y1="66.9857" x2="267.4443" y2="79.0177" gradientTransform="matrix(1 0 0 -1 0 230)">
			<stop  offset="0" style="stop-color:#C6D3EF"/>
			<stop  offset="1" style="stop-color:#D8DAEF"/>
		</linearGradient>
		
			<path style="fill:none;stroke:url(#SVGID_00000058589189836115710180000003235403068523751064_);stroke-width:0.1;stroke-miterlimit:10;" d="
			M272.8,168.8l-50.5-23.6"/>
		
			<linearGradient id="SVGID_00000036228309213742864080000000720778696880976801_" gradientUnits="userSpaceOnUse" x1="224.6403" y1="61.4621" x2="263.9557" y2="73.3609" gradientTransform="matrix(1 0 0 -1 0 230)">
			<stop  offset="0" style="stop-color:#C6D3EF"/>
			<stop  offset="1" style="stop-color:#D8DAEF"/>
		</linearGradient>
		
			<path style="fill:none;stroke:url(#SVGID_00000036228309213742864080000000720778696880976801_);stroke-width:0.1;stroke-miterlimit:10;" d="
			M269.3,174.3l-49.9-23.3"/>
		
			<linearGradient id="SVGID_00000036957734831683696660000001047159516065760959_" gradientUnits="userSpaceOnUse" x1="221.3516" y1="56.1139" x2="259.8916" y2="67.7779" gradientTransform="matrix(1 0 0 -1 0 230)">
			<stop  offset="0" style="stop-color:#C6D3EF"/>
			<stop  offset="1" style="stop-color:#D8DAEF"/>
		</linearGradient>
		
			<path style="fill:none;stroke:url(#SVGID_00000036957734831683696660000001047159516065760959_);stroke-width:0.1;stroke-miterlimit:10;" d="
			M265.1,179.5l-49-22.9"/>
		
			<linearGradient id="SVGID_00000049203230245057278540000004895011337198640537_" gradientUnits="userSpaceOnUse" x1="217.9427" y1="51.0582" x2="255.4001" y2="62.3943" gradientTransform="matrix(1 0 0 -1 0 230)">
			<stop  offset="0" style="stop-color:#C6D3EF"/>
			<stop  offset="1" style="stop-color:#D8DAEF"/>
		</linearGradient>
		
			<path style="fill:none;stroke:url(#SVGID_00000049203230245057278540000004895011337198640537_);stroke-width:0.1;stroke-miterlimit:10;" d="
			M260.4,184.4l-47.5-22.2"/>
		
			<linearGradient id="SVGID_00000067933026764465820450000013219718828593678495_" gradientUnits="userSpaceOnUse" x1="214.2277" y1="46.2677" x2="250.0647" y2="57.1137" gradientTransform="matrix(1 0 0 -1 0 230)">
			<stop  offset="0" style="stop-color:#C6D3EF"/>
			<stop  offset="1" style="stop-color:#D8DAEF"/>
		</linearGradient>
		
			<path style="fill:none;stroke:url(#SVGID_00000067933026764465820450000013219718828593678495_);stroke-width:0.1;stroke-miterlimit:10;" d="
			M254.9,189l-45.5-21.3"/>
		
			<linearGradient id="SVGID_00000001625163531993380230000011844065986247396528_" gradientUnits="userSpaceOnUse" x1="210.2506" y1="41.7311" x2="244.0936" y2="51.9731" gradientTransform="matrix(1 0 0 -1 0 230)">
			<stop  offset="0" style="stop-color:#C6D3EF"/>
			<stop  offset="1" style="stop-color:#D8DAEF"/>
		</linearGradient>
		
			<path style="fill:none;stroke:url(#SVGID_00000001625163531993380230000011844065986247396528_);stroke-width:0.1;stroke-miterlimit:10;" d="
			M248.7,193.2l-43-20.1"/>
		
			<linearGradient id="SVGID_00000025423330171082645780000015668872937494027689_" gradientUnits="userSpaceOnUse" x1="206.0255" y1="37.6525" x2="237.1315" y2="47.0665" gradientTransform="matrix(1 0 0 -1 0 230)">
			<stop  offset="0" style="stop-color:#C6D3EF"/>
			<stop  offset="1" style="stop-color:#D8DAEF"/>
		</linearGradient>
		
			<path style="fill:none;stroke:url(#SVGID_00000025423330171082645780000015668872937494027689_);stroke-width:0.1;stroke-miterlimit:10;" d="
			M241.3,196.9l-39.5-18.4"/>
		
			<linearGradient id="SVGID_00000110431715706934238280000016787984157236701617_" gradientUnits="userSpaceOnUse" x1="201.5199" y1="33.9023" x2="229.2616" y2="42.2978" gradientTransform="matrix(1 0 0 -1 0 230)">
			<stop  offset="0" style="stop-color:#C6D3EF"/>
			<stop  offset="1" style="stop-color:#D8DAEF"/>
		</linearGradient>
		
			<path style="fill:none;stroke:url(#SVGID_00000110431715706934238280000016787984157236701617_);stroke-width:0.1;stroke-miterlimit:10;" d="
			M197.8,183.7l35.2,16.4h0"/>
		
			<linearGradient id="SVGID_00000044175063720844164000000009222721351477686663_" gradientUnits="userSpaceOnUse" x1="196.4992" y1="31.2235" x2="218.7726" y2="37.9649" gradientTransform="matrix(1 0 0 -1 0 230)">
			<stop  offset="0" style="stop-color:#C6D3EF"/>
			<stop  offset="1" style="stop-color:#D8DAEF"/>
		</linearGradient>
		
			<path style="fill:none;stroke:url(#SVGID_00000044175063720844164000000009222721351477686663_);stroke-width:0.1;stroke-miterlimit:10;" d="
			M193.5,188.8l28.2,13.2"/>
		
			<linearGradient id="SVGID_00000117652953627410651760000004858512696373486781_" gradientUnits="userSpaceOnUse" x1="190.8651" y1="29.976" x2="204.6691" y2="34.1539" gradientTransform="matrix(1 0 0 -1 0 230)">
			<stop  offset="0" style="stop-color:#C6D3EF"/>
			<stop  offset="1" style="stop-color:#D8DAEF"/>
		</linearGradient>
		
			<path style="fill:none;stroke:url(#SVGID_00000117652953627410651760000004858512696373486781_);stroke-width:0.1;stroke-miterlimit:10;" d="
			M189,193.9l17.5,8.2"/>
		
			<linearGradient id="SVGID_00000160910629381976620630000001198468955241491644_" gradientUnits="userSpaceOnUse" x1="184.9703" y1="28.8664" x2="190.2933" y2="30.4774" gradientTransform="matrix(1 0 0 -1 0 230)">
			<stop  offset="0" style="stop-color:#C6D3EF"/>
			<stop  offset="1" style="stop-color:#D8DAEF"/>
		</linearGradient>
		
			<path style="fill:none;stroke:url(#SVGID_00000160910629381976620630000001198468955241491644_);stroke-width:0.1;stroke-miterlimit:10;" d="
			M184.2,198.8l6.7,3.1"/>
		
			<linearGradient id="SVGID_00000031906965254848836900000014141217244890497678_" gradientUnits="userSpaceOnUse" x1="180.0847" y1="23.6743" x2="186.2867" y2="25.5503" gradientTransform="matrix(1 0 0 -1 0 230)">
			<stop  offset="0" style="stop-color:#C6D3EF"/>
			<stop  offset="1" style="stop-color:#D8DAEF"/>
		</linearGradient>
		
			<path style="fill:none;stroke:url(#SVGID_00000031906965254848836900000014141217244890497678_);stroke-width:0.1;stroke-miterlimit:10;" d="
			M179.2,203.6l7.9,3.7"/>
		
			<linearGradient id="SVGID_00000119807790499226091550000017106750158077060786_" gradientUnits="userSpaceOnUse" x1="174.7561" y1="19.1056" x2="180.8231" y2="20.9416" gradientTransform="matrix(1 0 0 -1 0 230)">
			<stop  offset="0" style="stop-color:#C6D3EF"/>
			<stop  offset="1" style="stop-color:#D8DAEF"/>
		</linearGradient>
		
			<path style="fill:none;stroke:url(#SVGID_00000119807790499226091550000017106750158077060786_);stroke-width:0.1;stroke-miterlimit:10;" d="
			M173.9,208.2l7.7,3.6"/>
		
			<linearGradient id="SVGID_00000108990777362526051600000017111955144995516074_" gradientUnits="userSpaceOnUse" x1="163.7797" y1="44.3195" x2="238.8071" y2="67.0267" gradientTransform="matrix(1 0 0 -1 0 230)">
			<stop  offset="0" style="stop-color:#C6D3EF"/>
			<stop  offset="1" style="stop-color:#D8DAEF"/>
		</linearGradient>
		
			<path style="fill:none;stroke:url(#SVGID_00000108990777362526051600000017111955144995516074_);stroke-width:0.1;stroke-miterlimit:10;" d="
			M172.2,213.5c3.9-3,15.1-12.2,28.1-28.6c1.4-1.7,2.7-3.4,4.1-5.3c1.2-1.7,2.6-3.5,3.8-5.3c1.2-1.7,2.5-3.5,3.7-5.4
			c1.2-1.8,2.3-3.6,3.5-5.5c1.1-1.8,2.2-3.6,3.3-5.5c1.1-1.8,2.1-3.7,3.2-5.7c1-1.9,2-3.8,3-5.7c1-1.9,2-3.8,2.9-5.8
			c0.9-1.8,1.7-3.6,2.5-5.4"/>
		
			<linearGradient id="SVGID_00000039817706196634028070000017518769360662144930_" gradientUnits="userSpaceOnUse" x1="167.0256" y1="43.463" x2="241.4644" y2="65.9913" gradientTransform="matrix(1 0 0 -1 0 230)">
			<stop  offset="0" style="stop-color:#C6D3EF"/>
			<stop  offset="1" style="stop-color:#D8DAEF"/>
		</linearGradient>
		
			<path style="fill:none;stroke:url(#SVGID_00000039817706196634028070000017518769360662144930_);stroke-width:0.1;stroke-miterlimit:10;" d="
			M175.4,214.1L175.4,214.1c4.1-3.2,15-12.2,27.5-28c1.3-1.7,2.7-3.4,4-5.2c1.3-1.7,2.6-3.5,3.9-5.3c1.2-1.7,2.4-3.5,3.7-5.4
			c1.2-1.7,2.4-3.6,3.5-5.5c1.1-1.8,2.2-3.6,3.3-5.5c1.1-1.8,2.1-3.7,3.2-5.7c1-1.9,2.1-3.8,3-5.8c1-1.9,1.9-3.8,2.9-5.8
			c0.9-1.8,1.7-3.6,2.6-5.5"/>
		
			<linearGradient id="SVGID_00000011001402571033757940000006034796427745844404_" gradientUnits="userSpaceOnUse" x1="176.4803" y1="46.0628" x2="243.7357" y2="66.417" gradientTransform="matrix(1 0 0 -1 0 230)">
			<stop  offset="0" style="stop-color:#C6D3EF"/>
			<stop  offset="1" style="stop-color:#D8DAEF"/>
		</linearGradient>
		
			<path style="fill:none;stroke:url(#SVGID_00000011001402571033757940000006034796427745844404_);stroke-width:0.1;stroke-miterlimit:10;" d="
			M184.4,209.9c0.4-0.4,0.9-0.8,1.4-1.2c2.6-2.4,5.6-5.4,9-8.9c3.4-3.5,7-7.7,10.8-12.4c1.4-1.7,2.7-3.4,4.1-5.3
			c1.2-1.7,2.6-3.5,3.8-5.3c1.2-1.7,2.5-3.5,3.7-5.4c1.2-1.7,2.4-3.6,3.5-5.5c1.1-1.8,2.3-3.6,3.4-5.5c1.1-1.8,2.1-3.7,3.2-5.7
			c1-1.8,2-3.8,3-5.7c1-1.9,1.9-3.8,2.9-5.8c0.9-1.8,1.7-3.6,2.6-5.5"/>
		
			<linearGradient id="SVGID_00000049911991360447355590000016432693157718817684_" gradientUnits="userSpaceOnUse" x1="175.613" y1="42.9328" x2="246.6535" y2="64.4327" gradientTransform="matrix(1 0 0 -1 0 230)">
			<stop  offset="0" style="stop-color:#C6D3EF"/>
			<stop  offset="1" style="stop-color:#D8DAEF"/>
		</linearGradient>
		
			<path style="fill:none;stroke:url(#SVGID_00000049911991360447355590000016432693157718817684_);stroke-width:0.1;stroke-miterlimit:10;" d="
			M183.7,213.8c3.2-2.7,8-7,13.8-13h0c3.3-3.5,6.9-7.5,10.6-12.2c1.4-1.7,2.7-3.4,4.1-5.2c1.3-1.7,2.6-3.5,3.9-5.3
			c1.2-1.7,2.5-3.5,3.7-5.4c1.2-1.7,2.4-3.6,3.5-5.5c1.1-1.8,2.3-3.6,3.4-5.6c1.1-1.8,2.2-3.7,3.2-5.7c1-1.9,2.1-3.8,3-5.7
			c1-1.9,2-3.8,2.9-5.8c0.9-1.8,1.8-3.7,2.6-5.6"/>
		
			<linearGradient id="SVGID_00000037694997097629382600000005089353626465015180_" gradientUnits="userSpaceOnUse" x1="193.7917" y1="51.0277" x2="248.0767" y2="67.4567" gradientTransform="matrix(1 0 0 -1 0 230)">
			<stop  offset="0" style="stop-color:#C6D3EF"/>
			<stop  offset="1" style="stop-color:#D8DAEF"/>
		</linearGradient>
		
			<path style="fill:none;stroke:url(#SVGID_00000037694997097629382600000005089353626465015180_);stroke-width:0.1;stroke-miterlimit:10;" d="
			M200.6,201.4c3.2-3.3,6.6-7.2,10.2-11.6c1.4-1.7,2.7-3.4,4.1-5.3c1.3-1.7,2.6-3.4,3.9-5.3c1.2-1.7,2.5-3.5,3.8-5.4
			c1.2-1.8,2.4-3.6,3.5-5.5c1.1-1.8,2.3-3.6,3.4-5.6c1.1-1.8,2.2-3.7,3.3-5.6c1-1.9,2-3.8,3.1-5.7c1-1.9,1.9-3.8,2.9-5.8
			c0.9-1.8,1.8-3.6,2.6-5.6"/>
		
			<linearGradient id="SVGID_00000142140663998628864280000011789269416348925593_" gradientUnits="userSpaceOnUse" x1="197.2087" y1="50.2964" x2="250.7397" y2="66.4973" gradientTransform="matrix(1 0 0 -1 0 230)">
			<stop  offset="0" style="stop-color:#C6D3EF"/>
			<stop  offset="1" style="stop-color:#D8DAEF"/>
		</linearGradient>
		
			<path style="fill:none;stroke:url(#SVGID_00000142140663998628864280000011789269416348925593_);stroke-width:0.1;stroke-miterlimit:10;" d="
			M203.9,201.8c3-3.1,6.1-6.7,9.5-10.8c1.4-1.7,2.7-3.4,4.1-5.3h0c1.3-1.7,2.6-3.4,3.9-5.3c1.2-1.7,2.5-3.5,3.7-5.4
			c1.2-1.7,2.4-3.5,3.5-5.4c1.2-1.8,2.3-3.6,3.4-5.6c1.1-1.8,2.2-3.7,3.3-5.6c1-1.9,2-3.8,3.1-5.7c1-1.9,1.9-3.8,2.9-5.8
			c0.9-1.8,1.8-3.7,2.7-5.6"/>
		
			<linearGradient id="SVGID_00000031927210052952149360000013693110850256834975_" gradientUnits="userSpaceOnUse" x1="200.7415" y1="49.7162" x2="253.3538" y2="65.6394" gradientTransform="matrix(1 0 0 -1 0 230)">
			<stop  offset="0" style="stop-color:#C6D3EF"/>
			<stop  offset="1" style="stop-color:#D8DAEF"/>
		</linearGradient>
		
			<path style="fill:none;stroke:url(#SVGID_00000031927210052952149360000013693110850256834975_);stroke-width:0.1;stroke-miterlimit:10;" d="
			M207.4,202.1c2.7-2.9,5.6-6.2,8.6-9.9c1.4-1.7,2.7-3.4,4.1-5.2c1.3-1.7,2.6-3.4,3.9-5.3c1.2-1.7,2.5-3.5,3.8-5.4
			c1.2-1.8,2.4-3.6,3.5-5.4c1.2-1.7,2.3-3.6,3.4-5.5c1.1-1.8,2.2-3.7,3.3-5.6c1-1.8,2.1-3.7,3.1-5.7c1-1.9,1.9-3.8,2.9-5.8
			c0.9-1.8,1.8-3.7,2.7-5.6"/>
		
			<linearGradient id="SVGID_00000147908175494647439560000001912585899844777144_" gradientUnits="userSpaceOnUse" x1="204.5177" y1="49.1971" x2="255.9969" y2="64.7778" gradientTransform="matrix(1 0 0 -1 0 230)">
			<stop  offset="0" style="stop-color:#C6D3EF"/>
			<stop  offset="1" style="stop-color:#D8DAEF"/>
		</linearGradient>
		
			<path style="fill:none;stroke:url(#SVGID_00000147908175494647439560000001912585899844777144_);stroke-width:0.1;stroke-miterlimit:10;" d="
			M211,202.2c2.4-2.6,5-5.5,7.6-8.7c1.4-1.7,2.7-3.4,4.1-5.2c1.3-1.7,2.6-3.4,3.9-5.3c1.2-1.7,2.5-3.5,3.8-5.4
			c1.2-1.8,2.4-3.6,3.6-5.5c1.2-1.8,2.3-3.6,3.4-5.5c1.1-1.8,2.2-3.7,3.3-5.6c1-1.9,2.1-3.8,3.1-5.7c1-1.9,2-3.8,2.9-5.8
			c0.9-1.8,1.8-3.7,2.7-5.7"/>
		
			<linearGradient id="SVGID_00000084522841643217036700000007926060344667308478_" gradientUnits="userSpaceOnUse" x1="208.2972" y1="48.748" x2="258.6349" y2="63.982" gradientTransform="matrix(1 0 0 -1 0 230)">
			<stop  offset="0" style="stop-color:#C6D3EF"/>
			<stop  offset="1" style="stop-color:#D8DAEF"/>
		</linearGradient>
		
			<path style="fill:none;stroke:url(#SVGID_00000084522841643217036700000007926060344667308478_);stroke-width:0.1;stroke-miterlimit:10;" d="
			M214.7,202.2c2.1-2.3,4.3-4.8,6.5-7.6c1.4-1.6,2.8-3.4,4.2-5.2c1.3-1.7,2.6-3.4,4-5.3c1.2-1.7,2.5-3.5,3.8-5.4
			c1.2-1.8,2.4-3.6,3.6-5.4c1.2-1.8,2.3-3.6,3.4-5.5c1.1-1.8,2.2-3.7,3.3-5.6c1-1.9,2.1-3.8,3.1-5.7c1-1.9,2-3.8,2.9-5.8
			c0.9-1.8,1.9-3.7,2.7-5.7"/>
		
			<linearGradient id="SVGID_00000021806942769332219060000013170596603061638021_" gradientUnits="userSpaceOnUse" x1="212.2358" y1="48.347" x2="261.2488" y2="63.181" gradientTransform="matrix(1 0 0 -1 0 230)">
			<stop  offset="0" style="stop-color:#C6D3EF"/>
			<stop  offset="1" style="stop-color:#D8DAEF"/>
		</linearGradient>
		
			<path style="fill:none;stroke:url(#SVGID_00000021806942769332219060000013170596603061638021_);stroke-width:0.1;stroke-miterlimit:10;" d="
			M218.4,202.1c1.7-1.9,3.5-4,5.4-6.2c1.4-1.7,2.8-3.4,4.2-5.2c1.3-1.7,2.7-3.4,4-5.3c1.2-1.7,2.5-3.5,3.8-5.3
			c1.2-1.8,2.4-3.6,3.6-5.5c1.2-1.7,2.3-3.6,3.4-5.5c1.1-1.8,2.2-3.6,3.3-5.6c1-1.8,2.1-3.7,3.1-5.7c1-1.8,2-3.8,3-5.7
			c0.9-1.9,1.9-3.8,2.8-5.7"/>
		
			<linearGradient id="SVGID_00000176029290148110098490000001120182378975479466_" gradientUnits="userSpaceOnUse" x1="216.113" y1="47.9767" x2="263.8232" y2="62.4161" gradientTransform="matrix(1 0 0 -1 0 230)">
			<stop  offset="0" style="stop-color:#C6D3EF"/>
			<stop  offset="1" style="stop-color:#D8DAEF"/>
		</linearGradient>
		
			<path style="fill:none;stroke:url(#SVGID_00000176029290148110098490000001120182378975479466_);stroke-width:0.1;stroke-miterlimit:10;" d="
			M222.2,202L222.2,202c1.4-1.5,2.8-3.2,4.2-4.9c1.4-1.6,2.8-3.4,4.2-5.2c1.3-1.7,2.7-3.4,4-5.3c1.2-1.7,2.5-3.5,3.8-5.3
			c1.2-1.8,2.4-3.6,3.7-5.4c1.2-1.8,2.3-3.6,3.5-5.5c1.1-1.9,2.2-3.7,3.3-5.6c1-1.8,2.1-3.7,3.1-5.7c1-1.9,2-3.8,3-5.8
			c0.9-1.9,1.9-3.8,2.8-5.7"/>
		
			<linearGradient id="SVGID_00000057129123604834282700000005018438190272078477_" gradientUnits="userSpaceOnUse" x1="220.1422" y1="47.7102" x2="266.4192" y2="61.7152" gradientTransform="matrix(1 0 0 -1 0 230)">
			<stop  offset="0" style="stop-color:#C6D3EF"/>
			<stop  offset="1" style="stop-color:#D8DAEF"/>
		</linearGradient>
		
			<path style="fill:none;stroke:url(#SVGID_00000057129123604834282700000005018438190272078477_);stroke-width:0.1;stroke-miterlimit:10;" d="
			M226.1,201.8c1-1.1,2-2.3,3-3.5c1.4-1.7,2.8-3.4,4.2-5.2c1.3-1.7,2.7-3.4,4-5.3c1.3-1.7,2.5-3.5,3.8-5.4c1.2-1.7,2.4-3.6,3.7-5.4
			c1.2-1.7,2.3-3.6,3.5-5.5c1.1-1.8,2.2-3.7,3.3-5.6c1-1.8,2.1-3.7,3.2-5.7c1-1.9,2-3.8,3-5.7c1-1.9,1.9-3.8,2.9-5.8"/>
		
			<linearGradient id="SVGID_00000127001616487249960980000016457359039671397260_" gradientUnits="userSpaceOnUse" x1="224.6346" y1="47.7073" x2="268.9169" y2="61.1093" gradientTransform="matrix(1 0 0 -1 0 230)">
			<stop  offset="0" style="stop-color:#C6D3EF"/>
			<stop  offset="1" style="stop-color:#D8DAEF"/>
		</linearGradient>
		
			<path style="fill:none;stroke:url(#SVGID_00000127001616487249960980000016457359039671397260_);stroke-width:0.1;stroke-miterlimit:10;" d="
			M230.3,201.1L230.3,201.1c0.5-0.5,0.9-1,1.3-1.5c1.4-1.6,2.8-3.3,4.2-5.2c1.3-1.7,2.7-3.4,4-5.3c1.3-1.7,2.5-3.5,3.8-5.3
			c1.2-1.8,2.4-3.6,3.7-5.4c1.2-1.7,2.3-3.6,3.5-5.5c1.1-1.8,2.2-3.6,3.3-5.6c1.1-1.8,2.1-3.7,3.2-5.7c1-1.8,2-3.8,3-5.7
			c1-1.9,1.9-3.8,2.9-5.8"/>
		
			<linearGradient id="SVGID_00000116221457940003720420000011630656785512918193_" gradientUnits="userSpaceOnUse" x1="230.2184" y1="48.545" x2="271.3371" y2="60.9894" gradientTransform="matrix(1 0 0 -1 0 230)">
			<stop  offset="0" style="stop-color:#C6D3EF"/>
			<stop  offset="1" style="stop-color:#D8DAEF"/>
		</linearGradient>
		
			<path style="fill:none;stroke:url(#SVGID_00000116221457940003720420000011630656785512918193_);stroke-width:0.1;stroke-miterlimit:10;" d="
			M235.5,199.1L235.5,199.1c1-1.1,1.9-2.3,2.9-3.6c1.4-1.7,2.7-3.4,4-5.2c1.3-1.7,2.5-3.5,3.9-5.3c1.2-1.8,2.4-3.6,3.7-5.4
			c1.2-1.7,2.3-3.6,3.5-5.5c1.2-1.8,2.2-3.6,3.4-5.6c1-1.8,2.1-3.7,3.2-5.6c1-1.9,2-3.8,3-5.7c1-1.9,2-3.8,2.9-5.8"/>
		
			<linearGradient id="SVGID_00000136400443922025737810000009069841368442373310_" gradientUnits="userSpaceOnUse" x1="235.9009" y1="49.4278" x2="273.7344" y2="60.8786" gradientTransform="matrix(1 0 0 -1 0 230)">
			<stop  offset="0" style="stop-color:#C6D3EF"/>
			<stop  offset="1" style="stop-color:#D8DAEF"/>
		</linearGradient>
		
			<path style="fill:none;stroke:url(#SVGID_00000136400443922025737810000009069841368442373310_);stroke-width:0.1;stroke-miterlimit:10;" d="
			M240.9,197.1L240.9,197.1c0.1-0.1,0.1-0.2,0.2-0.3c1.3-1.7,2.7-3.4,4-5.2c1.3-1.7,2.6-3.5,3.9-5.3c1.2-1.8,2.4-3.6,3.7-5.4
			c1.2-1.7,2.4-3.6,3.5-5.5c1.2-1.8,2.2-3.6,3.4-5.6c1-1.9,2.1-3.7,3.2-5.7c1-1.8,2-3.8,3-5.7c1-1.9,1.9-3.8,2.9-5.8"/>
		
			<linearGradient id="SVGID_00000098219214538129308010000008797981096177230264_" gradientUnits="userSpaceOnUse" x1="241.977" y1="50.7635" x2="276.022" y2="61.0665" gradientTransform="matrix(1 0 0 -1 0 230)">
			<stop  offset="0" style="stop-color:#C6D3EF"/>
			<stop  offset="1" style="stop-color:#D8DAEF"/>
		</linearGradient>
		
			<path style="fill:none;stroke:url(#SVGID_00000098219214538129308010000008797981096177230264_);stroke-width:0.1;stroke-miterlimit:10;" d="
			M246.6,194.4c0.4-0.5,0.8-1.1,1.2-1.6c1.3-1.7,2.6-3.5,3.9-5.3c1.2-1.8,2.5-3.6,3.7-5.5c1.2-1.7,2.4-3.5,3.5-5.4
			c1.1-1.8,2.2-3.6,3.4-5.6c1.1-1.8,2.1-3.7,3.2-5.7c1-1.8,2-3.7,3-5.7c1-1.9,1.9-3.8,2.9-5.9"/>
		
			<linearGradient id="SVGID_00000092429265736350844560000009013131524944387988_" gradientUnits="userSpaceOnUse" x1="249.1917" y1="52.9887" x2="278.2037" y2="61.7697" gradientTransform="matrix(1 0 0 -1 0 230)">
			<stop  offset="0" style="stop-color:#C6D3EF"/>
			<stop  offset="1" style="stop-color:#D8DAEF"/>
		</linearGradient>
		
			<path style="fill:none;stroke:url(#SVGID_00000092429265736350844560000009013131524944387988_);stroke-width:0.1;stroke-miterlimit:10;" d="
			M253.2,190.3L253.2,190.3c0.4-0.6,0.7-1.1,1.1-1.6c1.2-1.7,2.5-3.5,3.7-5.4c1.2-1.7,2.4-3.6,3.5-5.4c1.1-1.8,2.2-3.6,3.4-5.6
			c1.1-1.8,2.1-3.7,3.2-5.6c1-1.9,2.1-3.8,3.1-5.7c1-1.9,2-3.9,2.9-5.9"/>
		<path class="st44" d="M145.6,84.5L148,89l6.7-3.7l-0.5-1l-5.8,3.2l-1.9-3.5L145.6,84.5z M162.5,75.2l1.9,3.5l-5.8,3.2l0.5,1
			l6.7-3.7l-2.4-4.4L162.5,75.2z M148.6,74.1l3.7,6.7l4.4-2.4l-0.5-0.9l-3.5,1.9l-3.2-5.9L148.6,74.1z M139.4,73.3l2.4,4.4l1-0.5
			l-1.9-3.5l5.8-3.2l-0.5-1L139.4,73.3z M150.6,67.2l0.5,1l5.8-3.2l1.9,3.5l1-0.5l-2.4-4.4L150.6,67.2z"/>
		
			<linearGradient id="SVGID_00000100344374683671535710000005806989160145411975_" gradientUnits="userSpaceOnUse" x1="258.3296" y1="56.9121" x2="280.0426" y2="63.4831" gradientTransform="matrix(1 0 0 -1 0 230)">
			<stop  offset="0" style="stop-color:#C6D3EF"/>
			<stop  offset="1" style="stop-color:#D8DAEF"/>
		</linearGradient>
		
			<path style="fill:none;stroke:url(#SVGID_00000100344374683671535710000005806989160145411975_);stroke-width:0.1;stroke-miterlimit:10;" d="
			M261.4,183.4L261.4,183.4c1-1.4,1.9-2.8,2.8-4.3c1.2-1.8,2.3-3.6,3.4-5.6c1.1-1.8,2.2-3.7,3.2-5.6c1-1.9,2.1-3.8,3.1-5.7
			c1-1.9,2-3.9,3-5.9"/>
		<path class="st46" d="M251.5,164.4l0.9,4.6l14.2-5.9"/>
		<path class="st46" d="M227.6,147.7l19,8.8"/>
		<path class="st46" d="M224.3,153.4l19,8.8"/>
		<path class="st46" d="M221.6,159.2l10.6,4.9"/>
		
			<linearGradient id="SVGID_00000055680821763398586470000016949488830764247969_" gradientUnits="userSpaceOnUse" x1="21.6495" y1="163.2975" x2="41.4584" y2="163.2975" gradientTransform="matrix(1 0 0 -1 0 230)">
			<stop  offset="0" style="stop-color:#96BFF4"/>
			<stop  offset="1" style="stop-color:#4086D1"/>
		</linearGradient>
		<path style="fill:url(#SVGID_00000055680821763398586470000016949488830764247969_);" d="M34.5,62.1l-7.3,0.2l1.4,9l7.3-0.1
			L34.5,62.1z"/>
		
			<radialGradient id="SVGID_00000008850156428677905270000006548460068444017803_" cx="-223.927" cy="443.6317" r="0.9992" gradientTransform="matrix(7.7707 0 0 -3.9933 1777.9539 1837.3867)" gradientUnits="userSpaceOnUse">
			<stop  offset="0" style="stop-color:#B6D3F8"/>
			<stop  offset="1" style="stop-color:#A1CAF6"/>
		</radialGradient>
		<path style="fill:url(#SVGID_00000008850156428677905270000006548460068444017803_);" d="M41.3,69.4l-5.4,1.9l-1.4-9.1l5.4-1.7
			L41.3,69.4z"/>
		<path class="st49" d="M40,60.4l-7.2,0.2l-5.5,1.7l7.3-0.2L40,60.4z"/>
		
			<linearGradient id="SVGID_00000085950584407389618250000011143122926757208230_" gradientUnits="userSpaceOnUse" x1="265.929" y1="125.5355" x2="277.904" y2="125.5355" gradientTransform="matrix(1 0 0 -1 0 230)">
			<stop  offset="0" style="stop-color:#96BFF4"/>
			<stop  offset="1" style="stop-color:#4086D1"/>
		</linearGradient>
		<path style="fill:url(#SVGID_00000085950584407389618250000011143122926757208230_);" d="M274.5,102.8l-3.7-1.7l-1.5,4.8l3.7,1.7
			L274.5,102.8z"/>
		
			<radialGradient id="SVGID_00000152253231236915523320000016539727627374871942_" cx="-209.2501" cy="370.4049" r="0.999" gradientTransform="matrix(5.3822 0 0 -1.971 1401.5349 835.555)" gradientUnits="userSpaceOnUse">
			<stop  offset="0" style="stop-color:#B6D3F8"/>
			<stop  offset="1" style="stop-color:#A1CAF6"/>
		</radialGradient>
		<path style="fill:url(#SVGID_00000152253231236915523320000016539727627374871942_);" d="M276.1,108.1l-3.2-0.4l1.6-4.9l3.1,0.5
			L276.1,108.1z"/>
		<path class="st49" d="M277.7,103.3l-3.7-1.6l-3.2-0.5l3.7,1.7L277.7,103.3z"/>
	</g>
</g>
</svg>
