<svg width="285" height="228" viewBox="0 0 285 228" fill="none" xmlns="http://www.w3.org/2000/svg">
    <g clip-path="url(#clip0)">
        <path opacity="0.5" d="M11.7098 146.757L6.25672 150.323C2.43679 141.256 0.526823 134.318 2.43679 133.378C2.43679 133.378 6.69961 138.907 11.7098 146.757Z" fill="#9D9CAE"/>
        <path d="M27.5699 184.822C27.5699 185.043 27.5699 185.264 27.5699 185.457C21.3418 186.646 0 154.469 0 154.469L6.25583 150.351L11.7089 146.785C18.7675 157.842 27.3485 173.543 27.5699 184.822Z" fill="#9D9CAE"/>
        <path d="M285.001 44.5605C285.001 44.5605 176.797 98.1605 158.805 109.494C140.812 120.883 37.0653 183.273 37.0653 183.273C37.0653 183.273 36.9546 181.947 36.5947 179.68C35.1553 170.143 29.7022 144.02 12.3741 129.065C11.7652 128.54 11.1562 128.043 10.5195 127.545C10.5195 127.545 72.2474 98.7962 113.215 78.8656C128.439 71.4573 140.785 65.2928 146.044 62.2521C150.694 59.5707 159.386 54.595 169.905 48.5688C203.288 29.4674 255.023 -7.01347e-05 255.023 -7.01347e-05C255.023 -7.01347e-05 281.236 -0.608217 285.001 44.5605Z" fill="url(#paint0_linear)"/>
        <path d="M36.6224 179.652L29.4255 184.324L28.429 184.987L27.7646 185.402L27.5985 185.512C27.5985 185.485 27.5985 185.457 27.5985 185.429C27.5985 185.208 27.5985 184.987 27.5985 184.794C27.3771 173.515 18.8238 157.814 11.7652 146.757C6.75501 138.906 2.49219 133.378 2.49219 133.378C2.51987 133.35 2.54755 133.35 2.60291 133.322L12.4572 129.038C29.73 143.992 35.1554 170.143 36.6224 179.652Z" fill="url(#paint1_linear)"/>
        <path opacity="0.5" d="M176.798 93.5992C174.085 100.261 168.383 105.652 160.743 107.752C147.401 111.429 133.228 103.8 129.076 90.6691C127.055 84.2835 127.803 77.7598 130.626 72.3417C133.588 66.6472 138.875 62.1414 145.712 60.2617C159.054 56.5852 173.227 64.2147 177.379 77.3451C179.15 82.929 178.818 88.6235 176.798 93.5992Z" fill="#9D9CAE"/>
        <path d="M160.104 90.3375L159.135 90.0334L139.399 154.469C132.672 154.138 123.012 134.981 123.012 134.981L102.777 148.388C110.168 138.436 112.742 88.9 124.562 73.3093C127.773 69.08 143.357 63.2749 143.357 63.2749L160.104 90.3375Z" fill="url(#paint2_radial)"/>
        <path d="M207.689 87.0201C209.35 97.1651 221.418 110.102 221.418 110.102L160.106 90.3097L143.387 63.2471L156.397 56.3087C156.397 56.3087 185.821 54.4013 195.343 59.9299C204.865 65.4585 230.996 76.654 230.996 76.654C228.892 80.9387 207.689 87.0201 207.689 87.0201Z" fill="url(#paint3_radial)"/>
        <path d="M169.932 48.541L164.396 60.7869L125.809 79.0037L113.242 78.8655C128.467 71.4571 140.812 65.2927 146.071 62.252C150.722 59.543 159.413 54.5672 169.932 48.541Z" fill="url(#paint4_radial)"/>
        <path d="M175.165 88.5406C172.452 95.2026 166.75 100.593 159.11 102.694C145.768 106.37 131.595 98.741 127.443 85.6105C125.423 79.2249 126.17 72.7012 128.993 67.2831C131.955 61.5887 137.242 57.0828 144.079 55.2031C157.421 51.5266 171.594 59.1561 175.746 72.2865C177.518 77.8704 177.185 83.5649 175.165 88.5406Z" fill="#152532"/>
        <path d="M175.166 88.5404C172.176 94.2073 166.917 98.6855 160.108 100.565C146.766 104.242 132.593 96.6122 128.441 83.4818C126.669 77.8979 127.002 72.2034 129.022 67.2553C130.434 64.5463 132.372 62.1137 134.752 60.0957C137.382 57.8566 140.537 56.1704 144.108 55.1753C157.45 51.4987 171.623 59.1282 175.775 72.2587C175.886 72.5904 175.996 72.9498 176.079 73.2815C177.491 78.5613 177.076 83.8688 175.166 88.5404Z" fill="url(#paint5_linear)"/>
        <path d="M169.27 85.2512C167.027 89.5082 163.069 92.8806 157.948 94.2904C147.928 97.0547 137.298 91.3326 134.17 81.4641C132.842 77.2623 133.091 73.0053 134.586 69.2735C136.828 64.9888 140.786 61.6163 145.907 60.2065C155.927 57.4422 166.557 63.192 169.685 73.0329C171.041 77.2347 170.792 81.5193 169.27 85.2512Z" fill="url(#paint6_linear)"/>
        <path d="M152.881 68.3337C154.154 67.7255 155.455 68.0849 156.286 69.3012C157.587 71.1256 158.805 73.0054 160.133 74.9404C157.504 76.2396 154.929 77.5388 152.3 78.8381C150.611 76.3225 148.923 73.8347 147.123 71.1809C149.116 70.1858 150.971 69.2183 152.881 68.3337ZM150.279 79.8332C149.366 80.3031 148.424 80.7454 147.428 81.2706C146.819 80.3861 146.21 79.4738 145.546 78.5063C146.487 78.0364 147.4 77.5665 148.397 77.0689C149.061 77.9811 149.642 78.8657 150.279 79.8332ZM149.587 82.7081C150.196 82.3764 150.833 82.0999 151.525 81.7406C152.217 82.7357 152.826 83.6479 153.435 84.5602C151.635 86.0252 149.947 85.5553 148.784 83.2057C149.061 83.0398 149.31 82.8463 149.587 82.7081ZM158.528 78.3681C159.441 77.8982 160.355 77.4559 161.268 77.0136C163.151 78.6169 162.901 80.1926 160.438 81.1877C159.773 80.2202 159.165 79.3356 158.528 78.3681ZM147.04 74.9957C146.072 75.4656 145.13 75.9355 144.217 76.4055C142.528 74.4981 142.778 73.2542 145.158 72.2037C145.822 73.1712 146.404 74.0558 147.04 74.9957Z" fill="white"/>
        <path d="M147.125 71.1809C149.118 70.1858 150.973 69.2183 152.883 68.3337C154.156 67.7255 155.457 68.0849 156.287 69.3012C157.588 71.1256 158.806 73.0054 160.135 74.9404C157.505 76.2396 154.931 77.5388 152.301 78.838C150.585 76.3225 148.924 73.8346 147.125 71.1809Z" fill="white"/>
        <path d="M148.425 77.0688C149.062 78.0087 149.643 78.8656 150.308 79.8332C149.394 80.3031 148.453 80.7454 147.456 81.2706C146.848 80.386 146.239 79.4738 145.574 78.5063C146.515 78.0087 147.429 77.5664 148.425 77.0688Z" fill="white"/>
        <path d="M156.589 79.3633C157.226 80.3031 157.807 81.1601 158.472 82.1276C157.558 82.5975 156.617 83.0398 155.621 83.565C155.012 82.6804 154.403 81.7682 153.738 80.8007C154.679 80.3308 155.593 79.8609 156.589 79.3633Z" fill="white"/>
        <path d="M148.812 83.2053C149.062 83.0395 149.338 82.8736 149.615 82.7077C150.224 82.376 150.861 82.0996 151.553 81.7402C152.245 82.7354 152.854 83.6476 153.463 84.5598C151.636 86.0249 149.975 85.555 148.812 83.2053Z" fill="white"/>
        <path d="M160.41 81.1875C159.773 80.2476 159.164 79.363 158.527 78.3955C159.441 77.9256 160.354 77.4833 161.268 77.041C163.15 78.589 162.873 80.1923 160.41 81.1875Z" fill="white"/>
        <path d="M145.158 72.2314C145.795 73.1713 146.404 74.0559 147.04 75.0234C146.072 75.4933 145.13 75.9633 144.217 76.4332C142.528 74.5258 142.778 73.2542 145.158 72.2314Z" fill="white"/>
        <path d="M176.05 73.2817C174.666 73.7793 173.226 74.1939 171.759 74.5533C155.234 78.5062 139.345 72.093 134.723 60.1236C137.352 57.8845 140.508 56.1983 144.079 55.2031C157.421 51.5266 171.593 59.1561 175.745 72.2865C175.856 72.6182 175.967 72.95 176.05 73.2817Z" fill="url(#paint7_linear)"/>
        <path d="M278.47 156.949C278.47 156.949 269.529 186.057 239.025 197.833C235.648 199.133 232.216 200.404 228.811 201.593C207.358 209.222 185.712 215 175.387 214.115C175.387 214.115 175.304 214.143 175.276 214.115C172.37 213.839 170.377 213.037 169.574 211.544C169.574 211.544 170.405 210.964 171.955 209.83V209.803C180.065 203.555 207.414 180.031 227.676 133.95L278.47 156.949Z" fill="url(#paint8_linear)"/>
        <path opacity="0.5" d="M228.783 201.593C207.331 209.222 185.684 215 175.359 214.115C187.29 212.152 192.743 198.358 192.743 198.358C196.618 202.809 214.417 202.615 228.783 201.593Z" fill="#9D9CAE"/>
        <path d="M275.923 163.114L225.129 139.368" stroke="url(#paint9_linear)" stroke-width="0.1" stroke-miterlimit="10"/>
        <path d="M272.849 168.781L222.332 145.201" stroke="url(#paint10_linear)" stroke-width="0.1" stroke-miterlimit="10"/>
        <path d="M269.252 174.254L219.344 150.923" stroke="url(#paint11_linear)" stroke-width="0.1" stroke-miterlimit="10"/>
        <path d="M265.127 179.478L216.16 156.617" stroke="url(#paint12_linear)" stroke-width="0.1" stroke-miterlimit="10"/>
        <path d="M260.395 184.371L212.867 162.201" stroke="url(#paint13_linear)" stroke-width="0.1" stroke-miterlimit="10"/>
        <path d="M254.886 188.96L209.352 167.675" stroke="url(#paint14_linear)" stroke-width="0.1" stroke-miterlimit="10"/>
        <path d="M248.656 193.189L205.641 173.121" stroke="url(#paint15_linear)" stroke-width="0.1" stroke-miterlimit="10"/>
        <path d="M241.321 196.866L201.793 178.428" stroke="url(#paint16_linear)" stroke-width="0.1" stroke-miterlimit="10"/>
        <path d="M197.754 183.68L232.936 200.128H232.964" stroke="url(#paint17_linear)" stroke-width="0.1" stroke-miterlimit="10"/>
        <path d="M193.488 188.822L221.723 202.008" stroke="url(#paint18_linear)" stroke-width="0.1" stroke-miterlimit="10"/>
        <path d="M188.977 193.853L206.498 202.035" stroke="url(#paint19_linear)" stroke-width="0.1" stroke-miterlimit="10"/>
        <path d="M184.246 198.773L190.972 201.897" stroke="url(#paint20_linear)" stroke-width="0.1" stroke-miterlimit="10"/>
        <path d="M179.234 203.556L187.096 207.232" stroke="url(#paint21_linear)" stroke-width="0.1" stroke-miterlimit="10"/>
        <path d="M173.922 208.172L181.617 211.793" stroke="url(#paint22_linear)" stroke-width="0.1" stroke-miterlimit="10"/>
        <path d="M172.203 213.452C176.106 210.494 187.317 201.261 200.299 184.869C201.655 183.21 203.012 181.469 204.368 179.617C205.614 177.903 206.942 176.161 208.216 174.282C209.434 172.54 210.679 170.743 211.925 168.864C213.087 167.067 214.25 165.242 215.413 163.363C216.52 161.566 217.627 159.714 218.762 157.834C219.841 156.01 220.866 154.102 221.945 152.167C222.969 150.315 223.966 148.38 224.935 146.445C225.959 144.565 226.9 142.603 227.814 140.64C228.672 138.871 229.53 137.074 230.36 135.194" stroke="url(#paint23_linear)" stroke-width="0.1" stroke-miterlimit="10"/>
        <path d="M175.387 214.115H175.414C179.483 210.964 190.39 201.897 202.929 186.113C204.23 184.454 205.586 182.74 206.943 180.888C208.244 179.174 209.517 177.433 210.818 175.553C212.036 173.812 213.254 172.015 214.499 170.135C215.662 168.394 216.88 166.542 218.043 164.634C219.15 162.837 220.257 160.985 221.392 159.106C222.472 157.281 223.523 155.401 224.575 153.439C225.599 151.587 226.651 149.652 227.592 147.689C228.617 145.809 229.53 143.902 230.499 141.912C231.357 140.142 232.215 138.29 233.073 136.411" stroke="url(#paint24_linear)" stroke-width="0.1" stroke-miterlimit="10"/>
        <path d="M184.355 209.886C184.798 209.499 185.269 209.084 185.712 208.67C188.314 206.292 191.359 203.307 194.708 199.741C198.085 196.258 201.739 192.084 205.531 187.329C206.888 185.671 208.216 183.901 209.628 182.077C210.874 180.363 212.202 178.622 213.476 176.742C214.693 175.056 215.967 173.231 217.185 171.324C218.375 169.61 219.565 167.73 220.728 165.823C221.863 164.054 222.998 162.202 224.105 160.294C225.184 158.47 226.209 156.562 227.288 154.627C228.312 152.803 229.337 150.868 230.333 148.933C231.302 147.053 232.271 145.146 233.24 143.156C234.098 141.386 234.983 139.534 235.841 137.627" stroke="url(#paint25_linear)" stroke-width="0.1" stroke-miterlimit="10"/>
        <path d="M183.719 213.784C186.902 211.13 191.746 206.818 197.476 200.764H197.504C200.798 197.308 204.369 193.245 208.105 188.545C209.462 186.887 210.818 185.145 212.202 183.321C213.503 181.607 214.776 179.866 216.077 177.986C217.295 176.3 218.569 174.475 219.787 172.595C220.949 170.854 222.167 169.002 223.33 167.094C224.465 165.325 225.6 163.473 226.707 161.538C227.786 159.741 228.866 157.834 229.945 155.871C230.97 154.019 232.021 152.112 232.99 150.177C234.014 148.297 234.983 146.362 235.897 144.4C236.81 142.575 237.696 140.723 238.526 138.843" stroke="url(#paint26_linear)" stroke-width="0.1" stroke-miterlimit="10"/>
        <path d="M200.605 201.399C203.761 198.054 207.193 194.184 210.764 189.762C212.121 188.103 213.477 186.361 214.861 184.509C216.162 182.823 217.435 181.082 218.764 179.202C220.01 177.488 221.255 175.691 222.529 173.839C223.691 172.042 224.909 170.246 226.072 168.338C227.207 166.569 228.341 164.717 229.449 162.782C230.528 160.985 231.608 159.105 232.715 157.143C233.739 155.291 234.763 153.383 235.788 151.421C236.756 149.541 237.725 147.633 238.694 145.643C239.58 143.819 240.466 142.022 241.324 140.087" stroke="url(#paint27_linear)" stroke-width="0.1" stroke-miterlimit="10"/>
        <path d="M203.926 201.814C206.888 198.718 210.043 195.097 213.393 191.006C214.749 189.347 216.105 187.605 217.489 185.753H217.517C218.818 184.067 220.091 182.326 221.42 180.474C222.666 178.732 223.911 176.963 225.157 175.055C226.319 173.314 227.51 171.517 228.7 169.61C229.863 167.813 230.997 165.961 232.105 164.054C233.184 162.257 234.264 160.377 235.371 158.414C236.395 156.562 237.419 154.655 238.444 152.748C239.412 150.868 240.381 148.96 241.35 146.97C242.263 145.146 243.149 143.266 244.007 141.386" stroke="url(#paint28_linear)" stroke-width="0.1" stroke-miterlimit="10"/>
        <path d="M207.359 202.063C210.1 199.16 212.979 195.898 215.996 192.194C217.352 190.535 218.736 188.794 220.12 186.969C221.421 185.283 222.694 183.542 224.023 181.69C225.269 179.948 226.542 178.179 227.815 176.272C229.006 174.502 230.196 172.706 231.359 170.826C232.521 169.084 233.656 167.232 234.763 165.297C235.843 163.501 236.922 161.621 238.03 159.658C239.054 157.834 240.106 155.926 241.13 153.964C242.126 152.112 243.067 150.177 244.036 148.214C244.95 146.389 245.863 144.482 246.721 142.575" stroke="url(#paint29_linear)" stroke-width="0.1" stroke-miterlimit="10"/>
        <path d="M211.012 202.173C213.42 199.575 215.994 196.644 218.624 193.438C219.98 191.779 221.364 190.038 222.748 188.213C224.049 186.527 225.35 184.786 226.679 182.933C227.925 181.192 229.198 179.423 230.471 177.543C231.662 175.774 232.852 173.949 234.042 172.07C235.205 170.273 236.34 168.476 237.447 166.541C238.554 164.744 239.606 162.865 240.741 160.957C241.765 159.105 242.817 157.198 243.841 155.263C244.81 153.383 245.806 151.503 246.775 149.513C247.689 147.689 248.602 145.781 249.488 143.846" stroke="url(#paint30_linear)" stroke-width="0.1" stroke-miterlimit="10"/>
        <path d="M214.664 202.201C216.768 199.879 218.955 197.364 221.197 194.627C222.581 192.996 223.965 191.255 225.376 189.402C226.677 187.744 228.006 186.002 229.335 184.15C230.58 182.436 231.854 180.64 233.127 178.76C234.317 176.991 235.563 175.194 236.753 173.314C237.916 171.517 239.051 169.665 240.158 167.786C241.265 165.989 242.372 164.109 243.48 162.174C244.504 160.322 245.556 158.415 246.58 156.48C247.576 154.627 248.573 152.72 249.514 150.73C250.427 148.905 251.369 146.998 252.254 145.063" stroke="url(#paint31_linear)" stroke-width="0.1" stroke-miterlimit="10"/>
        <path d="M218.402 202.118C220.146 200.183 221.945 198.11 223.828 195.871C225.212 194.212 226.596 192.498 228.008 190.646C229.309 188.987 230.665 187.218 231.994 185.394C233.239 183.68 234.512 181.911 235.786 180.059C236.976 178.29 238.194 176.465 239.412 174.585C240.575 172.844 241.709 170.992 242.844 169.084C243.952 167.288 245.059 165.436 246.166 163.473C247.19 161.648 248.242 159.741 249.266 157.778C250.263 155.954 251.259 154.019 252.256 152.056C253.197 150.177 254.11 148.297 255.024 146.362" stroke="url(#paint32_linear)" stroke-width="0.1" stroke-miterlimit="10"/>
        <path d="M222.168 201.98H222.196C223.552 200.459 224.964 198.829 226.403 197.115C227.787 195.484 229.171 193.742 230.611 191.89C231.912 190.204 233.268 188.462 234.597 186.638C235.842 184.924 237.116 183.155 238.389 181.303C239.579 179.534 240.825 177.737 242.043 175.857C243.205 174.06 244.34 172.264 245.503 170.356C246.61 168.504 247.717 166.68 248.824 164.745C249.849 162.92 250.901 161.013 251.952 159.078C252.949 157.226 253.945 155.318 254.942 153.328C255.883 151.448 256.824 149.569 257.738 147.606" stroke="url(#paint33_linear)" stroke-width="0.1" stroke-miterlimit="10"/>
        <path d="M226.07 201.786C227.039 200.68 228.036 199.492 229.032 198.303C230.416 196.644 231.8 194.931 233.24 193.078C234.541 191.392 235.897 189.651 237.226 187.826C238.527 186.112 239.772 184.316 241.073 182.464C242.291 180.722 243.509 178.898 244.727 177.018C245.89 175.276 247.025 173.424 248.187 171.545C249.294 169.748 250.402 167.868 251.509 165.933C252.533 164.109 253.613 162.256 254.664 160.266C255.689 158.414 256.685 156.479 257.654 154.544C258.623 152.664 259.592 150.729 260.533 148.767" stroke="url(#paint34_linear)" stroke-width="0.1" stroke-miterlimit="10"/>
        <path d="M230.332 201.068H230.36C230.803 200.57 231.19 200.072 231.633 199.547C233.017 197.916 234.429 196.202 235.868 194.378C237.197 192.692 238.526 190.95 239.882 189.126C241.183 187.412 242.428 185.615 243.729 183.791C244.92 182.021 246.165 180.225 247.383 178.345C248.546 176.603 249.708 174.779 250.843 172.872C251.951 171.075 253.086 169.223 254.193 167.26C255.245 165.463 256.296 163.584 257.348 161.593C258.373 159.769 259.397 157.834 260.338 155.899C261.307 154.019 262.275 152.084 263.189 150.094" stroke="url(#paint35_linear)" stroke-width="0.1" stroke-miterlimit="10"/>
        <path d="M235.535 199.133H235.563C236.504 197.999 237.473 196.811 238.469 195.567C239.826 193.908 241.127 192.194 242.483 190.342C243.784 188.628 245.03 186.832 246.358 185.007C247.549 183.238 248.794 181.441 250.012 179.561C251.175 177.82 252.337 175.996 253.472 174.088C254.635 172.291 255.714 170.439 256.877 168.504C257.901 166.68 258.981 164.828 260.033 162.865C261.057 161.013 262.053 159.078 263.022 157.143C264.046 155.263 264.987 153.301 265.901 151.338" stroke="url(#paint36_linear)" stroke-width="0.1" stroke-miterlimit="10"/>
        <path d="M240.906 197.059H240.934C240.962 196.949 241.017 196.894 241.1 196.783C242.401 195.124 243.757 193.411 245.114 191.558C246.415 189.872 247.716 188.075 249.044 186.251C250.235 184.482 251.48 182.685 252.698 180.805C253.861 179.064 255.051 177.212 256.214 175.332C257.376 173.535 258.456 171.683 259.618 169.776C260.643 167.924 261.694 166.044 262.774 164.109C263.798 162.284 264.822 160.349 265.819 158.414C266.788 156.535 267.756 154.6 268.698 152.609" stroke="url(#paint37_linear)" stroke-width="0.1" stroke-miterlimit="10"/>
        <path d="M246.582 194.35C246.97 193.825 247.412 193.3 247.8 192.775C249.101 191.061 250.374 189.319 251.703 187.467C252.893 185.698 254.167 183.901 255.412 181.994C256.575 180.252 257.765 178.455 258.928 176.548C260.062 174.724 261.17 172.899 262.332 170.992C263.412 169.167 264.436 167.26 265.516 165.325C266.54 163.501 267.564 161.621 268.56 159.658C269.529 157.751 270.498 155.843 271.467 153.798" stroke="url(#paint38_linear)" stroke-width="0.1" stroke-miterlimit="10"/>
        <path d="M253.199 190.259L253.227 190.204C253.587 189.678 253.919 189.208 254.306 188.656C255.552 186.942 256.798 185.145 258.043 183.238C259.206 181.496 260.396 179.644 261.559 177.792C262.694 175.967 263.801 174.143 264.964 172.208C266.043 170.411 267.095 168.531 268.174 166.596C269.199 164.744 270.251 162.837 271.247 160.874C272.244 158.939 273.24 157.004 274.181 154.986" stroke="url(#paint39_linear)" stroke-width="0.1" stroke-miterlimit="10"/>
        <path d="M261.445 183.376L261.473 183.321C262.414 181.939 263.328 180.529 264.241 179.036C265.404 177.239 266.511 175.415 267.646 173.48C268.725 171.683 269.805 169.803 270.884 167.868C271.909 166.016 272.96 164.109 273.957 162.146C274.953 160.211 275.978 158.248 276.919 156.23" stroke="url(#paint40_linear)" stroke-width="0.1" stroke-miterlimit="10"/>
        <path d="M251.48 164.385L252.366 169.002L266.539 163.086" stroke="#6490F1" stroke-width="1.5" stroke-miterlimit="10" stroke-linecap="round" stroke-linejoin="round"/>
        <path d="M227.621 147.661L246.582 156.507" stroke="#6490F1" stroke-width="1.5" stroke-miterlimit="10" stroke-linecap="round" stroke-linejoin="round"/>
        <path d="M224.297 153.355L243.286 162.201" stroke="#6490F1" stroke-width="1.5" stroke-miterlimit="10" stroke-linecap="round" stroke-linejoin="round"/>
        <path d="M221.559 159.188L232.133 164.054" stroke="#6490F1" stroke-width="1.5" stroke-miterlimit="10" stroke-linecap="round" stroke-linejoin="round"/>
        <path d="M34.518 62.1138L27.2656 62.3349L28.622 71.2913L35.8743 71.236L34.518 62.1138Z" fill="url(#paint41_linear)"/>
        <path d="M41.2736 69.3566L35.8759 71.2087L34.5195 62.1142L39.9449 60.4556L41.2736 69.3566Z" fill="url(#paint42_radial)"/>
        <path d="M39.9987 60.4277L32.8018 60.6765L27.2656 62.3351L34.518 62.114L39.9987 60.4277Z" fill="#D5E0FF"/>
        <path d="M274.528 102.833L270.819 101.175L269.324 106.012L272.978 107.754L274.528 102.833Z" fill="url(#paint43_linear)"/>
        <path d="M276.132 108.141L272.977 107.754L274.527 102.833L277.655 103.331L276.132 108.141Z" fill="url(#paint44_radial)"/>
        <path d="M277.681 103.331L274 101.7L270.816 101.175L274.526 102.833L277.681 103.331Z" fill="#D5E0FF"/>
    </g>
    <defs>
        <linearGradient id="paint0_linear" x1="157.11" y1="99.3642" x2="137.356" y2="62.4185" gradientUnits="userSpaceOnUse">
            <stop stop-color="#E0DFE9"/>
            <stop offset="0.6747" stop-color="white"/>
            <stop offset="0.9102" stop-color="#E2E1EA"/>
        </linearGradient>
        <linearGradient id="paint1_linear" x1="20.0293" y1="152.405" x2="-5.8906" y2="99.9461" gradientUnits="userSpaceOnUse">
            <stop stop-color="#E0DFE9"/>
            <stop offset="1" stop-color="white"/>
        </linearGradient>
        <radialGradient id="paint2_radial" cx="0" cy="0" r="1" gradientUnits="userSpaceOnUse" gradientTransform="translate(131.334 108.915) scale(65.9554 33.8661)">
            <stop stop-color="#B6D3F8"/>
            <stop offset="1" stop-color="#A1CAF6"/>
        </radialGradient>
        <radialGradient id="paint3_radial" cx="0" cy="0" r="1" gradientUnits="userSpaceOnUse" gradientTransform="translate(187.029 83.0717) scale(100.796 20.0948)">
            <stop stop-color="#B6D3F8"/>
            <stop offset="1" stop-color="#A1CAF6"/>
        </radialGradient>
        <radialGradient id="paint4_radial" cx="0" cy="0" r="1" gradientUnits="userSpaceOnUse" gradientTransform="translate(141.482 63.7866) scale(65.2229 11.3126)">
            <stop stop-color="#B6D3F8"/>
            <stop offset="1" stop-color="#A1CAF6"/>
        </radialGradient>
        <linearGradient id="paint5_linear" x1="128.386" y1="83.5566" x2="175.812" y2="72.1991" gradientUnits="userSpaceOnUse">
            <stop stop-color="#23313C"/>
            <stop offset="0.1912" stop-color="#293641"/>
            <stop offset="0.3674" stop-color="#676771"/>
            <stop offset="0.5909" stop-color="#39434D"/>
            <stop offset="0.6915" stop-color="#23313C"/>
            <stop offset="0.9971" stop-color="#3D4651"/>
        </linearGradient>
        <linearGradient id="paint6_linear" x1="134.142" y1="81.5056" x2="169.748" y2="72.9789" gradientUnits="userSpaceOnUse">
            <stop stop-color="#152532"/>
            <stop offset="1" stop-color="#354249"/>
        </linearGradient>
        <linearGradient id="paint7_linear" x1="157.753" y1="20.5652" x2="154.759" y2="79.3496" gradientUnits="userSpaceOnUse">
            <stop stop-color="white" stop-opacity="0.3"/>
            <stop offset="1" stop-color="white" stop-opacity="0"/>
        </linearGradient>
        <linearGradient id="paint8_linear" x1="204.109" y1="114.847" x2="237.867" y2="232.931" gradientUnits="userSpaceOnUse">
            <stop stop-color="#E0DFE9"/>
            <stop offset="0.6747" stop-color="white"/>
            <stop offset="0.9102" stop-color="#E2E1EA"/>
        </linearGradient>
        <linearGradient id="paint9_linear" x1="230.556" y1="157.246" x2="270.515" y2="145.152" gradientUnits="userSpaceOnUse">
            <stop stop-color="#C6D3EF"/>
            <stop offset="1" stop-color="#D8DAEF"/>
        </linearGradient>
        <linearGradient id="paint10_linear" x1="227.712" y1="162.966" x2="267.468" y2="150.934" gradientUnits="userSpaceOnUse">
            <stop stop-color="#C6D3EF"/>
            <stop offset="1" stop-color="#D8DAEF"/>
        </linearGradient>
        <linearGradient id="paint11_linear" x1="224.664" y1="168.491" x2="263.947" y2="156.602" gradientUnits="userSpaceOnUse">
            <stop stop-color="#C6D3EF"/>
            <stop offset="1" stop-color="#D8DAEF"/>
        </linearGradient>
        <linearGradient id="paint12_linear" x1="221.374" y1="173.83" x2="259.914" y2="162.166" gradientUnits="userSpaceOnUse">
            <stop stop-color="#C6D3EF"/>
            <stop offset="1" stop-color="#D8DAEF"/>
        </linearGradient>
        <linearGradient id="paint13_linear" x1="217.931" y1="178.903" x2="255.355" y2="167.577" gradientUnits="userSpaceOnUse">
            <stop stop-color="#C6D3EF"/>
            <stop offset="1" stop-color="#D8DAEF"/>
        </linearGradient>
        <linearGradient id="paint14_linear" x1="214.22" y1="183.707" x2="250.057" y2="172.861" gradientUnits="userSpaceOnUse">
            <stop stop-color="#C6D3EF"/>
            <stop offset="1" stop-color="#D8DAEF"/>
        </linearGradient>
        <linearGradient id="paint15_linear" x1="210.237" y1="188.224" x2="244.08" y2="177.982" gradientUnits="userSpaceOnUse">
            <stop stop-color="#C6D3EF"/>
            <stop offset="1" stop-color="#D8DAEF"/>
        </linearGradient>
        <linearGradient id="paint16_linear" x1="206.016" y1="192.316" x2="237.122" y2="182.902" gradientUnits="userSpaceOnUse">
            <stop stop-color="#C6D3EF"/>
            <stop offset="1" stop-color="#D8DAEF"/>
        </linearGradient>
        <linearGradient id="paint17_linear" x1="201.507" y1="196.055" x2="229.224" y2="187.667" gradientUnits="userSpaceOnUse">
            <stop stop-color="#C6D3EF"/>
            <stop offset="1" stop-color="#D8DAEF"/>
        </linearGradient>
        <linearGradient id="paint18_linear" x1="196.49" y1="198.746" x2="218.742" y2="192.011" gradientUnits="userSpaceOnUse">
            <stop stop-color="#C6D3EF"/>
            <stop offset="1" stop-color="#D8DAEF"/>
        </linearGradient>
        <linearGradient id="paint19_linear" x1="190.859" y1="200.004" x2="204.663" y2="195.826" gradientUnits="userSpaceOnUse">
            <stop stop-color="#C6D3EF"/>
            <stop offset="1" stop-color="#D8DAEF"/>
        </linearGradient>
        <linearGradient id="paint20_linear" x1="184.961" y1="201.103" x2="190.284" y2="199.492" gradientUnits="userSpaceOnUse">
            <stop stop-color="#C6D3EF"/>
            <stop offset="1" stop-color="#D8DAEF"/>
        </linearGradient>
        <linearGradient id="paint21_linear" x1="180.076" y1="206.297" x2="186.278" y2="204.421" gradientUnits="userSpaceOnUse">
            <stop stop-color="#C6D3EF"/>
            <stop offset="1" stop-color="#D8DAEF"/>
        </linearGradient>
        <linearGradient id="paint22_linear" x1="174.749" y1="210.871" x2="180.816" y2="209.035" gradientUnits="userSpaceOnUse">
            <stop stop-color="#C6D3EF"/>
            <stop offset="1" stop-color="#D8DAEF"/>
        </linearGradient>
        <linearGradient id="paint23_linear" x1="163.783" y1="185.598" x2="238.78" y2="162.9" gradientUnits="userSpaceOnUse">
            <stop stop-color="#C6D3EF"/>
            <stop offset="1" stop-color="#D8DAEF"/>
        </linearGradient>
        <linearGradient id="paint24_linear" x1="167.036" y1="186.458" x2="241.454" y2="163.936" gradientUnits="userSpaceOnUse">
            <stop stop-color="#C6D3EF"/>
            <stop offset="1" stop-color="#D8DAEF"/>
        </linearGradient>
        <linearGradient id="paint25_linear" x1="176.503" y1="183.876" x2="243.695" y2="163.541" gradientUnits="userSpaceOnUse">
            <stop stop-color="#C6D3EF"/>
            <stop offset="1" stop-color="#D8DAEF"/>
        </linearGradient>
        <linearGradient id="paint26_linear" x1="175.649" y1="187.026" x2="246.66" y2="165.535" gradientUnits="userSpaceOnUse">
            <stop stop-color="#C6D3EF"/>
            <stop offset="1" stop-color="#D8DAEF"/>
        </linearGradient>
        <linearGradient id="paint27_linear" x1="193.823" y1="178.943" x2="248.108" y2="162.514" gradientUnits="userSpaceOnUse">
            <stop stop-color="#C6D3EF"/>
            <stop offset="1" stop-color="#D8DAEF"/>
        </linearGradient>
        <linearGradient id="paint28_linear" x1="197.242" y1="179.642" x2="250.75" y2="163.448" gradientUnits="userSpaceOnUse">
            <stop stop-color="#C6D3EF"/>
            <stop offset="1" stop-color="#D8DAEF"/>
        </linearGradient>
        <linearGradient id="paint29_linear" x1="200.784" y1="180.25" x2="253.379" y2="164.332" gradientUnits="userSpaceOnUse">
            <stop stop-color="#C6D3EF"/>
            <stop offset="1" stop-color="#D8DAEF"/>
        </linearGradient>
        <linearGradient id="paint30_linear" x1="204.549" y1="180.752" x2="256.029" y2="165.171" gradientUnits="userSpaceOnUse">
            <stop stop-color="#C6D3EF"/>
            <stop offset="1" stop-color="#D8DAEF"/>
        </linearGradient>
        <linearGradient id="paint31_linear" x1="208.343" y1="181.227" x2="258.641" y2="166.005" gradientUnits="userSpaceOnUse">
            <stop stop-color="#C6D3EF"/>
            <stop offset="1" stop-color="#D8DAEF"/>
        </linearGradient>
        <linearGradient id="paint32_linear" x1="212.221" y1="181.604" x2="261.234" y2="166.77" gradientUnits="userSpaceOnUse">
            <stop stop-color="#C6D3EF"/>
            <stop offset="1" stop-color="#D8DAEF"/>
        </linearGradient>
        <linearGradient id="paint33_linear" x1="216.134" y1="181.953" x2="263.823" y2="167.52" gradientUnits="userSpaceOnUse">
            <stop stop-color="#C6D3EF"/>
            <stop offset="1" stop-color="#D8DAEF"/>
        </linearGradient>
        <linearGradient id="paint34_linear" x1="220.166" y1="182.263" x2="266.443" y2="168.258" gradientUnits="userSpaceOnUse">
            <stop stop-color="#C6D3EF"/>
            <stop offset="1" stop-color="#D8DAEF"/>
        </linearGradient>
        <linearGradient id="paint35_linear" x1="224.659" y1="182.216" x2="268.935" y2="168.816" gradientUnits="userSpaceOnUse">
            <stop stop-color="#C6D3EF"/>
            <stop offset="1" stop-color="#D8DAEF"/>
        </linearGradient>
        <linearGradient id="paint36_linear" x1="230.199" y1="181.391" x2="271.333" y2="168.942" gradientUnits="userSpaceOnUse">
            <stop stop-color="#C6D3EF"/>
            <stop offset="1" stop-color="#D8DAEF"/>
        </linearGradient>
        <linearGradient id="paint37_linear" x1="235.906" y1="180.498" x2="273.727" y2="169.051" gradientUnits="userSpaceOnUse">
            <stop stop-color="#C6D3EF"/>
            <stop offset="1" stop-color="#D8DAEF"/>
        </linearGradient>
        <linearGradient id="paint38_linear" x1="241.995" y1="179.192" x2="276.04" y2="168.889" gradientUnits="userSpaceOnUse">
            <stop stop-color="#C6D3EF"/>
            <stop offset="1" stop-color="#D8DAEF"/>
        </linearGradient>
        <linearGradient id="paint39_linear" x1="249.184" y1="176.986" x2="278.196" y2="168.205" gradientUnits="userSpaceOnUse">
            <stop stop-color="#C6D3EF"/>
            <stop offset="1" stop-color="#D8DAEF"/>
        </linearGradient>
        <linearGradient id="paint40_linear" x1="258.323" y1="173.066" x2="280.036" y2="166.495" gradientUnits="userSpaceOnUse">
            <stop stop-color="#C6D3EF"/>
            <stop offset="1" stop-color="#D8DAEF"/>
        </linearGradient>
        <linearGradient id="paint41_linear" x1="21.6495" y1="66.7068" x2="41.4584" y2="66.7068" gradientUnits="userSpaceOnUse">
            <stop stop-color="#96BFF4"/>
            <stop offset="1" stop-color="#4086D1"/>
        </linearGradient>
        <radialGradient id="paint42_radial" cx="0" cy="0" r="1" gradientUnits="userSpaceOnUse" gradientTransform="translate(37.884 65.8372) scale(7.7707 3.9933)">
            <stop stop-color="#B6D3F8"/>
            <stop offset="1" stop-color="#A1CAF6"/>
        </radialGradient>
        <linearGradient id="paint43_linear" x1="265.929" y1="104.467" x2="277.904" y2="104.467" gradientUnits="userSpaceOnUse">
            <stop stop-color="#96BFF4"/>
            <stop offset="1" stop-color="#4086D1"/>
        </linearGradient>
        <radialGradient id="paint44_radial" cx="0" cy="0" r="1" gradientUnits="userSpaceOnUse" gradientTransform="translate(275.307 105.49) scale(5.38221 1.971)">
            <stop stop-color="#B6D3F8"/>
            <stop offset="1" stop-color="#A1CAF6"/>
        </radialGradient>
        <clipPath id="clip0">
            <rect width="285" height="228" fill="white"/>
        </clipPath>
    </defs>
</svg>
