<svg width="207" height="241" viewBox="0 0 207 241" fill="none" xmlns="http://www.w3.org/2000/svg">
    <g clip-path="url(#clip0)">
        <path d="M205.932 198.696L62.5894 238.364C52.3318 221.206 13.2987 67.5975 13.2987 67.5975L157.492 28.961C157.465 28.9682 197.233 182.208 205.932 198.696Z" fill="black" fill-opacity="0.04"/>
        <path d="M200.176 194.796L55.2535 234.573C45.1793 215.847 5.58581 60.0402 5.58581 60.0402C5.58581 60.0402 112.142 37.2746 150.059 22.446C152.457 30.969 193.218 183.627 200.176 194.796Z" fill="url(#paint0_linear)"/>
        <path d="M88.5703 55.248L145.401 40.0204" stroke="#BFC8D6" stroke-width="3" stroke-miterlimit="10" stroke-linecap="round" stroke-linejoin="round"/>
        <path d="M89.1163 52.0366L88.3286 49.0969C88.1696 49.2541 87.8694 49.4205 87.6621 49.5046L87.5189 48.9702C87.8191 48.8038 88.1442 48.5162 88.3211 48.211L88.8304 48.0745L89.84 51.8426L89.1163 52.0366Z" fill="#475B80"/>
        <path d="M90.1617 48.7492C90.0935 48.2805 90.2648 47.6331 91.1763 47.3889C92.0073 47.1662 92.5383 47.5395 92.6815 48.074C92.8032 48.5283 92.5924 48.814 92.4066 48.9783L92.4138 49.005C92.7105 49.0401 93.1502 49.1801 93.3006 49.7413C93.451 50.3025 93.2672 51.0105 92.2486 51.2835C91.2835 51.5421 90.7775 51.0475 90.5878 50.5541L91.2848 50.3674C91.4172 50.647 91.6961 50.83 92.125 50.7151C92.5539 50.6002 92.6896 50.2487 92.5965 49.9013C92.4891 49.5005 92.2173 49.3441 91.7348 49.4734L91.3863 49.5668L91.236 49.0056L91.504 48.9337C91.9329 48.8188 92.0508 48.6154 91.9649 48.2947C91.8861 48.0007 91.6483 47.8639 91.2998 47.9573C90.8977 48.065 90.821 48.3148 90.8586 48.5625L90.1617 48.7492Z" fill="#475B80"/>
        <path d="M94.4238 50.6139L94.166 49.6519L94.9166 49.4507L95.1744 50.4128L94.4238 50.6139Z" fill="#475B80"/>
        <path d="M92.0273 68.1558L148.858 52.9281" stroke="#BFC8D6" stroke-width="3" stroke-miterlimit="10" stroke-linecap="round" stroke-linejoin="round"/>
        <path d="M92.5753 64.9443L91.7876 62.0046C91.6286 62.1618 91.3284 62.3282 91.1211 62.4124L90.9779 61.8779C91.2781 61.7115 91.6032 61.4239 91.78 61.1187L92.2894 60.9822L93.299 64.7504L92.5753 64.9443Z" fill="#475B80"/>
        <path d="M96.0594 64.0109L95.8231 63.1289L94.0807 63.5958L93.916 62.9812L94.9497 60.2982L95.7271 60.0899L96.3429 62.3882L96.7986 62.2661L96.8757 62.8755L96.4736 62.9833L96.7099 63.8652L96.0666 64.0376L96.0594 64.0109ZM95.4579 61.766C95.3576 61.3919 95.286 61.1246 95.2484 60.8769C95.1663 61.214 94.8254 62.1933 94.5933 62.8283L95.6656 62.541L95.4579 61.766Z" fill="#475B80"/>
        <path d="M97.9375 63.5075L97.6797 62.5454L98.4303 62.3443L98.6881 63.3064L97.9375 63.5075Z" fill="#475B80"/>
        <path d="M95.4863 81.0635L152.317 65.8358" stroke="#BFC8D6" stroke-width="3" stroke-miterlimit="10" stroke-linecap="round" stroke-linejoin="round"/>
        <path d="M96.0342 77.852L95.2466 74.9123C95.0875 75.0695 94.7873 75.2359 94.5801 75.3201L94.4368 74.7856C94.737 74.6192 95.0622 74.3316 95.239 74.0264L95.7484 73.89L96.758 77.6581L96.0342 77.852Z" fill="#475B80"/>
        <path d="M99.4982 73.5156L97.9702 73.9251C98.0079 74.1728 98.042 74.6219 98.0582 74.7894C98.1832 74.6127 98.369 74.4483 98.7175 74.355C99.4413 74.161 100.006 74.5539 100.207 75.3022C100.4 76.0237 100.177 76.7996 99.212 77.0581C98.4882 77.2521 97.8518 77.0216 97.5924 76.375L98.3162 76.1811C98.4753 76.4535 98.7131 76.5903 99.0884 76.4897C99.5173 76.3748 99.6458 75.9967 99.5241 75.5424C99.4095 75.1148 99.1628 74.8372 98.7071 74.9593C98.3318 75.0598 98.2139 75.2633 98.1783 75.5593L97.5134 75.6515C97.4918 75.1417 97.359 74.0029 97.2766 73.4808L99.5015 72.8846L99.4982 73.5156Z" fill="#475B80"/>
        <path d="M101.396 76.4152L101.139 75.4531L101.889 75.252L102.147 76.2141L101.396 76.4152Z" fill="#475B80"/>
        <path d="M98.9395 93.9448L155.77 78.7172" stroke="#BFC8D6" stroke-width="3" stroke-miterlimit="10" stroke-linecap="round" stroke-linejoin="round"/>
        <path d="M99.4854 90.7334L98.6977 87.7937C98.5387 87.9509 98.2385 88.1172 98.0312 88.2014L97.888 87.6669C98.1882 87.5006 98.5134 87.2129 98.6902 86.9078L99.1995 86.7713L100.209 90.5394L99.4854 90.7334Z" fill="#475B80"/>
        <path d="M102.493 86.8344C102.382 86.6349 102.198 86.4838 101.849 86.5771C101.286 86.728 101.288 87.2717 101.426 87.8935C101.53 87.6366 101.748 87.3777 102.203 87.2556C102.9 87.0688 103.519 87.4473 103.719 88.1956C103.927 88.9706 103.609 89.7146 102.751 89.9444C101.679 90.2317 101.109 89.4966 100.822 88.4277C100.557 87.4389 100.634 86.33 101.76 86.0283C102.564 85.8128 103.048 86.2272 103.224 86.6671L102.5 86.8611L102.493 86.8344ZM103.01 88.443C102.91 88.0688 102.675 87.7306 102.166 87.8671C101.764 87.9748 101.587 88.28 101.716 88.761C101.795 89.055 102.085 89.493 102.567 89.3637C102.996 89.2487 103.117 88.8439 103.01 88.443Z" fill="#475B80"/>
        <path d="M104.848 89.2961L104.59 88.334L105.34 88.1329L105.598 89.0949L104.848 89.2961Z" fill="#475B80"/>
        <path d="M102.396 106.853L159.227 91.6249" stroke="#BFC8D6" stroke-width="3" stroke-miterlimit="10" stroke-linecap="round" stroke-linejoin="round"/>
        <path d="M102.944 103.641L102.157 100.701C101.998 100.859 101.698 101.025 101.49 101.109L101.347 100.575C101.647 100.408 101.972 100.121 102.149 99.8155L102.659 99.679L103.668 103.447L102.944 103.641Z" fill="#475B80"/>
        <path d="M106.251 98.7167L106.394 99.2512C106.007 100.272 105.761 101.712 105.894 102.851L105.143 103.052C105.01 101.913 105.315 100.371 105.658 99.5057L103.835 99.9942L103.678 99.4062L106.251 98.7167Z" fill="#475B80"/>
        <path d="M107.367 102.456L107.109 101.494L107.86 101.293L108.118 102.255L107.367 102.456Z" fill="#475B80"/>
        <path d="M22.7539 72.9692L79.5842 57.7416" stroke="#BFC8D6" stroke-width="3" stroke-miterlimit="10" stroke-linecap="round" stroke-linejoin="round"/>
        <path d="M22.8721 69.873L22.0844 66.9333C21.9254 67.0905 21.6252 67.2569 21.4179 67.3411L21.2747 66.8066C21.5749 66.6402 21.9001 66.3526 22.0769 66.0474L22.5862 65.911L23.5959 69.6791L22.8721 69.873Z" fill="#475B80"/>
        <path d="M24.6412 69.3987L24.3906 68.4634L25.1412 68.2623L25.399 69.2243L24.6484 69.4254L24.6412 69.3987Z" fill="#475B80"/>
        <path d="M26.2109 85.8774L83.0412 70.6498" stroke="#BFC8D6" stroke-width="3" stroke-miterlimit="10" stroke-linecap="round" stroke-linejoin="round"/>
        <path d="M25.0429 83.1256L25.0285 83.0722C24.8639 82.4575 25.0423 81.8369 25.6818 81.0067C26.1374 80.455 26.2552 80.2516 26.1621 79.9042C26.069 79.5567 25.8509 79.386 25.4756 79.4866C25.0735 79.5943 24.9771 79.878 25.0238 80.2665L24.3268 80.4532C24.2085 79.7975 24.4942 79.1481 25.3252 78.9254C26.2635 78.674 26.7355 79.149 26.8859 79.7102C27.0363 80.2714 26.8595 80.5766 26.2986 81.2711C25.9091 81.7478 25.7591 82.0458 25.736 82.2811L27.5857 81.7855L27.6628 82.395L25.0357 83.0989L25.0429 83.1256Z" fill="#475B80"/>
        <path d="M28.6621 82.1559L28.4043 81.1938L29.1549 80.9927L29.4127 81.9548L28.6621 82.1559Z" fill="#475B80"/>
        <path d="M29.9395 98.7134L86.7965 83.4786" stroke="#BFC8D6" stroke-width="3" stroke-miterlimit="10" stroke-linecap="round" stroke-linejoin="round"/>
        <path d="M29.5464 92.7463C29.4783 92.2776 29.6496 91.6302 30.561 91.386C31.3921 91.1633 31.923 91.5366 32.0663 92.0711C32.188 92.5254 31.9772 92.811 31.7914 92.9754L31.7986 93.0021C32.0953 93.0372 32.535 93.1771 32.6854 93.7383C32.8358 94.2996 32.652 95.0076 31.6333 95.2805C30.6683 95.5391 30.1622 95.0446 29.9726 94.5512L30.6696 94.3644C30.8019 94.644 31.0808 94.8271 31.5097 94.7121C31.9387 94.5972 32.0743 94.2458 31.9813 93.8984C31.8738 93.4975 31.6021 93.3412 31.1196 93.4705L30.7711 93.5638L30.6207 93.0026L30.8888 92.9308C31.3177 92.8159 31.4356 92.6124 31.3496 92.2917C31.2709 91.9978 31.0331 91.861 30.6846 91.9544C30.2825 92.0621 30.2058 92.3118 30.2434 92.5595L29.5464 92.7463Z" fill="#475B80"/>
        <path d="M33.8379 94.6042L33.5801 93.6421L34.3307 93.441L34.5885 94.4031L33.8379 94.6042Z" fill="#475B80"/>
        <path d="M33.3984 111.621L90.2555 96.3863" stroke="#BFC8D6" stroke-width="3" stroke-miterlimit="10" stroke-linecap="round" stroke-linejoin="round"/>
        <path d="M34.8289 108.172L34.5926 107.291L32.8502 107.757L32.6855 107.143L33.7192 104.46L34.4966 104.251L35.1124 106.55L35.5681 106.428L35.6452 107.037L35.27 107.138L35.5063 108.02L34.8361 108.199L34.8289 108.172ZM34.2346 105.954C34.1343 105.58 34.0627 105.313 34.0251 105.065C33.943 105.402 33.6021 106.382 33.37 107.017L34.4422 106.729L34.2346 105.954Z" fill="#475B80"/>
        <path d="M36.7051 107.67L36.4473 106.708L37.1979 106.506L37.4556 107.468L36.7051 107.67Z" fill="#475B80"/>
        <path d="M36.5879 124.601L93.4182 109.373" stroke="#BFC8D6" stroke-width="3" stroke-miterlimit="10" stroke-linecap="round" stroke-linejoin="round"/>
        <path d="M39.1506 117.44L37.6226 117.85C37.6602 118.098 37.6944 118.547 37.7105 118.714C37.8356 118.538 38.0214 118.373 38.3699 118.28C39.0936 118.086 39.6586 118.479 39.8591 119.227C40.0525 119.949 39.8294 120.724 38.8643 120.983C38.1405 121.177 37.5042 120.946 37.2447 120.3L37.9685 120.106C38.1277 120.378 38.3655 120.515 38.7408 120.415C39.1697 120.3 39.2982 119.921 39.1765 119.467C39.0619 119.04 38.8151 118.762 38.3594 118.884C37.9841 118.985 37.8662 119.188 37.8306 119.484L37.1658 119.576C37.1441 119.067 37.0113 117.928 36.9289 117.406L39.1539 116.809L39.1506 117.44Z" fill="#475B80"/>
        <path d="M41.0488 120.34L40.791 119.378L41.5416 119.177L41.7994 120.139L41.0488 120.34Z" fill="#475B80"/>
        <path d="M106.041 120.455L162.871 105.227" stroke="#BFC8D6" stroke-width="3" stroke-miterlimit="10" stroke-linecap="round" stroke-linejoin="round"/>
        <path d="M106.589 117.244L105.801 114.304C105.642 114.462 105.342 114.628 105.135 114.712L104.992 114.178C105.292 114.011 105.617 113.724 105.794 113.419L106.303 113.282L107.313 117.05L106.589 117.244Z" fill="#475B80"/>
        <path d="M108.046 115.708C107.909 115.2 108.179 114.813 108.438 114.6C108.1 114.519 107.848 114.329 107.741 113.928C107.576 113.313 107.917 112.764 108.748 112.541C109.499 112.34 110.089 112.611 110.261 113.253C110.375 113.68 110.218 113.952 109.986 114.157C110.309 114.185 110.744 114.412 110.88 114.92C111.08 115.668 110.605 116.254 109.747 116.484C108.936 116.672 108.239 116.43 108.046 115.708ZM110.122 115.094C110.015 114.693 109.689 114.552 109.26 114.666C108.805 114.789 108.628 115.094 108.728 115.468C108.828 115.842 109.161 116.011 109.59 115.896C109.992 115.788 110.237 115.522 110.122 115.094ZM108.418 113.775C108.49 114.042 108.735 114.206 109.137 114.098C109.512 113.997 109.657 113.787 109.571 113.466C109.492 113.172 109.247 113.009 108.872 113.109C108.47 113.217 108.332 113.454 108.418 113.775Z" fill="#475B80"/>
        <path d="M111.924 115.814L111.666 114.852L112.417 114.651L112.674 115.613L111.924 115.814Z" fill="#475B80"/>
        <path d="M40.2324 138.203L97.0627 122.975" stroke="#BFC8D6" stroke-width="3" stroke-miterlimit="10" stroke-linecap="round" stroke-linejoin="round"/>
        <path d="M42.3442 131.507C42.2333 131.308 42.0492 131.157 41.7007 131.25C41.1378 131.401 41.1398 131.945 41.2777 132.566C41.3812 132.309 41.5992 132.051 42.0549 131.928C42.7519 131.742 43.3704 132.12 43.5709 132.868C43.7786 133.643 43.4608 134.387 42.603 134.617C41.5307 134.905 40.9602 134.169 40.6738 133.101C40.4088 132.112 40.4852 131.003 41.6111 130.701C42.4153 130.486 42.8998 130.9 43.0752 131.34L42.3514 131.534L42.3442 131.507ZM42.8543 133.089C42.7541 132.715 42.5198 132.377 42.0104 132.513C41.6083 132.621 41.4315 132.926 41.5604 133.407C41.6392 133.701 41.9289 134.139 42.4114 134.01C42.8672 133.888 42.9617 133.49 42.8543 133.089Z" fill="#475B80"/>
        <path d="M44.6933 133.943L44.4355 132.98L45.1861 132.779L45.4439 133.741L44.6933 133.943Z" fill="#475B80"/>
        <path d="M110.76 133.771L167.59 118.543" stroke="#BFC8D6" stroke-width="3" stroke-miterlimit="10" stroke-linecap="round" stroke-linejoin="round"/>
        <path d="M111.306 130.56L110.518 127.62C110.359 127.777 110.059 127.943 109.852 128.028L109.708 127.493C110.009 127.327 110.334 127.039 110.511 126.734L111.02 126.597L112.03 130.366L111.306 130.56Z" fill="#475B80"/>
        <path d="M113.61 128.968C113.755 129.187 113.959 129.305 114.28 129.218C114.87 129.06 114.743 128.264 114.628 127.836C114.532 128.12 114.246 128.34 113.898 128.433C113.147 128.634 112.548 128.222 112.369 127.554C112.176 126.832 112.535 126.135 113.366 125.912C114.384 125.639 114.975 126.34 115.225 127.275C115.504 128.318 115.557 129.478 114.377 129.794C113.546 130.017 113.062 129.602 112.86 129.17L113.61 128.968ZM113.113 127.326C113.227 127.754 113.533 127.929 113.908 127.829C114.337 127.714 114.467 127.45 114.346 126.996C114.281 126.755 114.045 126.303 113.509 126.446C113.114 126.581 113.005 126.925 113.113 127.326Z" fill="#475B80"/>
        <path d="M116.561 129.151L116.303 128.189L117.053 127.988L117.311 128.95L116.561 129.151Z" fill="#475B80"/>
        <path d="M44.9512 151.519L101.781 136.291" stroke="#BFC8D6" stroke-width="3" stroke-miterlimit="10" stroke-linecap="round" stroke-linejoin="round"/>
        <path d="M47.4978 143.761L47.641 144.296C47.2536 145.316 47.0076 146.757 47.1403 147.896L46.4166 148.09C46.2838 146.951 46.5888 145.409 46.9316 144.543L45.1087 145.032L44.9512 144.444L47.4978 143.761Z" fill="#475B80"/>
        <path d="M114.354 147.186L171.184 131.958" stroke="#BFC8D6" stroke-width="3" stroke-miterlimit="10" stroke-linecap="round" stroke-linejoin="round"/>
        <path d="M114.178 144.169L114.163 144.115C113.999 143.501 114.177 142.88 114.817 142.05C115.272 141.498 115.39 141.295 115.297 140.947C115.204 140.6 114.986 140.429 114.61 140.53C114.208 140.637 114.112 140.921 114.159 141.309L113.462 141.496C113.343 140.84 113.629 140.191 114.46 139.968C115.398 139.717 115.87 140.192 116.021 140.753C116.171 141.314 115.994 141.62 115.433 142.314C115.044 142.791 114.894 143.089 114.871 143.324L116.72 142.829L116.798 143.438L114.17 144.142L114.178 144.169Z" fill="#475B80"/>
        <path d="M119.934 140.564C120.199 141.553 120.169 142.62 119.07 142.915C117.998 143.202 117.426 142.353 117.154 141.338C116.881 140.322 116.979 139.293 118.052 139.006C119.07 138.733 119.662 139.548 119.934 140.564ZM117.877 141.144C118.064 141.839 118.357 142.505 118.92 142.354C119.483 142.203 119.391 141.54 119.191 140.792C118.998 140.07 118.718 139.457 118.182 139.601C117.646 139.745 117.655 140.315 117.877 141.144Z" fill="#475B80"/>
        <path d="M121.174 142.294L120.916 141.332L121.667 141.13L121.924 142.092L121.174 142.294Z" fill="#475B80"/>
        <path d="M48.5449 164.934L105.375 149.706" stroke="#BFC8D6" stroke-width="3" stroke-miterlimit="10" stroke-linecap="round" stroke-linejoin="round"/>
        <path d="M49.1275 160.568C48.9915 160.06 49.2612 159.673 49.5203 159.46C49.1824 159.379 48.9303 159.189 48.8229 158.788C48.6582 158.173 48.9994 157.623 49.8304 157.401C50.581 157.2 51.1709 157.471 51.3428 158.113C51.4573 158.54 51.3002 158.811 51.0411 159.024C51.3646 159.052 51.799 159.279 51.9351 159.787C52.1356 160.535 51.6604 161.121 50.8026 161.351C50.0448 161.525 49.3209 161.289 49.1275 160.568ZM51.2041 159.954C51.0967 159.553 50.7714 159.411 50.3425 159.526C49.8868 159.648 49.7099 159.954 49.8102 160.328C49.9104 160.702 50.243 160.871 50.6719 160.756C51.074 160.648 51.3187 160.382 51.2041 159.954ZM49.5003 158.635C49.5719 158.902 49.8168 159.066 50.2189 158.958C50.5942 158.857 50.7389 158.647 50.6529 158.326C50.5742 158.032 50.3292 157.869 49.9539 157.969C49.5518 158.077 49.4215 158.341 49.5003 158.635Z" fill="#475B80"/>
        <path d="M53.0332 160.667L52.7754 159.705L53.526 159.504L53.7838 160.466L53.0332 160.667Z" fill="#475B80"/>
        <path d="M117.939 160.575L174.77 145.348" stroke="#BFC8D6" stroke-width="3" stroke-miterlimit="10" stroke-linecap="round" stroke-linejoin="round"/>
        <path d="M117.764 157.558L117.749 157.504C117.585 156.89 117.763 156.269 118.403 155.439C118.858 154.887 118.976 154.684 118.883 154.336C118.79 153.989 118.572 153.818 118.196 153.919C117.794 154.026 117.698 154.31 117.744 154.699L117.047 154.885C116.929 154.23 117.215 153.58 118.046 153.358C118.984 153.106 119.456 153.581 119.607 154.142C119.757 154.704 119.58 155.009 119.019 155.703C118.63 156.18 118.48 156.478 118.457 156.713L120.306 156.218L120.383 156.827L117.756 157.531L117.764 157.558Z" fill="#475B80"/>
        <path d="M121.919 156.445L121.131 153.505C120.972 153.662 120.672 153.829 120.465 153.913L120.322 153.378C120.622 153.212 120.947 152.924 121.124 152.619L121.633 152.483L122.643 156.251L121.919 156.445Z" fill="#475B80"/>
        <path d="M123.687 155.97L123.43 155.008L124.18 154.807L124.438 155.769L123.687 155.97Z" fill="#475B80"/>
        <path d="M52.1328 178.323L108.963 163.096" stroke="#BFC8D6" stroke-width="3" stroke-miterlimit="10" stroke-linecap="round" stroke-linejoin="round"/>
        <path d="M53.5964 173.921C53.7413 174.14 53.9451 174.257 54.2668 174.171C54.8565 174.013 54.7293 173.217 54.6147 172.789C54.5183 173.073 54.2325 173.292 53.884 173.386C53.1334 173.587 52.5345 173.174 52.3554 172.506C52.1621 171.785 52.521 171.087 53.3521 170.864C54.3707 170.592 54.9608 171.293 55.2115 172.228C55.4907 173.27 55.5431 174.431 54.3636 174.747C53.5325 174.969 53.048 174.555 52.8459 174.122L53.5964 173.921ZM53.0917 172.252C53.2063 172.679 53.512 172.855 53.8873 172.755C54.3162 172.64 54.4465 172.376 54.3248 171.921C54.2604 171.681 54.0242 171.229 53.4881 171.372C53.0932 171.507 52.9915 171.878 53.0917 172.252Z" fill="#475B80"/>
        <path d="M56.541 174.077L56.2832 173.115L57.0338 172.914L57.2916 173.876L56.541 174.077Z" fill="#475B80"/>
        <path d="M121.535 173.991L178.365 158.763" stroke="#BFC8D6" stroke-width="3" stroke-miterlimit="10" stroke-linecap="round" stroke-linejoin="round"/>
        <path d="M121.359 170.973L121.345 170.92C121.18 170.305 121.359 169.685 121.998 168.854C122.454 168.303 122.572 168.099 122.479 167.752C122.385 167.404 122.167 167.234 121.792 167.334C121.39 167.442 121.294 167.726 121.34 168.114L120.643 168.301C120.525 167.645 120.811 166.996 121.642 166.773C122.58 166.522 123.052 166.997 123.202 167.558C123.353 168.119 123.176 168.424 122.615 169.119C122.226 169.595 122.076 169.893 122.052 170.129L123.902 169.633L123.979 170.243L121.352 170.947L121.359 170.973Z" fill="#475B80"/>
        <path d="M124.871 170.032L124.857 169.979C124.692 169.364 124.87 168.744 125.51 167.913C125.965 167.362 126.083 167.158 125.99 166.811C125.897 166.463 125.679 166.293 125.304 166.393C124.902 166.501 124.805 166.785 124.852 167.173L124.155 167.36C124.037 166.704 124.322 166.055 125.153 165.832C126.092 165.581 126.564 166.056 126.714 166.617C126.864 167.178 126.688 167.483 126.127 168.178C125.737 168.655 125.587 168.953 125.564 169.188L127.414 168.692L127.491 169.302L124.864 170.006L124.871 170.032Z" fill="#475B80"/>
        <path d="M128.49 169.063L128.232 168.101L128.983 167.899L129.241 168.862L128.49 169.063Z" fill="#475B80"/>
        <path d="M55.7285 191.739L112.559 176.511" stroke="#BFC8D6" stroke-width="3" stroke-miterlimit="10" stroke-linecap="round" stroke-linejoin="round"/>
        <path d="M56.087 188.578L55.2993 185.638C55.1403 185.795 54.8401 185.961 54.6328 186.046L54.4896 185.511C54.7898 185.345 55.1149 185.057 55.2918 184.752L55.8011 184.616L56.8107 188.384L56.087 188.578Z" fill="#475B80"/>
        <path d="M60.1902 185.445C60.4551 186.434 60.4252 187.501 59.3261 187.796C58.2539 188.083 57.6816 187.234 57.4095 186.218C57.1373 185.203 57.2352 184.174 58.3075 183.887C59.3261 183.614 59.9109 184.402 60.1902 185.445ZM58.1261 185.998C58.3123 186.693 58.6057 187.359 59.1686 187.208C59.7315 187.057 59.6401 186.394 59.4396 185.646C59.2463 184.924 58.9672 184.312 58.431 184.455C57.8949 184.599 57.9113 185.196 58.1261 185.998Z" fill="#475B80"/>
        <path d="M61.4218 187.148L61.1641 186.186L61.9146 185.984L62.1724 186.946L61.4218 187.148Z" fill="#475B80"/>
        <path d="M125.123 187.379L181.953 172.152" stroke="#BFC8D6" stroke-width="3" stroke-miterlimit="10" stroke-linecap="round" stroke-linejoin="round"/>
        <path d="M124.947 184.362L124.933 184.309C124.768 183.694 124.947 183.073 125.586 182.243C126.042 181.691 126.16 181.488 126.066 181.14C125.973 180.793 125.755 180.622 125.38 180.723C124.978 180.831 124.881 181.114 124.928 181.503L124.231 181.69C124.113 181.034 124.399 180.384 125.23 180.162C126.168 179.91 126.64 180.385 126.79 180.947C126.941 181.508 126.764 181.813 126.203 182.507C125.813 182.984 125.663 183.282 125.64 183.517L127.49 183.022L127.567 183.631L124.94 184.335L124.947 184.362Z" fill="#475B80"/>
        <path d="M127.654 180.63C127.586 180.161 127.757 179.513 128.668 179.269C129.499 179.047 130.03 179.42 130.174 179.954C130.295 180.409 130.085 180.694 129.899 180.859L129.906 180.885C130.203 180.92 130.642 181.06 130.793 181.622C130.943 182.183 130.759 182.891 129.741 183.164C128.776 183.422 128.27 182.928 128.08 182.434L128.777 182.248C128.909 182.527 129.188 182.71 129.617 182.595C130.046 182.481 130.182 182.129 130.089 181.782C129.981 181.381 129.71 181.224 129.227 181.354L128.905 181.44L128.755 180.879L129.023 180.807C129.452 180.692 129.57 180.489 129.484 180.168C129.405 179.874 129.167 179.737 128.819 179.83C128.417 179.938 128.34 180.188 128.378 180.436L127.654 180.63Z" fill="#475B80"/>
        <path d="M131.943 182.487L131.686 181.525L132.436 181.324L132.694 182.286L131.943 182.487Z" fill="#475B80"/>
        <path d="M59.3203 205.155L116.151 189.927" stroke="#BFC8D6" stroke-width="3" stroke-miterlimit="10" stroke-linecap="round" stroke-linejoin="round"/>
        <path d="M60.2706 201.835L59.4829 198.896C59.3239 199.053 59.0237 199.219 58.8164 199.303L58.6732 198.769C58.9734 198.603 59.2985 198.315 59.4753 198.01L59.9847 197.873L60.9943 201.641L60.2706 201.835Z" fill="#475B80"/>
        <path d="M62.6553 201.196L61.8676 198.257C61.7086 198.414 61.4084 198.58 61.2011 198.664L61.0579 198.13C61.3581 197.963 61.6833 197.676 61.8601 197.371L62.3694 197.234L63.3791 201.002L62.6553 201.196Z" fill="#475B80"/>
        <path d="M64.4258 200.722L64.168 199.76L64.9186 199.559L65.1763 200.521L64.4258 200.722Z" fill="#475B80"/>
        <path d="M128.717 200.795L185.547 185.567" stroke="#BFC8D6" stroke-width="3" stroke-miterlimit="10" stroke-linecap="round" stroke-linejoin="round"/>
        <path d="M128.541 197.777L128.527 197.724C128.362 197.109 128.54 196.489 129.18 195.659C129.635 195.107 129.753 194.903 129.66 194.556C129.567 194.209 129.349 194.038 128.974 194.138C128.572 194.246 128.475 194.53 128.522 194.918L127.825 195.105C127.707 194.449 127.992 193.8 128.823 193.577C129.762 193.326 130.234 193.801 130.384 194.362C130.534 194.923 130.358 195.228 129.797 195.923C129.407 196.4 129.257 196.698 129.234 196.933L131.084 196.437L131.161 197.047L128.534 197.751L128.541 197.777Z" fill="#475B80"/>
        <path d="M133.581 196.427L133.345 195.545L131.602 196.012L131.437 195.398L132.471 192.715L133.249 192.506L133.864 194.805L134.32 194.683L134.397 195.292L133.995 195.4L134.231 196.282L133.588 196.454L133.581 196.427ZM132.979 194.182C132.879 193.808 132.808 193.541 132.77 193.293C132.688 193.63 132.347 194.61 132.115 195.245L133.187 194.958L132.979 194.182Z" fill="#475B80"/>
        <path d="M135.457 195.924L135.199 194.962L135.95 194.761L136.208 195.723L135.457 195.924Z" fill="#475B80"/>
        <path d="M62.9082 218.543L119.738 203.315" stroke="#BFC8D6" stroke-width="3" stroke-miterlimit="10" stroke-linecap="round" stroke-linejoin="round"/>
        <path d="M63.2139 215.397L62.4262 212.457C62.2672 212.614 61.967 212.781 61.7597 212.865L61.6165 212.331C61.9167 212.164 62.2419 211.877 62.4187 211.571L62.928 211.435L63.9377 215.203L63.2139 215.397Z" fill="#475B80"/>
        <path d="M65.0365 214.908L65.0221 214.855C64.8575 214.24 65.0359 213.619 65.6754 212.789C66.131 212.237 66.2488 212.034 66.1557 211.687C66.0626 211.339 65.8445 211.168 65.4692 211.269C65.0671 211.377 64.9707 211.66 65.0174 212.049L64.2936 212.243C64.1753 211.587 64.461 210.938 65.292 210.715C66.2303 210.464 66.7023 210.939 66.8527 211.5C67.0031 212.061 66.8263 212.366 66.2654 213.061C65.8759 213.537 65.7259 213.835 65.7028 214.071L67.5524 213.575L67.6296 214.185L65.0293 214.881L65.0365 214.908Z" fill="#475B80"/>
        <path d="M68.6562 213.939L68.3984 212.977L69.149 212.775L69.4068 213.738L68.6562 213.939Z" fill="#475B80"/>
        <path d="M32.6906 65.5521C32.6834 65.5253 32.6763 65.4986 32.6548 65.4184C32.6405 65.365 32.6261 65.3115 32.6261 65.3115C32.6386 65.2509 32.6922 65.2365 32.7119 65.2026C32.7387 65.1955 32.7851 65.1544 32.8119 65.1472C32.8388 65.14 32.8656 65.1328 32.9263 65.1452C32.9871 65.1575 33.0139 65.1503 33.0282 65.2038C33.0622 65.2233 33.0694 65.2501 33.0569 65.3107C33.0372 65.3446 32.9979 65.4124 32.9247 65.4607C32.9748 65.6478 33.0446 65.8009 33.1751 65.9664C33.2985 66.1052 33.4487 66.2369 33.5917 66.3417C33.7616 66.4395 33.9242 66.5104 34.1334 66.5403C34.3157 66.5774 34.5177 66.5806 34.7053 66.5303C34.9466 66.4657 35.1664 66.3208 35.3718 66.1226C35.5773 65.9243 35.7416 65.6798 35.872 65.4157C36.0023 65.1516 36.0987 64.868 36.1611 64.5648C36.2236 64.2617 36.2127 64.0068 36.1483 63.7663C36.0982 63.5792 35.9944 63.4065 35.8442 63.2749C35.694 63.1433 35.4974 63.0527 35.3079 62.9889C35.1184 62.9251 34.9093 62.8953 34.6805 62.8993C34.4517 62.9033 34.2569 62.9268 34.0961 62.9699C33.9353 63.013 33.8012 63.0489 33.7012 63.1044C33.6011 63.1599 33.4939 63.1886 33.3866 63.2173C33.2794 63.2461 33.1722 63.2748 33.065 63.3035C32.9577 63.3322 32.8237 63.3682 32.6557 63.3845L31.8849 66.5127C31.8278 66.7285 31.7367 66.9247 31.5921 67.1353C31.4402 67.3192 31.2741 67.4497 31.0328 67.5143C30.8988 67.5503 30.7576 67.5594 30.6289 67.508C30.5073 67.4833 30.4054 67.4247 30.2963 67.3393C30.1873 67.254 30.105 67.1614 30.0424 67.035C29.9798 66.9086 29.9243 66.8088 29.8885 66.6752C29.969 66.6537 30.0297 66.666 30.0637 66.6856C30.0977 66.7051 30.1656 66.7442 30.2139 66.8172C30.255 66.8635 30.3033 66.9364 30.3713 66.9755C30.4195 67.0485 30.4875 67.0876 30.5286 67.1339C30.5965 67.1729 30.6645 67.212 30.7592 67.2439C30.854 67.2758 30.9344 67.2543 31.0416 67.2256C31.1953 67.1557 31.3275 67.0057 31.4525 66.829C31.5704 66.6256 31.6543 66.4026 31.7311 66.1529C31.8078 65.9032 31.8702 65.6 31.9327 65.2969C31.9951 64.9937 32.0575 64.6905 32.1128 64.3607C32.1752 64.0575 32.2376 63.7543 32.3269 63.444C32.4161 63.1337 32.4928 62.884 32.6035 62.6538C32.6946 62.4575 32.7785 62.2345 32.9089 61.9705C33.0392 61.7064 33.1768 61.469 33.3679 61.2173C33.5322 60.9728 33.7305 60.7478 33.936 60.5495C34.1414 60.3513 34.3684 60.2332 34.6096 60.1685C34.7973 60.1182 34.9456 60.1358 35.0619 60.2479C35.1781 60.3599 35.2675 60.4792 35.3105 60.6395C35.3678 60.8533 35.3643 61.0548 35.3 61.2438C35.2357 61.4329 35.1447 61.6292 35.0196 61.8059C34.8946 61.9826 34.7892 62.1254 34.657 62.2754C34.5248 62.4254 34.4391 62.5343 34.3801 62.636C34.5553 62.6464 34.7305 62.6567 34.9324 62.6599C35.1344 62.6631 35.3167 62.7002 35.5134 62.7907C35.7028 62.8545 35.8727 62.9522 36.0229 63.0838C36.1731 63.2154 36.284 63.4148 36.3556 63.6821C36.3985 63.8424 36.4147 64.01 36.3844 64.2186C36.3541 64.4272 36.3167 64.6091 36.2596 64.8249C36.2025 65.0407 36.1114 65.237 35.9935 65.4404C35.8756 65.6438 35.7846 65.8401 35.6256 65.9973C35.5005 66.174 35.3344 66.3045 35.195 66.4277C35.0556 66.551 34.8752 66.628 34.7143 66.6711C34.4999 66.7286 34.2979 66.7254 34.0888 66.6955C33.8796 66.6656 33.6562 66.5823 33.4595 66.4917C33.2629 66.4012 33.1055 66.2429 32.9482 66.0845C32.8516 65.9386 32.7479 65.7659 32.6906 65.5521ZM34.6186 60.3093C34.5382 60.3309 34.465 60.3792 34.3649 60.4346C34.2648 60.4901 34.1987 60.5651 34.1058 60.6472C34.0129 60.7294 33.9468 60.8044 33.8807 60.8794C33.8146 60.9544 33.7485 61.0294 33.7092 61.0972C33.6896 61.1311 33.6235 61.2061 33.5645 61.3079C33.5056 61.4096 33.4467 61.5113 33.3681 61.6469C33.3092 61.7486 33.2574 61.8771 33.1984 61.9788C33.1395 62.0805 33.1002 62.1483 33.0806 62.1823C33.0609 62.2162 33.0216 62.284 33.0163 62.3713C32.9842 62.4659 32.9449 62.5337 32.9127 62.6282C32.8806 62.7228 32.8485 62.8173 32.8163 62.9118C32.7842 63.0064 32.7717 63.067 32.7396 63.1616C32.8468 63.1328 32.9541 63.1041 33.0881 63.0682C33.2221 63.0323 33.3222 62.9768 33.4562 62.9409C33.5831 62.8782 33.7171 62.8423 33.8244 62.8136C33.9316 62.7849 34.0317 62.7294 34.1121 62.7079C34.1978 62.599 34.3104 62.4829 34.4354 62.3062C34.5604 62.1294 34.6926 61.9794 34.8105 61.776C34.9284 61.5726 35.0266 61.403 35.0909 61.2139C35.1551 61.0249 35.1926 60.843 35.1764 60.6754C35.1406 60.5418 35.0852 60.4421 34.9833 60.3835C34.8742 60.2981 34.7527 60.2734 34.6186 60.3093Z" fill="#475B80" stroke="#475B80" stroke-width="0.5" stroke-miterlimit="10"/>
        <path d="M37.4101 65.2612C37.3815 65.1543 37.3725 65.0135 37.3831 64.8388C37.3938 64.664 37.4384 64.5089 37.483 64.3537C37.5276 64.1985 37.6062 64.0629 37.7116 63.9201C37.817 63.7773 37.9171 63.7218 38.0779 63.6787C38.1315 63.6644 38.1851 63.65 38.2191 63.6695C38.2531 63.6891 38.3138 63.7014 38.3621 63.7744C38.2424 63.8638 38.1227 63.9532 38.0298 64.0353C37.9172 64.1514 37.8315 64.2603 37.7797 64.3888C37.7011 64.5244 37.6762 64.6457 37.6512 64.7669C37.6334 64.9149 37.6424 65.0557 37.6782 65.1893C37.6925 65.2428 37.7068 65.2962 37.7211 65.3497C37.7355 65.4031 37.7766 65.4494 37.7838 65.4761C37.7909 65.5029 37.8589 65.5419 37.8928 65.5615C37.9268 65.581 37.9804 65.5667 38.0608 65.5451C38.2485 65.4948 38.3753 65.4322 38.4682 65.35C38.5612 65.2678 38.6469 65.1589 38.6915 65.0038C38.6164 64.9379 38.5681 64.865 38.5466 64.7848C38.5252 64.7046 38.5037 64.6244 38.4822 64.5443C38.4607 64.4641 38.4321 64.3572 38.4159 64.1897C38.4069 64.0489 38.3979 63.9081 38.4157 63.7601C38.4335 63.6121 38.4585 63.4908 38.5174 63.3891C38.5692 63.2607 38.6425 63.2124 38.7765 63.1765C38.8569 63.1549 38.9106 63.1405 38.9713 63.1529C39.0321 63.1653 39.0929 63.1776 39.134 63.2239C39.134 63.2239 39.1412 63.2506 39.1483 63.2773C39.1555 63.3041 39.1626 63.3308 39.1698 63.3575C39.177 63.3842 39.1841 63.411 39.1913 63.4377C39.1985 63.4644 39.2056 63.4911 39.2056 63.4911C39.2343 63.598 39.2629 63.7049 39.2576 63.7923C39.2523 63.8796 39.2737 63.9598 39.2416 64.0544C39.2363 64.1417 39.2041 64.2362 39.1988 64.3236C39.1667 64.4181 39.1346 64.5127 39.1096 64.6339C39.1096 64.6339 39.1364 64.6268 39.19 64.6124C39.2436 64.598 39.2436 64.598 39.2704 64.5908C39.3777 64.5621 39.4849 64.5334 39.5778 64.4512C39.6779 64.3957 39.7779 64.3403 39.8708 64.2581C39.9637 64.1759 40.0638 64.1205 40.1567 64.0383C40.2496 63.9561 40.3425 63.8739 40.4158 63.8257L40.4909 63.8915C40.2997 64.1432 40.0746 64.3754 39.8084 64.5613C39.5422 64.7472 39.2616 64.8796 38.9739 64.9854L38.4111 65.5658C38.3719 65.6336 38.2986 65.6819 38.2182 65.7034C38.1378 65.725 38.0573 65.7465 38.0037 65.7609C37.8965 65.7896 37.8089 65.7845 37.7481 65.7721C37.6874 65.7597 37.6194 65.7207 37.5783 65.6744C37.5372 65.6281 37.4889 65.5551 37.4674 65.475C37.4602 65.4482 37.4388 65.3681 37.4101 65.2612ZM38.6698 64.494C38.6698 64.494 38.677 64.5207 38.6842 64.5474C38.6913 64.5742 38.6985 64.6009 38.7056 64.6276C38.7128 64.6543 38.72 64.6811 38.7539 64.7006C38.7611 64.7273 38.7879 64.7201 38.8147 64.713C38.8808 64.638 38.9201 64.5701 38.9594 64.5023C38.9915 64.4078 39.0308 64.34 39.029 64.2259C39.0343 64.1385 39.0396 64.0512 39.0378 63.9371C39.0431 63.8497 39.0216 63.7696 39.0002 63.6894C39.0002 63.6894 38.993 63.6627 38.9858 63.636C38.9787 63.6092 38.9715 63.5825 38.9572 63.5291C38.95 63.5023 38.9357 63.4489 38.9017 63.4293C38.8946 63.4026 38.8606 63.3831 38.8338 63.3903C38.7677 63.4653 38.7284 63.5331 38.6963 63.6276C38.6642 63.7221 38.632 63.8167 38.6267 63.904C38.6214 63.9914 38.6232 64.1055 38.6179 64.1928C38.6537 64.3265 38.6484 64.4138 38.6698 64.494Z" fill="#475B80" stroke="#475B80" stroke-width="0.5" stroke-miterlimit="10"/>
        <path d="M40.6269 64.3994C40.5983 64.2925 40.5893 64.1517 40.5999 63.9769C40.6106 63.8022 40.6552 63.6471 40.6998 63.4919C40.7444 63.3367 40.823 63.2011 40.9284 63.0583C41.0338 62.9155 41.1338 62.86 41.2947 62.8169C41.3483 62.8026 41.4019 62.7882 41.4359 62.8077C41.4699 62.8273 41.5306 62.8396 41.5789 62.9126C41.4592 63.002 41.3395 63.0913 41.2466 63.1735C41.134 63.2896 41.0483 63.3985 40.9965 63.527C40.9179 63.6626 40.893 63.7839 40.868 63.9051C40.8502 64.0531 40.8592 64.1939 40.895 64.3275C40.9093 64.381 40.9236 64.4344 40.9379 64.4879C40.9523 64.5413 40.9934 64.5876 41.0006 64.6143C41.0077 64.641 41.0756 64.6801 41.1096 64.6997C41.1436 64.7192 41.1972 64.7048 41.2776 64.6833C41.4653 64.633 41.5921 64.5704 41.685 64.4882C41.7779 64.406 41.8637 64.2971 41.9083 64.1419C41.8332 64.0761 41.7849 64.0031 41.7634 63.923C41.742 63.8428 41.7205 63.7626 41.699 63.6824C41.6775 63.6023 41.6489 63.4954 41.6327 63.3278C41.6237 63.187 41.6147 63.0462 41.6325 62.8983C41.6503 62.7503 41.6753 62.629 41.7342 62.5273C41.786 62.3988 41.8593 62.3506 41.9933 62.3146C42.0737 62.2931 42.1274 62.2787 42.1881 62.2911C42.2489 62.3035 42.3097 62.3158 42.3508 62.3621C42.3508 62.3621 42.358 62.3888 42.3651 62.4155C42.3723 62.4422 42.3794 62.469 42.3866 62.4957C42.3938 62.5224 42.4009 62.5491 42.4081 62.5759C42.4152 62.6026 42.4224 62.6293 42.4224 62.6293C42.4511 62.7362 42.4797 62.8431 42.4744 62.9305C42.469 63.0178 42.4905 63.098 42.4584 63.1925C42.4531 63.2799 42.4209 63.3744 42.4156 63.4618C42.3835 63.5563 42.3514 63.6509 42.3264 63.7721C42.3264 63.7721 42.3532 63.7649 42.4068 63.7506C42.4604 63.7362 42.4604 63.7362 42.4872 63.729C42.5945 63.7003 42.7017 63.6716 42.7946 63.5894C42.8946 63.5339 42.9947 63.4785 43.0876 63.3963C43.1805 63.3141 43.2806 63.2587 43.3735 63.1765C43.4664 63.0943 43.5593 63.0121 43.6326 62.9638L43.7077 63.0297C43.5165 63.2814 43.2914 63.5135 43.0252 63.6995C42.759 63.8854 42.4784 64.0178 42.1907 64.1236L41.6279 64.704C41.5886 64.7718 41.5154 64.8201 41.435 64.8416C41.3545 64.8632 41.2741 64.8847 41.2205 64.8991C41.1133 64.9278 41.0257 64.9226 40.9649 64.9103C40.9042 64.8979 40.8362 64.8588 40.7951 64.8126C40.754 64.7663 40.7057 64.6933 40.6842 64.6132C40.677 64.5864 40.6556 64.5063 40.6269 64.3994ZM41.8866 63.6322C41.8866 63.6322 41.8938 63.6589 41.901 63.6856C41.9081 63.7123 41.9153 63.7391 41.9224 63.7658C41.9296 63.7925 41.9368 63.8192 41.9707 63.8388C41.9779 63.8655 42.0047 63.8583 42.0315 63.8511C42.0976 63.7761 42.1369 63.7083 42.1762 63.6405C42.2083 63.546 42.2476 63.4782 42.2458 63.3641C42.2511 63.2767 42.2564 63.1894 42.2546 63.0753C42.2599 62.9879 42.2384 62.9078 42.217 62.8276C42.217 62.8276 42.2098 62.8009 42.2026 62.7741C42.1955 62.7474 42.1883 62.7207 42.174 62.6672C42.1668 62.6405 42.1525 62.5871 42.1185 62.5675C42.1114 62.5408 42.0774 62.5213 42.0506 62.5284C41.9845 62.6034 41.9452 62.6713 41.9131 62.7658C41.8809 62.8603 41.8488 62.9549 41.8435 63.0422C41.8382 63.1296 41.84 63.2437 41.8347 63.331C41.8705 63.4646 41.8652 63.552 41.8866 63.6322Z" fill="#475B80" stroke="#475B80" stroke-width="0.5" stroke-miterlimit="10"/>
        <path d="M44.5333 63.6395C44.4011 63.7895 44.2813 63.8789 44.1545 63.9415C44.0276 64.0041 43.9472 64.0257 43.9132 64.0061C43.8524 63.9938 43.8381 63.9403 43.8774 63.8725C43.9167 63.8047 44.0024 63.6958 44.149 63.5993L43.9576 63.4214C43.9308 63.4286 43.9505 63.3947 43.9505 63.3947L43.9969 63.3536C43.9969 63.3536 44.0237 63.3464 44.0505 63.3392C44.0773 63.332 44.1113 63.3516 44.1381 63.3444C44.1649 63.3372 44.1989 63.3567 44.2257 63.3496C44.2525 63.3424 44.2793 63.3352 44.2793 63.3352L44.3061 63.328L44.3597 63.3136C44.3794 63.2797 44.4258 63.2386 44.4651 63.1708C44.5312 63.0958 44.5705 63.028 44.6366 62.953C44.7027 62.878 44.742 62.8102 44.8081 62.7352C44.8474 62.6674 44.8939 62.6263 44.9135 62.5924C44.9403 62.5852 44.96 62.5513 44.9724 62.4907C44.9921 62.4568 45.0314 62.389 45.0707 62.3211C45.11 62.2533 45.1296 62.2194 45.1689 62.1516C45.2082 62.0838 45.2278 62.0499 45.2278 62.0499C45.2475 62.016 45.26 61.9553 45.2725 61.8947C45.2849 61.8341 45.2974 61.7735 45.3171 61.7395C45.3296 61.6789 45.3492 61.645 45.3957 61.6039C45.4153 61.57 45.4618 61.5289 45.5154 61.5146C45.569 61.5002 45.6029 61.5197 45.6101 61.5465C45.6173 61.5732 45.6512 61.5927 45.6656 61.6462C45.6799 61.6996 45.687 61.7263 45.6674 61.7602C45.6477 61.7942 45.6549 61.8209 45.6424 61.8815C45.6228 61.9154 45.6371 61.9689 45.6175 62.0028C45.5978 62.0367 45.6121 62.0901 45.6193 62.1169L45.9916 63.5065C46.2329 63.4419 46.3866 63.372 46.5135 63.3094C46.6332 63.22 46.6993 63.1451 46.7582 63.0433C46.8172 62.9416 46.8761 62.8399 46.9279 62.7114C46.9796 62.583 47.0582 62.4474 47.1904 62.2974L47.2119 62.3775C47.2334 62.4577 47.2352 62.5718 47.1763 62.6735C47.1513 62.7948 47.0924 62.8965 47.0066 63.0054C46.9209 63.1143 46.8351 63.2232 46.7494 63.3321C46.6368 63.4482 46.5439 63.5304 46.4242 63.6198C46.3045 63.7091 46.2045 63.7646 46.1044 63.82C46.0043 63.8755 45.8971 63.9042 45.8095 63.899C45.7023 63.9278 45.5879 63.9298 45.4735 63.9318C45.3591 63.9338 45.2644 63.9019 45.1696 63.87C45.0749 63.8381 44.9533 63.8134 44.8586 63.7815C44.7763 63.6889 44.6548 63.6642 44.5333 63.6395ZM44.7708 63.3467C44.812 63.393 44.8799 63.4321 44.9746 63.464C45.0694 63.4959 45.157 63.501 45.2517 63.5329C45.3393 63.5381 45.4537 63.5361 45.5413 63.5413C45.6556 63.5393 45.7361 63.5177 45.8165 63.4962C45.7664 63.3091 45.7091 63.0953 45.6321 62.9154C45.5552 62.7355 45.5051 62.5485 45.3942 62.349C45.3674 62.3562 45.3477 62.3901 45.3084 62.4579C45.262 62.499 45.2423 62.5329 45.2227 62.5668C45.2031 62.6007 45.1834 62.6347 45.1245 62.7364C45.0852 62.8042 45.0262 62.9059 44.9869 62.9737C44.928 63.0754 44.8887 63.1433 44.8494 63.2111C44.8101 63.2789 44.7905 63.3128 44.7708 63.3467Z" fill="#475B80" stroke="#475B80" stroke-width="0.5" stroke-miterlimit="10"/>
        <path d="M47.2811 61.6712C47.2543 61.6784 47.2346 61.7123 47.2078 61.7194C47.181 61.7266 47.1006 61.7482 47.047 61.7625C46.9934 61.7769 46.9397 61.7913 46.9129 61.7985C46.8861 61.8056 46.8522 61.7861 46.8378 61.7327C46.8164 61.6525 46.8288 61.5918 46.8753 61.5508C46.9217 61.5097 47.0022 61.4881 47.0558 61.4738C47.1094 61.4594 47.1827 61.4111 47.2631 61.3896C47.3363 61.3413 47.3488 61.2807 47.3541 61.1933L47.3446 59.7637L47.4428 59.5942C47.5036 59.6065 47.5036 59.6065 47.5376 59.6261C47.5447 59.6528 47.5519 59.6795 47.559 59.7062C47.559 59.7062 47.5662 59.733 47.5734 59.7597C47.5805 59.7864 47.5805 59.7864 47.5877 59.8131L47.6187 61.3229L47.6259 61.3496C47.6867 61.362 47.7742 61.3672 47.8475 61.3189C47.9279 61.2974 48.0012 61.2491 48.1012 61.1936C48.1745 61.1454 48.2746 61.0899 48.3478 61.0416C48.4211 60.9933 48.4944 60.9451 48.548 60.9307C48.5838 61.0643 48.5784 61.1517 48.5123 61.2267C48.4731 61.2945 48.407 61.3695 48.3069 61.425C48.2068 61.4804 48.1264 61.502 47.9924 61.5379C47.8851 61.5666 47.7708 61.5686 47.6832 61.5634C47.6582 61.6847 47.6529 61.7721 47.6619 61.9129C47.6637 62.0269 47.6655 62.141 47.6942 62.2479C47.7228 62.3548 47.7515 62.4617 47.8069 62.5614C47.8624 62.6611 47.9107 62.7341 47.9929 62.8267C48.068 62.8925 48.1699 62.9511 48.2647 62.983C48.3594 63.0149 48.4738 63.0129 48.6078 62.977C48.8151 62.8928 48.9616 62.7962 49.0277 62.7212C49.0938 62.6462 49.1867 62.5641 49.2332 62.523C49.2796 62.4819 49.3457 62.4069 49.3922 62.3658C49.4386 62.3247 49.5459 62.296 49.6871 62.2868C49.6549 62.3813 49.6228 62.4759 49.5299 62.558C49.437 62.6402 49.3441 62.7224 49.2512 62.8046C49.1511 62.86 49.0314 62.9494 48.9242 62.9781C48.7973 63.0408 48.7169 63.0623 48.6168 63.1178C48.2415 63.2183 47.9645 63.1494 47.7588 62.918C47.5532 62.6867 47.4118 62.2663 47.315 61.6907L47.2811 61.6712Z" fill="#475B80" stroke="#475B80" stroke-width="0.5" stroke-miterlimit="10"/>
        <path d="M34.3098 79.64C34.2597 79.4529 34.2292 79.2319 34.2184 78.977C34.2075 78.7222 34.1967 78.4673 34.193 78.2391C34.209 77.9771 34.1982 77.7222 34.2481 77.4796C34.2641 77.2176 34.3212 77.0018 34.3515 76.7932C34.3818 76.5845 34.4532 76.4222 34.4978 76.267C34.5496 76.1386 34.6085 76.0369 34.655 75.9958C34.6818 75.9886 34.7158 76.0081 34.7497 76.0277C34.7908 76.0739 34.798 76.1007 34.8391 76.1469C34.8535 76.2004 34.8946 76.2466 34.9089 76.3001C34.9232 76.3535 34.9304 76.3803 34.9376 76.407C34.9734 76.5406 34.9895 76.7081 35.0057 76.8757C35.0218 77.0432 35.0112 77.2179 35.0005 77.3926C34.9899 77.5673 34.9792 77.742 34.9418 77.9239C34.9043 78.1058 34.8865 78.2538 34.8347 78.3822C34.8098 78.5035 34.7508 78.6052 34.7187 78.6998C34.6866 78.7943 34.6205 78.8693 34.5883 78.9638C34.549 79.0317 34.5169 79.1262 34.5116 79.2136C34.5063 79.3009 34.5009 79.3883 34.5367 79.5219C34.6012 79.7624 34.7049 79.9351 34.8891 80.0863C35.0661 80.2107 35.2752 80.2406 35.5433 80.1688C35.7041 80.1257 35.8578 80.0558 35.9775 79.9665C36.124 79.8699 36.2026 79.7343 36.2061 79.5329L36.2865 79.5113C36.3152 79.6182 36.317 79.7323 36.2849 79.8268C36.2527 79.9214 36.1866 79.9964 36.1205 80.0714C36.0544 80.1464 35.9544 80.2018 35.8543 80.2573C35.7542 80.3127 35.6542 80.3682 35.5738 80.3897C35.4129 80.4328 35.2985 80.4348 35.1502 80.4173C35.0018 80.3998 34.8999 80.3412 34.798 80.2825C34.6961 80.2239 34.5871 80.1386 34.4976 80.0193C34.4279 79.8661 34.3653 79.7397 34.3098 79.64ZM34.7571 76.484C34.7374 76.5179 34.7178 76.5518 34.7124 76.6392C34.7 76.6998 34.6678 76.7943 34.6553 76.855C34.6429 76.9156 34.6107 77.0101 34.5982 77.0708C34.5858 77.1314 34.5733 77.192 34.5804 77.2187C34.5751 77.3061 34.5573 77.4541 34.5395 77.6021C34.5217 77.7501 34.511 77.9248 34.4932 78.0728C34.4826 78.2475 34.4576 78.3687 34.4666 78.5095C34.4756 78.6503 34.4631 78.711 34.4703 78.7377C34.556 78.6288 34.6346 78.4932 34.6917 78.2774C34.7488 78.0616 34.7863 77.8797 34.8094 77.6443C34.8325 77.409 34.836 77.2075 34.8323 76.9794C34.8162 76.8119 34.7929 76.6176 34.7571 76.484Z" fill="#475B80" stroke="#475B80" stroke-width="0.5" stroke-miterlimit="10"/>
        <path d="M36.2534 78.3171C36.2534 78.3171 36.2659 78.2565 36.2515 78.203C36.264 78.1424 36.2425 78.0622 36.255 78.0016C36.2604 77.9142 36.2728 77.8536 36.2853 77.793C36.2978 77.7323 36.3443 77.6912 36.3711 77.6841C36.4247 77.6697 36.4515 77.6625 36.4855 77.6821C36.5194 77.7016 36.5266 77.7283 36.5481 77.8085C36.5249 78.0438 36.5018 78.2792 36.5055 78.5073C36.5091 78.7355 36.5396 78.9565 36.6041 79.197C36.6256 79.2772 36.647 79.3573 36.6953 79.4303C36.7436 79.5033 36.7919 79.5763 36.8598 79.6154C36.9278 79.6545 36.9957 79.6936 37.0904 79.7255C37.178 79.7306 37.2656 79.7358 37.3728 79.7071C37.6855 79.4801 37.9053 79.3353 38.0322 79.2726C38.1859 79.2028 38.2663 79.1813 38.2663 79.1813C38.3002 79.2008 38.2538 79.2419 38.1948 79.3436C38.1287 79.4186 38.009 79.508 37.8893 79.5973C37.7696 79.6867 37.6159 79.7565 37.4694 79.8531C37.3157 79.9229 37.1817 79.9588 37.0333 79.9413C36.9458 79.9361 36.885 79.9237 36.8242 79.9114C36.7634 79.899 36.6883 79.8332 36.6061 79.7407C36.5506 79.641 36.4809 79.4878 36.3968 79.2812C36.3127 79.0746 36.334 78.7252 36.2534 78.3171ZM36.594 76.4786C36.6226 76.5855 36.6173 76.6729 36.6048 76.7335C36.5923 76.7941 36.5727 76.828 36.5191 76.8424C36.4922 76.8496 36.4315 76.8372 36.3975 76.8177C36.3635 76.7981 36.3224 76.7519 36.3153 76.7252C36.3081 76.6984 36.3206 76.6378 36.3402 76.6039C36.3599 76.57 36.4867 76.5074 36.594 76.4786Z" fill="#475B80" stroke="#475B80" stroke-width="0.5" stroke-miterlimit="10"/>
        <path d="M38.7193 81.2945C38.6763 81.1341 38.6334 80.9738 38.5976 80.8402C38.5618 80.7066 38.5528 80.5658 38.517 80.4321C38.508 80.2913 38.4918 80.1238 38.4757 79.9563C38.4595 79.7887 38.463 79.5873 38.479 79.3252L38.8495 76.4189C38.9763 76.3563 39.0979 76.381 39.173 76.4468C39.2481 76.5126 39.2839 76.6463 39.3269 76.8066C39.343 76.9741 39.3592 77.1417 39.3289 77.3503C39.2986 77.5589 39.2683 77.7675 39.2308 77.9494C39.1934 78.1313 39.1363 78.3471 39.0649 78.5095C38.9934 78.6718 38.9148 78.8074 38.8559 78.9092C38.9042 78.9822 38.9453 79.0284 38.9864 79.0747C39.0276 79.121 39.0884 79.1333 39.1759 79.1385C39.2367 79.1508 39.2975 79.1632 39.3779 79.1417C39.4315 79.1273 39.5119 79.1057 39.5655 79.0914C39.8068 79.0267 40.0409 78.9354 40.2071 78.8049C40.4 78.6673 40.559 78.5101 40.7377 78.319C40.7842 78.2779 40.8038 78.244 40.8234 78.2101C40.8431 78.1762 40.8627 78.1423 40.8556 78.1156C40.8752 78.0817 40.8752 78.0817 40.8949 78.0478C40.9217 78.0406 40.9413 78.0067 40.9949 77.9923C41.0164 78.0725 41.0111 78.1598 40.9522 78.2615C40.8932 78.3633 40.8343 78.465 40.7414 78.5472C40.6556 78.6561 40.5359 78.7454 40.4162 78.8348C40.2965 78.9242 40.1768 79.0135 40.0571 79.1029C39.9374 79.1923 39.8105 79.2549 39.7104 79.3103C39.6104 79.3658 39.5031 79.3945 39.4567 79.4356C39.4925 79.5692 39.5551 79.6957 39.6105 79.7954C39.7 79.9147 39.7286 80.0216 39.7984 80.1747C39.8198 80.2549 39.8413 80.3351 39.8432 80.4491C39.845 80.5632 39.854 80.704 39.863 80.8448C39.872 80.9856 39.8542 81.1336 39.8364 81.2816C39.8186 81.4296 39.8008 81.5776 39.749 81.706C39.6972 81.8345 39.6722 81.9557 39.6061 82.0307C39.5472 82.1325 39.4739 82.1807 39.3935 82.2023C39.2863 82.231 39.1915 82.1991 39.1164 82.1333C39.0414 82.0675 38.9591 81.975 38.8965 81.8485C38.841 81.7488 38.8052 81.6152 38.7498 81.5155C38.7623 81.4548 38.7336 81.3479 38.7193 81.2945ZM38.9051 81.1301C38.9194 81.1836 38.9338 81.237 38.9624 81.3439C38.991 81.4508 39.0125 81.531 39.068 81.6307C39.1234 81.7304 39.1717 81.8034 39.22 81.8764C39.2683 81.9494 39.3291 81.9618 39.4095 81.9402C39.4631 81.9258 39.5096 81.8848 39.5417 81.7902C39.581 81.7224 39.6059 81.6011 39.6113 81.5138C39.6362 81.3925 39.6344 81.2784 39.6594 81.1572C39.6843 81.0359 39.6754 80.8951 39.6735 80.781C39.6717 80.6669 39.6698 80.5529 39.6752 80.4655C39.6805 80.3782 39.659 80.298 39.6518 80.2713C39.616 80.1376 39.5874 80.0307 39.5391 79.9578C39.5105 79.8509 39.4622 79.7779 39.3871 79.7121C39.3388 79.6391 39.2709 79.6 39.169 79.5414C39.101 79.5023 38.9795 79.4776 38.8579 79.4528C38.7918 79.5278 38.7597 79.6224 38.7419 79.7704C38.7241 79.9184 38.7402 80.0859 38.7564 80.2534C38.7725 80.4209 38.7887 80.5885 38.8317 80.7488C38.8478 80.9163 38.8836 81.05 38.9051 81.1301ZM38.9057 78.237C38.9378 78.1425 38.9967 78.0408 39.0289 77.9462C39.061 77.8517 39.086 77.7304 39.1109 77.6092C39.1359 77.4879 39.1341 77.3738 39.1322 77.2598C39.1304 77.1457 39.1286 77.0316 39.1071 76.9514C39.1071 76.9514 39.0999 76.9247 39.0928 76.898C39.0856 76.8713 39.0784 76.8445 39.0784 76.8445L39.0195 76.9463L38.8913 78.1836L38.9057 78.237Z" fill="#475B80" stroke="#475B80" stroke-width="0.5" stroke-miterlimit="10"/>
        <path d="M41.0333 77.9242C40.9635 77.7711 40.9402 77.5768 40.9437 77.3754C40.9471 77.174 40.9774 76.9653 41.0149 76.7834C41.0792 76.5944 41.1506 76.432 41.2828 76.282C41.415 76.132 41.5615 76.0355 41.7223 75.9924C41.7759 75.978 41.8367 75.9904 41.8975 76.0027C41.9583 76.0151 41.9726 76.0685 41.9941 76.1487C42.037 76.3091 42.046 76.4499 42.0014 76.605C41.9568 76.7602 41.9122 76.9154 41.814 77.0849C41.7425 77.2473 41.6371 77.3901 41.5657 77.5524C41.4603 77.6952 41.4086 77.8237 41.3496 77.9254L41.3568 77.9521C41.3639 77.9789 41.3639 77.9789 41.3639 77.9789C41.3854 78.059 41.4265 78.1053 41.4677 78.1516C41.5356 78.1906 41.5767 78.2369 41.6643 78.2421C41.7251 78.2544 41.8127 78.2596 41.8735 78.272C41.961 78.2772 42.0146 78.2628 42.0683 78.2484C42.2559 78.1981 42.4096 78.1283 42.5365 78.0657C42.6633 78.003 42.783 77.9137 42.8688 77.8048C42.9545 77.6959 43.0403 77.587 43.126 77.4781C43.2046 77.3424 43.2832 77.2068 43.3618 77.0712C43.3814 77.0373 43.4011 77.0034 43.3939 76.9766C43.3867 76.9499 43.3867 76.9499 43.4064 76.916C43.3992 76.8893 43.3992 76.8893 43.426 76.8821C43.426 76.8821 43.4457 76.8482 43.4653 76.8143C43.4921 76.8071 43.5261 76.8266 43.5333 76.8534C43.5404 76.8801 43.5476 76.9068 43.5547 76.9335C43.5637 77.0743 43.5191 77.2295 43.4477 77.3919C43.3763 77.5542 43.278 77.7238 43.153 77.9005C43.028 78.0772 42.8886 78.2005 42.7225 78.3309C42.5563 78.4614 42.3758 78.5384 42.2078 78.5547C42.013 78.5783 41.8307 78.5412 41.634 78.4507C41.4106 78.3674 41.2193 78.1895 41.0333 77.9242ZM41.8208 76.2524C41.7135 76.2812 41.6135 76.3366 41.5277 76.4455C41.442 76.5544 41.383 76.6562 41.3241 76.7579C41.2723 76.8863 41.2473 77.0076 41.2224 77.1289C41.1974 77.2501 41.1992 77.3642 41.2279 77.4711C41.2279 77.4711 41.235 77.4978 41.2494 77.5513C41.2637 77.6047 41.2637 77.6047 41.2708 77.6314C41.3369 77.5564 41.403 77.4814 41.4888 77.3725C41.5745 77.2636 41.6263 77.1352 41.7049 76.9996C41.7567 76.8711 41.8085 76.7427 41.8334 76.6214C41.8512 76.4734 41.8494 76.3593 41.8208 76.2524Z" fill="#475B80" stroke="#475B80" stroke-width="0.5" stroke-miterlimit="10"/>
        <path d="M68.2793 72.9155C60.4578 76.6439 60.827 74.9124 60.827 74.9124C60.827 74.9124 62.8476 72.9101 65.0751 69.9646C66.2809 68.3525 75.3664 69.5558 68.2793 72.9155Z" fill="url(#paint1_radial)"/>
        <path d="M63.0517 71.8526C63.0517 71.8526 61.09 73.753 61.0815 74.901C61.0463 76.0562 63.5316 74.0727 63.5316 74.0727L63.0517 71.8526Z" fill="#475B80" stroke="#475B80" stroke-miterlimit="10"/>
        <path d="M125.791 7.26499L124.912 7.84427L129.2 12.0516L129.73 11.1361C129.966 10.7292 129.91 10.1999 129.562 9.86369L127.058 7.38372C126.736 7.04032 126.204 6.98254 125.791 7.26499Z" fill="#2F2F2F"/>
        <path d="M68.2117 64.1973C65.5714 67.4253 62.3596 71.5226 62.2169 72.2769C62.0992 72.9099 63.0669 74.4838 63.6834 74.3186C63.7906 74.2899 63.9443 74.2201 64.1248 74.1431C65.5669 73.413 68.7972 70.8861 71.3683 68.7937C70.0953 67.9031 68.6381 66.4318 68.2117 64.1973Z" fill="#2F2F2F"/>
        <path d="M124.912 7.84449L129.2 12.0518L128.452 12.7966L101.575 39.4469L100.07 40.9098L75.6642 65.0935L75.1872 65.565L75.1407 65.6061C75.1407 65.6061 74.251 66.3601 72.936 67.4572C72.7233 67.6287 72.4839 67.8074 72.2517 68.0129C71.9658 68.2327 71.6602 68.4864 71.3547 68.7402C71.1098 68.5766 70.8577 68.3864 70.5913 68.1427C69.7456 67.4527 68.9355 66.4668 68.4846 65.2128C68.3647 64.8725 68.2716 64.5251 68.1981 64.1438C68.4357 63.851 68.6733 63.5582 68.9181 63.2921C69.7434 62.2976 70.4901 61.4387 70.9993 60.8727C71.1511 60.6887 71.2905 60.5655 71.403 60.4494C71.4495 60.4083 71.5156 60.3333 71.6085 60.2511C73.3575 58.5222 84.2895 47.7448 95.8182 36.4065C96.2488 35.976 96.6793 35.5456 97.1367 35.108C107.381 25.0877 117.836 14.7818 122.454 10.2504C124.025 8.71256 124.912 7.84449 124.912 7.84449Z" fill="url(#paint2_linear)"/>
        <path d="M122.455 10.2506L123.317 11.1081L96.4737 37.7779L94.9694 39.2408L70.5631 63.4245L70.0861 63.8961L70.0397 63.9371C70.0397 63.9371 69.4286 64.4446 68.4924 65.2397C68.3725 64.8994 68.2794 64.552 68.206 64.1707C68.4436 63.8779 68.6812 63.5851 68.9259 63.319C69.7512 62.3245 70.498 61.4656 71.0071 60.8996C71.1589 60.7157 71.2983 60.5924 71.4109 60.4763C71.4573 60.4352 71.5234 60.3602 71.6163 60.278C73.3654 58.5491 84.2974 47.7717 95.8261 36.4334C96.2566 36.0029 96.6872 35.5725 97.1446 35.1349C107.382 25.0879 117.837 14.782 122.455 10.2506Z" fill="url(#paint3_linear)"/>
        <path d="M97.1251 35.1684C96.6945 35.5988 96.2372 36.0364 95.8066 36.4669L100.078 40.9363L101.556 39.4806L97.1251 35.1684Z" fill="#2F2F2F"/>
        <path d="M96.8321 35.476C96.4016 35.9064 95.9442 36.344 95.5136 36.7745L99.7783 41.2172L101.256 39.7615L96.8321 35.476Z" fill="url(#paint4_linear)"/>
    </g>
    <defs>
        <linearGradient id="paint0_linear" x1="272.844" y1="240.965" x2="-182.855" y2="-62.1536" gradientUnits="userSpaceOnUse">
            <stop stop-color="#C0D2E1"/>
            <stop offset="0.2375" stop-color="#DAE4ED"/>
            <stop offset="0.4801" stop-color="#EDF2F5"/>
            <stop offset="0.7309" stop-color="#F8F9FA"/>
            <stop offset="1" stop-color="#FCFCFC"/>
        </linearGradient>
        <radialGradient id="paint1_radial" cx="0" cy="0" r="1" gradientUnits="userSpaceOnUse" gradientTransform="translate(65.6677 71.9206) rotate(-15) scale(4.19916 4.18624)">
            <stop stop-color="#687B99" stop-opacity="0.2"/>
            <stop offset="0.5133" stop-color="#55688A" stop-opacity="0.1487"/>
            <stop offset="1" stop-color="#475B80" stop-opacity="0.1"/>
        </radialGradient>
        <linearGradient id="paint2_linear" x1="100.564" y1="40.8437" x2="94.5568" y2="34.5546" gradientUnits="userSpaceOnUse">
            <stop offset="0.5193" stop-color="#465A80"/>
            <stop offset="0.9886" stop-color="#F5F5F7"/>
        </linearGradient>
        <linearGradient id="paint3_linear" x1="98.4803" y1="40.0617" x2="85.2893" y2="29.8757" gradientUnits="userSpaceOnUse">
            <stop stop-color="white" stop-opacity="0"/>
            <stop offset="1" stop-color="#C2BABD"/>
        </linearGradient>
        <linearGradient id="paint4_linear" x1="96.1246" y1="36.0782" x2="100.919" y2="40.9057" gradientUnits="userSpaceOnUse">
            <stop stop-color="#CCC9C7"/>
            <stop offset="0.5959" stop-color="white"/>
            <stop offset="0.8267" stop-color="#D2CFCE"/>
            <stop offset="1" stop-color="#B4AFAE"/>
        </linearGradient>
        <clipPath id="clip0">
            <rect width="158.078" height="206.922" fill="white" transform="translate(0 40.9136) rotate(-15)"/>
        </clipPath>
    </defs>
</svg>
