<?xml version="1.0" encoding="UTF-8"?>
<svg width="18px" height="18px" viewBox="0 0 18 18" version="1.1" xmlns="http://www.w3.org/2000/svg" xmlns:xlink="http://www.w3.org/1999/xlink">
    <!-- Generator: Sketch 57.1 (83088) - https://sketch.com -->
    <title>Shape</title>
    <desc>Created with Sketch.</desc>
    <g id="Page-1" stroke="none" stroke-width="1" fill="none" fill-rule="evenodd">
        <path d="M16.2464256,1.76907623 C15.2921403,0.816585462 13.6278552,0.746229001 11.5514275,1.57372098 C10.7235707,1.90407492 9.8621425,2.38478454 9,2.95156476 C8.1378575,2.38514168 7.27642928,1.90407492 6.44857248,1.57372098 C4.37678762,0.747300419 2.71107402,0.814799765 1.75357441,1.76907623 C0.385003546,3.13477727 0.942146174,5.98296395 2.92571679,9.00007756 C0.942146174,12.0175483 0.385003546,14.8653778 1.75357441,16.2310789 C2.26714563,16.7432168 2.98500248,17 3.86214497,17 C4.61607323,17 5.48857287,16.8092876 6.44857248,16.4264341 C7.27642928,16.0960802 8.1378575,15.6153706 9,15.0485903 C9.8621425,15.6150134 10.7235707,16.0960802 11.5514275,16.4264341 C12.51107,16.8092876 13.3824982,17 14.1389265,17 C15.0146404,17 15.7328544,16.7432168 16.2464256,16.2310789 C17.6149965,14.865735 17.0578538,12.0175483 15.0742832,9.00007756 C17.0578538,5.98296395 17.6149965,3.13477727 16.2464256,1.76907623 Z M11.9778559,2.63478212 C13.5753553,1.99764544 14.8346405,1.97728849 15.4367831,2.57728268 C16.2567827,3.39477475 15.8967829,5.51725418 14.3674978,7.99044449 C13.7785695,7.21116633 13.099284,6.43045961 12.3371415,5.67010984 C11.5871418,4.92190281 10.8010707,4.26440918 10.008571,3.66727211 C10.6760707,3.25513325 11.3392848,2.88942251 11.9778559,2.63478212 Z M2.56357408,2.57728268 C2.85535967,2.28657121 3.30071663,2.14157262 3.86464497,2.14157262 C4.46535901,2.14157262 5.19928728,2.30621388 6.02250123,2.63478212 C6.66071525,2.88942251 7.3242864,3.25477611 7.99178613,3.66727211 C7.1996436,4.26440918 6.41357249,4.92190281 5.66321566,5.67010984 C4.90107312,6.43045961 4.22178768,7.21116633 3.63285935,7.99044449 C2.10357427,5.51725418 1.74357442,3.39513189 2.56357408,2.57728268 Z M6.02214408,15.365373 C4.42714474,16.0032239 3.1675024,16.023938 2.56321694,15.4228724 C1.74321727,14.6053804 2.10321712,12.4829009 3.63250221,10.0097106 C4.22143054,10.7889888 4.90071597,11.5696955 5.66285852,12.3300453 C6.41285821,13.0782523 7.19892931,13.7357459 7.99142899,14.332883 C7.32392926,14.745379 6.66035811,15.1107326 6.02214408,15.365373 Z M6.47285818,11.522196 C5.62785853,10.679347 4.91357311,9.82864095 4.31500193,9.00043469 C4.91321597,8.17222844 5.62785853,7.3215224 6.47285818,6.47867343 C7.28857213,5.66510989 8.1428575,4.95011682 9,4.33190853 C9.85678536,4.95011682 10.7114279,5.66510989 11.5271418,6.47867343 C12.3721415,7.3215224 13.0864269,8.17222844 13.6849981,9.00043469 C13.0864269,9.82864095 12.3721415,10.679347 11.5271418,11.522196 C10.7114279,12.3357595 9.8571425,13.0507526 9,13.6689609 C8.14321464,13.0507526 7.28857213,12.3354024 6.47285818,11.522196 Z M15.4364259,15.4228724 C14.833569,16.0232238 13.5739267,16.0032239 11.9774988,15.365373 C11.3392848,15.1107326 10.6757136,14.745379 10.0082139,14.332883 C10.8003564,13.7357459 11.5864275,13.0782523 12.3367843,12.3300453 C13.0989269,11.5696955 13.7782123,10.7889888 14.3671406,10.0097106 C15.8964257,12.4829009 16.2564256,14.6053804 15.4364259,15.4228724 L15.4364259,15.4228724 Z M9,7.00009694 C7.89464331,7.00009694 6.99535797,7.8972311 6.99535797,9.00007756 C6.99535797,10.102924 7.89464331,11.0000582 9,11.0000582 C10.1053567,11.0000582 11.004642,10.102924 11.004642,9.00007756 C11.004642,7.8972311 10.1053567,7.00009694 9,7.00009694 Z M9,9.8572121 C8.52535734,9.8572121 8.14107178,9.47328725 8.14107178,9.00007756 C8.14107178,8.52651072 8.52571448,8.14294301 9,8.14294301 C9.47464266,8.14294301 9.85892822,8.52651072 9.85892822,9.00007756 C9.85892822,9.47364439 9.47464266,9.8572121 9,9.8572121 Z" id="Shape" stroke="#6490F1" stroke-width="0.6" fill="#6490F1" fill-rule="nonzero"></path>
    </g>
</svg>