<?xml version="1.0" encoding="UTF-8"?>
<svg width="80px" height="80px" viewBox="0 0 80 80" version="1.1" xmlns="http://www.w3.org/2000/svg" xmlns:xlink="http://www.w3.org/1999/xlink">
    <!-- Generator: Sketch 50.2 (55047) - http://www.bohemiancoding.com/sketch -->
    <title>Icon</title>
    <desc>Created with Sketch.</desc>
    <defs>
        <linearGradient x1="50%" y1="100.845352%" x2="50%" y2="2.10398089%" id="linearGradient-1">
            <stop stop-color="#165EDB" offset="0%"></stop>
            <stop stop-color="#99B9FF" offset="100%"></stop>
        </linearGradient>
    </defs>
    <g id="Page-1" stroke="none" stroke-width="1" fill="none" fill-rule="evenodd">
        <g id="1-copy" transform="translate(-472.000000, -344.000000)">
            <g id="Icon" transform="translate(472.000000, 344.000000)">
                <g id="Content" transform="translate(0.523092, 0.523092)">
                    <g id="Left">
                        <path d="M11.627774,11.627774 C18.1063804,5.1491675 26.4524748,1.22166415 35.3024827,0.242191779 C35.9187763,0.173983645 36.7320017,0.116916287 37.742159,0.0709897041 C38.8171483,0.0221163811 39.7282196,0.853947022 39.7770937,1.92893627 C39.7772154,2.92085812 39.7756841,3.65154836 39.7745064,4.21358474 L39.7606716,10.8155806 C39.7585189,11.8422703 38.9600575,12.6911342 37.9354198,12.7560494 C36.8385386,12.8255415 35.9664768,12.9129995 35.3192345,13.0184235 C29.808626,13.916001 24.6612519,16.5052205 20.5832362,20.5832362 C11.5847878,29.5816845 10.2557955,43.345322 16.5962594,53.751324 L25.7416776,44.6059058 C26.5025953,43.844988 27.7362867,43.844988 28.4972044,44.6059058 L34.6971398,50.8058411 C35.4580575,51.5667589 35.4580575,52.8004502 34.6971398,53.561368 L20.5337322,67.7247755 C18.0607496,70.1977581 14.0512526,70.1977581 11.57827,67.7247755 C11.5344014,67.6809069 11.491311,67.6365548 11.4489987,67.5917363 C-3.87569382,52.0740949 -3.81610208,27.07165 11.627774,11.627774 Z" fill="url(#linearGradient-1)" fill-rule="nonzero"></path>
                        <path d="M11.2499149,67.370816 L10.8613061,66.9840734 C9.62152199,65.6750214 8.48787594,64.3022341 7.46036802,62.8766244 L7.46892358,62.8681099 C5.74101341,60.4778085 4.31327483,57.9385703 3.18570784,55.3021417 C4.21813598,57.414571 6.38779952,58.8717088 8.89881752,58.8717088 C10.4057047,58.8717088 11.7896592,58.3469467 12.8768666,57.4707167 L25.7416776,44.6059058 C26.5025953,43.844988 27.7362867,43.844988 28.4972044,44.6059058 L34.6971398,50.8058411 C35.4580575,51.5667589 35.4580575,52.8004502 34.6971398,53.561368 L20.5337322,67.7247755 C18.0607496,70.1977581 14.0512526,70.1977581 11.57827,67.7247755 C11.463491,67.6099965 11.3540393,67.4919076 11.2499149,67.370816 Z" fill="#6490F1"></path>
                    </g>
                    <g id="Right" transform="translate(59.427777, 44.570833) scale(-1, -1) translate(-59.427777, -44.570833) translate(39.456147, 9.742259)">
                        <path d="M11.627774,11.627774 C18.1063804,5.1491675 26.4524748,1.22166415 35.3024827,0.242191779 C35.9187763,0.173983645 36.7320017,0.116916287 37.742159,0.0709897041 C38.8171483,0.0221163811 39.7282196,0.853947022 39.7770937,1.92893627 C39.7772154,2.92085812 39.7756841,3.65154836 39.7745064,4.21358474 L39.7606716,10.8155806 C39.7585189,11.8422703 38.9600575,12.6911342 37.9354198,12.7560494 C36.8385386,12.8255415 35.9664768,12.9129995 35.3192345,13.0184235 C29.808626,13.916001 24.6612519,16.5052205 20.5832362,20.5832362 C11.5847878,29.5816845 10.2557955,43.345322 16.5962594,53.751324 L25.7416776,44.6059058 C26.5025953,43.844988 27.7362867,43.844988 28.4972044,44.6059058 L34.6971398,50.8058411 C35.4580575,51.5667589 35.4580575,52.8004502 34.6971398,53.561368 L20.5337322,67.7247755 C18.0607496,70.1977581 14.0512526,70.1977581 11.57827,67.7247755 C11.5344014,67.6809069 11.491311,67.6365548 11.4489987,67.5917363 C-3.87569382,52.0740949 -3.81610208,27.07165 11.627774,11.627774 Z" id="Left" fill="url(#linearGradient-1)" fill-rule="nonzero"></path>
                        <path d="M11.2499149,67.370816 L10.8613061,66.9840734 C9.62152199,65.6750214 8.48787594,64.3022341 7.46036802,62.8766244 L7.46892358,62.8681099 C5.74101341,60.4778085 4.31327483,57.9385703 3.18570784,55.3021417 C4.21813598,57.414571 6.38779952,58.8717088 8.89881752,58.8717088 C10.4057047,58.8717088 11.7896592,58.3469467 12.8768666,57.4707167 L25.7416776,44.6059058 C26.5025953,43.844988 27.7362867,43.844988 28.4972044,44.6059058 L34.6971398,50.8058411 C35.4580575,51.5667589 35.4580575,52.8004502 34.6971398,53.561368 L20.5337322,67.7247755 C18.0607496,70.1977581 14.0512526,70.1977581 11.57827,67.7247755 C11.463491,67.6099965 11.3540393,67.4919076 11.2499149,67.370816 Z" id="Left" fill="#6490F1"></path>
                    </g>
                </g>
            </g>
        </g>
    </g>
</svg>