<svg xmlns="http://www.w3.org/2000/svg" width="13" height="72" viewBox="0 0 13 72">
    <g fill="none" fill-rule="evenodd">
        <rect width="1.04" height="4.114" x="11.96" y="4.114" fill="#1D2028" rx=".52"/>
        <rect width="1.04" height="4.114" x="11.96" y="17.486" fill="#1D2028" rx=".52"/>
        <path fill="#6490F1" fill-opacity=".1" stroke="#1D2028" stroke-width="1.5" d="M1.6.75a.85.85 0 0 0-.85.85v68.8c0 .47.38.85.85.85h9.28c.47 0 .85-.38.85-.85V1.6a.85.85 0 0 0-.85-.85H1.6z"/>
        <rect width="5.74" height="20.071" x="3.39" y="5.409" fill="#FFF" stroke="#6490F1" stroke-width=".5" rx=".8"/>
        <path fill="#FFF" stroke="#1D2028" stroke-width="1.5" d="M6.24 31.607a5.49 5.49 0 0 0-5.49 5.49V70.4c0 .47.38.85.85.85h9.28c.47 0 .85-.38.85-.85V37.097a5.49 5.49 0 0 0-5.49-5.49z"/>
        <ellipse cx="6.24" cy="37.029" fill="#FFF" stroke="#6490F1" stroke-width=".5" rx="2.87" ry="2.836"/>
    </g>
</svg>
