<svg xmlns="http://www.w3.org/2000/svg" width="92" height="188" viewBox="0 0 92 188">
    <defs>
        <linearGradient id="a" x1="50%" x2="50%" y1="0%" y2="100%">
            <stop offset="0%"/>
            <stop offset="100%" stop-color="#FFF"/>
        </linearGradient>
    </defs>
    <g fill="none" fill-rule="evenodd">
        <path stroke="#1D2027" stroke-width="2" d="M37 120.644a1 1 0 0 0-1 1v26.225a5 5 0 0 0 5 5h8.486a5 5 0 0 0 5-5v-26.225a1 1 0 0 0-1-1H37z"/>
        <path stroke="#142533" stroke-width="2" d="M42.208 153.253v10.929h6.436v-10.93h-6.436z"/>
        <path stroke="#1D2027" stroke-width="2" d="M39.713 120.577h11.255l-.082-6.977a1 1 0 0 0-1-.988H40.619a1 1 0 0 0-.988 1.012l.082 6.953z"/>
        <path fill="url(#a)" d="M6.836 53.925h1.616v22.65H6.836v-22.65zm5.657 0h1.616v22.65h-1.616v-22.65z" transform="translate(35 111)"/>
        <g>
            <path fill="#1D2028" d="M88.556 17.556c0-1.105.671-2 1.5-2 .828 0 1.5.895 1.5 2v6c0 1.104-.672 2-1.5 2-.829 0-1.5-.896-1.5-2"/>
            <rect width="88" height="118.635" x="1" y="1" fill="#EFF3FD" stroke="#1D2027" stroke-width="2" rx="5.44"/>
            <rect width="59" height="88.615" x="15.5" y="16.5" fill="#FFF" stroke="#6490F1" rx="4.08"/>
        </g>
    </g>
</svg>
