<svg xmlns="http://www.w3.org/2000/svg" width="145" height="109" viewBox="0 0 145 109">
    <g fill="none" fill-rule="evenodd" transform="translate(-1)">
        <path fill="#6490F1" fill-opacity=".1" stroke="#142533" stroke-width="1.8" d="M29.105 104.014l19.87-84.34L4.123 35.999a2.7 2.7 0 0 0-1.573 3.566l26.556 64.449zM118.37 105.35L97.73 34.29l44.752 16.288a2.7 2.7 0 0 1 1.49 3.748L118.37 105.35z"/>
        <rect width="88.2" height="107.2" x="29.9" y=".9" fill="#FFF" stroke="#142533" stroke-width="1.8" rx="3.6"/>
        <rect width="50" height="4" x="49" y="14" fill="#6490F1" rx="2"/>
        <path fill="#6490F1" d="M83.18 91.378h24.01a1.81 1.81 0 0 1 0 3.622H83.18a1.81 1.81 0 1 1 0-3.622zm-42.37 0h24.01a1.81 1.81 0 1 1 0 3.622H40.81a1.81 1.81 0 1 1 0-3.622zm42.37-12.675h24.01a1.81 1.81 0 0 1 0 3.621H83.18a1.81 1.81 0 1 1 0-3.621zm-42.37 0h24.01a1.81 1.81 0 1 1 0 3.621H40.81a1.81 1.81 0 1 1 0-3.621zm42.37-12.676h24.01a1.81 1.81 0 0 1 0 3.622H83.18a1.81 1.81 0 1 1 0-3.622zm-42.37 0h24.01a1.81 1.81 0 1 1 0 3.622H40.81a1.81 1.81 0 1 1 0-3.622zm42.37-12.676h24.01a1.81 1.81 0 0 1 0 3.622H83.18a1.81 1.81 0 1 1 0-3.622zm-42.37 0h24.01a1.81 1.81 0 1 1 0 3.622H40.81a1.81 1.81 0 1 1 0-3.622zm42.37-12.675h24.01a1.81 1.81 0 0 1 0 3.621H83.18a1.81 1.81 0 1 1 0-3.621zm-42.37 0h24.01a1.81 1.81 0 1 1 0 3.621H40.81a1.81 1.81 0 1 1 0-3.621zM83.18 28h24.01a1.81 1.81 0 0 1 0 3.622H83.18a1.81 1.81 0 1 1 0-3.622zm-42.37 0h24.01a1.81 1.81 0 1 1 0 3.622H40.81a1.81 1.81 0 1 1 0-3.622z" opacity=".5"/>
        <path fill="#FFF" fill-rule="nonzero" stroke="#6490F1" stroke-width="2" d="M85.623 56.047a17.987 17.987 0 0 1 6.194 13.596c0 9.92-8.032 17.99-17.909 17.99-9.876 0-17.908-8.07-17.908-17.99a17.986 17.986 0 0 1 6.194-13.596v-3.281C62.194 46.278 67.447 41 73.908 41c6.462 0 11.715 5.278 11.715 11.766v3.28zM73.809 73.193zm.003-.018v4.55a.1.1 0 0 0 .096.102.1.1 0 0 0 .097-.102v-4.55a3.149 3.149 0 0 1-.006-.054l-.088-.899.885-.179a4.505 4.505 0 0 0 3.596-4.42c0-2.493-2.008-4.51-4.484-4.51-2.475 0-4.483 2.018-4.483 4.51a4.505 4.505 0 0 0 3.596 4.42l.885.18-.088.898a3.149 3.149 0 0 1-.006.054zm.196.018a.1.1 0 0 0 0 .004v-.003-.001zm0 .004v-.002zm-7.62-19.876a17.719 17.719 0 0 1 7.52-1.668c2.633 0 5.186.577 7.521 1.668v-.555c0-4.17-3.375-7.562-7.52-7.562-4.146 0-7.521 3.392-7.521 7.562v.555z"/>
    </g>
</svg>
