<?xml version="1.0" encoding="utf-8"?>
<!-- Generator: Adobe Illustrator 26.0.3, SVG Export Plug-In . SVG Version: 6.00 Build 0)  -->
<svg version="1.1" id="Layer_1" xmlns="http://www.w3.org/2000/svg" xmlns:xlink="http://www.w3.org/1999/xlink" x="0px" y="0px"
	 viewBox="0 0 224 180" style="enable-background:new 0 0 224 180;" xml:space="preserve">
<style type="text/css">
	.st0{clip-path:url(#SVGID_00000102540894560055929860000015266315219575567803_);}
	.st1{clip-path:url(#SVGID_00000065069010095008223410000004427248292948971437_);}
	.st2{fill:url(#SVGID_00000021833762260907714410000013379439019677620664_);}
	.st3{fill:url(#SVGID_00000005962988635678300930000004747876909470268804_);}
	.st4{fill:url(#SVGID_00000174560664324914813620000005752959042256588692_);}
	.st5{fill:url(#SVGID_00000154413912044503735790000005518144098323806613_);}
	.st6{fill:url(#SVGID_00000175296950754418932520000004021346144134966145_);}
	.st7{fill:url(#SVGID_00000047022952505025415410000010179170550161895060_);}
	.st8{fill:url(#SVGID_00000146464433971066599780000007561934677660788889_);}
	.st9{fill:url(#SVGID_00000145759696232718134510000006926734462448322474_);}
	.st10{fill:url(#SVGID_00000073713261177147260160000016078874764255433364_);}
	.st11{fill:url(#SVGID_00000157265942958096328470000002955735359219988112_);}
	.st12{fill:url(#SVGID_00000068673934636000885100000012531528507144141206_);}
	.st13{fill:url(#SVGID_00000113314366768997282750000002667719909060515254_);}
	.st14{fill:url(#SVGID_00000127020889239030848530000006998407711861916848_);}
	.st15{fill:url(#SVGID_00000033349032716033774370000000630896424204236975_);}
	.st16{fill:url(#SVGID_00000003786840960531255630000015345153991542741645_);}
	.st17{fill:url(#SVGID_00000064345761299429045980000016498255925031909302_);}
	.st18{fill:url(#SVGID_00000122712746731707976180000002807933717118189441_);}
	.st19{fill:url(#SVGID_00000050665087794301910320000011221895908669839276_);}
	.st20{fill:#142533;}
	.st21{fill:url(#SVGID_00000147931825174649125860000011686576069630126243_);}
	.st22{fill:url(#SVGID_00000150787475596140255910000010647651930107077561_);}
	.st23{fill:url(#SVGID_00000142855130947576413180000018080915017722038166_);}
	.st24{fill:url(#SVGID_00000052070233781985732380000003950313938898417848_);}
	.st25{fill:#FFFFFF;}
	.st26{fill:#DEE7FC;}
	.st27{fill:#77C5B7;}
	.st28{fill:url(#SVGID_00000038415585839118862750000005837163191067782018_);}
	.st29{fill:url(#SVGID_00000169534942250154955330000017111051968542638749_);}
	.st30{fill:url(#SVGID_00000161616790341832427700000011431688029479290259_);}
	.st31{fill:url(#SVGID_00000166653922965287694610000002976067002394210212_);}
	.st32{fill:url(#SVGID_00000062151457210432685310000012487103450758348690_);}
	.st33{fill:url(#SVGID_00000104670678434604198620000001992334888652055961_);}
	.st34{opacity:0.4;fill:url(#SVGID_00000052783948840029552720000006742817095010510006_);enable-background:new    ;}
	.st35{fill:url(#SVGID_00000160896837172360765440000006638923925787848120_);}
	.st36{fill:url(#SVGID_00000042015789857680676630000004357700938388514989_);}
	.st37{fill:none;}
	.st38{fill:url(#SVGID_00000072994225763670246470000007095951919158544828_);}
	.st39{fill:url(#SVGID_00000019673115679612683580000006827149706028678047_);}
	.st40{fill:url(#SVGID_00000180340554279044724120000013068152959047677080_);}
	.st41{fill:url(#SVGID_00000006708000970938918600000012616884940550453385_);}
	.st42{opacity:0.3;}
	.st43{opacity:0.3;fill:url(#SVGID_00000156581591494032945820000013910558943315427479_);enable-background:new    ;}
	.st44{opacity:0.3;fill:url(#SVGID_00000086673626735542738250000000505887015947262628_);enable-background:new    ;}
	.st45{opacity:0.3;fill:url(#SVGID_00000078018654106995289790000005192879023778021271_);enable-background:new    ;}
	.st46{opacity:0.3;fill:url(#SVGID_00000036235359978825904210000010649784308367987863_);enable-background:new    ;}
	.st47{opacity:0.3;fill:url(#SVGID_00000175304330072878033320000018080945625937461415_);enable-background:new    ;}
	.st48{fill:url(#SVGID_00000119093185571014682460000002667591064108404129_);}
</style>
<g>
	<g>
		<defs>
			<rect id="SVGID_1_" width="224" height="180"/>
		</defs>
		<clipPath id="SVGID_00000053529655470824776840000007751821125746549645_">
			<use xlink:href="#SVGID_1_"  style="overflow:visible;"/>
		</clipPath>
		<g style="clip-path:url(#SVGID_00000053529655470824776840000007751821125746549645_);">
			<g>
				<g>
					<defs>
						<rect id="SVGID_00000126284890800424491140000011465169119483020223_" x="19" y="14" width="187" height="152"/>
					</defs>
					<clipPath id="SVGID_00000021100333263081212600000010902497040151485599_">
						<use xlink:href="#SVGID_00000126284890800424491140000011465169119483020223_"  style="overflow:visible;"/>
					</clipPath>
					<g style="clip-path:url(#SVGID_00000021100333263081212600000010902497040151485599_);">
						
							<linearGradient id="SVGID_00000057143786411367287570000004448767441472909991_" gradientUnits="userSpaceOnUse" x1="45.533" y1="689.9049" x2="125.667" y2="681.0951" gradientTransform="matrix(1 0 0 1 0 -618)">
							<stop  offset="0" style="stop-color:#9FB1CC"/>
							<stop  offset="1" style="stop-color:#5E748D"/>
						</linearGradient>
						<path style="fill:url(#SVGID_00000057143786411367287570000004448767441472909991_);" d="M132,120.7l-1-0.2
							c-1-5.1-15-75.9-15.8-79.1c-0.8-3.4-3.6-4.1-3.6-4.1S44,15.9,39.3,14.3c0,0,0,0-0.1,0c0.4,0,0.9,0.1,1.4,0.3
							c4.7,1.6,72,22.8,72,22.8s2.8,0.8,3.6,4.1C117,44.9,132,120.7,132,120.7z"/>
						
							<linearGradient id="SVGID_00000003078363214799812740000017328368799840149123_" gradientUnits="userSpaceOnUse" x1="42.4204" y1="689.952" x2="124.5915" y2="680.9182" gradientTransform="matrix(1 0 0 1 0 -618)">
							<stop  offset="0" style="stop-color:#DDDCE6"/>
							<stop  offset="1" style="stop-color:#FFFFFF"/>
						</linearGradient>
						<path style="fill:url(#SVGID_00000003078363214799812740000017328368799840149123_);" d="M130.9,120.3L54.8,107
							c0,0-0.2,0-0.6,0.2c-0.4,0.2-1,0.9-1.3,2.4c0,0-0.3-0.3-0.8-1.4c-0.7-1.6-1.8-4.9-2.8-11.1c-1.7-10.4-12.8-79-12.8-79
							S36,14,39.2,14.3c0,0,0,0,0.1,0c4.7,1.6,72.2,22.9,72.2,22.9s2.8,0.8,3.6,4.1C115.9,44.7,129.9,115.2,130.9,120.3z"/>
						
							<linearGradient id="SVGID_00000043438744922148172750000018217160151905569932_" gradientUnits="userSpaceOnUse" x1="72.9737" y1="697.5058" x2="17.2553" y2="662.1445" gradientTransform="matrix(1 0 0 1 0 -618)">
							<stop  offset="0" style="stop-color:#9FB1CC"/>
							<stop  offset="1" style="stop-color:#5E748D"/>
						</linearGradient>
						<path style="fill:url(#SVGID_00000043438744922148172750000018217160151905569932_);" d="M53.3,110.5
							c-0.1,0.3-1.3-0.5-1.6-0.8c0,0-1.9-2.1-3.6-12.6c-1.7-10.5-12.9-79.3-12.9-79.3s-0.7-5.1,4-3.5c-3.2-0.2-2.7,3.8-2.7,3.8
							s11.1,68.5,12.8,79c1,6.3,2.1,9.5,2.8,11.1c0,0.1,0.4,0.8,0.8,1.5C53.1,110,53.3,110.4,53.3,110.5z"/>
						
							<linearGradient id="SVGID_00000045589219542281679720000000128305310183393705_" gradientUnits="userSpaceOnUse" x1="42.182" y1="687.7842" x2="124.0299" y2="678.7859" gradientTransform="matrix(1 0 0 1 0 -618)">
							<stop  offset="0" style="stop-color:#142533"/>
							<stop  offset="1" style="stop-color:#354249"/>
						</linearGradient>
						<path style="fill:url(#SVGID_00000045589219542281679720000000128305310183393705_);" d="M130.1,116l-79.9-14.2
							c-0.3-1.3-0.6-2.9-0.9-4.7c-1.7-10.4-12.8-79-12.8-79S36,14,39.2,14.3c0,0,0,0,0.1,0c4.7,1.6,72.2,22.9,72.2,22.9
							s2.8,0.8,3.6,4.1C115.8,44.3,126.8,99.6,130.1,116z"/>
						
							<linearGradient id="SVGID_00000003066379086055438220000003991947580362584977_" gradientUnits="userSpaceOnUse" x1="122.6652" y1="768.4926" x2="181.2742" y2="762.0496" gradientTransform="matrix(1 0 0 1 0 -618)">
							<stop  offset="0" style="stop-color:#9FB1CC"/>
							<stop  offset="1" style="stop-color:#DCE7FD"/>
						</linearGradient>
						<path style="fill:url(#SVGID_00000003066379086055438220000003991947580362584977_);" d="M124.3,146.6c0,0-0.1,0-0.1-0.1
							l-1.6,3.4c0.5,0.2,0.9,0.5,1.3,0.7c2.7,1.4,5.9,2.2,11.5,3.2c0.1,0,0.1,0,0.2,0c0.1,0,0.2,0,0.4,0.1l0.1-1.7l0.1-1.7
							C129.4,149.3,127,148.2,124.3,146.6z M170.4,155.1l-3.9-0.5l-1.5-0.2l-1.5-0.2l-2.6-0.3c0,0-0.3,2,1.6,2.2
							c2,0.2,11.3,1.3,11.3,1.3s1.7,0.2,1.7-1.7L170.4,155.1z M157.7,141.5l-30.2-4.1l25.5,14.5l29.5,3.3L157.7,141.5z"/>
						
							<linearGradient id="SVGID_00000103981551120638715770000008299576220208770480_" gradientUnits="userSpaceOnUse" x1="113.3145" y1="775.2288" x2="143.0426" y2="731.8568" gradientTransform="matrix(1 0 0 1 0 -618)">
							<stop  offset="0" style="stop-color:#8598B6"/>
							<stop  offset="0.2145" style="stop-color:#94A5BF"/>
							<stop  offset="0.622" style="stop-color:#B9C7D7"/>
							<stop  offset="0.8916" style="stop-color:#D6E1E9"/>
						</linearGradient>
						<path style="fill:url(#SVGID_00000103981551120638715770000008299576220208770480_);" d="M139.4,123.3c0,0-3.1-1.8-8.4-2.8
							l-76.7-13.3l-0.7-0.1c5.8,3.2,15.2,8.3,25.4,14l0,0c14.9,8.2,33.5,18.5,43.7,24.6c0.2,0.1,0.4,0.2,0.6,0.4
							c0.1,0.1,0.3,0.2,0.4,0.3l0,0c0.2,0.1,0.3,0.2,0.5,0.3c0,0,0.1,0,0.1,0.1c2.7,1.6,5.1,2.7,11.9,4c0,0,0.1,0,0.2,0
							c3.3,0.6,13.1,1.9,24.5,3.3l2.6,0.3l1.5,0.2l1.5,0.2l3.9,0.5l5.1,0.6c13.8,1.7,26.6,3.2,29.9,3.5h0.1h0.1c0.1,0,0.2,0,0.3,0
							l0,0L139.4,123.3z M152.9,152l-25.5-14.5l30.2,4.1l24.8,13.8L152.9,152z"/>
						
							<linearGradient id="SVGID_00000058565287361214177610000014728557917673776314_" gradientUnits="userSpaceOnUse" x1="134.5497" y1="762.14" x2="107.6037" y2="752.435" gradientTransform="matrix(1 0 0 1 0 -618)">
							<stop  offset="0" style="stop-color:#9FB1CC"/>
							<stop  offset="1" style="stop-color:#DCE7FD"/>
						</linearGradient>
						<path style="fill:url(#SVGID_00000058565287361214177610000014728557917673776314_);" d="M206,159.3c-0.8,4.4-4.6,3-4.6,3
							s-57.9-7.1-65.4-8.3c-0.1,0-0.3,0-0.4-0.1c-0.1,0-0.1,0-0.2,0c-5.6-1-8.8-1.8-11.5-3.2c-0.4-0.2-0.9-0.5-1.3-0.7l1.6-3.4
							c0,0,0.1,0,0.1,0.1c2.7,1.6,5.1,2.7,11.9,4c0,0,0.1,0,0.2,0c3.3,0.6,13.1,1.9,24.5,3.3c0,0-0.3,2,1.6,2.2
							c2,0.2,11.3,1.3,11.3,1.3s1.7,0.2,1.7-1.7c13.8,1.7,26.6,3.2,29.9,3.5h0.1h0.1C205.8,159.3,205.9,159.3,206,159.3L206,159.3z"
							/>
						
							<linearGradient id="SVGID_00000072271141661301658220000004091783654122617729_" gradientUnits="userSpaceOnUse" x1="92.9351" y1="749.2995" x2="39.062" y2="715.1099" gradientTransform="matrix(1 0 0 1 0 -618)">
							<stop  offset="0" style="stop-color:#9FB1CC"/>
							<stop  offset="1" style="stop-color:#5E748D"/>
						</linearGradient>
						<path style="fill:url(#SVGID_00000072271141661301658220000004091783654122617729_);" d="M124.2,146.6l-1.6,3.4
							c0,0-0.1,0-0.1-0.1c-17.8-9.4-64.8-36.7-67.1-37.9c-1.1-0.6-1.7-1.1-2-1.5c0-0.1-0.1-0.4-0.4-0.8c-0.4-0.6-0.8-1.4-0.8-1.5
							c0.6-1.1,1.4-1.1,1.4-1.1c5.8,3.2,59,32.5,69.1,38.6c0.2,0.1,0.4,0.2,0.6,0.4c0.1,0.1,0.3,0.2,0.4,0.3l0,0
							C123.9,146.4,124.1,146.5,124.2,146.6z"/>
						
							<linearGradient id="SVGID_00000047057545622835306110000004595675597737109930_" gradientUnits="userSpaceOnUse" x1="168.2322" y1="772.6702" x2="167.9202" y2="774.8652" gradientTransform="matrix(1 0 0 1 0 -618)">
							<stop  offset="0" style="stop-color:#9FB1CC"/>
							<stop  offset="1" style="stop-color:#DCE7FD"/>
						</linearGradient>
						<path style="fill:url(#SVGID_00000047057545622835306110000004595675597737109930_);" d="M175.5,155.7c0,1.9-1.7,1.7-1.7,1.7
							s-9.4-1.1-11.3-1.3c-2-0.2-1.6-2.2-1.6-2.2l2.6,0.3l1.5,0.2l1.5,0.2l3.9,0.5L175.5,155.7z"/>
						
							<linearGradient id="SVGID_00000148659156853074231840000015999673445040752061_" gradientUnits="userSpaceOnUse" x1="138.0707" y1="772.0053" x2="121.2826" y2="765.0603" gradientTransform="matrix(1 0 0 1 0 -618)">
							<stop  offset="0" style="stop-color:#FFFFFF;stop-opacity:0"/>
							<stop  offset="1" style="stop-color:#DCE7FD;stop-opacity:0.3"/>
						</linearGradient>
						<path style="fill:url(#SVGID_00000148659156853074231840000015999673445040752061_);" d="M136.2,150.6l-0.1,1.7L136,154
							c-0.1,0-0.3,0-0.4-0.1c-0.1,0-0.1,0-0.2,0c-5.6-1-8.8-1.8-11.5-3.2c-0.4-0.2-0.9-0.5-1.3-0.7l1.6-3.4c0,0,0.1,0,0.1,0.1
							C127,148.2,129.4,149.3,136.2,150.6z"/>
						
							<linearGradient id="SVGID_00000113319252624759977040000006019976114571919800_" gradientUnits="userSpaceOnUse" x1="60.1614" y1="731.865" x2="63.2541" y2="731.525" gradientTransform="matrix(1 0 0 1 0 -618)">
							<stop  offset="0" style="stop-color:#142533"/>
							<stop  offset="1" style="stop-color:#354249"/>
						</linearGradient>
						<path style="fill:url(#SVGID_00000113319252624759977040000006019976114571919800_);" d="M62.7,114.8l-2.5-1.4
							c-0.1-0.1-0.1-0.2-0.1-0.3l0.2-0.4c0.1-0.1,0.2-0.1,0.3-0.1l2.5,1.4c0.1,0.1,0.1,0.2,0.1,0.3l-0.2,0.4
							C63,114.8,62.8,114.8,62.7,114.8z"/>
						
							<linearGradient id="SVGID_00000158006280193327195390000008738975517294286515_" gradientUnits="userSpaceOnUse" x1="65.6922" y1="734.9935" x2="68.7849" y2="734.6535" gradientTransform="matrix(1 0 0 1 0 -618)">
							<stop  offset="0" style="stop-color:#142533"/>
							<stop  offset="1" style="stop-color:#354249"/>
						</linearGradient>
						<path style="fill:url(#SVGID_00000158006280193327195390000008738975517294286515_);" d="M68.3,117.9l-2.5-1.4
							c-0.1-0.1-0.1-0.2-0.1-0.3l0.2-0.4c0.1-0.1,0.2-0.1,0.3-0.1l2.5,1.4c0.1,0.1,0.1,0.2,0.1,0.3l-0.2,0.4
							C68.5,117.9,68.4,118,68.3,117.9z"/>
						
							<linearGradient id="SVGID_00000174602809495539691970000008343397186522853534_" gradientUnits="userSpaceOnUse" x1="73.5114" y1="751.3049" x2="167.2886" y2="740.9951" gradientTransform="matrix(1 0 0 1 0 -618)">
							<stop  offset="0" style="stop-color:#142533"/>
							<stop  offset="1" style="stop-color:#354249"/>
						</linearGradient>
						<path style="fill:url(#SVGID_00000174602809495539691970000008343397186522853534_);" d="M71.4,114.1l32.6,19l65.4,9.1
							l-32.5-17.5L71.4,114.1z"/>
						
							<linearGradient id="SVGID_00000070091372689058858070000004693799924426831267_" gradientUnits="userSpaceOnUse" x1="62.3551" y1="723.3578" x2="97.7453" y2="657.4758" gradientTransform="matrix(1 0 0 1 0 -618)">
							<stop  offset="0" style="stop-color:#EAEAEF"/>
							<stop  offset="0.162" style="stop-color:#F1F1F4"/>
							<stop  offset="0.5529" style="stop-color:#FCFCFC"/>
							<stop  offset="1" style="stop-color:#FFFFFF"/>
						</linearGradient>
						<path style="fill:url(#SVGID_00000070091372689058858070000004693799924426831267_);" d="M40.5,20.5L52,96.3l75.3,13.7
							l-13-66.8L40.5,20.5z"/>
						
							<linearGradient id="SVGID_00000127750769696269049080000006535155877329514136_" gradientUnits="userSpaceOnUse" x1="171.8355" y1="743.7346" x2="144.9725" y2="776.7086" gradientTransform="matrix(1 0 0 1 0 -618)">
							<stop  offset="0.3109" style="stop-color:#FFFFFF"/>
							<stop  offset="1" style="stop-color:#C0D2E1"/>
						</linearGradient>
						<path style="fill:url(#SVGID_00000127750769696269049080000006535155877329514136_);" d="M182.5,155.3L153,152l-25.5-14.5
							l30.3,4.1L182.5,155.3z"/>
						
							<linearGradient id="SVGID_00000047023837784788063290000013763058879640402051_" gradientUnits="userSpaceOnUse" x1="89.3066" y1="739.9356" x2="86.7489" y2="759.9176" gradientTransform="matrix(1 0 0 1 0 -618)">
							<stop  offset="0" style="stop-color:#142533"/>
							<stop  offset="1" style="stop-color:#354249"/>
						</linearGradient>
						<path style="fill:url(#SVGID_00000047023837784788063290000013763058879640402051_);" d="M131,120.5l-2.5-0.4l-0.3,0.5
							l-63.7-11.3l-1.6-0.6l-8.6-1.5l-0.7-0.1c0,0-0.8,0-1.4,1.1c-0.5-1.1-1.2-3.1-1.9-6.4l79.9,14.2c0.4,2.2,0.7,3.7,0.9,4.3
							C131,120.5,131,120.5,131,120.5z"/>
						
							<linearGradient id="SVGID_00000172429538618508159690000010166786465459581363_" gradientUnits="userSpaceOnUse" x1="135.6277" y1="770.2617" x2="111.0047" y2="762.7589" gradientTransform="matrix(1 0 0 1 0 -618)">
							<stop  offset="0" style="stop-color:#9FB1CC"/>
							<stop  offset="0.4733" style="stop-color:#A1B3CE"/>
							<stop  offset="0.6587" style="stop-color:#A8B9D3"/>
							<stop  offset="0.7935" style="stop-color:#B4C4DD"/>
							<stop  offset="0.9032" style="stop-color:#C5D3EB"/>
							<stop  offset="0.9976" style="stop-color:#DBE6FC"/>
							<stop  offset="1" style="stop-color:#DCE7FD"/>
						</linearGradient>
						<path style="fill:url(#SVGID_00000172429538618508159690000010166786465459581363_);" d="M136.4,150.6c0,0.6-0.1,1.1-0.3,1.7
							c-0.2,0.6-0.4,1.1-0.7,1.6c-5.6-1-8.8-1.8-11.5-3.2c-0.4-0.2-0.9-0.5-1.3-0.7c0,0-0.1,0-0.1-0.1c0.1-1.3,0.6-2.6,1.3-3.6
							c0.2,0.1,0.3,0.2,0.5,0.3c0,0,0.1,0,0.1,0.1c2.7,1.6,5.1,2.7,11.9,4C136.2,150.6,136.3,150.6,136.4,150.6z"/>
						
							<linearGradient id="SVGID_00000002345884574863101140000016792678605428466566_" gradientUnits="userSpaceOnUse" x1="116.1319" y1="756.626" x2="121.9439" y2="742.022" gradientTransform="matrix(1 0 0 1 0 -618)">
							<stop  offset="0" style="stop-color:#142533"/>
							<stop  offset="1" style="stop-color:#354249"/>
						</linearGradient>
						<path style="fill:url(#SVGID_00000002345884574863101140000016792678605428466566_);" d="M71.5,113.6l32.6,19l65.4,9.1
							L137,124.1L71.5,113.6z"/>
						<path class="st20" d="M71.5,113.6l-0.1,0.5l32.6,19v-0.5L71.5,113.6z"/>
						<path class="st20" d="M169.5,141.6v0.5l-65.4-9.1v-0.5L169.5,141.6z"/>
						
							<linearGradient id="SVGID_00000067932643786045782180000005969371308544632454_" gradientUnits="userSpaceOnUse" x1="86.2978" y1="677.9395" x2="45.866" y2="676.2986" gradientTransform="matrix(1 0 0 1 0 -618)">
							<stop  offset="0" style="stop-color:#FFFFFF;stop-opacity:0.1"/>
							<stop  offset="1" style="stop-color:#FFFFFF;stop-opacity:0"/>
						</linearGradient>
						<path style="fill:url(#SVGID_00000067932643786045782180000005969371308544632454_);" d="M79,53C79,53,79,53.1,79,53
							c0,0.3-0.1,0.5-0.3,0.7L54.9,72.2L59,54.5L70,46c0.4-0.3,1.1-0.3,1.5,0l7.3,6.5C78.9,52.6,79,52.8,79,53z"/>
						
							<linearGradient id="SVGID_00000183216227865371106300000010530579522150662313_" gradientUnits="userSpaceOnUse" x1="61.9783" y1="732.9028" x2="59.3453" y2="730.6719" gradientTransform="matrix(1 0 0 1 0 -618)">
							<stop  offset="0" style="stop-color:#687B99"/>
							<stop  offset="0.1381" style="stop-color:#5F738F"/>
							<stop  offset="0.6786" style="stop-color:#41576B"/>
							<stop  offset="0.9671" style="stop-color:#364C5D"/>
						</linearGradient>
						<path style="fill:url(#SVGID_00000183216227865371106300000010530579522150662313_);" d="M62.8,113.9c0,0-0.4,0.1-0.8,0.3
							c-0.3,0.1-0.6,0.2-0.9,0.3c-0.2,0-0.4,0.1-0.5,0.1s-0.3-0.1-0.6-0.2c-0.2-0.1-0.5-0.3-0.8-0.4c-0.4-0.2-0.9-0.4-0.8-0.5
							c0.5-0.4,2.2-0.7,2.2-0.7L62.8,113.9z"/>
						
							<linearGradient id="SVGID_00000101100909300447458050000007348831625818231939_" gradientUnits="userSpaceOnUse" x1="62.1867" y1="733.41" x2="59.1874" y2="730.868" gradientTransform="matrix(1 0 0 1 0 -618)">
							<stop  offset="0" style="stop-color:#142533"/>
							<stop  offset="1" style="stop-color:#354249"/>
						</linearGradient>
						<path style="fill:url(#SVGID_00000101100909300447458050000007348831625818231939_);" d="M62.8,113.9v0.8c0,0-1.7,0.7-2.1,0.7
							c-0.5,0-2.1-1-2.1-1v-0.8c0,0,0,0.1,0.8,0.5c0.2,0.1,0.5,0.3,0.8,0.4c0.2,0.1,0.4,0.2,0.6,0.2c0.1,0,0.3,0,0.5-0.1
							c0.3-0.1,0.6-0.2,0.9-0.3C62.5,114,62.8,113.9,62.8,113.9z"/>
						
							<linearGradient id="SVGID_00000149348204421426481120000014141757273826576518_" gradientUnits="userSpaceOnUse" x1="110.4695" y1="675.9343" x2="110.4745" y2="675.9447" gradientTransform="matrix(1 0 0 1 0 -618)">
							<stop  offset="0" style="stop-color:#3DB39A"/>
							<stop  offset="1" style="stop-color:#28807A"/>
						</linearGradient>
						<path style="fill:url(#SVGID_00000149348204421426481120000014141757273826576518_);" d="M110.5,57.9
							C110.4,57.9,110.4,58,110.5,57.9L110.5,57.9z"/>
						<path class="st25" d="M19.4,70.1c-0.2,0-0.3-0.1-0.4-0.3c0-0.1-0.3-3.3,1.2-7.8c1.4-4.2,4.8-10.3,12.6-16
							c0.2-0.1,0.4-0.1,0.5,0.1c0.1,0.2,0.1,0.4-0.1,0.5c-7.7,5.5-11,11.5-12.4,15.6c-1.5,4.4-1.2,7.5-1.2,7.5
							C19.8,69.9,19.6,70.1,19.4,70.1L19.4,70.1z"/>
						<path class="st25" d="M52.3,103.4c-3,0-5.2-2.4-5.2-2.5c-0.1-0.1-0.1-0.4,0-0.5s0.4-0.1,0.5,0c0,0,0.9,1,2.4,1.7
							c1.8,0.8,3.7,0.7,5.4-0.5c0.2-0.1,0.4-0.1,0.5,0.1s0.1,0.4-0.1,0.5C54.6,103.1,53.4,103.4,52.3,103.4z"/>
						<path class="st26" d="M107.4,72.7c0,0.4-0.2,0.7-0.5,0.7l-4-0.8l-0.4-0.1l-6-1.3l-1-0.2l-0.4-0.1l-6.9-1.5l-0.4-0.1l-6.9-1.5
							l-0.4-0.1l-6.9-1.5l-0.4-0.1L70,65.4c-0.3-0.1-0.6-0.5-0.7-1v-0.1c0-0.4,0.2-0.7,0.5-0.7l3.4,0.7l0.4,0.1l6.9,1.5l0.4,0.1
							l6.9,1.5l0.4,0.1l6.9,1.5l0.4,0.1l0.8,0.2l6.1,1.3l0.4,0.1l3.8,0.8C106.9,71.7,107.2,72.1,107.4,72.7
							C107.4,72.6,107.4,72.7,107.4,72.7z"/>
						<path class="st27" d="M97,70.5c0,0.4-0.2,0.7-0.5,0.7l-1-0.2l-0.4-0.1l-6.9-1.5l-0.4-0.1l-6.9-1.5l-0.4-0.1l-6.9-1.5l-0.4-0.1
							L70,65.4l-10.7-2.3c-0.3-0.1-0.6-0.5-0.7-1V62c0-0.4,0.2-0.7,0.5-0.7l10.7,2.3l3.4,0.7l0.4,0.1l6.9,1.5l0.4,0.1l6.9,1.5
							l0.4,0.1l6.9,1.5l0.4,0.1l0.8,0.2C96.6,69.4,96.9,69.9,97,70.5C97,70.4,97,70.4,97,70.5z"/>
						<path class="st25" d="M102.8,70.7v1.8l-0.4-0.1v-1.8L102.8,70.7z"/>
						<path class="st25" d="M95.5,69.2V71l-0.4-0.1v-1.8L95.5,69.2z"/>
						<path class="st25" d="M88.2,67.6v1.8l-0.4-0.1v-1.8L88.2,67.6z"/>
						<path class="st25" d="M80.9,66v1.8l-0.4-0.1V66H80.9z"/>
						<path class="st25" d="M73.6,64.5v1.8l-0.4-0.1v-1.8L73.6,64.5z"/>
						
							<linearGradient id="SVGID_00000133515360250845215550000007516210582160323743_" gradientUnits="userSpaceOnUse" x1="41.1781" y1="712.551" x2="35.1348" y2="680.7964" gradientTransform="matrix(1 0 0 1 0 -618)">
							<stop  offset="0" style="stop-color:#7C889D"/>
							<stop  offset="0.1864" style="stop-color:#929EB0"/>
							<stop  offset="0.5363" style="stop-color:#B7C2CF"/>
							<stop  offset="0.82" style="stop-color:#CED9E2"/>
							<stop  offset="1" style="stop-color:#D6E1E9"/>
						</linearGradient>
						<path style="fill:url(#SVGID_00000133515360250845215550000007516210582160323743_);" d="M49,78.2C43,82.6,26.4,96,25.9,96.4
							c-0.2,0.2-0.5,0.2-0.7,0.3l-0.3-2.8l0.2-0.1L43.8,79l9.8-5.1C53.6,73.7,54.3,74.1,49,78.2z"/>
						
							<linearGradient id="SVGID_00000061445663235159885240000013548002639741664428_" gradientUnits="userSpaceOnUse" x1="58.7078" y1="678.7231" x2="56.4556" y2="656.1779" gradientTransform="matrix(1 0 0 1 0 -618)">
							<stop  offset="0" style="stop-color:#28394C"/>
							<stop  offset="0.7981" style="stop-color:#5F7398"/>
						</linearGradient>
						<path style="fill:url(#SVGID_00000061445663235159885240000013548002639741664428_);" d="M78.1,52.3L78,54.8
							c0,0.2-0.1,0.5-0.3,0.7L45.8,80.1c-0.3,0.3-0.8,0.1-1-0.2l-4.9-6.3c-0.3-0.3-0.2-0.8,0.1-1.1l0.8-0.6l4.2,5.4
							c0.3,0.3,0.8,0.4,1.1,0.1l31.8-24.6C78,52.6,78.1,52.5,78.1,52.3z"/>
						
							<linearGradient id="SVGID_00000160161127028891167190000006284237647411048112_" gradientUnits="userSpaceOnUse" x1="63.802" y1="665.8091" x2="54.0819" y2="692.8225" gradientTransform="matrix(1 0 0 1 0 -618)">
							<stop  offset="0" style="stop-color:#475B80"/>
							<stop  offset="0.6559" style="stop-color:#2C3D51"/>
							<stop  offset="1" style="stop-color:#21313E"/>
						</linearGradient>
						<path style="fill:url(#SVGID_00000160161127028891167190000006284237647411048112_);" d="M72.9,47.9l4.2,5.4L44.8,78.4
							c-0.3,0.3-0.9,0.2-1.1-0.1l-4.2-5.4l32.3-25.1C72.1,47.5,72.6,47.6,72.9,47.9z"/>
						
							<linearGradient id="SVGID_00000043424904961584145610000017100081153841048458_" gradientUnits="userSpaceOnUse" x1="63.737" y1="664.7053" x2="53.7552" y2="692.4457" gradientTransform="matrix(1 0 0 1 0 -618)">
							<stop  offset="0" style="stop-color:#687B99"/>
							<stop  offset="0.1381" style="stop-color:#5F738F"/>
							<stop  offset="0.6786" style="stop-color:#41576B"/>
							<stop  offset="0.9671" style="stop-color:#364C5D"/>
						</linearGradient>
						<path style="fill:url(#SVGID_00000043424904961584145610000017100081153841048458_);" d="M78.1,52.2L78.1,52.2
							c0,0.3-0.1,0.4-0.3,0.6l-33,25.6c-0.3,0.3-0.9,0.2-1.2,0L38.7,72c-0.3-0.3-0.3-0.8,0-1l31.8-24.7c0.3-0.3,0.9-0.2,1.2,0
							l6.1,5.4C78,51.8,78.1,52,78.1,52.2z"/>
						
							<linearGradient id="SVGID_00000020374946138532401880000000164223491763418557_" gradientUnits="userSpaceOnUse" x1="49.307" y1="694.2346" x2="49.2175" y2="694.3672" gradientTransform="matrix(1 0 0 1 0 -618)">
							<stop  offset="0" style="stop-color:#475B80"/>
							<stop  offset="0.6559" style="stop-color:#2C3D51"/>
							<stop  offset="1" style="stop-color:#21313E"/>
						</linearGradient>
						<path style="fill:url(#SVGID_00000020374946138532401880000000164223491763418557_);" d="M49.3,76.2
							C49.3,76.2,49.3,76.3,49.3,76.2C49.3,76.3,49.2,76.3,49.3,76.2C49.3,76.3,49.3,76.3,49.3,76.2L49.3,76.2z"/>
						
							<linearGradient id="SVGID_00000122719375117516406480000012089038549918969782_" gradientUnits="userSpaceOnUse" x1="17.2647" y1="690.4686" x2="71.8067" y2="712.9224" gradientTransform="matrix(1 0 0 1 0 -618)">
							<stop  offset="7.712440e-02" style="stop-color:#FFFFFF"/>
							<stop  offset="1" style="stop-color:#C0D2E1"/>
						</linearGradient>
						<path style="fill:url(#SVGID_00000122719375117516406480000012089038549918969782_);" d="M50.3,72.9c-0.4,0.6-0.9,1.1-1.4,1.5
							l-5.2,4L25,93.2l-2.1,1.7c0,0-0.1,0.1-0.2,0.1c-0.2,0-0.3-0.1-0.4-0.2v-0.1l-2.7-7.6V87c-0.1-0.4,0-0.9,0.3-1.1l22.8-18
							c2.5-2.2,5-3.7,7.1-2.3l0,0c0.8,0.6,1.4,1.5,1.6,2.5C51.7,69.5,51.3,71.3,50.3,72.9z"/>
						
							<linearGradient id="SVGID_00000170992769788462196370000002071115628764868741_" gradientUnits="userSpaceOnUse" x1="23.8159" y1="697.4384" x2="50.925" y2="699.4729" gradientTransform="matrix(1 0 0 1 0 -618)">
							<stop  offset="0" style="stop-color:#475B80"/>
							<stop  offset="0.6559" style="stop-color:#2C3D51"/>
							<stop  offset="1" style="stop-color:#21313E"/>
						</linearGradient>
						
							<path style="opacity:0.4;fill:url(#SVGID_00000170992769788462196370000002071115628764868741_);enable-background:new    ;" d="
							M49.3,74.7l-2.4,1.8l-2.8,2.2L25.4,93.5l-2.1,1.7c-0.2,0.1-0.5,0.1-0.6-0.1c0.1,0,0.1,0,0.2-0.1l2.1-1.7l18.7-14.8l2.6-2
							l2.6-2c0.5-0.4,1-0.9,1.4-1.5c1.1-1.6,1.5-3.4,1.1-5c-0.2-1-0.7-1.9-1.6-2.5c0.1,0.1,0.2,0.1,0.4,0.2c0.9,0.6,1.4,1.8,1.5,2.5
							C52.3,71.6,50.3,73.9,49.3,74.7z"/>
						
							<linearGradient id="SVGID_00000084494320943423918320000009501003625590809487_" gradientUnits="userSpaceOnUse" x1="38.2379" y1="701.2521" x2="37.9258" y2="700.8547" gradientTransform="matrix(1 0 0 1 0 -618)">
							<stop  offset="0" style="stop-color:#8598B6"/>
							<stop  offset="0.1225" style="stop-color:#92A4BE"/>
							<stop  offset="0.5" style="stop-color:#B7C5D6"/>
							<stop  offset="0.8059" style="stop-color:#CEDAE4"/>
							<stop  offset="1" style="stop-color:#D6E1E9"/>
						</linearGradient>
						<path style="fill:url(#SVGID_00000084494320943423918320000009501003625590809487_);" d="M50.3,73.3c-0.4,0.6-0.9,1.1-1.4,1.5
							l-4.6,3.6l-0.6,0.4L25.1,93.7l-0.2,0.1l-2,1.5c-0.1,0.1-0.2,0.1-0.4,0c-0.1-0.1-0.2-0.2-0.2-0.3l-0.1-0.2l-2.6-7.5
							c0-0.1,0-0.2,0-0.3l2.7,7.6v0.1c0.1,0.2,0.4,0.3,0.6,0.2l2.1-1.7l18.7-14.8l5.2-4c0.5-0.4,1-0.9,1.4-1.5
							c1.1-1.6,1.5-3.4,1.1-5C51.9,69.5,51.5,71.6,50.3,73.3z"/>
						
							<linearGradient id="SVGID_00000047754700372938496370000001920892937055955851_" gradientUnits="userSpaceOnUse" x1="25.5902" y1="711.8014" x2="22.2721" y2="716.1176" gradientTransform="matrix(1 0 0 1 0 -618)">
							<stop  offset="0" style="stop-color:#8598B6"/>
							<stop  offset="0.3943" style="stop-color:#66799B"/>
							<stop  offset="0.7649" style="stop-color:#4F6387"/>
							<stop  offset="1" style="stop-color:#475B80"/>
						</linearGradient>
						<path style="fill:url(#SVGID_00000047754700372938496370000001920892937055955851_);" d="M25.2,96.6c-0.2,0-0.4,0-0.4,0
							s-1.7-0.7-2.2-1.2l0,0c0.1,0,0.3,0,0.4,0l2-1.5L25.2,96.6z"/>
						<rect x="42.9" y="66.6" class="st37" width="6.6" height="7.3"/>
						
							<linearGradient id="SVGID_00000070081136330558964520000018063726402756112031_" gradientUnits="userSpaceOnUse" x1="28.8156" y1="696.8956" x2="57.249" y2="682.7957" gradientTransform="matrix(1 0 0 1 0 -618)">
							<stop  offset="7.712440e-02" style="stop-color:#FFFFFF"/>
							<stop  offset="1" style="stop-color:#C0D2E1"/>
						</linearGradient>
						<path style="fill:url(#SVGID_00000070081136330558964520000018063726402756112031_);" d="M48.4,71.8c-1.1,1.5-2.9,2.1-4.1,1.2
							c-1.2-0.8-1.2-2.7-0.2-4.3c1.1-1.5,2.9-2.1,4.1-1.2C49.4,68.3,49.5,70.3,48.4,71.8z"/>
						
							<linearGradient id="SVGID_00000093873147450384533800000000148593365751328650_" gradientUnits="userSpaceOnUse" x1="67.9496" y1="666.7708" x2="73.2694" y2="673.6249" gradientTransform="matrix(1 0 0 1 0 -618)">
							<stop  offset="0" style="stop-color:#28394C"/>
							<stop  offset="0.7981" style="stop-color:#5F7398"/>
						</linearGradient>
						<path style="fill:url(#SVGID_00000093873147450384533800000000148593365751328650_);" d="M72.1,54.7c-1.6,0.9-3.6,0.5-4.4-0.8
							c-0.8-1.4-0.2-3.2,1.5-4.1c1.6-0.9,3.6-0.5,4.4,0.8C74.3,52,73.7,53.8,72.1,54.7z"/>
						
							<linearGradient id="SVGID_00000093860454846429986560000017221840367359191942_" gradientUnits="userSpaceOnUse" x1="75.1848" y1="676.0747" x2="60.814" y2="657.9821" gradientTransform="matrix(1 0 0 1 0 -618)">
							<stop  offset="0" style="stop-color:#687B99"/>
							<stop  offset="0.3512" style="stop-color:#51657D"/>
							<stop  offset="0.731" style="stop-color:#3D5366"/>
							<stop  offset="0.9671" style="stop-color:#364C5D"/>
						</linearGradient>
						<path style="fill:url(#SVGID_00000093860454846429986560000017221840367359191942_);" d="M69.2,50c-1.5,0.8-2.1,2.5-1.3,3.7
							c0.7,1.2,2.5,1.6,4,0.8s2.1-2.5,1.3-3.7C72.5,49.5,70.7,49.2,69.2,50z"/>
						
							<linearGradient id="SVGID_00000093154251827605729900000010075516921830384826_" gradientUnits="userSpaceOnUse" x1="78.3501" y1="710.9471" x2="54.1476" y2="690.4379" gradientTransform="matrix(1 0 0 1 0 -618)">
							<stop  offset="0" style="stop-color:#687B99"/>
							<stop  offset="0.1381" style="stop-color:#5F738F"/>
							<stop  offset="0.6786" style="stop-color:#41576B"/>
							<stop  offset="0.9671" style="stop-color:#364C5D"/>
						</linearGradient>
						<path style="fill:url(#SVGID_00000093154251827605729900000010075516921830384826_);" d="M53.1,115.5c-1.1,0-2.2,0-3.4-0.1
							c-7-0.6-11.6-3.1-13.6-7.2c-4-8.6,12.2-21,27.8-33c12.6-9.6,25.6-19.6,23.4-25c-0.5-1.3-1.4-2.2-2.6-2.6
							c-3.8-1.4-9.6,1.8-9.6,1.8l-0.8-0.7c0.3-0.1,6.6-3.4,10.7-1.9c1.4,0.5,2.5,1.6,3,3.1c2.3,6-10.3,15.7-23.7,26
							c-14.7,11.2-31.3,24-27.6,32c4.4,9.4,22,6.6,22.1,6.5c0,0,0.9,0.1,0.8,0.5C59.8,115,56.8,115.5,53.1,115.5z"/>
						<g class="st42">
							
								<linearGradient id="SVGID_00000000185760054574220220000014850100486459377818_" gradientUnits="userSpaceOnUse" x1="125.0404" y1="763.2067" x2="190.6084" y2="709.2913" gradientTransform="matrix(1 0 0 1 0 -618)">
								<stop  offset="0" style="stop-color:#90B0FF"/>
								<stop  offset="0.174" style="stop-color:#89ABFD"/>
								<stop  offset="0.4326" style="stop-color:#759DF7"/>
								<stop  offset="0.7421" style="stop-color:#5487EE"/>
								<stop  offset="1" style="stop-color:#3370E4"/>
							</linearGradient>
							
								<path style="opacity:0.3;fill:url(#SVGID_00000000185760054574220220000014850100486459377818_);enable-background:new    ;" d="
								M163.2,113.5h-3.7v3.7h3.7V113.5z"/>
							
								<linearGradient id="SVGID_00000008130639006854324930000015052842660994824886_" gradientUnits="userSpaceOnUse" x1="121.9006" y1="759.3878" x2="187.4696" y2="705.4727" gradientTransform="matrix(1 0 0 1 0 -618)">
								<stop  offset="0" style="stop-color:#90B0FF"/>
								<stop  offset="0.174" style="stop-color:#89ABFD"/>
								<stop  offset="0.4326" style="stop-color:#759DF7"/>
								<stop  offset="0.7421" style="stop-color:#5487EE"/>
								<stop  offset="1" style="stop-color:#3370E4"/>
							</linearGradient>
							
								<path style="opacity:0.3;fill:url(#SVGID_00000008130639006854324930000015052842660994824886_);enable-background:new    ;" d="
								M163.2,107.1h-3.7v3.7h3.7V107.1z"/>
							
								<linearGradient id="SVGID_00000045600717180500420740000013160124369605963417_" gradientUnits="userSpaceOnUse" x1="118.7607" y1="755.5698" x2="184.3297" y2="701.6546" gradientTransform="matrix(1 0 0 1 0 -618)">
								<stop  offset="0" style="stop-color:#90B0FF"/>
								<stop  offset="0.174" style="stop-color:#89ABFD"/>
								<stop  offset="0.4326" style="stop-color:#759DF7"/>
								<stop  offset="0.7421" style="stop-color:#5487EE"/>
								<stop  offset="1" style="stop-color:#3370E4"/>
							</linearGradient>
							
								<path style="opacity:0.3;fill:url(#SVGID_00000045600717180500420740000013160124369605963417_);enable-background:new    ;" d="
								M163.2,100.7h-3.7v3.7h3.7V100.7z"/>
						</g>
						<g class="st42">
							
								<linearGradient id="SVGID_00000058567275950386172410000002387393642614247841_" gradientUnits="userSpaceOnUse" x1="65.6348" y1="702.2577" x2="130.1463" y2="649.2118" gradientTransform="matrix(1 0 0 1 0 -618)">
								<stop  offset="0" style="stop-color:#90B0FF"/>
								<stop  offset="0.174" style="stop-color:#89ABFD"/>
								<stop  offset="0.4326" style="stop-color:#759DF7"/>
								<stop  offset="0.7421" style="stop-color:#5487EE"/>
								<stop  offset="1" style="stop-color:#3370E4"/>
							</linearGradient>
							
								<path style="opacity:0.3;fill:url(#SVGID_00000058567275950386172410000002387393642614247841_);enable-background:new    ;" d="
								M106.3,50.5h-3.6v3.6h3.6V50.5z"/>
							
								<linearGradient id="SVGID_00000023977734997073789780000012424289386505687227_" gradientUnits="userSpaceOnUse" x1="62.5934" y1="698.5588" x2="127.1046" y2="645.5128" gradientTransform="matrix(1 0 0 1 0 -618)">
								<stop  offset="0" style="stop-color:#90B0FF"/>
								<stop  offset="0.174" style="stop-color:#89ABFD"/>
								<stop  offset="0.4326" style="stop-color:#759DF7"/>
								<stop  offset="0.7421" style="stop-color:#5487EE"/>
								<stop  offset="1" style="stop-color:#3370E4"/>
							</linearGradient>
							
								<path style="opacity:0.3;fill:url(#SVGID_00000023977734997073789780000012424289386505687227_);enable-background:new    ;" d="
								M106.3,44.3h-3.6v3.6h3.6V44.3z"/>
						</g>
					</g>
				</g>
			</g>
		</g>
	</g>
</g>
<linearGradient id="SVGID_00000162348417890105161700000011260865022805689746_" gradientUnits="userSpaceOnUse" x1="-91.3763" y1="-14.0437" x2="-76.8966" y2="-14.0437" gradientTransform="matrix(0.7854 -0.619 -0.3638 -0.9865 90.0041 17.8712)">
	<stop  offset="0" style="stop-color:#7C889D;stop-opacity:0.6"/>
	<stop  offset="0.1864" style="stop-color:#929EB0;stop-opacity:0.5"/>
	<stop  offset="0.5363" style="stop-color:#B7C2CF"/>
	<stop  offset="0.82" style="stop-color:#CED9E2"/>
	<stop  offset="1" style="stop-color:#D6E1E9"/>
</linearGradient>
<path style="fill:url(#SVGID_00000162348417890105161700000011260865022805689746_);" d="M33.9,82.7L34,83l1.6-1.3l-0.5-1.4
	l-0.2,0.2l0.4,1.1L33.9,82.7z M32.2,78.2l0.1,0.3l1.4-1.1l0.4,1.1l0.2-0.2L33.8,77L32.2,78.2z M32.2,81.2L32,80.5l0.4-0.3
	c0.2-0.1,0.3-0.1,0.4,0.1v0.1c0.1,0.2,0,0.3-0.1,0.5L32.2,81.2z M32.9,80.9c0.2-0.2,0.2-0.5,0.1-0.7c-0.1-0.2-0.2-0.2-0.3-0.3
	c-0.2,0-0.3,0-0.5,0.2l-0.5,0.4l0.8,2.1l0.2-0.2l-0.3-0.8l0.4-0.3c0.2-0.1,0.3-0.1,0.4,0.1l0.2,0.5l0.2-0.2l-0.2-0.4
	C33.2,80.9,33.1,80.8,32.9,80.9L32.9,80.9z M30.9,82.5l0.7-0.6l-0.1-0.3l-0.7,0.6l-0.2-0.6l0.8-0.6l-0.1-0.3l-1,0.8l0.8,2.1l1.1-0.8
	L32,82.5l-0.8,0.7L30.9,82.5z M30.2,83.3l0.1,0.1c0.1,0.3,0.1,0.5-0.2,0.6H30c-0.2,0.2-0.4,0.2-0.5-0.2l-0.2-0.6
	c-0.2-0.4-0.1-0.6,0.1-0.8l0,0c0.2-0.2,0.3-0.1,0.4,0.2l0.3-0.2C30,82,29.7,82,29.3,82.2c-0.2,0.1-0.3,0.3-0.3,0.5
	c-0.1,0.3-0.1,0.7,0.1,1.1c0.1,0.4,0.3,0.6,0.5,0.7c0.1,0,0.3,0,0.4-0.1s0.2-0.3,0.3-0.5l0,0l0.1,0.2l0.2-0.2l-0.4-1.1l-0.6,0.5
	l0.1,0.3L30.2,83.3z M27.7,83.9l0.3-0.2c0.2-0.2,0.4-0.2,0.6,0.2l0.2,0.5c0.2,0.4,0,0.6-0.2,0.8l-0.3,0.2L27.7,83.9z M28.7,85.5
	c0.4-0.4,0.5-0.9,0.2-1.5c-0.2-0.6-0.6-0.9-1-0.5l-0.5,0.4l0.8,2.1L28.7,85.5L28.7,85.5z M26.7,85.9l0.7-0.6L27.3,85l-0.7,0.6
	L26.3,85l0.8-0.6L27,84.1l-1,0.8l0.8,2.1l1.1-0.8l-0.1-0.3L27,86.6L26.7,85.9z M24.9,85.8L24.6,86l0.8,2.1l1.1-0.9l-0.1-0.3
	l-0.8,0.7L24.9,85.8z M23.7,89.3l0.5,1.4l1.6-1.3l-0.1-0.3l-1.4,1.1l-0.3-1L23.7,89.3z M22.5,85.9l0.5,1.4l0.2-0.2L22.8,86l1.4-1.1
	l-0.1-0.3L22.5,85.9z"/>
</svg>
