<?xml version="1.0" encoding="utf-8"?>
<!-- Generator: Adobe Illustrator 26.0.3, SVG Export Plug-In . SVG Version: 6.00 Build 0)  -->
<svg version="1.1" id="Layer_1" xmlns="http://www.w3.org/2000/svg" xmlns:xlink="http://www.w3.org/1999/xlink" x="0px" y="0px"
	 viewBox="0 0 224 180" style="enable-background:new 0 0 224 180;" xml:space="preserve">
<style type="text/css">
	.st0{clip-path:url(#SVGID_00000025402808066767854150000012797135907325746592_);}
	.st1{fill:url(#SVGID_00000172403797347822826420000013148507319261764753_);}
	.st2{fill:url(#SVGID_00000102533505399770561930000011267020700596998065_);}
	.st3{fill:url(#SVGID_00000150077056347008720500000010549285534226354823_);}
	.st4{fill:url(#SVGID_00000032611645468113903080000018420694789086898868_);}
	.st5{fill:url(#SVGID_00000120547623691076736860000005587024553110209173_);}
	.st6{fill:url(#SVGID_00000020367468761239966750000003722619991488559232_);}
	.st7{fill:#D3DEDD;}
	.st8{fill:url(#SVGID_00000017479434498518171530000005356049943404316303_);}
	.st9{fill:url(#SVGID_00000164490822136907558530000018342367894409326492_);}
	.st10{fill:url(#SVGID_00000081627536644951068540000011432598716054891681_);}
	.st11{fill:url(#SVGID_00000096761939694805133900000013367882291541241767_);}
	.st12{fill:url(#SVGID_00000082329200586911989280000008480482073889610629_);}
	.st13{fill:url(#SVGID_00000014628931231465737450000015591055973221821848_);}
	.st14{fill:url(#SVGID_00000174570516024690999460000013739163740485823652_);}
	.st15{fill:url(#SVGID_00000099662978572586749920000018374058908938968249_);}
	.st16{fill:url(#SVGID_00000054247796135762261180000005521533928150094218_);}
	.st17{fill:url(#SVGID_00000179645709803059308440000004095854308000139406_);}
	.st18{fill:url(#SVGID_00000133506539119672718310000011745036397233689749_);}
	.st19{fill:url(#SVGID_00000001629804957320932750000017490280684866503560_);}
	.st20{fill:url(#SVGID_00000095311361924967268330000002226779546104125596_);}
	.st21{fill:url(#SVGID_00000145032256665300089900000014038952607756398759_);}
	.st22{opacity:0.4;fill:url(#SVGID_00000098215103222685926170000009340815213764203394_);enable-background:new    ;}
	.st23{fill:url(#SVGID_00000165204615936831053580000002062863122474141339_);}
	.st24{fill:url(#SVGID_00000096751694123021596040000010331892719828591011_);}
	.st25{fill:url(#SVGID_00000082361644023994653570000010683328811931754389_);}
	.st26{fill:none;}
	.st27{fill:url(#SVGID_00000176021531912918025890000010229270903821542532_);}
	.st28{fill:url(#SVGID_00000144321836928426322460000013214786586476902829_);}
	.st29{fill:url(#SVGID_00000076584860953241806300000015690713219320431281_);}
	.st30{fill:url(#SVGID_00000098179047560553197670000004938374314939516081_);}
	.st31{fill:#FFFFFF;}
	.st32{fill:url(#SVGID_00000129918270580369760680000015463075140375901083_);}
	.st33{fill:#77C5B7;}
	.st34{fill:url(#SVGID_00000091703770660810077220000007912798530577013137_);}
	.st35{fill:url(#SVGID_00000074405585043806277920000015406814548371608752_);}
</style>
<g>
	<defs>
		<rect id="SVGID_1_" width="224" height="180"/>
	</defs>
	<clipPath id="SVGID_00000096032527280143240550000007650605318196224694_">
		<use xlink:href="#SVGID_1_"  style="overflow:visible;"/>
	</clipPath>
	<g style="clip-path:url(#SVGID_00000096032527280143240550000007650605318196224694_);">
		
			<radialGradient id="SVGID_00000165947103688391142500000008297502605094111360_" cx="-282.081" cy="470.0237" r="0.9997" gradientTransform="matrix(58.3438 0 0 -14.7302 16566.7441 7090.7773)" gradientUnits="userSpaceOnUse">
			<stop  offset="0" style="stop-color:#7EB2D6;stop-opacity:0.6"/>
			<stop  offset="1" style="stop-color:#FFFFFF;stop-opacity:0"/>
		</radialGradient>
		<path style="fill:url(#SVGID_00000165947103688391142500000008297502605094111360_);" d="M29.2,162.4c0,0-2.2,1.5,6.7,4.3
			c8.9,2.8,56.6,17.8,66.8,17.3c10.2-0.6,89.2-13.1,86.4-20.7c-2.9-7.6-70.4-12.8-80-12.8C99.5,150.5,29.2,162.4,29.2,162.4z"/>
		
			<linearGradient id="SVGID_00000014595715263086217010000005571532555942299290_" gradientUnits="userSpaceOnUse" x1="9.4454" y1="73.1324" x2="106.9369" y2="38.9844" gradientTransform="matrix(1 0 0 -1 0 182)">
			<stop  offset="0" style="stop-color:#132534"/>
			<stop  offset="0.5779" style="stop-color:#3A4D62"/>
			<stop  offset="1" style="stop-color:#586D86"/>
		</linearGradient>
		<path style="fill:url(#SVGID_00000014595715263086217010000005571532555942299290_);" d="M112.9,168.2l-41.4-18.5l-12.3-45.3
			l41.4,13.3L112.9,168.2z"/>
		
			<linearGradient id="SVGID_00000169523692898858063430000017809248549473557418_" gradientUnits="userSpaceOnUse" x1="116.4775" y1="114.732" x2="136.7675" y2="26.3396" gradientTransform="matrix(1 0 0 -1 0 182)">
			<stop  offset="0.1447" style="stop-color:#676771"/>
			<stop  offset="0.9971" style="stop-color:#3D4653"/>
		</linearGradient>
		<path style="fill:url(#SVGID_00000169523692898858063430000017809248549473557418_);" d="M138.2,66.3L138.2,66.3l-79,38.1
			l41.4,13.3l27-14.4l56.1-29.9L138.2,66.3z M127.5,102.9l-26.8,14.3l-31.4-10.5l-8.6-2.3l77.7-37.6h0l43.9,6.8l-8.1,4.3
			L127.5,102.9z"/>
		
			<linearGradient id="SVGID_00000030471049227548294520000014772801711992597385_" gradientUnits="userSpaceOnUse" x1="60.6641" y1="95.2404" x2="139.697" y2="95.2404" gradientTransform="matrix(1 0 0 -1 0 182)">
			<stop  offset="0" style="stop-color:#132534"/>
			<stop  offset="0.4606" style="stop-color:#314462"/>
			<stop  offset="1" style="stop-color:#586B9D"/>
		</linearGradient>
		<path style="fill:url(#SVGID_00000030471049227548294520000014772801711992597385_);" d="M139.7,72.6L139.7,72.6l-70.4,34.1
			l-8.6-2.3l77.7-37.6h0L139.7,72.6z"/>
		
			<linearGradient id="SVGID_00000023240786549388161660000013429685241818973063_" gradientUnits="userSpaceOnUse" x1="170.1444" y1="153.2309" x2="141.1434" y2="30.9317" gradientTransform="matrix(1 0 0 -1 0 182)">
			<stop  offset="0" style="stop-color:#132534"/>
			<stop  offset="0.5779" style="stop-color:#3A4D62"/>
			<stop  offset="1" style="stop-color:#586D86"/>
		</linearGradient>
		<path style="fill:url(#SVGID_00000023240786549388161660000013429685241818973063_);" d="M182.3,73.7l-8.1,4.3l-34.5-5.3l-1.4-5.8
			L182.3,73.7z"/>
		
			<linearGradient id="SVGID_00000109746508872552213780000016783825453808106401_" gradientUnits="userSpaceOnUse" x1="121.7601" y1="67.329" x2="102.1161" y2="95.7568" gradientTransform="matrix(1 0 0 -1 0 182)">
			<stop  offset="0" style="stop-color:#C0D2E1"/>
			<stop  offset="3.829420e-02" style="stop-color:#C5D6E3"/>
			<stop  offset="0.2589" style="stop-color:#DFE8F0"/>
			<stop  offset="0.488" style="stop-color:#F1F5F8"/>
			<stop  offset="0.7286" style="stop-color:#FBFCFD"/>
			<stop  offset="1" style="stop-color:#FFFFFF"/>
		</linearGradient>
		<path style="fill:url(#SVGID_00000109746508872552213780000016783825453808106401_);" d="M144.8,93.7l-44.2,23.5l-31.4-10.5
			l70.4-34.1h0L144.8,93.7z"/>
		<path class="st7" d="M174.2,78l-29.3,15.7l-5.1-21L174.2,78z"/>
		
			<linearGradient id="SVGID_00000009579566620184736330000007401989426619480466_" gradientUnits="userSpaceOnUse" x1="74.7012" y1="83.2203" x2="228.6811" y2="37.1232" gradientTransform="matrix(1 0 0 -1 0 182)">
			<stop  offset="0" style="stop-color:#132534"/>
			<stop  offset="0.4606" style="stop-color:#314462"/>
			<stop  offset="1" style="stop-color:#586B9D"/>
		</linearGradient>
		<path style="fill:url(#SVGID_00000009579566620184736330000007401989426619480466_);" d="M195,121.8l-82.1,46.3l-12.3-50.4
			l27-14.4l56.2-29.9L195,121.8z"/>
		
			<linearGradient id="SVGID_00000085966618356980995980000001799613470814587306_" gradientUnits="userSpaceOnUse" x1="155.8142" y1="66.8098" x2="220.0422" y2="18.8888" gradientTransform="matrix(1 0 0 -1 0 182)">
			<stop  offset="0" style="stop-color:#132534"/>
			<stop  offset="5.182770e-02" style="stop-color:#152735"/>
			<stop  offset="0.4477" style="stop-color:#1E2F3C"/>
			<stop  offset="1" style="stop-color:#21313E"/>
		</linearGradient>
		<path style="fill:url(#SVGID_00000085966618356980995980000001799613470814587306_);" d="M170,86.6c-3.6,0.6-42.7,45.7-42.7,45.7
			s-6.2,1-9.7-12.3c-1-3.7-2.4-5.5-3.9-6.1c-3.8-1.5-6.4-0.6-6.7-0.3c4.4-9.6,51-25.6,56.7-28.1C169.3,83,170,86.6,170,86.6z"/>
		
			<linearGradient id="SVGID_00000141441357581385641800000011869448166891510670_" gradientUnits="userSpaceOnUse" x1="105.4613" y1="79.6824" x2="108.9103" y2="72.4224" gradientTransform="matrix(1 0 0 -1 0 182)">
			<stop  offset="0" style="stop-color:#132534"/>
			<stop  offset="5.182770e-02" style="stop-color:#152735"/>
			<stop  offset="0.4477" style="stop-color:#1E2F3C"/>
			<stop  offset="1" style="stop-color:#21313E"/>
		</linearGradient>
		<path style="fill:url(#SVGID_00000141441357581385641800000011869448166891510670_);" d="M114.4,109.8l-8.6,4.6v0
			C106.1,114.1,110.6,108.3,114.4,109.8z"/>
		
			<linearGradient id="SVGID_00000090978244777821279100000001294238600165523873_" gradientUnits="userSpaceOnUse" x1="142.7304" y1="78.8706" x2="138.9134" y2="85.1223" gradientTransform="matrix(1 0 0 -1 0 182)">
			<stop  offset="0" style="stop-color:#3DB39A"/>
			<stop  offset="1" style="stop-color:#7ACA94"/>
		</linearGradient>
		<path style="fill:url(#SVGID_00000090978244777821279100000001294238600165523873_);" d="M173.1,81.2
			c-3.6,0.6-45.2,46.9-45.2,46.9s-6.2,1-9.7-12.3c-1-3.7-2.4-5.5-3.9-6.1c-3.8-1.5-8.3,4.2-8.6,4.6c4.4-9.6,52.9-30.5,58.5-33
			C170,78.9,173.1,81.2,173.1,81.2z"/>
		
			<linearGradient id="SVGID_00000058568135920492988290000010353690822965255561_" gradientUnits="userSpaceOnUse" x1="84.8697" y1="79.1585" x2="82.8313" y2="69.0945" gradientTransform="matrix(1 0 0 -1 0 182)">
			<stop  offset="0" style="stop-color:#132534"/>
			<stop  offset="5.182770e-02" style="stop-color:#152735"/>
			<stop  offset="0.4477" style="stop-color:#1E2F3C"/>
			<stop  offset="1" style="stop-color:#21313E"/>
		</linearGradient>
		<path style="fill:url(#SVGID_00000058568135920492988290000010353690822965255561_);" d="M77.9,109.8c0,0-10.1-5.5-11.2,2.7
			c0,0,15.9,7.5,29.4,15.6c0,0-4.1-11.7,1.9-11.9L77.9,109.8z"/>
		
			<linearGradient id="SVGID_00000070832742627424831510000014608419170545793424_" gradientUnits="userSpaceOnUse" x1="82.9463" y1="71.7916" x2="79.5538" y2="63.1246" gradientTransform="matrix(1 0 0 -1 0 182)">
			<stop  offset="0" style="stop-color:#3DB39A"/>
			<stop  offset="1" style="stop-color:#7ACA94"/>
		</linearGradient>
		<path style="fill:url(#SVGID_00000070832742627424831510000014608419170545793424_);" d="M77,107.5c0,0-10.1-5.5-11.2,2.7
			c0,0,13.5,8.3,26.8,15.9c0,0-0.6-9.7,5.3-9.9L77,107.5z"/>
		
			<linearGradient id="SVGID_00000112609960787413757820000014996863705366016899_" gradientUnits="userSpaceOnUse" x1="22.2349" y1="6.3738" x2="61.2566" y2="63.3478" gradientTransform="matrix(1 0 0 -1 0 182)">
			<stop  offset="0" style="stop-color:#132534"/>
			<stop  offset="0.5779" style="stop-color:#3A4D62"/>
			<stop  offset="1" style="stop-color:#586D86"/>
		</linearGradient>
		<path style="fill:url(#SVGID_00000112609960787413757820000014996863705366016899_);" d="M31.6,140.8l14.1,6.5l28.9-27l-15.2-8
			L31.6,140.8z"/>
		
			<linearGradient id="SVGID_00000062163936526377716160000009321027274808734860_" gradientUnits="userSpaceOnUse" x1="31.7706" y1="144.7735" x2="165.5809" y2="52.5716" gradientTransform="matrix(1 0 0 -1 0 182)">
			<stop  offset="0" style="stop-color:#132534"/>
			<stop  offset="0.4606" style="stop-color:#314462"/>
			<stop  offset="1" style="stop-color:#586B9D"/>
		</linearGradient>
		<path style="fill:url(#SVGID_00000062163936526377716160000009321027274808734860_);" d="M88.8,22.2l13.3,7.5l-27.5,90.6l-15.2-8
			L85.9,31l1.4-4.1L88.8,22.2z"/>
		
			<linearGradient id="SVGID_00000085937102929212736960000006773436557981537675_" gradientUnits="userSpaceOnUse" x1="56.883" y1="93.6422" x2="-19.3567" y2="-52.7951" gradientTransform="matrix(1 0 0 -1 0 182)">
			<stop  offset="0" style="stop-color:#687B99"/>
			<stop  offset="0.1381" style="stop-color:#5F738F"/>
			<stop  offset="0.6786" style="stop-color:#41576B"/>
			<stop  offset="0.9671" style="stop-color:#364C5D"/>
		</linearGradient>
		<path style="fill:url(#SVGID_00000085937102929212736960000006773436557981537675_);" d="M88.8,22.2l-1.5,4.7L85.9,31l-8.2,25.3
			L72.6,72l-13.2,40.3l-27.8,28.5l12.3-39.9l3.8-12.2l8.5-27.5L88.8,22.2z"/>
		
			<linearGradient id="SVGID_00000029767732547332741540000007481672896697019830_" gradientUnits="userSpaceOnUse" x1="121.9943" y1="161.8505" x2="133.5463" y2="132.8538" gradientTransform="matrix(1 0 0 -1 0 182)">
			<stop  offset="0" style="stop-color:#687B99"/>
			<stop  offset="0.1381" style="stop-color:#5F738F"/>
			<stop  offset="0.6786" style="stop-color:#41576B"/>
			<stop  offset="0.9671" style="stop-color:#364C5D"/>
		</linearGradient>
		<path style="fill:url(#SVGID_00000029767732547332741540000007481672896697019830_);" d="M144.9,24.4l-5.7,23l-3.6,14.7l-0.5,1.9
			v0l-0.3,1.1v0l-0.3,1.3l-1,4l0,0.1c-0.1,0.1-0.1,0.3-0.2,0.3c-0.1,0.1-0.2,0.1-0.3,0.1h0l-11.8,1l2.9-12l8.4-34.3l0.1-0.3
			c0.1-0.5,0.6-0.9,1.1-0.9c0,0,10.2-0.9,10.7-0.9c0,0,0,0,0.1,0c0.1,0,0.1,0,0.2,0.1c0,0,0,0,0.1,0.1c0,0,0,0,0,0.1
			c0,0,0,0,0.1,0.1c0,0,0,0.1,0.1,0.1c0,0,0,0.1,0,0.1C144.9,24.1,145,24.3,144.9,24.4z"/>
		
			<linearGradient id="SVGID_00000138556526201131622970000008426871782369418914_" gradientUnits="userSpaceOnUse" x1="133.6373" y1="111.5999" x2="133.5493" y2="111.412" gradientTransform="matrix(1 0 0 -1 0 182)">
			<stop  offset="0" style="stop-color:#475B80"/>
			<stop  offset="0.6559" style="stop-color:#2C3D51"/>
			<stop  offset="1" style="stop-color:#21313E"/>
		</linearGradient>
		<path style="fill:url(#SVGID_00000138556526201131622970000008426871782369418914_);" d="M133.6,70.5
			C133.6,70.5,133.6,70.5,133.6,70.5C133.6,70.5,133.6,70.5,133.6,70.5c0,0.1,0,0.1-0.1,0.1L133.6,70.5z"/>
		
			<linearGradient id="SVGID_00000142858166794498979430000003468025309630092966_" gradientUnits="userSpaceOnUse" x1="129.1277" y1="113.5915" x2="129.4267" y2="114.0856" gradientTransform="matrix(1 0 0 -1 0 182)">
			<stop  offset="0" style="stop-color:#475B80"/>
			<stop  offset="0.6559" style="stop-color:#2C3D51"/>
			<stop  offset="1" style="stop-color:#21313E"/>
		</linearGradient>
		<path style="fill:url(#SVGID_00000142858166794498979430000003468025309630092966_);" d="M148.3,26.8l-10.5,46.1c0,0,0,0.1,0,0.1
			c-0.1,0.2-0.1,0.3-0.3,0.4l-1-0.6l-3.1-1.8l-0.4,0h0c0.1,0,0.2-0.1,0.3-0.1c0.1-0.1,0.2-0.2,0.2-0.3c0,0,0,0,0-0.1
			c0,0,0-0.1,0-0.1c0,0,0,0,0,0l1-4l0.3-1.3v0l0.3-1.1v0l0.5-1.9l9.3-37.7c0-0.2,0-0.3,0-0.4c0,0,0-0.1,0-0.1c0,0,0-0.1-0.1-0.1
			c0,0,0,0,0-0.1c0,0,0,0,0-0.1c0,0,0,0-0.1-0.1l3.1,1.9C148.2,25.8,148.4,26.3,148.3,26.8z"/>
		
			<radialGradient id="SVGID_00000145751159816453132070000004442952696220593833_" cx="-241.9264" cy="433.8085" r="1.0009" gradientTransform="matrix(5.7609 -0.4764 -0.4779 -5.7784 1730.3978 2464.1946)" gradientUnits="userSpaceOnUse">
			<stop  offset="0" style="stop-color:#687B99"/>
			<stop  offset="0.5133" style="stop-color:#55688A"/>
			<stop  offset="1" style="stop-color:#475B80"/>
		</radialGradient>
		<path style="fill:url(#SVGID_00000145751159816453132070000004442952696220593833_);" d="M137.5,73.4c-0.1,0.1-0.2,0.1-0.3,0.1
			h-0.1l-2.8,0.2l-1.4,0.1l-5,0.3h-0.1l-0.7,0.1l-2.2,0.2l-3.8-2.3l12.2-1l3.1,1.8L137.5,73.4z"/>
		
			<linearGradient id="SVGID_00000165212987642052360900000011762611631497827994_" gradientUnits="userSpaceOnUse" x1="143.9512" y1="90.1122" x2="113.0942" y2="106.3664" gradientTransform="matrix(1 0 0 -1 0 182)">
			<stop  offset="0" style="stop-color:#8598B6"/>
			<stop  offset="0.2145" style="stop-color:#94A5BF"/>
			<stop  offset="0.622" style="stop-color:#B9C7D7"/>
			<stop  offset="0.8916" style="stop-color:#D6E1E9"/>
		</linearGradient>
		<path style="fill:url(#SVGID_00000165212987642052360900000011762611631497827994_);" d="M134.2,66c-0.4,0.8-0.9,1.6-1.5,2.2h0
			l-5.8,6.2l-20.9,22.5l-2.4,2.6c-0.1,0.1-0.1,0.1-0.2,0.1c-0.2,0.1-0.4,0-0.5-0.2l-0.1-0.1L97.9,90l-0.1-0.2
			c-0.3-0.5-0.2-1.1,0.2-1.5l25.5-27.4c2.7-3.2,5.7-5.8,8.6-4.4c0,0,0,0,0,0c1.2,0.6,2,1.6,2.5,2.9C135.4,61.3,135.3,63.7,134.2,66z
			"/>
		
			<linearGradient id="SVGID_00000010268968426391773910000004900718226739336850_" gradientUnits="userSpaceOnUse" x1="101.8435" y1="102.4605" x2="136.8613" y2="105.3387" gradientTransform="matrix(1 0 0 -1 0 182)">
			<stop  offset="0" style="stop-color:#475B80"/>
			<stop  offset="0.6559" style="stop-color:#2C3D51"/>
			<stop  offset="1" style="stop-color:#21313E"/>
		</linearGradient>
		<path style="opacity:0.4;fill:url(#SVGID_00000010268968426391773910000004900718226739336850_);enable-background:new    ;" d="
			M135.6,62.1l-1.1,4.4c-0.4,0.7-0.8,1.4-1.3,1.9h0l-2.6,2.8l-3.1,3.4l-20.9,22.5l-2.4,2.6c-0.2,0.2-0.6,0.2-0.8-0.1
			c0.1,0,0.2-0.1,0.2-0.1l2.4-2.6L127,74.4l2.9-3.1l2.9-3.1h0c0.6-0.6,1-1.4,1.5-2.2c1.1-2.3,1.2-4.7,0.5-6.6
			c-0.5-1.3-1.3-2.3-2.5-2.9c0.2,0.1,0.3,0.1,0.5,0.2c1.2,0.6,2.1,1.6,2.6,2.9C135.5,60.4,135.6,61.2,135.6,62.1z"/>
		
			<linearGradient id="SVGID_00000083080436111900939230000012946847346764661169_" gradientUnits="userSpaceOnUse" x1="121.0134" y1="100.4506" x2="120.5264" y2="100.8997" gradientTransform="matrix(1 0 0 -1 0 182)">
			<stop  offset="0" style="stop-color:#8598B6"/>
			<stop  offset="0.1225" style="stop-color:#92A4BE"/>
			<stop  offset="0.5" style="stop-color:#B7C5D6"/>
			<stop  offset="0.8059" style="stop-color:#CEDAE4"/>
			<stop  offset="1" style="stop-color:#D6E1E9"/>
		</linearGradient>
		<path style="fill:url(#SVGID_00000083080436111900939230000012946847346764661169_);" d="M134.4,66.4c-0.4,0.8-0.9,1.6-1.5,2.2h0
			l-5.1,5.5l-0.6,0.7l-20.9,22.5l-0.2,0.2l-2.2,2.4c-0.1,0.1-0.3,0.2-0.5,0.1c-0.2-0.1-0.3-0.2-0.4-0.4l-0.1-0.3l-4.9-9.1
			C98,90.2,98,90.1,98,90l4.9,9.3l0.1,0.1c0.2,0.3,0.5,0.3,0.8,0.1l2.4-2.6L127,74.4l5.8-6.2h0c0.6-0.6,1-1.4,1.5-2.2
			c1.1-2.3,1.2-4.7,0.5-6.6C135.6,61.3,135.6,64,134.4,66.4z"/>
		
			<linearGradient id="SVGID_00000003078823269468026640000004760597992339547791_" gradientUnits="userSpaceOnUse" x1="107.4225" y1="84.2663" x2="104.0295" y2="78.0678" gradientTransform="matrix(1 0 0 -1 0 182)">
			<stop  offset="0" style="stop-color:#8598B6"/>
			<stop  offset="0.3943" style="stop-color:#66799B"/>
			<stop  offset="0.7649" style="stop-color:#4F6387"/>
			<stop  offset="1" style="stop-color:#475B80"/>
		</linearGradient>
		<path style="fill:url(#SVGID_00000003078823269468026640000004760597992339547791_);" d="M107.8,101.9c-0.3,0.1-0.5,0-0.5,0
			s-3.1-1.3-3.8-1.8c0,0,0,0-0.1,0c0.2,0.1,0.3,0,0.5-0.1l2.2-2.4L107.8,101.9z"/>
		
			<linearGradient id="SVGID_00000183241667318568449150000008948463940332423325_" gradientUnits="userSpaceOnUse" x1="124.3392" y1="84.9418" x2="112.0302" y2="119.0345" gradientTransform="matrix(1 0 0 -1 0 182)">
			<stop  offset="0" style="stop-color:#7C889D"/>
			<stop  offset="0.1864" style="stop-color:#929EB0"/>
			<stop  offset="0.5363" style="stop-color:#B7C2CF"/>
			<stop  offset="0.82" style="stop-color:#CED9E2"/>
			<stop  offset="1" style="stop-color:#D6E1E9"/>
		</linearGradient>
		<path style="fill:url(#SVGID_00000183241667318568449150000008948463940332423325_);" d="M134.4,73.7c0,0-25.1,27.1-25.8,27.8
			c-0.3,0.3-0.6,0.4-0.8,0.5l-1.7-4.3l0.2-0.2l20.9-22.5l0.7-0.8L134.4,73.7z"/>
		<rect x="124.8" y="58.4" class="st26" width="7.9" height="9.7"/>
		
			<linearGradient id="SVGID_00000115488719541136902940000000461391644997264291_" gradientUnits="userSpaceOnUse" x1="112.1814" y1="99.6841" x2="139.0804" y2="130.737" gradientTransform="matrix(1 0 0 -1 0 182)">
			<stop  offset="0" style="stop-color:#8598B6"/>
			<stop  offset="0.1225" style="stop-color:#92A4BE"/>
			<stop  offset="0.5" style="stop-color:#B7C5D6"/>
			<stop  offset="0.8059" style="stop-color:#CEDAE4"/>
			<stop  offset="1" style="stop-color:#D6E1E9"/>
		</linearGradient>
		<path style="fill:url(#SVGID_00000115488719541136902940000000461391644997264291_);" d="M132,64c-0.5,2.4-2.4,3.9-4.3,3.5
			c-1.8-0.4-2.9-2.7-2.3-5c0.5-2.4,2.4-3.9,4.3-3.5C131.5,59.4,132.6,61.6,132,64z"/>
		
			<linearGradient id="SVGID_00000015323168214336961770000016198232217156046753_" gradientUnits="userSpaceOnUse" x1="138.0467" y1="154.218" x2="135.8827" y2="145.9207" gradientTransform="matrix(1 0 0 -1 0 182)">
			<stop  offset="0" style="stop-color:#28394C"/>
			<stop  offset="0.7981" style="stop-color:#5F7398"/>
		</linearGradient>
		<path style="fill:url(#SVGID_00000015323168214336961770000016198232217156046753_);" d="M140.5,30c-0.3,1.8-1.9,3.4-3.6,3.6
			c-1.7,0.1-2.8-1.2-2.5-3.1c0.3-1.8,1.9-3.4,3.6-3.6C139.6,26.8,140.8,28.2,140.5,30z"/>
		
			<linearGradient id="SVGID_00000065036275114233302090000012349790627926569114_" gradientUnits="userSpaceOnUse" x1="133.9854" y1="145.5933" x2="140.8824" y2="158.2356" gradientTransform="matrix(1 0 0 -1 0 182)">
			<stop  offset="0" style="stop-color:#556A81"/>
			<stop  offset="0.308" style="stop-color:#455B6F"/>
			<stop  offset="0.6534" style="stop-color:#3A5062"/>
			<stop  offset="0.9671" style="stop-color:#364C5D"/>
		</linearGradient>
		<path style="fill:url(#SVGID_00000065036275114233302090000012349790627926569114_);" d="M140.3,30c-0.3,1.8-1.8,3.3-3.4,3.4
			c-1.6,0.1-2.7-1.2-2.4-2.9c0.3-1.8,1.8-3.3,3.4-3.4C139.5,26.9,140.6,28.2,140.3,30z"/>
		
			<linearGradient id="SVGID_00000102536574861965028370000016692033763598419630_" gradientUnits="userSpaceOnUse" x1="136.8354" y1="146.501" x2="141.7924" y2="151.1916" gradientTransform="matrix(1 0 0 -1 0 182)">
			<stop  offset="0" style="stop-color:#FFFFFF;stop-opacity:0.1"/>
			<stop  offset="1" style="stop-color:#FFFFFF;stop-opacity:0"/>
		</linearGradient>
		<path style="fill:url(#SVGID_00000102536574861965028370000016692033763598419630_);" d="M144.9,24.4l-5.7,23l-6.6-21.6l0.1-0.3
			c0.1-0.5,0.6-0.9,1.1-0.9c0,0,10.2-0.9,10.7-0.9c0,0,0,0,0.1,0c0.1,0,0.1,0,0.2,0.1c0,0,0,0,0.1,0.1c0,0,0,0,0,0.1
			c0,0,0,0,0.1,0.1c0,0,0,0.1,0.1,0.1c0,0,0,0.1,0,0.1C144.9,24.1,145,24.3,144.9,24.4z"/>
		<path class="st31" d="M153.4,56.2L153.4,56.2c-0.3,0-0.4-0.2-0.4-0.4c0-0.1,0.8-10.4,11.7-15.2c0.2-0.1,0.4,0,0.5,0.2
			c0.1,0.2,0,0.4-0.2,0.5c-10.4,4.6-11.2,14.4-11.2,14.5C153.8,56,153.7,56.2,153.4,56.2z"/>
		<path class="st31" d="M123,23.4c-0.2,0-0.3-0.1-0.4-0.3c-0.9-2.6-4.6-3.7-4.7-3.7c-0.2-0.1-0.3-0.3-0.3-0.5
			c0.1-0.2,0.3-0.3,0.5-0.3c0.2,0.1,4.2,1.2,5.2,4.2c0.1,0.2,0,0.4-0.3,0.5C123.1,23.4,123,23.4,123,23.4z"/>
		
			<linearGradient id="SVGID_00000129198109451480601340000008452926327735716267_" gradientUnits="userSpaceOnUse" x1="115.6826" y1="146.8248" x2="110.3156" y2="138.1555" gradientTransform="matrix(1 0 0 -1 0 182)">
			<stop  offset="0" style="stop-color:#3DB39A"/>
			<stop  offset="1" style="stop-color:#7ACA94"/>
		</linearGradient>
		<path style="fill:url(#SVGID_00000129198109451480601340000008452926327735716267_);" d="M112.7,40.2l0.7,0.4l-0.7,0.4l-0.4,0.7
			l-0.4-0.7l-0.7-0.4l0.7-0.4l0.4-0.7L112.7,40.2z"/>
		<path class="st33" d="M155.5,18.6l0.6,0.3l-0.6,0.3l-0.3,0.6l-0.3-0.6l-0.6-0.3l0.6-0.3l0.3-0.6L155.5,18.6z"/>
		
			<linearGradient id="SVGID_00000135674164606776183700000017135295464168257432_" gradientUnits="userSpaceOnUse" x1="162.4099" y1="152.9216" x2="154.282" y2="139.3257" gradientTransform="matrix(1 0 0 -1 0 182)">
			<stop  offset="0" style="stop-color:#90B0FF"/>
			<stop  offset="0.1375" style="stop-color:#89ABFD"/>
			<stop  offset="0.342" style="stop-color:#759EF7"/>
			<stop  offset="0.5882" style="stop-color:#5488EE"/>
			<stop  offset="0.8645" style="stop-color:#266AE2"/>
			<stop  offset="1" style="stop-color:#0D5ADB"/>
		</linearGradient>
		<path style="fill:url(#SVGID_00000135674164606776183700000017135295464168257432_);" d="M162.2,29.7l0.9,0.5l-0.9,0.5l-0.5,0.9
			l-0.5-0.9l-0.9-0.5l0.9-0.5l0.5-0.9L162.2,29.7z"/>
	</g>
</g>
<linearGradient id="SVGID_00000110449370107121922080000010385235999681482889_" gradientUnits="userSpaceOnUse" x1="103.1696" y1="84.6259" x2="133.4954" y2="84.6259" gradientTransform="matrix(0.9051 -0.4252 0.3787 0.8061 -24.257 64.0056)">
	<stop  offset="0" style="stop-color:#7C889D"/>
	<stop  offset="0.1864" style="stop-color:#929EB0"/>
	<stop  offset="0.5363" style="stop-color:#B7C2CF"/>
	<stop  offset="0.82" style="stop-color:#CED9E2"/>
	<stop  offset="1" style="stop-color:#D6E1E9"/>
</linearGradient>
<path style="fill:url(#SVGID_00000110449370107121922080000010385235999681482889_);" d="M115.6,81.7l0.2,0.3l1.9-2l-0.9-1.4
	l-0.3,0.3l0.7,1.1L115.6,81.7z M112.5,76.9l0.2,0.3l1.6-1.8l0.7,1.1l0.3-0.3l-0.9-1.4L112.5,76.9z M113.1,80.4l-0.5-0.8l0.4-0.5
	c0.2-0.2,0.3-0.2,0.5,0l0.1,0.1c0.1,0.2,0.1,0.4-0.1,0.6L113.1,80.4z M113.9,79.8c0.2-0.3,0.2-0.7,0-0.9c-0.1-0.2-0.3-0.2-0.4-0.2
	c-0.3,0-0.4,0.1-0.7,0.3l-0.6,0.6l1.4,2.2l0.2-0.3l-0.6-0.9l0.4-0.4c0.2-0.2,0.4-0.2,0.5,0l0.3,0.6l0.3-0.3l-0.3-0.5
	C114.4,79.7,114.2,79.7,113.9,79.8L113.9,79.8z M111.7,82.3l0.8-0.9l-0.2-0.3l-0.8,0.9l-0.4-0.7l0.9-1l-0.2-0.3l-1.2,1.3l1.4,2.2
	l1.2-1.3l-0.2-0.4l-1,1L111.7,82.3z M110.8,83.5l0.1,0.2c0.2,0.3,0.2,0.6-0.1,0.8l-0.1,0c-0.3,0.3-0.4,0.3-0.7-0.2l-0.4-0.6
	c-0.3-0.4-0.2-0.7,0-1l0.1,0c0.3-0.3,0.4-0.2,0.6,0.1l0.3-0.3c-0.3-0.4-0.8-0.4-1.1,0c-0.1,0.2-0.3,0.4-0.3,0.7
	c-0.1,0.4,0,0.8,0.3,1.2c0.3,0.4,0.6,0.7,0.8,0.7c0.2,0,0.4-0.1,0.5-0.2c0.2-0.2,0.3-0.4,0.2-0.7l0.1,0l0.1,0.2l0.3-0.3l-0.7-1.2
	l-0.8,0.8l0.2,0.3L110.8,83.5z M107.8,84.9l0.3-0.3c0.3-0.3,0.5-0.4,0.8,0.1l0.4,0.6c0.3,0.4,0.2,0.7-0.1,1l-0.2,0.2L107.8,84.9z
	 M109.3,86.5c0.6-0.5,0.4-1.2,0-1.9c-0.4-0.7-0.9-0.9-1.4-0.4l-0.6,0.6l1.4,2.2L109.3,86.5L109.3,86.5z M106.9,87.6l0.8-0.9
	l-0.2-0.3l-0.8,0.9l-0.4-0.7l0.9-1l-0.2-0.3l-1.2,1.3l1.4,2.2l1.2-1.3l-0.2-0.3l-1,1L106.9,87.6z M104.5,88l-0.2,0.3l1.4,2.2
	l1.2-1.3l-0.2-0.3l-1,1L104.5,88z M103.8,92.5l0.9,1.4l1.9-2l-0.2-0.3l-1.6,1.8l-0.7-1.1L103.8,92.5z M101.4,88.8l0.9,1.4l0.3-0.3
	l-0.7-1.1l1.6-1.8l-0.2-0.3L101.4,88.8z"/>
</svg>
