<svg width="72" height="89" viewBox="0 0 72 89" fill="none" xmlns="http://www.w3.org/2000/svg">
<g clip-path="url(#clip0)">
<path d="M42.8836 23.8702L43.7823 25.5623L45.4718 26.4624L43.7823 27.3985L42.8836 29.0906L41.949 27.3985L40.2596 26.4624L41.949 25.5623L42.8836 23.8702Z" fill="url(#paint0_linear)"/>
<path d="M1.65352 68.4061L2.22866 69.4502L3.30704 70.0623L2.22866 70.6383L1.65352 71.7184L1.07838 70.6383L0 70.0623L1.07838 69.4502L1.65352 68.4061Z" fill="url(#paint1_linear)"/>
<path d="M64.9906 0L65.6016 1.0801L66.6441 1.65615L65.6016 2.2322L64.9906 3.3123L64.4154 2.2322L63.337 1.65615L64.4154 1.0801L64.9906 0Z" fill="url(#paint2_linear)"/>
<path d="M64.5951 48.4243L65.4937 50.0805L67.1832 51.0165L65.4937 51.9166L64.5951 53.6088L63.6605 51.9166L62.007 51.0165L63.6605 50.0805L64.5951 48.4243Z" fill="url(#paint3_linear)"/>
<path d="M28.3255 14.8333L28.8647 15.8774L29.9071 16.4535L28.8647 17.0295L28.3255 18.0376L27.7504 17.0295L26.7079 16.4535L27.7504 15.8774L28.3255 14.8333Z" fill="url(#paint4_linear)"/>
<path d="M29.6555 33.735L27.8223 34.2751C28.0379 34.2031 28.2536 34.1311 28.4693 34.0591C28.8647 33.9151 29.2601 33.8071 29.6555 33.735Z" fill="#E0ECFF"/>
<path d="M56.9745 68.3701C56.9745 68.5502 56.9745 68.6942 56.9745 68.8742C56.9745 69.3062 56.9386 69.7023 56.9386 70.1343C56.8667 71.3224 56.7589 72.4385 56.5791 73.5186C56.4713 74.2387 56.3275 74.9227 56.1478 75.5708C55.968 76.2549 55.7883 76.9389 55.5367 77.587C54.9616 79.2431 54.2067 80.7193 53.344 81.9794C52.0499 83.8155 50.5042 85.2557 48.671 86.1917C48.1677 86.4438 47.6645 86.6598 47.1613 86.8398L46.5142 87.0558L42.3085 88.3519C42.8118 88.1719 43.315 87.9559 43.7823 87.7039C43.9261 87.6319 44.0699 87.5239 44.2496 87.4519C44.7169 87.1998 45.1483 86.8758 45.5796 86.5518C45.6515 86.5158 45.6875 86.4438 45.7594 86.4078C46.0469 86.1917 46.2986 85.9397 46.5502 85.7237C46.5861 85.6877 46.6221 85.6877 46.6221 85.6517C46.7659 85.5437 46.8737 85.3997 46.9815 85.2557C47.0175 85.2197 47.0894 85.1477 47.1253 85.0756C47.4129 84.7876 47.6645 84.4636 47.9161 84.1396C48.024 83.9956 48.1318 83.8875 48.2037 83.7435C48.2756 83.6355 48.3834 83.5275 48.4553 83.3835C48.4913 83.3475 48.4913 83.3115 48.5272 83.2755C48.5991 83.1675 48.671 83.0235 48.7429 82.9155C48.8148 82.8434 48.8507 82.7354 48.9226 82.6634C48.9586 82.5914 48.9945 82.5194 49.0664 82.4474C49.1742 82.2314 49.318 82.0514 49.4259 81.8354C49.4618 81.7634 49.5337 81.6553 49.5696 81.5833C49.6415 81.4753 49.6775 81.3313 49.7494 81.2233C49.7853 81.1513 49.8213 81.0793 49.8572 81.0073C49.9291 80.8633 50.001 80.7193 50.0729 80.5752C50.0729 80.5392 50.1088 80.5032 50.1088 80.4672C50.1807 80.3232 50.2167 80.2152 50.2526 80.0712C50.3245 79.9272 50.3605 79.7832 50.4324 79.6032C50.684 78.9191 50.9356 78.199 51.1153 77.443C51.1513 77.2629 51.2232 77.0829 51.2591 76.9029C51.2951 76.7229 51.331 76.5429 51.4029 76.3269C51.4388 76.1828 51.4748 76.0388 51.4748 75.8948C51.5107 75.7508 51.5467 75.6068 51.5467 75.4628C51.5826 75.3188 51.5826 75.1748 51.6186 75.0307C51.6545 74.8507 51.6905 74.6707 51.6905 74.5267C51.7264 74.3467 51.7264 74.2027 51.7624 74.0227C51.7624 73.8786 51.7983 73.7706 51.7983 73.6266C51.8343 73.3746 51.8702 73.1226 51.8702 72.8705C51.8702 72.8345 51.8702 72.7985 51.8702 72.7985C51.9061 72.5105 51.9061 72.2585 51.9421 71.9705C51.9421 71.8625 51.9421 71.7184 51.978 71.6104C52.014 71.0344 52.014 70.4583 52.014 69.8463C52.014 69.7743 52.014 69.7383 52.014 69.6663C52.014 69.5223 52.014 69.3782 52.014 69.2342C52.014 69.1982 52.014 69.1622 52.014 69.1262C52.014 68.9822 52.014 68.8382 52.014 68.6582C51.978 68.0461 51.9421 67.3981 51.9061 66.786C51.8702 66.57 51.8702 66.354 51.8342 66.1379C51.7624 65.5979 51.7264 65.0939 51.6545 64.5538C51.6186 64.3018 51.5826 64.0138 51.5467 63.7617C51.5107 63.5097 51.4748 63.2217 51.4029 62.9697C51.4029 62.9337 51.4029 62.8977 51.4029 62.8617C51.3669 62.6456 51.331 62.4296 51.2591 62.2136C51.2232 62.0696 51.2232 61.9616 51.1872 61.8176C51.1513 61.6735 51.1153 61.5295 51.0794 61.3855C51.0434 61.1695 50.9715 60.9535 50.9356 60.7375C50.8637 60.4854 50.8278 60.2694 50.7559 60.0174C50.7199 59.8374 50.648 59.6214 50.6121 59.4413C50.5761 59.3333 50.5402 59.2253 50.5042 59.0813C50.4324 58.9013 50.3964 58.6853 50.3245 58.5053C50.1807 58.0012 50.0369 57.4972 49.8572 56.9931C49.7853 56.7771 49.7134 56.5251 49.6056 56.3091C49.4978 56.021 49.4259 55.769 49.318 55.481C49.2821 55.337 49.2102 55.193 49.1383 55.0489C49.1383 55.0129 49.1023 55.0129 49.1023 54.9769C49.0305 54.7609 48.9226 54.5449 48.8507 54.3289C48.671 53.8608 48.4553 53.3928 48.2396 52.9248C48.1318 52.6727 48.024 52.4567 47.9161 52.2407C47.8802 52.2047 47.8802 52.1327 47.8442 52.0967C47.7723 51.9167 47.6645 51.7367 47.5926 51.5566C47.4848 51.3406 47.3769 51.1246 47.2691 50.9086C47.1613 50.7286 47.0534 50.5125 46.9456 50.3325C46.7299 49.9005 46.4783 49.4684 46.2267 49.0724C46.0829 48.8564 45.975 48.6404 45.8313 48.4244C45.6875 48.2083 45.5796 47.9923 45.4358 47.7763C45.1483 47.3443 44.8607 46.9122 44.5731 46.4802C44.5372 46.4082 44.4653 46.3362 44.4294 46.2642C44.2496 45.9761 44.0339 45.7241 43.8542 45.4361C43.8183 45.4001 43.7823 45.3281 43.7464 45.2921C43.6026 45.1121 43.4948 44.968 43.351 44.788C43.315 44.716 43.2791 44.68 43.2072 44.608C43.0993 44.464 42.9556 44.284 42.8477 44.14C42.5242 43.7079 42.1648 43.3119 41.8053 42.9159C41.7334 42.8078 41.6256 42.7358 41.5537 42.6278C41.3739 42.4478 41.1942 42.2318 41.0145 42.0518C40.9426 41.9438 40.8347 41.8718 40.7629 41.7638C40.6191 41.6197 40.4753 41.4757 40.3674 41.3677C40.2237 41.2237 40.0799 41.1157 39.972 40.9717C39.7923 40.7917 39.6126 40.6477 39.4328 40.5036C39.2531 40.3596 39.0734 40.1796 38.8937 40.0356C38.8218 39.9636 38.7139 39.8916 38.642 39.8196C38.6061 39.7836 38.6061 39.7836 38.5701 39.7836L38.5342 39.7476C38.4623 39.6756 38.3904 39.6396 38.3185 39.5676C38.2826 39.5316 38.2466 39.5316 38.2107 39.4956C38.0669 39.3515 37.8872 39.2435 37.7434 39.1355C37.5637 38.9915 37.3839 38.8475 37.2042 38.7395C37.2042 38.7395 37.1682 38.7395 37.1682 38.7035C36.9885 38.5595 36.7728 38.4155 36.5931 38.3074C36.4493 38.1994 36.3055 38.1274 36.1618 38.0194C36.0539 37.9474 35.9101 37.8754 35.8023 37.8034C35.5147 37.6234 35.2272 37.4434 34.9396 37.2994C34.8317 37.2273 34.7239 37.1553 34.6161 37.1193C34.4723 37.0473 34.3645 36.9753 34.2207 36.9033C33.7534 36.6513 33.2501 36.4353 32.7828 36.2553C32.7828 36.2553 32.7469 36.2553 32.7469 36.2193C32.5312 36.1473 32.3515 36.0752 32.1358 35.9672C32.0639 35.9312 31.992 35.8952 31.9201 35.8952C31.8123 35.8592 31.7404 35.8232 31.6325 35.7872C31.5247 35.7512 31.4528 35.7152 31.345 35.7152C31.2371 35.6792 31.1653 35.6432 31.0574 35.6432C30.9496 35.6072 30.8777 35.5712 30.7698 35.5712C30.662 35.5352 30.5901 35.5352 30.4823 35.4992C30.4104 35.4632 30.3025 35.4632 30.2307 35.4272C30.1228 35.3912 30.015 35.3912 29.9071 35.3552C29.5477 35.2832 29.1882 35.2112 28.8288 35.1752C28.7209 35.1752 28.6131 35.1392 28.4693 35.1392H28.4333C28.2177 35.1032 28.002 35.1032 27.7863 35.1032C27.7144 35.1032 27.6066 35.1032 27.5347 35.1032H27.4987C27.3909 35.1032 27.2471 35.1032 27.1393 35.1032C26.9236 35.1032 26.672 35.1032 26.4563 35.1392C26.3844 35.1392 26.3485 35.1392 26.2766 35.1392C25.7374 35.1752 25.2341 35.2472 24.7309 35.3552C24.5512 35.3912 24.3355 35.4272 24.1558 35.4992L27.8582 34.3831L29.6915 33.843C30.2307 33.735 30.7698 33.663 31.345 33.627C31.3809 33.627 31.3809 33.627 31.4169 33.627C33.0344 33.519 34.7239 33.771 36.4853 34.3471C36.8807 34.4911 37.312 34.6351 37.7074 34.8151C38.3904 35.1032 39.0734 35.4272 39.7564 35.7872C40.7629 36.3273 41.7334 36.9753 42.668 37.6954C43.4588 38.3074 44.2137 38.9555 44.9685 39.6756C45.7234 40.3956 46.4423 41.1517 47.1613 41.9798C47.7723 42.6998 48.3834 43.4559 48.9586 44.248C49.5696 45.0761 50.1448 45.9401 50.684 46.8042C51.1153 47.5243 51.5467 48.2803 51.978 49.0364C52.014 49.1084 52.0499 49.1804 52.0859 49.2884C52.5532 50.1885 53.0205 51.1246 53.4159 52.0607C53.8113 52.9248 54.1348 53.8248 54.4943 54.6889C54.8537 55.661 55.1772 56.6691 55.4648 57.6772C55.4648 57.7132 55.5007 57.7852 55.5007 57.8212C55.7524 58.7213 55.968 59.5854 56.1478 60.4854C56.3635 61.5295 56.5432 62.6096 56.687 63.6897C56.8308 64.6978 56.9026 65.7059 56.9745 66.714C56.9386 67.182 56.9745 67.7941 56.9745 68.3701Z" fill="url(#paint5_linear)"/>
<path d="M47.1253 86.8758C46.9096 86.9478 46.6939 87.0198 46.4783 87.0918L47.1253 86.8758Z" fill="#E0ECFF"/>
<path d="M51.8343 66.174C51.7624 65.6339 51.7264 65.1299 51.6545 64.5898C51.7264 65.1299 51.7624 65.6339 51.8343 66.174Z" fill="#E0ECFF"/>
<path d="M52.014 69.8823C52.014 75.8949 50.4683 80.7913 47.9162 84.1396C47.8443 84.2476 47.7724 84.3196 47.7005 84.4276C46.694 85.6877 45.5078 86.6958 44.2137 87.4519C44.0699 87.5239 43.9261 87.6319 43.7464 87.7039C43.2791 87.956 42.7759 88.172 42.2726 88.352C42.2726 88.352 42.2367 88.352 42.2367 88.388C41.9491 88.496 41.6975 88.568 41.4099 88.64C38.8218 89.3241 35.9102 89.1081 32.8188 87.8479C22.1788 83.4916 13.5517 68.4062 13.5517 54.1489C13.5517 44.6801 17.362 37.9475 23.0055 35.7873C23.1852 35.7153 23.365 35.6432 23.5807 35.5712L24.1198 35.4272H24.1917C24.3715 35.3912 24.5871 35.3192 24.7669 35.2832C25.2701 35.1752 25.7734 35.1032 26.3126 35.0672C26.3844 35.0672 26.4204 35.0672 26.4923 35.0672C28.4334 34.9232 30.5542 35.2832 32.7829 36.1833C33.2861 36.3993 33.7893 36.6153 34.2566 36.8674C35.8742 37.6954 37.4558 38.7755 38.9296 40.0356C46.5143 46.5522 51.9781 58.3613 52.05 69.7023C52.014 69.7743 52.014 69.8103 52.014 69.8823Z" fill="url(#paint6_linear)"/>
<path d="M47.2332 68.2262C47.2332 72.9786 46.011 76.831 43.9981 79.4952C43.1354 80.6113 42.1648 81.4754 41.0505 82.1234C40.9426 82.1954 40.7989 82.2674 40.691 82.3034C40.3316 82.4835 39.9361 82.6635 39.5407 82.8075H39.5048C39.2891 82.8795 39.0734 82.9515 38.8578 83.0235C36.8088 83.5636 34.5083 83.3835 32.064 82.3755C23.6526 78.9551 16.8588 67.0381 16.8588 55.7691C16.8588 48.0644 20.058 42.6279 24.7669 41.1157L25.1623 41.0077H25.1983C25.342 40.9717 25.5218 40.9357 25.6656 40.8997C26.061 40.8277 26.4564 40.7557 26.8877 40.7197C26.9237 40.7197 26.9956 40.7197 27.0315 40.7197C28.5772 40.6477 30.2667 40.9357 31.9921 41.6558C32.3875 41.7998 32.7829 41.9798 33.1783 42.1958C34.4723 42.8439 35.6945 43.708 36.8448 44.7161C42.8118 49.8645 47.1254 59.1894 47.1973 68.1182C47.2332 68.1182 47.2332 68.1902 47.2332 68.2262Z" fill="url(#paint7_linear)"/>
<path d="M36.4494 34.2391L32.7829 36.2193C32.7829 36.2193 32.7469 36.2193 32.7469 36.1833C32.5313 36.1113 32.3515 36.0393 32.1359 35.9313C32.064 35.8953 31.9921 35.8592 31.9202 35.8592C31.8123 35.8232 31.7404 35.7872 31.6326 35.7512C31.5248 35.7152 31.4529 35.6792 31.345 35.6792C31.2372 35.6432 31.1653 35.6072 31.0575 35.6072C30.9496 35.5712 30.8777 35.5352 30.7699 35.5352C30.6621 35.4992 30.5902 35.4992 30.4823 35.4632C30.4104 35.4272 30.3026 35.4272 30.2307 35.3912C30.1229 35.3552 30.015 35.3552 29.9072 35.3192C29.5477 35.2472 29.1883 35.1752 28.8288 35.1392C28.721 35.1392 28.6131 35.1032 28.4694 35.1032H28.4334L31.3091 33.555C31.345 33.555 31.345 33.555 31.381 33.555C32.9986 33.411 34.688 33.6631 36.4494 34.2391Z" fill="url(#paint8_linear)"/>
<path d="M42.668 37.5874L38.6061 39.7836L38.5702 39.7476C38.4983 39.6756 38.4264 39.6396 38.3545 39.5676C38.3185 39.5316 38.2826 39.5316 38.2466 39.4956C38.1029 39.3516 37.9231 39.2436 37.7793 39.1356C37.5996 38.9916 37.4199 38.8475 37.2402 38.7395C37.2402 38.7395 37.2042 38.7395 37.2042 38.7035C37.0245 38.5595 36.8088 38.4155 36.6291 38.3075C36.4853 38.1995 36.3415 38.1275 36.1977 38.0195C36.0899 37.9475 35.9461 37.8755 35.8383 37.8035L39.7564 35.6793C40.7269 36.2193 41.6975 36.8674 42.668 37.5874Z" fill="url(#paint9_linear)"/>
<path d="M47.1253 41.8718L42.8477 44.176C42.5242 43.7439 42.1648 43.3479 41.8053 42.9519C41.7334 42.8439 41.6256 42.7718 41.5537 42.6638C41.374 42.4838 41.1942 42.2678 41.0145 42.0878C40.9426 41.9798 40.8348 41.9078 40.7629 41.7998L44.9326 39.5316C45.7234 40.2516 46.4423 41.0437 47.1253 41.8718Z" fill="url(#paint10_linear)"/>
<path d="M50.648 46.6602L46.2266 49.0364C46.0829 48.8204 45.975 48.6044 45.8312 48.3884C45.6874 48.1724 45.5796 47.9563 45.4358 47.7403C45.1483 47.3083 44.8607 46.8763 44.5731 46.4442L48.9226 44.104C49.5337 44.9321 50.1088 45.7962 50.648 46.6602Z" fill="url(#paint11_linear)"/>
<path d="M53.38 51.9167L48.8508 54.3649C48.671 53.8969 48.4554 53.4289 48.2397 52.9608C48.1318 52.7088 48.024 52.4928 47.9162 52.2768C47.8802 52.2408 47.8802 52.1687 47.8443 52.1327C47.7724 51.9527 47.6645 51.7727 47.5927 51.5927L52.05 49.1805C52.5173 50.0446 52.9486 50.9446 53.38 51.9167Z" fill="url(#paint12_linear)"/>
<path d="M55.393 57.5332L50.72 60.0534C50.6841 59.8734 50.6122 59.6574 50.5762 59.4774C50.5403 59.3694 50.5043 59.2613 50.4684 59.1173C50.3965 58.9373 50.3605 58.7213 50.2886 58.5413C50.1449 58.0372 50.0011 57.5332 49.8214 57.0291L54.4224 54.5449C54.7819 55.517 55.1054 56.5251 55.393 57.5332Z" fill="url(#paint13_linear)"/>
<path d="M56.651 63.5457L51.8342 66.1379C51.7624 65.5979 51.7264 65.0939 51.6545 64.5538C51.6186 64.3018 51.5826 64.0138 51.5467 63.7617C51.5107 63.5097 51.4748 63.2217 51.4029 62.9697C51.4029 62.9337 51.4029 62.8977 51.4029 62.8617L56.1118 60.3054C56.3275 61.4215 56.5072 62.5016 56.651 63.5457Z" fill="url(#paint14_linear)"/>
<path d="M56.9746 68.3702C56.9746 68.5502 56.9746 68.6942 56.9746 68.8742C56.9746 69.3063 56.9386 69.7023 56.9386 70.1343L51.9062 72.8346C51.9421 72.5465 51.9421 72.2945 51.9781 72.0065C51.9781 71.8985 51.9781 71.7545 52.014 71.6465C52.05 71.0704 52.05 70.4944 52.05 69.8823C52.05 69.8103 52.05 69.7743 52.05 69.7023C52.05 69.5583 52.05 69.4143 52.05 69.2702L56.9386 66.57C56.9386 67.1821 56.9746 67.7941 56.9746 68.3702Z" fill="url(#paint15_linear)"/>
<path d="M56.5432 73.5187C56.4354 74.2387 56.2916 74.9228 56.1119 75.5709C55.9321 76.2549 55.7524 76.939 55.5008 77.587L50.001 80.5753C50.001 80.5393 50.037 80.5033 50.037 80.4673C50.1089 80.3233 50.1448 80.2153 50.1808 80.0713C50.2527 79.9272 50.2886 79.7832 50.3605 79.6032C50.6121 78.9192 50.8637 78.1991 51.0435 77.443C51.0794 77.263 51.1513 77.083 51.1873 76.903C51.2232 76.723 51.2591 76.5429 51.331 76.3269L56.5432 73.5187Z" fill="url(#paint16_linear)"/>
<path d="M53.3081 82.0154C52.014 83.8515 50.4684 85.2917 48.6351 86.2278C48.1319 86.4798 47.6286 86.6958 47.1254 86.8758C46.9097 86.9478 46.694 87.0198 46.4783 87.0918L42.2726 88.388C42.7759 88.2079 43.2791 87.9919 43.7464 87.7399C43.8902 87.6679 44.034 87.5599 44.2137 87.4879C44.681 87.2359 45.1124 86.9118 45.5437 86.5878C45.6156 86.5518 45.6516 86.4798 45.7235 86.4438C46.011 86.2278 46.2627 85.9757 46.5143 85.7597C46.5502 85.7237 46.5862 85.7237 46.5862 85.6877L53.3081 82.0154Z" fill="url(#paint17_linear)"/>
<path d="M25.5936 52.1328C25.5936 51.5207 25.5936 50.8726 25.5936 50.2606C26.7439 51.1607 27.8942 52.0247 29.0804 52.9248C29.0804 52.9248 29.1163 52.9248 29.1523 52.9608C29.1523 51.9887 29.1523 51.0527 29.1523 50.0806C29.7274 50.5126 30.3026 50.9806 30.8777 51.4127C30.8777 52.3488 30.8777 53.2849 30.8777 54.2209C31.345 54.581 31.8123 54.941 32.2796 55.301C32.2796 54.365 32.2796 53.4289 32.2796 52.4928C32.8547 52.9608 33.4658 53.3929 34.041 53.8609C34.041 53.8969 34.041 53.8969 34.041 53.9329C34.041 54.833 34.041 55.7331 34.041 56.6332C34.041 56.6692 34.041 56.7052 34.041 56.7412C34.1129 56.8132 34.1847 56.8492 34.2566 56.9212C34.8318 57.4252 35.371 57.9293 35.9461 58.5413C36.5572 59.1894 37.1323 59.9095 37.5637 60.7015C38.1029 61.6376 38.2826 62.4657 38.3185 63.2578C38.3545 64.4819 37.9231 65.0579 36.8807 64.8059C36.8807 64.8059 36.8448 64.8059 36.8088 64.8059C36.9166 64.9139 36.9885 65.0219 37.0964 65.0939C37.2042 65.2019 37.2761 65.3099 37.3839 65.3819C38.3545 66.462 39.0375 67.6141 39.2531 68.8383C39.2891 69.0543 39.325 69.2343 39.361 69.4503C39.361 69.7023 39.361 69.9544 39.361 70.2064C39.361 70.2424 39.325 70.2784 39.325 70.3144C39.2531 70.8904 39.1094 71.3945 38.7858 71.6465C38.3545 72.0065 37.7075 71.9705 36.9166 71.6465C36.1977 71.3585 35.4429 70.8904 34.688 70.3864C34.4723 70.2424 34.2566 70.0984 34.041 69.9544C34.041 69.9904 34.041 70.0264 34.041 70.0624C34.041 70.9625 34.041 71.8625 34.041 72.7626C34.041 72.7986 34.041 72.8346 34.041 72.8706C33.4658 72.4026 32.8547 71.9705 32.2796 71.5025C32.2796 70.5664 32.2796 69.5943 32.2796 68.6222C31.8123 68.2622 31.345 67.9022 30.8777 67.5421C30.8777 68.5142 30.8777 69.4503 30.8777 70.4224C30.3026 69.9904 29.7274 69.5223 29.1523 69.0903C29.1523 68.1182 29.1523 67.1461 29.1523 66.174C29.0804 66.138 29.0445 66.102 29.0085 66.066C28.2177 65.454 27.4628 64.8779 26.672 64.2658C26.3125 64.0138 25.989 63.7258 25.6296 63.4738C25.6296 63.4378 25.6296 63.4378 25.6296 63.4018C25.6655 63.2578 25.7015 63.1137 25.7374 62.9337C25.8093 62.5017 25.8812 62.0696 25.989 61.6376C26.0609 61.6736 26.0969 61.7096 26.1688 61.7456C26.5282 62.0336 26.9236 62.3217 27.2831 62.6097C27.7144 62.9337 27.9301 62.8617 27.9301 62.4297C27.9301 59.8734 27.9301 57.3172 27.9301 54.725C27.9301 54.653 27.9301 54.581 27.8942 54.509C27.7863 54.0049 27.4628 53.5369 26.9955 53.1408C26.4923 52.8168 26.025 52.4568 25.5936 52.1328ZM30.9137 61.6016C30.9137 62.8977 30.9137 64.1938 30.9137 65.454C30.9496 65.49 30.9496 65.49 30.9496 65.49C31.8123 66.138 32.6391 66.8221 33.5018 67.3261C34.041 67.6501 34.5802 67.9382 35.0475 68.0102C35.9102 68.1542 36.0899 67.1101 35.4069 65.85C35.1193 65.3459 34.7599 64.8779 34.3645 64.4819C33.6815 63.7258 32.9626 63.1497 32.2437 62.5737C31.8123 62.2857 31.3809 61.9616 30.9137 61.6016ZM30.9137 59.8374C30.9496 59.8734 30.9855 59.9094 30.9855 59.9094C31.6326 60.3775 32.2796 60.8815 32.9626 61.3496C33.3939 61.6736 33.8612 61.8536 34.2566 61.9256C35.0475 62.0696 35.2631 61.2416 34.7599 60.1255C34.5083 59.6214 34.1847 59.1534 33.7893 58.7573C33.2142 58.1093 32.6031 57.6052 31.992 57.1372C31.6326 56.8492 31.3091 56.5972 30.9496 56.3451C30.9136 57.5332 30.9137 58.6853 30.9137 59.8374Z" fill="white"/>
<path d="M52.014 69.8823C52.014 75.8948 50.4683 80.7913 47.9162 84.1396C47.8443 84.2476 47.7724 84.3196 47.7005 84.4276C33.4299 79.3512 22.8618 61.2415 22.8618 39.6756C22.8618 38.3435 22.8977 37.0473 22.9696 35.7512C23.1493 35.6792 23.3291 35.6072 23.5447 35.5352L24.0839 35.3912H24.1558C24.3355 35.3552 24.5512 35.2832 24.731 35.2472C25.2342 35.1392 25.7374 35.0672 26.2766 35.0312C26.3485 35.0312 26.3845 35.0312 26.4564 35.0312C28.4334 34.9231 30.5542 35.2832 32.7829 36.1833C33.2861 36.3993 33.7894 36.6153 34.2567 36.8673C35.8742 37.6954 37.4559 38.7755 38.9297 40.0356C46.5143 46.5522 51.9781 58.3613 52.05 69.7023C52.014 69.7743 52.014 69.8103 52.014 69.8823Z" fill="url(#paint18_linear)"/>
<path d="M69.0884 30.6395C69.0884 30.6395 69.4838 30.7476 69.4838 30.7836C69.2322 31.3596 68.5851 31.8277 68.2616 32.4037L68.2257 32.4397C67.8662 32.9798 67.9381 33.5918 67.6146 34.0599C67.1113 34.7439 66.6081 35.392 66.033 35.968C65.8173 36.184 65.5657 36.4001 65.35 36.6161C65.2422 36.7241 65.1343 36.8321 64.9905 36.9041C64.4873 37.3362 63.9121 37.7322 63.3011 38.0922C62.0789 38.7763 60.7848 39.2803 59.7065 39.3883C59.347 39.4243 59.0235 39.4243 58.664 39.4243C58.5562 39.4243 58.5562 39.0283 58.4483 39.0283C58.4124 39.0283 58.3764 38.9923 58.3046 39.0283C57.981 38.9563 57.6935 38.8843 57.37 38.7403C57.1902 38.6683 56.9386 38.5603 56.7589 38.4883C55.7164 37.9122 54.8897 36.9401 54.4224 35.716C53.4518 33.2678 53.7035 29.8475 55.2491 26.5712C55.3929 26.2832 55.5727 25.9231 55.7524 25.6351C56.0759 24.987 56.4713 24.411 56.9027 23.8349C57.8732 22.5028 58.9875 21.3867 60.1737 20.5946C61.5756 19.6226 63.0494 19.0825 64.4513 19.0105C64.8827 19.0105 65.314 19.0105 65.7094 19.1185C66.2127 19.1905 66.7159 19.3705 67.1832 19.6226C67.363 19.7306 67.5786 19.8386 67.7584 19.9826C68.0459 20.1626 68.2616 20.3786 68.4773 20.6306C68.6211 20.8107 68.7649 20.9547 68.8727 21.1347C69.0165 21.3147 69.5197 21.6387 69.6276 21.8548C69.9511 22.4308 70.1668 23.1149 70.3105 23.7989C70.4184 24.339 70.4903 24.879 70.4903 25.4551C70.5262 26.0671 70.0949 26.6072 69.987 27.2552L70.3824 27.3633C70.3105 27.9393 70.2027 28.5154 70.023 29.0914L69.6276 28.9834C69.4838 29.5234 69.3041 30.0635 69.0884 30.6395Z" fill="url(#paint19_linear)"/>
<path d="M59.4548 35.6431C59.2032 35.5711 58.9875 35.5711 58.8078 35.4271C58.7 35.3911 58.5202 35.3191 58.4124 35.2471C57.6575 34.8151 57.1183 34.131 56.7948 33.3029C56.1837 31.6468 56.3635 29.3786 57.4418 27.1104C57.5137 26.9304 57.6216 26.7143 57.6935 26.5703C57.9451 26.1023 58.2327 25.7063 58.4843 25.3102C59.9221 23.4021 61.7913 22.2139 63.4448 22.1059C64.1278 22.0339 64.7748 22.1779 65.35 22.466C65.4938 22.538 65.6016 22.61 65.7094 22.718C65.8892 22.826 66.033 22.97 66.1767 23.15C66.2486 23.222 66.3205 23.33 66.3924 23.4381C67.4708 24.9142 67.5786 27.3984 66.6081 29.8826C66.4284 30.3147 66.2486 30.7467 66.033 31.1787C65.8173 31.5388 65.6376 31.8628 65.4219 32.1508C63.7684 34.5991 61.3959 35.9672 59.4548 35.6431Z" fill="url(#paint20_linear)"/>
<path d="M71.8922 28.2625C71.8203 28.8385 71.7124 29.4146 71.5687 29.9907C71.4249 30.5307 71.2451 31.1068 70.9935 31.6468C70.9935 31.6468 70.9935 31.6828 70.9576 31.6828C70.7419 32.2589 70.4903 32.8349 70.1308 33.411C69.7354 33.951 69.4119 34.4911 69.0524 34.9951C68.657 35.5351 68.2257 36.0392 67.8303 36.5432C67.363 37.0473 66.9316 37.4793 66.4643 37.8754C65.9611 38.3074 65.4219 38.6674 64.8827 38.9555C64.1638 39.3515 63.4448 39.6395 62.7259 39.8915C61.9711 40.1076 61.2162 40.1436 60.4973 40.0716C60.2456 40.0356 59.994 39.9995 59.7783 39.9275C59.4908 39.8555 59.2392 39.7475 58.9875 39.6395C58.8797 39.6035 58.0529 39.1355 57.9091 39.0635L56.9745 38.5594C57.0105 38.5594 57.0464 38.5954 57.0824 38.5954C57.1902 38.6314 57.334 38.7034 57.4418 38.7034C57.7654 38.8474 58.0529 38.9195 58.3764 38.9915C58.5202 39.0275 58.664 39.0275 58.8437 39.0275H58.8797C59.5627 39.0635 60.2456 38.9915 60.9646 38.8114H61.0005C61.6835 38.6314 62.3665 38.3074 63.0494 37.9474H63.0854C63.1213 37.9114 63.1573 37.9114 63.1932 37.9114C63.6965 37.6233 64.1997 37.2633 64.703 36.8313C64.703 36.8313 64.703 36.8313 64.7389 36.8313C65.2062 36.4352 65.6376 36.0032 66.0689 35.5712C66.0689 35.5712 66.0689 35.5712 66.1048 35.5712C66.5362 35.1031 66.9676 34.5991 67.327 34.023C67.6146 33.627 67.9022 33.1949 68.1178 32.7269C68.1538 32.6549 68.1897 32.5829 68.2257 32.5109C68.2257 32.5109 68.2257 32.4749 68.2616 32.4749C68.2616 32.4749 68.2616 32.4749 68.2616 32.4389C68.5851 31.8628 68.8727 31.2508 69.0884 30.6747C69.0884 30.6027 69.1603 30.5307 69.1603 30.4587L69.1962 30.4227C69.1962 30.3867 69.2322 30.3507 69.2322 30.3147C69.2322 30.2787 69.2681 30.2427 69.2681 30.2067C69.2681 30.1707 69.3041 30.1707 69.3041 30.1347C69.34 30.0267 69.3759 29.9186 69.4119 29.8106C69.4478 29.6666 69.5197 29.5226 69.5557 29.3786C69.5916 29.2346 69.6276 29.0906 69.6995 28.9826V28.9466C69.8432 28.3705 69.9511 27.7945 70.0589 27.2184V27.1824V27.1464V27.1104C70.1308 26.6063 70.1668 26.1383 70.1668 25.6703C70.1668 25.5623 70.1668 25.4182 70.1668 25.3102C70.1668 24.7342 70.0949 24.1581 70.023 23.6541C69.8792 22.97 69.6635 22.286 69.34 21.6739C69.2322 21.4939 69.0884 21.2779 68.9805 21.0979C68.9805 21.0979 68.9805 21.0979 68.9805 21.0618C68.9086 20.9538 68.8368 20.8818 68.8008 20.7738C68.7649 20.7378 68.7289 20.6658 68.693 20.6298C68.657 20.5938 68.6211 20.5578 68.6211 20.5218C68.5492 20.4498 68.5132 20.4138 68.4413 20.3418L68.4054 20.3058C68.3695 20.2698 68.2976 20.1978 68.2616 20.1618C68.2257 20.1258 68.1538 20.0898 68.1178 20.0178C68.0459 19.9818 67.974 19.9097 67.9022 19.8737C67.9022 19.8737 67.8662 19.8737 67.8662 19.8377C67.8303 19.8017 67.7584 19.7657 67.7224 19.7297C67.6865 19.7297 67.6865 19.6937 67.6505 19.6937H67.6865L69.5197 20.7018L69.3759 20.6298C69.6995 20.8458 70.0589 21.1339 70.3465 21.4219C70.4903 21.6019 70.6341 21.7459 70.7778 21.9259C70.8138 21.9619 70.8138 21.9619 70.8138 21.9979C71.2092 22.574 71.5687 23.258 71.7484 23.9781C71.7484 24.0141 71.7484 24.0141 71.7484 24.0501C71.9281 24.6982 72.036 25.3822 72.0719 26.1743V26.2103C72.0719 26.3903 72.0719 26.5703 72.0719 26.7504C72 27.3264 71.9641 27.7945 71.8922 28.2625Z" fill="url(#paint21_linear)"/>
<path d="M70.0589 33.447L69.0883 35.0311L67.2551 33.9871C67.6145 33.519 67.9021 33.015 68.1897 32.4749L70.0589 33.447Z" fill="url(#paint22_linear)"/>
<path d="M67.8662 36.5433C67.3989 37.0473 66.9675 37.4793 66.5002 37.8754L64.7029 36.8313C64.7029 36.8313 64.7029 36.8313 64.7389 36.8313C65.2062 36.4352 65.6375 36.0032 66.0689 35.5712L67.8662 36.5433Z" fill="url(#paint23_linear)"/>
<path d="M64.8827 38.9555C64.1637 39.3515 63.4448 39.6395 62.7259 39.8556L60.9645 38.8115H61.0005C61.6835 38.6314 62.3664 38.3074 63.0494 37.9474L64.8827 38.9555Z" fill="url(#paint24_linear)"/>
<path d="M60.4973 40.0356C59.9581 39.9636 59.4549 39.8556 58.9876 39.6036C58.8797 39.5676 58.053 39.0995 57.9092 39.0635L57.1183 38.6315C57.2262 38.6675 57.37 38.7035 57.4778 38.7395C57.7654 38.8835 58.0889 38.9555 58.4124 39.0275C58.5562 39.0635 58.7 39.0635 58.8438 39.0635H58.8797L60.4973 40.0356Z" fill="url(#paint25_linear)"/>
<path d="M71.5686 30.0267C71.4248 30.6028 71.2451 31.1428 70.9935 31.6828C70.9935 31.6828 70.9934 31.7188 70.9575 31.7188L69.0524 30.6388V30.6027C69.0883 30.5307 69.1243 30.4587 69.1243 30.3867C69.1602 30.3147 69.1961 30.2427 69.1961 30.2067C69.268 30.0267 69.3399 29.8467 69.3759 29.6667C69.4118 29.5587 69.4478 29.4866 69.4837 29.3786C69.5197 29.2346 69.5556 29.0906 69.6275 28.9826L71.5686 30.0267Z" fill="url(#paint26_linear)"/>
<path d="M71.8922 28.2625L69.9871 27.2184C69.9871 27.1824 69.9871 27.1824 69.9871 27.1464C70.059 26.6424 70.0949 26.1743 70.0949 25.6703C70.0949 25.5623 70.0949 25.4183 70.0949 25.3102L71.9641 26.3183C71.9641 26.4983 71.9641 26.6784 71.9641 26.8584C72 27.3264 71.9641 27.7945 71.8922 28.2625Z" fill="url(#paint27_linear)"/>
<path d="M71.6405 24.1222L69.987 23.6901C69.8432 23.0061 69.6275 22.322 69.304 21.71L70.67 22.07C70.7059 22.106 70.7059 22.106 70.7059 22.142C71.1373 22.682 71.4608 23.3661 71.6405 24.1222Z" fill="url(#paint28_linear)"/>
<path opacity="0.5" d="M70.023 27.1824C70.023 27.2184 70.023 27.2184 70.023 27.1824C70.023 27.2184 70.023 27.2184 70.023 27.1824C69.9151 27.7945 69.8073 28.3705 69.6635 28.9106V28.9466C69.6276 29.0906 69.5916 29.2346 69.5557 29.3426C69.5197 29.4866 69.4478 29.6306 69.4119 29.7747C69.3759 29.8827 69.34 29.9907 69.304 30.0987C69.304 30.1347 69.2681 30.1347 69.2681 30.1707C69.2681 30.2067 69.2321 30.2427 69.2321 30.2787C69.2321 30.3147 69.1962 30.3507 69.1962 30.3867L69.1602 30.4227C69.1602 30.4947 69.0884 30.5667 69.0884 30.6387C68.8367 31.2148 68.5851 31.8268 68.2616 32.4029C68.2616 32.4029 68.2616 32.4029 68.2616 32.4389C68.2616 32.4389 68.2616 32.4749 68.2257 32.4749C68.1897 32.5469 68.1538 32.6189 68.1178 32.6909C67.8662 33.159 67.6146 33.591 67.327 33.987C66.9675 34.5631 66.5362 35.0671 66.1048 35.5352C66.1048 35.5352 66.1048 35.5352 66.0689 35.5352C65.6375 36.0032 65.2062 36.4353 64.7389 36.7953C64.7389 36.7953 64.7389 36.7953 64.7029 36.7953C64.2356 37.2273 63.7324 37.5514 63.1932 37.8754C60.3535 33.483 59.2032 27.1824 60.2456 20.5218C61.6475 19.5497 63.1213 19.0097 64.5232 18.9377C64.9546 18.9377 65.3859 18.9377 65.8173 19.0457C66.3205 19.1177 66.8238 19.2977 67.2911 19.5497C67.3989 19.6217 67.5427 19.6938 67.6505 19.7658H67.6146C67.6505 19.7658 67.6865 19.8018 67.6865 19.8018C67.7224 19.8378 67.7943 19.8738 67.8302 19.9098C67.8302 19.9098 67.8662 19.9098 67.8662 19.9458C67.9381 19.9818 68.01 20.0538 68.0819 20.0898C68.1178 20.1258 68.1897 20.1618 68.2257 20.2338C68.2616 20.2698 68.3335 20.3418 68.3694 20.3778L68.4054 20.4138C68.4413 20.4498 68.5132 20.5218 68.5492 20.5578C68.5851 20.5938 68.6211 20.6298 68.657 20.7018C68.693 20.7378 68.7289 20.8099 68.7648 20.8459C68.8367 20.9179 68.9086 21.0259 68.9446 21.0979L68.9805 21.1339C69.0884 21.3139 69.2321 21.5299 69.34 21.7099C69.6635 22.322 69.8792 22.97 70.023 23.6901C70.1308 24.1942 70.1667 24.7702 70.1667 25.3463C70.1667 25.4543 70.1667 25.5983 70.1667 25.7063C70.1308 26.2103 70.1308 26.6784 70.0589 27.1464C70.023 27.1464 70.023 27.1824 70.023 27.1824Z" fill="url(#paint29_linear)"/>
<path opacity="0.5" d="M70.671 26.2827C70.6346 26.2827 70.6346 26.2463 70.5981 26.2463H70.6346L70.671 26.2827Z" fill="url(#paint30_linear)"/>
<path opacity="0.5" d="M69.1962 30.3147C69.1962 30.2787 69.2322 30.2427 69.2322 30.2067C69.2322 30.1707 69.2681 30.1707 69.2681 30.1347C69.2681 30.2067 69.2322 30.2427 69.1962 30.3147Z" fill="url(#paint31_linear)"/>
<path d="M61.5397 29.8827L62.0789 28.3706L62.9416 27.9025L63.2651 27.0024V26.9664L62.4024 27.4345L63.3011 24.9142L61.6475 25.2023L60.4613 28.4786L59.7784 28.8386L59.4548 29.7387L60.1378 29.3786L59.4548 31.3228L63.8403 30.5668L64.2716 29.3426L61.5397 29.8827Z" fill="white"/>
<path d="M50.6121 10.3329C50.6121 11.125 50.5043 11.8451 50.2886 12.4571C50.2886 12.4931 50.2886 12.5291 50.2527 12.5291C49.9651 13.3212 49.5337 13.9693 49.0305 14.4013C48.8508 14.5453 48.671 14.6533 48.4913 14.7253C48.2756 14.8334 48.024 14.9054 47.7724 14.9414C47.7005 14.9414 47.5567 14.9774 47.4489 14.9774C47.2691 14.9774 47.1254 14.9414 46.9816 14.9414C46.8737 14.9054 46.7659 14.9054 46.6581 14.8694C46.5502 14.8334 46.2626 14.8694 46.1548 14.7973C45.8672 14.6533 45.5797 14.4733 45.3281 14.2213C45.1483 14.0413 44.9686 13.8253 44.7889 13.6092C44.6091 13.3572 44.6091 13.0332 44.4653 12.7452L44.2856 12.8172C44.1418 12.5651 44.034 12.3131 43.9262 12.0251L44.1059 11.9531C43.9981 11.7011 43.9262 11.413 43.8543 11.125L43.6745 11.197C43.6026 10.909 43.7105 10.513 43.6745 10.1889V10.1529C43.6745 9.8289 43.4589 9.61288 43.4589 9.32486C43.4589 8.89282 43.4948 8.49678 43.5308 8.10075C43.5667 7.95673 43.5667 7.81272 43.6026 7.66871C43.6026 7.5967 43.6386 7.5247 43.6386 7.45269C43.7105 7.12866 43.8183 6.80463 43.9621 6.4806C44.2497 5.86855 44.6091 5.29249 45.0045 4.93246C45.1483 4.82445 45.2562 4.71644 45.3999 4.64444C45.4359 4.60843 45.5797 4.78845 45.6156 4.75245C45.6156 4.75245 45.6516 4.75245 45.6875 4.71644C45.8313 4.64444 45.9751 4.57243 46.1189 4.57243C46.1548 4.57243 46.2267 4.53643 46.2626 4.53643C46.3345 4.53643 46.3705 4.50042 46.4424 4.50042C47.0175 4.42842 47.6286 4.57243 48.1678 4.93246C49.2462 5.61652 50.1448 7.02065 50.4683 8.78481C50.5043 8.96482 50.5043 9.14484 50.5402 9.28885C50.5762 9.64889 50.6121 9.97291 50.6121 10.3329Z" fill="url(#paint32_linear)"/>
<path d="M46.1908 6.37257C46.2987 6.33656 46.4065 6.26456 46.5143 6.26456C46.5862 6.26456 46.6581 6.22855 46.73 6.22855C47.1614 6.19255 47.5568 6.30056 47.9162 6.55258C48.6352 7.02062 49.2103 7.99271 49.426 9.18082C49.426 9.28883 49.4619 9.39684 49.4979 9.46884C49.5338 9.72087 49.5338 9.97289 49.5338 10.1889C49.5338 11.341 49.1384 12.3491 48.4914 12.8892C48.2398 13.1052 47.9522 13.2492 47.6287 13.2852C47.5568 13.2852 47.4849 13.2852 47.413 13.2852C47.3052 13.2852 47.1973 13.2852 47.0895 13.2492C47.0176 13.2492 46.9816 13.2132 46.9457 13.2132C46.083 12.9252 45.3281 11.9891 45.0046 10.729C44.9327 10.5129 44.8968 10.2969 44.8608 10.0449C44.8249 9.82888 44.8249 9.64886 44.8249 9.46884C44.7889 8.02871 45.3281 6.8046 46.1908 6.37257Z" fill="url(#paint33_linear)"/>
<path d="M47.6296 14.9775H47.5937H47.5577L46.5512 15.0856H46.6231C46.4075 15.0856 46.1918 15.0856 46.012 15.0496C45.9042 15.0135 45.7964 15.0135 45.6885 14.9775H45.6526C45.3291 14.8695 45.0056 14.6895 44.718 14.4375C44.718 14.4375 44.718 14.4375 44.682 14.4015C44.4304 14.1855 44.1788 13.9695 43.9631 13.6454C43.9272 13.5734 43.8553 13.5014 43.8193 13.4294C43.6756 13.2494 43.5677 13.0334 43.4599 12.8534C43.3161 12.6013 43.2083 12.3493 43.1004 12.0613C42.9926 11.8093 42.9207 11.5212 42.8488 11.2332V11.1972C42.7769 10.9092 42.705 10.5851 42.6691 10.2971C42.6691 9.97309 42.6331 9.64907 42.6331 9.36104C42.6331 9.03701 42.6691 8.71298 42.6691 8.38895C42.705 8.06492 42.7769 7.74089 42.8488 7.48887C42.9207 7.16484 43.0285 6.87682 43.1723 6.58879C43.352 6.22876 43.5318 5.90473 43.7474 5.6167C43.9991 5.32868 44.2866 5.07665 44.5742 4.89664C44.682 4.82463 44.7899 4.78863 44.8977 4.75263C45.0415 4.71662 45.1493 4.68062 45.2931 4.64462C45.365 4.60861 45.7964 4.57261 45.8683 4.53661L46.4434 4.4646C46.4075 4.4646 46.3715 4.4646 46.3356 4.5006C46.2637 4.53661 46.2277 4.53661 46.1558 4.57261C45.9761 4.60861 45.8683 4.68062 45.6885 4.71662C45.6166 4.75263 45.5447 4.78863 45.5088 4.82463C45.2212 5.00465 44.9696 5.22067 44.7539 5.50869C44.5383 5.79672 44.3585 6.08475 44.1788 6.44478C44.1788 6.44478 44.1788 6.44478 44.1788 6.48078V6.51678C44.071 6.76881 43.9631 7.05683 43.8912 7.38086C43.8193 7.66889 43.7474 7.95691 43.7115 8.28094C43.6756 8.56897 43.6396 8.929 43.6756 9.25303C43.6756 9.50505 43.6756 9.75707 43.7115 10.0091C43.7115 10.0451 43.7115 10.0811 43.7115 10.1171C43.7474 10.4411 43.8193 10.7652 43.8912 11.0532C43.8912 11.0892 43.8912 11.1252 43.9272 11.1612C43.9272 11.1972 43.9272 11.2332 43.9631 11.2692C43.9991 11.3412 43.9991 11.4132 44.035 11.4852C44.071 11.5572 44.071 11.6292 44.1069 11.7012C44.1429 11.7733 44.1429 11.8453 44.1788 11.8813C44.2866 12.1693 44.3945 12.4213 44.5383 12.6733C44.5383 12.6733 44.5383 12.7093 44.5742 12.7093C44.682 12.9254 44.8258 13.1054 44.9337 13.3214C44.9696 13.3574 45.0056 13.4294 45.0415 13.4654C45.2212 13.6814 45.401 13.8974 45.5807 14.0775C45.8323 14.3295 46.1199 14.5095 46.4075 14.6535C46.5153 14.6895 46.5872 14.7255 46.695 14.7615C46.695 14.7615 46.695 14.7615 46.731 14.7615C46.8029 14.7975 46.8388 14.7975 46.9107 14.8335C46.9466 14.8335 47.0185 14.8695 47.0545 14.8695C47.0904 14.8695 47.1264 14.8695 47.1623 14.9055C47.2702 14.9415 47.4139 14.9415 47.5218 14.9415C47.4858 14.9775 47.5577 14.9775 47.6296 14.9775Z" fill="url(#paint34_linear)"/>
<path d="M42.6321 10.2969L42.5602 9.39683L43.6026 9.28882C43.6026 9.57684 43.6026 9.86487 43.6745 10.1529L42.6321 10.2969Z" fill="url(#paint35_linear)"/>
<path d="M42.6321 8.42472C42.668 8.10069 42.7399 7.81266 42.8118 7.52464L43.8183 7.41663C43.7464 7.70465 43.6745 7.99268 43.6386 8.31671L42.6321 8.42472Z" fill="url(#paint36_linear)"/>
<path d="M43.0994 6.62459C43.2791 6.26456 43.4588 5.94053 43.6745 5.6525L44.681 5.54449C44.4653 5.83252 44.2856 6.12055 44.1059 6.48058L43.0994 6.62459Z" fill="url(#paint37_linear)"/>
<path d="M44.5372 4.93247C44.7529 4.78845 45.0045 4.71645 45.2562 4.68044C45.328 4.68044 45.7594 4.60844 45.8313 4.57243L46.2626 4.50043C46.1907 4.50043 46.1548 4.53643 46.0829 4.53643C45.9032 4.57243 45.7953 4.64444 45.6516 4.68044C45.5797 4.71645 45.5078 4.75245 45.4718 4.78845L44.5372 4.93247Z" fill="url(#paint38_linear)"/>
<path d="M43.0274 12.0971C42.9196 11.8451 42.8477 11.557 42.7758 11.269C42.7758 11.269 42.7758 11.269 42.7758 11.233L43.8542 11.125C43.8542 11.161 43.8902 11.197 43.8902 11.233C43.8902 11.269 43.8901 11.305 43.9261 11.341C43.962 11.449 43.962 11.521 43.998 11.593C43.998 11.629 44.0339 11.7011 44.0339 11.7371C44.0699 11.8091 44.0699 11.8811 44.1058 11.9531L43.0274 12.0971Z" fill="url(#paint39_linear)"/>
<path d="M43.3869 12.8532L44.4293 12.7092V12.7452C44.5372 12.9612 44.681 13.1772 44.8247 13.3572C44.8607 13.3932 44.8966 13.4652 44.9326 13.5012L43.8901 13.6453C43.8542 13.5732 43.7823 13.5012 43.7464 13.4292C43.6385 13.2852 43.4947 13.0692 43.3869 12.8532Z" fill="url(#paint40_linear)"/>
<path d="M44.681 14.4373L45.4718 14.1493C45.7235 14.4013 46.011 14.5813 46.2986 14.7253L45.6516 14.9774H45.6156C45.2921 14.8694 44.9686 14.6893 44.681 14.4373Z" fill="url(#paint41_linear)"/>
<path d="M47.0174 9.4329L47.4847 10.333L47.916 8.13678L47.0174 9.4329Z" fill="white"/>
<path d="M46.2626 7.77673L47.0174 9.43288L47.9161 8.13677L46.2626 7.77673Z" fill="white"/>
<path d="M46.4423 11.3411L47.0174 9.43288L46.2626 7.77673L46.4423 11.3411Z" fill="white"/>
<path d="M46.7659 11.5931L48.3115 11.7371L47.7724 10.693L46.7659 11.5931Z" fill="white"/>
<path d="M47.7723 10.693L48.3115 11.7371L48.2756 8.46082L47.7723 10.693Z" fill="white"/>
<path d="M46.4423 11.341L47.4848 10.3329L47.0175 9.43286L46.4423 11.341Z" fill="white"/>
<path d="M50.6121 10.3329C50.6121 11.125 50.5042 11.8451 50.2886 12.4571C47.9161 11.8811 46.1548 9.21684 46.1548 6.04856C46.1548 5.50851 46.1907 5.00446 46.2986 4.50042C46.3705 4.50042 46.4064 4.46441 46.4783 4.46441C47.0534 4.39241 47.6645 4.53642 48.2037 4.89645C49.2821 5.58051 50.1807 6.98464 50.5043 8.7488C50.5402 8.92881 50.5402 9.10883 50.5761 9.25284C50.5761 9.64888 50.6121 9.97291 50.6121 10.3329Z" fill="url(#paint42_linear)"/>
</g>
<defs>
<linearGradient id="paint0_linear" x1="40.2729" y1="26.4772" x2="45.4635" y2="26.4772" gradientUnits="userSpaceOnUse">
<stop stop-color="#FBA03A"/>
<stop offset="0.2104" stop-color="#FA9A38"/>
<stop offset="0.5041" stop-color="#F78732"/>
<stop offset="0.8455" stop-color="#F36A29"/>
<stop offset="1" stop-color="#F15A24"/>
</linearGradient>
<linearGradient id="paint1_linear" x1="0" y1="70.0478" x2="3.30176" y2="70.0478" gradientUnits="userSpaceOnUse">
<stop stop-color="#FBA03A"/>
<stop offset="0.2104" stop-color="#FA9A38"/>
<stop offset="0.5041" stop-color="#F78732"/>
<stop offset="0.8455" stop-color="#F36A29"/>
<stop offset="1" stop-color="#F15A24"/>
</linearGradient>
<linearGradient id="paint2_linear" x1="63.3548" y1="1.65352" x2="66.6565" y2="1.65352" gradientUnits="userSpaceOnUse">
<stop stop-color="#FBA03A"/>
<stop offset="0.2104" stop-color="#FA9A38"/>
<stop offset="0.5041" stop-color="#F78732"/>
<stop offset="0.8455" stop-color="#F36A29"/>
<stop offset="1" stop-color="#F15A24"/>
</linearGradient>
<linearGradient id="paint3_linear" x1="61.9966" y1="51.0062" x2="67.1872" y2="51.0062" gradientUnits="userSpaceOnUse">
<stop offset="0.1344" stop-color="#FBDF7A"/>
<stop offset="0.3293" stop-color="#FBDD74"/>
<stop offset="0.579" stop-color="#FBD864"/>
<stop offset="0.8575" stop-color="#FBD04A"/>
<stop offset="1" stop-color="#FBCB3A"/>
</linearGradient>
<linearGradient id="paint4_linear" x1="26.7051" y1="16.4429" x2="29.9206" y2="16.4429" gradientUnits="userSpaceOnUse">
<stop offset="0.1344" stop-color="#FBDF7A"/>
<stop offset="0.3293" stop-color="#FBDD74"/>
<stop offset="0.579" stop-color="#FBD864"/>
<stop offset="0.8575" stop-color="#FBD04A"/>
<stop offset="1" stop-color="#FBCB3A"/>
</linearGradient>
<linearGradient id="paint5_linear" x1="24.1278" y1="60.9286" x2="56.9583" y2="60.9286" gradientUnits="userSpaceOnUse">
<stop stop-color="#E59730"/>
<stop offset="1" stop-color="#E75440"/>
</linearGradient>
<linearGradient id="paint6_linear" x1="13.5014" y1="62.0065" x2="52.0248" y2="62.0065" gradientUnits="userSpaceOnUse">
<stop offset="0.1344" stop-color="#FBDF7A"/>
<stop offset="0.3293" stop-color="#FBDD74"/>
<stop offset="0.579" stop-color="#FBD864"/>
<stop offset="0.8575" stop-color="#FBD04A"/>
<stop offset="1" stop-color="#FBCB3A"/>
</linearGradient>
<linearGradient id="paint7_linear" x1="16.8212" y1="62.0066" x2="47.2204" y2="62.0066" gradientUnits="userSpaceOnUse">
<stop stop-color="#FBA03A"/>
<stop offset="0.2104" stop-color="#FA9A38"/>
<stop offset="0.5041" stop-color="#F78732"/>
<stop offset="0.8455" stop-color="#F36A29"/>
<stop offset="1" stop-color="#F15A24"/>
</linearGradient>
<linearGradient id="paint8_linear" x1="28.4469" y1="34.8481" x2="36.4593" y2="34.8481" gradientUnits="userSpaceOnUse">
<stop stop-color="#FB8F60"/>
<stop offset="0.2278" stop-color="#FB895E"/>
<stop offset="0.5458" stop-color="#FD765A"/>
<stop offset="0.9155" stop-color="#FE5953"/>
<stop offset="1" stop-color="#FF5151"/>
</linearGradient>
<linearGradient id="paint9_linear" x1="35.8441" y1="37.7187" x2="42.6605" y2="37.7187" gradientUnits="userSpaceOnUse">
<stop stop-color="#FB8F60"/>
<stop offset="0.2278" stop-color="#FB895E"/>
<stop offset="0.5458" stop-color="#FD765A"/>
<stop offset="0.9155" stop-color="#FE5953"/>
<stop offset="1" stop-color="#FF5151"/>
</linearGradient>
<linearGradient id="paint10_linear" x1="40.7862" y1="41.8577" x2="47.1425" y2="41.8577" gradientUnits="userSpaceOnUse">
<stop stop-color="#FB8F60"/>
<stop offset="0.2278" stop-color="#FB895E"/>
<stop offset="0.5458" stop-color="#FD765A"/>
<stop offset="0.9155" stop-color="#FE5953"/>
<stop offset="1" stop-color="#FF5151"/>
</linearGradient>
<linearGradient id="paint11_linear" x1="44.5899" y1="46.5865" x2="50.6413" y2="46.5865" gradientUnits="userSpaceOnUse">
<stop stop-color="#FB8F60"/>
<stop offset="0.2278" stop-color="#FB895E"/>
<stop offset="0.5458" stop-color="#FD765A"/>
<stop offset="0.9155" stop-color="#FE5953"/>
<stop offset="1" stop-color="#FF5151"/>
</linearGradient>
<linearGradient id="paint12_linear" x1="47.5736" y1="51.7496" x2="53.3727" y2="51.7496" gradientUnits="userSpaceOnUse">
<stop stop-color="#FB8F60"/>
<stop offset="0.2278" stop-color="#FB895E"/>
<stop offset="0.5458" stop-color="#FD765A"/>
<stop offset="0.9155" stop-color="#FE5953"/>
<stop offset="1" stop-color="#FF5151"/>
</linearGradient>
<linearGradient id="paint13_linear" x1="49.8397" y1="57.3011" x2="55.3916" y2="57.3011" gradientUnits="userSpaceOnUse">
<stop stop-color="#FB8F60"/>
<stop offset="0.2278" stop-color="#FB895E"/>
<stop offset="0.5458" stop-color="#FD765A"/>
<stop offset="0.9155" stop-color="#FE5953"/>
<stop offset="1" stop-color="#FF5151"/>
</linearGradient>
<linearGradient id="paint14_linear" x1="51.3695" y1="63.2647" x2="56.6402" y2="63.2647" gradientUnits="userSpaceOnUse">
<stop stop-color="#FB8F60"/>
<stop offset="0.2278" stop-color="#FB895E"/>
<stop offset="0.5458" stop-color="#FD765A"/>
<stop offset="0.9155" stop-color="#FE5953"/>
<stop offset="1" stop-color="#FF5151"/>
</linearGradient>
<linearGradient id="paint15_linear" x1="51.8953" y1="69.7115" x2="56.9583" y2="69.7115" gradientUnits="userSpaceOnUse">
<stop stop-color="#FB8F60"/>
<stop offset="0.2278" stop-color="#FB895E"/>
<stop offset="0.5458" stop-color="#FD765A"/>
<stop offset="0.9155" stop-color="#FE5953"/>
<stop offset="1" stop-color="#FF5151"/>
</linearGradient>
<linearGradient id="paint16_linear" x1="50.0105" y1="77.0377" x2="56.5508" y2="77.0377" gradientUnits="userSpaceOnUse">
<stop stop-color="#FB8F60"/>
<stop offset="0.2278" stop-color="#FB895E"/>
<stop offset="0.5458" stop-color="#FD765A"/>
<stop offset="0.9155" stop-color="#FE5953"/>
<stop offset="1" stop-color="#FF5151"/>
</linearGradient>
<linearGradient id="paint17_linear" x1="42.2557" y1="85.1813" x2="53.3201" y2="85.1813" gradientUnits="userSpaceOnUse">
<stop stop-color="#FB8F60"/>
<stop offset="0.2278" stop-color="#FB895E"/>
<stop offset="0.5458" stop-color="#FD765A"/>
<stop offset="0.9155" stop-color="#FE5953"/>
<stop offset="1" stop-color="#FF5151"/>
</linearGradient>
<linearGradient id="paint18_linear" x1="29.3993" y1="31.0482" x2="49.3717" y2="94.5735" gradientUnits="userSpaceOnUse">
<stop stop-color="white" stop-opacity="0.3"/>
<stop offset="1" stop-color="white" stop-opacity="0"/>
</linearGradient>
<linearGradient id="paint19_linear" x1="57.075" y1="17.0825" x2="68.285" y2="43.1172" gradientUnits="userSpaceOnUse">
<stop offset="0.1344" stop-color="#FBDF7A"/>
<stop offset="0.3293" stop-color="#FBDD74"/>
<stop offset="0.579" stop-color="#FBD864"/>
<stop offset="0.8575" stop-color="#FBD04A"/>
<stop offset="1" stop-color="#FBCB3A"/>
</linearGradient>
<linearGradient id="paint20_linear" x1="57.6552" y1="29.4405" x2="69.2889" y2="27.9417" gradientUnits="userSpaceOnUse">
<stop stop-color="#FBA03A"/>
<stop offset="0.2104" stop-color="#FA9A38"/>
<stop offset="0.5041" stop-color="#F78732"/>
<stop offset="0.8455" stop-color="#F36A29"/>
<stop offset="1" stop-color="#F15A24"/>
</linearGradient>
<linearGradient id="paint21_linear" x1="66.0339" y1="21.4985" x2="63.8696" y2="37.8122" gradientUnits="userSpaceOnUse">
<stop stop-color="#FBA03A"/>
<stop offset="0.2104" stop-color="#FA9A38"/>
<stop offset="0.5041" stop-color="#F78732"/>
<stop offset="0.8455" stop-color="#F36A29"/>
<stop offset="1" stop-color="#F15A24"/>
</linearGradient>
<linearGradient id="paint22_linear" x1="67.7693" y1="33.152" x2="69.5722" y2="34.2825" gradientUnits="userSpaceOnUse">
<stop stop-color="#FB6B3A"/>
<stop offset="0.4484" stop-color="#F86634"/>
<stop offset="1" stop-color="#F15A24"/>
</linearGradient>
<linearGradient id="paint23_linear" x1="65.1829" y1="36.0088" x2="67.3394" y2="37.3611" gradientUnits="userSpaceOnUse">
<stop stop-color="#FB6B3A"/>
<stop offset="0.4484" stop-color="#F86634"/>
<stop offset="1" stop-color="#F15A24"/>
</linearGradient>
<linearGradient id="paint24_linear" x1="61.4917" y1="37.9944" x2="64.3644" y2="39.7956" gradientUnits="userSpaceOnUse">
<stop stop-color="#FB6B3A"/>
<stop offset="0.4484" stop-color="#F86634"/>
<stop offset="1" stop-color="#F15A24"/>
</linearGradient>
<linearGradient id="paint25_linear" x1="57.2716" y1="38.3591" x2="60.3334" y2="40.2789" gradientUnits="userSpaceOnUse">
<stop stop-color="#FB6B3A"/>
<stop offset="0.4484" stop-color="#F86634"/>
<stop offset="1" stop-color="#F15A24"/>
</linearGradient>
<linearGradient id="paint26_linear" x1="69.2316" y1="29.6471" x2="71.4271" y2="31.0237" gradientUnits="userSpaceOnUse">
<stop stop-color="#FB6B3A"/>
<stop offset="0.4484" stop-color="#F86634"/>
<stop offset="1" stop-color="#F15A24"/>
</linearGradient>
<linearGradient id="paint27_linear" x1="69.7276" y1="25.9777" x2="72.3245" y2="27.606" gradientUnits="userSpaceOnUse">
<stop stop-color="#FB6B3A"/>
<stop offset="0.4484" stop-color="#F86634"/>
<stop offset="1" stop-color="#F15A24"/>
</linearGradient>
<linearGradient id="paint28_linear" x1="69.0769" y1="22.0575" x2="71.8479" y2="23.7949" gradientUnits="userSpaceOnUse">
<stop stop-color="#FB6B3A"/>
<stop offset="0.4484" stop-color="#F86634"/>
<stop offset="1" stop-color="#F15A24"/>
</linearGradient>
<linearGradient id="paint29_linear" x1="66.4171" y1="19.1975" x2="61.5379" y2="37.454" gradientUnits="userSpaceOnUse">
<stop stop-color="white"/>
<stop offset="1" stop-color="white" stop-opacity="0.5"/>
</linearGradient>
<linearGradient id="paint30_linear" x1="70.5986" y1="26.2029" x2="70.6679" y2="26.3198" gradientUnits="userSpaceOnUse">
<stop stop-color="white"/>
<stop offset="1" stop-color="white" stop-opacity="0.5"/>
</linearGradient>
<linearGradient id="paint31_linear" x1="69.1991" y1="30.1516" x2="69.2916" y2="30.3073" gradientUnits="userSpaceOnUse">
<stop stop-color="white"/>
<stop offset="1" stop-color="white" stop-opacity="0.5"/>
</linearGradient>
<linearGradient id="paint32_linear" x1="42.4513" y1="3.96898" x2="52.3079" y2="16.4736" gradientUnits="userSpaceOnUse">
<stop offset="0.1344" stop-color="#FBDF7A"/>
<stop offset="0.3293" stop-color="#FBDD74"/>
<stop offset="0.579" stop-color="#FBD864"/>
<stop offset="0.8575" stop-color="#FBD04A"/>
<stop offset="1" stop-color="#FBCB3A"/>
</linearGradient>
<linearGradient id="paint33_linear" x1="41.1976" y1="16.1934" x2="47.438" y2="9.47968" gradientUnits="userSpaceOnUse">
<stop stop-color="#FBA03A"/>
<stop offset="0.2104" stop-color="#FA9A38"/>
<stop offset="0.5041" stop-color="#F78732"/>
<stop offset="0.8455" stop-color="#F36A29"/>
<stop offset="1" stop-color="#F15A24"/>
</linearGradient>
<linearGradient id="paint34_linear" x1="45.0235" y1="9.08839" x2="47.8465" y2="16.0606" gradientUnits="userSpaceOnUse">
<stop stop-color="#FBA03A"/>
<stop offset="0.2104" stop-color="#FA9A38"/>
<stop offset="0.5041" stop-color="#F78732"/>
<stop offset="0.8455" stop-color="#F36A29"/>
<stop offset="1" stop-color="#F15A24"/>
</linearGradient>
<linearGradient id="paint35_linear" x1="43.5865" y1="9.72747" x2="42.5493" y2="9.7993" gradientUnits="userSpaceOnUse">
<stop stop-color="#FB6B3A"/>
<stop offset="0.4484" stop-color="#F86634"/>
<stop offset="1" stop-color="#F15A24"/>
</linearGradient>
<linearGradient id="paint36_linear" x1="43.7868" y1="7.85298" x2="42.546" y2="7.93888" gradientUnits="userSpaceOnUse">
<stop stop-color="#FB6B3A"/>
<stop offset="0.4484" stop-color="#F86634"/>
<stop offset="1" stop-color="#F15A24"/>
</linearGradient>
<linearGradient id="paint37_linear" x1="44.6738" y1="6.00411" x2="43.021" y2="6.11852" gradientUnits="userSpaceOnUse">
<stop stop-color="#FB6B3A"/>
<stop offset="0.4484" stop-color="#F86634"/>
<stop offset="1" stop-color="#F15A24"/>
</linearGradient>
<linearGradient id="paint38_linear" x1="46.2359" y1="4.64285" x2="44.4743" y2="4.76484" gradientUnits="userSpaceOnUse">
<stop stop-color="#FB6B3A"/>
<stop offset="0.4484" stop-color="#F86634"/>
<stop offset="1" stop-color="#F15A24"/>
</linearGradient>
<linearGradient id="paint39_linear" x1="44.0167" y1="11.5336" x2="42.7536" y2="11.6211" gradientUnits="userSpaceOnUse">
<stop stop-color="#FB6B3A"/>
<stop offset="0.4484" stop-color="#F86634"/>
<stop offset="1" stop-color="#F15A24"/>
</linearGradient>
<linearGradient id="paint40_linear" x1="44.8758" y1="13.126" x2="43.3817" y2="13.2295" gradientUnits="userSpaceOnUse">
<stop stop-color="#FB6B3A"/>
<stop offset="0.4484" stop-color="#F86634"/>
<stop offset="1" stop-color="#F15A24"/>
</linearGradient>
<linearGradient id="paint41_linear" x1="46.2599" y1="14.4868" x2="44.6658" y2="14.5972" gradientUnits="userSpaceOnUse">
<stop stop-color="#FB6B3A"/>
<stop offset="0.4484" stop-color="#F86634"/>
<stop offset="1" stop-color="#F15A24"/>
</linearGradient>
<linearGradient id="paint42_linear" x1="48.0906" y1="7.50345" x2="50.4669" y2="13.3722" gradientUnits="userSpaceOnUse">
<stop stop-color="white" stop-opacity="0.3"/>
<stop offset="1" stop-color="white" stop-opacity="0"/>
</linearGradient>
<clipPath id="clip0">
<rect width="72" height="89" fill="white"/>
</clipPath>
</defs>
</svg>
