<svg width="72" height="89" viewBox="0 0 72 89" fill="none" xmlns="http://www.w3.org/2000/svg">
<g clip-path="url(#clip0)">
<path d="M42.8836 23.8702L43.7822 25.5623L45.4717 26.4624L43.7822 27.3985L42.8836 29.0906L41.949 27.3985L40.2595 26.4624L41.949 25.5623L42.8836 23.8702Z" fill="url(#paint0_linear)"/>
<path d="M1.65352 68.4062L2.22866 69.4502L3.30704 70.0623L2.22866 70.6384L1.65352 71.7184L1.07838 70.6384L0 70.0623L1.07838 69.4502L1.65352 68.4062Z" fill="url(#paint1_linear)"/>
<path d="M64.9904 0L65.6015 1.0801L66.644 1.65615L65.6015 2.2322L64.9904 3.3123L64.4153 2.2322L63.3369 1.65615L64.4153 1.0801L64.9904 0Z" fill="url(#paint2_linear)"/>
<path d="M64.5952 48.4243L65.4938 50.0805L67.1833 51.0166L65.4938 51.9167L64.5952 53.6088L63.6606 51.9167L62.0071 51.0166L63.6606 50.0805L64.5952 48.4243Z" fill="url(#paint3_linear)"/>
<path d="M28.3256 14.8333L28.8648 15.8774L29.9072 16.4535L28.8648 17.0295L28.3256 18.0376L27.7504 17.0295L26.708 16.4535L27.7504 15.8774L28.3256 14.8333Z" fill="url(#paint4_linear)"/>
<path d="M29.6555 33.735L27.8223 34.2751C28.0379 34.2031 28.2536 34.1311 28.4693 34.0591C28.8647 33.9151 29.2601 33.8071 29.6555 33.735Z" fill="#E0ECFF"/>
<path d="M56.9745 68.3701C56.9745 68.5502 56.9745 68.6942 56.9745 68.8742C56.9745 69.3062 56.9386 69.7023 56.9386 70.1343C56.8667 71.3224 56.7589 72.4385 56.5791 73.5186C56.4713 74.2387 56.3275 74.9227 56.1478 75.5708C55.968 76.2549 55.7883 76.9389 55.5367 77.587C54.9616 79.2431 54.2067 80.7193 53.344 81.9794C52.0499 83.8155 50.5042 85.2557 48.671 86.1917C48.1677 86.4438 47.6645 86.6598 47.1613 86.8398L46.5142 87.0558L42.3085 88.3519C42.8118 88.1719 43.315 87.9559 43.7823 87.7039C43.9261 87.6319 44.0699 87.5239 44.2496 87.4519C44.7169 87.1998 45.1483 86.8758 45.5796 86.5518C45.6515 86.5158 45.6875 86.4438 45.7594 86.4078C46.0469 86.1917 46.2986 85.9397 46.5502 85.7237C46.5861 85.6877 46.6221 85.6877 46.6221 85.6517C46.7659 85.5437 46.8737 85.3997 46.9815 85.2557C47.0175 85.2197 47.0894 85.1477 47.1253 85.0756C47.4129 84.7876 47.6645 84.4636 47.9161 84.1396C48.024 83.9956 48.1318 83.8875 48.2037 83.7435C48.2756 83.6355 48.3834 83.5275 48.4553 83.3835C48.4913 83.3475 48.4913 83.3115 48.5272 83.2755C48.5991 83.1675 48.671 83.0235 48.7429 82.9155C48.8148 82.8434 48.8507 82.7354 48.9226 82.6634C48.9586 82.5914 48.9945 82.5194 49.0664 82.4474C49.1742 82.2314 49.318 82.0514 49.4259 81.8354C49.4618 81.7634 49.5337 81.6553 49.5696 81.5833C49.6415 81.4753 49.6775 81.3313 49.7494 81.2233C49.7853 81.1513 49.8213 81.0793 49.8572 81.0073C49.9291 80.8633 50.001 80.7193 50.0729 80.5752C50.0729 80.5392 50.1088 80.5032 50.1088 80.4672C50.1807 80.3232 50.2167 80.2152 50.2526 80.0712C50.3245 79.9272 50.3605 79.7832 50.4324 79.6032C50.684 78.9191 50.9356 78.199 51.1153 77.443C51.1513 77.2629 51.2232 77.0829 51.2591 76.9029C51.2951 76.7229 51.331 76.5429 51.4029 76.3269C51.4388 76.1828 51.4748 76.0388 51.4748 75.8948C51.5107 75.7508 51.5467 75.6068 51.5467 75.4628C51.5826 75.3188 51.5826 75.1748 51.6186 75.0307C51.6545 74.8507 51.6905 74.6707 51.6905 74.5267C51.7264 74.3467 51.7264 74.2027 51.7624 74.0227C51.7624 73.8786 51.7983 73.7706 51.7983 73.6266C51.8343 73.3746 51.8702 73.1226 51.8702 72.8705C51.8702 72.8345 51.8702 72.7985 51.8702 72.7985C51.9061 72.5105 51.9061 72.2585 51.9421 71.9705C51.9421 71.8625 51.9421 71.7184 51.978 71.6104C52.014 71.0344 52.014 70.4583 52.014 69.8463C52.014 69.7743 52.014 69.7383 52.014 69.6663C52.014 69.5223 52.014 69.3782 52.014 69.2342C52.014 69.1982 52.014 69.1622 52.014 69.1262C52.014 68.9822 52.014 68.8382 52.014 68.6582C51.978 68.0461 51.9421 67.3981 51.9061 66.786C51.8702 66.57 51.8702 66.354 51.8342 66.1379C51.7624 65.5979 51.7264 65.0939 51.6545 64.5538C51.6186 64.3018 51.5826 64.0138 51.5467 63.7617C51.5107 63.5097 51.4748 63.2217 51.4029 62.9697C51.4029 62.9337 51.4029 62.8977 51.4029 62.8617C51.3669 62.6456 51.331 62.4296 51.2591 62.2136C51.2232 62.0696 51.2232 61.9616 51.1872 61.8176C51.1513 61.6735 51.1153 61.5295 51.0794 61.3855C51.0434 61.1695 50.9715 60.9535 50.9356 60.7375C50.8637 60.4854 50.8278 60.2694 50.7559 60.0174C50.7199 59.8374 50.648 59.6214 50.6121 59.4413C50.5761 59.3333 50.5402 59.2253 50.5042 59.0813C50.4324 58.9013 50.3964 58.6853 50.3245 58.5053C50.1807 58.0012 50.0369 57.4972 49.8572 56.9931C49.7853 56.7771 49.7134 56.5251 49.6056 56.3091C49.4978 56.021 49.4259 55.769 49.318 55.481C49.2821 55.337 49.2102 55.193 49.1383 55.0489C49.1383 55.0129 49.1023 55.0129 49.1023 54.9769C49.0305 54.7609 48.9226 54.5449 48.8507 54.3289C48.671 53.8608 48.4553 53.3928 48.2396 52.9248C48.1318 52.6727 48.024 52.4567 47.9161 52.2407C47.8802 52.2047 47.8802 52.1327 47.8442 52.0967C47.7723 51.9167 47.6645 51.7367 47.5926 51.5566C47.4848 51.3406 47.3769 51.1246 47.2691 50.9086C47.1613 50.7286 47.0534 50.5125 46.9456 50.3325C46.7299 49.9005 46.4783 49.4684 46.2267 49.0724C46.0829 48.8564 45.975 48.6404 45.8313 48.4244C45.6875 48.2083 45.5796 47.9923 45.4358 47.7763C45.1483 47.3443 44.8607 46.9122 44.5731 46.4802C44.5372 46.4082 44.4653 46.3362 44.4294 46.2642C44.2496 45.9761 44.0339 45.7241 43.8542 45.4361C43.8183 45.4001 43.7823 45.3281 43.7464 45.2921C43.6026 45.1121 43.4948 44.968 43.351 44.788C43.315 44.716 43.2791 44.68 43.2072 44.608C43.0993 44.464 42.9556 44.284 42.8477 44.14C42.5242 43.7079 42.1648 43.3119 41.8053 42.9159C41.7334 42.8078 41.6256 42.7358 41.5537 42.6278C41.3739 42.4478 41.1942 42.2318 41.0145 42.0518C40.9426 41.9438 40.8347 41.8718 40.7629 41.7638C40.6191 41.6197 40.4753 41.4757 40.3674 41.3677C40.2237 41.2237 40.0799 41.1157 39.972 40.9717C39.7923 40.7917 39.6126 40.6477 39.4328 40.5036C39.2531 40.3596 39.0734 40.1796 38.8937 40.0356C38.8218 39.9636 38.7139 39.8916 38.642 39.8196C38.6061 39.7836 38.6061 39.7836 38.5701 39.7836L38.5342 39.7476C38.4623 39.6756 38.3904 39.6396 38.3185 39.5676C38.2826 39.5316 38.2466 39.5316 38.2107 39.4956C38.0669 39.3515 37.8872 39.2435 37.7434 39.1355C37.5637 38.9915 37.3839 38.8475 37.2042 38.7395C37.2042 38.7395 37.1682 38.7395 37.1682 38.7035C36.9885 38.5595 36.7728 38.4155 36.5931 38.3074C36.4493 38.1994 36.3055 38.1274 36.1618 38.0194C36.0539 37.9474 35.9101 37.8754 35.8023 37.8034C35.5147 37.6234 35.2272 37.4434 34.9396 37.2994C34.8317 37.2273 34.7239 37.1553 34.6161 37.1193C34.4723 37.0473 34.3645 36.9753 34.2207 36.9033C33.7534 36.6513 33.2501 36.4353 32.7828 36.2553C32.7828 36.2553 32.7469 36.2553 32.7469 36.2193C32.5312 36.1473 32.3515 36.0752 32.1358 35.9672C32.0639 35.9312 31.992 35.8952 31.9201 35.8952C31.8123 35.8592 31.7404 35.8232 31.6325 35.7872C31.5247 35.7512 31.4528 35.7152 31.345 35.7152C31.2371 35.6792 31.1653 35.6432 31.0574 35.6432C30.9496 35.6072 30.8777 35.5712 30.7698 35.5712C30.662 35.5352 30.5901 35.5352 30.4823 35.4992C30.4104 35.4632 30.3025 35.4632 30.2307 35.4272C30.1228 35.3912 30.015 35.3912 29.9071 35.3552C29.5477 35.2832 29.1882 35.2112 28.8288 35.1752C28.7209 35.1752 28.6131 35.1392 28.4693 35.1392H28.4333C28.2177 35.1032 28.002 35.1032 27.7863 35.1032C27.7144 35.1032 27.6066 35.1032 27.5347 35.1032H27.4987C27.3909 35.1032 27.2471 35.1032 27.1393 35.1032C26.9236 35.1032 26.672 35.1032 26.4563 35.1392C26.3844 35.1392 26.3485 35.1392 26.2766 35.1392C25.7374 35.1752 25.2341 35.2472 24.7309 35.3552C24.5512 35.3912 24.3355 35.4272 24.1558 35.4992L27.8582 34.3831L29.6915 33.843C30.2307 33.735 30.7698 33.663 31.345 33.627C31.3809 33.627 31.3809 33.627 31.4169 33.627C33.0344 33.519 34.7239 33.771 36.4853 34.3471C36.8807 34.4911 37.312 34.6351 37.7074 34.8151C38.3904 35.1032 39.0734 35.4272 39.7564 35.7872C40.7629 36.3273 41.7334 36.9753 42.668 37.6954C43.4588 38.3074 44.2137 38.9555 44.9685 39.6756C45.7234 40.3956 46.4423 41.1517 47.1613 41.9798C47.7723 42.6998 48.3834 43.4559 48.9586 44.248C49.5696 45.0761 50.1448 45.9401 50.684 46.8042C51.1153 47.5243 51.5467 48.2803 51.978 49.0364C52.014 49.1084 52.0499 49.1804 52.0859 49.2884C52.5532 50.1885 53.0205 51.1246 53.4159 52.0607C53.8113 52.9248 54.1348 53.8248 54.4943 54.6889C54.8537 55.661 55.1772 56.6691 55.4648 57.6772C55.4648 57.7132 55.5007 57.7852 55.5007 57.8212C55.7524 58.7213 55.968 59.5854 56.1478 60.4854C56.3635 61.5295 56.5432 62.6096 56.687 63.6897C56.8308 64.6978 56.9026 65.7059 56.9745 66.714C56.9386 67.182 56.9745 67.7941 56.9745 68.3701Z" fill="url(#paint5_linear)"/>
<path d="M47.1253 86.8758C46.9096 86.9478 46.6939 87.0198 46.4783 87.0918L47.1253 86.8758Z" fill="#E0ECFF"/>
<path d="M51.8343 66.174C51.7624 65.6339 51.7264 65.1299 51.6545 64.5898C51.7264 65.1299 51.7624 65.6339 51.8343 66.174Z" fill="#E0ECFF"/>
<path d="M52.0141 69.8823C52.0141 75.8949 50.4684 80.7913 47.9162 84.1396C47.8443 84.2476 47.7724 84.3196 47.7005 84.4276C46.694 85.6877 45.5078 86.6958 44.2138 87.4519C44.07 87.5239 43.9262 87.6319 43.7465 87.7039C43.2792 87.956 42.7759 88.172 42.2727 88.352C42.2727 88.352 42.2367 88.352 42.2367 88.388C41.9492 88.496 41.6975 88.568 41.41 88.64C38.8219 89.3241 35.9102 89.1081 32.8189 87.8479C22.1788 83.4916 13.5518 68.4062 13.5518 54.1489C13.5518 44.6801 17.362 37.9475 23.0056 35.7873C23.1853 35.7153 23.365 35.6432 23.5807 35.5712L24.1199 35.4272H24.1918C24.3715 35.3912 24.5872 35.3192 24.7669 35.2832C25.2702 35.1752 25.7734 35.1032 26.3126 35.0672C26.3845 35.0672 26.4205 35.0672 26.4923 35.0672C28.4334 34.9232 30.5543 35.2832 32.7829 36.1833C33.2862 36.3993 33.7894 36.6153 34.2567 36.8674C35.8743 37.6954 37.4559 38.7755 38.9297 40.0356C46.5143 46.5522 51.9781 58.3613 52.05 69.7023C52.0141 69.7743 52.0141 69.8103 52.0141 69.8823Z" fill="url(#paint6_linear)"/>
<path d="M47.2333 68.2262C47.2333 72.9786 46.0112 76.8309 43.9982 79.4952C43.1355 80.6113 42.1649 81.4753 41.0506 82.1234C40.9428 82.1954 40.799 82.2674 40.6911 82.3034C40.3317 82.4834 39.9363 82.6634 39.5409 82.8075H39.5049C39.2892 82.8795 39.0736 82.9515 38.8579 83.0235C36.809 83.5635 34.5084 83.3835 32.0641 82.3754C23.6527 78.9551 16.8589 67.038 16.8589 55.769C16.8589 48.0643 20.0581 42.6279 24.767 41.1157L25.1624 41.0077H25.1984C25.3422 40.9717 25.5219 40.9357 25.6657 40.8997C26.0611 40.8277 26.4565 40.7557 26.8878 40.7197C26.9238 40.7197 26.9957 40.7197 27.0316 40.7197C28.5773 40.6477 30.2668 40.9357 31.9922 41.6558C32.3876 41.7998 32.783 41.9798 33.1784 42.1958C34.4725 42.8439 35.6946 43.708 36.8449 44.716C42.812 49.8645 47.1255 59.1893 47.1974 68.1181C47.2333 68.1181 47.2333 68.1901 47.2333 68.2262Z" fill="url(#paint7_linear)"/>
<path d="M25.9364 61.2908L31.3987 48.8788L38.1579 63.4541L30.9454 64.6269L25.9364 61.2908Z" fill="white"/>
<path d="M32.4185 73.6862L26.3617 63.9067L31.3271 66.9745L38.8096 65.3273L32.4185 73.6862Z" fill="white"/>
<path d="M36.4493 34.2391L32.7828 36.2193C32.7828 36.2193 32.7469 36.2193 32.7469 36.1833C32.5312 36.1113 32.3515 36.0393 32.1358 35.9313C32.0639 35.8953 31.992 35.8592 31.9201 35.8592C31.8123 35.8232 31.7404 35.7872 31.6326 35.7512C31.5247 35.7152 31.4528 35.6792 31.345 35.6792C31.2371 35.6432 31.1653 35.6072 31.0574 35.6072C30.9496 35.5712 30.8777 35.5352 30.7698 35.5352C30.662 35.4992 30.5901 35.4992 30.4823 35.4632C30.4104 35.4272 30.3025 35.4272 30.2307 35.3912C30.1228 35.3552 30.015 35.3552 29.9071 35.3192C29.5477 35.2472 29.1882 35.1752 28.8288 35.1392C28.7209 35.1392 28.6131 35.1032 28.4693 35.1032H28.4333L31.309 33.555C31.345 33.555 31.345 33.555 31.3809 33.555C32.9985 33.411 34.688 33.6631 36.4493 34.2391Z" fill="url(#paint8_linear)"/>
<path d="M42.6681 37.5874L38.6062 39.7836L38.5703 39.7476C38.4984 39.6756 38.4265 39.6396 38.3546 39.5676C38.3187 39.5316 38.2827 39.5316 38.2468 39.4956C38.103 39.3516 37.9233 39.2436 37.7795 39.1355C37.5997 38.9915 37.42 38.8475 37.2403 38.7395C37.2403 38.7395 37.2043 38.7395 37.2043 38.7035C37.0246 38.5595 36.8089 38.4155 36.6292 38.3075C36.4854 38.1995 36.3416 38.1275 36.1978 38.0194C36.09 37.9474 35.9462 37.8754 35.8384 37.8034L39.7565 35.6792C40.727 36.2193 41.6976 36.8673 42.6681 37.5874Z" fill="url(#paint9_linear)"/>
<path d="M47.1254 41.8718L42.8478 44.176C42.5243 43.744 42.1648 43.3479 41.8054 42.9519C41.7335 42.8439 41.6256 42.7719 41.5537 42.6639C41.374 42.4839 41.1943 42.2678 41.0146 42.0878C40.9427 41.9798 40.8348 41.9078 40.7629 41.7998L44.9327 39.5316C45.7235 40.2517 46.4424 41.0437 47.1254 41.8718Z" fill="url(#paint10_linear)"/>
<path d="M50.6481 46.6602L46.2268 49.0364C46.083 48.8204 45.9751 48.6044 45.8314 48.3884C45.6876 48.1723 45.5797 47.9563 45.4359 47.7403C45.1484 47.3083 44.8608 46.8762 44.5732 46.4442L48.9227 44.104C49.5338 44.932 50.1089 45.7961 50.6481 46.6602Z" fill="url(#paint11_linear)"/>
<path d="M53.3801 51.9167L48.8509 54.3649C48.6712 53.8969 48.4555 53.4288 48.2398 52.9608C48.132 52.7088 48.0241 52.4927 47.9163 52.2767C47.8803 52.2407 47.8803 52.1687 47.8444 52.1327C47.7725 51.9527 47.6647 51.7727 47.5928 51.5927L52.0501 49.1805C52.5174 50.0445 52.9487 50.9446 53.3801 51.9167Z" fill="url(#paint12_linear)"/>
<path d="M55.3929 57.5332L50.7199 60.0534C50.684 59.8734 50.6121 59.6574 50.5762 59.4774C50.5402 59.3694 50.5043 59.2613 50.4683 59.1173C50.3964 58.9373 50.3605 58.7213 50.2886 58.5413C50.1448 58.0372 50.001 57.5332 49.8213 57.0291L54.4224 54.5449C54.7818 55.517 55.1054 56.5251 55.3929 57.5332Z" fill="url(#paint13_linear)"/>
<path d="M56.6512 63.5457L51.8344 66.138C51.7625 65.5979 51.7266 65.0939 51.6547 64.5538C51.6188 64.3018 51.5828 64.0138 51.5469 63.7618C51.5109 63.5097 51.475 63.2217 51.4031 62.9697C51.4031 62.9337 51.4031 62.8977 51.4031 62.8617L56.112 60.3055C56.3277 61.4216 56.5074 62.5016 56.6512 63.5457Z" fill="url(#paint14_linear)"/>
<path d="M56.9746 68.3702C56.9746 68.5502 56.9746 68.6942 56.9746 68.8742C56.9746 69.3063 56.9387 69.7023 56.9387 70.1343L51.9062 72.8346C51.9422 72.5465 51.9422 72.2945 51.9781 72.0065C51.9781 71.8985 51.9781 71.7545 52.0141 71.6465C52.05 71.0704 52.05 70.4944 52.05 69.8823C52.05 69.8103 52.05 69.7743 52.05 69.7023C52.05 69.5583 52.05 69.4143 52.05 69.2702L56.9387 66.57C56.9387 67.1821 56.9746 67.7941 56.9746 68.3702Z" fill="url(#paint15_linear)"/>
<path d="M56.5434 73.5186C56.4356 74.2387 56.2918 74.9228 56.112 75.5708C55.9323 76.2549 55.7526 76.939 55.501 77.587L50.0012 80.5753C50.0012 80.5393 50.0372 80.5033 50.0372 80.4673C50.1091 80.3233 50.145 80.2152 50.181 80.0712C50.2528 79.9272 50.2888 79.7832 50.3607 79.6032C50.6123 78.9191 50.8639 78.1991 51.0437 77.443C51.0796 77.263 51.1515 77.083 51.1874 76.903C51.2234 76.7229 51.2593 76.5429 51.3312 76.3269L56.5434 73.5186Z" fill="url(#paint16_linear)"/>
<path d="M53.3082 82.0154C52.0141 83.8515 50.4684 85.2917 48.6352 86.2278C48.1319 86.4798 47.6287 86.6958 47.1254 86.8758C46.9098 86.9478 46.6941 87.0198 46.4784 87.0918L42.2727 88.388C42.776 88.2079 43.2792 87.9919 43.7465 87.7399C43.8903 87.6679 44.0341 87.5599 44.2138 87.4879C44.6811 87.2359 45.1124 86.9118 45.5438 86.5878C45.6157 86.5518 45.6516 86.4798 45.7235 86.4438C46.0111 86.2278 46.2627 85.9757 46.5143 85.7597C46.5503 85.7237 46.5862 85.7237 46.5862 85.6877L53.3082 82.0154Z" fill="url(#paint17_linear)"/>
<path d="M52.0141 69.8823C52.0141 75.8949 50.4684 80.7913 47.9162 84.1396C47.8443 84.2476 47.7724 84.3196 47.7006 84.4276C33.43 79.3512 22.8618 61.2415 22.8618 39.6756C22.8618 38.3435 22.8978 37.0474 22.9697 35.7513C23.1494 35.6792 23.3291 35.6072 23.5448 35.5352L24.084 35.3912H24.1559C24.3356 35.3552 24.5513 35.2832 24.731 35.2472C25.2343 35.1392 25.7375 35.0672 26.2767 35.0312C26.3486 35.0312 26.3845 35.0312 26.4564 35.0312C28.4335 34.9232 30.5543 35.2832 32.7829 36.1833C33.2862 36.3993 33.7894 36.6153 34.2567 36.8674C35.8743 37.6954 37.4559 38.7755 38.9297 40.0356C46.5143 46.5522 51.9781 58.3613 52.05 69.7023C52.0141 69.7743 52.0141 69.8103 52.0141 69.8823Z" fill="url(#paint18_linear)"/>
<path d="M69.0883 30.6395C69.0883 30.6395 69.4837 30.7476 69.4837 30.7836C69.232 31.3596 68.585 31.8277 68.2615 32.4037L68.2256 32.4397C67.8661 32.9798 67.938 33.5918 67.6145 34.0599C67.1112 34.7439 66.608 35.392 66.0328 35.968C65.8172 36.184 65.5655 36.4001 65.3499 36.6161C65.242 36.7241 65.1342 36.8321 64.9904 36.9041C64.4872 37.3362 63.912 37.7322 63.3009 38.0922C62.0788 38.7763 60.7847 39.2803 59.7063 39.3883C59.3469 39.4243 59.0234 39.4243 58.6639 39.4243C58.5561 39.4243 58.5561 39.0283 58.4482 39.0283C58.4123 39.0283 58.3763 38.9923 58.3044 39.0283C57.9809 38.9563 57.6934 38.8843 57.3698 38.7403C57.1901 38.6683 56.9385 38.5603 56.7587 38.4883C55.7163 37.9122 54.8896 36.9401 54.4223 35.716C53.4517 33.2678 53.7033 29.8475 55.249 26.5712C55.3928 26.2832 55.5725 25.9231 55.7523 25.6351C56.0758 24.987 56.4712 24.411 56.9025 23.8349C57.8731 22.5028 58.9874 21.3867 60.1736 20.5946C61.5755 19.6226 63.0493 19.0825 64.4512 19.0105C64.8826 19.0105 65.3139 19.0105 65.7093 19.1185C66.2126 19.1905 66.7158 19.3705 67.1831 19.6226C67.3628 19.7306 67.5785 19.8386 67.7583 19.9826C68.0458 20.1626 68.2615 20.3786 68.4772 20.6306C68.621 20.8107 68.7647 20.9547 68.8726 21.1347C69.0164 21.3147 69.5196 21.6387 69.6274 21.8548C69.951 22.4308 70.1666 23.1149 70.3104 23.7989C70.4183 24.339 70.4902 24.879 70.4902 25.4551C70.5261 26.0671 70.0947 26.6072 69.9869 27.2552L70.3823 27.3633C70.3104 27.9393 70.2026 28.5154 70.0229 29.0914L69.6274 28.9834C69.4837 29.5234 69.3039 30.0635 69.0883 30.6395Z" fill="url(#paint19_linear)"/>
<path d="M59.4547 35.6432C59.2031 35.5712 58.9874 35.5712 58.8077 35.4272C58.6998 35.3912 58.5201 35.3192 58.4123 35.2471C57.6574 34.8151 57.1182 34.131 56.7947 33.303C56.1836 31.6468 56.3633 29.3786 57.4417 27.1104C57.5136 26.9304 57.6215 26.7144 57.6933 26.5704C57.945 26.1023 58.2325 25.7063 58.4842 25.3103C59.922 23.4021 61.7912 22.214 63.4447 22.106C64.1277 22.034 64.7747 22.178 65.3499 22.466C65.4936 22.538 65.6015 22.61 65.7093 22.718C65.8891 22.826 66.0328 22.97 66.1766 23.1501C66.2485 23.2221 66.3204 23.3301 66.3923 23.4381C67.4707 24.9142 67.5785 27.3984 66.608 29.8827C66.4282 30.3147 66.2485 30.7467 66.0328 31.1788C65.8172 31.5388 65.6374 31.8628 65.4218 32.1509C63.7682 34.5991 61.3958 35.9672 59.4547 35.6432Z" fill="url(#paint20_linear)"/>
<path d="M62.0894 28.0411L61.5264 29.8898L65.1915 28.762L62.0894 28.0411Z" fill="white"/>
<path d="M63.2786 24.8655L62.0895 28.0412L65.1916 28.7621L63.2786 24.8655Z" fill="white"/>
<path d="M58.6129 28.5898L62.0895 28.0412L63.2786 24.8655L58.6129 28.5898Z" fill="white"/>
<path d="M58.7361 29.5223L60.7905 32.9845L61.4479 30.8462L58.7361 29.5223Z" fill="white"/>
<path d="M61.4479 30.8461L60.7905 32.9844L65.2677 29.8393L61.4479 30.8461Z" fill="white"/>
<path d="M58.6129 28.5899L61.5264 29.89L62.0895 28.0413L58.6129 28.5899Z" fill="white"/>
<path d="M71.892 28.2625C71.8201 28.8386 71.7123 29.4146 71.5685 29.9907C71.4247 30.5307 71.245 31.1068 70.9933 31.6468C70.9933 31.6468 70.9933 31.6828 70.9574 31.6828C70.7417 32.2589 70.4901 32.8349 70.1306 33.411C69.7352 33.951 69.4117 34.4911 69.0522 34.9951C68.6568 35.5352 68.2255 36.0392 67.8301 36.5433C67.3628 37.0473 66.9314 37.4794 66.4641 37.8754C65.9609 38.3074 65.4217 38.6675 64.8825 38.9555C64.1636 39.3515 63.4447 39.6395 62.7257 39.8916C61.9709 40.1076 61.216 40.1436 60.4971 40.0716C60.2455 40.0356 59.9938 39.9996 59.7782 39.9276C59.4906 39.8556 59.239 39.7476 58.9873 39.6395C58.8795 39.6035 58.0527 39.1355 57.909 39.0635L56.9744 38.5595C57.0103 38.5595 57.0463 38.5955 57.0822 38.5955C57.19 38.6315 57.3338 38.7035 57.4417 38.7035C57.7652 38.8475 58.0527 38.9195 58.3763 38.9915C58.52 39.0275 58.6638 39.0275 58.8436 39.0275H58.8795C59.5625 39.0635 60.2455 38.9915 60.9644 38.8115H61.0003C61.6833 38.6315 62.3663 38.3074 63.0492 37.9474H63.0852C63.1211 37.9114 63.1571 37.9114 63.193 37.9114C63.6963 37.6234 64.1995 37.2633 64.7028 36.8313C64.7028 36.8313 64.7028 36.8313 64.7387 36.8313C65.206 36.4353 65.6374 36.0032 66.0687 35.5712C66.0687 35.5712 66.0687 35.5712 66.1047 35.5712C66.536 35.1031 66.9674 34.5991 67.3268 34.023C67.6144 33.627 67.902 33.195 68.1176 32.7269C68.1536 32.6549 68.1895 32.5829 68.2255 32.5109C68.2255 32.5109 68.2255 32.4749 68.2614 32.4749C68.2614 32.4749 68.2614 32.4749 68.2614 32.4389C68.5849 31.8628 68.8725 31.2508 69.0882 30.6747C69.0882 30.6027 69.1601 30.5307 69.1601 30.4587L69.196 30.4227C69.196 30.3867 69.232 30.3507 69.232 30.3147C69.232 30.2787 69.2679 30.2427 69.2679 30.2067C69.2679 30.1707 69.3039 30.1707 69.3039 30.1347C69.3398 30.0267 69.3758 29.9187 69.4117 29.8107C69.4477 29.6667 69.5195 29.5226 69.5555 29.3786C69.5914 29.2346 69.6274 29.0906 69.6993 28.9826V28.9466C69.8431 28.3705 69.9509 27.7945 70.0587 27.2184V27.1824V27.1464V27.1104C70.1306 26.6064 70.1666 26.1383 70.1666 25.6703C70.1666 25.5623 70.1666 25.4183 70.1666 25.3103C70.1666 24.7342 70.0947 24.1582 70.0228 23.6541C69.879 22.97 69.6633 22.286 69.3398 21.6739C69.232 21.4939 69.0882 21.2779 68.9804 21.0979C68.9804 21.0979 68.9804 21.0979 68.9804 21.0619C68.9085 20.9539 68.8366 20.8819 68.8006 20.7739C68.7647 20.7378 68.7287 20.6658 68.6928 20.6298C68.6568 20.5938 68.6209 20.5578 68.6209 20.5218C68.549 20.4498 68.5131 20.4138 68.4412 20.3418L68.4052 20.3058C68.3693 20.2698 68.2974 20.1978 68.2614 20.1618C68.2255 20.1258 68.1536 20.0898 68.1176 20.0178C68.0458 19.9818 67.9739 19.9098 67.902 19.8738C67.902 19.8738 67.866 19.8738 67.866 19.8378C67.8301 19.8018 67.7582 19.7658 67.7222 19.7298C67.6863 19.7298 67.6863 19.6938 67.6503 19.6938H67.6863L69.5195 20.7018L69.3758 20.6298C69.6993 20.8459 70.0587 21.1339 70.3463 21.4219C70.4901 21.6019 70.6339 21.7459 70.7777 21.926C70.8136 21.962 70.8136 21.962 70.8136 21.998C71.209 22.574 71.5685 23.2581 71.7482 23.9781C71.7482 24.0141 71.7482 24.0141 71.7482 24.0501C71.9279 24.6982 72.0358 25.3823 72.0717 26.1743V26.2103C72.0717 26.3904 72.0717 26.5704 72.0717 26.7504C71.9998 27.3264 71.9639 27.7945 71.892 28.2625Z" fill="url(#paint21_linear)"/>
<path d="M70.0587 33.447L69.0881 35.0311L67.2549 33.987C67.6143 33.519 67.9019 33.0149 68.1895 32.4749L70.0587 33.447Z" fill="url(#paint22_linear)"/>
<path d="M67.8661 36.5433C67.3988 37.0473 66.9675 37.4793 66.5002 37.8754L64.7029 36.8313C64.7029 36.8313 64.7029 36.8313 64.7388 36.8313C65.2061 36.4352 65.6375 36.0032 66.0688 35.5712L67.8661 36.5433Z" fill="url(#paint23_linear)"/>
<path d="M64.8825 38.9555C64.1636 39.3515 63.4446 39.6395 62.7257 39.8556L60.9644 38.8115H61.0003C61.6833 38.6314 62.3662 38.3074 63.0492 37.9474L64.8825 38.9555Z" fill="url(#paint24_linear)"/>
<path d="M60.4971 40.0356C59.9579 39.9636 59.4547 39.8555 58.9874 39.6035C58.8795 39.5675 58.0528 39.0995 57.909 39.0635L57.1182 38.6314C57.226 38.6674 57.3698 38.7034 57.4776 38.7394C57.7652 38.8835 58.0887 38.9555 58.4122 39.0275C58.556 39.0635 58.6998 39.0635 58.8436 39.0635H58.8795L60.4971 40.0356Z" fill="url(#paint25_linear)"/>
<path d="M71.5685 30.0267C71.4247 30.6028 71.245 31.1428 70.9933 31.6828C70.9933 31.6828 70.9933 31.7188 70.9574 31.7188L69.0522 30.6388V30.6027C69.0882 30.5307 69.1241 30.4587 69.1241 30.3867C69.1601 30.3147 69.196 30.2427 69.196 30.2067C69.2679 30.0267 69.3398 29.8467 69.3758 29.6667C69.4117 29.5587 69.4477 29.4866 69.4836 29.3786C69.5195 29.2346 69.5555 29.0906 69.6274 28.9826L71.5685 30.0267Z" fill="url(#paint26_linear)"/>
<path d="M71.892 28.2625L69.9868 27.2184C69.9868 27.1824 69.9868 27.1824 69.9868 27.1464C70.0587 26.6424 70.0947 26.1743 70.0947 25.6703C70.0947 25.5623 70.0947 25.4183 70.0947 25.3102L71.9639 26.3183C71.9639 26.4983 71.9639 26.6784 71.9639 26.8584C71.9998 27.3264 71.9639 27.7945 71.892 28.2625Z" fill="url(#paint27_linear)"/>
<path d="M71.6404 24.1222L69.9869 23.6901C69.8431 23.006 69.6275 22.322 69.304 21.7099L70.6699 22.07C70.7058 22.106 70.7058 22.106 70.7058 22.142C71.1372 22.682 71.4607 23.3661 71.6404 24.1222Z" fill="url(#paint28_linear)"/>
<path opacity="0.5" d="M70.0228 27.1824C70.0228 27.2184 70.0228 27.2184 70.0228 27.1824C70.0228 27.2184 70.0228 27.2184 70.0228 27.1824C69.9149 27.7945 69.8071 28.3705 69.6633 28.9106V28.9466C69.6274 29.0906 69.5914 29.2346 69.5555 29.3426C69.5195 29.4866 69.4476 29.6306 69.4117 29.7747C69.3757 29.8827 69.3398 29.9907 69.3039 30.0987C69.3039 30.1347 69.2679 30.1347 69.2679 30.1707C69.2679 30.2067 69.232 30.2427 69.232 30.2787C69.232 30.3147 69.196 30.3507 69.196 30.3867L69.1601 30.4227C69.1601 30.4947 69.0882 30.5667 69.0882 30.6387C68.8366 31.2148 68.5849 31.8268 68.2614 32.4029C68.2614 32.4029 68.2614 32.4029 68.2614 32.4389C68.2614 32.4389 68.2614 32.4749 68.2255 32.4749C68.1895 32.5469 68.1536 32.6189 68.1176 32.6909C67.866 33.159 67.6144 33.591 67.3268 33.987C66.9674 34.5631 66.536 35.0671 66.1046 35.5352C66.1046 35.5352 66.1047 35.5352 66.0687 35.5352C65.6374 36.0032 65.206 36.4353 64.7387 36.7953C64.7387 36.7953 64.7387 36.7953 64.7028 36.7953C64.2355 37.2273 63.7322 37.5514 63.193 37.8754C60.3533 33.483 59.203 27.1824 60.2454 20.5218C61.6473 19.5497 63.1211 19.0097 64.523 18.9377C64.9544 18.9377 65.3857 18.9377 65.8171 19.0457C66.3203 19.1177 66.8236 19.2977 67.2909 19.5497C67.3987 19.6217 67.5425 19.6938 67.6503 19.7658H67.6144C67.6503 19.7658 67.6863 19.8018 67.6863 19.8018C67.7222 19.8378 67.7941 19.8738 67.8301 19.9098C67.8301 19.9098 67.866 19.9098 67.866 19.9458C67.9379 19.9818 68.0098 20.0538 68.0817 20.0898C68.1176 20.1258 68.1895 20.1618 68.2255 20.2338C68.2614 20.2698 68.3333 20.3418 68.3693 20.3778L68.4052 20.4138C68.4411 20.4498 68.513 20.5218 68.549 20.5578C68.5849 20.5938 68.6209 20.6298 68.6568 20.7018C68.6928 20.7378 68.7287 20.8099 68.7647 20.8459C68.8366 20.9179 68.9084 21.0259 68.9444 21.0979L68.9803 21.1339C69.0882 21.3139 69.232 21.5299 69.3398 21.7099C69.6633 22.322 69.879 22.97 70.0228 23.6901C70.1306 24.1942 70.1666 24.7702 70.1666 25.3463C70.1666 25.4543 70.1666 25.5983 70.1666 25.7063C70.1306 26.2103 70.1306 26.6784 70.0587 27.1464C70.0228 27.1464 70.0228 27.1824 70.0228 27.1824Z" fill="url(#paint29_linear)"/>
<path opacity="0.5" d="M70.6708 26.2827C70.6343 26.2827 70.6343 26.2463 70.5979 26.2463H70.6343L70.6708 26.2827Z" fill="url(#paint30_linear)"/>
<path opacity="0.5" d="M69.196 30.3147C69.196 30.2787 69.232 30.2427 69.232 30.2067C69.232 30.1707 69.2679 30.1707 69.2679 30.1347C69.2679 30.2067 69.232 30.2427 69.196 30.3147Z" fill="url(#paint31_linear)"/>
<path d="M50.6122 10.3329C50.6122 11.125 50.5044 11.8451 50.2887 12.4571C50.2887 12.4931 50.2887 12.5291 50.2528 12.5291C49.9652 13.3212 49.5339 13.9693 49.0306 14.4013C48.8509 14.5453 48.6712 14.6533 48.4914 14.7253C48.2757 14.8334 48.0241 14.9054 47.7725 14.9414C47.7006 14.9414 47.5568 14.9774 47.449 14.9774C47.2693 14.9774 47.1255 14.9414 46.9817 14.9414C46.8739 14.9054 46.766 14.9054 46.6582 14.8694C46.5503 14.8334 46.2628 14.8694 46.1549 14.7973C45.8674 14.6533 45.5798 14.4733 45.3282 14.2213C45.1484 14.0413 44.9687 13.8253 44.789 13.6092C44.6093 13.3572 44.6093 13.0332 44.4655 12.7452L44.2857 12.8172C44.142 12.5651 44.0341 12.3131 43.9263 12.0251L44.106 11.9531C43.9982 11.7011 43.9263 11.413 43.8544 11.125L43.6747 11.197C43.6028 10.909 43.7106 10.513 43.6747 10.1889V10.1529C43.6747 9.8289 43.459 9.61288 43.459 9.32486C43.459 8.89282 43.4949 8.49678 43.5309 8.10075C43.5668 7.95673 43.5668 7.81272 43.6028 7.66871C43.6028 7.5967 43.6387 7.5247 43.6387 7.45269C43.7106 7.12866 43.8184 6.80463 43.9622 6.4806C44.2498 5.86855 44.6093 5.29249 45.0047 4.93246C45.1484 4.82445 45.2563 4.71644 45.4001 4.64444C45.436 4.60843 45.5798 4.78845 45.6157 4.75245C45.6157 4.75245 45.6517 4.75245 45.6876 4.71644C45.8314 4.64444 45.9752 4.57243 46.119 4.57243C46.1549 4.57243 46.2268 4.53643 46.2628 4.53643C46.3347 4.53643 46.3706 4.50042 46.4425 4.50042C47.0176 4.42842 47.6287 4.57243 48.1679 4.93246C49.2463 5.61652 50.1449 7.02065 50.4685 8.78481C50.5044 8.96482 50.5044 9.14484 50.5403 9.28885C50.5763 9.64889 50.6122 9.97291 50.6122 10.3329Z" fill="url(#paint32_linear)"/>
<path d="M46.1909 6.37257C46.2987 6.33656 46.4066 6.26456 46.5144 6.26456C46.5863 6.26456 46.6582 6.22855 46.7301 6.22855C47.1614 6.19255 47.5568 6.30056 47.9163 6.55258C48.6352 7.02062 49.2104 7.99271 49.426 9.18082C49.426 9.28883 49.462 9.39684 49.4979 9.46884C49.5339 9.72087 49.5339 9.97289 49.5339 10.1889C49.5339 11.341 49.1385 12.3491 48.4914 12.8892C48.2398 13.1052 47.9523 13.2492 47.6287 13.2852C47.5568 13.2852 47.485 13.2852 47.4131 13.2852C47.3052 13.2852 47.1974 13.2852 47.0895 13.2492C47.0177 13.2492 46.9817 13.2132 46.9458 13.2132C46.0831 12.9252 45.3282 11.9891 45.0047 10.729C44.9328 10.5129 44.8968 10.2969 44.8609 10.0449C44.8249 9.82888 44.8249 9.64886 44.8249 9.46884C44.789 8.02871 45.3282 6.8046 46.1909 6.37257Z" fill="url(#paint33_linear)"/>
<path d="M47.6298 14.9775H47.5939H47.5579L46.5514 15.0856H46.6233C46.4076 15.0856 46.192 15.0856 46.0122 15.0496C45.9044 15.0135 45.7966 15.0135 45.6887 14.9775H45.6528C45.3293 14.8695 45.0057 14.6895 44.7182 14.4375C44.7182 14.4375 44.7182 14.4375 44.6822 14.4015C44.4306 14.1855 44.179 13.9695 43.9633 13.6454C43.9274 13.5734 43.8555 13.5014 43.8195 13.4294C43.6757 13.2494 43.5679 13.0334 43.4601 12.8534C43.3163 12.6013 43.2084 12.3493 43.1006 12.0613C42.9928 11.8093 42.9209 11.5212 42.849 11.2332V11.1972C42.7771 10.9092 42.7052 10.5851 42.6692 10.2971C42.6692 9.97309 42.6333 9.64907 42.6333 9.36104C42.6333 9.03701 42.6692 8.71298 42.6692 8.38895C42.7052 8.06492 42.7771 7.74089 42.849 7.48887C42.9209 7.16484 43.0287 6.87682 43.1725 6.58879C43.3522 6.22876 43.532 5.90473 43.7476 5.6167C43.9993 5.32868 44.2868 5.07665 44.5744 4.89664C44.6822 4.82463 44.7901 4.78863 44.8979 4.75263C45.0417 4.71662 45.1495 4.68062 45.2933 4.64462C45.3652 4.60861 45.7966 4.57261 45.8684 4.53661L46.4436 4.4646C46.4076 4.4646 46.3717 4.4646 46.3357 4.5006C46.2639 4.53661 46.2279 4.53661 46.156 4.57261C45.9763 4.60861 45.8684 4.68062 45.6887 4.71662C45.6168 4.75263 45.5449 4.78863 45.509 4.82463C45.2214 5.00465 44.9698 5.22067 44.7541 5.50869C44.5384 5.79672 44.3587 6.08475 44.179 6.44478C44.179 6.44478 44.179 6.44478 44.179 6.48078V6.51678C44.0711 6.76881 43.9633 7.05683 43.8914 7.38086C43.8195 7.66889 43.7476 7.95691 43.7117 8.28094C43.6757 8.56897 43.6398 8.929 43.6757 9.25303C43.6757 9.50505 43.6757 9.75707 43.7117 10.0091C43.7117 10.0451 43.7117 10.0811 43.7117 10.1171C43.7476 10.4411 43.8195 10.7652 43.8914 11.0532C43.8914 11.0892 43.8914 11.1252 43.9274 11.1612C43.9274 11.1972 43.9274 11.2332 43.9633 11.2692C43.9993 11.3412 43.9993 11.4132 44.0352 11.4852C44.0711 11.5572 44.0711 11.6292 44.1071 11.7012C44.143 11.7733 44.143 11.8453 44.179 11.8813C44.2868 12.1693 44.3947 12.4213 44.5384 12.6733C44.5384 12.6733 44.5384 12.7093 44.5744 12.7093C44.6822 12.9254 44.826 13.1054 44.9338 13.3214C44.9698 13.3574 45.0057 13.4294 45.0417 13.4654C45.2214 13.6814 45.4011 13.8974 45.5809 14.0775C45.8325 14.3295 46.1201 14.5095 46.4076 14.6535C46.5155 14.6895 46.5874 14.7255 46.6952 14.7615C46.6952 14.7615 46.6952 14.7615 46.7312 14.7615C46.803 14.7975 46.839 14.7975 46.9109 14.8335C46.9468 14.8335 47.0187 14.8695 47.0547 14.8695C47.0906 14.8695 47.1266 14.8695 47.1625 14.9055C47.2703 14.9415 47.4141 14.9415 47.522 14.9415C47.486 14.9775 47.5579 14.9775 47.6298 14.9775Z" fill="url(#paint34_linear)"/>
<path d="M42.6322 10.2969L42.5603 9.39683L43.6027 9.28882C43.6027 9.57684 43.6027 9.86487 43.6746 10.1529L42.6322 10.2969Z" fill="url(#paint35_linear)"/>
<path d="M42.6323 8.42475C42.6683 8.10072 42.7402 7.81269 42.8121 7.52467L43.8185 7.41666C43.7467 7.70468 43.6748 7.99271 43.6388 8.31674L42.6323 8.42475Z" fill="url(#paint36_linear)"/>
<path d="M43.0996 6.62459C43.2793 6.26456 43.4591 5.94053 43.6747 5.6525L44.6812 5.54449C44.4656 5.83252 44.2858 6.12055 44.1061 6.48058L43.0996 6.62459Z" fill="url(#paint37_linear)"/>
<path d="M44.5374 4.93244C44.753 4.78842 45.0047 4.71642 45.2563 4.68041C45.3282 4.68041 45.7595 4.60841 45.8314 4.5724L46.2628 4.5004C46.1909 4.5004 46.1549 4.5364 46.083 4.5364C45.9033 4.5724 45.7955 4.64441 45.6517 4.68041C45.5798 4.71642 45.5079 4.75242 45.4719 4.78842L44.5374 4.93244Z" fill="url(#paint38_linear)"/>
<path d="M43.0275 12.0971C42.9197 11.8451 42.8478 11.557 42.7759 11.269C42.7759 11.269 42.7759 11.269 42.7759 11.233L43.8543 11.125C43.8543 11.161 43.8902 11.197 43.8902 11.233C43.8902 11.269 43.8902 11.305 43.9262 11.341C43.9621 11.449 43.9621 11.521 43.9981 11.593C43.9981 11.629 44.034 11.7011 44.034 11.7371C44.0699 11.8091 44.0699 11.8811 44.1059 11.9531L43.0275 12.0971Z" fill="url(#paint39_linear)"/>
<path d="M43.387 12.8532L44.4294 12.7091V12.7451C44.5372 12.9612 44.681 13.1772 44.8248 13.3572C44.8607 13.3932 44.8967 13.4652 44.9326 13.5012L43.8902 13.6452C43.8543 13.5732 43.7824 13.5012 43.7464 13.4292C43.6386 13.2852 43.4948 13.0692 43.387 12.8532Z" fill="url(#paint40_linear)"/>
<path d="M44.6812 14.4373L45.472 14.1493C45.7236 14.4013 46.0112 14.5813 46.2987 14.7253L45.6517 14.9773H45.6157C45.2922 14.8693 44.9687 14.6893 44.6812 14.4373Z" fill="url(#paint41_linear)"/>
<path d="M47.0176 9.4328L47.4849 10.3329L47.9162 8.13669L47.0176 9.4328Z" fill="white"/>
<path d="M46.2627 7.77667L47.0176 9.43282L47.9162 8.1367L46.2627 7.77667Z" fill="white"/>
<path d="M46.4424 11.341L47.0176 9.43282L46.2627 7.77667L46.4424 11.341Z" fill="white"/>
<path d="M46.7661 11.593L48.3118 11.737L47.7726 10.6929L46.7661 11.593Z" fill="white"/>
<path d="M47.7725 10.6929L48.3117 11.737L48.2757 8.46072L47.7725 10.6929Z" fill="white"/>
<path d="M46.4424 11.341L47.4848 10.3329L47.0175 9.4328L46.4424 11.341Z" fill="white"/>
<path d="M50.6121 10.3329C50.6121 11.125 50.5042 11.845 50.2886 12.4571C47.9161 11.881 46.1548 9.21681 46.1548 6.04852C46.1548 5.50848 46.1907 5.00443 46.2986 4.50039C46.3705 4.50039 46.4064 4.46438 46.4783 4.46438C47.0534 4.39238 47.6645 4.53639 48.2037 4.89642C49.2821 5.58048 50.1807 6.98461 50.5043 8.74877C50.5402 8.92878 50.5402 9.1088 50.5761 9.25281C50.5761 9.64885 50.6121 9.97288 50.6121 10.3329Z" fill="url(#paint42_linear)"/>
</g>
<defs>
<linearGradient id="paint0_linear" x1="40.2729" y1="26.4772" x2="45.4635" y2="26.4772" gradientUnits="userSpaceOnUse">
<stop stop-color="#FBA03A"/>
<stop offset="0.2104" stop-color="#FA9A38"/>
<stop offset="0.5041" stop-color="#F78732"/>
<stop offset="0.8455" stop-color="#F36A29"/>
<stop offset="1" stop-color="#F15A24"/>
</linearGradient>
<linearGradient id="paint1_linear" x1="0" y1="70.0478" x2="3.30176" y2="70.0478" gradientUnits="userSpaceOnUse">
<stop stop-color="#FBA03A"/>
<stop offset="0.2104" stop-color="#FA9A38"/>
<stop offset="0.5041" stop-color="#F78732"/>
<stop offset="0.8455" stop-color="#F36A29"/>
<stop offset="1" stop-color="#F15A24"/>
</linearGradient>
<linearGradient id="paint2_linear" x1="63.3547" y1="1.65352" x2="66.6564" y2="1.65352" gradientUnits="userSpaceOnUse">
<stop stop-color="#FBA03A"/>
<stop offset="0.2104" stop-color="#FA9A38"/>
<stop offset="0.5041" stop-color="#F78732"/>
<stop offset="0.8455" stop-color="#F36A29"/>
<stop offset="1" stop-color="#F15A24"/>
</linearGradient>
<linearGradient id="paint3_linear" x1="61.9967" y1="51.0062" x2="67.1873" y2="51.0062" gradientUnits="userSpaceOnUse">
<stop offset="0.1344" stop-color="#FBDF7A"/>
<stop offset="0.3293" stop-color="#FBDD74"/>
<stop offset="0.579" stop-color="#FBD864"/>
<stop offset="0.8575" stop-color="#FBD04A"/>
<stop offset="1" stop-color="#FBCB3A"/>
</linearGradient>
<linearGradient id="paint4_linear" x1="26.7051" y1="16.4429" x2="29.9207" y2="16.4429" gradientUnits="userSpaceOnUse">
<stop offset="0.1344" stop-color="#FBDF7A"/>
<stop offset="0.3293" stop-color="#FBDD74"/>
<stop offset="0.579" stop-color="#FBD864"/>
<stop offset="0.8575" stop-color="#FBD04A"/>
<stop offset="1" stop-color="#FBCB3A"/>
</linearGradient>
<linearGradient id="paint5_linear" x1="24.1278" y1="60.9286" x2="56.9583" y2="60.9286" gradientUnits="userSpaceOnUse">
<stop stop-color="#E59730"/>
<stop offset="1" stop-color="#E75440"/>
</linearGradient>
<linearGradient id="paint6_linear" x1="13.5015" y1="62.0065" x2="52.0249" y2="62.0065" gradientUnits="userSpaceOnUse">
<stop offset="0.1344" stop-color="#FBDF7A"/>
<stop offset="0.3293" stop-color="#FBDD74"/>
<stop offset="0.579" stop-color="#FBD864"/>
<stop offset="0.8575" stop-color="#FBD04A"/>
<stop offset="1" stop-color="#FBCB3A"/>
</linearGradient>
<linearGradient id="paint7_linear" x1="16.8213" y1="62.0066" x2="47.2206" y2="62.0066" gradientUnits="userSpaceOnUse">
<stop stop-color="#FBA03A"/>
<stop offset="0.2104" stop-color="#FA9A38"/>
<stop offset="0.5041" stop-color="#F78732"/>
<stop offset="0.8455" stop-color="#F36A29"/>
<stop offset="1" stop-color="#F15A24"/>
</linearGradient>
<linearGradient id="paint8_linear" x1="28.4468" y1="34.8481" x2="36.4592" y2="34.8481" gradientUnits="userSpaceOnUse">
<stop stop-color="#FB8F60"/>
<stop offset="0.2278" stop-color="#FB895E"/>
<stop offset="0.5458" stop-color="#FD765A"/>
<stop offset="0.9155" stop-color="#FE5953"/>
<stop offset="1" stop-color="#FF5151"/>
</linearGradient>
<linearGradient id="paint9_linear" x1="35.8442" y1="37.7187" x2="42.6606" y2="37.7187" gradientUnits="userSpaceOnUse">
<stop stop-color="#FB8F60"/>
<stop offset="0.2278" stop-color="#FB895E"/>
<stop offset="0.5458" stop-color="#FD765A"/>
<stop offset="0.9155" stop-color="#FE5953"/>
<stop offset="1" stop-color="#FF5151"/>
</linearGradient>
<linearGradient id="paint10_linear" x1="40.7862" y1="41.8577" x2="47.1426" y2="41.8577" gradientUnits="userSpaceOnUse">
<stop stop-color="#FB8F60"/>
<stop offset="0.2278" stop-color="#FB895E"/>
<stop offset="0.5458" stop-color="#FD765A"/>
<stop offset="0.9155" stop-color="#FE5953"/>
<stop offset="1" stop-color="#FF5151"/>
</linearGradient>
<linearGradient id="paint11_linear" x1="44.5901" y1="46.5864" x2="50.6414" y2="46.5864" gradientUnits="userSpaceOnUse">
<stop stop-color="#FB8F60"/>
<stop offset="0.2278" stop-color="#FB895E"/>
<stop offset="0.5458" stop-color="#FD765A"/>
<stop offset="0.9155" stop-color="#FE5953"/>
<stop offset="1" stop-color="#FF5151"/>
</linearGradient>
<linearGradient id="paint12_linear" x1="47.5738" y1="51.7496" x2="53.3728" y2="51.7496" gradientUnits="userSpaceOnUse">
<stop stop-color="#FB8F60"/>
<stop offset="0.2278" stop-color="#FB895E"/>
<stop offset="0.5458" stop-color="#FD765A"/>
<stop offset="0.9155" stop-color="#FE5953"/>
<stop offset="1" stop-color="#FF5151"/>
</linearGradient>
<linearGradient id="paint13_linear" x1="49.8396" y1="57.3011" x2="55.3915" y2="57.3011" gradientUnits="userSpaceOnUse">
<stop stop-color="#FB8F60"/>
<stop offset="0.2278" stop-color="#FB895E"/>
<stop offset="0.5458" stop-color="#FD765A"/>
<stop offset="0.9155" stop-color="#FE5953"/>
<stop offset="1" stop-color="#FF5151"/>
</linearGradient>
<linearGradient id="paint14_linear" x1="51.3697" y1="63.2647" x2="56.6403" y2="63.2647" gradientUnits="userSpaceOnUse">
<stop stop-color="#FB8F60"/>
<stop offset="0.2278" stop-color="#FB895E"/>
<stop offset="0.5458" stop-color="#FD765A"/>
<stop offset="0.9155" stop-color="#FE5953"/>
<stop offset="1" stop-color="#FF5151"/>
</linearGradient>
<linearGradient id="paint15_linear" x1="51.8954" y1="69.7115" x2="56.9584" y2="69.7115" gradientUnits="userSpaceOnUse">
<stop stop-color="#FB8F60"/>
<stop offset="0.2278" stop-color="#FB895E"/>
<stop offset="0.5458" stop-color="#FD765A"/>
<stop offset="0.9155" stop-color="#FE5953"/>
<stop offset="1" stop-color="#FF5151"/>
</linearGradient>
<linearGradient id="paint16_linear" x1="50.0107" y1="77.0376" x2="56.551" y2="77.0376" gradientUnits="userSpaceOnUse">
<stop stop-color="#FB8F60"/>
<stop offset="0.2278" stop-color="#FB895E"/>
<stop offset="0.5458" stop-color="#FD765A"/>
<stop offset="0.9155" stop-color="#FE5953"/>
<stop offset="1" stop-color="#FF5151"/>
</linearGradient>
<linearGradient id="paint17_linear" x1="42.2558" y1="85.1813" x2="53.3202" y2="85.1813" gradientUnits="userSpaceOnUse">
<stop stop-color="#FB8F60"/>
<stop offset="0.2278" stop-color="#FB895E"/>
<stop offset="0.5458" stop-color="#FD765A"/>
<stop offset="0.9155" stop-color="#FE5953"/>
<stop offset="1" stop-color="#FF5151"/>
</linearGradient>
<linearGradient id="paint18_linear" x1="29.3993" y1="31.0482" x2="49.3718" y2="94.5736" gradientUnits="userSpaceOnUse">
<stop stop-color="white" stop-opacity="0.3"/>
<stop offset="1" stop-color="white" stop-opacity="0"/>
</linearGradient>
<linearGradient id="paint19_linear" x1="57.0748" y1="17.0825" x2="68.2848" y2="43.1172" gradientUnits="userSpaceOnUse">
<stop offset="0.1344" stop-color="#FBDF7A"/>
<stop offset="0.3293" stop-color="#FBDD74"/>
<stop offset="0.579" stop-color="#FBD864"/>
<stop offset="0.8575" stop-color="#FBD04A"/>
<stop offset="1" stop-color="#FBCB3A"/>
</linearGradient>
<linearGradient id="paint20_linear" x1="57.6551" y1="29.4405" x2="69.2888" y2="27.9418" gradientUnits="userSpaceOnUse">
<stop stop-color="#FBA03A"/>
<stop offset="0.2104" stop-color="#FA9A38"/>
<stop offset="0.5041" stop-color="#F78732"/>
<stop offset="0.8455" stop-color="#F36A29"/>
<stop offset="1" stop-color="#F15A24"/>
</linearGradient>
<linearGradient id="paint21_linear" x1="66.0337" y1="21.4986" x2="63.8695" y2="37.8122" gradientUnits="userSpaceOnUse">
<stop stop-color="#FBA03A"/>
<stop offset="0.2104" stop-color="#FA9A38"/>
<stop offset="0.5041" stop-color="#F78732"/>
<stop offset="0.8455" stop-color="#F36A29"/>
<stop offset="1" stop-color="#F15A24"/>
</linearGradient>
<linearGradient id="paint22_linear" x1="67.7691" y1="33.152" x2="69.572" y2="34.2824" gradientUnits="userSpaceOnUse">
<stop stop-color="#FB6B3A"/>
<stop offset="0.4484" stop-color="#F86634"/>
<stop offset="1" stop-color="#F15A24"/>
</linearGradient>
<linearGradient id="paint23_linear" x1="65.1828" y1="36.0088" x2="67.3394" y2="37.3611" gradientUnits="userSpaceOnUse">
<stop stop-color="#FB6B3A"/>
<stop offset="0.4484" stop-color="#F86634"/>
<stop offset="1" stop-color="#F15A24"/>
</linearGradient>
<linearGradient id="paint24_linear" x1="61.4915" y1="37.9944" x2="64.3642" y2="39.7956" gradientUnits="userSpaceOnUse">
<stop stop-color="#FB6B3A"/>
<stop offset="0.4484" stop-color="#F86634"/>
<stop offset="1" stop-color="#F15A24"/>
</linearGradient>
<linearGradient id="paint25_linear" x1="57.2714" y1="38.3591" x2="60.3332" y2="40.2789" gradientUnits="userSpaceOnUse">
<stop stop-color="#FB6B3A"/>
<stop offset="0.4484" stop-color="#F86634"/>
<stop offset="1" stop-color="#F15A24"/>
</linearGradient>
<linearGradient id="paint26_linear" x1="69.2315" y1="29.6471" x2="71.4269" y2="31.0237" gradientUnits="userSpaceOnUse">
<stop stop-color="#FB6B3A"/>
<stop offset="0.4484" stop-color="#F86634"/>
<stop offset="1" stop-color="#F15A24"/>
</linearGradient>
<linearGradient id="paint27_linear" x1="69.7273" y1="25.9777" x2="72.3242" y2="27.606" gradientUnits="userSpaceOnUse">
<stop stop-color="#FB6B3A"/>
<stop offset="0.4484" stop-color="#F86634"/>
<stop offset="1" stop-color="#F15A24"/>
</linearGradient>
<linearGradient id="paint28_linear" x1="69.0769" y1="22.0575" x2="71.8478" y2="23.7949" gradientUnits="userSpaceOnUse">
<stop stop-color="#FB6B3A"/>
<stop offset="0.4484" stop-color="#F86634"/>
<stop offset="1" stop-color="#F15A24"/>
</linearGradient>
<linearGradient id="paint29_linear" x1="66.4169" y1="19.1975" x2="61.5378" y2="37.454" gradientUnits="userSpaceOnUse">
<stop stop-color="white"/>
<stop offset="1" stop-color="white" stop-opacity="0.5"/>
</linearGradient>
<linearGradient id="paint30_linear" x1="70.5984" y1="26.2029" x2="70.6676" y2="26.3198" gradientUnits="userSpaceOnUse">
<stop stop-color="white"/>
<stop offset="1" stop-color="white" stop-opacity="0.5"/>
</linearGradient>
<linearGradient id="paint31_linear" x1="69.199" y1="30.1516" x2="69.2914" y2="30.3073" gradientUnits="userSpaceOnUse">
<stop stop-color="white"/>
<stop offset="1" stop-color="white" stop-opacity="0.5"/>
</linearGradient>
<linearGradient id="paint32_linear" x1="42.4514" y1="3.96898" x2="52.308" y2="16.4736" gradientUnits="userSpaceOnUse">
<stop offset="0.1344" stop-color="#FBDF7A"/>
<stop offset="0.3293" stop-color="#FBDD74"/>
<stop offset="0.579" stop-color="#FBD864"/>
<stop offset="0.8575" stop-color="#FBD04A"/>
<stop offset="1" stop-color="#FBCB3A"/>
</linearGradient>
<linearGradient id="paint33_linear" x1="41.1977" y1="16.1934" x2="47.438" y2="9.47968" gradientUnits="userSpaceOnUse">
<stop stop-color="#FBA03A"/>
<stop offset="0.2104" stop-color="#FA9A38"/>
<stop offset="0.5041" stop-color="#F78732"/>
<stop offset="0.8455" stop-color="#F36A29"/>
<stop offset="1" stop-color="#F15A24"/>
</linearGradient>
<linearGradient id="paint34_linear" x1="45.0237" y1="9.08839" x2="47.8467" y2="16.0606" gradientUnits="userSpaceOnUse">
<stop stop-color="#FBA03A"/>
<stop offset="0.2104" stop-color="#FA9A38"/>
<stop offset="0.5041" stop-color="#F78732"/>
<stop offset="0.8455" stop-color="#F36A29"/>
<stop offset="1" stop-color="#F15A24"/>
</linearGradient>
<linearGradient id="paint35_linear" x1="43.5866" y1="9.72747" x2="42.5494" y2="9.7993" gradientUnits="userSpaceOnUse">
<stop stop-color="#FB6B3A"/>
<stop offset="0.4484" stop-color="#F86634"/>
<stop offset="1" stop-color="#F15A24"/>
</linearGradient>
<linearGradient id="paint36_linear" x1="43.787" y1="7.85301" x2="42.5463" y2="7.93891" gradientUnits="userSpaceOnUse">
<stop stop-color="#FB6B3A"/>
<stop offset="0.4484" stop-color="#F86634"/>
<stop offset="1" stop-color="#F15A24"/>
</linearGradient>
<linearGradient id="paint37_linear" x1="44.6741" y1="6.00411" x2="43.0213" y2="6.11852" gradientUnits="userSpaceOnUse">
<stop stop-color="#FB6B3A"/>
<stop offset="0.4484" stop-color="#F86634"/>
<stop offset="1" stop-color="#F15A24"/>
</linearGradient>
<linearGradient id="paint38_linear" x1="46.236" y1="4.64282" x2="44.4744" y2="4.76481" gradientUnits="userSpaceOnUse">
<stop stop-color="#FB6B3A"/>
<stop offset="0.4484" stop-color="#F86634"/>
<stop offset="1" stop-color="#F15A24"/>
</linearGradient>
<linearGradient id="paint39_linear" x1="44.0167" y1="11.5336" x2="42.7536" y2="11.6211" gradientUnits="userSpaceOnUse">
<stop stop-color="#FB6B3A"/>
<stop offset="0.4484" stop-color="#F86634"/>
<stop offset="1" stop-color="#F15A24"/>
</linearGradient>
<linearGradient id="paint40_linear" x1="44.8759" y1="13.126" x2="43.3818" y2="13.2294" gradientUnits="userSpaceOnUse">
<stop stop-color="#FB6B3A"/>
<stop offset="0.4484" stop-color="#F86634"/>
<stop offset="1" stop-color="#F15A24"/>
</linearGradient>
<linearGradient id="paint41_linear" x1="46.2601" y1="14.4868" x2="44.6659" y2="14.5972" gradientUnits="userSpaceOnUse">
<stop stop-color="#FB6B3A"/>
<stop offset="0.4484" stop-color="#F86634"/>
<stop offset="1" stop-color="#F15A24"/>
</linearGradient>
<linearGradient id="paint42_linear" x1="48.0906" y1="7.50342" x2="50.4669" y2="13.3722" gradientUnits="userSpaceOnUse">
<stop stop-color="white" stop-opacity="0.3"/>
<stop offset="1" stop-color="white" stop-opacity="0"/>
</linearGradient>
<clipPath id="clip0">
<rect width="72" height="89" fill="white"/>
</clipPath>
</defs>
</svg>
