<svg width="180" height="130" viewBox="0 0 180 130" fill="none" xmlns="http://www.w3.org/2000/svg">
<rect width="180" height="130" rx="4" fill="white"/>
<rect x="136" y="110" width="32" height="12" rx="2" fill="#6490F1"/>
<path d="M141.376 118H142.026L142.756 115.449H142.784L143.512 118H144.162L145.188 114.364H144.48L143.824 117.038H143.792L143.091 114.364H142.447L141.747 117.036H141.713L141.058 114.364H140.35L141.376 118ZM145.616 118H146.259V115.273H145.616V118ZM145.94 114.886C146.144 114.886 146.311 114.729 146.311 114.538C146.311 114.344 146.144 114.188 145.94 114.188C145.734 114.188 145.567 114.344 145.567 114.538C145.567 114.729 145.734 114.886 145.94 114.886ZM148.282 115.273H147.744V114.619H147.101V115.273H146.714V115.77H147.101V117.286C147.098 117.799 147.471 118.051 147.953 118.037C148.136 118.032 148.262 117.996 148.332 117.973L148.223 117.471C148.188 117.48 148.115 117.496 148.035 117.496C147.874 117.496 147.744 117.439 147.744 117.18V115.77H148.282V115.273ZM149.521 116.402C149.521 116.008 149.766 115.781 150.11 115.781C150.448 115.781 150.647 115.995 150.647 116.363V118H151.289V116.263C151.289 115.605 150.916 115.237 150.35 115.237C149.931 115.237 149.665 115.427 149.539 115.736H149.507V114.364H148.878V118H149.521V116.402ZM152.957 118.048C153.425 118.048 153.637 117.769 153.738 117.57H153.777V118H154.409V114.364H153.764V115.724H153.738C153.64 115.527 153.44 115.237 152.958 115.237C152.328 115.237 151.833 115.731 151.833 116.64C151.833 117.538 152.314 118.048 152.957 118.048ZM153.136 117.521C152.712 117.521 152.488 117.148 152.488 116.636C152.488 116.129 152.708 115.765 153.136 115.765C153.55 115.765 153.777 116.107 153.777 116.636C153.777 117.165 153.546 117.521 153.136 117.521ZM155.094 118H155.737V116.397C155.737 116.05 155.998 115.805 156.351 115.805C156.459 115.805 156.594 115.825 156.649 115.843V115.251C156.591 115.241 156.49 115.234 156.419 115.234C156.106 115.234 155.845 115.411 155.746 115.727H155.717V115.273H155.094V118ZM157.807 118.055C158.235 118.055 158.491 117.854 158.608 117.625H158.63V118H159.247V116.175C159.247 115.454 158.66 115.237 158.139 115.237C157.566 115.237 157.126 115.493 156.984 115.99L157.584 116.075C157.648 115.889 157.829 115.729 158.143 115.729C158.441 115.729 158.605 115.882 158.605 116.15V116.161C158.605 116.345 158.411 116.354 157.93 116.406C157.401 116.462 156.895 116.62 156.895 117.235C156.895 117.771 157.287 118.055 157.807 118.055ZM157.974 117.583C157.706 117.583 157.514 117.46 157.514 117.224C157.514 116.977 157.729 116.874 158.017 116.833C158.186 116.81 158.523 116.768 158.606 116.7V117.022C158.606 117.325 158.361 117.583 157.974 117.583ZM160.457 118H161.128L161.639 116.157H161.676L162.188 118H162.857L163.63 115.273H162.973L162.5 117.18H162.474L161.984 115.273H161.335L160.845 117.19H160.821L160.341 115.273H159.686L160.457 118Z" fill="white"/>
<rect x="12" y="54" width="40" height="3" rx="1.5" fill="#142533" fill-opacity="0.3"/>
<rect x="12" y="78" width="16" height="3" rx="1.5" fill="#142533" fill-opacity="0.3"/>
<rect x="90" y="54" width="64" height="3" rx="1.5" fill="#142533" fill-opacity="0.3"/>
<rect x="66" y="78" width="32" height="3" rx="1.5" fill="#142533" fill-opacity="0.3"/>
<rect x="136" y="78" width="32" height="3" rx="1.5" fill="#142533" fill-opacity="0.3"/>
<path d="M51.2479 23H52.5476L54.0071 17.897H54.0639L55.5199 23H56.8196L58.8722 15.7273H57.4553L56.1449 21.0753H56.081L54.6783 15.7273H53.3892L51.9901 21.0717H51.9226L50.6122 15.7273H49.1953L51.2479 23ZM59.7289 23H61.0144V17.5455H59.7289V23ZM60.3752 16.7713C60.7836 16.7713 61.1174 16.4588 61.1174 16.0753C61.1174 15.6882 60.7836 15.3757 60.3752 15.3757C59.9632 15.3757 59.6294 15.6882 59.6294 16.0753C59.6294 16.4588 59.9632 16.7713 60.3752 16.7713ZM65.06 17.5455H63.984V16.2386H62.6985V17.5455H61.9244V18.5398H62.6985V21.5724C62.6914 22.5987 63.4371 23.103 64.4031 23.0746C64.7688 23.0639 65.021 22.9929 65.1594 22.9467L64.9428 21.9418C64.8718 21.9595 64.7262 21.9915 64.5664 21.9915C64.2433 21.9915 63.984 21.8778 63.984 21.3594V18.5398H65.06V17.5455ZM67.5378 19.804C67.5378 19.0156 68.0279 18.5611 68.7168 18.5611C69.3915 18.5611 69.7892 18.9908 69.7892 19.7259V23H71.0748V19.527C71.0748 18.2095 70.329 17.4744 69.1962 17.4744C68.3581 17.4744 67.8255 17.8544 67.5733 18.4723H67.5094V15.7273H66.2523V23H67.5378V19.804ZM74.4093 23.0959C75.3468 23.0959 75.7694 22.5384 75.9718 22.1406H76.0499V23H77.3141V15.7273H76.025V18.4474H75.9718C75.7765 18.0533 75.3752 17.4744 74.4128 17.4744C73.1522 17.4744 72.1614 18.4616 72.1614 20.2798C72.1614 22.0767 73.1238 23.0959 74.4093 23.0959ZM74.7679 22.0412C73.9192 22.0412 73.4718 21.2955 73.4718 20.2727C73.4718 19.2571 73.9121 18.5291 74.7679 18.5291C75.5953 18.5291 76.0499 19.2145 76.0499 20.2727C76.0499 21.331 75.5882 22.0412 74.7679 22.0412ZM78.6839 23H79.9695V19.7933C79.9695 19.1009 80.4915 18.6108 81.1982 18.6108C81.4148 18.6108 81.6847 18.6499 81.7947 18.6854V17.5028C81.6776 17.4815 81.4751 17.4673 81.3331 17.4673C80.7081 17.4673 80.1861 17.8224 79.9872 18.4545H79.9304V17.5455H78.6839V23ZM84.111 23.1101C84.9668 23.1101 85.4782 22.7088 85.7125 22.2507H85.7551V23H86.9909V19.3494C86.9909 17.9077 85.8155 17.4744 84.775 17.4744C83.628 17.4744 82.7473 17.9858 82.4632 18.9801L83.6635 19.1506C83.7914 18.7777 84.1536 18.4581 84.7821 18.4581C85.3787 18.4581 85.7054 18.7635 85.7054 19.2997V19.321C85.7054 19.6903 85.3184 19.7081 84.356 19.8111C83.2978 19.9247 82.2857 20.2408 82.2857 21.4695C82.2857 22.5419 83.0705 23.1101 84.111 23.1101ZM84.4448 22.1655C83.9086 22.1655 83.525 21.9205 83.525 21.4482C83.525 20.9545 83.9547 20.7486 84.53 20.6669C84.8674 20.6207 85.5421 20.5355 85.709 20.4006V21.0433C85.709 21.6506 85.2189 22.1655 84.4448 22.1655ZM89.4093 23H90.7516L91.7743 19.3139H91.8489L92.8716 23H94.2104L95.7551 17.5455H94.4412L93.4966 21.3594H93.4434L92.4632 17.5455H91.1671L90.187 21.3807H90.1373L89.1784 17.5455H87.8681L89.4093 23ZM100.703 23.1101C101.559 23.1101 102.07 22.7088 102.304 22.2507H102.347V23H103.583V19.3494C103.583 17.9077 102.407 17.4744 101.367 17.4744C100.22 17.4744 99.3391 17.9858 99.055 18.9801L100.255 19.1506C100.383 18.7777 100.745 18.4581 101.374 18.4581C101.971 18.4581 102.297 18.7635 102.297 19.2997V19.321C102.297 19.6903 101.91 19.7081 100.948 19.8111C99.8896 19.9247 98.8775 20.2408 98.8775 21.4695C98.8775 22.5419 99.6623 23.1101 100.703 23.1101ZM101.037 22.1655C100.5 22.1655 100.117 21.9205 100.117 21.4482C100.117 20.9545 100.547 20.7486 101.122 20.6669C101.459 20.6207 102.134 20.5355 102.301 20.4006V21.0433C102.301 21.6506 101.811 22.1655 101.037 22.1655ZM109.186 18.9872C109.009 18.0639 108.27 17.4744 106.992 17.4744C105.678 17.4744 104.783 18.1207 104.787 19.1293C104.783 19.9247 105.273 20.4503 106.321 20.6669L107.251 20.8622C107.752 20.9723 107.986 21.1747 107.986 21.4837C107.986 21.8565 107.581 22.1371 106.971 22.1371C106.381 22.1371 105.998 21.8814 105.887 21.3913L104.634 21.5121C104.794 22.5135 105.635 23.1065 106.974 23.1065C108.338 23.1065 109.3 22.3999 109.304 21.3665C109.3 20.5888 108.799 20.1129 107.77 19.8892L106.839 19.6903C106.285 19.5661 106.065 19.3743 106.069 19.0582C106.065 18.6889 106.473 18.4332 107.01 18.4332C107.603 18.4332 107.915 18.7564 108.015 19.1151L109.186 18.9872ZM114.675 18.9872C114.497 18.0639 113.759 17.4744 112.48 17.4744C111.166 17.4744 110.271 18.1207 110.275 19.1293C110.271 19.9247 110.761 20.4503 111.809 20.6669L112.739 20.8622C113.24 20.9723 113.474 21.1747 113.474 21.4837C113.474 21.8565 113.07 22.1371 112.459 22.1371C111.869 22.1371 111.486 21.8814 111.376 21.3913L110.122 21.5121C110.282 22.5135 111.124 23.1065 112.462 23.1065C113.826 23.1065 114.788 22.3999 114.792 21.3665C114.788 20.5888 114.288 20.1129 113.258 19.8892L112.327 19.6903C111.773 19.5661 111.553 19.3743 111.557 19.0582C111.553 18.6889 111.962 18.4332 112.498 18.4332C113.091 18.4332 113.403 18.7564 113.503 19.1151L114.675 18.9872ZM118.267 23.1065C119.538 23.1065 120.412 22.4851 120.639 21.5369L119.439 21.402C119.265 21.8636 118.838 22.1051 118.284 22.1051C117.453 22.1051 116.903 21.5582 116.892 20.6243H120.692V20.2301C120.692 18.3161 119.542 17.4744 118.199 17.4744C116.637 17.4744 115.618 18.6214 115.618 20.3047C115.618 22.0163 116.623 23.1065 118.267 23.1065ZM116.896 19.7578C116.935 19.0618 117.45 18.4759 118.217 18.4759C118.956 18.4759 119.453 19.0156 119.46 19.7578H116.896ZM124.503 17.5455H123.427V16.2386H122.142V17.5455H121.368V18.5398H122.142V21.5724C122.135 22.5987 122.881 23.103 123.846 23.0746C124.212 23.0639 124.464 22.9929 124.603 22.9467L124.386 21.9418C124.315 21.9595 124.17 21.9915 124.01 21.9915C123.687 21.9915 123.427 21.8778 123.427 21.3594V18.5398H124.503V17.5455ZM129.811 18.9872C129.634 18.0639 128.895 17.4744 127.617 17.4744C126.303 17.4744 125.408 18.1207 125.412 19.1293C125.408 19.9247 125.898 20.4503 126.946 20.6669L127.876 20.8622C128.377 20.9723 128.611 21.1747 128.611 21.4837C128.611 21.8565 128.206 22.1371 127.596 22.1371C127.006 22.1371 126.623 21.8814 126.512 21.3913L125.259 21.5121C125.419 22.5135 126.26 23.1065 127.599 23.1065C128.963 23.1065 129.925 22.3999 129.929 21.3665C129.925 20.5888 129.424 20.1129 128.395 19.8892L127.464 19.6903C126.91 19.5661 126.69 19.3743 126.694 19.0582C126.69 18.6889 127.098 18.4332 127.635 18.4332C128.228 18.4332 128.54 18.7564 128.64 19.1151L129.811 18.9872Z" fill="black"/>
<rect x="58" y="49" width="26" height="12" rx="2" fill="#6490F1"/>
<rect x="34" y="73" width="26" height="12" rx="2" fill="#6490F1"/>
<rect x="104" y="73" width="26" height="12" rx="2" fill="#6490F1"/>
<line x1="180" y1="102.25" x2="-2.18557e-08" y2="102.25" stroke="#142533" stroke-opacity="0.1" stroke-width="0.5"/>
</svg>
