<svg width="180" height="130" viewBox="0 0 180 130" fill="none" xmlns="http://www.w3.org/2000/svg">
<rect width="180" height="130" rx="4" fill="white"/>
<rect x="136" y="110" width="32" height="12" rx="2" fill="#6490F1"/>
<path d="M145.971 115.363H146.604C146.592 114.749 146.068 114.314 145.294 114.314C144.531 114.314 143.957 114.744 143.959 115.386C143.959 115.908 144.33 116.208 144.928 116.363L145.342 116.469C145.734 116.569 145.994 116.691 145.995 116.974C145.994 117.284 145.699 117.492 145.269 117.492C144.857 117.492 144.538 117.308 144.511 116.926H143.863C143.89 117.648 144.428 118.055 145.275 118.055C146.146 118.055 146.652 117.62 146.654 116.979C146.652 116.349 146.132 116.061 145.585 115.931L145.244 115.846C144.946 115.775 144.623 115.649 144.627 115.346C144.628 115.072 144.873 114.871 145.285 114.871C145.678 114.871 145.937 115.054 145.971 115.363ZM148.951 116.853C148.951 117.268 148.655 117.474 148.371 117.474C148.062 117.474 147.856 117.256 147.856 116.91V115.273H147.213V117.009C147.213 117.664 147.586 118.036 148.122 118.036C148.531 118.036 148.818 117.821 148.942 117.515H148.971V118H149.594V115.273H148.951V116.853ZM150.255 119.023H150.898V117.57H150.924C151.026 117.769 151.237 118.048 151.706 118.048C152.348 118.048 152.83 117.538 152.83 116.64C152.83 115.731 152.334 115.237 151.704 115.237C151.223 115.237 151.022 115.527 150.924 115.724H150.887V115.273H150.255V119.023ZM150.885 116.636C150.885 116.107 151.113 115.765 151.526 115.765C151.954 115.765 152.174 116.129 152.174 116.636C152.174 117.148 151.951 117.521 151.526 117.521C151.116 117.521 150.885 117.165 150.885 116.636ZM153.38 119.023H154.023V117.57H154.049C154.151 117.769 154.362 118.048 154.831 118.048C155.473 118.048 155.955 117.538 155.955 116.64C155.955 115.731 155.459 115.237 154.829 115.237C154.348 115.237 154.147 115.527 154.049 115.724H154.012V115.273H153.38V119.023ZM154.01 116.636C154.01 116.107 154.238 115.765 154.651 115.765C155.079 115.765 155.299 116.129 155.299 116.636C155.299 117.148 155.076 117.521 154.651 117.521C154.241 117.521 154.01 117.165 154.01 116.636ZM157.148 114.364H156.505V118H157.148V114.364ZM158.208 119.023C158.709 119.023 158.998 118.765 159.153 118.33L160.248 115.276L159.561 115.273L158.931 117.332H158.903L158.274 115.273H157.592L158.581 118.057L158.526 118.204C158.407 118.515 158.219 118.536 157.938 118.455L157.789 118.955C157.876 118.991 158.032 119.023 158.208 119.023Z" fill="white"/>
<rect x="12" y="54" width="40" height="3" rx="1.5" fill="#142533" fill-opacity="0.3"/>
<rect x="12" y="78" width="16" height="3" rx="1.5" fill="#142533" fill-opacity="0.3"/>
<rect x="90" y="54" width="64" height="3" rx="1.5" fill="#142533" fill-opacity="0.3"/>
<rect x="66" y="78" width="32" height="3" rx="1.5" fill="#142533" fill-opacity="0.3"/>
<rect x="136" y="78" width="32" height="3" rx="1.5" fill="#142533" fill-opacity="0.3"/>
<path d="M60.6697 17.7266H61.9375C61.9126 16.4979 60.8651 15.6278 59.3168 15.6278C57.7898 15.6278 56.6428 16.4872 56.6463 17.7727C56.6463 18.8168 57.3885 19.4169 58.5852 19.7259L59.4126 19.9389C60.1974 20.1378 60.7159 20.3828 60.7195 20.9474C60.7159 21.5689 60.1264 21.9844 59.267 21.9844C58.4432 21.9844 57.804 21.6151 57.7507 20.8516H56.4545C56.5078 22.2969 57.5838 23.1101 59.2777 23.1101C61.0213 23.1101 62.0334 22.2401 62.0369 20.9581C62.0334 19.6974 60.9929 19.1222 59.8991 18.8629L59.2173 18.6925C58.6207 18.5504 57.9744 18.2983 57.9815 17.6911C57.9851 17.1442 58.4751 16.7429 59.299 16.7429C60.0838 16.7429 60.6023 17.1087 60.6697 17.7266ZM66.6312 20.706C66.6312 21.5369 66.0382 21.9489 65.47 21.9489C64.8521 21.9489 64.4402 21.5121 64.4402 20.8196V17.5455H63.1547V21.0185C63.1547 22.3288 63.9004 23.071 64.9728 23.071C65.7896 23.071 66.3649 22.6413 66.6135 22.0305H66.6703V23H67.9167V17.5455H66.6312V20.706ZM69.2386 25.0455H70.5241V22.1406H70.5774C70.7798 22.5384 71.2024 23.0959 72.1399 23.0959C73.4254 23.0959 74.3878 22.0767 74.3878 20.2798C74.3878 18.4616 73.397 17.4744 72.1364 17.4744C71.174 17.4744 70.7727 18.0533 70.5774 18.4474H70.5028V17.5455H69.2386V25.0455ZM70.4993 20.2727C70.4993 19.2145 70.9538 18.5291 71.7812 18.5291C72.6371 18.5291 73.0774 19.2571 73.0774 20.2727C73.0774 21.2955 72.63 22.0412 71.7812 22.0412C70.9609 22.0412 70.4993 21.331 70.4993 20.2727ZM75.4886 25.0455H76.7741V22.1406H76.8274C77.0298 22.5384 77.4524 23.0959 78.3899 23.0959C79.6754 23.0959 80.6378 22.0767 80.6378 20.2798C80.6378 18.4616 79.647 17.4744 78.3864 17.4744C77.424 17.4744 77.0227 18.0533 76.8274 18.4474H76.7528V17.5455H75.4886V25.0455ZM76.7493 20.2727C76.7493 19.2145 77.2038 18.5291 78.0312 18.5291C78.8871 18.5291 79.3274 19.2571 79.3274 20.2727C79.3274 21.2955 78.88 22.0412 78.0312 22.0412C77.2109 22.0412 76.7493 21.331 76.7493 20.2727ZM83.0241 15.7273H81.7386V23H83.0241V15.7273ZM85.1451 25.0455C86.1465 25.0455 86.7253 24.5305 87.0343 23.6605L89.2253 17.5526L87.851 17.5455L86.5904 21.6648H86.5336L85.2765 17.5455H83.9128L85.8908 23.1136L85.7807 23.4084C85.5428 24.0298 85.1664 24.0724 84.6053 23.9091L84.307 24.9105C84.481 24.9815 84.7935 25.0455 85.1451 25.0455ZM94.1676 23.1101C95.0234 23.1101 95.5348 22.7088 95.7692 22.2507H95.8118V23H97.0476V19.3494C97.0476 17.9077 95.8722 17.4744 94.8317 17.4744C93.6847 17.4744 92.804 17.9858 92.5199 18.9801L93.7202 19.1506C93.848 18.7777 94.2102 18.4581 94.8388 18.4581C95.4354 18.4581 95.7621 18.7635 95.7621 19.2997V19.321C95.7621 19.6903 95.375 19.7081 94.4126 19.8111C93.3544 19.9247 92.3423 20.2408 92.3423 21.4695C92.3423 22.5419 93.1271 23.1101 94.1676 23.1101ZM94.5014 22.1655C93.9652 22.1655 93.5817 21.9205 93.5817 21.4482C93.5817 20.9545 94.0114 20.7486 94.5866 20.6669C94.924 20.6207 95.5987 20.5355 95.7656 20.4006V21.0433C95.7656 21.6506 95.2756 22.1655 94.5014 22.1655ZM102.651 18.9872C102.474 18.0639 101.735 17.4744 100.457 17.4744C99.1428 17.4744 98.2479 18.1207 98.2514 19.1293C98.2479 19.9247 98.7379 20.4503 99.7855 20.6669L100.716 20.8622C101.217 20.9723 101.451 21.1747 101.451 21.4837C101.451 21.8565 101.046 22.1371 100.435 22.1371C99.8459 22.1371 99.4624 21.8814 99.3523 21.3913L98.0987 21.5121C98.2585 22.5135 99.1001 23.1065 100.439 23.1065C101.803 23.1065 102.765 22.3999 102.768 21.3665C102.765 20.5888 102.264 20.1129 101.234 19.8892L100.304 19.6903C99.75 19.5661 99.5298 19.3743 99.5334 19.0582C99.5298 18.6889 99.9382 18.4332 100.474 18.4332C101.067 18.4332 101.38 18.7564 101.479 19.1151L102.651 18.9872ZM108.14 18.9872C107.962 18.0639 107.223 17.4744 105.945 17.4744C104.631 17.4744 103.736 18.1207 103.74 19.1293C103.736 19.9247 104.226 20.4503 105.274 20.6669L106.204 20.8622C106.705 20.9723 106.939 21.1747 106.939 21.4837C106.939 21.8565 106.534 22.1371 105.924 22.1371C105.334 22.1371 104.951 21.8814 104.841 21.3913L103.587 21.5121C103.747 22.5135 104.588 23.1065 105.927 23.1065C107.291 23.1065 108.253 22.3999 108.257 21.3665C108.253 20.5888 107.752 20.1129 106.723 19.8892L105.792 19.6903C105.238 19.5661 105.018 19.3743 105.022 19.0582C105.018 18.6889 105.426 18.4332 105.963 18.4332C106.556 18.4332 106.868 18.7564 106.968 19.1151L108.14 18.9872ZM111.732 23.1065C113.003 23.1065 113.876 22.4851 114.104 21.5369L112.903 21.402C112.729 21.8636 112.303 22.1051 111.749 22.1051C110.918 22.1051 110.368 21.5582 110.357 20.6243H114.157V20.2301C114.157 18.3161 113.006 17.4744 111.664 17.4744C110.102 17.4744 109.082 18.6214 109.082 20.3047C109.082 22.0163 110.087 23.1065 111.732 23.1065ZM110.361 19.7578C110.4 19.0618 110.915 18.4759 111.682 18.4759C112.42 18.4759 112.918 19.0156 112.925 19.7578H110.361ZM117.968 17.5455H116.892V16.2386H115.607V17.5455H114.833V18.5398H115.607V21.5724C115.6 22.5987 116.345 23.103 117.311 23.0746C117.677 23.0639 117.929 22.9929 118.068 22.9467L117.851 21.9418C117.78 21.9595 117.634 21.9915 117.475 21.9915C117.151 21.9915 116.892 21.8778 116.892 21.3594V18.5398H117.968V17.5455ZM123.276 18.9872C123.099 18.0639 122.36 17.4744 121.082 17.4744C119.768 17.4744 118.873 18.1207 118.876 19.1293C118.873 19.9247 119.363 20.4503 120.411 20.6669L121.341 20.8622C121.842 20.9723 122.076 21.1747 122.076 21.4837C122.076 21.8565 121.671 22.1371 121.06 22.1371C120.471 22.1371 120.087 21.8814 119.977 21.3913L118.724 21.5121C118.884 22.5135 119.725 23.1065 121.064 23.1065C122.428 23.1065 123.39 22.3999 123.393 21.3665C123.39 20.5888 122.889 20.1129 121.859 19.8892L120.929 19.6903C120.375 19.5661 120.155 19.3743 120.158 19.0582C120.155 18.6889 120.563 18.4332 121.099 18.4332C121.692 18.4332 122.005 18.7564 122.104 19.1151L123.276 18.9872Z" fill="black"/>
<rect x="58" y="49" width="26" height="12" rx="2" fill="#6490F1"/>
<rect x="34" y="73" width="26" height="12" rx="2" fill="#6490F1"/>
<rect x="104" y="73" width="26" height="12" rx="2" fill="#6490F1"/>
<line x1="180" y1="102.25" x2="-2.18557e-08" y2="102.25" stroke="#142533" stroke-opacity="0.1" stroke-width="0.5"/>
</svg>
