<svg xmlns="http://www.w3.org/2000/svg" xmlns:xlink="http://www.w3.org/1999/xlink" width="512" height="147">
    <defs/>
    <defs>
        <filter id="a" width="103.6%" height="143.9%" x="-1.8%" y="-17.1%" filterUnits="objectBoundingBox">
            <feMorphology in="SourceAlpha" operator="dilate" radius=".5" result="shadowSpreadOuter1"/>
            <feOffset dy="2" in="shadowSpreadOuter1" result="shadowOffsetOuter1"/>
            <feGaussianBlur in="shadowOffsetOuter1" result="shadowBlurOuter1" stdDeviation="2.5"/>
            <feComposite in="shadowBlurOuter1" in2="SourceAlpha" operator="out" result="shadowBlurOuter1"/>
            <feColorMatrix in="shadowBlurOuter1" values="0 0 0 0 0 0 0 0 0 0 0 0 0 0 0 0 0 0 0.03 0"/>
        </filter>
        <filter id="c" width="103.6%" height="143.9%" x="-1.8%" y="-17.1%" filterUnits="objectBoundingBox">
            <feMorphology in="SourceAlpha" operator="dilate" radius=".5" result="shadowSpreadOuter1"/>
            <feOffset dy="2" in="shadowSpreadOuter1" result="shadowOffsetOuter1"/>
            <feGaussianBlur in="shadowOffsetOuter1" result="shadowBlurOuter1" stdDeviation="2.5"/>
            <feComposite in="shadowBlurOuter1" in2="SourceAlpha" operator="out" result="shadowBlurOuter1"/>
            <feColorMatrix in="shadowBlurOuter1" values="0 0 0 0 0 0 0 0 0 0 0 0 0 0 0 0 0 0 0.03 0"/>
        </filter>
        <filter id="e" width="103.6%" height="143.9%" x="-1.8%" y="-17.1%" filterUnits="objectBoundingBox">
            <feMorphology in="SourceAlpha" operator="dilate" radius=".5" result="shadowSpreadOuter1"/>
            <feOffset dy="2" in="shadowSpreadOuter1" result="shadowOffsetOuter1"/>
            <feGaussianBlur in="shadowOffsetOuter1" result="shadowBlurOuter1" stdDeviation="2.5"/>
            <feComposite in="shadowBlurOuter1" in2="SourceAlpha" operator="out" result="shadowBlurOuter1"/>
            <feColorMatrix in="shadowBlurOuter1" values="0 0 0 0 0 0 0 0 0 0 0 0 0 0 0 0 0 0 0.03 0"/>
        </filter>
        <rect id="b" width="499.999991" height="40.9999993" x="0" y="0" rx="2.79999995"/>
        <rect id="d" width="499.999991" height="40.9999993" x="0" y="0" rx="2.79999995"/>
        <rect id="f" width="499.999991" height="40.9999993" x="0" y="0" rx="2.79999995"/>
    </defs>
    <g fill="none" fill-rule="evenodd">
        <g stroke-linecap="round" transform="translate(6 4)">
            <use fill="#000" filter="url(#a)" xlink:href="#b"/>
            <use fill="#FFF" stroke="#EEE" xlink:href="#b"/>
        </g>
        <path fill="#66BE54" fill-rule="nonzero" d="M165.933402 20.079853l-5.752941 5.9766258-2.113841-2.1960313c-.102486-.1064706-.268659-.1064706-.371166 0l-.61859.6426411c-.102485.1064707-.102485.2791049 0 .3855983l2.918003 3.0314601c.102486.1064707.268659.1064707.371167 0l6.557102-6.8120546c.102485-.1064707.102485-.2791049 0-.3855983l-.61859-.6426411c-.102485-.1064707-.268658-.1064707-.371144 0z"/>
        <path fill="#FFAE35" fill-rule="nonzero" d="M26.78846481 18h1.51454547v2.72481114h-1.51454547V18zm1.51454547 0v2.72481114h-1.51454547V18h1.51454547zm-1.34230305 11.5297341h1.51454548v2.7248111h-1.51454548v-2.7248111zm1.51454548 0v2.7248111h-1.51454548v-2.7248111h1.51454548zM23.92567698 18h1.51454547v2.72481114h-1.51454547V18zm1.51454547 0v2.72481114h-1.51454547V18h1.51454547zM24.0979194 29.5297341h1.51454548v2.7248111H24.0979194v-2.7248111zm1.51454548 0v2.7248111H24.0979194v-2.7248111h1.51454548zm-3.23696969-3.67808386v-6.11437756h.75727274l5.46864342.001397c1.61057404.09796466 2.86159965 1.39544746 2.77820494 2.89954003l-.00151802.24813082c.09856479 1.55431666-1.15654578 2.86602372-2.82266377 2.96530971h-6.1799393zm.75727274 0l.75727273-.75727274v3.8480763l4.99591422.0002272c.84687733-.0222667 1.49279944-.6472753 1.47802502-1.38665319l.00020044-.32992542c.01669158-.72533527-.62974948-1.35244575-1.4583216-1.37445215h-5.77309081zm6.73230289-2.91738459l.00113008-.33741145c.0375215-.68604176-.55202918-1.29748557-1.3107664-1.34503605h-4.66539384v3.08532069l4.6370464.00020865c.80058435-.05661015 1.38291229-.67076669 1.33798376-1.40308184zm-5.97503016 1.40283912l4.61972266.00137847c.00385719-.00023305.14251152-.00060566.41596299-.00111781 1.65697959.04348697 2.98913682 1.33580861 2.95279906 2.90615889l-.00015431.29721653c.03199823 1.58477905-1.29878973 2.87247905-2.97251232 2.91622395h-6.53036355v-6.11986003H23.89004066zm0 .00019413v.7570786l-.75727273-.75727273.75727273.00019413z"/>
        <path fill="#000" d="M116.5 28c.828427 0 1.5.6715729 1.5 1.5s-.671573 1.5-1.5 1.5h-73c-.8284271 0-1.5-.6715729-1.5-1.5s.6715729-1.5 1.5-1.5h73zm-30-8c.8284271 0 1.5.6715729 1.5 1.5s-.6715729 1.5-1.5 1.5h-43c-.8284271 0-1.5-.6715729-1.5-1.5s.6715729-1.5 1.5-1.5h43zM282.5 24c.828427 0 1.5.6715729 1.5 1.5s-.671573 1.5-1.5 1.5h-73c-.828427 0-1.5-.6715729-1.5-1.5s.671573-1.5 1.5-1.5h73zm90 0c.828427 0 1.5.6715729 1.5 1.5s-.671573 1.5-1.5 1.5h-43c-.828427 0-1.5-.6715729-1.5-1.5s.671573-1.5 1.5-1.5h43zm90 0c.828427 0 1.5.6715729 1.5 1.5s-.671573 1.5-1.5 1.5h-33c-.828427 0-1.5-.6715729-1.5-1.5s.671573-1.5 1.5-1.5h33z" opacity=".16"/>
        <g opacity=".60000002">
            <g stroke-linecap="round" transform="translate(6 51)">
                <use fill="#000" filter="url(#c)" xlink:href="#d"/>
                <use fill="#FFF" stroke="#EEE" xlink:href="#d"/>
            </g>
            <path fill="#0EBDCD" fill-rule="nonzero" d="M23.859975 72.1272726l3.2718827-4.669826 3.2718828 4.669826-3.2718828 4.669826-3.2718827-4.669826zm8.2655591 0L27.1318577 65l-4.9936763 7.1272726 4.9936763 7.1272726 4.9936764-7.1272726zm-9.1876053-.8751504l-.3973075 1.3529933 4.5912364 1.3482202 4.5912365-1.3482202-.3973075-1.3529933-4.193929 1.2315506-4.1939289-1.2315506z"/>
            <path fill="#000" d="M116.5 75c.828427 0 1.5.6715729 1.5 1.5s-.671573 1.5-1.5 1.5h-73c-.8284271 0-1.5-.6715729-1.5-1.5s.6715729-1.5 1.5-1.5h73zm-30-8c.8284271 0 1.5.6715729 1.5 1.5s-.6715729 1.5-1.5 1.5h-43c-.8284271 0-1.5-.6715729-1.5-1.5s.6715729-1.5 1.5-1.5h43zM282.5 71c.828427 0 1.5.6715729 1.5 1.5s-.671573 1.5-1.5 1.5h-73c-.828427 0-1.5-.6715729-1.5-1.5s.671573-1.5 1.5-1.5h73zm90 0c.828427 0 1.5.6715729 1.5 1.5s-.671573 1.5-1.5 1.5h-43c-.828427 0-1.5-.6715729-1.5-1.5s.671573-1.5 1.5-1.5h43zm90 0c.828427 0 1.5.6715729 1.5 1.5s-.671573 1.5-1.5 1.5h-33c-.828427 0-1.5-.6715729-1.5-1.5s.671573-1.5 1.5-1.5h33z" opacity=".16"/>
            <path fill="#66BE54" fill-rule="nonzero" d="M165.933402 67.079853l-5.752941 5.9766258-2.113841-2.1960313c-.102486-.1064706-.268659-.1064706-.371166 0l-.61859.6426411c-.102485.1064707-.102485.2791049 0 .3855983l2.918003 3.0314601c.102486.1064707.268659.1064707.371167 0l6.557102-6.8120546c.102485-.1064707.102485-.2791049 0-.3855983l-.61859-.6426411c-.102485-.1064707-.268658-.1064707-.371144 0z"/>
        </g>
        <g opacity=".30000001">
            <g stroke-linecap="round" transform="translate(6 98)">
                <use fill="#000" filter="url(#e)" xlink:href="#f"/>
                <use fill="#FFF" stroke="#EEE" xlink:href="#f"/>
            </g>
            <path fill="#65D196" fill-rule="nonzero" d="M24.7157025 123.9758467h3.007154c2.3662841 0 4.2646414-1.7175614 4.2498338-3.7830996v-2.2169875c0-2.063881-1.900189-3.7830996-4.2498338-3.7830996h-3.007154v9.7831867zm3.007154 1.4799328h-4.4870868v-12.7430522h4.4870868c3.1466613 0 5.7297665 2.3569564 5.7297665 5.2630337l-.0000213 2.2110361c.0208795 2.9092168-2.5636631 5.2689824-5.7297452 5.2689824zm-7.188311-5.5424688v-1.6581146h7.4806239v1.6581146h-7.4806239z"/>
            <path fill="#66BE54" fill-rule="nonzero" d="M165.933402 115.079853l-5.752941 5.9766258-2.113841-2.1960313c-.102486-.1064706-.268659-.1064706-.371166 0l-.61859.6426411c-.102485.1064707-.102485.2791049 0 .3855983l2.918003 3.0314601c.102486.1064707.268659.1064707.371167 0l6.557102-6.8120546c.102485-.1064707.102485-.2791049 0-.3855983l-.61859-.6426411c-.102485-.1064707-.268658-.1064707-.371144 0z"/>
            <path fill="#000" d="M116.5 122c.828427 0 1.5.6715729 1.5 1.5s-.671573 1.5-1.5 1.5h-73c-.8284271 0-1.5-.6715729-1.5-1.5s.6715729-1.5 1.5-1.5h73zm-30-8c.8284271 0 1.5.6715729 1.5 1.5s-.6715729 1.5-1.5 1.5h-43c-.8284271 0-1.5-.6715729-1.5-1.5s.6715729-1.5 1.5-1.5h43zM282.5 118c.828427 0 1.5.6715729 1.5 1.5s-.671573 1.5-1.5 1.5h-73c-.828427 0-1.5-.6715729-1.5-1.5s.671573-1.5 1.5-1.5h73zm90 0c.828427 0 1.5.6715729 1.5 1.5s-.671573 1.5-1.5 1.5h-43c-.828427 0-1.5-.6715729-1.5-1.5s.671573-1.5 1.5-1.5h43zm90 0c.828427 0 1.5.6715729 1.5 1.5s-.671573 1.5-1.5 1.5h-33c-.828427 0-1.5-.6715729-1.5-1.5s.671573-1.5 1.5-1.5h33z" opacity=".16"/>
        </g>
    </g>
</svg>