<svg xmlns="http://www.w3.org/2000/svg" xmlns:xlink="http://www.w3.org/1999/xlink" width="79" height="56" viewBox="0 0 79 56">
    <defs>
        <path id="a" d="M.963 6.468l.09.097a.67.67 0 0 0 1.073-.127.869.869 0 0 0 .07-.136l.533-1.31a.2.2 0 0 0-.11-.26l-.384-.154a.2.2 0 0 0-.26.11l-.493 1.21-.267-.471a3.081 3.081 0 0 1 .365-3.553A3.114 3.114 0 0 1 3.492.841a.2.2 0 0 0 .174-.199L3.665.23a.2.2 0 0 0-.223-.198A3.93 3.93 0 0 0 .965 1.344a3.886 3.886 0 0 0-.002 5.124zm5.853-5.169a.67.67 0 0 0-1.073.127.869.869 0 0 0-.07.136l-.534 1.31a.2.2 0 0 0 .111.26l.384.155a.2.2 0 0 0 .26-.11l.492-1.211.268.472a3.081 3.081 0 0 1-.365 3.552 3.113 3.113 0 0 1-1.914 1.032.2.2 0 0 0-.172.199v.412a.2.2 0 0 0 .224.198c.08-.01.146-.018.197-.027a3.93 3.93 0 0 0 2.28-1.284 3.886 3.886 0 0 0 .002-5.123l-.09-.098z"/>
    </defs>
    <g fill="none" fill-rule="evenodd">
        <path fill="#D8D8D8" d="M67.523 0c1.946 0 3.554 1.61 3.554 3.56v40.508H77v1.949A3.975 3.975 0 0 1 73.023 50H4.4C1.946 50 0 48.05 0 45.593v-1.525h5.923V3.136C5.923 1.44 7.362 0 9.053 0h58.47zm8.63 44.915H.847v.678c0 1.95 1.608 3.56 3.554 3.56h68.623c1.777 0 3.13-1.441 3.13-3.136v-1.102zm-9.73 1.695a.424.424 0 1 1 0 .848h-2.538a.424.424 0 1 1 0-.848h2.537zm1.1-45.763H9.053A2.277 2.277 0 0 0 6.77 3.136v40.932h63.462V3.559c0-1.525-1.185-2.712-2.708-2.712zm.416 2.524v38.983H9.555V3.37h58.384zm-.846.847H10.401v37.288h56.692V4.218zM38.5 1.695c.234 0 .423.19.423.423v.001a.423.423 0 0 1-.846 0v-.001c0-.234.19-.423.423-.423z"/>
        <g fill="#8a80db">
            <path d="M40.343 14.607h5.869a1 1 0 0 1 .993.883l.007.117v5.865a1 1 0 0 1-.884.993l-.116.007h-5.869a1 1 0 0 1-.993-.883l-.007-.117v-5.865a1 1 0 0 1 .883-.994l.117-.006h5.869zm6.307.562h-6.745v6.741h6.745V15.17zM44.4 17.416v2.247h-2.248v-2.247h2.248zM31.35 14.607h5.869a1 1 0 0 1 .993.883l.007.117v5.865a1 1 0 0 1-.883.993l-.117.007H31.35a1 1 0 0 1-.993-.883l-.007-.117v-5.865a1 1 0 0 1 .884-.994l.116-.006h5.869zm6.307.562h-6.745v6.741h6.745V15.17zm-2.248 2.247v2.247H33.16v-2.247h2.248zM31.35 24.157h5.869a1 1 0 0 1 .993.884l.007.116v5.865a1 1 0 0 1-.883.994l-.117.006H31.35a1 1 0 0 1-.993-.883l-.007-.117v-5.865a1 1 0 0 1 .884-.993l.116-.007h5.869zm6.307.562h-6.745v6.742h6.745v-6.742zm-2.248 2.247v2.247H33.16v-2.247h2.248z"/>
        </g>
        <use fill="#8a80db" fill-rule="nonzero" transform="translate(39.343 24.157)" xlink:href="#a"/>
        <g>
            <g fill-rule="nonzero" transform="rotate(-15 93.15 -170.153)">
                <path fill="#FFF" stroke="#142533" stroke-width="1.5" d="M4 .75A3.25 3.25 0 0 0 .75 4v32A3.25 3.25 0 0 0 4 39.25h14.932a3.25 3.25 0 0 0 3.25-3.25V4a3.25 3.25 0 0 0-3.25-3.25H4z"/>
                <ellipse cx="11.466" cy="35.833" stroke="#142533" rx="1.398" ry="1.389"/>
                <path fill="#8a80db" d="M5.42 16.17a.373.373 0 0 1-.374-.374v-1.463a1 1 0 0 1 1-1H7.35a.37.37 0 0 1 0 .74H5.792v1.723a.373.373 0 0 1-.373.373zm12.59 0a.373.373 0 0 1-.373-.374v-1.723H16.08a.37.37 0 0 1 0-.74h1.303a1 1 0 0 1 1 1v1.463a.373.373 0 0 1-.373.373zM7.337 26.666H6.034a1 1 0 0 1-1-1v-1.463a.373.373 0 1 1 .746 0v1.723h1.557a.37.37 0 0 1 0 .74zm10.035 0H16.07a.37.37 0 0 1 0-.74h1.557v-1.723a.373.373 0 1 1 .745 0v1.463a1 1 0 0 1-1 1z"/>
            </g>
        </g>
    </g>
</svg>
