<svg width="232" height="121" viewBox="0 0 232 121" fill="none" xmlns="http://www.w3.org/2000/svg">
<path d="M205.931 9.27507C205.931 10.0947 205.676 10.9231 205.182 11.6987C204.688 12.4742 203.948 13.2145 202.943 13.8667C202.802 13.9548 202.643 14.0518 202.493 14.1399L171.673 32.1627C167.079 34.8331 159.63 34.789 155.01 32.057L124.357 13.8667L124.04 13.6816C122.797 12.9501 121.889 12.0953 121.307 11.1699C120.884 10.4913 120.637 9.77742 120.575 9.06356V9.00187C120.452 7.15111 121.598 5.26511 124.005 3.86382L154.825 -14.1502C159.418 -16.8382 166.868 -16.7941 171.487 -14.0532L202.458 4.33091C204.653 5.62644 205.808 7.30975 205.922 9.00187C205.931 9.09 205.931 9.18694 205.931 9.27507Z" fill="url(#paint0_linear)"/>
<path d="M205.931 9.27511V13.8667H205.922C206.046 15.7263 204.9 17.6035 202.502 19.0048L171.681 37.0188C167.088 39.7068 159.639 39.6627 155.019 36.9218L124.04 18.5377C121.845 17.2334 120.69 15.5589 120.575 13.8667V9.0636C120.637 9.77746 120.884 10.4913 121.307 11.1699C121.889 12.0865 122.797 12.9414 124.04 13.6817L124.357 13.8667L155.019 32.057C159.63 34.7979 167.088 34.842 171.681 32.1628L202.502 14.14C202.652 14.0518 202.81 13.9549 202.952 13.8667C203.948 13.2058 204.697 12.4743 205.191 11.6987C205.676 10.9144 205.931 10.0947 205.931 9.27511Z" fill="url(#paint1_linear)"/>
<g opacity="0.6">
<g opacity="0.6">
<path opacity="0.6" d="M183.01 7.31855L182.895 7.30093C182.745 7.25687 182.622 7.15992 182.551 7.0101C179.995 1.54597 171.805 -0.463422 171.717 -0.481049C171.584 -0.516301 171.461 -0.595616 171.391 -0.719C171.32 -0.842383 171.294 -0.983397 171.329 -1.11559C171.382 -1.35355 171.593 -1.521 171.84 -1.521L171.964 -1.50337C172.052 -1.48574 174.159 -0.974582 176.662 0.27688C178.981 1.4314 182.049 3.46723 183.512 6.56944C183.636 6.83383 183.521 7.15111 183.257 7.27449C183.186 7.30975 183.107 7.32737 183.036 7.32737H183.01V7.31855Z" fill="white"/>
<path opacity="0.6" d="M182.948 7.09824C182.86 7.0718 182.781 7.01011 182.737 6.92198C180.145 1.37853 171.849 -0.666112 171.77 -0.683739C171.602 -0.718991 171.488 -0.895256 171.532 -1.07152C171.576 -1.24778 171.752 -1.35353 171.919 -1.30947C172.008 -1.29184 174.106 -0.771869 176.574 0.453154C178.866 1.59886 181.899 3.59944 183.327 6.64877C183.407 6.80741 183.336 7.0013 183.169 7.08062C183.098 7.11587 183.019 7.11587 182.948 7.09824Z" fill="white"/>
</g>
<g opacity="0.6">
<path opacity="0.6" d="M179.836 12.8355L179.73 12.8179C179.519 12.7562 179.369 12.58 179.342 12.3685C178.17 1.94254 163.5 0.0300988 163.359 0.0124726C163.068 -0.0227798 162.866 -0.287178 162.901 -0.578011C162.936 -0.842404 163.156 -1.0451 163.421 -1.0451C163.641 -1.01867 179.131 0.964286 180.392 12.2451C180.409 12.3861 180.365 12.5271 180.277 12.6329C180.189 12.7474 180.065 12.8091 179.924 12.8267H179.863H179.836V12.8355Z" fill="white"/>
<path opacity="0.6" d="M179.774 12.6152C179.651 12.58 179.554 12.4742 179.536 12.342C178.355 1.78391 163.527 -0.172605 163.377 -0.190232C163.2 -0.216671 163.077 -0.37531 163.095 -0.551572C163.112 -0.727834 163.28 -0.851218 163.456 -0.833591C163.615 -0.815965 178.937 1.20224 180.18 12.2715C180.198 12.4478 180.074 12.6064 179.898 12.624C179.854 12.624 179.81 12.624 179.774 12.6152Z" fill="white"/>
</g>
<g opacity="0.6">
<path opacity="0.6" d="M174.758 13.6199V13.6287C174.758 13.6376 174.758 13.6376 174.758 13.6464C174.749 13.7609 174.661 13.8667 174.529 13.9284C174.45 13.9813 174.335 13.9989 174.22 13.9989C174.15 13.9989 174.088 13.9901 174.026 13.9636C174.026 13.9636 174.026 13.9636 174.018 13.9636C173.833 13.9108 173.7 13.7786 173.7 13.6199V13.5847C173.7 11.2316 172.969 9.19575 171.532 7.53007C166.797 2.02188 155.619 1.96018 155.143 1.96018C154.799 1.96018 154.561 1.72223 154.552 1.43139C154.552 1.2992 154.605 1.167 154.711 1.06124C154.808 0.955486 154.94 0.893799 155.081 0.893799C155.636 0.893799 158.431 0.929046 161.702 1.56359C165.052 2.22457 169.618 3.66993 172.334 6.83384C173.938 8.71984 174.758 11.0024 174.758 13.6199Z" fill="white"/>
<path opacity="0.6" d="M174.529 13.3203C174.538 13.5142 174.538 13.7257 174.529 13.9284C174.45 13.9812 174.335 13.9989 174.22 13.9989C174.15 13.9989 174.088 13.9901 174.026 13.9636C174.026 13.9636 174.026 13.9636 174.018 13.9636C173.974 13.9196 173.947 13.9019 173.903 13.8843C173.903 13.6992 173.903 13.5141 173.894 13.3379C173.85 11.0465 173.11 9.05472 171.69 7.40667C166.762 1.68695 155.196 1.75746 155.081 1.76627C154.905 1.76627 154.764 1.62526 154.764 1.449C154.755 1.26392 154.896 1.12291 155.072 1.12291C155.107 1.12291 158.087 1.08766 161.658 1.79271C164.972 2.44488 169.495 3.87261 172.175 6.99245C173.7 8.74626 174.476 10.8702 174.529 13.3203Z" fill="white"/>
</g>
<g opacity="0.6">
<path opacity="0.6" d="M170.13 12.8444C170.13 12.8885 170.139 12.9149 170.13 12.959V12.9942C170.112 13.1 170.059 13.241 169.945 13.3644C169.901 13.4261 169.839 13.4878 169.76 13.5318C169.574 13.6464 169.407 13.6023 169.292 13.523C169.169 13.4437 169.098 13.3027 169.098 13.3027C169.081 11.4607 168.04 9.65405 166.039 7.92668C163.721 5.94373 160.468 4.93903 156.359 4.93903C151.995 4.93903 148.337 6.08473 148.31 6.09355L148.266 6.10236L148.143 6.11118C147.905 6.11118 147.711 5.97016 147.64 5.74984C147.561 5.459 147.711 5.15936 147.984 5.08004C148.302 4.97429 151.149 4.11942 154.772 3.91671C155.31 3.88146 155.839 3.86383 156.342 3.86383C160.662 3.86383 164.25 4.99191 166.727 7.11587C168.816 8.92256 169.962 10.8438 170.13 12.8444Z" fill="white"/>
<path opacity="0.6" d="M169.945 13.2939V13.3556C169.901 13.4173 169.839 13.479 169.76 13.523C169.574 13.6376 169.407 13.5935 169.292 13.5142C169.301 13.4437 169.301 13.3732 169.301 13.2939C169.275 11.3903 168.217 9.53068 166.171 7.76806C159.806 2.31274 148.346 5.85562 148.231 5.89968C148.064 5.95256 147.878 5.85562 147.826 5.67935C147.773 5.5119 147.87 5.32682 148.028 5.27394C148.152 5.22988 151.026 4.33094 154.764 4.11943C159.745 3.81978 163.826 4.91261 166.577 7.28334C168.79 9.16935 169.918 11.1964 169.945 13.2939Z" fill="white"/>
</g>
<g opacity="0.6">
<path opacity="0.6" d="M159.427 19.6569L159.313 19.6393C159.172 19.604 159.048 19.5071 158.986 19.3749C158.916 19.2515 158.907 19.1105 158.951 18.9695C158.995 18.8373 159.083 18.7227 159.207 18.661C162.689 16.8103 164.558 15.03 164.761 13.3643C164.893 12.3244 164.364 11.2933 163.165 10.2093C161.728 8.92254 159.321 8.05004 156.562 7.8209C156.121 7.78564 155.681 7.76802 155.257 7.76802C153.274 7.76802 151.608 8.1558 150.805 8.80797C148.443 10.7028 144.899 11.1963 144.749 11.2139H144.74C144.414 11.2139 144.193 11.0201 144.158 10.7557C144.14 10.6147 144.176 10.4736 144.264 10.3679C144.352 10.2621 144.475 10.1828 144.617 10.1652C144.652 10.1564 148.011 9.69809 150.144 7.97953C151.149 7.16873 153.009 6.71045 155.249 6.71045C155.707 6.71045 156.174 6.72808 156.65 6.77214C159.639 7.01891 162.266 7.98835 163.871 9.42489C165.325 10.738 165.978 12.1041 165.81 13.4965C165.554 15.55 163.562 17.5506 159.709 19.5952C159.63 19.6393 159.551 19.6569 159.463 19.6569H159.427V19.6569Z" fill="white"/>
<path opacity="0.6" d="M159.366 19.4366C159.286 19.4101 159.207 19.3573 159.163 19.2779C159.083 19.1193 159.136 18.9254 159.295 18.8373C162.839 16.9601 164.743 15.1181 164.955 13.382C165.087 12.2627 164.549 11.1787 163.289 10.0506C161.825 8.72864 159.374 7.83852 156.562 7.60937C154.014 7.39786 151.696 7.80327 150.655 8.6317C148.328 10.5001 144.846 10.976 144.705 10.9936C144.528 11.0201 144.37 10.8967 144.343 10.7116C144.317 10.5353 144.44 10.3767 144.625 10.3503C144.661 10.3414 148.072 9.87435 150.259 8.12054C151.44 7.17753 153.873 6.72807 156.615 6.95721C159.56 7.20397 162.143 8.14697 163.712 9.55707C165.114 10.8173 165.748 12.1305 165.581 13.4525C165.334 15.4354 163.377 17.3831 159.586 19.3925C159.533 19.4542 159.445 19.463 159.366 19.4366Z" fill="white"/>
</g>
<g opacity="0.6">
<path opacity="0.6" d="M151.052 19.1722L150.938 19.1546C150.735 19.1017 150.576 18.9255 150.55 18.7139C150.514 18.4231 150.717 18.1587 151.008 18.1235C151.07 18.1147 157.646 17.1893 159.824 13.8844C160.415 12.9854 160.326 12.1834 159.551 11.5048C158.748 10.7998 157.329 10.3415 155.945 10.3415C154.887 10.3415 153.988 10.6147 153.415 11.1082C150.832 13.3468 145.93 14.0694 145.727 14.0959H145.718C145.392 14.0959 145.172 13.902 145.137 13.6464C145.119 13.5054 145.154 13.3644 145.234 13.2498C145.322 13.1352 145.445 13.0647 145.586 13.0471C145.63 13.0383 150.364 12.3597 152.736 10.3062C153.494 9.65406 154.64 9.29272 155.954 9.29272C157.585 9.29272 159.277 9.84795 160.256 10.7116C161.437 11.7516 161.614 13.1176 160.723 14.4748C158.264 18.2028 151.449 19.1458 151.167 19.181L151.096 19.1899H151.052V19.1722Z" fill="white"/>
<path opacity="0.6" d="M150.999 18.9519C150.876 18.9166 150.779 18.8197 150.761 18.6787C150.735 18.5024 150.858 18.3438 151.043 18.3173C151.114 18.3085 157.752 17.392 160 13.9813C160.82 12.7386 160.282 11.8573 159.683 11.3285C158.193 10.0242 154.816 9.59236 153.283 10.9319C150.735 13.1352 145.904 13.8403 145.701 13.8667C145.525 13.8931 145.357 13.7698 145.339 13.5935C145.313 13.4172 145.436 13.2498 145.613 13.2322C145.657 13.2234 150.461 12.5271 152.868 10.4472C154.675 8.87849 158.431 9.37202 160.124 10.8526C161.226 11.8133 161.376 13.0912 160.556 14.3426C158.149 18.0001 151.431 18.9254 151.14 18.9607C151.079 18.9695 151.034 18.9695 150.999 18.9519Z" fill="white"/>
</g>
<g opacity="0.6">
<path opacity="0.6" d="M147.773 17.0658L147.667 17.0482C147.482 16.9953 147.349 16.8631 147.297 16.6869C147.261 16.5547 147.27 16.4137 147.341 16.2815C147.411 16.1581 147.517 16.07 147.658 16.0259C153.256 14.4043 155.539 12.58 155.557 12.5623C155.654 12.483 155.769 12.439 155.892 12.439C156.051 12.439 156.201 12.5095 156.298 12.6329C156.483 12.8532 156.448 13.1881 156.227 13.3732C156.13 13.4525 153.829 15.3297 147.949 17.0394L147.922 17.0482L147.799 17.057H147.773V17.0658Z" fill="white"/>
<path opacity="0.6" d="M147.72 16.8455C147.614 16.8191 147.526 16.7397 147.491 16.6252C147.438 16.4577 147.543 16.2726 147.711 16.2286C153.388 14.5805 155.663 12.7386 155.689 12.721C155.83 12.6064 156.033 12.624 156.148 12.765C156.262 12.906 156.245 13.1087 156.104 13.2145C156.007 13.2938 153.723 15.1534 147.896 16.8455C147.834 16.8631 147.773 16.8631 147.72 16.8455Z" fill="white"/>
</g>
</g>
<path d="M90.5484 89.9768C90.5484 90.4086 90.4162 90.8404 90.1517 91.2547C89.896 91.6689 89.4993 92.0478 88.9703 92.4004C88.891 92.4444 88.8117 92.4973 88.7323 92.5414L72.4846 102.042C70.0602 103.452 66.1371 103.426 63.7039 101.98L47.5531 92.3916L47.3856 92.2946C46.7332 91.9068 46.2572 91.4574 45.9486 90.9726C45.7194 90.6113 45.596 90.2411 45.5607 89.8622V89.8269C45.499 88.8487 46.0985 87.8616 47.368 87.1213L63.6157 77.6296C66.0401 76.2107 69.9632 76.2371 72.3964 77.6825L88.7147 87.3769C89.8696 88.0555 90.4867 88.9456 90.5396 89.8357C90.5484 89.8798 90.5484 89.9327 90.5484 89.9768Z" fill="url(#paint2_linear)"/>
<path d="M90.5484 89.9768V92.4004H90.5396C90.6013 93.3786 90.0018 94.3657 88.7412 95.106L72.4934 104.598C70.069 106.017 66.1459 105.99 63.7127 104.545L47.3856 94.8504C46.2307 94.163 45.6136 93.2817 45.5607 92.3916V89.8622C45.596 90.2411 45.7194 90.6113 45.9486 90.9726C46.2572 91.4574 46.7332 91.9068 47.3856 92.2946L47.5531 92.3916L63.7127 101.98C66.1459 103.426 70.0778 103.443 72.4934 102.042L88.7412 92.5414C88.8205 92.4973 88.8998 92.4444 88.9792 92.4004C89.5081 92.0566 89.896 91.6689 90.1605 91.2547C90.4162 90.8404 90.5484 90.4086 90.5484 89.9768Z" fill="url(#paint3_linear)"/>
<path d="M213.628 89.4304C213.628 90.0737 213.434 90.7083 213.046 91.3164C212.658 91.9245 212.076 92.4973 211.3 93.0085C211.186 93.079 211.071 93.1495 210.948 93.22L186.907 107.277C183.327 109.366 177.509 109.33 173.912 107.189L150.003 92.9997L149.756 92.8587C148.786 92.2858 148.081 91.616 147.632 90.9022C147.297 90.3734 147.111 89.8182 147.059 89.2629V89.2101C146.962 87.7647 147.852 86.2929 149.739 85.2001L173.78 71.152C177.359 69.0545 183.177 69.0897 186.774 71.2313L210.921 85.5702C212.631 86.5749 213.539 87.8969 213.619 89.2101C213.628 89.2806 213.628 89.3599 213.628 89.4304Z" fill="url(#paint4_linear)"/>
<path d="M213.628 89.4304V93.0085H213.619C213.716 94.4627 212.825 95.9257 210.948 97.0185L186.907 111.067C183.327 113.164 177.509 113.129 173.912 110.987L149.756 96.6483C148.046 95.6348 147.138 94.3217 147.059 93.0085V89.2629C147.111 89.8182 147.297 90.3734 147.632 90.9022C148.081 91.616 148.795 92.2858 149.756 92.8587L150.003 92.9997L173.912 107.189C177.509 109.322 183.327 109.357 186.907 107.277L210.948 93.22C211.071 93.1495 211.186 93.079 211.3 93.0085C212.076 92.4974 212.658 91.9245 213.046 91.3164C213.434 90.7083 213.628 90.0737 213.628 89.4304Z" fill="url(#paint5_linear)"/>
<path d="M228.994 51.2432C228.994 51.4811 228.923 51.7191 228.773 51.9482C228.632 52.1774 228.412 52.3889 228.121 52.5828C228.077 52.6092 228.033 52.6356 227.989 52.6621L218.979 57.9323C217.639 58.7167 215.461 58.6991 214.113 57.8971L205.156 52.5828L205.059 52.5299C204.697 52.3184 204.433 52.0628 204.265 51.7984C204.142 51.5957 204.071 51.393 204.054 51.1815V51.1638C204.018 50.6262 204.353 50.071 205.059 49.6656L214.068 44.4042C215.408 43.6198 217.586 43.6286 218.935 44.4306L227.98 49.8066C228.624 50.1856 228.959 50.6791 228.994 51.1727C228.994 51.1903 228.994 51.2167 228.994 51.2432Z" fill="url(#paint6_linear)"/>
<path d="M228.994 51.2431V52.5827C229.029 53.1291 228.694 53.6755 227.998 54.0809L218.988 59.3424C217.648 60.1267 215.47 60.1179 214.121 59.3159L205.067 53.9399C204.424 53.561 204.089 53.0674 204.054 52.5739V51.1726C204.071 51.3841 204.142 51.5868 204.265 51.7895C204.433 52.0627 204.697 52.3095 205.059 52.521L205.156 52.5739L214.112 57.8882C215.461 58.6902 217.639 58.699 218.979 57.9235L227.989 52.6532C228.033 52.6268 228.077 52.6003 228.121 52.5739C228.412 52.38 228.632 52.1685 228.773 51.9393C228.923 51.7278 228.994 51.4811 228.994 51.2431Z" fill="url(#paint7_linear)"/>
<path d="M41.3643 27.9148C41.3643 28.2762 41.2497 28.6375 41.0381 28.9812C40.8177 29.3249 40.4916 29.6422 40.0508 29.933C39.989 29.9683 39.9185 30.0123 39.8568 30.0564L26.2979 37.9882C24.2791 39.1603 20.9995 39.1427 18.9719 37.9441L5.4835 29.9418L5.34244 29.8625C4.79585 29.5364 4.39914 29.1663 4.14347 28.7609C3.95834 28.4612 3.85255 28.1528 3.81729 27.8355V27.8091C3.76439 26.9982 4.2669 26.1698 5.32481 25.5529L18.8837 17.6299C20.9026 16.449 24.1821 16.4666 26.2097 17.674L39.8304 25.7644C40.7913 26.3373 41.3026 27.0776 41.3555 27.8179C41.3643 27.8355 41.3643 27.8796 41.3643 27.9148Z" fill="url(#paint8_linear)"/>
<path d="M41.3643 27.9148V29.933H41.3555C41.4084 30.7527 40.9059 31.5723 39.848 32.1892L26.2891 40.1122C24.2702 41.2932 20.9907 41.2755 18.9631 40.0681L5.34245 31.9777C4.38151 31.4048 3.87019 30.6645 3.81729 29.9242V27.8091C3.84374 28.1264 3.94953 28.4348 4.14348 28.7345C4.39914 29.1399 4.79586 29.5188 5.34245 29.8361L5.4835 29.9154L18.9719 37.9177C20.9995 39.1251 24.2791 39.1428 26.2979 37.9618L39.8568 30.03C39.9273 29.9947 39.989 29.9507 40.0508 29.9066C40.4916 29.6158 40.8177 29.2985 41.0381 28.9548C41.2497 28.6375 41.3643 28.2762 41.3643 27.9148Z" fill="url(#paint9_linear)"/>
<path d="M140.746 23.6052C131.075 29.5188 122.453 31.6868 114.484 31.6868C103.332 31.6868 93.4753 27.4301 83.813 23.2527C78.3736 20.9084 73.2427 18.6963 67.9179 17.2333C54.3238 13.5054 42.0872 17.436 34.9816 20.8115C33.2625 21.6134 31.852 22.389 30.7852 23.0235C30.3444 22.909 29.9389 22.7327 29.6303 22.5212C30.7235 21.8514 32.3368 20.926 34.3645 19.9654C41.6024 16.5107 54.2003 12.4037 68.1912 16.2463C73.5866 17.7269 78.7527 19.9566 84.2186 22.3185C100.546 29.3514 117.428 36.6398 140.209 22.7327L140.746 23.6052Z" fill="#96B6F6"/>
<path d="M79.7313 82.4592L79.2464 81.5514C79.4315 81.4545 98.0684 71.4692 105.077 66.6661C115.709 59.3865 132.398 58.9899 143.083 65.7495C159.798 76.3253 163.439 78.0791 163.474 78.0967L163.033 79.0309C162.892 78.9604 159.357 77.2771 142.527 66.622C132.345 60.1708 115.806 60.5762 105.659 67.521C98.6062 72.3417 79.9164 82.3534 79.7313 82.4592Z" fill="#96B6F6"/>
<path d="M157.012 55.0856C147.438 55.0856 136.418 49.7273 128.51 42.6327C126.138 40.5087 125.142 38.1909 125.539 35.7497C126.729 28.567 139.724 22.9266 140.279 22.6974L140.685 23.6493C140.552 23.7021 127.655 29.2985 126.561 35.9259C126.218 37.997 127.108 39.9976 129.197 41.8748C140.332 51.86 157.691 58.3729 167.935 50.7584C181.996 40.3149 192.972 36.8689 200.545 40.5352C209.317 44.7743 210.798 46.0346 210.859 46.0874L210.181 46.863C210.128 46.8189 208.62 45.5851 200.095 41.4606C192.901 37.9794 182.278 41.3812 168.552 51.5868C165.263 54.0281 161.279 55.0856 157.012 55.0856Z" fill="#96B6F6"/>
<path d="M35.0433 21.1904C35.0433 22.2833 33.6592 23.1646 31.9401 23.1646C31.5258 23.1646 31.1467 23.1117 30.7852 23.0236C30.3444 22.909 29.9389 22.7327 29.6303 22.5212C29.1367 22.1687 28.8369 21.7016 28.8369 21.1993C28.8369 20.1064 30.2298 19.2163 31.9489 19.2163C32.9275 19.2163 33.8091 19.5071 34.3645 19.9742C34.6731 20.2122 34.8935 20.503 34.9816 20.8203C35.0169 20.9349 35.0433 21.0583 35.0433 21.1904Z" fill="#95AADB"/>
<path d="M140.482 25.1475C142.196 25.1475 143.585 24.2597 143.585 23.1646C143.585 22.0694 142.196 21.1816 140.482 21.1816C138.768 21.1816 137.379 22.0694 137.379 23.1646C137.379 24.2597 138.768 25.1475 140.482 25.1475Z" fill="#95ABDB"/>
<path d="M79.4844 83.9838C81.1983 83.9838 82.5876 83.096 82.5876 82.0009C82.5876 80.9057 81.1983 80.0179 79.4844 80.0179C77.7706 80.0179 76.3812 80.9057 76.3812 82.0009C76.3812 83.096 77.7706 83.9838 79.4844 83.9838Z" fill="#95AADB"/>
<path d="M79.4844 82.9439C80.3949 82.9439 81.133 82.4744 81.133 81.8951C81.133 81.3159 80.3949 80.8464 79.4844 80.8464C78.5739 80.8464 77.8358 81.3159 77.8358 81.8951C77.8358 82.4744 78.5739 82.9439 79.4844 82.9439Z" fill="white"/>
<path d="M140.482 24.0371C141.392 24.0371 142.13 23.5676 142.13 22.9883C142.13 22.4091 141.392 21.9396 140.482 21.9396C139.571 21.9396 138.833 22.4091 138.833 22.9883C138.833 23.5676 139.571 24.0371 140.482 24.0371Z" fill="white"/>
<path d="M210.524 48.4317C212.238 48.4317 213.628 47.5439 213.628 46.4488C213.628 45.3536 212.238 44.4658 210.524 44.4658C208.811 44.4658 207.421 45.3536 207.421 46.4488C207.421 47.5439 208.811 48.4317 210.524 48.4317Z" fill="#95ABDB"/>
<path d="M163.245 79.5597C164.958 79.5597 166.348 78.6719 166.348 77.5767C166.348 76.4815 164.958 75.5938 163.245 75.5938C161.531 75.5938 160.141 76.4815 160.141 77.5767C160.141 78.6719 161.531 79.5597 163.245 79.5597Z" fill="#95AADB"/>
<path opacity="0.3" d="M41.3643 8.27041C41.3643 8.63174 41.2497 8.99308 41.0381 9.33679C40.8177 9.6805 40.4916 9.99778 40.0508 10.2886C39.989 10.3239 39.9185 10.3679 39.8568 10.412L26.2979 18.3438C24.2791 19.5159 20.9995 19.4983 18.9719 18.2997L5.4835 10.2974L5.34244 10.2181C4.79585 9.89202 4.39914 9.52187 4.14347 9.11646C3.95834 8.81682 3.85255 8.50836 3.81729 8.19109V8.16465C3.76439 7.35385 4.2669 6.52541 5.32481 5.90849L18.8837 -2.0145C20.9026 -3.19545 24.1821 -3.17782 26.2097 -1.97043L39.8304 6.12001C40.7913 6.69286 41.3026 7.43316 41.3555 8.17346C41.3643 8.19109 41.3643 8.23515 41.3643 8.27041Z" fill="#D2F1EB"/>
<path d="M205.931 -5.6631C205.931 -4.84348 205.676 -4.01504 205.182 -3.23949C204.688 -2.46394 203.948 -1.72364 202.943 -1.07147C202.802 -0.983335 202.643 -0.886393 202.493 -0.798262L171.673 17.2246C167.079 19.8949 159.63 19.8509 155.01 17.1188L124.349 -1.07147L124.031 -1.25654C122.788 -1.98803 121.88 -2.8429 121.298 -3.76828C120.875 -4.44689 120.628 -5.16075 120.567 -5.87461V-5.9363C120.443 -7.78705 121.589 -9.67306 123.996 -11.0743L154.817 -29.0884C159.41 -31.7763 166.859 -31.7323 171.479 -28.9914L202.449 -10.6073C204.644 -9.31173 205.799 -7.62842 205.914 -5.9363C205.931 -5.84817 205.931 -5.74241 205.931 -5.6631Z" fill="url(#paint10_linear)"/>
<path d="M76.3812 42.9412V45.6556L73.6571 44.3865V41.6633L76.3812 42.9412Z" fill="#E8EEFF"/>
<path d="M76.3812 47.5769V50.3001L73.6571 49.0311V46.3078L76.3812 47.5769Z" fill="#E8EEFF"/>
<path d="M76.3812 37.9441V40.6674L73.6571 39.3983V36.675L76.3812 37.9441Z" fill="#E8EEFF"/>
<path d="M76.3812 32.9559V35.6792L73.6571 34.4013V31.678L76.3812 32.9559Z" fill="#E8EEFF"/>
<path d="M85.6997 59.0692V61.7925L82.9755 60.5234V57.8001L85.6997 59.0692Z" fill="#E8EEFF"/>
<path d="M85.6997 63.7049V66.4281L82.9755 65.159V62.4358L85.6997 63.7049Z" fill="#E8EEFF"/>
<path d="M63.175 90.9462C61.4294 90.9991 60.5566 91.0255 60.5566 91.0167C60.0012 88.2846 62.5138 85.3851 66.4897 84.3452C68.6144 83.7899 70.8184 83.8604 72.6344 84.495C72.802 84.5567 72.8548 84.7065 72.7491 84.8387L72.7402 84.8475L71.7264 85.958C71.6118 86.0902 71.3738 86.143 71.1975 86.0813H71.1886C69.972 85.6759 68.5174 85.6407 67.1069 86.0108C64.2064 86.7688 62.4521 88.9809 63.175 90.9462Z" fill="white"/>
<path fill-rule="evenodd" clip-rule="evenodd" d="M62.6107 89.8974L64.6648 88.7869C64.8412 88.69 65.088 88.7076 65.2026 88.8222L66.1636 89.7652C66.2782 89.8798 66.2341 90.056 66.0489 90.1529L63.3865 91.5983C63.2807 91.66 63.1661 91.7041 63.0515 91.7481C62.5049 91.9773 61.8349 92.0125 61.2972 91.7922C60.8652 91.6159 60.6095 91.3163 60.5566 90.9814C60.5478 90.9197 60.539 90.8756 60.5302 90.8492C60.442 90.3116 60.4773 89.7652 60.6095 89.2364C60.5566 89.5272 60.6977 89.8004 61.015 89.9767C61.0503 89.9943 61.0944 90.0208 61.1385 90.0384C61.5881 90.2235 62.1699 90.153 62.5931 89.9062C62.6019 89.9062 62.6107 89.9062 62.6107 89.8974Z" fill="white"/>
<path d="M73.6042 88.2582C75.3497 88.2053 76.2225 88.1789 76.2225 88.1877C76.7779 90.9198 74.2654 93.8193 70.2894 94.8592C68.1648 95.4145 65.9608 95.344 64.1447 94.7094C63.9772 94.6477 63.9243 94.4979 64.0301 94.3657L64.0389 94.3569L65.0527 93.2464C65.1673 93.1142 65.4054 93.0614 65.5817 93.1231H65.5905C66.8071 93.5285 68.2617 93.5637 69.6723 93.1936C72.5727 92.4356 74.3359 90.2235 73.6042 88.2582Z" fill="white"/>
<path fill-rule="evenodd" clip-rule="evenodd" d="M74.1684 89.3069L72.1143 90.4174C71.938 90.5143 71.6912 90.4967 71.5765 90.3821L70.6156 89.4391C70.501 89.3246 70.5451 89.1483 70.7302 89.0513L73.3926 87.606C73.4984 87.5443 73.613 87.5002 73.7276 87.4562C74.2742 87.227 74.9442 87.1918 75.482 87.4121C75.914 87.5884 76.1696 87.888 76.2225 88.2229C76.2314 88.2846 76.2402 88.3287 76.249 88.3551C76.3371 88.8927 76.3019 89.4391 76.1696 89.9679C76.2225 89.6771 76.0815 89.4039 75.7641 89.2276C75.7288 89.21 75.6848 89.1836 75.6407 89.1659C75.1911 88.9808 74.6092 89.0513 74.1861 89.2981C74.1772 89.2981 74.1772 89.3069 74.1684 89.3069Z" fill="white"/>
<path opacity="0.5" d="M90.5484 79.7007C90.5484 80.1325 90.4162 80.5644 90.1517 80.9786C89.896 81.3928 89.4993 81.7718 88.9703 82.1243C88.891 82.1684 88.8117 82.2213 88.7323 82.2653L72.4846 91.7659C70.0602 93.176 66.1371 93.1495 63.7039 91.7042L47.5443 82.1155L47.3768 82.0186C46.7244 81.6308 46.2484 81.1813 45.9398 80.6966C45.7106 80.3352 45.5872 79.9651 45.5519 79.5861V79.5509C45.4902 78.5726 46.0897 77.5856 47.3592 76.8453L63.6069 67.3535C66.0313 65.9346 69.9544 65.9611 72.3876 67.4064L88.7059 77.1008C89.8608 77.7794 90.4779 78.6696 90.5308 79.5597C90.5484 79.6038 90.5484 79.6566 90.5484 79.7007Z" fill="url(#paint11_linear)"/>
<path d="M163.245 78.6255C164.155 78.6255 164.893 78.1559 164.893 77.5767C164.893 76.9975 164.155 76.528 163.245 76.528C162.334 76.528 161.596 76.9975 161.596 77.5767C161.596 78.1559 162.334 78.6255 163.245 78.6255Z" fill="white"/>
<path d="M210.524 47.4006C211.435 47.4006 212.173 46.9311 212.173 46.3519C212.173 45.7726 211.435 45.3031 210.524 45.3031C209.614 45.3031 208.876 45.7726 208.876 46.3519C208.876 46.9311 209.614 47.4006 210.524 47.4006Z" fill="white"/>
<path d="M31.9401 22.0365C32.8506 22.0365 33.5887 21.5669 33.5887 20.9877C33.5887 20.4085 32.8506 19.939 31.9401 19.939C31.0296 19.939 30.2915 20.4085 30.2915 20.9877C30.2915 21.5669 31.0296 22.0365 31.9401 22.0365Z" fill="white"/>
<path d="M183.08 86.1695L185.381 92.2858L169.407 93.8986L174.159 83.8164L183.08 86.1695Z" fill="#6CC5B1"/>
<path d="M176.248 81.6396L190.75 80.8993L187.197 90.3029L185.196 84.2659L176.248 81.6396Z" fill="#6CC5B1"/>
<path opacity="0.6" d="M213.628 79.7712C213.628 80.4146 213.434 81.0491 213.046 81.6572C212.658 82.2653 212.076 82.8382 211.3 83.3493C211.186 83.4198 211.071 83.4903 210.948 83.5608L186.907 97.6178C183.327 99.7065 177.509 99.6712 173.912 97.5296L150.003 83.3405L149.756 83.1995C148.786 82.6266 148.081 81.9568 147.632 81.243C147.297 80.7142 147.111 80.159 147.059 79.6037V79.5509C146.962 78.1055 147.852 76.6337 149.739 75.5409L173.78 61.4928C177.359 59.3953 183.177 59.4305 186.774 61.5721L210.921 75.9111C212.631 76.9158 213.539 78.2377 213.619 79.5509C213.628 79.6214 213.628 79.7007 213.628 79.7712Z" fill="#326AE6" fill-opacity="0.4"/>
<path opacity="0.3" d="M213.628 69.0633C213.628 69.7066 213.434 70.3412 213.046 70.9493C212.658 71.5574 212.076 72.1302 211.3 72.6414C211.186 72.7119 211.071 72.7824 210.948 72.8529L186.907 86.9098C183.327 88.9985 177.509 88.9633 173.912 86.8217L150.003 72.6326L149.756 72.4916C148.786 71.9187 148.081 71.2489 147.632 70.535C147.297 70.0063 147.111 69.451 147.059 68.8958V68.8429C146.962 67.3976 147.852 65.9258 149.739 64.833L173.78 50.7849C177.359 48.6873 183.177 48.7226 186.774 50.8642L210.921 65.2031C212.631 66.2078 213.539 67.5298 213.619 68.8429C213.628 68.9134 213.628 68.9928 213.628 69.0633Z" fill="#D2F1EB"/>
<path opacity="0.7" d="M41.3643 19.3308C41.3643 19.6922 41.2497 20.0535 41.0381 20.3972C40.8177 20.7409 40.4916 21.0582 40.0508 21.349C39.989 21.3843 39.9185 21.4284 39.8568 21.4724L26.2979 29.4042C24.2791 30.5764 20.9995 30.5587 18.9719 29.3602L5.4835 21.3578L5.34244 21.2785C4.79585 20.9524 4.39914 20.5823 4.14347 20.1769C3.95834 19.8772 3.85255 19.5688 3.81729 19.2515V19.2251C3.76439 18.4143 4.2669 17.5858 5.32481 16.9689L18.8837 9.04593C20.9026 7.86497 24.1821 7.8826 26.2097 9.08999L39.8304 17.1804C40.7913 17.7533 41.3026 18.4936 41.3555 19.2339C41.3643 19.2427 41.3643 19.2868 41.3643 19.3308Z" fill="#326AE6" fill-opacity="0.4"/>
<path d="M216.828 47.7179L216.052 47.7796C215.92 47.7884 215.823 47.8766 215.84 47.9735L215.929 48.467C215.946 48.5464 215.884 48.6169 215.779 48.6433C215.479 48.7226 215.197 48.8372 214.95 48.9694C214.862 49.0135 214.738 49.0135 214.65 48.9694L214.095 48.6609C213.989 48.5992 213.839 48.6169 213.751 48.6874L213.275 49.1192C213.231 49.1633 213.213 49.2073 213.231 49.2602C213.24 49.2955 213.275 49.3307 213.319 49.3572L213.786 49.6127L213.874 49.6656C213.963 49.7185 213.989 49.7978 213.945 49.8683C213.857 50.0093 213.786 50.1592 213.742 50.309C213.725 50.3795 213.707 50.45 213.689 50.5205C213.672 50.5998 213.592 50.6615 213.478 50.6703L212.781 50.732C212.649 50.7408 212.552 50.829 212.57 50.9259L212.667 51.4723V51.4811C212.684 51.534 212.728 51.5781 212.79 51.5957C212.834 51.6133 212.887 51.6221 212.94 51.6133L213.636 51.5516C213.689 51.5428 213.751 51.5604 213.795 51.5781C213.839 51.5957 213.874 51.6221 213.892 51.6574C214.016 51.8689 214.174 52.0716 214.368 52.2479C214.439 52.3096 214.439 52.3977 214.368 52.4594L214.165 52.6445L213.936 52.856C213.892 52.9 213.874 52.9529 213.892 52.997C213.901 53.0322 213.936 53.0675 213.98 53.0939L214.447 53.3495L214.597 53.4376C214.703 53.4993 214.853 53.4817 214.941 53.4112L215.373 53.0234C215.417 52.9794 215.479 52.9617 215.549 52.9617C215.585 52.9617 215.629 52.9617 215.664 52.9794C215.955 53.0675 216.264 53.1292 216.581 53.1644C216.687 53.1732 216.775 53.2349 216.793 53.3143L216.881 53.8078C216.898 53.9047 217.022 53.9664 217.154 53.9576L217.93 53.8959C218.062 53.8871 218.159 53.799 218.141 53.702L218.053 53.2085C218.036 53.1292 218.097 53.0587 218.203 53.0322C218.503 52.9529 218.785 52.8383 219.032 52.7061C219.12 52.6621 219.243 52.6533 219.332 52.7061L219.887 53.0146C219.931 53.041 219.993 53.0499 220.046 53.0499C220.116 53.0499 220.187 53.0234 220.231 52.9882L220.363 52.8648L220.707 52.5563C220.742 52.5211 220.76 52.477 220.76 52.4329V52.4153C220.751 52.3712 220.716 52.336 220.672 52.3096L220.407 52.1685L220.107 52.0011C220.019 51.9482 219.993 51.8689 220.037 51.7984C220.16 51.5957 220.248 51.3754 220.284 51.1462C220.301 51.0669 220.381 51.0052 220.495 50.9964L221.192 50.9347C221.253 50.9259 221.306 50.9083 221.342 50.873C221.386 50.8378 221.403 50.7937 221.394 50.7408L221.297 50.1944C221.28 50.0975 221.156 50.0358 221.024 50.0446L220.328 50.1063C220.222 50.1151 220.116 50.071 220.072 50.0005C220.037 49.9388 220.002 49.886 219.966 49.8243C219.86 49.6744 219.737 49.5334 219.596 49.41C219.525 49.3484 219.525 49.2602 219.596 49.1985L219.622 49.1721L219.675 49.1192L220.019 48.8108C220.054 48.7843 220.072 48.7402 220.072 48.705C220.072 48.6521 220.037 48.5992 219.975 48.564L219.358 48.2203C219.252 48.1586 219.102 48.1762 219.014 48.2467L218.582 48.6345C218.512 48.6962 218.397 48.7138 218.291 48.6874C218 48.5992 217.692 48.5375 217.366 48.5023C217.26 48.4935 217.172 48.4318 217.154 48.3525L217.066 47.8589C217.083 47.7708 216.96 47.7003 216.828 47.7179ZM216.801 49.7273C217.674 49.6568 218.468 50.0975 218.582 50.7144C218.609 50.8466 218.6 50.9876 218.556 51.111C218.415 51.5604 217.886 51.9041 217.207 51.9658C216.546 52.0187 215.937 51.7808 215.62 51.393C215.523 51.2696 215.453 51.1286 215.426 50.9788C215.311 50.3619 215.929 49.7978 216.801 49.7273Z" fill="white"/>
<defs>
<linearGradient id="paint0_linear" x1="163.247" y1="-53.9567" x2="163.247" y2="113.847" gradientUnits="userSpaceOnUse">
<stop stop-color="#475B80"/>
<stop offset="0.6559" stop-color="#2C3D51"/>
<stop offset="1" stop-color="#21313E"/>
</linearGradient>
<linearGradient id="paint1_linear" x1="120.891" y1="24.661" x2="206.309" y2="22.1451" gradientUnits="userSpaceOnUse">
<stop stop-color="#475B80"/>
<stop offset="0.6559" stop-color="#2C3D51"/>
<stop offset="1" stop-color="#21313E"/>
</linearGradient>
<linearGradient id="paint2_linear" x1="68.0522" y1="87.5" x2="68.0522" y2="171" gradientUnits="userSpaceOnUse">
<stop stop-color="#A2BEFF"/>
<stop offset="0.164608" stop-color="#8DAAEC"/>
<stop offset="0.3592" stop-color="#8BAEF8"/>
<stop offset="0.6176" stop-color="#5588EA"/>
</linearGradient>
<linearGradient id="paint3_linear" x1="45.7265" y1="98.0863" x2="110" y2="97.9988" gradientUnits="userSpaceOnUse">
<stop stop-color="#91B2FC"/>
<stop offset="0.1445" stop-color="#8AADFA"/>
<stop offset="0.3592" stop-color="#769FF4"/>
<stop offset="0.6176" stop-color="#82ADFE"/>
<stop offset="0.9079" stop-color="#2769DD"/>
<stop offset="1" stop-color="#175ED8"/>
</linearGradient>
<linearGradient id="paint4_linear" x1="180.341" y1="40.1188" x2="180.341" y2="170.984" gradientUnits="userSpaceOnUse">
<stop stop-color="#C2D3E1"/>
<stop offset="0.0241" stop-color="#C5D5E3"/>
<stop offset="0.248" stop-color="#DFE8EF"/>
<stop offset="0.4804" stop-color="#F1F5F8"/>
<stop offset="0.7246" stop-color="#FBFCFD"/>
<stop offset="1" stop-color="white"/>
</linearGradient>
<linearGradient id="paint5_linear" x1="147.308" y1="101.43" x2="213.923" y2="99.4682" gradientUnits="userSpaceOnUse">
<stop stop-color="#7C899D"/>
<stop offset="0.1928" stop-color="#93A0B1"/>
<stop offset="0.54" stop-color="#B8C4D0"/>
<stop offset="0.8215" stop-color="#CFDAE3"/>
<stop offset="1" stop-color="#D7E2EA"/>
</linearGradient>
<linearGradient id="paint6_linear" x1="216.522" y1="32.7689" x2="216.522" y2="81.8014" gradientUnits="userSpaceOnUse">
<stop stop-color="#91B2FC"/>
<stop offset="0.1445" stop-color="#8AADFA"/>
<stop offset="0.3592" stop-color="#769FF4"/>
<stop offset="0.6176" stop-color="#5588EA"/>
<stop offset="0.9079" stop-color="#2769DD"/>
<stop offset="1" stop-color="#175ED8"/>
</linearGradient>
<linearGradient id="paint7_linear" x1="204.145" y1="55.7411" x2="229.105" y2="55.0059" gradientUnits="userSpaceOnUse">
<stop stop-color="#91B2FC"/>
<stop offset="0.1445" stop-color="#8AADFA"/>
<stop offset="0.3592" stop-color="#769FF4"/>
<stop offset="0.6176" stop-color="#5588EA"/>
<stop offset="0.9079" stop-color="#2769DD"/>
<stop offset="1" stop-color="#175ED8"/>
</linearGradient>
<linearGradient id="paint8_linear" x1="22.5905" y1="0.10425" x2="22.5905" y2="73.9093" gradientUnits="userSpaceOnUse">
<stop stop-color="#C2D3E1"/>
<stop offset="0.0241" stop-color="#C5D5E3"/>
<stop offset="0.248" stop-color="#DFE8EF"/>
<stop offset="0.4804" stop-color="#F1F5F8"/>
<stop offset="0.7246" stop-color="#FBFCFD"/>
<stop offset="1" stop-color="white"/>
</linearGradient>
<linearGradient id="paint9_linear" x1="3.96099" y1="34.6827" x2="41.5305" y2="33.5761" gradientUnits="userSpaceOnUse">
<stop stop-color="#7C899D"/>
<stop offset="0.1928" stop-color="#93A0B1"/>
<stop offset="0.54" stop-color="#B8C4D0"/>
<stop offset="0.8215" stop-color="#CFDAE3"/>
<stop offset="1" stop-color="#D7E2EA"/>
</linearGradient>
<linearGradient id="paint10_linear" x1="163.247" y1="-68.8891" x2="163.247" y2="98.9146" gradientUnits="userSpaceOnUse">
<stop stop-color="#3E5070" stop-opacity="0"/>
<stop offset="0.17" stop-color="#344660" stop-opacity="0.068"/>
<stop offset="0.4334" stop-color="#2A3A4D" stop-opacity="0.1734"/>
<stop offset="0.7061" stop-color="#233342" stop-opacity="0.2825"/>
<stop offset="1" stop-color="#21313E" stop-opacity="0.4"/>
</linearGradient>
<linearGradient id="paint11_linear" x1="68.0522" y1="46.3718" x2="68.0522" y2="134.82" gradientUnits="userSpaceOnUse">
<stop stop-color="#91B2FC"/>
<stop offset="0.1445" stop-color="#8AADFA"/>
<stop offset="0.3592" stop-color="#769FF4"/>
<stop offset="0.6176" stop-color="#5588EA"/>
<stop offset="0.9079" stop-color="#2769DD"/>
<stop offset="1" stop-color="#175ED8"/>
</linearGradient>
</defs>
</svg>
