<svg width="253" height="170" viewBox="0 0 253 170" fill="none" xmlns="http://www.w3.org/2000/svg">
<g filter="url(#filter0_d)">
<path d="M35.2232 92.6385C33.0203 91.4262 31.6518 89.1109 31.6518 86.5964C31.6518 85.5009 32.5399 84.6128 33.6354 84.6128H62.0389H81.4343H109.838C110.933 84.6128 111.821 85.5009 111.821 86.5964C111.821 89.1109 110.453 91.4262 108.25 92.6385L81.4344 107.396C76.0784 110.344 67.3948 110.344 62.0389 107.396L35.2232 92.6385Z" fill="#D5DFEC"/>
</g>
<path d="M35.0966 92.5688C32.9718 91.3994 31.6518 89.1663 31.6518 86.741L31.6518 79.7591C31.6518 77.3337 32.9718 75.1006 35.0966 73.9312L62.0389 59.1036C67.3948 56.156 76.0784 56.156 81.4343 59.1036L108.377 73.9313C110.501 75.1006 111.821 77.3337 111.821 79.7591V86.741C111.821 89.1663 110.501 91.3994 108.377 92.5688L81.4343 107.396C76.0784 110.344 67.3948 110.344 62.0389 107.396L35.0966 92.5688Z" fill="#D5DFEC"/>
<rect x="0.364572" width="50.8063" height="50.8063" rx="9.77026" transform="matrix(0.876891 -0.48069 0.876891 0.48069 26.6333 78.7841)" fill="#FBFBFD" stroke="url(#paint0_linear)" stroke-width="0.415756"/>
<path d="M66.2437 72.2082L65.4166 72.7044C62.8129 74.2667 60.1898 75.8173 57.6055 77.3911C57.3881 77.5336 57.1238 77.6473 56.8303 77.7248C56.5367 77.8022 56.2207 77.8416 55.9033 77.8402C54.0175 77.8666 52.7386 77.8178 50.8524 77.8587C50.5214 77.8659 48.893 77.8637 48.893 77.8637L49.8707 77.2771C49.8707 77.2771 62.6258 69.624 69.0034 65.7974C69.4338 65.5392 69.8613 65.2094 70.5572 65.3623C71.1961 65.4975 71.3723 65.8514 71.4711 66.2231C72.0102 68.2815 72.566 70.3372 73.0795 72.3967C73.1308 72.5966 73.2108 72.7054 72.9917 72.8404C71.3584 73.849 67.5799 76.0875 67.5799 76.0875L66.5052 72.2659L66.2437 72.2082Z" fill="#2962EF"/>
<path d="M75.4531 80.8115C75.4531 80.8115 76.0222 83.5089 76.412 84.8933L77.4122 84.2932C79.9117 82.7935 82.4187 81.3 84.9004 79.7896C85.1043 79.6553 85.35 79.5463 85.623 79.4692C85.896 79.392 86.1906 79.3483 86.4892 79.3405C88.5121 79.2677 90.5388 79.1586 92.5651 79.0694C92.8948 79.0504 94.147 79.0394 94.147 79.0394L93.1764 79.6218C93.1764 79.6218 80.1721 87.4244 73.6699 91.3257C72.7173 91.8973 71.6114 91.7024 71.2207 90.8836C71.0626 90.4905 70.9456 90.0913 70.8704 89.6882C70.4496 88.072 70.0454 86.4547 69.6034 84.8405C69.5171 84.5185 69.6293 84.3039 70.0413 84.0585C71.5848 83.1467 74.6361 81.3017 74.6361 81.3017L75.2603 80.9271L75.4531 80.8115Z" fill="#2962EF"/>
<g filter="url(#filter1_d)">
<path d="M93.001 61.4997C90.798 60.2874 89.4295 57.9721 89.4295 55.4576C89.4295 54.3621 90.3176 53.474 91.4131 53.474H119.817H139.212H167.616C168.711 53.474 169.599 54.3621 169.599 55.4576C169.599 57.9721 168.231 60.2874 166.028 61.4997L139.212 76.2577C133.856 79.2053 125.173 79.2053 119.817 76.2577L93.001 61.4997Z" fill="#D5DFEC"/>
</g>
<path d="M92.8743 61.43C90.7495 60.2606 89.4295 58.0275 89.4295 55.6022L89.4295 48.6203C89.4295 46.1949 90.7495 43.9618 92.8743 42.7925L119.817 27.9648C125.173 25.0172 133.856 25.0172 139.212 27.9648L166.154 42.7925C168.279 43.9618 169.599 46.1949 169.599 48.6203V55.6022C169.599 58.0275 168.279 60.2606 166.154 61.43L139.212 76.2577C133.856 79.2053 125.173 79.2053 119.817 76.2577L92.8743 61.43Z" fill="#D5DFEC"/>
<rect x="0.364572" width="50.8063" height="50.8063" rx="9.77026" transform="matrix(0.876891 -0.48069 0.876891 0.48069 84.411 47.6453)" fill="#FBFBFD" stroke="url(#paint1_linear)" stroke-width="0.415756"/>
<path d="M131.426 45.8392L138.925 41.34L144.786 49.7089C145.605 50.8759 145.17 52.2119 143.685 53.1025L136.186 57.6018L130.326 49.2329C129.481 48.0505 129.942 46.7299 131.426 45.8392Z" fill="#94C5FF"/>
<path d="M138.923 41.3411L140.152 47.5448C140.382 48.5123 139.921 49.495 138.693 50.2321L133.241 53.5029L130.273 49.234C129.479 48.0823 129.914 46.7463 131.399 45.8557L138.923 41.3411Z" fill="#1A32AF"/>
<path d="M122.826 43.69L130.325 39.1908L136.186 47.5597C137.005 48.7268 136.57 50.0627 135.085 50.9534L127.587 55.4526L121.726 47.0837C120.907 45.9166 121.367 44.5653 122.826 43.69Z" fill="#0092FF"/>
<path d="M130.349 39.1765L131.577 45.3803C131.808 46.3477 131.347 47.3305 130.118 48.0676L124.667 51.3384L121.698 47.0695C120.905 45.9178 121.34 44.5818 122.824 43.6912L130.349 39.1765Z" fill="#1A32AF"/>
<path d="M114.251 41.5257L121.75 37.0265L127.611 45.3954C128.43 46.5625 127.995 47.8984 126.511 48.7891L119.012 53.2883L113.151 44.9194C112.332 43.7523 112.767 42.4164 114.251 41.5257Z" fill="#0055FF"/>
<g filter="url(#filter2_d)">
<path d="M150.108 29.6515C147.905 28.4391 146.537 26.1239 146.537 23.6094C146.537 22.5139 147.425 21.6258 148.52 21.6258H176.924H196.319H224.723C225.818 21.6258 226.706 22.5139 226.706 23.6094C226.706 26.1239 225.338 28.4391 223.135 29.6515L196.319 44.4094C190.963 47.3571 182.28 47.3571 176.924 44.4094L150.108 29.6515Z" fill="#D5DFEC"/>
</g>
<path d="M149.981 29.5818C147.857 28.4124 146.537 26.1793 146.537 23.754L146.537 16.772C146.537 14.3467 147.857 12.1136 149.981 10.9442L176.924 -3.88344C182.28 -6.83105 190.963 -6.83105 196.319 -3.88344L223.262 10.9442C225.386 12.1136 226.706 14.3467 226.706 16.772V23.754C226.706 26.1793 225.386 28.4124 223.262 29.5818L196.319 44.4094C190.963 47.357 182.28 47.357 176.924 44.4094L149.981 29.5818Z" fill="#D5DFEC"/>
<rect x="0.364572" width="50.8063" height="50.8063" rx="9.77026" transform="matrix(0.876891 -0.48069 0.876891 0.48069 141.518 15.7971)" fill="#FBFBFD" stroke="url(#paint2_linear)" stroke-width="0.415756"/>
<g clip-path="url(#clip0)">
<path d="M179.013 18.5058L165.268 16.2961L175.33 10.259L179.013 18.5058Z" fill="#266EF0"/>
<path fill-rule="evenodd" clip-rule="evenodd" d="M177.861 8.77151L206.96 13.4497L185.658 26.231L177.861 8.77151ZM183.095 11.9116L199.811 14.5991L187.574 21.9415L183.095 11.9116Z" fill="#266EF0"/>
</g>
<g filter="url(#filter3_d)">
<path d="M11.0626 169.513C8.85963 168.301 7.49112 165.986 7.49112 163.471C7.49112 162.376 8.37921 161.488 9.47473 161.488H37.8782H57.2737H85.6772C86.7727 161.488 87.6608 162.376 87.6608 163.471C87.6608 165.986 86.2923 168.301 84.0893 169.513L57.2737 184.271C51.9178 187.219 43.2341 187.219 37.8782 184.271L11.0626 169.513Z" fill="#D5DFEC"/>
</g>
<path d="M10.9359 169.444C8.81109 168.274 7.49112 166.041 7.49112 163.616L7.49112 156.634C7.49112 154.209 8.81109 151.976 10.9359 150.806L37.8782 135.979C43.2341 133.031 51.9178 133.031 57.2737 135.979L84.216 150.806C86.3408 151.976 87.6608 154.209 87.6608 156.634V163.616C87.6608 166.041 86.3408 168.274 84.216 169.444L57.2737 184.271C51.9178 187.219 43.2341 187.219 37.8782 184.271L10.9359 169.444Z" fill="#D5DFEC"/>
<rect x="0.364572" width="50.8063" height="50.8063" rx="9.77026" transform="matrix(0.876891 -0.48069 0.876891 0.48069 2.47259 155.659)" fill="#FBFBFD" stroke="url(#paint3_linear)" stroke-width="0.415756"/>
<g clip-path="url(#clip1)">
<path d="M59.6517 162.864C57.8163 163.948 55.954 165.017 54.1553 166.124C53.0618 166.797 51.8261 166.984 50.3252 166.744C45.2711 165.937 40.2144 165.136 35.1552 164.341C33.7371 164.118 32.8589 163.596 32.4778 162.751C31.1354 159.763 29.7808 156.775 28.4139 153.789C28.2006 153.322 28.1015 152.853 28.4458 152.41C28.6845 152.102 29.0078 151.819 29.4026 151.573C30.6698 150.801 31.9899 150.06 33.2793 149.301C35.5018 147.993 37.715 146.68 39.9329 145.37C40.2755 145.167 40.612 144.957 40.9676 144.765C41.8587 144.286 42.9238 144.18 44.05 144.356C47.9957 144.97 51.9322 145.603 55.8734 146.228C57.041 146.413 58.2063 146.605 59.3809 146.784C60.8388 147.004 61.7729 147.524 62.1641 148.392C63.4017 151.136 64.6454 153.878 65.8953 156.617C66.0216 156.895 66.154 157.173 66.2764 157.451C66.6222 158.237 66.3543 158.916 65.3531 159.499C63.4396 160.614 61.5507 161.742 59.6517 162.864ZM52.4591 158.57C52.5963 158.497 52.727 158.42 52.8506 158.339C53.0616 158.18 53.2742 158.021 53.4576 157.851C55.439 156.009 54.6748 153.539 51.8464 152.236C50.1696 151.463 48.2856 151.151 46.2106 151.354C43.4173 151.628 41.5157 152.587 40.5039 154.143C39.3838 155.861 40.5255 157.984 43.0868 159.043C43.8585 159.361 44.7207 159.595 45.6319 159.733C45.8219 159.763 46.0402 159.779 46.0352 159.941C46.0194 160.353 46.004 160.766 45.9892 161.179C42.4665 160.974 38.8184 159.259 37.8986 156.753C37.0105 154.33 39.0284 151.735 42.8089 150.548C44.645 149.969 46.7513 149.758 48.8109 149.949C50.8704 150.139 52.7716 150.719 54.2282 151.602C55.7388 152.495 56.6789 153.669 56.8877 154.925C57.2076 156.713 56.2647 158.262 54.1939 159.578L55.872 160.57C55.9393 160.551 56.0025 160.528 56.0602 160.5C56.2246 160.388 56.3829 160.272 56.548 160.156C58.1529 159.034 59.0971 157.743 59.3103 156.275C59.69 153.647 58.1163 151.494 54.5848 149.89C48.9166 147.315 40.6307 148.284 36.9893 151.907C35.6997 153.191 35.1225 154.581 35.3229 156.07C35.6146 158.242 37.2318 160 40.1988 161.308C42.1983 162.19 44.4633 162.632 46.9487 162.694C47.8563 162.717 48.4177 162.414 48.4286 161.872C48.4618 160.402 48.5019 158.928 48.503 157.457C48.5021 157.095 48.6087 156.824 49.1074 156.568C49.8739 156.174 50.0201 155.536 49.6129 154.98C49.4255 154.717 49.1095 154.493 48.7056 154.338C48.3018 154.182 47.8285 154.101 47.3469 154.105C46.8549 154.101 46.3723 154.183 45.9611 154.342C45.5499 154.501 45.2288 154.729 45.0392 154.997C44.6361 155.557 44.8867 156.251 45.5983 156.617C45.8023 156.722 46.0508 156.876 46.0672 157.016C46.1172 157.428 46.06 157.844 46.045 158.26C44.6241 158.165 43.0396 157.275 42.6265 156.201C42.1749 155.018 43.0901 153.735 44.8593 153.124C46.6086 152.519 48.911 152.617 50.3365 153.351C51.193 153.791 51.8116 154.313 52.0353 154.981C52.3655 155.971 51.8728 156.829 50.7955 157.585L52.4591 158.57Z" fill="#0F67FF"/>
</g>
<g filter="url(#filter4_d)">
<path d="M68.8402 138.375C66.6373 137.162 65.2688 134.847 65.2688 132.333C65.2688 131.237 66.1569 130.349 67.2524 130.349H95.6559H115.051H143.455C144.55 130.349 145.438 131.237 145.438 132.333C145.438 134.847 144.07 137.162 141.867 138.375L115.051 153.133C109.695 156.08 101.012 156.08 95.6559 153.133L68.8402 138.375Z" fill="#D5DFEC"/>
</g>
<path d="M68.7136 138.305C66.5888 137.136 65.2688 134.903 65.2688 132.477L65.2688 125.495C65.2688 123.07 66.5888 120.837 68.7136 119.667L95.6559 104.84C101.012 101.892 109.695 101.892 115.051 104.84L141.994 119.667C144.118 120.837 145.438 123.07 145.438 125.495V132.477C145.438 134.903 144.118 137.136 141.994 138.305L115.051 153.133C109.695 156.08 101.012 156.08 95.6559 153.133L68.7136 138.305Z" fill="#D5DFEC"/>
<rect x="0.364572" width="50.8063" height="50.8063" rx="9.77026" transform="matrix(0.876891 -0.48069 0.876891 0.48069 60.2503 124.52)" fill="#FBFBFD" stroke="url(#paint4_linear)" stroke-width="0.415756"/>
<path d="M118.152 115.141L97.5978 115.116C96.5903 115.114 95.7755 115.603 95.7775 116.208L95.8023 123.437L92.314 123.433C91.3065 123.432 90.4917 123.921 90.4903 124.527L90.5173 132.428C90.5194 133.032 91.3375 133.523 92.3486 133.527L105.523 133.543C106.531 133.544 107.346 133.055 107.347 132.449L107.342 131.064L97.6524 131.055C96.6448 131.053 95.8267 130.562 95.8246 129.958L95.8235 129.637L118.198 129.664C119.206 129.666 120.021 129.177 120.019 128.572L119.976 116.24C119.978 115.633 119.16 115.142 118.152 115.141Z" fill="#6436FF"/>
<g filter="url(#filter5_d)">
<path d="M125.947 106.526C123.744 105.314 122.376 102.999 122.376 100.484C122.376 99.3888 123.264 98.5007 124.36 98.5007H152.763H172.158H200.562C201.657 98.5007 202.546 99.3888 202.546 100.484C202.546 102.999 201.177 105.314 198.974 106.526L172.158 121.284C166.803 124.232 158.119 124.232 152.763 121.284L125.947 106.526Z" fill="#D5DFEC"/>
</g>
<path d="M125.821 106.457C123.696 105.287 122.376 103.054 122.376 100.629L122.376 93.6471C122.376 91.2217 123.696 88.9886 125.821 87.8193L152.763 72.9916C158.119 70.044 166.803 70.044 172.158 72.9916L199.101 87.8193C201.226 88.9886 202.546 91.2217 202.546 93.6471V100.629C202.546 103.054 201.226 105.287 199.101 106.457L172.158 121.284C166.803 124.232 158.119 124.232 152.763 121.284L125.821 106.457Z" fill="#D5DFEC"/>
<rect x="0.364572" width="50.8063" height="50.8063" rx="9.77026" transform="matrix(0.876891 -0.48069 0.876891 0.48069 117.357 92.672)" fill="#FBFBFD" stroke="url(#paint5_linear)" stroke-width="0.415756"/>
<path fill-rule="evenodd" clip-rule="evenodd" d="M149.947 83.9315L165.771 86.243L163.448 92.0326L153.799 93.4259L149.947 83.9315ZM155.166 92.0474L152.493 85.4594L163.473 87.0633L161.861 91.0805L155.166 92.0474Z" fill="#47A1F8"/>
<path d="M165.602 93.3353L154.408 94.9518L154.53 95.2525C155.907 98.6448 160.988 101.12 166.747 101.204C173.523 101.303 178.883 98.0871 178.718 94.0212C178.579 90.5659 174.453 87.5172 168.799 86.6914L168.298 86.6181L165.602 93.3352L165.602 93.3353Z" fill="#47A1F8"/>
<g filter="url(#filter6_d)">
<path d="M184.153 74.6783C181.95 73.4659 180.581 71.1507 180.581 68.6362C180.581 67.5407 181.47 66.6526 182.565 66.6526H210.969H230.364H258.768C259.863 66.6526 260.751 67.5407 260.751 68.6362C260.751 71.1507 259.383 73.4659 257.18 74.6783L230.364 89.4363C225.008 92.3839 216.324 92.3839 210.969 89.4363L184.153 74.6783Z" fill="#D5DFEC"/>
</g>
<path d="M184.026 74.6086C181.901 73.4392 180.581 71.2061 180.581 68.7808L180.581 61.7988C180.581 59.3735 181.901 57.1404 184.026 55.971L210.969 41.1434C216.324 38.1957 225.008 38.1957 230.364 41.1434L257.306 55.971C259.431 57.1404 260.751 59.3735 260.751 61.7988V68.7808C260.751 71.2061 259.431 73.4392 257.306 74.6086L230.364 89.4362C225.008 92.3838 216.324 92.3838 210.969 89.4362L184.026 74.6086Z" fill="#D5DFEC"/>
<rect x="0.364572" width="50.8063" height="50.8063" rx="9.77026" transform="matrix(0.876891 -0.48069 0.876891 0.48069 175.563 60.8239)" fill="#FBFBFD" stroke="url(#paint6_linear)" stroke-width="0.415756"/>
<g clip-path="url(#clip2)">
<path d="M213.587 67.7046L208.359 63.6312L196.774 64.804L205.106 62.3807L204.27 60.1263L206.213 54.8911L224.608 51.8188L235.344 57.5291L237.564 65.1469L234.074 68.0212L232.199 64.3271L228.333 62.0076L223.757 61.1302L221.102 61.4352L221.239 64.4373L223.959 66.0692L223.881 68.3017L221.768 69.9288L221.32 70.942L218.994 71.65L215.569 70.4717L214.989 68.5462L213.587 67.7046Z" fill="white"/>
<path d="M213.522 54.6936C211.958 55.3032 210.62 56.1933 210.62 56.1933C210.62 56.1933 212.351 57.7875 210.056 59.8569C210.077 59.8443 215.172 58.3733 213.522 54.6936Z" fill="#94A6C3"/>
<path d="M234.597 65.9364C234.905 64.2531 234.355 62.5204 232.948 61.0299C232.9 60.9712 232.989 60.764 233.036 60.6173C233.129 60.3823 233.251 60.1601 233.096 60.012C232.619 59.6106 232.07 59.2213 231.472 58.8621C231.249 58.7286 230.801 58.7254 230.362 58.7222C230.041 58.735 229.695 58.7325 229.571 58.6581C227.058 57.4409 223.914 56.7818 220.738 56.8347L220.743 57.0425C223.847 57.0069 226.939 57.6352 229.354 58.8188C229.58 58.9243 229.969 58.9272 230.366 58.9301C230.687 58.9172 231.11 58.9355 231.208 58.9945C231.781 59.3383 232.304 59.7122 232.781 60.1136C232.854 60.1877 232.74 60.3795 232.667 60.5411C232.549 60.7608 232.452 60.9679 232.607 61.1161C234.144 62.7394 234.652 64.6517 234.071 66.437C233.691 65.8284 232.418 63.8674 231.802 62.8566L228.015 60.6999L221.856 60.7158L220.351 61.9165L221.622 64.9876C221.622 64.9876 223.695 65.1498 223.799 66.7347C223.906 68.2867 223.229 69.0523 223.229 69.0523L221.827 69.2931C221.743 68.9224 221.76 68.2863 221.823 67.828C221.929 67.0455 222.583 66.5915 221.938 66.2041C220.616 65.3757 219.573 66.4479 219.573 66.4479L219.56 67.0561L221.19 68.2948L221.494 69.7596L221.348 69.8168L219.197 70.63C219.197 70.63 219.696 69.6425 219.218 69.1498C218.764 68.6726 216.181 67.7387 216.032 67.6793C216.083 67.6797 216.994 67.6407 217.909 67.9287C217.198 67.0364 216.663 66.0997 216.711 65.9531C216.759 65.8064 217.655 63.9803 217.655 63.9803L218.771 65.4358L218.985 64.9786L217.212 62.512C217.212 62.512 217.782 61.482 218.634 60.9712C220.14 60.0367 220.486 57.5248 216.021 56.0728C216.437 55.9719 224.096 54.4917 230.061 57.0192C234.63 58.9738 236.128 62.4725 234.597 65.9364Z" fill="#94A6C3"/>
<path d="M209.445 57.7966C209.328 57.0556 208.115 56.588 208.115 56.588L208.955 59.0502C208.929 59.0652 209.56 58.7175 209.445 57.7966Z" fill="#1B314F"/>
<path d="M217.461 69.1826L216.661 68.467C216.661 68.467 217.301 69.8177 217.431 69.9808C217.582 70.1619 218.105 70.3254 218.393 70.1222C218.684 69.9165 218.598 69.3988 218.251 69.1909C217.802 68.9215 217.461 69.1826 217.461 69.1826Z" fill="#1B314F"/>
<path d="M216.058 50.9855C216.058 50.9855 217.328 50.285 218.743 49.616C213.595 49.9486 210.224 51.166 208.032 52.4808C205.015 54.2914 204.244 56.2831 204.191 56.4018L203.595 54.902C203.595 54.902 199.42 56.9551 202.199 60.2299C200.984 59.9119 199.397 59.335 199.397 59.335C199.397 59.335 199.197 61.5844 203.066 62.7938C199.953 63.6456 195.542 64.8808 195.396 64.9431C195.199 65.0304 195.226 65.1066 195.226 65.1066C195.226 65.1066 195.248 65.1803 195.523 65.1696C196.012 65.1377 204.995 64.392 206.866 64.1674C207.522 64.8515 207.946 65.1055 208.611 65.2143C209.526 65.3528 209.847 65.5198 210.224 65.8014C210.597 66.0855 213.828 68.55 214.181 68.877C214.534 69.204 215.107 70.7746 215.628 71.0319C216.152 71.2866 218.801 72.1196 219.591 71.9175C220.154 71.7594 221.502 71.3408 222.182 70.9326C222.424 70.7874 222.594 70.6239 222.592 70.5072C222.633 70.0361 222.677 69.9173 222.969 69.742C222.994 69.727 223.019 69.7119 223.04 69.6994C223.161 69.6268 223.333 69.5545 223.504 69.4518C223.892 69.219 224.328 68.8647 224.345 68.439C224.332 67.79 224.51 66.7851 224.452 66.3994C224.344 65.8942 223.891 65.3915 223.145 65.0591C222.471 64.745 222.262 64.239 222.108 63.7056C221.946 63.053 221.677 61.8699 221.677 61.8699C224.651 61.6356 227.67 62.1899 229.864 63.5061C233.755 65.8411 233.589 69.7129 229.498 72.1671C228.864 72.5478 228.186 72.8673 227.427 73.1431C229.973 72.4215 231.781 71.6084 233.075 70.832C235.826 69.1817 236.264 67.692 236.264 67.692C236.264 67.692 236.431 68.4029 236.37 69.3631C236.395 69.3481 236.395 69.3481 236.395 69.3481C240.299 66.2259 238.675 62.592 238.675 62.592C238.675 62.592 239.752 63.4439 240.382 64.0821C241.773 57.649 234.913 54.7602 234.691 54.6572C234.814 54.6707 236.171 54.7541 236.886 54.8075C227.582 48.0531 216.058 50.9855 216.058 50.9855ZM223.151 66.4304C223.179 66.5624 223.142 67.0362 223.124 67.3757C223.105 67.7152 223.062 68.0697 223.072 68.3664C223.074 68.483 222.93 68.6315 222.637 68.8068C222.541 68.8644 222.441 68.9245 222.37 68.9671C222.32 68.9971 222.274 69.0247 222.224 69.0547C222.174 69.0848 222.149 69.0998 222.128 69.1123C222.053 69.1574 221.982 69.2 221.907 69.245C221.774 68.7245 221.696 67.3957 221.816 67.0265C221.955 66.5839 221.876 66.2716 221.083 66.1213C220.29 65.966 219.713 66.4662 219.713 66.4662C219.713 66.4662 219.951 66.1131 220.318 65.8927C219.731 66.0963 219.271 66.5213 219.277 66.8458C219.259 67.1853 220.284 67.7403 220.783 68.1849C221.312 68.6476 221.224 69.0905 221.188 69.8304C221.171 70.2307 221.027 70.435 220.831 70.5527C220.345 70.757 219.728 70.973 219.262 71.104C218.695 71.0542 217.254 70.6306 216.709 70.4188C216.532 70.2274 216.298 69.7365 216.145 69.4692C215.864 68.9501 215.71 68.6524 215.461 68.4427C215.134 68.1311 212.829 66.3679 211.856 65.6384C212.596 65.7021 213.736 65.86 214.085 66.1895C213.768 65.153 212.258 64.8581 211.614 64.7672C210.999 64.6588 209.908 64.3543 209.303 63.701C208.698 63.0477 207.227 61.1132 207.227 61.1132C207.227 61.1132 208.045 61.2535 208.356 60.944C208.671 60.637 206.865 55.5519 206.865 55.5519C206.865 55.5519 209.785 56.2221 210.309 57.6783C210.808 59.1444 210.13 59.8796 210.13 59.8796C210.13 59.8796 211.717 59.2246 212.033 57.9266C213.766 58.3549 215.524 58.824 215.724 58.9141C215.825 59.0644 217.247 61.0848 217.301 61.2322C217.302 61.293 217.062 61.5549 216.867 61.7335C216.578 62.0558 216.413 62.2472 216.385 62.3509C216.364 62.5434 217.777 64.328 218.488 65.1899C218.173 65.5273 217.987 65.9416 218.166 66.4296C218.213 66.2525 218.671 65.8858 219.016 65.6222C219.333 65.4014 220.949 65.1192 222.294 65.6004C222.319 65.6158 222.319 65.6158 222.345 65.6312C222.793 65.8347 223.048 66.1331 223.151 66.4304ZM221.163 67.9824C221.06 67.6547 220.487 67.3413 220.337 67.221C220.186 67.1008 219.907 66.8783 220.057 66.7323C220.201 66.5838 220.742 66.352 221.088 66.5599C221.413 66.7549 221.144 67.0039 221.128 67.2851C221.124 67.4929 221.158 67.9241 221.163 67.9824ZM226.108 59.294C225.08 58.3867 224.006 57.7122 223.037 57.2159C225.28 57.4249 227.438 58.0186 229.23 58.8884C229.456 58.9939 229.844 58.9968 230.242 58.9996C230.562 58.9868 230.96 58.9897 231.084 59.0641C231.657 59.4079 232.18 59.7818 232.661 60.1858C232.709 60.2444 232.62 60.4516 232.547 60.6133C232.429 60.833 232.332 61.0401 232.487 61.1883C233.873 62.6609 234.423 64.3682 234.088 66.0057C233.93 63.1961 231.029 60.1435 226.108 59.294ZM234.382 66.0966C234.715 64.3982 234.189 62.6201 232.752 61.1167C232.704 61.058 232.793 60.8508 232.84 60.7042C232.958 60.4845 233.055 60.2469 232.9 60.0988C232.423 59.6974 231.874 59.3081 231.276 58.9489C231.053 58.8155 230.605 58.8122 230.166 58.809C229.895 58.7918 229.524 58.8043 229.4 58.7299C227.382 57.7545 224.957 57.1463 222.44 56.948C218.958 55.4449 216.089 56.0576 216.013 56.0723C216.14 56.0884 219.274 56.4509 220.591 58.2931C221.909 60.1657 219.25 61.3453 219.076 61.4758C218.879 61.5935 219.125 62.6421 220.02 64.3216C219.848 64.3634 219.211 64.597 218.729 65.0092C217.918 63.997 216.807 62.5391 216.779 62.3766C216.778 62.3158 217.042 62.0389 217.216 61.8475C217.555 61.4951 217.695 61.3187 217.672 61.2146C217.645 61.1384 217.314 60.6493 216.958 60.1449C217.179 60.0121 217.687 59.6458 217.707 59.6028C217.706 59.542 216.95 58.5327 216.801 58.4429C216.677 58.3685 213.304 57.4872 212.018 57.1508C211.988 56.9276 211.911 56.6761 211.804 56.4117C217.348 53.7476 225.587 54.0129 230.847 57.1689C234.888 59.5937 236.095 63.0928 234.382 66.0966Z" fill="#1B314F"/>
<path d="M214.432 61.9011C214.348 61.2947 213.084 60.8267 212.053 61.2349C211.753 60.7891 211.018 59.9727 211.018 59.9727C211.018 59.9727 212.525 63.8567 212.384 64.0331C212.24 64.212 211.147 63.8162 211.147 63.8162C212.505 65.1873 213.997 64.5898 213.57 64.1583C214.071 63.6424 214.491 62.4921 214.432 61.9011Z" fill="#1B314F"/>
<path d="M213.283 63.7559L212.328 61.6654C212.328 61.6654 213.435 61.4529 213.666 62.0325C213.904 62.7262 213.283 63.7559 213.283 63.7559Z" fill="#FFD923"/>
<path d="M239.219 60.5306C239.353 61.0511 239.461 61.6121 239.477 62.2028C236.428 56.6068 227.773 55.0051 227.43 54.9443C227.878 54.9476 228.343 54.9662 228.761 54.9819C233.911 55.1817 238.321 57.4773 239.219 60.5306Z" fill="#D82122"/>
<path d="M234.182 54.0025C230.066 52.8496 225.939 52.2417 220.19 52.9095C214.635 53.5483 211.254 55.7872 211.084 55.9203C211.059 55.9353 211.033 55.9503 211.033 55.9503C211.103 55.8469 211.199 55.7589 211.298 55.6734C211.806 55.0713 212.577 54.3672 213.43 53.7068C215.633 51.9283 219.135 50.9044 222.838 50.9923C222.888 50.9926 222.888 50.9926 222.939 50.993C227.153 51.0972 230.942 52.1134 234.182 54.0025Z" fill="#D82122"/>
<path d="M214.966 50.7117C210.642 52.4697 208.651 54.08 207.619 55.4792C207.368 55.3887 206.799 55.2527 206.328 55.1454C206.448 55.823 206.658 56.5951 206.794 57.0828C206.518 58.0287 206.754 58.6362 206.754 58.6362C205.415 57.1918 205.582 55.4187 207.13 54.0689C207.566 53.6893 208.099 53.3079 208.734 52.9273C210.437 51.9359 212.538 51.1832 214.966 50.7117Z" fill="#D82122"/>
<path d="M206.341 61.6344C203.396 63.2833 200.948 60.6775 200.802 60.5294C200.827 60.5448 203.662 62.0153 206.341 61.6344Z" fill="#D82122"/>
<path d="M203.031 56.2874C202.187 58.4104 205.841 60.077 205.841 60.077C200.483 59.3764 202.937 56.4363 203.031 56.2874Z" fill="#D82122"/>
<path d="M206.438 62.654C206.708 62.6408 207.081 62.6891 207.235 62.9868C207.314 63.1496 207.142 63.2219 206.823 63.2956C206.381 63.3811 203.58 63.8043 200.925 64.1093C203.378 63.4175 205.899 62.7414 206.341 62.6559C206.341 62.6559 206.391 62.6562 206.438 62.654Z" fill="white"/>
</g>
<g filter="url(#filter7_d)">
<path d="M237.818 178.431C235.615 177.219 234.247 174.904 234.247 172.389C234.247 171.294 235.135 170.405 236.23 170.405H264.634H284.029H312.433C313.528 170.405 314.416 171.294 314.416 172.389C314.416 174.904 313.048 177.219 310.845 178.431L284.029 193.189C278.673 196.137 269.99 196.137 264.634 193.189L237.818 178.431Z" fill="#D5DFEC"/>
</g>
<path d="M237.691 178.361C235.567 177.192 234.247 174.959 234.247 172.534L234.247 165.552C234.247 163.126 235.567 160.893 237.691 159.724L264.634 144.896C269.99 141.949 278.673 141.949 284.029 144.896L310.972 159.724C313.096 160.893 314.416 163.126 314.416 165.552V172.534C314.416 174.959 313.096 177.192 310.972 178.361L284.029 193.189C278.673 196.137 269.99 196.137 264.634 193.189L237.691 178.361Z" fill="#D5DFEC"/>
<rect x="0.364572" width="50.8063" height="50.8063" rx="9.77026" transform="matrix(0.876891 -0.48069 0.876891 0.48069 229.228 164.577)" fill="#FBFBFD" stroke="url(#paint7_linear)" stroke-width="0.415756"/>
<g filter="url(#filter8_d)">
<path d="M241.26 42.83C239.057 41.6176 237.688 39.3024 237.688 36.7879C237.688 35.6924 238.576 34.8043 239.672 34.8043H268.075H287.471H315.874C316.97 34.8043 317.858 35.6924 317.858 36.7879C317.858 39.3024 316.489 41.6177 314.287 42.83L287.471 57.588C282.115 60.5356 273.431 60.5356 268.075 57.588L241.26 42.83Z" fill="#D5DFEC"/>
</g>
<path d="M241.133 42.7604C239.008 41.591 237.688 39.3579 237.688 36.9326L237.688 29.9506C237.688 27.5253 239.008 25.2922 241.133 24.1228L268.075 9.29515C273.431 6.34754 282.115 6.34754 287.471 9.29515L314.413 24.1228C316.538 25.2922 317.858 27.5253 317.858 29.9506V36.9326C317.858 39.3579 316.538 41.591 314.413 42.7604L287.471 57.588C282.115 60.5356 273.431 60.5356 268.075 57.588L241.133 42.7604Z" fill="#D5DFEC"/>
<rect x="0.364572" width="50.8063" height="50.8063" rx="9.77026" transform="matrix(0.876891 -0.48069 0.876891 0.48069 232.67 28.9757)" fill="#FBFBFD" stroke="url(#paint8_linear)" stroke-width="0.415756"/>
<path d="M95.0707 188.823C92.9459 187.654 91.626 185.42 91.626 182.995L91.626 176.013C91.626 173.588 92.9459 171.355 95.0707 170.185L122.013 155.358C127.369 152.41 136.053 152.41 141.409 155.358L168.351 170.185C170.476 171.355 171.796 173.588 171.796 176.013V182.995C171.796 185.42 170.476 187.654 168.351 188.823L141.409 203.651C136.053 206.598 127.369 206.598 122.013 203.651L95.0707 188.823Z" fill="#D5DFEC"/>
<rect x="0.364572" width="50.8063" height="50.8063" rx="9.77026" transform="matrix(0.876891 -0.48069 0.876891 0.48069 86.6074 175.038)" fill="#FBFBFD" stroke="url(#paint9_linear)" stroke-width="0.415756"/>
<g filter="url(#filter9_d)">
<path d="M152.304 157.044C150.102 155.832 148.733 153.517 148.733 151.002C148.733 149.907 149.621 149.019 150.717 149.019H179.12H198.516H226.919C228.015 149.019 228.903 149.907 228.903 151.002C228.903 153.517 227.534 155.832 225.331 157.044L198.516 171.802C193.16 174.75 184.476 174.75 179.12 171.802L152.304 157.044Z" fill="#D5DFEC"/>
</g>
<path d="M152.178 156.975C150.053 155.805 148.733 153.572 148.733 151.147L148.733 144.165C148.733 141.74 150.053 139.506 152.178 138.337L179.12 123.509C184.476 120.562 193.16 120.562 198.516 123.509L225.458 138.337C227.583 139.506 228.903 141.74 228.903 144.165V151.147C228.903 153.572 227.583 155.805 225.458 156.975L198.516 171.802C193.16 174.75 184.476 174.75 179.12 171.802L152.178 156.975Z" fill="#D5DFEC"/>
<rect x="0.364572" width="50.8063" height="50.8063" rx="9.77026" transform="matrix(0.876891 -0.48069 0.876891 0.48069 143.715 143.19)" fill="#FBFBFD" stroke="url(#paint10_linear)" stroke-width="0.415756"/>
<path fill-rule="evenodd" clip-rule="evenodd" d="M187.17 153.5C186.062 153.66 184.894 153.464 184.089 152.982L179.595 150.285C179.062 149.965 179.064 149.445 179.6 149.126C179.77 149.024 179.984 148.951 180.216 148.914L196.268 146.378C197.206 146.229 198.207 146.39 198.894 146.803L203.549 149.596C204.19 149.978 204.193 150.6 203.553 150.984C203.339 151.112 203.068 151.203 202.776 151.246L187.17 153.5ZM193.754 139.315C194.693 139.166 195.693 139.33 196.381 139.74L205.828 145.408C206.106 145.575 206.214 145.819 206.106 146.047L205.136 148.127C205.124 148.154 205.106 148.178 205.083 148.203L199.837 145.056C199.159 144.649 198.172 144.485 197.238 144.625L183.008 146.772L177.086 143.219C176.553 142.899 176.555 142.379 177.091 142.06C177.261 141.958 177.475 141.885 177.707 141.848L193.754 139.315ZM191.216 132.465C192.156 132.315 193.159 132.478 193.846 132.89L207.644 141.169C207.925 141.34 208.029 141.59 207.916 141.82L206.948 143.764L197.342 138.001C196.664 137.594 195.679 137.431 194.75 137.569L180.189 139.755L174.573 136.385C174.403 136.283 174.281 136.155 174.216 136.017C174.026 135.579 174.46 135.131 175.187 135.015L191.216 132.465Z" fill="#00D395"/>
<g filter="url(#filter10_d)">
<path d="M210.51 125.196C208.307 123.984 206.938 121.668 206.938 119.154C206.938 118.058 207.827 117.17 208.922 117.17H237.326H256.721H285.124C286.22 117.17 287.108 118.058 287.108 119.154C287.108 121.668 285.74 123.984 283.537 125.196L256.721 139.954C251.365 142.902 242.681 142.902 237.326 139.954L210.51 125.196Z" fill="#D5DFEC"/>
</g>
<path d="M210.383 125.126C208.258 123.957 206.938 121.724 206.938 119.299L206.938 112.317C206.938 109.891 208.258 107.658 210.383 106.489L237.326 91.6612C242.681 88.7136 251.365 88.7136 256.721 91.6612L283.663 106.489C285.788 107.658 287.108 109.891 287.108 112.317V119.299C287.108 121.724 285.788 123.957 283.663 125.126L256.721 139.954C251.365 142.902 242.681 142.902 237.326 139.954L210.383 125.126Z" fill="#D5DFEC"/>
<rect x="0.364572" width="50.8063" height="50.8063" rx="9.77026" transform="matrix(0.876891 -0.48069 0.876891 0.48069 201.92 111.342)" fill="#FBFBFD" stroke="url(#paint11_linear)" stroke-width="0.415756"/>
<mask id="mask0" mask-type="alpha" maskUnits="userSpaceOnUse" x="224" y="104" width="46" height="15">
<path d="M234.933 118.394L225.042 112.46C223.771 111.697 223.794 110.447 225.065 109.685C237.148 102.435 256.954 102.306 269.038 109.556C270.295 110.31 270.295 111.533 269.038 112.288L258.861 118.394C257.568 119.17 255.472 119.17 254.179 118.394C250.157 115.981 243.636 115.981 239.615 118.394C238.322 119.17 236.226 119.17 234.933 118.394Z" fill="#C4C4C4"/>
</mask>
<g mask="url(#mask0)">
<path d="M234.933 118.394L225.042 112.46C223.771 111.697 223.794 110.447 225.065 109.685C237.148 102.435 256.954 102.306 269.038 109.556C270.295 110.31 270.295 111.533 269.038 112.288L258.861 118.394C257.568 119.17 255.472 119.17 254.179 118.394C250.157 115.981 243.636 115.981 239.615 118.394C238.322 119.17 236.226 119.17 234.933 118.394Z" fill="url(#paint12_radial)"/>
<circle r="20.6124" transform="matrix(0.857493 -0.514496 0.857493 0.514496 246.963 123.491)" fill="url(#paint13_radial)"/>
<circle r="15.1158" transform="matrix(0.857493 -0.514496 0.857493 0.514496 246.962 123.491)" fill="url(#paint14_radial)"/>
</g>
<defs>
<filter id="filter0_d" x="25.0625" y="79.1217" width="93.3482" height="38.173" filterUnits="userSpaceOnUse" color-interpolation-filters="sRGB">
<feFlood flood-opacity="0" result="BackgroundImageFix"/>
<feColorMatrix in="SourceAlpha" type="matrix" values="0 0 0 0 0 0 0 0 0 0 0 0 0 0 0 0 0 0 127 0"/>
<feOffset dy="1.09821"/>
<feGaussianBlur stdDeviation="3.29464"/>
<feColorMatrix type="matrix" values="0 0 0 0 0 0 0 0 0 0 0 0 0 0 0 0 0 0 0.3 0"/>
<feBlend mode="normal" in2="BackgroundImageFix" result="effect1_dropShadow"/>
<feBlend mode="normal" in="SourceGraphic" in2="effect1_dropShadow" result="shape"/>
</filter>
<filter id="filter1_d" x="82.8402" y="47.9829" width="93.3482" height="38.173" filterUnits="userSpaceOnUse" color-interpolation-filters="sRGB">
<feFlood flood-opacity="0" result="BackgroundImageFix"/>
<feColorMatrix in="SourceAlpha" type="matrix" values="0 0 0 0 0 0 0 0 0 0 0 0 0 0 0 0 0 0 127 0"/>
<feOffset dy="1.09821"/>
<feGaussianBlur stdDeviation="3.29464"/>
<feColorMatrix type="matrix" values="0 0 0 0 0 0 0 0 0 0 0 0 0 0 0 0 0 0 0.3 0"/>
<feBlend mode="normal" in2="BackgroundImageFix" result="effect1_dropShadow"/>
<feBlend mode="normal" in="SourceGraphic" in2="effect1_dropShadow" result="shape"/>
</filter>
<filter id="filter2_d" x="139.947" y="16.1347" width="93.3482" height="38.173" filterUnits="userSpaceOnUse" color-interpolation-filters="sRGB">
<feFlood flood-opacity="0" result="BackgroundImageFix"/>
<feColorMatrix in="SourceAlpha" type="matrix" values="0 0 0 0 0 0 0 0 0 0 0 0 0 0 0 0 0 0 127 0"/>
<feOffset dy="1.09821"/>
<feGaussianBlur stdDeviation="3.29464"/>
<feColorMatrix type="matrix" values="0 0 0 0 0 0 0 0 0 0 0 0 0 0 0 0 0 0 0.3 0"/>
<feBlend mode="normal" in2="BackgroundImageFix" result="effect1_dropShadow"/>
<feBlend mode="normal" in="SourceGraphic" in2="effect1_dropShadow" result="shape"/>
</filter>
<filter id="filter3_d" x="0.901834" y="155.997" width="93.3482" height="38.173" filterUnits="userSpaceOnUse" color-interpolation-filters="sRGB">
<feFlood flood-opacity="0" result="BackgroundImageFix"/>
<feColorMatrix in="SourceAlpha" type="matrix" values="0 0 0 0 0 0 0 0 0 0 0 0 0 0 0 0 0 0 127 0"/>
<feOffset dy="1.09821"/>
<feGaussianBlur stdDeviation="3.29464"/>
<feColorMatrix type="matrix" values="0 0 0 0 0 0 0 0 0 0 0 0 0 0 0 0 0 0 0.3 0"/>
<feBlend mode="normal" in2="BackgroundImageFix" result="effect1_dropShadow"/>
<feBlend mode="normal" in="SourceGraphic" in2="effect1_dropShadow" result="shape"/>
</filter>
<filter id="filter4_d" x="58.6795" y="124.858" width="93.3482" height="38.173" filterUnits="userSpaceOnUse" color-interpolation-filters="sRGB">
<feFlood flood-opacity="0" result="BackgroundImageFix"/>
<feColorMatrix in="SourceAlpha" type="matrix" values="0 0 0 0 0 0 0 0 0 0 0 0 0 0 0 0 0 0 127 0"/>
<feOffset dy="1.09821"/>
<feGaussianBlur stdDeviation="3.29464"/>
<feColorMatrix type="matrix" values="0 0 0 0 0 0 0 0 0 0 0 0 0 0 0 0 0 0 0.3 0"/>
<feBlend mode="normal" in2="BackgroundImageFix" result="effect1_dropShadow"/>
<feBlend mode="normal" in="SourceGraphic" in2="effect1_dropShadow" result="shape"/>
</filter>
<filter id="filter5_d" x="115.787" y="93.0097" width="93.3482" height="38.173" filterUnits="userSpaceOnUse" color-interpolation-filters="sRGB">
<feFlood flood-opacity="0" result="BackgroundImageFix"/>
<feColorMatrix in="SourceAlpha" type="matrix" values="0 0 0 0 0 0 0 0 0 0 0 0 0 0 0 0 0 0 127 0"/>
<feOffset dy="1.09821"/>
<feGaussianBlur stdDeviation="3.29464"/>
<feColorMatrix type="matrix" values="0 0 0 0 0 0 0 0 0 0 0 0 0 0 0 0 0 0 0.3 0"/>
<feBlend mode="normal" in2="BackgroundImageFix" result="effect1_dropShadow"/>
<feBlend mode="normal" in="SourceGraphic" in2="effect1_dropShadow" result="shape"/>
</filter>
<filter id="filter6_d" x="173.992" y="61.1615" width="93.3482" height="38.173" filterUnits="userSpaceOnUse" color-interpolation-filters="sRGB">
<feFlood flood-opacity="0" result="BackgroundImageFix"/>
<feColorMatrix in="SourceAlpha" type="matrix" values="0 0 0 0 0 0 0 0 0 0 0 0 0 0 0 0 0 0 127 0"/>
<feOffset dy="1.09821"/>
<feGaussianBlur stdDeviation="3.29464"/>
<feColorMatrix type="matrix" values="0 0 0 0 0 0 0 0 0 0 0 0 0 0 0 0 0 0 0.3 0"/>
<feBlend mode="normal" in2="BackgroundImageFix" result="effect1_dropShadow"/>
<feBlend mode="normal" in="SourceGraphic" in2="effect1_dropShadow" result="shape"/>
</filter>
<filter id="filter7_d" x="227.657" y="164.914" width="93.3482" height="38.173" filterUnits="userSpaceOnUse" color-interpolation-filters="sRGB">
<feFlood flood-opacity="0" result="BackgroundImageFix"/>
<feColorMatrix in="SourceAlpha" type="matrix" values="0 0 0 0 0 0 0 0 0 0 0 0 0 0 0 0 0 0 127 0"/>
<feOffset dy="1.09821"/>
<feGaussianBlur stdDeviation="3.29464"/>
<feColorMatrix type="matrix" values="0 0 0 0 0 0 0 0 0 0 0 0 0 0 0 0 0 0 0.3 0"/>
<feBlend mode="normal" in2="BackgroundImageFix" result="effect1_dropShadow"/>
<feBlend mode="normal" in="SourceGraphic" in2="effect1_dropShadow" result="shape"/>
</filter>
<filter id="filter8_d" x="231.099" y="29.3132" width="93.3482" height="38.173" filterUnits="userSpaceOnUse" color-interpolation-filters="sRGB">
<feFlood flood-opacity="0" result="BackgroundImageFix"/>
<feColorMatrix in="SourceAlpha" type="matrix" values="0 0 0 0 0 0 0 0 0 0 0 0 0 0 0 0 0 0 127 0"/>
<feOffset dy="1.09821"/>
<feGaussianBlur stdDeviation="3.29464"/>
<feColorMatrix type="matrix" values="0 0 0 0 0 0 0 0 0 0 0 0 0 0 0 0 0 0 0.3 0"/>
<feBlend mode="normal" in2="BackgroundImageFix" result="effect1_dropShadow"/>
<feBlend mode="normal" in="SourceGraphic" in2="effect1_dropShadow" result="shape"/>
</filter>
<filter id="filter9_d" x="142.144" y="143.527" width="93.3482" height="38.173" filterUnits="userSpaceOnUse" color-interpolation-filters="sRGB">
<feFlood flood-opacity="0" result="BackgroundImageFix"/>
<feColorMatrix in="SourceAlpha" type="matrix" values="0 0 0 0 0 0 0 0 0 0 0 0 0 0 0 0 0 0 127 0"/>
<feOffset dy="1.09821"/>
<feGaussianBlur stdDeviation="3.29464"/>
<feColorMatrix type="matrix" values="0 0 0 0 0 0 0 0 0 0 0 0 0 0 0 0 0 0 0.3 0"/>
<feBlend mode="normal" in2="BackgroundImageFix" result="effect1_dropShadow"/>
<feBlend mode="normal" in="SourceGraphic" in2="effect1_dropShadow" result="shape"/>
</filter>
<filter id="filter10_d" x="200.349" y="111.679" width="93.3482" height="38.173" filterUnits="userSpaceOnUse" color-interpolation-filters="sRGB">
<feFlood flood-opacity="0" result="BackgroundImageFix"/>
<feColorMatrix in="SourceAlpha" type="matrix" values="0 0 0 0 0 0 0 0 0 0 0 0 0 0 0 0 0 0 127 0"/>
<feOffset dy="1.09821"/>
<feGaussianBlur stdDeviation="3.29464"/>
<feColorMatrix type="matrix" values="0 0 0 0 0 0 0 0 0 0 0 0 0 0 0 0 0 0 0.3 0"/>
<feBlend mode="normal" in2="BackgroundImageFix" result="effect1_dropShadow"/>
<feBlend mode="normal" in="SourceGraphic" in2="effect1_dropShadow" result="shape"/>
</filter>
<linearGradient id="paint0_linear" x1="49.6161" y1="3.36733" x2="7.78781" y2="0.198856" gradientUnits="userSpaceOnUse">
<stop stop-color="#C9CFDC"/>
<stop offset="0.484375" stop-color="#B0C1E4"/>
<stop offset="1" stop-color="#BFCCE7" stop-opacity="0.67"/>
</linearGradient>
<linearGradient id="paint1_linear" x1="49.6161" y1="3.36733" x2="7.78781" y2="0.198856" gradientUnits="userSpaceOnUse">
<stop stop-color="#C9CFDC"/>
<stop offset="0.484375" stop-color="#B0C1E4"/>
<stop offset="1" stop-color="#BFCCE7" stop-opacity="0.67"/>
</linearGradient>
<linearGradient id="paint2_linear" x1="49.6161" y1="3.36733" x2="7.78781" y2="0.198856" gradientUnits="userSpaceOnUse">
<stop stop-color="#C9CFDC"/>
<stop offset="0.484375" stop-color="#B0C1E4"/>
<stop offset="1" stop-color="#BFCCE7" stop-opacity="0.67"/>
</linearGradient>
<linearGradient id="paint3_linear" x1="49.6161" y1="3.36733" x2="7.78781" y2="0.198856" gradientUnits="userSpaceOnUse">
<stop stop-color="#C9CFDC"/>
<stop offset="0.484375" stop-color="#B0C1E4"/>
<stop offset="1" stop-color="#BFCCE7" stop-opacity="0.67"/>
</linearGradient>
<linearGradient id="paint4_linear" x1="49.6161" y1="3.36733" x2="7.78781" y2="0.198856" gradientUnits="userSpaceOnUse">
<stop stop-color="#C9CFDC"/>
<stop offset="0.484375" stop-color="#B0C1E4"/>
<stop offset="1" stop-color="#BFCCE7" stop-opacity="0.67"/>
</linearGradient>
<linearGradient id="paint5_linear" x1="49.6161" y1="3.36733" x2="7.78781" y2="0.198856" gradientUnits="userSpaceOnUse">
<stop stop-color="#C9CFDC"/>
<stop offset="0.484375" stop-color="#B0C1E4"/>
<stop offset="1" stop-color="#BFCCE7" stop-opacity="0.67"/>
</linearGradient>
<linearGradient id="paint6_linear" x1="49.6161" y1="3.36733" x2="7.78781" y2="0.198856" gradientUnits="userSpaceOnUse">
<stop stop-color="#C9CFDC"/>
<stop offset="0.484375" stop-color="#B0C1E4"/>
<stop offset="1" stop-color="#BFCCE7" stop-opacity="0.67"/>
</linearGradient>
<linearGradient id="paint7_linear" x1="49.6161" y1="3.36733" x2="7.78781" y2="0.198856" gradientUnits="userSpaceOnUse">
<stop stop-color="#C9CFDC"/>
<stop offset="0.484375" stop-color="#B0C1E4"/>
<stop offset="1" stop-color="#BFCCE7" stop-opacity="0.67"/>
</linearGradient>
<linearGradient id="paint8_linear" x1="49.6161" y1="3.36733" x2="7.78781" y2="0.198856" gradientUnits="userSpaceOnUse">
<stop stop-color="#C9CFDC"/>
<stop offset="0.484375" stop-color="#B0C1E4"/>
<stop offset="1" stop-color="#BFCCE7" stop-opacity="0.67"/>
</linearGradient>
<linearGradient id="paint9_linear" x1="49.6161" y1="3.36733" x2="7.78781" y2="0.198856" gradientUnits="userSpaceOnUse">
<stop stop-color="#C9CFDC"/>
<stop offset="0.484375" stop-color="#B0C1E4"/>
<stop offset="1" stop-color="#BFCCE7" stop-opacity="0.67"/>
</linearGradient>
<linearGradient id="paint10_linear" x1="49.6161" y1="3.36733" x2="7.78781" y2="0.198856" gradientUnits="userSpaceOnUse">
<stop stop-color="#C9CFDC"/>
<stop offset="0.484375" stop-color="#B0C1E4"/>
<stop offset="1" stop-color="#BFCCE7" stop-opacity="0.67"/>
</linearGradient>
<linearGradient id="paint11_linear" x1="49.6161" y1="3.36733" x2="7.78781" y2="0.198856" gradientUnits="userSpaceOnUse">
<stop stop-color="#C9CFDC"/>
<stop offset="0.484375" stop-color="#B0C1E4"/>
<stop offset="1" stop-color="#BFCCE7" stop-opacity="0.67"/>
</linearGradient>
<radialGradient id="paint12_radial" cx="0" cy="0" r="1" gradientUnits="userSpaceOnUse" gradientTransform="translate(247.29 122.587) rotate(-97.9873) scale(19.3156 32.1396)">
<stop offset="0.764955" stop-color="#F62C00"/>
<stop offset="0.976385" stop-color="#8D54CD"/>
</radialGradient>
<radialGradient id="paint13_radial" cx="0" cy="0" r="1" gradientUnits="userSpaceOnUse" gradientTransform="translate(19.0855 22.3683) rotate(-46.2247) scale(22.7316 22.9498)">
<stop offset="0.82768" stop-color="#EDFC04"/>
<stop offset="1" stop-color="#FF8F14"/>
</radialGradient>
<radialGradient id="paint14_radial" cx="0" cy="0" r="1" gradientUnits="userSpaceOnUse" gradientTransform="translate(13.9706 16.3372) rotate(-49.1122) scale(16.5612 16.7201)">
<stop offset="0.722199" stop-color="#12B1E6"/>
<stop offset="1" stop-color="#0CDC02"/>
</radialGradient>
<clipPath id="clip0">
<rect width="27.0768" height="27.0768" fill="white" transform="matrix(0.857493 -0.514496 0.857493 0.514496 162.946 14.9029)"/>
</clipPath>
<clipPath id="clip1">
<rect width="32.2672" height="28.682" fill="white" transform="matrix(0.860927 -0.508729 0.860927 0.508729 21.0811 156.486)"/>
</clipPath>
<clipPath id="clip2">
<rect width="34.4033" height="33.1746" fill="white" transform="matrix(0.857493 -0.514496 0.857493 0.514496 190.893 62.5129)"/>
</clipPath>
</defs>
</svg>
