<svg xmlns="http://www.w3.org/2000/svg" xmlns:xlink="http://www.w3.org/1999/xlink" width="264" height="128" viewBox="0 0 264 128">
    <defs>
        <linearGradient id="a" x1="50%" x2="50%" y1="0%" y2="100%">
            <stop offset="0%"/>
            <stop offset="100%" stop-color="#FFF"/>
        </linearGradient>
        <path id="b" d="M91 0h34a4 4 0 0 1 4 4v118.144c0 11.519-9.337 20.856-20.856 20.856h-.288C96.337 143 87 133.663 87 122.144V4a4 4 0 0 1 4-4z"/>
    </defs>
    <g fill="none" fill-rule="evenodd">
        <path stroke="#1D2027" stroke-width="2" d="M127.856 30.44a1 1 0 0 1-1 1H100.63a5 5 0 0 1-5-5v-8.486a5 5 0 0 1 5-5h26.225a1 1 0 0 1 1 1v16.485z"/>
        <path stroke="#142533" stroke-width="2" d="M95.247 25.231H84.318v-6.435h10.93v6.435z"/>
        <path stroke="#1D2027" stroke-width="2" d="M127.923 27.726V16.471l6.977.083a1 1 0 0 1 .988 1V26.82a1 1 0 0 1-1.012.988l-6.953-.083z"/>
        <path fill="url(#a)" d="M6.836 53.925h1.616v82.65H6.836v-82.65zm5.657 0h1.616v82.65h-1.616v-82.65z" transform="matrix(0 -1 -1 0 137.5 32.44)"/>
        <g transform="rotate(-90 125.09 4.475)">
            <use fill="#FFF" xlink:href="#b"/>
            <path fill="#6490F1" fill-opacity=".15" stroke="#142533" stroke-linejoin="square" stroke-width="2" d="M91 1a3 3 0 0 0-3 3v118.144C88 133.11 96.89 142 107.856 142h.288C119.11 142 128 133.11 128 122.144V4a3 3 0 0 0-3-3H91z"/>
            <path fill="#FFF" stroke="#6490F1" d="M97.6 41.5a1.1 1.1 0 0 0-1.1 1.1v52.8a1.1 1.1 0 0 0 1.1 1.1h20.8a1.1 1.1 0 0 0 1.1-1.1V42.6a1.1 1.1 0 0 0-1.1-1.1H97.6z"/>
            <path fill="#6490F1" d="M105.5 51h5a.5.5 0 0 1 .5.5v34a.5.5 0 0 1-.5.5h-5a.5.5 0 0 1-.5-.5v-34a.5.5 0 0 1 .5-.5zm1.238 3.042l.774.512v.013l-.774.505.341.466.722-.577h.013l.243.899.551-.177-.328-.88.932.053v-.597l-.932.046.328-.873-.551-.17-.243.892h-.013l-.722-.584-.34.472zm0 3.908l.774.512v.013l-.774.505.341.466.722-.578h.013l.243.9.551-.178-.328-.88.932.053v-.597l-.932.046.328-.872-.551-.17-.243.891h-.013l-.722-.584-.34.473zm0 3.907l.774.512v.013l-.774.505.341.466.722-.577h.013l.243.899.551-.178-.328-.879.932.053v-.597l-.932.046.328-.873-.551-.17-.243.892h-.013l-.722-.584-.34.472zm0 3.908l.774.511v.014l-.774.505.341.466.722-.578h.013l.243.899.551-.177-.328-.88.932.053v-.597l-.932.046.328-.872-.551-.171-.243.892h-.013l-.722-.584-.34.473zm0 3.907l.774.512v.013l-.774.505.341.466.722-.577h.013l.243.898.551-.177-.328-.879.932.053v-.597l-.932.046.328-.873-.551-.17-.243.892h-.013l-.722-.584-.34.472zm0 3.908l.774.511v.013l-.774.506.341.465.722-.577h.013l.243.899.551-.177-.328-.88.932.053v-.597l-.932.046.328-.873-.551-.17-.243.892h-.013l-.722-.584-.34.473zm0 3.907l.774.512v.013l-.774.505.341.466.722-.578h.013l.243.9.551-.178-.328-.879.932.052v-.597l-.932.046.328-.872-.551-.17-.243.891h-.013l-.722-.583-.34.472zm0 3.907l.774.512v.013l-.774.505.341.466.722-.577h.013l.243.899.551-.177-.328-.88.932.053v-.597l-.932.046.328-.873-.551-.17-.243.892h-.013l-.722-.584-.34.472z"/>
            <path fill="#FFF" stroke="#142533" stroke-width="2" d="M123.166 135.105c7.049-8.4 5.953-20.925-2.447-27.974l-90.824-76.21a3 3 0 0 0-4.227.37L4 57.115a3 3 0 0 0 .37 4.227l90.824 76.21c8.4 7.049 20.924 5.953 27.973-2.447z"/>
            <ellipse cx="108.016" cy="122.123" stroke="#6490F1" rx="10.57" ry="10.644"/>
            <ellipse cx="108.016" cy="22.123" stroke="#6490F1" rx="10.57" ry="10.644"/>
        </g>
    </g>
</svg>
