<svg width="151" height="137" viewBox="0 0 151 137" fill="none" xmlns="http://www.w3.org/2000/svg">
    <g clip-path="url(#clip0)">
        <path d="M0.5 98.555C0.5 98.555 20.3947 128.622 61.3502 133.464C65.8927 133.986 70.4595 134.484 75.002 134.887C103.593 137.569 131.844 138.115 144.16 134.294C144.16 134.294 144.257 134.294 144.306 134.247C147.755 133.131 149.966 131.707 150.5 129.833C150.5 129.833 149.31 129.429 147.075 128.551V128.504C135.245 123.734 94.5324 104.915 55.5445 58.9951L0.5 98.555Z" fill="#F4F5F8"/>
        <path d="M75 134.864C103.591 137.546 131.842 138.091 144.158 134.271C128.976 135.339 118.045 121.432 118.045 121.432C114.717 127.46 92.8785 132.087 75 134.864Z" fill="url(#paint0_linear)"/>
        <path d="M5.50391 104.749L60.2569 64.4058" stroke="url(#paint1_linear)" stroke-width="0.1" stroke-miterlimit="10"/>
        <path d="M11.0156 110.254L65.5015 70.125" stroke="url(#paint2_linear)" stroke-width="0.1" stroke-miterlimit="10"/>
        <path d="M17.0898 115.38L70.9198 75.7017" stroke="url(#paint3_linear)" stroke-width="0.1" stroke-miterlimit="10"/>
        <path d="M23.7461 120.079L76.5558 81.1836" stroke="url(#paint4_linear)" stroke-width="0.1" stroke-miterlimit="10"/>
        <path d="M31.0352 124.256L82.3145 86.5469" stroke="url(#paint5_linear)" stroke-width="0.1" stroke-miterlimit="10"/>
        <path d="M39.1719 127.886L88.2893 91.6963" stroke="url(#paint6_linear)" stroke-width="0.1" stroke-miterlimit="10"/>
        <path d="M48.1133 130.876L94.4858 96.751" stroke="url(#paint7_linear)" stroke-width="0.1" stroke-miterlimit="10"/>
        <path d="M58.2148 133.013L100.846 101.64" stroke="url(#paint8_linear)" stroke-width="0.1" stroke-miterlimit="10"/>
        <path d="M107.405 106.386L69.4861 134.365H69.4375" stroke="url(#paint9_linear)" stroke-width="0.1" stroke-miterlimit="10"/>
        <path d="M114.232 110.99L83.7461 133.392" stroke="url(#paint10_linear)" stroke-width="0.1" stroke-miterlimit="10"/>
        <path d="M121.282 115.38L102.383 129.287" stroke="url(#paint11_linear)" stroke-width="0.1" stroke-miterlimit="10"/>
        <path d="M128.587 119.557L121.324 124.873" stroke="url(#paint12_linear)" stroke-width="0.1" stroke-miterlimit="10"/>
        <path d="M136.196 123.544L127.719 129.785" stroke="url(#paint13_linear)" stroke-width="0.1" stroke-miterlimit="10"/>
        <path d="M144.112 127.246L135.828 133.392" stroke="url(#paint14_linear)" stroke-width="0.1" stroke-miterlimit="10"/>
        <path d="M147.849 132.68C142.164 130.449 125.598 123.188 104.683 108.403C102.521 106.908 100.334 105.342 98.0995 103.657C96.0348 102.091 93.8971 100.501 91.7595 98.7683C89.7433 97.1783 87.6542 95.4934 85.5651 93.7136C83.5975 92.0286 81.5813 90.32 79.5894 88.5164C77.6704 86.8078 75.7514 85.0517 73.808 83.2481C71.9376 81.492 70.0672 79.6647 68.1481 77.7662C66.3263 75.9626 64.5044 74.0879 62.7311 72.1894C60.9093 70.3621 59.136 68.4399 57.4113 66.4939C55.808 64.7615 54.2048 62.958 52.6016 61.1069" stroke="url(#paint15_linear)" stroke-width="0.1" stroke-miterlimit="10"/>
        <path d="M144.164 134.27H144.115C138.164 131.873 122.058 124.707 101.824 110.492C99.7102 109.02 97.5239 107.43 95.2891 105.745C93.1758 104.179 91.0867 102.589 88.9004 100.857C86.8843 99.2669 84.8438 97.5819 82.7304 95.8021C80.7628 94.1647 78.7223 92.4323 76.7061 90.6287C74.7871 88.9201 72.8681 87.164 70.9247 85.3604C69.0543 83.6043 67.1838 81.8007 65.2648 79.8785C63.443 78.0749 61.5725 76.2002 59.7992 74.3017C57.9774 72.4744 56.2527 70.5996 54.4794 68.6537C52.8762 66.9213 51.2729 65.094 49.6211 63.2192" stroke="url(#paint16_linear)" stroke-width="0.1" stroke-miterlimit="10"/>
        <path d="M131.87 132.016C131.214 131.708 130.51 131.375 129.83 131.019C125.919 129.073 121.279 126.582 116.081 123.497C110.882 120.53 105.149 116.876 99.0279 112.604C96.8659 111.109 94.6797 109.519 92.3963 107.858C90.3315 106.292 88.1939 104.702 86.0562 102.969C84.04 101.403 81.9509 99.718 79.8619 97.9144C77.8943 96.3244 75.8538 94.5446 73.8376 92.741C71.9186 91.0561 69.9509 89.3 68.0076 87.4965C66.1372 85.7403 64.2667 83.913 62.3477 82.0146C60.5258 80.2584 58.704 78.3837 56.8821 76.4615C55.1088 74.6342 53.3356 72.7594 51.5623 70.8134C49.959 69.0811 48.3072 67.2538 46.6797 65.3315" stroke="url(#paint17_linear)" stroke-width="0.1" stroke-miterlimit="10"/>
        <path d="M133.836 136.216C129.124 134.128 121.861 130.64 112.994 125.419H112.946C107.844 122.452 102.233 118.893 96.2088 114.668C94.0468 113.173 91.8606 111.607 89.5772 109.97C87.4638 108.403 85.3748 106.813 83.1885 105.081C81.1723 103.515 79.0833 101.83 76.9699 100.074C75.0023 98.4364 72.9618 96.704 70.9456 94.9004C69.0266 93.2155 67.059 91.4594 65.1157 89.6321C63.2452 87.9235 61.3262 86.0724 59.4315 84.1977C57.6096 82.3941 55.7391 80.5668 53.9659 78.6446C52.144 76.8173 50.3707 74.9425 48.646 72.9965C46.9456 71.2167 45.3181 69.3894 43.7148 67.5146" stroke="url(#paint18_linear)" stroke-width="0.1" stroke-miterlimit="10"/>
        <path d="M109.397 126.985C104.514 124.113 99.0973 120.72 93.3888 116.757C91.2269 115.262 89.0406 113.695 86.7572 112.01C84.6439 110.492 82.5548 108.878 80.3686 107.146C78.3038 105.579 76.2633 103.894 74.1257 102.162C72.1581 100.477 70.1176 98.7922 68.1014 96.9887C66.1823 95.3038 64.2147 93.5477 62.2714 91.7204C60.401 90.0117 58.4819 88.2081 56.5386 86.3334C54.7168 84.5298 52.8949 82.7025 51.0244 80.7803C49.2512 78.953 47.4779 77.0782 45.7046 75.1323C44.0528 73.3525 42.401 71.5726 40.7734 69.6504" stroke="url(#paint19_linear)" stroke-width="0.1" stroke-miterlimit="10"/>
        <path d="M105.441 128.338C100.85 125.68 95.8943 122.524 90.5502 118.845C88.3883 117.35 86.202 115.784 83.9186 114.099H83.87C81.7567 112.58 79.6676 110.966 77.4814 109.282C75.4166 107.668 73.3761 106.03 71.2385 104.274C69.2708 102.637 67.2546 100.952 65.2142 99.1484C63.2466 97.4634 61.2789 95.7073 59.3356 93.88C57.4652 92.1714 55.5461 90.3678 53.6028 88.4931C51.781 86.6895 49.9591 84.8622 48.0887 82.9874C46.3154 81.1601 44.5421 79.2854 42.7688 77.3394C41.0684 75.5596 39.4409 73.6848 37.7891 71.8101" stroke="url(#paint20_linear)" stroke-width="0.1" stroke-miterlimit="10"/>
        <path d="M101.334 129.548C97.0833 127.08 92.5651 124.208 87.7311 120.886C85.5692 119.391 83.3344 117.825 81.051 116.187C78.9376 114.668 76.8485 113.055 74.6623 111.37C72.5975 109.756 70.5084 108.118 68.3708 106.362C66.3546 104.725 64.3384 103.04 62.3465 101.236C60.3789 99.599 58.4113 97.8429 56.4679 95.9919C54.5975 94.2832 52.6785 92.4796 50.7352 90.6049C48.9133 88.8488 47.0428 87.0215 45.1724 85.0993C43.3991 83.3194 41.6258 81.3972 39.8526 79.475C38.1522 77.6951 36.476 75.8204 34.8242 73.9219" stroke="url(#paint21_linear)" stroke-width="0.1" stroke-miterlimit="10"/>
        <path d="M96.9128 130.663C93.1477 128.409 89.1396 125.869 84.9128 122.974C82.7509 121.479 80.5161 119.913 78.2327 118.275C76.1193 116.757 73.9817 115.143 71.7954 113.458C69.7307 111.844 67.6416 110.207 65.5039 108.474C63.4877 106.837 61.4958 105.105 59.4311 103.349C57.4635 101.664 55.4958 99.955 53.5525 98.104C51.6335 96.3953 49.7631 94.5917 47.8197 92.7407C45.9979 90.9371 44.1274 89.1099 42.257 87.2351C40.4837 85.4078 38.7104 83.5805 36.8886 81.6108C35.1882 79.831 33.5121 77.9562 31.8359 76.0103" stroke="url(#paint22_linear)" stroke-width="0.1" stroke-miterlimit="10"/>
        <path d="M92.4419 131.707C89.1626 129.69 85.7132 127.483 82.1181 125.038C79.9075 123.591 77.6727 122.025 75.4136 120.316C73.3002 118.845 71.1626 117.231 68.9764 115.546C66.9116 113.98 64.8225 112.295 62.6849 110.562C60.6687 108.925 58.6282 107.24 56.5634 105.484C54.5958 103.799 52.6282 102.043 50.6849 100.239C48.7658 98.5308 46.8468 96.7272 44.9035 94.8762C43.0816 93.0726 41.2112 91.2453 39.3407 89.3705C37.5674 87.5907 35.7456 85.7159 33.9723 83.7463C32.2719 81.9664 30.5472 80.0917 28.8711 78.1694" stroke="url(#paint23_linear)" stroke-width="0.1" stroke-miterlimit="10"/>
        <path d="M87.8535 132.633C85.1328 130.948 82.2907 129.121 79.3029 127.151C77.1166 125.656 74.8575 124.137 72.5984 122.428C70.4851 120.957 68.2988 119.343 66.1126 117.658C64.0478 116.092 61.9588 114.455 59.8211 112.722C57.8049 111.085 55.7644 109.353 53.6996 107.596C51.732 105.959 49.7644 104.203 47.8211 102.399C45.9021 100.691 43.983 98.9345 42.0397 97.036C40.2179 95.2799 38.3474 93.4526 36.477 91.5304C34.7037 89.7743 32.8818 87.8758 31.06 85.9536C29.3353 84.1263 27.6349 82.2515 25.9102 80.353" stroke="url(#paint24_linear)" stroke-width="0.1" stroke-miterlimit="10"/>
        <path d="M83.2095 133.487H83.1609C81.0475 132.158 78.7884 130.711 76.505 129.192C74.2945 127.744 72.0597 126.178 69.752 124.517C67.6386 122.998 65.4524 121.432 63.2661 119.747C61.2014 118.18 59.1123 116.543 56.9746 114.811C54.9585 113.173 52.918 111.488 50.8046 109.732C48.837 108.047 46.8694 106.339 44.8775 104.535C42.9585 102.779 41.0394 101.023 39.0961 99.1718C37.2742 97.4157 35.4038 95.5884 33.5334 93.7136C31.7601 91.9338 29.9382 90.059 28.1163 88.0893C26.3917 86.262 24.6427 84.3873 22.918 82.4888" stroke="url(#paint25_linear)" stroke-width="0.1" stroke-miterlimit="10"/>
        <path d="M78.3993 134.366C76.8932 133.393 75.29 132.349 73.6868 131.304C71.5005 129.809 69.2414 128.291 66.9337 126.629C64.8204 125.111 62.6341 123.544 60.4479 121.859C58.3345 120.293 56.2455 118.656 54.1078 116.923C52.0916 115.333 50.0511 113.601 47.9378 111.845C45.9702 110.207 44.0026 108.451 42.0107 106.695C40.0916 104.987 38.1726 103.183 36.2293 101.332C34.4074 99.5758 32.537 97.7723 30.6179 95.8738C28.7961 94.0702 26.9742 92.1954 25.2009 90.2969C23.4277 88.4696 21.6544 86.5474 19.9297 84.6489" stroke="url(#paint26_linear)" stroke-width="0.1" stroke-miterlimit="10"/>
        <path d="M72.9346 134.698H72.8861C72.2059 134.247 71.55 133.82 70.8699 133.345C68.6593 131.897 66.4245 130.379 64.1168 128.717C61.9549 127.199 59.8172 125.632 57.5824 123.924C55.4691 122.357 53.38 120.72 51.2423 119.035C49.2261 117.398 47.1857 115.713 45.0723 113.957C43.1047 112.319 41.1371 110.611 39.1452 108.807C37.2261 107.098 35.2585 105.319 33.3152 103.444C31.4934 101.735 29.6229 99.8841 27.7039 97.9856C25.882 96.2295 24.0602 94.3547 22.2869 92.4562C20.5136 90.6289 18.7403 88.7067 17.0156 86.7607" stroke="url(#paint27_linear)" stroke-width="0.1" stroke-miterlimit="10"/>
        <path d="M65.9665 133.962H65.9179C64.4118 132.966 62.8571 131.898 61.2782 130.782C59.1163 129.287 56.9786 127.721 54.7438 126.036C52.6304 124.47 50.5414 122.833 48.3551 121.148C46.3389 119.51 44.2984 117.825 42.1851 116.069C40.2175 114.432 38.2499 112.723 36.258 110.919C34.2904 109.235 32.3713 107.431 30.3794 105.604C28.5576 103.848 26.6871 102.044 24.7681 100.169C22.9462 98.3657 21.1244 96.4909 19.3511 94.5925C17.5292 92.7652 15.7559 90.8429 14.0312 88.897" stroke="url(#paint28_linear)" stroke-width="0.1" stroke-miterlimit="10"/>
        <path d="M58.7992 133.107H58.7506C58.6777 132.989 58.5806 132.941 58.4591 132.846C56.3458 131.375 54.1595 129.785 51.9247 128.1C49.8113 126.581 47.6737 124.92 45.4875 123.235C43.4713 121.598 41.4308 119.913 39.3174 118.157C37.3498 116.519 35.3336 114.787 33.3417 112.983C31.3741 111.298 29.4551 109.495 27.4632 107.715C25.6413 105.911 23.7709 104.132 21.8518 102.257C20.03 100.501 18.2081 98.626 16.3862 96.7038C14.613 94.8765 12.8397 92.9543 11.0664 91.0083" stroke="url(#paint29_linear)" stroke-width="0.1" stroke-miterlimit="10"/>
        <path d="M51.0277 131.636C50.3718 131.161 49.6917 130.687 49.0601 130.188C46.9467 128.622 44.8577 127.032 42.6714 125.324C40.6552 123.686 38.5662 122.001 36.4771 120.221C34.5095 118.584 32.4933 116.899 30.5014 115.095C28.5338 113.387 26.6147 111.607 24.6228 109.827C22.7524 108.071 20.8819 106.244 18.9629 104.345C17.1411 102.589 15.3192 100.762 13.4973 98.8396C11.724 96.9649 9.95077 95.0901 8.12891 93.0967" stroke="url(#paint30_linear)" stroke-width="0.1" stroke-miterlimit="10"/>
        <path d="M41.675 128.859L41.6265 128.812C41.0192 128.337 40.4605 127.91 39.8289 127.388C37.7641 125.822 35.7236 124.137 33.586 122.381C31.6184 120.743 29.6022 119.011 27.6103 117.255C25.6427 115.546 23.7236 113.766 21.7317 111.939C19.8613 110.23 17.9908 108.427 16.0718 106.552C14.2499 104.748 12.3795 102.921 10.5576 100.999C8.73577 99.1241 6.9139 97.2019 5.14062 95.2085" stroke="url(#paint31_linear)" stroke-width="0.1" stroke-miterlimit="10"/>
        <path d="M29.4794 123.449L29.4308 123.401C27.8519 122.096 26.3215 120.767 24.7426 119.367C22.775 117.682 20.8559 115.926 18.864 114.099C16.9936 112.39 15.0746 110.586 13.1555 108.712C11.3337 106.908 9.46323 105.081 7.64137 103.159C5.81951 101.284 3.94906 99.3616 2.17578 97.3682" stroke="url(#paint32_linear)" stroke-width="0.1" stroke-miterlimit="10"/>
        <path d="M73.0125 9.99074C72.0651 9.87209 70.802 9.27881 69.5388 8.32956C69.1987 8.06852 68.8586 7.78374 68.5186 7.47524C68.2513 7.23793 68.0084 7.00062 67.7898 6.73957C67.7169 6.66838 67.6441 6.59719 67.5955 6.52599C66.5509 5.33943 65.8708 4.15288 65.7007 3.22736C65.5793 2.68154 65.6522 2.23065 65.9437 1.92215C66.8424 0.996631 69.4416 1.96961 71.7736 4.10541C72.2594 4.55631 72.6724 5.0072 73.0368 5.45809C74.47 7.2142 75.053 8.92284 74.3242 9.65851C74.0327 9.96701 73.5955 10.0619 73.0125 9.99074Z" fill="url(#paint33_linear)"/>
        <path d="M67.5915 3.39373C67.4215 3.55985 67.3972 3.8209 67.4943 4.1294C67.6158 4.67522 68.053 5.38715 68.7089 6.09909C68.8789 6.28894 69.0733 6.47879 69.2919 6.66863C69.4862 6.85848 69.7049 7.0246 69.9235 7.19072C70.7008 7.784 71.4538 8.1637 72.0125 8.25862C72.3526 8.32982 72.6198 8.28235 72.7656 8.11624C73.2514 7.59415 72.4984 6.12282 71.0895 4.8176C69.6563 3.53612 68.1016 2.87165 67.5915 3.39373Z" fill="url(#paint34_linear)"/>
        <path d="M65.9425 1.94629L65.0194 2.91927C64.6065 3.34643 64.6308 4.10582 65.0194 5.00761C65.2381 5.50596 65.5538 6.07551 65.9668 6.62133C66.2583 7.02476 66.5741 7.40446 66.9628 7.80789C67.1571 8.02147 67.3757 8.23505 67.6186 8.44863C67.8372 8.66221 68.0802 8.85206 68.2988 9.04191C68.7117 9.37414 69.149 9.68265 69.5619 9.94369C70.1692 10.3234 70.7522 10.6082 71.2866 10.7743C72.234 11.0828 73.0114 11.0828 73.4243 10.6319L74.3474 9.65892C74.0559 9.96742 73.5944 10.0623 73.0356 9.99115C72.7684 9.96742 72.5012 9.89623 72.2097 9.8013C71.6753 9.63519 71.0923 9.35041 70.485 8.97071C70.1692 8.78086 69.8534 8.56728 69.5619 8.32997C69.4648 8.23505 69.3433 8.16385 69.2219 8.06893C68.979 7.87908 68.7603 7.68923 68.5417 7.47565C68.3231 7.26207 68.1045 7.04849 67.8858 6.83491C67.7887 6.73998 67.6915 6.62133 67.5943 6.5264C67.3271 6.24163 67.0842 5.95686 66.8899 5.64835C66.4769 5.0788 66.1368 4.53299 65.9425 4.0109C65.821 3.72613 65.7482 3.46508 65.6996 3.22777C65.5781 2.68196 65.651 2.23106 65.9425 1.94629Z" fill="url(#paint35_linear)"/>
        <path d="M72.1887 9.80108L71.2656 10.7741C72.213 11.0826 72.9903 11.0826 73.4033 10.6317L74.3264 9.65869C74.0349 9.9672 73.5733 10.0621 73.0146 9.99093C72.7717 9.9672 72.4802 9.896 72.1887 9.80108Z" fill="url(#paint36_linear)"/>
        <path d="M69.1965 8.06836L68.2734 9.04134C68.6864 9.37357 69.1236 9.68208 69.5366 9.94312L70.4597 8.97014C70.1439 8.78029 69.8281 8.56671 69.5366 8.3294C69.4394 8.25821 69.318 8.16328 69.1965 8.06836Z" fill="url(#paint37_linear)"/>
        <path d="M66.8879 5.67188L65.9648 6.64485C66.2563 7.04828 66.5721 7.42798 66.9608 7.83141L67.8839 6.85843C67.7867 6.76351 67.6895 6.64485 67.5924 6.54993C67.3252 6.24142 67.0822 5.95665 66.8879 5.67188Z" fill="url(#paint38_linear)"/>
        <path d="M65.9425 1.94629L65.0194 2.91927C64.6065 3.34643 64.6308 4.10582 65.0194 5.00761L65.9425 4.03463C65.821 3.74986 65.7482 3.48881 65.6996 3.2515C65.5781 2.68196 65.651 2.23106 65.9425 1.94629Z" fill="url(#paint39_linear)"/>
        <path d="M69.9067 5.55345L70.6355 5.98061L69.2266 4.50928L69.9067 5.55345Z" fill="white"/>
        <path d="M68.6172 4.77032L69.9046 5.55345L69.2245 4.50928L68.6172 4.77032Z" fill="white"/>
        <path d="M71.0706 6.85885L69.9046 5.55364L68.6172 4.77051L71.0706 6.85885Z" fill="white"/>
        <path d="M71.3379 6.9302L71.7751 6.59796L70.9492 6.09961L71.3379 6.9302Z" fill="white"/>
        <path d="M70.9519 6.09956L71.7778 6.59791L69.543 4.60449L70.9519 6.09956Z" fill="white"/>
        <path d="M71.0722 6.85892L70.635 5.98087L69.9062 5.55371L71.0722 6.85892Z" fill="white"/>
        <path d="M73.0117 9.99094C72.0644 9.87229 70.8012 9.27901 69.538 8.32976C69.198 8.06872 68.8579 7.78394 68.5178 7.47544C68.2506 7.23813 68.0077 7.00081 67.7891 6.73977C68.202 6.21769 68.7121 5.81426 69.3194 5.52948C70.4368 5.0074 71.7243 5.03113 73.036 5.45829C74.4692 7.2144 75.0522 8.92304 74.3235 9.65871C74.032 9.96721 73.5947 10.0621 73.0117 9.99094Z" fill="url(#paint40_linear)"/>
        <path d="M114.695 56.1954C116.08 53.3002 116.201 50.4762 115.011 48.0082C112.971 43.879 111.61 44.8994 109.643 43.2145C109.74 42.4788 109.74 41.7669 109.691 41.1261C109.643 39.9159 109.376 38.848 108.963 37.9462C105.61 39.9159 102.258 41.8144 98.9302 43.7128C97.497 44.5672 96.2824 44.8994 95.9909 42.4314C95.7966 40.7939 95.3107 39.2514 94.9464 37.6614C94.0233 38.2309 93.0516 38.8005 92.1043 39.3226C89.6994 40.7464 87.2945 42.0991 84.8897 43.4993C84.1852 43.9027 83.5536 44.1875 83.0435 44.0925C82.5091 43.9976 82.0962 43.4518 81.9261 42.1703C81.6589 39.8209 80.7358 37.7089 80.5901 35.312C80.4201 32.227 79.1326 29.4979 77.1407 27.5519L77.1164 27.5757L77.1407 27.5994C77.0192 27.8604 76.9221 28.1452 76.8735 28.4537C76.7277 29.3318 76.7763 30.3522 77.0678 31.6337C77.2136 32.3693 77.3836 33.0813 77.5051 33.8169C77.8451 35.312 78.2338 36.8071 78.6225 38.3021C78.9383 39.4412 79.1812 40.5566 79.4241 41.6957C79.6913 43.1908 79.9099 44.7096 79.9342 46.2758C79.9099 46.9165 79.9099 47.5573 79.8613 48.2218V48.3167C79.8128 48.8388 79.7885 49.3371 79.7399 49.8355C79.3998 54.1071 78.5496 58.4024 78.0395 62.3655C77.165 62.674 76.3391 62.8164 75.5617 63.0537C75.0516 63.2199 74.5172 63.4097 74.0314 63.6707C68.1286 66.9219 62.2257 70.2917 56.2986 73.5904C54.8411 74.3735 53.9666 75.5601 53.7237 76.9365C53.5779 77.8145 53.6994 78.7163 54.0881 79.6418C54.8168 81.3742 55.5941 83.0591 56.3958 84.7915C56.6144 85.2898 56.8573 85.8119 57.0516 86.3103C57.586 87.4494 58.0719 88.6122 58.582 89.7513C61.9099 97.3215 65.2379 104.939 68.5415 112.533C69.5132 111.964 70.5091 111.418 71.4565 110.848C72.5739 110.231 73.667 109.591 74.7601 108.95C76.2419 108.119 77.6751 107.265 79.1326 106.434C80.0071 105.936 80.6144 105.248 80.9545 104.393L81.1488 103.729C81.2703 103.064 81.2703 102.353 81.0759 101.593C80.9302 101.071 80.9059 100.478 80.9059 100.407C83.9423 99.4574 87.0273 98.8641 89.9666 97.7487C90.7925 97.4402 91.6184 97.108 92.3958 96.7045C92.8087 96.491 93.2703 96.2536 93.6832 96.0163C97.2055 94.189 100.728 92.1956 104.201 90.1785C105.78 89.3004 107.384 88.3749 108.987 87.4731C111.197 86.1916 113.432 84.9576 115.643 83.7473C115.716 83.6999 115.813 83.6524 115.886 83.6049C118.315 82.2997 119.869 80.5911 120.72 78.835C121.157 77.9332 121.424 77.0314 121.521 76.1533L121.546 76.1296C121.813 73.9938 121.205 71.9529 120.088 70.5053C119.432 69.651 118.509 69.0815 117.708 68.3695C120.185 62.2469 119.262 58.4262 114.695 56.1954ZM68.3229 24.5855L71.3836 24.6093C70.3877 24.4431 69.3674 24.4194 68.3229 24.5855Z" fill="url(#paint41_linear)"/>
        <path d="M116.614 34.41C115.205 34.4575 113.748 34.9559 112.339 35.8576C111.197 36.5696 110.104 37.2815 108.938 37.9697C105.586 39.9394 102.234 41.8379 98.9057 43.7364C97.4725 44.5907 96.2579 44.9229 95.9664 42.4549C95.7721 40.8175 95.2862 39.2749 94.9219 37.6849C96.0393 36.9967 97.1567 36.3323 98.2741 35.6203C100.096 34.4812 101.991 34.0303 103.667 34.1965L116.614 34.41Z" fill="url(#paint42_linear)"/>
        <path d="M63.9755 62.1997C63.0767 62.4845 62.2751 62.6506 61.4978 62.8879C60.9633 63.0303 60.4532 63.2201 59.9674 63.4812C54.0403 66.7324 48.1617 70.1496 42.2346 73.4008C40.8014 74.2077 39.9026 75.3705 39.684 76.7706C39.5139 77.625 39.6597 78.5267 40.0241 79.4523C40.7528 81.1846 41.5544 82.8933 42.3317 84.6019C42.5747 85.124 42.7933 85.6224 43.0119 86.1444C43.5463 87.2835 44.0322 88.4464 44.518 89.5617C48.3318 98.2473 52.1212 106.957 55.9107 115.619C56.1293 116.093 56.3722 116.473 56.6637 116.758C57.2953 117.446 58.0969 117.731 58.9714 117.612L72.4775 117.849C71.8216 117.802 71.2144 117.541 70.7042 116.971C70.437 116.686 70.1698 116.307 69.9755 115.856C69.5139 114.74 69.0038 113.673 68.5423 112.581C65.2386 104.987 61.9107 97.3693 58.5828 89.799C58.0726 88.6362 57.5868 87.4971 57.0524 86.358C56.8581 85.8597 56.6152 85.3376 56.3965 84.8392C55.6192 83.1306 54.8419 81.4219 54.0888 79.6896C53.7002 78.764 53.5787 77.8385 53.7245 76.9842C53.9674 75.6078 54.8419 74.4212 56.2994 73.6381C62.2265 70.3632 68.1293 66.9697 74.0322 63.7185C74.518 63.4575 75.0524 63.2439 75.5625 63.1015C76.3156 62.8879 77.1415 62.7218 78.0403 62.4133L63.9755 62.1997ZM61.765 66.3527C61.7164 66.3289 61.6921 66.3289 61.6678 66.3289C61.5706 66.3289 61.4977 66.3527 61.4249 66.4001C61.4735 66.3764 61.5463 66.3289 61.6192 66.3289C61.6435 66.3289 61.6435 66.3289 61.6921 66.3289C61.7164 66.3289 61.765 66.3289 61.7892 66.3289L61.765 66.3527Z" fill="url(#paint43_linear)"/>
        <path d="M83.2633 24.7274C82.3159 24.7512 81.3443 24.941 80.3483 25.2495C78.6722 25.7479 77.6277 26.4836 77.1176 27.5515L77.0933 27.5752L77.1176 27.5989C76.9961 27.86 76.8989 28.1447 76.8503 28.4532C76.7046 29.3313 76.7532 30.3517 77.0447 31.6332C77.1904 32.3689 77.3605 33.0808 77.4819 33.8165C77.822 35.3115 78.2107 36.8066 78.5993 38.3017C78.9151 39.4408 79.158 40.5561 79.401 41.6952C79.6682 43.1903 79.8868 44.7091 79.9111 46.2753C79.8868 46.9161 79.8868 47.5568 79.8382 48.2213V48.3162C79.7896 48.8383 79.7653 49.3367 79.7167 49.835C79.3767 54.1066 78.5265 58.402 78.0163 62.3651L63.9759 62.1515C64.4617 58.1646 65.3362 53.8693 65.6763 49.6214C65.7249 49.0993 65.7249 48.5773 65.7977 48.0789V48.0314C65.8463 47.367 65.8463 46.7025 65.822 46.0618C65.822 44.4955 65.6277 43.0004 65.3119 41.4816C65.0933 40.3426 64.8261 39.2035 64.5346 38.0881C64.1459 36.593 63.7573 35.098 63.4172 33.6029C63.2957 32.8672 63.1257 32.1316 62.9556 31.3722C62.6884 30.1144 62.6156 29.0465 62.7613 28.2159C62.8099 27.9074 62.907 27.5989 63.0285 27.3379C63.5143 26.2225 64.5589 25.5106 66.2593 24.9648C66.9394 24.7512 67.6196 24.6088 68.2998 24.5376L71.3605 24.5613L83.2633 24.7274Z" fill="url(#paint44_linear)"/>
        <path d="M118 49.5503C118.048 49.574 118.097 49.5739 118.145 49.5976C118.097 49.5976 118.048 49.574 118 49.5503Z" fill="url(#paint45_linear)"/>
        <path d="M128.737 56.4089C130.121 53.5137 130.267 50.7134 129.052 48.2217C127.036 44.1162 125.652 45.1366 123.684 43.4517C124.364 37.78 121.109 34.3627 117.077 34.3864H116.615C115.206 34.4339 113.749 34.9322 112.34 35.834C111.198 36.5459 110.105 37.2579 108.939 37.9461C105.587 39.9158 102.235 41.8143 98.9067 43.7127C97.4735 44.5671 96.2589 44.8993 95.9674 42.4313C95.7731 40.7938 95.2873 39.2513 94.9229 37.6613C94.7772 36.9494 94.6557 36.2849 94.6314 35.5492C94.2913 29.3554 89.3359 24.4668 83.3602 24.7041H83.263C82.3156 24.7278 81.344 24.9177 80.348 25.2262C78.6719 25.7245 77.6274 26.4602 77.1172 27.5281L77.093 27.5518L77.1172 27.5756C76.9958 27.8366 76.8986 28.1214 76.85 28.4299C76.7043 29.3079 76.7529 30.3284 77.0444 31.6099C77.1901 32.3455 77.3602 33.0575 77.4816 33.7931C77.8217 35.2882 78.2104 36.7832 78.599 38.2783C78.9148 39.4174 79.1577 40.5328 79.4006 41.6719C79.6679 43.1669 79.8865 44.6857 79.9108 46.252C79.8865 46.8927 79.8865 47.5335 79.8379 48.1979V48.2929C79.7893 48.8149 79.765 49.3133 79.7164 49.8117C79.3764 54.0833 78.5262 58.3786 78.016 62.3417C77.1415 62.6502 76.3156 62.7926 75.5383 63.0299C75.0282 63.196 74.4938 63.3859 74.0079 63.6469C68.1051 66.8981 62.2023 70.2679 56.2751 73.5665C54.8177 74.3497 53.9432 75.5362 53.7002 76.9126C53.5545 77.7907 53.676 78.6925 54.0646 79.618C54.7934 81.3504 55.5707 83.0353 56.3723 84.7677C56.5909 85.266 56.8339 85.7881 57.0282 86.2865C57.5626 87.4255 58.0484 88.5884 58.5585 89.7275C61.8865 97.2977 65.2144 104.915 68.5181 112.509C68.9796 113.625 69.4897 114.693 69.9513 115.784C70.1456 116.235 70.4128 116.639 70.68 116.9C71.1901 117.469 71.7974 117.73 72.4533 117.778C73.1334 117.825 73.8865 117.635 74.6395 117.208C79.3521 114.574 84.1132 111.845 88.8258 109.14C90.2832 108.285 91.7407 107.455 93.2225 106.6C94.0727 106.102 94.68 105.39 95.0201 104.559L95.1901 103.942L95.2144 103.919C95.3359 103.254 95.3359 102.542 95.1415 101.783C94.9958 101.261 94.9958 100.644 94.9715 100.573C98.8581 99.3623 102.793 98.7453 106.437 96.8706C110.397 94.8534 114.332 92.6227 118.267 90.3682C119.87 89.4664 121.449 88.5409 123.028 87.6391C125.263 86.3814 127.474 85.1236 129.684 83.9133C129.757 83.8896 129.854 83.8184 129.927 83.7947C132.332 82.4657 133.911 80.7808 134.761 79.001C135.198 78.0992 135.465 77.1974 135.563 76.3194H135.587C135.854 74.1836 135.271 72.0952 134.129 70.6951C133.474 69.8408 132.55 69.2475 131.725 68.5355C134.227 62.4604 133.328 58.6871 128.737 56.4089ZM91.7407 101.83C91.8865 102.186 91.9351 102.59 92.1537 103.373C89.5545 104.915 87.0525 106.482 84.5504 107.953C81.2225 109.875 77.8217 111.536 74.5181 113.601C73.2063 114.432 72.7448 113.886 72.3318 112.937C72.0403 112.248 71.7245 111.584 71.4573 110.919C67.3764 101.712 63.4168 92.5277 59.3845 83.2963C58.9715 82.3233 58.5343 81.3504 58.1213 80.3299C58.097 80.1875 57.9998 80.0452 57.927 79.9028C57.5869 79.0484 57.1739 78.1467 56.7853 77.1974C61.5221 74.4683 66.1618 71.7867 70.7772 69.1525C72.0403 68.4406 73.3764 68.0135 74.5423 67.1117C74.6638 66.993 74.7853 66.9218 74.8824 66.8744C75.0039 66.8032 75.1011 66.7557 75.1739 66.732C75.2225 66.7082 75.2711 66.6608 75.3197 66.6608C75.4168 66.6133 75.5383 66.6133 75.6355 66.6133C75.6598 66.6133 75.6598 66.6133 75.6841 66.5896L75.7326 66.6133C75.8055 66.6133 75.8784 66.6133 75.9756 66.6608C75.9998 66.6608 75.9998 66.6608 76.0241 66.7082C76.0727 66.732 76.097 66.732 76.1456 66.7794C76.2428 66.8269 76.2913 66.8981 76.3399 66.9693C76.4128 67.0405 76.4371 67.1117 76.4857 67.1829C76.6071 67.3727 76.7043 67.5626 76.8015 67.8236C81.1496 77.8619 85.5221 87.8527 89.9432 97.8435C90.5504 99.1487 91.1334 100.501 91.7407 101.83ZM124.291 56.1716C123.903 56.6937 123.465 57.2632 123.028 57.7853C122.518 58.3786 122.882 60.1347 123.684 60.1584C125.069 60.2296 126.575 59.755 127.862 60.0635C129.441 60.3958 130.17 62.0095 130.024 64.0978C129.878 66.0438 128.834 67.2066 127.352 67.9423C126.842 68.1558 126.308 68.4643 125.967 68.9627C125.044 70.2916 125.992 71.9766 126.745 72.1189C126.842 72.1189 126.891 72.1427 126.963 72.1189C127.036 72.1189 127.085 72.1189 127.158 72.1189C127.231 72.1189 127.303 72.1189 127.376 72.0952C127.619 72.024 127.886 71.9766 128.105 71.8816C128.202 71.8816 128.275 71.8579 128.348 71.8104C128.445 71.8104 128.518 71.7867 128.567 71.763C128.688 71.7392 128.81 71.7392 128.882 71.7392C130.947 71.6681 132.21 72.9258 132.453 75.3227C132.696 77.8619 131.166 79.4519 129.417 80.4486C123.757 83.6998 118.048 86.7611 112.389 90.036C111.927 90.297 111.465 90.5581 111.004 90.8428C110.372 91.1988 109.716 91.5785 109.109 91.9582C104.98 94.4025 100.85 96.0637 96.4776 96.4434C95.9432 96.4909 95.4087 96.5146 94.9472 96.4671C94.4857 96.4197 94.0484 96.301 93.6598 96.1112C92.7124 95.684 91.9594 94.8297 91.3764 93.3821C90.9391 92.3379 90.5262 91.2937 90.0646 90.2258C89.2873 88.3985 88.5343 86.5712 87.7569 84.7677C87.2711 83.7235 86.8339 82.6556 86.3966 81.6114C85.9108 80.5672 85.4735 79.4993 84.9877 78.4552C83.8217 75.821 82.6314 73.2106 81.4168 70.6476C80.2509 68.1084 80.8581 65.4742 81.1496 62.8163C81.7083 57.5243 82.7529 52.2085 83.093 46.9165C83.1172 46.7029 83.1173 46.4893 83.1415 46.2757C83.1415 46.1333 83.1415 45.9909 83.1415 45.8486C83.1173 45.8248 83.1415 45.8011 83.1415 45.7536C83.1415 45.6112 83.1415 45.4689 83.1173 45.3027C83.1173 45.1603 83.093 44.9942 83.0687 44.8281C83.0444 44.6145 83.0201 44.3772 82.9958 44.1399C82.9715 44.0213 82.9715 43.9263 82.9472 43.8077C82.9229 43.6416 82.8986 43.4517 82.85 43.2619C82.85 43.1432 82.8257 43.0483 82.8015 42.9296C82.7529 42.7635 82.7286 42.5974 82.7043 42.4313C82.6557 42.2889 82.6557 42.1228 82.6071 41.9804C82.4128 41.0549 82.1942 40.1293 81.9998 39.2038C81.8541 38.4444 81.6841 37.685 81.514 36.9256C81.2954 35.8103 81.0282 34.7186 80.761 33.6033C80.4938 32.4879 80.2509 31.3725 79.9836 30.2572C79.9108 29.8775 80.0322 29.4029 80.1051 29.0232C85.182 26.7212 89.3116 29.4503 90.3804 32.7727C90.7691 33.9355 91.0849 35.1695 91.3764 36.4035C91.6193 37.3765 91.8379 38.397 92.0565 39.3699C92.2994 40.5802 92.5666 41.8143 92.8338 43.0008C93.3197 45.1841 93.7326 47.3911 94.267 49.954C99.5626 46.9165 104.591 44.0213 109.644 41.1735C110.032 40.9362 110.445 40.7226 110.834 40.509C112.486 39.5835 114.186 38.5394 115.886 38.0173C118.656 37.1867 121.012 39.7022 120.235 42.6923C120.21 42.7872 120.186 42.8584 120.186 42.9534C120.137 43.1195 120.065 43.2619 119.992 43.428C119.797 43.7365 119.603 44.045 119.36 44.3298C118.874 45.018 118.243 45.6824 117.757 46.3469C116.98 47.486 117.004 48.3641 117.295 48.9336C117.368 49.076 117.465 49.1946 117.587 49.2896C117.611 49.337 117.635 49.3608 117.66 49.3845C117.781 49.4794 117.854 49.5506 117.976 49.5743C118.024 49.5981 118.073 49.6218 118.121 49.5981C118.729 49.693 119.506 49.076 120.186 48.6963C121.959 47.6996 123.806 47.3436 125.117 48.6488C125.967 49.5032 126.575 51.2593 126.478 52.6594C126.405 53.7748 125.142 55.08 124.291 56.1716Z" fill="url(#paint46_linear)"/>
        <path d="M132.455 75.2753C132.698 77.8145 131.167 79.4045 129.418 80.4012C123.758 83.6524 118.05 86.7375 112.39 89.9886C111.928 90.2497 111.467 90.5107 111.005 90.7955C110.374 91.1515 109.742 91.5311 109.11 91.9108C104.981 94.3552 100.876 96.0163 96.5032 96.4198C94.0498 96.6333 92.4708 95.9926 91.402 93.3585C90.9648 92.2905 90.5275 91.2464 90.0903 90.1785C89.3372 88.3512 88.5599 86.5476 87.7826 84.744C87.321 83.6999 86.8595 82.632 86.398 81.5878C85.9364 80.5436 85.4749 79.4757 85.0133 78.4315C83.8474 75.7974 82.6571 73.187 81.4425 70.6003C80.2522 68.061 80.8838 65.4269 81.1753 62.769C81.7583 57.4769 82.7785 52.1612 83.1429 46.8928C83.1672 46.6793 83.1672 46.4657 83.1672 46.2521C83.1672 46.1097 83.1672 45.9673 83.1672 45.8249C83.1672 45.8012 83.1672 45.7775 83.1672 45.73C83.1672 45.5876 83.1672 45.4452 83.1429 45.2791C83.1429 45.113 83.1186 44.9706 83.0943 44.8045C83.07 44.4723 83.0214 44.1163 82.9729 43.7841C82.9486 43.5942 82.9243 43.4044 82.8757 43.2145C82.8514 43.0958 82.8271 43.0009 82.8271 42.8823C82.8028 42.7399 82.7542 42.5738 82.7299 42.4076C82.7057 42.2415 82.6571 42.0991 82.6328 41.933C82.4384 41.0075 82.2198 40.082 82.0255 39.1565C81.8797 38.3971 81.7097 37.6614 81.564 36.902C81.321 35.7867 81.0538 34.6713 80.8109 33.5559C80.5437 32.4406 80.3008 31.3252 80.0579 30.2098C79.985 29.8301 80.1065 29.3555 80.155 28.9758C85.2563 26.6739 89.3858 29.403 90.4546 32.7253C91.4992 35.9765 92.1307 39.5362 92.9081 42.9772C93.3939 45.1367 93.8311 47.3437 94.3656 49.9067C100.074 46.6555 105.491 43.523 110.908 40.4854C112.56 39.5362 114.26 38.5157 115.961 37.9937C118.73 37.1631 121.086 39.6548 120.333 42.6687C120.309 42.7399 120.285 42.8348 120.26 42.906C120.212 43.0721 120.139 43.2145 120.042 43.3806C119.872 43.6891 119.677 43.9976 119.434 44.3061C118.924 44.9706 118.293 45.6351 117.831 46.3233C116.592 48.1269 117.418 49.3371 118.05 49.5507C118.098 49.5745 118.147 49.5745 118.195 49.5982C118.803 49.6694 119.58 49.0524 120.26 48.6727C122.034 47.676 123.904 47.32 125.191 48.6015C126.042 49.4558 126.649 51.1882 126.552 52.612C126.479 53.7511 125.191 55.0801 124.341 56.1717C123.953 56.6938 123.515 57.2633 123.078 57.7617C122.544 58.3787 122.908 60.1348 123.71 60.1586C125.094 60.2297 126.6 59.7551 127.888 60.0399C129.467 60.3959 130.171 61.9621 130.025 64.0742C129.88 66.0202 128.859 67.2067 127.378 67.9186C126.892 68.156 126.357 68.4645 126.017 68.9391C125.094 70.2443 126.017 71.9529 126.795 72.0716C126.868 72.0716 126.94 72.0953 127.013 72.0716C127.086 72.0716 127.135 72.0716 127.208 72.0716C127.281 72.0716 127.329 72.0479 127.402 72.0479C127.645 72.0004 127.888 71.9292 128.131 71.858C128.204 71.8343 128.301 71.8106 128.398 71.7868C128.471 71.7631 128.544 71.7394 128.617 71.7394C128.714 71.7156 128.835 71.7156 128.932 71.7156C130.949 71.6444 132.236 72.8785 132.455 75.2753Z" fill="url(#paint47_linear)"/>
        <path d="M56.7852 77.2209C61.5463 74.4918 66.1617 71.8102 70.8013 69.176C72.0402 68.4641 73.4005 68.0132 74.5665 67.1351C75.8297 66.1859 76.2669 66.4707 76.8499 67.7996C81.7811 79.1906 86.7852 90.5103 91.7649 101.878C91.9107 102.234 91.9835 102.637 92.1779 103.396C89.5787 104.963 87.1009 106.529 84.5503 107.976C81.2224 109.875 77.8216 111.56 74.5422 113.624C73.2305 114.455 72.769 113.909 72.3317 112.96C68.0078 103.088 63.6839 93.1919 59.3843 83.296C58.5341 81.3501 57.7082 79.4041 56.7852 77.2209Z" fill="url(#paint48_linear)"/>
        <path d="M23.5765 52.5646C24.2875 52.5646 24.8639 52.2352 24.8639 51.8289C24.8639 51.4226 24.2875 51.0933 23.5765 51.0933C22.8655 51.0933 22.2891 51.4226 22.2891 51.8289C22.2891 52.2352 22.8655 52.5646 23.5765 52.5646Z" fill="#BED776"/>
        <path d="M53.2883 60.657C53.2155 61.1553 52.2438 61.5113 51.1264 61.4401C50.009 61.3689 49.1345 60.918 49.2074 60.4196C49.2802 59.9213 50.2519 59.5653 51.3693 59.6365C52.4867 59.7077 53.3369 60.1586 53.2883 60.657Z" fill="url(#paint49_linear)"/>
        <path d="M94.0986 122.825C94.1514 122.132 93.2289 121.501 92.0382 121.414C90.8475 121.328 89.8396 121.819 89.7869 122.512C89.7341 123.205 90.6566 123.836 91.8473 123.923C93.038 124.009 94.0459 123.518 94.0986 122.825Z" fill="#7AC6B8"/>
        <path d="M104.075 111.7C104.192 111.148 103.521 110.545 102.576 110.353C101.63 110.16 100.768 110.452 100.65 111.003C100.533 111.555 101.204 112.158 102.15 112.351C103.095 112.543 103.957 112.252 104.075 111.7Z" fill="#D9D5E5"/>
        <path d="M57.2159 3.31555C57.4917 2.96062 56.8317 2.01766 55.7417 1.2094C54.6518 0.401145 53.5447 0.0336542 53.2689 0.388588C52.9931 0.743521 53.6531 1.68647 54.743 2.49473C55.833 3.30299 56.9401 3.67048 57.2159 3.31555Z" fill="#D9D5E5"/>
        <path d="M130.554 16.6833C131.162 17.3003 130.554 18.7954 129.218 20.0769C127.882 21.3346 126.303 21.8804 125.72 21.2634C125.113 20.6464 125.72 19.1514 127.056 17.8699C128.392 16.6121 129.971 16.09 130.554 16.6833Z" fill="url(#paint50_linear)"/>
        <path d="M109.611 7.65192C109.869 6.63414 109.667 5.70944 109.159 5.58656C108.651 5.46368 108.03 6.18915 107.772 7.20694C107.514 8.22472 107.716 9.14942 108.224 9.2723C108.732 9.39518 109.353 8.66971 109.611 7.65192Z" fill="#D9D5E5"/>
        <path d="M148.413 12.6766C149.745 11.9162 150.639 10.9879 150.409 10.6032C150.178 10.2184 148.912 10.5229 147.58 11.2833C146.248 12.0437 145.355 12.9721 145.585 13.3568C145.815 13.7415 147.081 13.437 148.413 12.6766Z" fill="#BED776"/>
        <path d="M28.7479 16.1367C28.9422 16.4926 29.0879 16.8723 29.1608 17.2758C29.1851 17.4182 29.2094 17.5605 29.2094 17.7029C28.845 17.347 28.3835 17.0622 27.8248 16.8249C24.3511 15.401 18.2782 23.3747 14.9746 25.7241C13.8329 26.5547 13.177 26.7682 12.8126 26.7445C12.7883 26.7445 12.7398 26.7445 12.6912 26.7208C12.1082 26.5309 10.4321 26.7445 12.3268 22.7102C12.2782 22.8526 12.1325 23.5883 12.5211 23.8018C12.7883 23.9442 13.2742 23.873 14.2215 23.3035C14.4159 23.1848 14.6345 23.0425 14.8774 22.8763C18.1811 20.5032 23.3551 13.194 26.8531 14.6179C27.679 14.9501 28.262 15.401 28.6507 15.9943L28.675 16.0418C28.6993 16.0418 28.7236 16.0892 28.7479 16.1367Z" fill="url(#paint51_linear)"/>
        <path d="M43.6636 30.328C44.8296 33.508 43.1049 41.4816 41.5989 46.6788C40.943 46.7025 40.53 46.4889 40.3114 46.0618L40.2871 46.0143C39.194 43.831 42.3276 36.8303 42.0361 30.2093C42.0118 29.5923 41.8903 29.094 41.7203 28.6906C41.5503 28.3583 41.3316 28.0973 41.0644 27.9312L42.6191 28.8804C43.1292 29.1414 43.275 29.3076 43.6636 30.328Z" fill="url(#paint52_linear)"/>
        <path d="M23.5751 40.0812C22.9678 40.0574 22.3363 39.6066 22.1662 39.2031C22.1662 39.1794 22.1662 39.1794 22.1662 39.1794C22.0205 38.776 22.2877 38.4437 22.5549 37.8267C22.5792 37.7318 22.6278 37.6369 22.652 37.5419C22.7249 37.6606 22.8221 37.7081 22.9678 37.7318C23.0164 37.7318 23.065 37.7318 23.1379 37.7081C23.2108 37.6843 23.3565 37.6369 23.478 37.5419C25.7128 36.2605 37.227 25.9849 40.895 27.8596L41.0407 27.9546C41.3079 28.1207 41.5508 28.3817 41.6966 28.714C37.2513 28.7377 26.0529 40.1286 23.5751 40.0812Z" fill="url(#paint53_linear)"/>
        <path d="M51.7547 45.4684C51.7547 45.4684 42.0623 49.479 41.3336 47.9602L41.3093 47.9365L40.2891 46.0854C40.532 46.5126 40.9206 46.7262 41.5765 46.7024C41.8923 46.7024 42.281 46.6313 42.7425 46.4889C48.6211 44.7328 50.9045 43.4038 50.9045 43.4038C50.9045 43.4038 49.7628 44.5192 51.7547 45.4684Z" fill="url(#paint54_linear)"/>
        <path d="M12.7914 21.5474C12.6699 21.9271 12.4999 22.3305 12.2812 22.7102V22.6865V22.6627C12.4756 22.283 12.6456 21.9033 12.7914 21.5474Z" fill="url(#paint55_linear)"/>
        <path d="M28.7451 16.1367C29.3281 17.0385 29.6924 18.0115 29.911 18.7234C29.911 18.7471 29.9353 18.7471 29.9353 18.7709C30.0811 19.2455 30.154 19.6015 30.1783 19.7676C30.1783 19.7913 30.1783 19.815 30.1783 19.815C30.1783 19.8388 30.1783 19.8388 30.1783 19.8388C30.3726 21.6661 29.5224 24.1341 28.0406 27.1242C26.6803 29.8533 24.3726 34.5521 23.1094 37.6609C22.8908 37.7083 22.7208 37.6609 22.6479 37.4948C22.3807 38.3016 22.2835 38.9424 22.4536 39.3933C22.4536 39.3933 22.4536 39.417 22.4293 39.417C20.1459 37.827 24.907 29.2838 27.0689 24.8698C28.5021 21.9509 29.3523 19.5303 29.2066 17.703C29.1823 17.5606 29.1823 17.4182 29.158 17.2758C29.0851 16.8724 28.9394 16.4927 28.7451 16.1367Z" fill="url(#paint56_linear)"/>
        <path d="M12.7914 21.5474C12.6699 21.9271 12.4999 22.3305 12.2812 22.7102V22.6865V22.6627C12.4756 22.283 12.6456 21.9033 12.7914 21.5474Z" fill="url(#paint57_linear)"/>
        <path d="M101.502 14.2388C102.304 16.0423 101.697 17.8222 99.8504 19.1749C98.0043 20.5275 100.288 22.2836 100.288 22.2836L99.0731 22.3548C99.0731 22.3548 96.814 20.5987 98.6358 19.246C100.458 17.8934 101.527 17.1102 100.725 15.3067L101.502 14.2388Z" fill="url(#paint58_linear)"/>
        <path d="M134.837 14.1436L133.185 21.263C132.845 22.6157 131.631 23.8259 130.513 23.9446L123.08 24.8227C122.57 24.8701 122.181 24.7277 121.914 24.4192L121.89 24.3955L121.137 23.6361C121.282 23.731 121.428 23.7785 121.598 23.8022C121.744 23.8259 121.89 23.8259 122.035 23.8022L122.619 23.731L129.444 22.9242C130.586 22.7818 131.776 21.5715 132.116 20.2425L133.768 13.1232C133.768 13.0757 133.793 13.052 133.793 13.0045C133.865 12.6011 133.865 12.2451 133.817 11.9366C133.768 11.6756 133.647 11.462 133.477 11.2959L134.424 12.2451L134.448 12.2689C134.448 12.2689 134.448 12.2926 134.473 12.2926C134.886 12.6723 135.031 13.3368 134.837 14.1436Z" fill="url(#paint59_linear)"/>
        <path d="M133.835 11.9363C133.908 12.2448 133.908 12.6007 133.81 13.0042C133.81 13.0516 133.786 13.0754 133.786 13.1228L132.134 20.2422C131.794 21.5948 130.58 22.8051 129.462 22.9238L122.636 23.7306L122.053 23.8018C121.908 23.8256 121.762 23.8256 121.616 23.8018C121.543 23.4696 121.543 23.0662 121.665 22.6153L121.762 22.2356L123.317 15.4959C123.657 14.1433 124.871 12.933 125.989 12.8143L132.839 12.0074L133.422 11.9363C133.543 11.9125 133.689 11.9125 133.835 11.9363Z" fill="url(#paint60_linear)"/>
        <path d="M133.813 13.0052C133.813 13.0527 133.789 13.0764 133.789 13.1239L132.137 20.2433C132.113 20.3144 132.089 20.4094 132.064 20.4806C131.651 21.7383 130.51 22.8062 129.465 22.9249L122.639 23.7317L122.056 23.8029C121.911 23.8267 121.765 23.8267 121.619 23.8029C121.449 23.7792 121.279 23.708 121.157 23.6368C121.012 23.5419 120.89 23.4232 120.793 23.2571C120.55 22.8537 120.477 22.2841 120.647 21.6197L122.299 14.5003C122.591 13.3849 123.441 12.3645 124.388 11.9848C124.583 11.8899 124.777 11.8424 124.996 11.8187L132.429 10.9406C132.915 10.8932 133.303 11.0356 133.57 11.3203C133.716 11.4865 133.838 11.7 133.886 11.9611C133.91 12.2459 133.91 12.6018 133.813 13.0052Z" fill="url(#paint61_linear)"/>
        <path d="M126.04 20.29C125.943 20.2426 125.846 20.1951 125.797 20.1002L123.757 17.2999C123.587 17.0626 123.635 16.7304 123.878 16.5405C124.121 16.3744 124.461 16.4219 124.656 16.6592L126.308 18.9136L130.291 14.642C130.486 14.4284 130.85 14.4047 131.069 14.5946C131.287 14.7844 131.312 15.1404 131.117 15.3539L126.672 20.1239C126.55 20.2426 126.405 20.3138 126.235 20.29C126.137 20.3138 126.089 20.3138 126.04 20.29Z" fill="white"/>
        <path d="M133.814 13.0046C133.814 13.052 133.789 13.0758 133.789 13.1232L132.137 20.2426C132.113 20.3138 132.089 20.4087 132.065 20.4799C128.809 18.6526 126.089 15.6625 124.34 11.9604C124.534 11.8655 124.729 11.818 124.947 11.7943L132.38 10.9162C132.866 10.8688 133.255 11.0111 133.522 11.2959C133.668 11.462 133.789 11.6756 133.838 11.9367C133.911 12.2452 133.911 12.6011 133.814 13.0046Z" fill="url(#paint62_linear)"/>
    </g>
    <defs>
        <linearGradient id="paint0_linear" x1="109.533" y1="141.015" x2="109.743" y2="124.119" gradientUnits="userSpaceOnUse">
            <stop stop-color="#C3CEED"/>
            <stop offset="0.0511614" stop-color="#C5D0ED"/>
            <stop offset="1" stop-color="#E5ECF1"/>
        </linearGradient>
        <linearGradient id="paint1_linear" x1="59.1807" y1="85.8497" x2="6.60859" y2="83.1601" gradientUnits="userSpaceOnUse">
            <stop stop-color="#C3CEED"/>
            <stop offset="1" stop-color="#D5D7ED"/>
        </linearGradient>
        <linearGradient id="paint2_linear" x1="64.4191" y1="91.4629" x2="12.1137" y2="88.787" gradientUnits="userSpaceOnUse">
            <stop stop-color="#C3CEED"/>
            <stop offset="1" stop-color="#D5D7ED"/>
        </linearGradient>
        <linearGradient id="paint3_linear" x1="69.8536" y1="96.8013" x2="18.1707" y2="94.1572" gradientUnits="userSpaceOnUse">
            <stop stop-color="#C3CEED"/>
            <stop offset="1" stop-color="#D5D7ED"/>
        </linearGradient>
        <linearGradient id="paint4_linear" x1="75.524" y1="101.867" x2="24.8193" y2="99.2732" gradientUnits="userSpaceOnUse">
            <stop stop-color="#C3CEED"/>
            <stop offset="1" stop-color="#D5D7ED"/>
        </linearGradient>
        <linearGradient id="paint5_linear" x1="81.3021" y1="106.593" x2="32.0647" y2="104.075" gradientUnits="userSpaceOnUse">
            <stop stop-color="#C3CEED"/>
            <stop offset="1" stop-color="#D5D7ED"/>
        </linearGradient>
        <linearGradient id="paint6_linear" x1="87.3197" y1="110.946" x2="40.1722" y2="108.534" gradientUnits="userSpaceOnUse">
            <stop stop-color="#C3CEED"/>
            <stop offset="1" stop-color="#D5D7ED"/>
        </linearGradient>
        <linearGradient id="paint7_linear" x1="93.5835" y1="114.904" x2="49.0593" y2="112.626" gradientUnits="userSpaceOnUse">
            <stop stop-color="#C3CEED"/>
            <stop offset="1" stop-color="#D5D7ED"/>
        </linearGradient>
        <linearGradient id="paint8_linear" x1="100.003" y1="118.323" x2="59.0801" y2="116.229" gradientUnits="userSpaceOnUse">
            <stop stop-color="#C3CEED"/>
            <stop offset="1" stop-color="#D5D7ED"/>
        </linearGradient>
        <linearGradient id="paint9_linear" x1="106.673" y1="121.268" x2="70.2046" y2="119.402" gradientUnits="userSpaceOnUse">
            <stop stop-color="#C3CEED"/>
            <stop offset="1" stop-color="#D5D7ED"/>
        </linearGradient>
        <linearGradient id="paint10_linear" x1="113.634" y1="122.905" x2="84.3606" y2="121.407" gradientUnits="userSpaceOnUse">
            <stop stop-color="#C3CEED"/>
            <stop offset="1" stop-color="#D5D7ED"/>
        </linearGradient>
        <linearGradient id="paint11_linear" x1="120.912" y1="122.773" x2="102.755" y2="121.844" gradientUnits="userSpaceOnUse">
            <stop stop-color="#C3CEED"/>
            <stop offset="1" stop-color="#D5D7ED"/>
        </linearGradient>
        <linearGradient id="paint12_linear" x1="128.46" y1="122.391" x2="121.463" y2="122.033" gradientUnits="userSpaceOnUse">
            <stop stop-color="#C3CEED"/>
            <stop offset="1" stop-color="#D5D7ED"/>
        </linearGradient>
        <linearGradient id="paint13_linear" x1="136.039" y1="126.86" x2="127.886" y2="126.443" gradientUnits="userSpaceOnUse">
            <stop stop-color="#C3CEED"/>
            <stop offset="1" stop-color="#D5D7ED"/>
        </linearGradient>
        <linearGradient id="paint14_linear" x1="143.961" y1="130.514" x2="135.986" y2="130.106" gradientUnits="userSpaceOnUse">
            <stop stop-color="#C3CEED"/>
            <stop offset="1" stop-color="#D5D7ED"/>
        </linearGradient>
        <linearGradient id="paint15_linear" x1="149.563" y1="99.2946" x2="50.8845" y2="94.2463" gradientUnits="userSpaceOnUse">
            <stop stop-color="#C3CEED"/>
            <stop offset="1" stop-color="#D5D7ED"/>
        </linearGradient>
        <linearGradient id="paint16_linear" x1="145.86" y1="101.143" x2="47.9423" y2="96.1338" gradientUnits="userSpaceOnUse">
            <stop stop-color="#C3CEED"/>
            <stop offset="1" stop-color="#D5D7ED"/>
        </linearGradient>
        <linearGradient id="paint17_linear" x1="133.485" y1="100.843" x2="45.0774" y2="96.3204" gradientUnits="userSpaceOnUse">
            <stop stop-color="#C3CEED"/>
            <stop offset="1" stop-color="#D5D7ED"/>
        </linearGradient>
        <linearGradient id="paint18_linear" x1="135.5" y1="104.128" x2="42.068" y2="99.3477" gradientUnits="userSpaceOnUse">
            <stop stop-color="#C3CEED"/>
            <stop offset="1" stop-color="#D5D7ED"/>
        </linearGradient>
        <linearGradient id="paint19_linear" x1="110.787" y1="100.059" x2="39.3634" y2="96.4054" gradientUnits="userSpaceOnUse">
            <stop stop-color="#C3CEED"/>
            <stop offset="1" stop-color="#D5D7ED"/>
        </linearGradient>
        <linearGradient id="paint20_linear" x1="106.824" y1="101.773" x2="36.4234" y2="98.1718" gradientUnits="userSpaceOnUse">
            <stop stop-color="#C3CEED"/>
            <stop offset="1" stop-color="#D5D7ED"/>
        </linearGradient>
        <linearGradient id="paint21_linear" x1="102.682" y1="103.418" x2="33.4816" y2="99.8774" gradientUnits="userSpaceOnUse">
            <stop stop-color="#C3CEED"/>
            <stop offset="1" stop-color="#D5D7ED"/>
        </linearGradient>
        <linearGradient id="paint22_linear" x1="98.2318" y1="105.006" x2="30.4984" y2="101.541" gradientUnits="userSpaceOnUse">
            <stop stop-color="#C3CEED"/>
            <stop offset="1" stop-color="#D5D7ED"/>
        </linearGradient>
        <linearGradient id="paint23_linear" x1="93.7371" y1="106.572" x2="27.5599" y2="103.187" gradientUnits="userSpaceOnUse">
            <stop stop-color="#C3CEED"/>
            <stop offset="1" stop-color="#D5D7ED"/>
        </linearGradient>
        <linearGradient id="paint24_linear" x1="89.1169" y1="108.052" x2="24.6294" y2="104.752" gradientUnits="userSpaceOnUse">
            <stop stop-color="#C3CEED"/>
            <stop offset="1" stop-color="#D5D7ED"/>
        </linearGradient>
        <linearGradient id="paint25_linear" x1="84.4401" y1="109.508" x2="21.6928" y2="106.298" gradientUnits="userSpaceOnUse">
            <stop stop-color="#C3CEED"/>
            <stop offset="1" stop-color="#D5D7ED"/>
        </linearGradient>
        <linearGradient id="paint26_linear" x1="79.6019" y1="110.956" x2="18.7158" y2="107.841" gradientUnits="userSpaceOnUse">
            <stop stop-color="#C3CEED"/>
            <stop offset="1" stop-color="#D5D7ED"/>
        </linearGradient>
        <linearGradient id="paint27_linear" x1="74.0977" y1="112.129" x2="15.8412" y2="109.149" gradientUnits="userSpaceOnUse">
            <stop stop-color="#C3CEED"/>
            <stop offset="1" stop-color="#D5D7ED"/>
        </linearGradient>
        <linearGradient id="paint28_linear" x1="67.0718" y1="112.72" x2="12.9505" y2="109.951" gradientUnits="userSpaceOnUse">
            <stop stop-color="#C3CEED"/>
            <stop offset="1" stop-color="#D5D7ED"/>
        </linearGradient>
        <linearGradient id="paint29_linear" x1="59.82" y1="113.278" x2="10.0562" y2="110.732" gradientUnits="userSpaceOnUse">
            <stop stop-color="#C3CEED"/>
            <stop offset="1" stop-color="#D5D7ED"/>
        </linearGradient>
        <linearGradient id="paint30_linear" x1="51.9723" y1="113.482" x2="7.18137" y2="111.191" gradientUnits="userSpaceOnUse">
            <stop stop-color="#C3CEED"/>
            <stop offset="1" stop-color="#D5D7ED"/>
        </linearGradient>
        <linearGradient id="paint31_linear" x1="42.5034" y1="112.978" x2="4.33612" y2="111.026" gradientUnits="userSpaceOnUse">
            <stop stop-color="#C3CEED"/>
            <stop offset="1" stop-color="#D5D7ED"/>
        </linearGradient>
        <linearGradient id="paint32_linear" x1="30.116" y1="111.095" x2="1.5529" y2="109.634" gradientUnits="userSpaceOnUse">
            <stop stop-color="#C3CEED"/>
            <stop offset="1" stop-color="#D5D7ED"/>
        </linearGradient>
        <linearGradient id="paint33_linear" x1="59.291" y1="4.89469" x2="45.4922" y2="3.68288" gradientUnits="userSpaceOnUse">
            <stop stop-color="#90B0FF"/>
            <stop offset="0.1375" stop-color="#89ABFD"/>
            <stop offset="0.342" stop-color="#759EF7"/>
            <stop offset="0.5882" stop-color="#5488EE"/>
            <stop offset="0.8645" stop-color="#266AE2"/>
            <stop offset="1" stop-color="#0D5ADB"/>
        </linearGradient>
        <linearGradient id="paint34_linear" x1="76.4934" y1="5.7636" x2="68.026" y2="5.754" gradientUnits="userSpaceOnUse">
            <stop stop-color="#90B0FF"/>
            <stop offset="0.1375" stop-color="#89ABFD"/>
            <stop offset="0.342" stop-color="#759EF7"/>
            <stop offset="0.5882" stop-color="#5488EE"/>
            <stop offset="0.8645" stop-color="#266AE2"/>
            <stop offset="1" stop-color="#0D5ADB"/>
        </linearGradient>
        <linearGradient id="paint35_linear" x1="74.1902" y1="5.39372" x2="68.7177" y2="6.63815" gradientUnits="userSpaceOnUse">
            <stop stop-color="#90B0FF"/>
            <stop offset="0.1375" stop-color="#89ABFD"/>
            <stop offset="0.342" stop-color="#759EF7"/>
            <stop offset="0.5882" stop-color="#5488EE"/>
            <stop offset="0.8645" stop-color="#266AE2"/>
            <stop offset="1" stop-color="#0D5ADB"/>
        </linearGradient>
        <linearGradient id="paint36_linear" x1="60.9684" y1="4.02404" x2="72.3597" y2="13.7937" gradientUnits="userSpaceOnUse">
            <stop stop-color="#90B0FF"/>
            <stop offset="0.1375" stop-color="#89ABFD"/>
            <stop offset="0.342" stop-color="#759EF7"/>
            <stop offset="0.5882" stop-color="#5488EE"/>
            <stop offset="0.8645" stop-color="#266AE2"/>
            <stop offset="1" stop-color="#0D5ADB"/>
        </linearGradient>
        <linearGradient id="paint37_linear" x1="60.4915" y1="4.3546" x2="71.8852" y2="14.1263" gradientUnits="userSpaceOnUse">
            <stop stop-color="#90B0FF"/>
            <stop offset="0.1375" stop-color="#89ABFD"/>
            <stop offset="0.342" stop-color="#759EF7"/>
            <stop offset="0.5882" stop-color="#5488EE"/>
            <stop offset="0.8645" stop-color="#266AE2"/>
            <stop offset="1" stop-color="#0D5ADB"/>
        </linearGradient>
        <linearGradient id="paint38_linear" x1="60.943" y1="3.62007" x2="72.3297" y2="13.3856" gradientUnits="userSpaceOnUse">
            <stop stop-color="#90B0FF"/>
            <stop offset="0.1375" stop-color="#89ABFD"/>
            <stop offset="0.342" stop-color="#759EF7"/>
            <stop offset="0.5882" stop-color="#5488EE"/>
            <stop offset="0.8645" stop-color="#266AE2"/>
            <stop offset="1" stop-color="#0D5ADB"/>
        </linearGradient>
        <linearGradient id="paint39_linear" x1="62.3146" y1="1.84103" x2="73.6461" y2="11.5593" gradientUnits="userSpaceOnUse">
            <stop stop-color="#90B0FF"/>
            <stop offset="0.1375" stop-color="#89ABFD"/>
            <stop offset="0.342" stop-color="#759EF7"/>
            <stop offset="0.5882" stop-color="#5488EE"/>
            <stop offset="0.8645" stop-color="#266AE2"/>
            <stop offset="1" stop-color="#0D5ADB"/>
        </linearGradient>
        <linearGradient id="paint40_linear" x1="63.2287" y1="6.82008" x2="53.049" y2="5.92612" gradientUnits="userSpaceOnUse">
            <stop offset="0.4488" stop-color="white" stop-opacity="0.3"/>
            <stop offset="1" stop-color="white" stop-opacity="0"/>
        </linearGradient>
        <linearGradient id="paint41_linear" x1="49.5028" y1="75.6009" x2="112.527" y2="43.2113" gradientUnits="userSpaceOnUse">
            <stop stop-color="#8598B6"/>
            <stop offset="0.6134" stop-color="#607496"/>
            <stop offset="1" stop-color="#475B80"/>
        </linearGradient>
        <linearGradient id="paint42_linear" x1="94.8943" y1="40.9728" x2="114.742" y2="30.7723" gradientUnits="userSpaceOnUse">
            <stop stop-color="#475B80"/>
            <stop offset="0.6559" stop-color="#2C3D51"/>
            <stop offset="1" stop-color="#21313E"/>
        </linearGradient>
        <linearGradient id="paint43_linear" x1="46.7519" y1="97.8658" x2="85.8991" y2="77.7471" gradientUnits="userSpaceOnUse">
            <stop stop-color="#475B80"/>
            <stop offset="0.6559" stop-color="#2C3D51"/>
            <stop offset="1" stop-color="#21313E"/>
        </linearGradient>
        <linearGradient id="paint44_linear" x1="57.297" y1="49.2082" x2="87.7922" y2="33.536" gradientUnits="userSpaceOnUse">
            <stop stop-color="#475B80"/>
            <stop offset="0.6559" stop-color="#2C3D51"/>
            <stop offset="1" stop-color="#21313E"/>
        </linearGradient>
        <linearGradient id="paint45_linear" x1="118.003" y1="49.6045" x2="118.145" y2="49.5867" gradientUnits="userSpaceOnUse">
            <stop stop-color="#132534"/>
            <stop offset="1" stop-color="#354249"/>
        </linearGradient>
        <linearGradient id="paint46_linear" x1="137.848" y1="10.8831" x2="74.9994" y2="98.7209" gradientUnits="userSpaceOnUse">
            <stop stop-color="#687B99"/>
            <stop offset="0.1381" stop-color="#5F738F"/>
            <stop offset="0.6786" stop-color="#41576B"/>
            <stop offset="0.9671" stop-color="#364C5D"/>
        </linearGradient>
        <linearGradient id="paint47_linear" x1="115.063" y1="34.9763" x2="71.504" y2="109.134" gradientUnits="userSpaceOnUse">
            <stop offset="0.00045606" stop-color="white"/>
            <stop offset="1" stop-color="#CBD4FF"/>
        </linearGradient>
        <linearGradient id="paint48_linear" x1="59.1259" y1="96.0681" x2="90.7363" y2="92.111" gradientUnits="userSpaceOnUse">
            <stop stop-color="#3DB39A"/>
            <stop offset="0.1071" stop-color="#41C9B1"/>
            <stop offset="1" stop-color="#7ACA94"/>
        </linearGradient>
        <linearGradient id="paint49_linear" x1="69.0798" y1="41.2247" x2="89.3099" y2="3.76254" gradientUnits="userSpaceOnUse">
            <stop stop-color="#90B0FF"/>
            <stop offset="0.1375" stop-color="#89ABFD"/>
            <stop offset="0.342" stop-color="#759EF7"/>
            <stop offset="0.5882" stop-color="#5488EE"/>
            <stop offset="0.8645" stop-color="#266AE2"/>
            <stop offset="1" stop-color="#0D5ADB"/>
        </linearGradient>
        <linearGradient id="paint50_linear" x1="125.241" y1="19.5049" x2="131.02" y2="18.3807" gradientUnits="userSpaceOnUse">
            <stop offset="0.1344" stop-color="#E3C76F"/>
            <stop offset="0.276" stop-color="#E3C669"/>
            <stop offset="0.4575" stop-color="#E3C359"/>
            <stop offset="0.6607" stop-color="#E3BE3F"/>
            <stop offset="0.8782" stop-color="#E3B71B"/>
            <stop offset="1" stop-color="#E3B303"/>
        </linearGradient>
        <linearGradient id="paint51_linear" x1="10.6393" y1="23.5732" x2="29.0999" y2="16.8439" gradientUnits="userSpaceOnUse">
            <stop stop-color="#3DB39A"/>
            <stop offset="0.1071" stop-color="#41C9B1"/>
            <stop offset="1" stop-color="#B3E6B9"/>
        </linearGradient>
        <linearGradient id="paint52_linear" x1="37.1992" y1="35.365" x2="45.311" y2="39.5662" gradientUnits="userSpaceOnUse">
            <stop stop-color="#3DB39A"/>
            <stop offset="0.1071" stop-color="#41C9B1"/>
            <stop offset="1" stop-color="#B3E6B9"/>
        </linearGradient>
        <linearGradient id="paint53_linear" x1="22.4867" y1="39.3067" x2="43.409" y2="25.0573" gradientUnits="userSpaceOnUse">
            <stop stop-color="#3DB39A"/>
            <stop offset="0.2751" stop-color="#41C9B1"/>
            <stop offset="1" stop-color="#B3E6B9"/>
        </linearGradient>
        <linearGradient id="paint54_linear" x1="40.9086" y1="47.6064" x2="51.2087" y2="43.8517" gradientUnits="userSpaceOnUse">
            <stop stop-color="#3DB39A"/>
            <stop offset="0.1071" stop-color="#41C9B1"/>
            <stop offset="1" stop-color="#B3E6B9"/>
        </linearGradient>
        <linearGradient id="paint55_linear" x1="13.1867" y1="20.8694" x2="12.7409" y2="21.8059" gradientUnits="userSpaceOnUse">
            <stop stop-color="#3DB39A"/>
            <stop offset="0.1071" stop-color="#41C9B1"/>
            <stop offset="1" stop-color="#7ACA94"/>
        </linearGradient>
        <linearGradient id="paint56_linear" x1="24.3136" y1="34.3267" x2="29.5351" y2="17.9944" gradientUnits="userSpaceOnUse">
            <stop stop-color="#3DB39A"/>
            <stop offset="0.1071" stop-color="#41C9B1"/>
            <stop offset="1" stop-color="#B3E6B9"/>
        </linearGradient>
        <linearGradient id="paint57_linear" x1="12.0978" y1="22.4071" x2="12.9867" y2="21.8696" gradientUnits="userSpaceOnUse">
            <stop stop-color="#3DB39A"/>
            <stop offset="0.1071" stop-color="#41C9B1"/>
            <stop offset="1" stop-color="#7ACA94"/>
        </linearGradient>
        <linearGradient id="paint58_linear" x1="100.717" y1="11.5027" x2="99.4741" y2="22.3854" gradientUnits="userSpaceOnUse">
            <stop stop-color="#CDD4FF"/>
            <stop offset="0.0189902" stop-color="#DCE1FF"/>
            <stop offset="0.050416" stop-color="#F0F2FF"/>
            <stop offset="0.0825432" stop-color="#FBFCFF"/>
            <stop offset="0.1162" stop-color="white"/>
            <stop offset="1" stop-color="#C5CEFF"/>
        </linearGradient>
        <linearGradient id="paint59_linear" x1="120.477" y1="19.2603" x2="135.491" y2="17.0129" gradientUnits="userSpaceOnUse">
            <stop stop-color="#3B9588"/>
            <stop offset="1" stop-color="#22807A"/>
        </linearGradient>
        <linearGradient id="paint60_linear" x1="120.847" y1="18.8473" x2="134.577" y2="16.792" gradientUnits="userSpaceOnUse">
            <stop stop-color="#3B9588"/>
            <stop offset="1" stop-color="#22807A"/>
        </linearGradient>
        <linearGradient id="paint61_linear" x1="119.906" y1="18.4012" x2="134.494" y2="16.2175" gradientUnits="userSpaceOnUse">
            <stop stop-color="#3DB39A"/>
            <stop offset="0.1071" stop-color="#41C9B1"/>
            <stop offset="1" stop-color="#7ACA94"/>
        </linearGradient>
        <linearGradient id="paint62_linear" x1="125.05" y1="16.6268" x2="134.348" y2="15.235" gradientUnits="userSpaceOnUse">
            <stop stop-color="white" stop-opacity="0.3"/>
            <stop offset="1" stop-color="white" stop-opacity="0"/>
        </linearGradient>
        <clipPath id="clip0">
            <rect width="150" height="137" fill="white" transform="translate(0.5)"/>
        </clipPath>
    </defs>
</svg>
