<svg width="151" height="132" viewBox="0 0 151 132" fill="none" xmlns="http://www.w3.org/2000/svg">
    <g clip-path="url(#clip0)">
        <path d="M76.1484 11.1864C76.1484 11.1864 80.4162 26.0867 95.8474 32.3735C97.5545 33.067 99.2841 33.7606 101.014 34.387C111.885 38.4813 122.869 41.6358 128.125 41.3003C128.125 41.3003 128.17 41.3226 128.192 41.3003C129.675 41.1884 130.708 40.808 131.135 40.0474C131.135 40.0474 130.708 39.7565 129.944 39.1525V39.1301C125.879 35.8636 112.155 23.6257 102.294 -0.0224609L76.1484 11.1864Z" fill="#F4F5F8"/>
        <path d="M101.012 34.4095C111.883 38.5038 122.867 41.6583 128.123 41.3228C122.058 40.2041 119.408 33.1343 119.408 33.1343C117.431 35.3492 108.357 35.0807 101.012 34.4095Z" fill="url(#paint0_linear)"/>
        <path d="M77.3828 14.3637L103.528 2.79688" stroke="url(#paint1_linear)" stroke-width="0.1" stroke-miterlimit="10"/>
        <path d="M78.8906 17.2717L104.901 5.79443" stroke="url(#paint2_linear)" stroke-width="0.1" stroke-miterlimit="10"/>
        <path d="M80.6641 20.0905L106.36 8.7251" stroke="url(#paint3_linear)" stroke-width="0.1" stroke-miterlimit="10"/>
        <path d="M82.7305 22.7979L107.933 11.6562" stroke="url(#paint4_linear)" stroke-width="0.1" stroke-miterlimit="10"/>
        <path d="M85.0664 25.3262L109.55 14.5425" stroke="url(#paint5_linear)" stroke-width="0.1" stroke-miterlimit="10"/>
        <path d="M87.8281 27.72L111.278 17.3613" stroke="url(#paint6_linear)" stroke-width="0.1" stroke-miterlimit="10"/>
        <path d="M90.9727 29.9347L113.12 20.1577" stroke="url(#paint7_linear)" stroke-width="0.1" stroke-miterlimit="10"/>
        <path d="M94.6797 31.8812L115.03 22.9097" stroke="url(#paint8_linear)" stroke-width="0.1" stroke-miterlimit="10"/>
        <path d="M117.029 25.6172L98.9248 33.6267H98.9023" stroke="url(#paint9_linear)" stroke-width="0.1" stroke-miterlimit="10"/>
        <path d="M119.161 28.2793L104.605 34.6779" stroke="url(#paint10_linear)" stroke-width="0.1" stroke-miterlimit="10"/>
        <path d="M121.409 30.8745L112.379 34.8569" stroke="url(#paint11_linear)" stroke-width="0.1" stroke-miterlimit="10"/>
        <path d="M123.768 33.4248L120.309 34.9462" stroke="url(#paint12_linear)" stroke-width="0.1" stroke-miterlimit="10"/>
        <path d="M126.285 35.9082L122.242 37.698" stroke="url(#paint13_linear)" stroke-width="0.1" stroke-miterlimit="10"/>
        <path d="M128.934 38.3022L124.98 40.0697" stroke="url(#paint14_linear)" stroke-width="0.1" stroke-miterlimit="10"/>
        <path d="M129.765 41.0093C127.811 39.4656 122.173 34.6554 115.726 26.1761C115.052 25.3259 114.378 24.431 113.705 23.469C113.076 22.5965 112.424 21.6792 111.795 20.7171C111.189 19.8222 110.582 18.8826 109.953 17.9205C109.392 17.0032 108.808 16.0636 108.224 15.0792C107.685 14.1395 107.123 13.1998 106.584 12.2378C106.068 11.2982 105.551 10.3137 105.012 9.30697C104.518 8.34493 104.024 7.36053 103.552 6.35375C103.058 5.39171 102.586 4.38493 102.137 3.37815C101.71 2.46086 101.306 1.54358 100.879 0.581543" stroke="url(#paint15_linear)" stroke-width="0.1" stroke-miterlimit="10"/>
        <path d="M128.127 41.3225C126.061 39.6669 120.602 34.9462 114.358 26.7801C113.707 25.9299 113.033 25.035 112.359 24.073C111.73 23.1781 111.079 22.2832 110.427 21.3211C109.821 20.4262 109.214 19.5089 108.608 18.5245C108.024 17.6296 107.44 16.6676 106.856 15.7055C106.317 14.7659 105.755 13.8262 105.216 12.8642C104.699 11.9245 104.16 10.9625 103.644 9.93334C103.15 8.97131 102.633 7.9869 102.161 6.98012C101.667 6.01809 101.195 5.03368 100.746 4.00453C100.319 3.08724 99.9151 2.14758 99.4883 1.18555" stroke="url(#paint16_linear)" stroke-width="0.1" stroke-miterlimit="10"/>
        <path d="M123.61 39.0852C123.386 38.8839 123.161 38.6825 122.937 38.4588C121.634 37.2283 120.106 35.6846 118.444 33.8276C116.76 32.0154 114.94 29.8676 113.053 27.4066C112.379 26.5564 111.728 25.6391 111.009 24.6995C110.38 23.8269 109.729 22.9096 109.1 21.9476C108.494 21.0751 107.865 20.1354 107.258 19.151C106.674 18.2561 106.09 17.294 105.506 16.332C104.945 15.4147 104.383 14.4527 103.844 13.4907C103.327 12.551 102.811 11.5666 102.272 10.5598C101.755 9.62015 101.261 8.63574 100.789 7.62896C100.317 6.66693 99.8233 5.68252 99.3741 4.65337C98.9473 3.73608 98.5205 2.79642 98.0938 1.81201" stroke="url(#paint17_linear)" stroke-width="0.1" stroke-miterlimit="10"/>
        <path d="M123.881 41.0764C122.286 39.6893 119.86 37.452 116.985 34.3198H116.963C115.323 32.53 113.526 30.4269 111.684 27.9883C111.01 27.1381 110.336 26.2432 109.64 25.3036C109.011 24.4086 108.36 23.5137 107.708 22.5517C107.102 21.6792 106.473 20.7395 105.867 19.7775C105.283 18.8825 104.699 17.9205 104.115 16.9585C103.553 16.0412 102.991 15.0792 102.452 14.0947C101.913 13.1775 101.397 12.1931 100.858 11.1863C100.363 10.2242 99.8468 9.2622 99.3751 8.25543C98.8809 7.29339 98.4092 6.30898 97.96 5.27983C97.5108 4.34017 97.084 3.40051 96.6797 2.43848" stroke="url(#paint18_linear)" stroke-width="0.1" stroke-miterlimit="10"/>
        <path d="M115.388 34.6107C113.815 32.8656 112.108 30.8744 110.334 28.5924C109.66 27.7422 108.986 26.8473 108.29 25.8853C107.638 25.0127 107.009 24.1178 106.358 23.1558C105.729 22.2832 105.122 21.3436 104.494 20.3816C103.932 19.4643 103.326 18.5246 102.742 17.5626C102.18 16.6453 101.618 15.6832 101.079 14.6988C100.54 13.7816 100.001 12.7971 99.4621 11.8127C98.9679 10.8507 98.4513 9.88867 97.9571 8.88189C97.4854 7.91986 96.9913 6.93545 96.542 5.9063C96.1153 4.96664 95.666 4.04935 95.2617 3.06494" stroke="url(#paint19_linear)" stroke-width="0.1" stroke-miterlimit="10"/>
        <path d="M113.704 34.7675C112.221 33.1566 110.649 31.2997 108.987 29.1743C108.313 28.3241 107.639 27.4292 106.943 26.4671H106.92C106.269 25.5946 105.64 24.6997 104.989 23.7376C104.382 22.8427 103.753 21.9254 103.124 20.941C102.54 20.0461 101.956 19.1065 101.372 18.1221C100.811 17.2048 100.249 16.2427 99.6877 15.2583C99.1486 14.341 98.6096 13.3566 98.0705 12.3722C97.5763 11.4102 97.0597 10.4482 96.5655 9.44137C96.0938 8.47934 95.5997 7.49493 95.1504 6.46578C94.7012 5.52612 94.2744 4.56408 93.8477 3.60205" stroke="url(#paint20_linear)" stroke-width="0.1" stroke-miterlimit="10"/>
        <path d="M111.955 34.8569C110.585 33.3579 109.147 31.68 107.642 29.7559C106.968 28.9057 106.272 27.9884 105.576 27.0488C104.924 26.1762 104.295 25.2813 103.644 24.3193C103.038 23.4244 102.409 22.5071 101.78 21.5227C101.196 20.6054 100.589 19.6881 100.028 18.7037C99.4436 17.8088 98.8821 16.8467 98.343 15.8623C97.8039 14.945 97.2648 13.9606 96.7257 12.9762C96.2091 12.0366 95.6925 11.0522 95.1983 10.0454C94.7042 9.10572 94.2325 8.09894 93.7833 7.09216C93.334 6.1525 92.8848 5.19046 92.4805 4.20605" stroke="url(#paint21_linear)" stroke-width="0.1" stroke-miterlimit="10"/>
        <path d="M110.09 34.8792C108.877 33.5368 107.619 32.0155 106.294 30.3599C105.62 29.5097 104.923 28.5924 104.227 27.6528C103.576 26.7802 102.924 25.8853 102.273 24.9233C101.666 24.0284 101.038 23.1111 100.386 22.149C99.8021 21.2318 99.2181 20.2921 98.6116 19.3301C98.0501 18.4128 97.4661 17.4731 96.927 16.4887C96.3879 15.549 95.8488 14.587 95.3097 13.6026C94.8156 12.6406 94.299 11.6785 93.7823 10.6718C93.3106 9.70972 92.8165 8.74769 92.3448 7.71853C91.8955 6.77887 91.4463 5.81684 91.0195 4.81006" stroke="url(#paint22_linear)" stroke-width="0.1" stroke-miterlimit="10"/>
        <path d="M108.223 34.8569C107.168 33.6487 106.09 32.3511 104.966 30.9416C104.27 30.0914 103.574 29.1965 102.9 28.2345C102.249 27.3843 101.597 26.467 100.946 25.5274C100.317 24.6548 99.7104 23.7152 99.059 22.7531C98.475 21.8359 97.8685 20.9186 97.262 19.9565C96.7005 19.0392 96.1389 18.0772 95.5774 17.1152C95.0383 16.1755 94.4992 15.2135 93.9377 14.2291C93.4435 13.267 92.9269 12.305 92.4103 11.2982C91.9161 10.3586 91.4219 9.35178 90.9727 8.345C90.5235 7.40534 90.0518 6.42093 89.625 5.43652" stroke="url(#paint23_linear)" stroke-width="0.1" stroke-miterlimit="10"/>
        <path d="M106.312 34.7898C105.436 33.783 104.538 32.7091 103.617 31.5681C102.943 30.6955 102.224 29.823 101.55 28.8609C100.899 28.0108 100.225 27.0935 99.5737 26.1538C98.9448 25.2813 98.3158 24.364 97.6869 23.402C97.1029 22.4847 96.4964 21.545 95.8899 20.583C95.3059 19.6881 94.7444 18.726 94.2053 17.764C93.6662 16.8243 93.1047 15.8847 92.5656 14.8779C92.049 13.9382 91.5324 12.9538 91.0382 11.9471C90.544 11.0074 90.0499 10.0006 89.5782 8.99383C89.1065 8.0318 88.6797 7.06977 88.2305 6.06299" stroke="url(#paint24_linear)" stroke-width="0.1" stroke-miterlimit="10"/>
        <path d="M104.408 34.6778C103.712 33.8948 103.015 33.0446 102.297 32.1497C101.6 31.2995 100.904 30.4046 100.208 29.465C99.5562 28.5924 98.8823 27.6975 98.2309 26.7578C97.602 25.8853 96.9731 24.968 96.3441 24.006C95.7601 23.0887 95.1536 22.1714 94.5247 21.187C93.9632 20.2697 93.3792 19.33 92.8176 18.3456C92.2785 17.406 91.7395 16.4439 91.1779 15.4595C90.6613 14.5199 90.1447 13.5355 89.6505 12.5511C89.1563 11.6114 88.6622 10.6046 88.1905 9.59784C87.7188 8.63581 87.2695 7.6514 86.8203 6.66699" stroke="url(#paint25_linear)" stroke-width="0.1" stroke-miterlimit="10"/>
        <path d="M102.405 34.5434C101.933 33.9841 101.417 33.3577 100.922 32.7536C100.249 31.8811 99.5299 31.0085 98.8335 30.0689C98.1821 29.1963 97.5083 28.3014 96.8569 27.3618C96.228 26.4668 95.599 25.5496 94.9476 24.5875C94.3412 23.6926 93.7572 22.7529 93.1282 21.7685C92.5442 20.8736 91.9827 19.9116 91.4211 18.9496C90.8821 18.0099 90.343 17.0479 89.7814 16.0635C89.2648 15.1238 88.7482 14.1618 88.2316 13.155C87.7374 12.1929 87.2432 11.2085 86.7715 10.2018C86.2998 9.23972 85.8281 8.23294 85.3789 7.24854" stroke="url(#paint26_linear)" stroke-width="0.1" stroke-miterlimit="10"/>
        <path d="M100.226 34.1182C100.002 33.8497 99.7994 33.6036 99.5748 33.3128C98.8785 32.4626 98.1822 31.5901 97.4634 30.628C96.812 29.7555 96.1382 28.8606 95.4643 27.9209C94.8354 27.026 94.2065 26.1087 93.5551 25.1691C92.9711 24.2518 92.3646 23.3345 91.7357 22.3501C91.1517 21.4552 90.5901 20.5155 90.0286 19.5311C89.4895 18.5914 88.9279 17.6518 88.3664 16.645C87.8498 15.7277 87.3331 14.7433 86.8165 13.7365C86.2999 12.7969 85.8057 11.8125 85.334 10.8057C84.8623 9.84364 84.3906 8.83686 83.9414 7.83008" stroke="url(#paint27_linear)" stroke-width="0.1" stroke-miterlimit="10"/>
        <path d="M97.6012 33.0894C97.107 32.5077 96.6353 31.8813 96.1412 31.2325C95.4673 30.3823 94.8159 29.4874 94.1421 28.5253C93.5131 27.6304 92.8842 26.7131 92.2103 25.7735C91.6263 24.8562 91.0199 23.9389 90.3909 22.9545C89.8069 22.0596 89.2454 21.1199 88.6838 20.1355C88.1223 19.2182 87.5832 18.2562 86.9992 17.2494C86.4826 16.3097 85.966 15.3477 85.4493 14.3409C84.9552 13.3789 84.461 12.3945 83.9893 11.3877C83.4952 10.4257 83.0235 9.41889 82.5742 8.41211" stroke="url(#paint28_linear)" stroke-width="0.1" stroke-miterlimit="10"/>
        <path d="M94.9029 31.9932C94.858 31.9261 94.8355 31.9038 94.7906 31.8366C94.1392 30.9865 93.4653 30.0915 92.7915 29.1295C92.1401 28.257 91.5111 27.3397 90.8373 26.3776C90.2533 25.4604 89.6468 24.5431 89.0179 23.5587C88.4339 22.6638 87.8499 21.7241 87.2883 20.7397C86.7268 19.8224 86.1877 18.8604 85.6037 17.876C85.1095 16.9139 84.5704 15.9519 84.0538 14.9675C83.5372 14.0278 83.043 13.0434 82.5713 12.0366C82.0996 11.0746 81.6279 10.0678 81.1562 9.06104" stroke="url(#paint29_linear)" stroke-width="0.1" stroke-miterlimit="10"/>
        <path d="M92.0288 30.5389C91.8266 30.2705 91.6245 30.002 91.4223 29.7111C90.7934 28.8162 90.142 27.9213 89.4906 26.9816C88.9066 26.0644 88.2777 25.1471 87.6712 24.1627C87.0872 23.2678 86.5032 22.3281 85.9416 21.3661C85.3801 20.4264 84.841 19.4867 84.257 18.5023C83.7404 17.5627 83.2238 16.5783 82.6847 15.5715C82.1681 14.6318 81.6739 13.6698 81.1797 12.663C80.7081 11.6786 80.2363 10.6942 79.7422 9.66504" stroke="url(#paint30_linear)" stroke-width="0.1" stroke-miterlimit="10"/>
        <path d="M88.7064 28.391L88.684 28.3686C88.5043 28.1001 88.3471 27.854 88.1449 27.5632C87.516 26.6906 86.9095 25.751 86.2806 24.7666C85.6966 23.8717 85.1126 22.932 84.551 21.97C83.9895 21.0303 83.4504 20.0906 82.8664 19.0839C82.3273 18.1666 81.8107 17.2045 81.2941 16.1978C80.7999 15.2357 80.2833 14.2737 79.7891 13.2669C79.295 12.2825 78.8008 11.2757 78.3516 10.2466" stroke="url(#paint31_linear)" stroke-width="0.1" stroke-miterlimit="10"/>
        <path d="M84.5472 24.8113L84.5247 24.7889C84.053 24.073 83.6038 23.3347 83.1545 22.574C82.593 21.6567 82.0314 20.6947 81.4699 19.7102C80.9308 18.793 80.3917 17.8085 79.8751 16.8241C79.381 15.8621 78.8643 14.9001 78.3702 13.8933C77.876 12.9089 77.3819 11.9021 76.9102 10.8506" stroke="url(#paint32_linear)" stroke-width="0.1" stroke-miterlimit="10"/>
        <path d="M150.502 94.2344C150.502 94.2344 126.199 130.769 123.661 131.91C123.593 131.933 123.458 131.955 123.279 131.977C122.852 132 122.111 131.977 121.145 131.888C118.719 131.709 114.698 131.194 109.689 130.501C87.1377 127.324 44.6175 119.851 37.25 116.786C37.25 116.786 67.3039 114.929 81.9715 98.9775C96.639 83.048 97.8744 77.4995 97.8744 77.4995C97.8744 77.4995 108.162 90.9456 150.502 94.2344Z" fill="#F4F5F8"/>
        <path d="M122.087 131.776C121.953 131.776 121.638 131.821 121.121 131.91C118.696 131.731 114.675 131.217 109.666 130.523C87.1143 127.346 44.594 119.874 37.2266 116.809C56.4539 120.187 92.7073 111.215 92.7073 111.215C100.546 121.887 114.001 128.532 122.087 131.776Z" fill="url(#paint33_linear)"/>
        <path d="M122.084 78.2827C122.084 78.2827 122.713 81.6833 116.109 86.5159C109.505 91.3484 74.0606 116.675 68.2205 114.169C62.3805 111.663 20.8037 75.1057 25.9474 59.6013C31.0912 44.0969 73.9708 41.8149 79.6761 43.1349C85.3814 44.4549 122.084 78.2827 122.084 78.2827Z" fill="url(#paint34_radial)"/>
        <path d="M113.123 76.2466C112.224 76.8731 111.191 77.3653 110.068 77.6338L106.968 78.3721L70.1309 86.9856L69.9962 86.7843L69.9512 87.0304L65.1669 88.149C60.7419 89.1782 56.272 86.6724 54.8794 82.3768L41.5595 41.5015L40.6835 38.7944C40.3915 37.8548 40.2343 36.9151 40.2567 35.9978C40.2792 34.6778 40.5937 33.3802 41.1777 32.2168L37.6062 38.9958L37.5388 39.13C37.5164 39.1748 37.4939 39.1971 37.4939 39.2419C36.5281 41.1883 36.281 43.5151 37.0222 45.7748L51.2181 89.3571C52.6107 93.6527 57.1031 96.1809 61.5056 95.1293L68.918 93.3843L74.3538 101.416L78.599 91.1022L106.384 84.5917C108.608 84.0771 110.427 82.7348 111.618 80.9897V80.9673L112.494 79.3341L115.459 73.7409C114.875 74.7253 114.066 75.5754 113.123 76.2466Z" fill="#971A4E"/>
        <path d="M113.123 76.2468C112.225 76.8733 111.191 77.3655 110.068 77.6339L106.969 78.3722L65.1896 88.1716C60.7646 89.2007 56.2947 86.695 54.9021 82.3994L41.5822 41.5241L40.7062 38.817C40.4142 37.8773 40.257 36.9377 40.2795 36.0204C41.1779 35.394 42.2112 34.9017 43.3343 34.6333L44.8392 34.2753L88.213 24.0957C92.638 23.0665 97.1079 25.5723 98.5005 29.8679L112.202 71.9289L112.696 73.4726C112.988 74.3899 113.123 75.3295 113.123 76.2468Z" fill="url(#paint35_linear)"/>
        <path d="M116.358 66.4922L115.212 62.9573L102.162 22.9099C100.769 18.6143 96.2768 16.0861 91.8743 17.1377L49.062 27.1831L46.9955 27.6753C44.3675 28.3017 42.301 30.0244 41.2004 32.2393C40.6164 33.4027 40.2795 34.678 40.2795 36.0204C40.257 36.9376 40.4142 37.8997 40.7062 38.817L41.5822 41.5241L54.9021 82.3993C56.2947 86.6949 60.7871 89.2231 65.1896 88.1715L70.1537 87.0081L75.567 94.9953L79.7898 84.7485L106.991 78.3722L110.091 77.6339C111.236 77.3654 112.27 76.8956 113.146 76.2468C114.089 75.5756 114.898 74.7254 115.504 73.741C116.762 71.6603 117.189 69.0203 116.358 66.4922Z" fill="#D02265"/>
        <path d="M115.189 62.9572L49.0391 27.1606L91.8513 17.1152C96.2763 16.086 100.746 18.5918 102.139 22.8874L115.189 62.9572Z" fill="url(#paint36_linear)"/>
        <path d="M95.1518 58.1246L82.7978 51.4799L88.7052 41.1436C89.2892 40.1368 88.9299 38.8616 87.9191 38.2799C86.9083 37.6982 85.628 38.0561 85.044 39.0629L79.114 49.4887L67.2991 43.1348C66.2659 42.5755 64.9856 42.9558 64.4465 43.985C63.8849 45.0141 64.2668 46.2894 65.3 46.8263L77.0251 53.1355L70.7133 64.2324C70.1293 65.2392 70.4887 66.5145 71.4995 67.0961C71.9038 67.3199 72.353 67.4094 72.7798 67.3646C73.4312 67.2975 74.0377 66.9172 74.3746 66.3131L80.7313 55.149L93.1751 61.8385C93.5795 62.0399 94.0062 62.1294 94.4105 62.0846C95.0844 62.0175 95.6909 61.6148 96.0278 60.9883C96.5669 59.9592 96.185 58.6839 95.1518 58.1246Z" fill="white"/>
        <path opacity="0.3" d="M129.611 78.5735C130.281 78.5735 130.824 78.2529 130.824 77.8575C130.824 77.4621 130.281 77.1416 129.611 77.1416C128.941 77.1416 128.398 77.4621 128.398 77.8575C128.398 78.2529 128.941 78.5735 129.611 78.5735Z" fill="#D02265"/>
        <path d="M117.2 107.091C117.346 106.697 116.481 106.019 115.27 105.577C114.058 105.135 112.958 105.096 112.813 105.491C112.668 105.885 113.533 106.563 114.744 107.005C115.956 107.447 117.055 107.486 117.2 107.091Z" fill="#D9D5E5"/>
        <path d="M0.5 28.1899L6.09299 25.4604L19.8621 42.3967L15.1451 44.6788L0.5 28.1899ZM17.3464 47.6991L22.5575 45.171L25.8819 49.0862L20.6707 51.6144L17.3464 47.6991Z" fill="url(#paint37_linear)"/>
        <path d="M0.925781 26.2437L6.51877 23.5142L20.2879 40.4504L15.5709 42.7325L0.925781 26.2437ZM17.7721 45.7528L22.9833 43.2247L26.3076 47.1399L21.0965 49.6681L17.7721 45.7528Z" fill="url(#paint38_linear)"/>
        <path d="M0.926775 26.2437L0.5 28.1901L15.1676 44.7013L19.8621 42.3969L20.2889 40.4728L15.5719 42.7548L0.926775 26.2437Z" fill="url(#paint39_linear)"/>
        <path d="M17.7705 45.7529L17.3438 47.6994L20.6681 51.6146L25.8792 49.0641L26.306 47.1177L21.0949 49.6682L17.7705 45.7529Z" fill="url(#paint40_linear)"/>
        <path d="M5.48828 64.9257L8.25109 62.062L20.5826 69.4674L18.2466 71.8613L5.48828 64.9257ZM20.2906 73.2261L22.8737 70.5413L25.7938 72.2193L23.2107 74.904L20.2906 73.2261Z" fill="url(#paint41_linear)"/>
        <path d="M5.28516 63.6284L8.04796 60.7646L20.3795 68.1701L18.0659 70.5863L5.28516 63.6284ZM20.0875 71.9511L22.6706 69.2663L25.5906 70.9443L23.0075 73.6291L20.0875 71.9511Z" fill="url(#paint42_linear)"/>
        <path d="M5.28516 63.6284L5.48731 64.926L18.2456 71.8616L20.5817 69.4454L20.3795 68.1701L18.0435 70.5864L5.28516 63.6284Z" fill="url(#paint43_linear)"/>
        <path d="M20.0898 71.9511L20.292 73.2264L23.212 74.9043L25.7951 72.2196L25.593 70.9443L23.0099 73.6291L20.0898 71.9511Z" fill="url(#paint44_linear)"/>
        <g opacity="0.5">
            <path opacity="0.5" d="M131.025 64.3665L129.609 66.2235L127.273 63.5387L128.846 61.8384L131.025 64.3665Z" fill="#A2AEE2"/>
            <path opacity="0.5" d="M127.452 67.4315L129.609 66.2233L127.273 63.5386L125.273 64.9257L127.452 67.4315Z" fill="url(#paint45_linear)"/>
            <path opacity="0.5" d="M128.845 61.8384L126.913 63.1136L125.273 64.9258L127.273 63.5387L128.845 61.8384Z" fill="#E9EAF0"/>
        </g>
    </g>
    <defs>
        <linearGradient id="paint0_linear" x1="113.804" y1="40.6108" x2="115.817" y2="33.4067" gradientUnits="userSpaceOnUse">
            <stop stop-color="#C3CEED"/>
            <stop offset="0.0511614" stop-color="#C5D0ED"/>
            <stop offset="1" stop-color="#E5ECF1"/>
        </linearGradient>
        <linearGradient id="paint1_linear" x1="100.582" y1="11.8509" x2="80.3295" y2="5.26138" gradientUnits="userSpaceOnUse">
            <stop stop-color="#C3CEED"/>
            <stop offset="1" stop-color="#D5D7ED"/>
        </linearGradient>
        <linearGradient id="paint2_linear" x1="101.976" y1="14.7892" x2="81.8268" y2="8.23309" gradientUnits="userSpaceOnUse">
            <stop stop-color="#C3CEED"/>
            <stop offset="1" stop-color="#D5D7ED"/>
        </linearGradient>
        <linearGradient id="paint3_linear" x1="103.474" y1="17.6303" x2="83.5646" y2="11.1522" gradientUnits="userSpaceOnUse">
            <stop stop-color="#C3CEED"/>
            <stop offset="1" stop-color="#D5D7ED"/>
        </linearGradient>
        <linearGradient id="paint4_linear" x1="105.098" y1="20.3801" x2="85.5648" y2="14.0247" gradientUnits="userSpaceOnUse">
            <stop stop-color="#C3CEED"/>
            <stop offset="1" stop-color="#D5D7ED"/>
        </linearGradient>
        <linearGradient id="paint5_linear" x1="106.803" y1="22.9958" x2="87.8349" y2="16.8242" gradientUnits="userSpaceOnUse">
            <stop stop-color="#C3CEED"/>
            <stop offset="1" stop-color="#D5D7ED"/>
        </linearGradient>
        <linearGradient id="paint6_linear" x1="108.645" y1="25.4767" x2="90.4821" y2="19.5669" gradientUnits="userSpaceOnUse">
            <stop stop-color="#C3CEED"/>
            <stop offset="1" stop-color="#D5D7ED"/>
        </linearGradient>
        <linearGradient id="paint7_linear" x1="110.63" y1="27.8145" x2="93.4769" y2="22.2334" gradientUnits="userSpaceOnUse">
            <stop stop-color="#C3CEED"/>
            <stop offset="1" stop-color="#D5D7ED"/>
        </linearGradient>
        <linearGradient id="paint8_linear" x1="112.742" y1="29.9388" x2="96.9758" y2="24.8089" gradientUnits="userSpaceOnUse">
            <stop stop-color="#C3CEED"/>
            <stop offset="1" stop-color="#D5D7ED"/>
        </linearGradient>
        <linearGradient id="paint9_linear" x1="115.005" y1="31.8877" x2="100.958" y2="27.3172" gradientUnits="userSpaceOnUse">
            <stop stop-color="#C3CEED"/>
            <stop offset="1" stop-color="#D5D7ED"/>
        </linearGradient>
        <linearGradient id="paint10_linear" x1="117.533" y1="33.3061" x2="106.252" y2="29.6358" gradientUnits="userSpaceOnUse">
            <stop stop-color="#C3CEED"/>
            <stop offset="1" stop-color="#D5D7ED"/>
        </linearGradient>
        <linearGradient id="paint11_linear" x1="120.394" y1="34.0028" x2="113.394" y2="31.7253" gradientUnits="userSpaceOnUse">
            <stop stop-color="#C3CEED"/>
            <stop offset="1" stop-color="#D5D7ED"/>
        </linearGradient>
        <linearGradient id="paint12_linear" x1="123.393" y1="34.6216" x2="120.691" y2="33.7424" gradientUnits="userSpaceOnUse">
            <stop stop-color="#C3CEED"/>
            <stop offset="1" stop-color="#D5D7ED"/>
        </linearGradient>
        <linearGradient id="paint13_linear" x1="125.833" y1="37.3133" x2="122.685" y2="36.2892" gradientUnits="userSpaceOnUse">
            <stop stop-color="#C3CEED"/>
            <stop offset="1" stop-color="#D5D7ED"/>
        </linearGradient>
        <linearGradient id="paint14_linear" x1="128.502" y1="39.694" x2="125.423" y2="38.6922" gradientUnits="userSpaceOnUse">
            <stop stop-color="#C3CEED"/>
            <stop offset="1" stop-color="#D5D7ED"/>
        </linearGradient>
        <linearGradient id="paint15_linear" x1="134.35" y1="26.9483" x2="96.3445" y2="14.5825" gradientUnits="userSpaceOnUse">
            <stop stop-color="#C3CEED"/>
            <stop offset="1" stop-color="#D5D7ED"/>
        </linearGradient>
        <linearGradient id="paint16_linear" x1="132.682" y1="27.3526" x2="94.972" y2="15.0828" gradientUnits="userSpaceOnUse">
            <stop stop-color="#C3CEED"/>
            <stop offset="1" stop-color="#D5D7ED"/>
        </linearGradient>
        <linearGradient id="paint17_linear" x1="127.88" y1="25.944" x2="93.8292" y2="14.8649" gradientUnits="userSpaceOnUse">
            <stop stop-color="#C3CEED"/>
            <stop offset="1" stop-color="#D5D7ED"/>
        </linearGradient>
        <linearGradient id="paint18_linear" x1="128.284" y1="27.5548" x2="92.2991" y2="15.8462" gradientUnits="userSpaceOnUse">
            <stop stop-color="#C3CEED"/>
            <stop offset="1" stop-color="#D5D7ED"/>
        </linearGradient>
        <linearGradient id="paint19_linear" x1="119.096" y1="23.2598" x2="91.5848" y2="14.3085" gradientUnits="userSpaceOnUse">
            <stop stop-color="#C3CEED"/>
            <stop offset="1" stop-color="#D5D7ED"/>
        </linearGradient>
        <linearGradient id="paint20_linear" x1="117.345" y1="23.5808" x2="90.2279" y2="14.7577" gradientUnits="userSpaceOnUse">
            <stop stop-color="#C3CEED"/>
            <stop offset="1" stop-color="#D5D7ED"/>
        </linearGradient>
        <linearGradient id="paint21_linear" x1="115.536" y1="23.854" x2="88.8812" y2="15.1813" gradientUnits="userSpaceOnUse">
            <stop stop-color="#C3CEED"/>
            <stop offset="1" stop-color="#D5D7ED"/>
        </linearGradient>
        <linearGradient id="paint22_linear" x1="113.609" y1="24.0714" x2="87.519" y2="15.5825" gradientUnits="userSpaceOnUse">
            <stop stop-color="#C3CEED"/>
            <stop offset="1" stop-color="#D5D7ED"/>
        </linearGradient>
        <linearGradient id="paint23_linear" x1="111.667" y1="24.2747" x2="86.1758" y2="15.9808" gradientUnits="userSpaceOnUse">
            <stop stop-color="#C3CEED"/>
            <stop offset="1" stop-color="#D5D7ED"/>
        </linearGradient>
        <linearGradient id="paint24_linear" x1="109.684" y1="24.4274" x2="84.8437" y2="16.3451" gradientUnits="userSpaceOnUse">
            <stop stop-color="#C3CEED"/>
            <stop offset="1" stop-color="#D5D7ED"/>
        </linearGradient>
        <linearGradient id="paint25_linear" x1="107.688" y1="24.5648" x2="83.5208" y2="16.7017" gradientUnits="userSpaceOnUse">
            <stop stop-color="#C3CEED"/>
            <stop offset="1" stop-color="#D5D7ED"/>
        </linearGradient>
        <linearGradient id="paint26_linear" x1="105.626" y1="24.6822" x2="82.1724" y2="17.0511" gradientUnits="userSpaceOnUse">
            <stop stop-color="#C3CEED"/>
            <stop offset="1" stop-color="#D5D7ED"/>
        </linearGradient>
        <linearGradient id="paint27_linear" x1="103.332" y1="24.6121" x2="80.8947" y2="17.3116" gradientUnits="userSpaceOnUse">
            <stop stop-color="#C3CEED"/>
            <stop offset="1" stop-color="#D5D7ED"/>
        </linearGradient>
        <linearGradient id="paint28_linear" x1="100.517" y1="24.1366" x2="79.6722" y2="17.3542" gradientUnits="userSpaceOnUse">
            <stop stop-color="#C3CEED"/>
            <stop offset="1" stop-color="#D5D7ED"/>
        </linearGradient>
        <linearGradient id="paint29_linear" x1="97.6137" y1="23.6246" x2="78.4466" y2="17.3882" gradientUnits="userSpaceOnUse">
            <stop stop-color="#C3CEED"/>
            <stop offset="1" stop-color="#D5D7ED"/>
        </linearGradient>
        <linearGradient id="paint30_linear" x1="94.5252" y1="22.8996" x2="77.2693" y2="17.285" gradientUnits="userSpaceOnUse">
            <stop stop-color="#C3CEED"/>
            <stop offset="1" stop-color="#D5D7ED"/>
        </linearGradient>
        <linearGradient id="paint31_linear" x1="90.8844" y1="21.7042" x2="76.1784" y2="16.9193" gradientUnits="userSpaceOnUse">
            <stop stop-color="#C3CEED"/>
            <stop offset="1" stop-color="#D5D7ED"/>
        </linearGradient>
        <linearGradient id="paint32_linear" x1="86.2578" y1="19.6178" x2="75.2501" y2="16.0362" gradientUnits="userSpaceOnUse">
            <stop stop-color="#C3CEED"/>
            <stop offset="1" stop-color="#D5D7ED"/>
        </linearGradient>
        <linearGradient id="paint33_linear" x1="79.4106" y1="127.183" x2="80.4647" y2="115.118" gradientUnits="userSpaceOnUse">
            <stop stop-color="#C3CEED"/>
            <stop offset="0.0511614" stop-color="#C5D0ED"/>
            <stop offset="1" stop-color="#E5ECF1"/>
        </linearGradient>
        <radialGradient id="paint34_radial" cx="0" cy="0" r="1" gradientUnits="userSpaceOnUse" gradientTransform="translate(72.0816 78.2296) rotate(-167.83) scale(35.7376 31.6459)">
            <stop stop-color="#BFCCD2" stop-opacity="0.7"/>
            <stop offset="0.1994" stop-color="#9BB1B7" stop-opacity="0.5604"/>
            <stop offset="0.4201" stop-color="#7A989F" stop-opacity="0.4059"/>
            <stop offset="0.6324" stop-color="#63868E" stop-opacity="0.2573"/>
            <stop offset="0.8304" stop-color="#557C84" stop-opacity="0.1187"/>
            <stop offset="1" stop-color="#507880" stop-opacity="0"/>
        </radialGradient>
        <linearGradient id="paint35_linear" x1="73.5308" y1="54.0353" x2="84.5797" y2="61.3933" gradientUnits="userSpaceOnUse">
            <stop stop-color="#3B9588"/>
            <stop offset="1" stop-color="#22807A"/>
        </linearGradient>
        <linearGradient id="paint36_linear" x1="80.5921" y1="-4.56909" x2="84.4424" y2="121.643" gradientUnits="userSpaceOnUse">
            <stop stop-color="white" stop-opacity="0.3"/>
            <stop offset="1" stop-color="white" stop-opacity="0"/>
        </linearGradient>
        <linearGradient id="paint37_linear" x1="7.06223" y1="41.5749" x2="19.281" y2="35.5884" gradientUnits="userSpaceOnUse">
            <stop stop-color="#475B80"/>
            <stop offset="0.6559" stop-color="#2C3D51"/>
            <stop offset="1" stop-color="#21313E"/>
        </linearGradient>
        <linearGradient id="paint38_linear" x1="7.48443" y1="39.6328" x2="19.7032" y2="33.6463" gradientUnits="userSpaceOnUse">
            <stop stop-color="#687B99"/>
            <stop offset="0.1381" stop-color="#5F738F"/>
            <stop offset="0.6786" stop-color="#41576B"/>
            <stop offset="0.9671" stop-color="#364C5D"/>
        </linearGradient>
        <linearGradient id="paint39_linear" x1="4.82137" y1="37.0013" x2="15.9315" y2="31.558" gradientUnits="userSpaceOnUse">
            <stop stop-color="#475B80"/>
            <stop offset="0.6559" stop-color="#2C3D51"/>
            <stop offset="1" stop-color="#21313E"/>
        </linearGradient>
        <linearGradient id="paint40_linear" x1="14.9031" y1="46.5077" x2="23.6132" y2="48.0703" gradientUnits="userSpaceOnUse">
            <stop stop-color="#475B80"/>
            <stop offset="0.6559" stop-color="#2C3D51"/>
            <stop offset="1" stop-color="#21313E"/>
        </linearGradient>
        <linearGradient id="paint41_linear" x1="12.63" y1="71.6867" x2="18.6448" y2="65.3782" gradientUnits="userSpaceOnUse">
            <stop stop-color="#475B80"/>
            <stop offset="0.6559" stop-color="#2C3D51"/>
            <stop offset="1" stop-color="#21313E"/>
        </linearGradient>
        <linearGradient id="paint42_linear" x1="16.4337" y1="57.6891" x2="18.9714" y2="32.9449" gradientUnits="userSpaceOnUse">
            <stop stop-color="#687B99"/>
            <stop offset="0.1381" stop-color="#5F738F"/>
            <stop offset="0.6786" stop-color="#41576B"/>
            <stop offset="0.9671" stop-color="#364C5D"/>
        </linearGradient>
        <linearGradient id="paint43_linear" x1="10.197" y1="69.3682" x2="15.6661" y2="63.6321" gradientUnits="userSpaceOnUse">
            <stop stop-color="#475B80"/>
            <stop offset="0.6559" stop-color="#2C3D51"/>
            <stop offset="1" stop-color="#21313E"/>
        </linearGradient>
        <linearGradient id="paint44_linear" x1="18.5501" y1="73.0167" x2="24.1756" y2="71.9356" gradientUnits="userSpaceOnUse">
            <stop stop-color="#475B80"/>
            <stop offset="0.6559" stop-color="#2C3D51"/>
            <stop offset="1" stop-color="#21313E"/>
        </linearGradient>
        <linearGradient id="paint45_linear" x1="125.264" y1="65.4896" x2="129.606" y2="65.4896" gradientUnits="userSpaceOnUse">
            <stop stop-color="#132534"/>
            <stop offset="0.06082" stop-color="#1C2B3D"/>
            <stop offset="0.2457" stop-color="#313853"/>
            <stop offset="0.4479" stop-color="#3F4263"/>
            <stop offset="0.6786" stop-color="#48476C"/>
            <stop offset="1" stop-color="#4B496F"/>
        </linearGradient>
        <clipPath id="clip0">
            <rect width="150" height="132" fill="white" transform="translate(0.5)"/>
        </clipPath>
    </defs>
</svg>
