<?xml version="1.0" encoding="utf-8"?>
<!-- Generator: Adobe Illustrator 26.0.3, SVG Export Plug-In . SVG Version: 6.00 Build 0)  -->
<svg version="1.1" id="Layer_1" xmlns="http://www.w3.org/2000/svg" xmlns:xlink="http://www.w3.org/1999/xlink" x="0px" y="0px"
	 viewBox="0 0 131 207" style="enable-background:new 0 0 131 207;" xml:space="preserve">
<style type="text/css">
	.st0{clip-path:url(#SVGID_00000123424782259477997020000010431332431839042976_);}
	.st1{fill:#F4F5F8;}
	.st2{fill:url(#SVGID_00000090987855870434512430000004993712882504874172_);}
	.st3{fill:none;stroke:url(#SVGID_00000110434136485727382450000014123569061294119304_);stroke-width:0.1;stroke-miterlimit:10;}
	.st4{fill:none;stroke:url(#SVGID_00000093882217631427789550000011812817447759245961_);stroke-width:0.1;stroke-miterlimit:10;}
	.st5{fill:none;stroke:url(#SVGID_00000018232389886349943920000001663270353595270810_);stroke-width:0.1;stroke-miterlimit:10;}
	.st6{fill:none;stroke:url(#SVGID_00000105401199991925935680000008377333165760641927_);stroke-width:0.1;stroke-miterlimit:10;}
	.st7{fill:none;stroke:url(#SVGID_00000070079318444781570420000010414621059909591178_);stroke-width:0.1;stroke-miterlimit:10;}
	.st8{fill:none;stroke:url(#SVGID_00000167390512017526239960000006704695238933406352_);stroke-width:0.1;stroke-miterlimit:10;}
	.st9{fill:none;stroke:url(#SVGID_00000170979231556502676050000014474367158675627167_);stroke-width:0.1;stroke-miterlimit:10;}
	.st10{fill:none;stroke:url(#SVGID_00000056389492743476587260000012603090774001550981_);stroke-width:0.1;stroke-miterlimit:10;}
	.st11{fill:none;stroke:url(#SVGID_00000168079181851411797590000014204510111084498343_);stroke-width:0.1;stroke-miterlimit:10;}
	.st12{fill:none;stroke:#BFC8D6;stroke-width:0.5;stroke-linecap:round;stroke-linejoin:round;stroke-miterlimit:10;}
	.st13{fill:url(#SVGID_00000078745066869032212230000004667913738831626930_);}
	.st14{fill:url(#SVGID_00000168085678012256563100000009557959749760879776_);}
	.st15{fill:url(#SVGID_00000162313662802546169060000007551810514921443759_);}
	.st16{opacity:0.2;fill:url(#SVGID_00000155833552301310121980000014040471016667812486_);enable-background:new    ;}
	.st17{fill:#FFFFFF;}
	.st18{fill:#DEE7FC;}
	.st19{fill:url(#SVGID_00000124855007284560770960000005387888335224825753_);}
	.st20{fill:url(#SVGID_00000069391360422775280960000001921814672374344638_);}
	.st21{fill:url(#SVGID_00000085237088823378374180000008491441062204804279_);}
	.st22{fill:url(#SVGID_00000033359802133489932640000002204077139972316849_);}
	.st23{fill:url(#SVGID_00000082331592590382482510000009853430505231634610_);}
	.st24{fill:url(#SVGID_00000118396993391540379150000003129883682274207635_);}
	.st25{fill:url(#SVGID_00000114785062726271356770000007666983850147113657_);}
	.st26{fill:url(#SVGID_00000146466625978156709480000004993409847804578956_);}
	.st27{fill:url(#SVGID_00000168801103413487082470000006068479714623497631_);}
	.st28{fill:url(#SVGID_00000085216326665082898250000013703935610140585639_);}
	.st29{opacity:0.4;fill:url(#SVGID_00000047777703853230574230000002227052435036840601_);enable-background:new    ;}
	.st30{fill:url(#SVGID_00000029032838414383023600000000691875350459568536_);}
	.st31{fill:url(#SVGID_00000083790203730726635920000009646481924069338002_);}
	.st32{fill:url(#SVGID_00000041262467494386191540000002940129306717325726_);}
	.st33{fill:none;}
	.st34{fill:url(#SVGID_00000067940212107345437640000015819734297104364472_);}
	.st35{fill:url(#SVGID_00000129897286593669593550000013573873411677441463_);}
	.st36{fill:url(#SVGID_00000142867831503224706410000013644441647062594214_);}
	.st37{fill:#971A4E;}
	.st38{fill:url(#SVGID_00000145743425581595694570000004460868380269481917_);}
	.st39{fill:#D02265;}
	.st40{fill:url(#SVGID_00000066496642296756152360000000402179901267619466_);}
	.st41{fill:url(#SVGID_00000161603626108580962360000013866979072751736734_);}
	.st42{fill:url(#SVGID_00000178180604761835139910000002874332194394701955_);}
	.st43{fill:url(#SVGID_00000089545773673829580680000009183141592713983134_);}
	.st44{fill:url(#SVGID_00000139291904127611596090000015467347617413968782_);}
	.st45{fill:url(#SVGID_00000016786954779384124660000018384904349564925078_);}
	.st46{fill:#41C9B1;}
	.st47{fill:url(#SVGID_00000111899686733369072600000016574225924912103083_);}
	.st48{fill:url(#SVGID_00000144335235967109074050000015687819549624488877_);}
	.st49{fill:url(#SVGID_00000135669495346099512700000014097664941402893461_);}
	.st50{fill:url(#SVGID_00000010292019114596542120000011529116042536587934_);}
</style>
<g>
	<defs>
		<rect id="SVGID_1_" x="0.5" y="0.5" width="130" height="206"/>
	</defs>
	<clipPath id="SVGID_00000181773603015962767320000001595407189333508762_">
		<use xlink:href="#SVGID_1_"  style="overflow:visible;"/>
	</clipPath>
	<g style="clip-path:url(#SVGID_00000181773603015962767320000001595407189333508762_);">
		<path class="st1" d="M68.7,0.5c0,0-41.1,12-56.6,4.9c0,0-5,21.2,41.2,49.9c11.9,1.3,26.1-1.3,36.7-3.9
			C81.6,37.5,73.3,20.1,68.7,0.5z"/>
		
			<linearGradient id="SVGID_00000162329065706992657650000000210985493255315098_" gradientUnits="userSpaceOnUse" x1="83.3398" y1="131.333" x2="97.4052" y2="149.4324" gradientTransform="matrix(1 0 0 -1 0 208)">
			<stop  offset="0" style="stop-color:#C3CEED"/>
			<stop  offset="5.116140e-02" style="stop-color:#C5D0ED"/>
			<stop  offset="1" style="stop-color:#E5ECF1"/>
		</linearGradient>
		<path style="fill:url(#SVGID_00000162329065706992657650000000210985493255315098_);" d="M53.3,55.4l49.1,24.4l18.2,9
			c0,0-11.3-23.3-15-42.1c0,0-6.4,2.4-15.6,4.7C79.3,54.1,65.2,56.7,53.3,55.4z"/>
		
			<linearGradient id="SVGID_00000083076257878821764740000003792596992790846641_" gradientUnits="userSpaceOnUse" x1="67.0891" y1="192.1082" x2="15.2759" y2="207.1805" gradientTransform="matrix(1 0 0 -1 0 208)">
			<stop  offset="0" style="stop-color:#C3CEED"/>
			<stop  offset="1" style="stop-color:#D5D7ED"/>
		</linearGradient>
		
			<path style="fill:none;stroke:url(#SVGID_00000083076257878821764740000003792596992790846641_);stroke-width:0.1;stroke-miterlimit:10;" d="
			M12.3,11C34.7,14.6,63,7.6,70,5.7"/>
		
			<linearGradient id="SVGID_00000011031126082971982520000016346455761685155721_" gradientUnits="userSpaceOnUse" x1="68.7266" y1="186.8804" x2="16.6296" y2="202.0353" gradientTransform="matrix(1 0 0 -1 0 208)">
			<stop  offset="0" style="stop-color:#C3CEED"/>
			<stop  offset="1" style="stop-color:#D5D7ED"/>
		</linearGradient>
		
			<path style="fill:none;stroke:url(#SVGID_00000011031126082971982520000016346455761685155721_);stroke-width:0.1;stroke-miterlimit:10;" d="
			M13.7,15.9c21.5,4,49.1-2.5,57.9-4.8"/>
		
			<linearGradient id="SVGID_00000141421008093429325600000003033340551389857952_" gradientUnits="userSpaceOnUse" x1="70.6208" y1="181.6255" x2="18.9069" y2="196.669" gradientTransform="matrix(1 0 0 -1 0 208)">
			<stop  offset="0" style="stop-color:#C3CEED"/>
			<stop  offset="1" style="stop-color:#D5D7ED"/>
		</linearGradient>
		
			<path style="fill:none;stroke:url(#SVGID_00000141421008093429325600000003033340551389857952_);stroke-width:0.1;stroke-miterlimit:10;" d="
			M16.1,21.1c20.8,4,47.5-1.9,57.4-4.4"/>
		
			<linearGradient id="SVGID_00000162351651609477599620000000054180685450047887_" gradientUnits="userSpaceOnUse" x1="72.6898" y1="176.4586" x2="22.2781" y2="191.1232" gradientTransform="matrix(1 0 0 -1 0 208)">
			<stop  offset="0" style="stop-color:#C3CEED"/>
			<stop  offset="1" style="stop-color:#D5D7ED"/>
		</linearGradient>
		
			<path style="fill:none;stroke:url(#SVGID_00000162351651609477599620000000054180685450047887_);stroke-width:0.1;stroke-miterlimit:10;" d="
			M19.5,26.4L19.5,26.4C39.8,30,65.2,24.6,75.4,22"/>
		
			<linearGradient id="SVGID_00000109719695458035349960000009993379889965359006_" gradientUnits="userSpaceOnUse" x1="74.9712" y1="171.3039" x2="26.7293" y2="185.3374" gradientTransform="matrix(1 0 0 -1 0 208)">
			<stop  offset="0" style="stop-color:#C3CEED"/>
			<stop  offset="1" style="stop-color:#D5D7ED"/>
		</linearGradient>
		
			<path style="fill:none;stroke:url(#SVGID_00000109719695458035349960000009993379889965359006_);stroke-width:0.1;stroke-miterlimit:10;" d="
			M24,32c19.5,3,43.3-2,53.6-4.6"/>
		
			<linearGradient id="SVGID_00000174585640974177785970000006532213530788927374_" gradientUnits="userSpaceOnUse" x1="77.3756" y1="166.3003" x2="31.9919" y2="179.5024" gradientTransform="matrix(1 0 0 -1 0 208)">
			<stop  offset="0" style="stop-color:#C3CEED"/>
			<stop  offset="1" style="stop-color:#D5D7ED"/>
		</linearGradient>
		
			<path style="fill:none;stroke:url(#SVGID_00000174585640974177785970000006532213530788927374_);stroke-width:0.1;stroke-miterlimit:10;" d="
			M29.4,37.5L29.4,37.5c18.7,2.2,40.5-2.3,50.6-4.8"/>
		
			<linearGradient id="SVGID_00000127020296503826356870000008428584487168006830_" gradientUnits="userSpaceOnUse" x1="80.0458" y1="161.4521" x2="38.169" y2="173.634" gradientTransform="matrix(1 0 0 -1 0 208)">
			<stop  offset="0" style="stop-color:#C3CEED"/>
			<stop  offset="1" style="stop-color:#D5D7ED"/>
		</linearGradient>
		
			<path style="fill:none;stroke:url(#SVGID_00000127020296503826356870000008428584487168006830_);stroke-width:0.1;stroke-miterlimit:10;" d="
			M35.7,43L35.7,43c17.7,1.3,37.3-2.7,46.8-5"/>
		
			<linearGradient id="SVGID_00000077283073220210662570000000571802763398372500_" gradientUnits="userSpaceOnUse" x1="82.9349" y1="156.6784" x2="45.1826" y2="167.6604" gradientTransform="matrix(1 0 0 -1 0 208)">
			<stop  offset="0" style="stop-color:#C3CEED"/>
			<stop  offset="1" style="stop-color:#D5D7ED"/>
		</linearGradient>
		
			<path style="fill:none;stroke:url(#SVGID_00000077283073220210662570000000571802763398372500_);stroke-width:0.1;stroke-miterlimit:10;" d="
			M42.8,48.4L42.8,48.4c16.5,0.4,33.6-3.1,42.4-5.2"/>
		
			<linearGradient id="SVGID_00000150090105300231416660000006290817065717542297_" gradientUnits="userSpaceOnUse" x1="85.9786" y1="152.138" x2="52.7055" y2="161.8172" gradientTransform="matrix(1 0 0 -1 0 208)">
			<stop  offset="0" style="stop-color:#C3CEED"/>
			<stop  offset="1" style="stop-color:#D5D7ED"/>
		</linearGradient>
		
			<path style="fill:none;stroke:url(#SVGID_00000150090105300231416660000006290817065717542297_);stroke-width:0.1;stroke-miterlimit:10;" d="
			M50.6,53.7c14.9-0.3,29.7-3.4,37.6-5.3"/>
		<path class="st12" d="M21.7,15.2c0,0,10.8,1,17.6-0.3"/>
		<path class="st12" d="M46.7,14.3c0,0,11.3-1.2,17.9-3.2"/>
		<path class="st12" d="M48.8,19.7c0,0,11.3-1.2,17.9-3.2"/>
		<path class="st12" d="M51.5,25.2c0,0,11.3-1.2,17.9-3.2"/>
		<path class="st12" d="M53.7,30c0,0,11.3-1.2,17.9-3.2"/>
		<path class="st12" d="M58.7,35.2c0,0,10.5-1.2,16.7-3.1"/>
		<path class="st12" d="M63,40.3c0,0,9.2-1.3,14.6-3.1"/>
		<path class="st12" d="M68.5,45.1c0,0,8.4-1.2,13.4-2.9"/>
		<path class="st12" d="M73.4,49.6c0,0,6.9-1,11-2.5"/>
		<path class="st12" d="M22.2,20.8c0,0,11.7,1.2,19.1-0.1"/>
		<path class="st12" d="M25.4,25.7c0,0,11.7,1.2,19.1-0.1"/>
		<path class="st12" d="M29.6,31c0,0,11.7,1.2,19.1-0.1"/>
		<path class="st12" d="M33.7,36.3c0,0,11.7,1.2,19.1-0.1"/>
		<path class="st12" d="M41.6,42c0,0,10.8,0.3,17.5-1.6"/>
		<path class="st12" d="M48,46.5c0,0,10.3,0.4,16.7-1.2"/>
		<path class="st12" d="M54.6,51.8c0,0,9.1-0.1,14.5-1.5"/>
		
			<linearGradient id="SVGID_00000129200207922985966450000006902843721961603257_" gradientUnits="userSpaceOnUse" x1="135.8466" y1="72.35" x2="-112.0344" y2="15.259" gradientTransform="matrix(1 0 0 -1 0 208)">
			<stop  offset="1.197390e-03" style="stop-color:#A8B5CC"/>
			<stop  offset="0.2567" style="stop-color:#B2BFD4"/>
			<stop  offset="0.6948" style="stop-color:#CEDAE8"/>
			<stop  offset="1" style="stop-color:#E5F1F9"/>
		</linearGradient>
		<path style="fill:url(#SVGID_00000129200207922985966450000006902843721961603257_);" d="M63.9,132.4v0.1l-0.8,73.2v0.8
			c-0.9,0-1.6,0-2.1-0.2l-1.4-0.5l-56.8-20c-1.4-0.5-2.3-1.8-2.3-3.2l0.8-70.1L63.9,132.4z"/>
		
			<linearGradient id="SVGID_00000008828933933066633850000002668459637155279496_" gradientUnits="userSpaceOnUse" x1="201.8048" y1="118.561" x2="4.5733" y2="-8.499" gradientTransform="matrix(1 0 0 -1 0 208)">
			<stop  offset="0" style="stop-color:#8598B6"/>
			<stop  offset="0.6134" style="stop-color:#607496"/>
			<stop  offset="1" style="stop-color:#475B80"/>
		</linearGradient>
		<path style="fill:url(#SVGID_00000008828933933066633850000002668459637155279496_);" d="M123.9,114.1l-0.8,70.2
			c0,1.3-0.9,2.6-2.1,3l-53.7,18.4c0,0-0.1,0-0.1,0c-1.7,0.6-3.1,0.8-4.2,0.8v-0.8l0.8-73.3L123.9,114.1z"/>
		
			<linearGradient id="SVGID_00000175294760015495840920000003239766482401088189_" gradientUnits="userSpaceOnUse" x1="116.6508" y1="84.7472" x2="-74.8269" y2="118.7343" gradientTransform="matrix(1 0 0 -1 0 208)">
			<stop  offset="0" style="stop-color:#C0D2E1"/>
			<stop  offset="0.1764" style="stop-color:#CDDBE7"/>
			<stop  offset="0.7134" style="stop-color:#F1F5F8"/>
			<stop  offset="1" style="stop-color:#FFFFFF"/>
		</linearGradient>
		<path style="fill:url(#SVGID_00000175294760015495840920000003239766482401088189_);" d="M123.9,114.1L61.6,94.9L1.3,112.6
			L64,132.5L123.9,114.1z"/>
		
			<linearGradient id="SVGID_00000097480766529568070720000016138518674318984868_" gradientUnits="userSpaceOnUse" x1="31.2117" y1="95.0179" x2="93.993" y2="94.3331" gradientTransform="matrix(1 0 0 -1 0 208)">
			<stop  offset="0" style="stop-color:#8598B6"/>
			<stop  offset="0.3943" style="stop-color:#66799B"/>
			<stop  offset="0.7649" style="stop-color:#4F6387"/>
			<stop  offset="1" style="stop-color:#475B80"/>
		</linearGradient>
		<path style="opacity:0.2;fill:url(#SVGID_00000097480766529568070720000016138518674318984868_);enable-background:new    ;" d="
			M94,113.7c0,0.8-0.4,1.7-1,2.5c-0.7,0.9-1.9,1.7-3.4,2.4c-5.5,2.8-15.6,4.6-27.1,4.5c-11.5-0.1-21.6-2.2-27-5.1
			c-1.4-0.8-2.6-1.6-3.3-2.5c-0.6-0.8-1-1.6-1-2.5c0.1-5.4,14.2-9.6,31.5-9.4C80,103.7,94.1,108.3,94,113.7z"/>
		<path class="st17" d="M15.6,147c2.4,0.8,4.2,5.1,4.2,10.1c0,2-0.4,3.8-1,5.1l0.9,2l-0.9,1.8l-0.9-2.1c-0.7,0.9-1.6,1.2-2.5,0.9
			c-2.4-0.8-4.2-5.3-4.2-10.2C11.4,149.4,13.2,146.2,15.6,147z M15.5,161.7c0.9,0.3,1.4-0.4,1.4-0.4l-0.8-1.9l0.9-1.8l0.8,2
			c0.3-0.8,0.5-1.9,0.5-3.1c0-3.3-1.1-6.1-2.6-6.6c-1.5-0.5-2.7,1.6-2.7,5C12.8,158.2,14,161.2,15.5,161.7z"/>
		<path class="st17" d="M21.9,152.4c0-0.3-0.1-0.6-0.2-0.6l-0.5-0.2l0-2.7l1.5,0.5c0.6,0.2,0.8,0.8,0.8,1.9l-0.1,9.2
			c0,2.2,0.6,3.8,1.7,4.1c1,0.3,1.7-0.8,1.8-3l0.1-9.2c0-1.1,0.2-1.6,0.8-1.4l1.5,0.5l0,2.7l-0.5-0.2c-0.2-0.1-0.2,0.1-0.2,0.4
			l-0.1,7.8c0,3.8-1.4,6-3.3,5.4c-2-0.6-3.2-3.6-3.2-7.4L21.9,152.4z"/>
		<path class="st17" d="M30.3,166.3l0.8,0.3l0.1-11.8l-0.8-0.3l0-2.7l3.1,1l0,2.7l-0.8-0.2L32.6,167l0.8,0.2l0,2.7l-3.1-1
			L30.3,166.3z"/>
		<path class="st17" d="M34.6,168.3l3.8-9.7c0.3-0.8,0.6-1.3,0.6-1.3v-0.1c0,0-0.2,0-0.6-0.2l-2-0.6c-0.2-0.1-0.2,0.1-0.2,0.4v1
			l-1.4-0.4l0-2.6c0-1.1,0.2-1.6,0.8-1.4l5.4,1.7l0,2l-3.8,9.7c-0.3,0.9-0.6,1.3-0.6,1.3v0.1c0,0,0.2,0,0.6,0.2l2.3,0.7
			c0.2,0.1,0.2-0.1,0.2-0.4v-1l1.4,0.4l0,2.6c0,1.2-0.2,1.6-0.8,1.4l-5.6-1.8L34.6,168.3z"/>
		<path class="st17" d="M42,170.6l3.8-9.7c0.3-0.8,0.6-1.3,0.6-1.3v-0.1c0,0-0.2,0-0.6-0.2l-2-0.6c-0.2-0.1-0.2,0.1-0.2,0.4v1
			l-1.4-0.4l0-2.6c0-1.1,0.2-1.6,0.8-1.4l5.4,1.7l0,2l-3.8,9.7c-0.3,0.9-0.6,1.3-0.6,1.3v0.1c0,0,0.2,0,0.6,0.2l2.3,0.7
			c0.2,0.1,0.2-0.1,0.2-0.4v-1l1.4,0.4l0,2.6c0,1.2-0.2,1.6-0.8,1.4l-5.6-1.8L42,170.6z"/>
		<path class="st18" d="M94,167c0.5-6.2,4.2-8.7,4.6-13.1c0.2-2-0.7-3.2-1.9-2.7c-1.3,0.5-2.5,2.8-2.5,2.8l-1.3-3.1
			c0,0,1.8-3.7,4.4-4.8c2.5-1,4.7,1.1,4.3,6.2c-0.5,7.1-4.5,9.5-4.8,14.1l-0.1,1.7l-2.7,1.1L94,167z M93.5,172.8l2.7-1.1l-0.4,5.1
			l-2.7,1.1L93.5,172.8z"/>
		
			<linearGradient id="SVGID_00000011014845153172866400000004973688016756286087_" gradientUnits="userSpaceOnUse" x1="59.5063" y1="113.0566" x2="63.3244" y2="95.2174" gradientTransform="matrix(1 0 0 -1 0 208)">
			<stop  offset="0" style="stop-color:#3B9588"/>
			<stop  offset="0.1119" style="stop-color:#368B85"/>
			<stop  offset="0.3773" style="stop-color:#2D7A80"/>
			<stop  offset="0.6625" style="stop-color:#286F7D"/>
			<stop  offset="1" style="stop-color:#266C7C"/>
		</linearGradient>
		<path style="fill:url(#SVGID_00000011014845153172866400000004973688016756286087_);" d="M86.5,108.8l0,1.6
			c-0.1,4.7-10.8,8.4-24,8.3c-13.2-0.2-23.8-4.1-23.7-8.8l0-1.6c6,2.4,14.4,3.9,23.8,3.9C72,112.4,80.5,111.1,86.5,108.8z"/>
		
			<linearGradient id="SVGID_00000033334893242032624010000005934234599895027634_" gradientUnits="userSpaceOnUse" x1="62.863" y1="120.6522" x2="62.3431" y2="74.539" gradientTransform="matrix(1 0 0 -1 0 208)">
			<stop  offset="0" style="stop-color:#132534"/>
			<stop  offset="0.4606" style="stop-color:#314462"/>
			<stop  offset="1" style="stop-color:#586B9D"/>
		</linearGradient>
		<path style="fill:url(#SVGID_00000033334893242032624010000005934234599895027634_);" d="M86.5,104.1c0,0.8-0.3,1.5-0.8,2.2
			c-0.6,0.8-1.4,1.5-2.6,2.1c-4.2,2.5-11.8,4-20.6,3.9c-8.8-0.1-16.4-1.9-20.5-4.4c-1.1-0.7-1.9-1.4-2.5-2.2
			c-0.5-0.7-0.8-1.4-0.7-2.2c0.1-4.7,10.8-8.4,23.9-8.3C76,95.5,86.6,99.4,86.5,104.1z"/>
		
			<linearGradient id="SVGID_00000095298607456827188760000003837863107194224789_" gradientUnits="userSpaceOnUse" x1="46.4868" y1="104.8898" x2="87.7924" y2="104.4388" gradientTransform="matrix(1 0 0 -1 0 208)">
			<stop  offset="0" style="stop-color:#3B9588"/>
			<stop  offset="1" style="stop-color:#22807A"/>
		</linearGradient>
		<path style="fill:url(#SVGID_00000095298607456827188760000003837863107194224789_);" d="M95.5,94.7l-0.1,6.2
			c0,3.1-3.4,5.9-8.9,7.9c-6,2.2-14.5,3.5-23.9,3.4c-9.4-0.1-17.9-1.6-23.8-3.9c-5.5-2.2-8.8-5-8.7-8.1l0.1-6.2c0,1,0.3,2,1,3
			c0.8,1.1,1.9,2.1,3.4,3c5.6,3.5,16.1,5.9,28.1,6c12,0.1,22.5-2.1,28.2-5.4c1.5-0.9,2.7-1.9,3.5-2.9C95.1,96.7,95.4,95.7,95.5,94.7
			z"/>
		
			<linearGradient id="SVGID_00000127046416099522177980000012393732478974642573_" gradientUnits="userSpaceOnUse" x1="63.0418" y1="136.2727" x2="62.3295" y2="73.0939" gradientTransform="matrix(1 0 0 -1 0 208)">
			<stop  offset="0" style="stop-color:#3DB39A"/>
			<stop  offset="0.1071" style="stop-color:#41C9B1"/>
			<stop  offset="1" style="stop-color:#7ACA94"/>
		</linearGradient>
		<path style="fill:url(#SVGID_00000127046416099522177980000012393732478974642573_);" d="M95.5,94.7c0,1-0.4,2-1.1,2.9
			c-0.8,1-2,2-3.5,2.9c-3.8,2.2-9.5,3.9-16.5,4.8c-3.6,0.5-7.6,0.7-11.7,0.6c-12-0.1-22.4-2.6-28.1-6c-1.5-0.9-2.7-1.9-3.4-3
			c-0.7-0.9-1-2-1-3c0.1-5.7,11.4-10.3,26.4-11.2c2.1-0.1,4.2-0.2,6.4-0.2C81,82.9,95.5,88.3,95.5,94.7z"/>
		
			<linearGradient id="SVGID_00000116215695361482688800000008549407020864685723_" gradientUnits="userSpaceOnUse" x1="91.0249" y1="148.542" x2="69.5153" y2="105.9132" gradientTransform="matrix(1 0 0 -1 0 208)">
			<stop  offset="0.4488" style="stop-color:#FFFFFF;stop-opacity:0.3"/>
			<stop  offset="1" style="stop-color:#FFFFFF;stop-opacity:0"/>
		</linearGradient>
		<path style="fill:url(#SVGID_00000116215695361482688800000008549407020864685723_);" d="M95.5,94.7c0,1-0.4,2-1.1,2.9
			c-0.8,1-2,2-3.5,2.9c-3.8,2.2-9.5,3.9-16.5,4.8L56.5,82.8c2.1-0.1,4.2-0.2,6.4-0.2C81,82.9,95.5,88.3,95.5,94.7z"/>
		
			<linearGradient id="SVGID_00000033329979141299370380000004793379583254783397_" gradientUnits="userSpaceOnUse" x1="34.5975" y1="178.4246" x2="35.9468" y2="159.1753" gradientTransform="matrix(1 0 0 -1 0 208)">
			<stop  offset="0" style="stop-color:#687B99"/>
			<stop  offset="0.1381" style="stop-color:#5F738F"/>
			<stop  offset="0.6786" style="stop-color:#41576B"/>
			<stop  offset="0.9671" style="stop-color:#364C5D"/>
		</linearGradient>
		<path style="fill:url(#SVGID_00000033329979141299370380000004793379583254783397_);" d="M48.5,37L34,57.1l-0.7,1l-0.4,0.6
			l-0.5,0.7l-1.5,2.1l-0.1,0.1c-0.1,0.1-0.1,0.1-0.2,0.2c-0.1,0-0.1,0-0.2,0h0l-7.1-2.3l4.6-6.4l13.3-18.4c0.2-0.3,0.6-0.4,0.9-0.3
			c0,0,6.1,2,6.5,2.1h0c0,0,0.1,0.1,0.1,0.1c0,0,0,0,0,0v0v0c0,0,0,0,0,0.1c0,0,0,0,0,0.1C48.6,36.8,48.5,36.9,48.5,37z"/>
		
			<linearGradient id="SVGID_00000145058899347315674970000011648709919831780504_" gradientUnits="userSpaceOnUse" x1="30.8059" y1="146.5196" x2="30.7085" y2="146.4316" gradientTransform="matrix(1 0 0 -1 0 208)">
			<stop  offset="0" style="stop-color:#475B80"/>
			<stop  offset="0.6559" style="stop-color:#2C3D51"/>
			<stop  offset="1" style="stop-color:#21313E"/>
		</linearGradient>
		<path style="fill:url(#SVGID_00000145058899347315674970000011648709919831780504_);" d="M30.8,61.5
			C30.8,61.5,30.8,61.5,30.8,61.5C30.8,61.5,30.7,61.5,30.8,61.5C30.7,61.5,30.7,61.6,30.8,61.5L30.8,61.5z"/>
		
			<linearGradient id="SVGID_00000057849616736480099060000015770791477635927946_" gradientUnits="userSpaceOnUse" x1="28.5379" y1="148.9519" x2="28.8347" y2="149.1676" gradientTransform="matrix(1 0 0 -1 0 208)">
			<stop  offset="0" style="stop-color:#475B80"/>
			<stop  offset="0.6559" style="stop-color:#2C3D51"/>
			<stop  offset="1" style="stop-color:#21313E"/>
		</linearGradient>
		<path style="fill:url(#SVGID_00000057849616736480099060000015770791477635927946_);" d="M49.9,39.2L32.7,64l0,0
			c-0.1,0.1-0.2,0.2-0.2,0.2L32,63.6l-1.4-1.8l-0.2-0.1c0,0,0,0,0,0c0.1,0,0.1,0,0.2,0c0.1,0,0.2-0.1,0.2-0.2c0,0,0,0,0,0l0,0
			l1.5-2.1l0.5-0.7l0.4-0.6l0.7-1L48.5,37c0.1-0.1,0.1-0.2,0.1-0.3c0,0,0,0,0-0.1s0,0,0-0.1v0v0c0,0,0,0,0,0l1.4,1.8
			C50.1,38.6,50.1,38.9,49.9,39.2z"/>
		
			<radialGradient id="SVGID_00000178189596849141167840000015984157233323527316_" cx="-222.3774" cy="455.9505" r="1" gradientTransform="matrix(3.4857 1.1316 1.1465 -3.5316 280.1727 1923.6932)" gradientUnits="userSpaceOnUse">
			<stop  offset="0" style="stop-color:#687B99"/>
			<stop  offset="0.5133" style="stop-color:#55688A"/>
			<stop  offset="1" style="stop-color:#475B80"/>
		</radialGradient>
		<path style="fill:url(#SVGID_00000178189596849141167840000015984157233323527316_);" d="M32.4,64.2c-0.1,0-0.1,0-0.2,0l-0.1,0
			l-1.7-0.6l-0.8-0.3l-3-1l-0.1,0l-0.4-0.2l-1.3-0.4l-1.7-2.3l7.4,2.4l1.4,1.8L32.4,64.2z"/>
		
			<linearGradient id="SVGID_00000124157568666634107140000013699999552315045556_" gradientUnits="userSpaceOnUse" x1="31.8555" y1="131.4261" x2="17.4869" y2="148.4447" gradientTransform="matrix(1 0 0 -1 0 208)">
			<stop  offset="0" style="stop-color:#8598B6"/>
			<stop  offset="0.2128" style="stop-color:#899CB9"/>
			<stop  offset="0.4407" style="stop-color:#96A7C1"/>
			<stop  offset="0.6757" style="stop-color:#ACBBCE"/>
			<stop  offset="0.9139" style="stop-color:#C9D6E1"/>
			<stop  offset="1" style="stop-color:#D6E1E9"/>
		</linearGradient>
		<path style="fill:url(#SVGID_00000124157568666634107140000013699999552315045556_);" d="M32.2,59c-0.4,0.4-0.9,0.7-1.4,1
			l-4.9,2.3L8.3,70.4l-2,0.9c-0.1,0-0.1,0-0.2,0c-0.1,0-0.2-0.1-0.3-0.3V71l-0.7-6.7v-0.1c0-0.4,0.2-0.7,0.5-0.9l21.5-10
			c2.4-1.3,4.7-2,6.1-0.5c0.6,0.6,0.8,1.4,0.8,2.3C34,56.5,33.4,57.9,32.2,59z"/>
		
			<linearGradient id="SVGID_00000098911402169775948370000007043567209367727283_" gradientUnits="userSpaceOnUse" x1="9.9549" y1="148.8401" x2="31.2143" y2="142.1575" gradientTransform="matrix(1 0 0 -1 0 208)">
			<stop  offset="0" style="stop-color:#475B80"/>
			<stop  offset="0.6559" style="stop-color:#2C3D51"/>
			<stop  offset="1" style="stop-color:#21313E"/>
		</linearGradient>
		<path style="opacity:0.4;fill:url(#SVGID_00000098911402169775948370000007043567209367727283_);enable-background:new    ;" d="
			M34,57.1l-1.7,2.3c-0.4,0.3-0.8,0.6-1.2,0.8l-2.2,1l-2.7,1.2L8.5,70.7l-2,0.9c-0.2,0.1-0.4,0-0.4-0.3c0.1,0,0.1,0,0.2,0l2-0.9
			l17.7-8.2l2.4-1.1l2.4-1.1c0.5-0.3,1-0.6,1.4-1c1.2-1.1,1.8-2.5,1.9-3.8c0-0.9-0.2-1.7-0.8-2.3c0.1,0.1,0.2,0.2,0.2,0.3
			c0.6,0.6,0.8,1.4,0.8,2.3C34.3,56,34.2,56.5,34,57.1z"/>
		
			<linearGradient id="SVGID_00000070832206216600397940000011880939291587551158_" gradientUnits="userSpaceOnUse" x1="20.7253" y1="143.0193" x2="20.545" y2="143.4034" gradientTransform="matrix(1 0 0 -1 0 208)">
			<stop  offset="0" style="stop-color:#8598B6"/>
			<stop  offset="0.1225" style="stop-color:#92A4BE"/>
			<stop  offset="0.5" style="stop-color:#B7C5D6"/>
			<stop  offset="0.8059" style="stop-color:#CEDAE4"/>
			<stop  offset="1" style="stop-color:#D6E1E9"/>
		</linearGradient>
		<path style="fill:url(#SVGID_00000070832206216600397940000011880939291587551158_);" d="M32.2,59.3c-0.4,0.4-0.9,0.7-1.4,1
			l-4.3,2l-0.6,0.3L8.3,70.8l-0.2,0.1l-1.9,0.9c-0.1,0.1-0.2,0-0.3,0c-0.1-0.1-0.1-0.2-0.1-0.3l0-0.2l-0.6-6.6c0-0.1,0-0.2,0-0.2
			L5.8,71v0.1c0,0.2,0.2,0.3,0.4,0.3l2-0.9l17.7-8.2l4.9-2.3c0.5-0.3,1-0.6,1.4-1c1.2-1.1,1.8-2.5,1.9-3.8
			C34.1,56.6,33.5,58.1,32.2,59.3z"/>
		
			<linearGradient id="SVGID_00000147183152469856262280000000268461717462490545_" gradientUnits="userSpaceOnUse" x1="8.9028" y1="136.7243" x2="5.3878" y2="133.929" gradientTransform="matrix(1 0 0 -1 0 208)">
			<stop  offset="0" style="stop-color:#8598B6"/>
			<stop  offset="0.3943" style="stop-color:#66799B"/>
			<stop  offset="0.7649" style="stop-color:#4F6387"/>
			<stop  offset="1" style="stop-color:#475B80"/>
		</linearGradient>
		<path style="fill:url(#SVGID_00000147183152469856262280000000268461717462490545_);" d="M8.1,73.8c-0.2,0-0.3-0.1-0.3-0.1
			s-1.5-1.5-1.8-2l0,0c0.1,0.1,0.2,0.1,0.3,0l1.9-0.9V73.8z"/>
		
			<linearGradient id="SVGID_00000179629037152108050320000007885084020813742472_" gradientUnits="userSpaceOnUse" x1="18.9306" y1="133.0079" x2="20.016" y2="156.2367" gradientTransform="matrix(1 0 0 -1 0 208)">
			<stop  offset="0" style="stop-color:#7C889D"/>
			<stop  offset="0.1864" style="stop-color:#929EB0"/>
			<stop  offset="0.5363" style="stop-color:#B7C2CF"/>
			<stop  offset="0.82" style="stop-color:#CED9E2"/>
			<stop  offset="1" style="stop-color:#D6E1E9"/>
		</linearGradient>
		<path style="fill:url(#SVGID_00000179629037152108050320000007885084020813742472_);" d="M30.4,63.6c0,0-21.2,9.9-21.8,10.1
			c-0.2,0.1-0.4,0.1-0.6,0.1l0-3l0.2-0.1L26,62.5l0.6-0.3L30.4,63.6z"/>
		<rect x="26.9" y="53.1" class="st33" width="5.6" height="6"/>
		
			<linearGradient id="SVGID_00000092455468298583960670000006719701960175431297_" gradientUnits="userSpaceOnUse" x1="15.308" y1="144.8627" x2="38.6393" y2="156.4391" gradientTransform="matrix(1 0 0 -1 0 208)">
			<stop  offset="0" style="stop-color:#8598B6"/>
			<stop  offset="0.1225" style="stop-color:#92A4BE"/>
			<stop  offset="0.5" style="stop-color:#B7C5D6"/>
			<stop  offset="0.8059" style="stop-color:#CEDAE4"/>
			<stop  offset="1" style="stop-color:#D6E1E9"/>
		</linearGradient>
		<path style="fill:url(#SVGID_00000092455468298583960670000006719701960175431297_);" d="M31.4,57.3C30.5,58.6,29,59,28,58.3
			c-1-0.7-1-2.3-0.2-3.6c0.9-1.3,2.4-1.8,3.4-1.1C32.2,54.4,32.3,56,31.4,57.3z"/>
		
			<linearGradient id="SVGID_00000093152607270344803120000000345847868785677477_" gradientUnits="userSpaceOnUse" x1="43.6712" y1="170.6877" x2="40.3462" y2="166.3466" gradientTransform="matrix(1 0 0 -1 0 208)">
			<stop  offset="0" style="stop-color:#28394C"/>
			<stop  offset="0.7981" style="stop-color:#5F7398"/>
		</linearGradient>
		<path style="fill:url(#SVGID_00000093152607270344803120000000345847868785677477_);" d="M44.5,39.2c-0.6,1-1.9,1.6-3,1.3
			c-1-0.3-1.4-1.4-0.7-2.4c0.6-1,1.9-1.6,3-1.3C44.8,37.1,45.1,38.2,44.5,39.2z"/>
		
			<linearGradient id="SVGID_00000149367335694165432490000016062425605083224248_" gradientUnits="userSpaceOnUse" x1="39.1641" y1="166.6235" x2="46.3192" y2="172.3312" gradientTransform="matrix(1 0 0 -1 0 208)">
			<stop  offset="0" style="stop-color:#556A81"/>
			<stop  offset="0.308" style="stop-color:#455B6F"/>
			<stop  offset="0.6534" style="stop-color:#3A5062"/>
			<stop  offset="0.9671" style="stop-color:#364C5D"/>
		</linearGradient>
		<path style="fill:url(#SVGID_00000149367335694165432490000016062425605083224248_);" d="M44.5,39.1c-0.6,1-1.9,1.5-2.8,1.2
			c-1-0.3-1.3-1.4-0.7-2.4c0.6-1,1.9-1.5,2.8-1.2C44.7,37.1,45.1,38.2,44.5,39.1z"/>
		<path class="st37" d="M27.9,23l0,0.2l-0.9,6.6c-0.2,1.3-1.2,2.5-2.2,2.7l-5.5,1.2l-1.1,0.2c-0.4,0.1-0.8,0-1.1-0.3h0L16.3,33
			c0.1,0.1,0.3,0.1,0.4,0.1c0.1,0,0.2,0,0.4,0l0.5-0.1l1.7-0.4l4.4-0.9c1-0.2,2-1.4,2.2-2.7l0.7-5.5l0.2-1.3c0,0,0-0.1,0-0.1
			c0-0.4,0-0.7-0.1-1c-0.1-0.3-0.2-0.4-0.3-0.6l0.9,0.8l0,0c0,0,0,0,0,0C27.8,21.6,28,22.2,27.9,23z"/>
		
			<linearGradient id="SVGID_00000028314938674622698360000009024759075875907262_" gradientUnits="userSpaceOnUse" x1="15.6757" y1="179.6077" x2="27.8732" y2="182.417" gradientTransform="matrix(1 0 0 -1 0 208)">
			<stop  offset="0" style="stop-color:#3B9588"/>
			<stop  offset="1" style="stop-color:#22807A"/>
		</linearGradient>
		<path style="fill:url(#SVGID_00000028314938674622698360000009024759075875907262_);" d="M26.8,21c0.1,0.3,0.1,0.6,0.1,1
			c0,0,0,0.1,0,0.1l-0.9,6.8c-0.2,1.3-1.2,2.5-2.2,2.7l-6.1,1.3L17.1,33c-0.2,0-0.3,0-0.4,0c-0.1-0.3-0.1-0.7-0.1-1.1l0.1-0.4
			l0.9-6.4c0.2-1.3,1.2-2.5,2.2-2.7l6.1-1.3l0.5-0.1C26.6,21,26.7,21,26.8,21z"/>
		<path class="st39" d="M26.9,22c0,0,0,0.1,0,0.1l-0.9,6.8c0,0.1,0,0.2,0,0.2c-0.3,1.2-1.2,2.3-2.2,2.5l-6.1,1.3L17.1,33
			c-0.1,0-0.3,0-0.4,0c-0.2,0-0.3-0.1-0.4-0.1c-0.1-0.1-0.2-0.2-0.4-0.3c-0.2-0.3-0.4-0.9-0.2-1.5l0.9-6.8c0.2-1.1,0.9-2.1,1.7-2.5
			c0.2-0.1,0.3-0.2,0.5-0.2l6.6-1.4c0.4-0.1,0.8,0,1,0.3c0.2,0.2,0.3,0.3,0.3,0.6C26.9,21.3,26.9,21.6,26.9,22z"/>
		
			<radialGradient id="SVGID_00000183942340127294411440000007583777957827313330_" cx="-309.0295" cy="482.2241" r="1" gradientTransform="matrix(13.3758 0 0 -13.593 4156.5742 6572.8369)" gradientUnits="userSpaceOnUse">
			<stop  offset="0" style="stop-color:#BFCCD2;stop-opacity:0.7"/>
			<stop  offset="0.2154" style="stop-color:#97BAC1;stop-opacity:0.5492"/>
			<stop  offset="0.4317" style="stop-color:#76ABB2;stop-opacity:0.3978"/>
			<stop  offset="0.6397" style="stop-color:#5FA0A8;stop-opacity:0.2522"/>
			<stop  offset="0.8338" style="stop-color:#5199A2;stop-opacity:0.1164"/>
			<stop  offset="1" style="stop-color:#4C97A0;stop-opacity:0"/>
		</radialGradient>
		<path style="fill:url(#SVGID_00000183942340127294411440000007583777957827313330_);" d="M30.4,24.8c0,0,0,0.1,0,0.1l-0.9,6.8
			c0,0.1,0,0.2,0,0.2c-0.3,1.2-1.2,2.3-2.2,2.5l-6.1,1.3l-0.5,0.1c-0.2,0-0.3,0-0.4,0c-0.2,0-0.3-0.1-0.4-0.1
			c-0.2-0.1-0.2-0.2-0.4-0.3c-0.2-0.3-0.4-0.9-0.2-1.5l0-0.2l5.5-1.2c1-0.2,2-1.4,2.2-2.7l0.9-6.6l1.1-0.2c0.4-0.1,0.8,0,1,0.3
			c0.2,0.2,0.3,0.3,0.3,0.6C30.4,24.1,30.4,24.4,30.4,24.8z"/>
		
			<linearGradient id="SVGID_00000035505158124874238020000018260569988296529317_" gradientUnits="userSpaceOnUse" x1="19.2817" y1="181.9928" x2="27.5416" y2="183.8951" gradientTransform="matrix(1 0 0 -1 0 208)">
			<stop  offset="0" style="stop-color:#FFFFFF;stop-opacity:0.3"/>
			<stop  offset="1" style="stop-color:#FFFFFF;stop-opacity:0"/>
		</linearGradient>
		<path style="fill:url(#SVGID_00000035505158124874238020000018260569988296529317_);" d="M26.9,22c0,0,0,0.1,0,0.1l-0.9,6.8
			c0,0.1,0,0.2,0,0.2c-3.1-1.5-5.7-4-7.6-7.4c0.2-0.1,0.3-0.2,0.5-0.2l6.6-1.4c0.4-0.1,0.8,0,1,0.3c0.2,0.2,0.3,0.3,0.3,0.6
			C26.9,21.3,26.9,21.6,26.9,22z"/>
		<path class="st17" d="M22.7,29.1c-0.1,0-0.2-0.1-0.3-0.2l-3.4-4c-0.2-0.2-0.2-0.5,0.1-0.7c0.2-0.2,0.5-0.2,0.6,0.1l3.4,4
			c0.2,0.2,0.2,0.5-0.1,0.7C22.9,29.1,22.8,29.1,22.7,29.1z"/>
		<path class="st17" d="M18.6,29.9c-0.1,0-0.2,0-0.3-0.1c-0.2-0.2-0.2-0.5,0-0.7l4.8-5.6c0.2-0.2,0.5-0.2,0.6,0
			c0.2,0.2,0.2,0.5,0,0.7L19,29.7C18.9,29.8,18.8,29.9,18.6,29.9z"/>
		
			<radialGradient id="SVGID_00000143584641055510568340000011462241058274530997_" cx="-362.2621" cy="516.6713" r="0.9992" gradientTransform="matrix(-13.5361 -7.2741 -3.8341 7.1346 -2829.5256 -6299.7329)" gradientUnits="userSpaceOnUse">
			<stop  offset="0" style="stop-color:#BFCCD2;stop-opacity:0.7"/>
			<stop  offset="0.2154" style="stop-color:#97BAC1;stop-opacity:0.5492"/>
			<stop  offset="0.4317" style="stop-color:#76ABB2;stop-opacity:0.3978"/>
			<stop  offset="0.6397" style="stop-color:#5FA0A8;stop-opacity:0.2522"/>
			<stop  offset="0.8338" style="stop-color:#5199A2;stop-opacity:0.1164"/>
			<stop  offset="1" style="stop-color:#4C97A0;stop-opacity:0"/>
		</radialGradient>
		<path style="fill:url(#SVGID_00000143584641055510568340000011462241058274530997_);" d="M112.9,29.3c0,0,0.1,1-2.7,1.3
			c-2.8,0.3-17.7,1.7-19.9,0.1C88.2,29.1,73,13.1,75.6,9.8c2.6-3.3,19.6,2.5,21.8,3.7C99.6,14.8,112.9,29.3,112.9,29.3z"/>
		
			<linearGradient id="SVGID_00000014621252041686769690000017117671752173565839_" gradientUnits="userSpaceOnUse" x1="88.2395" y1="203.6468" x2="91.9847" y2="192.9384" gradientTransform="matrix(1 0 0 -1 0 208)">
			<stop  offset="0" style="stop-color:#41C9B1"/>
			<stop  offset="1" style="stop-color:#2D887A"/>
		</linearGradient>
		<path style="fill:url(#SVGID_00000014621252041686769690000017117671752173565839_);" d="M99.8,12.4c4.2,6.4,6.4,11.8-0.3,14.9
			c-4.3,1.9-11.3-1.9-15.4-8.3C79.4,11.7,81,5.5,85,3.3C89.2,1.2,95.6,6,99.8,12.4z"/>
		
			<linearGradient id="SVGID_00000061460402161372300640000014411144534681019053_" gradientUnits="userSpaceOnUse" x1="96.3494" y1="173.2179" x2="90.878" y2="216.4693" gradientTransform="matrix(1 0 0 -1 0 208)">
			<stop  offset="0" style="stop-color:#3DB39A"/>
			<stop  offset="0.1071" style="stop-color:#41C9B1"/>
			<stop  offset="1" style="stop-color:#7ACA94"/>
		</linearGradient>
		<path style="fill:url(#SVGID_00000061460402161372300640000014411144534681019053_);" d="M104.4,21.8c-0.4,1.8-1.4,3.3-3.1,4
			c-4.3,1.8-11.2-1.9-15.4-8.3c-2.9-4.4-3.7-8.9-2.5-11.9c0.5-1.3,1.5-2.4,2.8-3c4.3-1.8,11.2,1.9,15.4,8.3
			C104.1,14.9,105.1,18.9,104.4,21.8z"/>
		
			<linearGradient id="SVGID_00000047747208322843742230000000263276968469309573_" gradientUnits="userSpaceOnUse" x1="86.2302" y1="189.3699" x2="100.1173" y2="195.9922" gradientTransform="matrix(1 0 0 -1 0 208)">
			<stop  offset="0" style="stop-color:#FFFFFF;stop-opacity:0.3"/>
			<stop  offset="1" style="stop-color:#FFFFFF;stop-opacity:0"/>
		</linearGradient>
		<path style="fill:url(#SVGID_00000047747208322843742230000000263276968469309573_);" d="M104.4,21.8c-0.4,1.8-1.4,3.3-3.1,4
			c-4.3,1.8-11.2-1.9-15.4-8.3c-2.9-4.4-3.7-8.9-2.5-11.9C87.1,5,92.3,6.9,97,10.8C101,14.2,103.7,18.4,104.4,21.8z"/>
		<path class="st17" d="M96.7,18.3c-0.1,0.1-0.3,0.1-0.4,0l-4.5-0.8c-0.4-0.1-0.7-0.4-0.6-0.8c0-0.3,0.4-0.6,0.8-0.5l3.6,0.6
			l-0.8-6.9c0-0.3,0.2-0.7,0.6-0.7c0.4,0,0.7,0.3,0.8,0.6l0.9,7.7c0,0.2-0.1,0.4-0.2,0.5C96.8,18.3,96.8,18.3,96.7,18.3z"/>
		<path class="st46" d="M6.9,45.7l-1,0.9l-1.2-0.5l0.1-0.1l1-0.8L6.9,45.7L6.9,45.7z"/>
		
			<linearGradient id="SVGID_00000116235531134976734990000016479796814481321634_" gradientUnits="userSpaceOnUse" x1="7.5534" y1="164.7251" x2="5.0411" y2="160.2651" gradientTransform="matrix(1 0 0 -1 0 208)">
			<stop  offset="0" style="stop-color:#41C9B1"/>
			<stop  offset="1" style="stop-color:#2D887A"/>
		</linearGradient>
		<path style="fill:url(#SVGID_00000116235531134976734990000016479796814481321634_);" d="M5.8,46.7l0.3,1.5l-1.3-0.5l-0.2-1.5
			L5.8,46.7z"/>
		
			<linearGradient id="SVGID_00000094594392132285689200000005681406866310653619_" gradientUnits="userSpaceOnUse" x1="9.6696" y1="159.296" x2="1.5598" y2="163.7697" gradientTransform="matrix(1 0 0 -1 0 208)">
			<stop  offset="0" style="stop-color:#41C9B1"/>
			<stop  offset="1" style="stop-color:#2D887A"/>
		</linearGradient>
		<path style="fill:url(#SVGID_00000094594392132285689200000005681406866310653619_);" d="M6.9,45.7l0.2,1.5l-1,0.9l-0.3-1.5
			L6.9,45.7z"/>
		
			<radialGradient id="SVGID_00000055687196335766437680000005419570123594678701_" cx="-248.664" cy="429.5803" r="1" gradientTransform="matrix(3.9139 0 0 -3.9774 1103.444 1758.2257)" gradientUnits="userSpaceOnUse">
			<stop  offset="0" style="stop-color:#FFFFFF"/>
			<stop  offset="1" style="stop-color:#90B0FF"/>
		</radialGradient>
		<path style="fill:url(#SVGID_00000055687196335766437680000005419570123594678701_);" d="M129,52.6c0.9,0,1.6-0.7,1.6-1.6
			s-0.7-1.6-1.6-1.6c-0.9,0-1.6,0.7-1.6,1.6S128.1,52.6,129,52.6z"/>
	</g>
</g>
<linearGradient id="SVGID_00000061456933981498863170000002527160876298824360_" gradientUnits="userSpaceOnUse" x1="7.7382" y1="144.5035" x2="27.6838" y2="144.5035" gradientTransform="matrix(1 0 0 -1 0 208)">
	<stop  offset="0" style="stop-color:#7C889D"/>
	<stop  offset="0.1864" style="stop-color:#929EB0"/>
	<stop  offset="0.5363" style="stop-color:#B7C2CF"/>
	<stop  offset="0.82" style="stop-color:#CED9E2"/>
	<stop  offset="1" style="stop-color:#D6E1E9"/>
</linearGradient>
<path style="fill:url(#SVGID_00000061456933981498863170000002527160876298824360_);" d="M18.2,63.5l0,0.3l1.7-0.8l-0.1-1.3
	l-0.2,0.1l0.1,1L18.2,63.5z M17.7,59.4l0,0.3l1.4-0.7l0.1,1l0.2-0.1l-0.1-1.3L17.7,59.4z M17.1,62L17,61.3l0.4-0.2
	c0.2-0.1,0.2,0,0.3,0.1v0.1c0,0.2,0,0.3-0.2,0.4L17.1,62z M17.7,61.8c0.2-0.1,0.3-0.4,0.2-0.6c0-0.1-0.1-0.2-0.2-0.3
	c-0.1-0.1-0.3,0-0.5,0l-0.5,0.2l0.2,1.9l0.2-0.1l-0.1-0.8l0.3-0.1c0.2-0.1,0.3,0,0.3,0.2l0,0.5l0.2-0.1l0-0.4
	C18,61.9,17.9,61.8,17.7,61.8L17.7,61.8z M15.7,62.8l0.7-0.3l0-0.2l-0.7,0.3l0-0.6l0.8-0.4l0-0.2l-1.1,0.5l0.2,1.9l1.1-0.5l0-0.3
	l-0.9,0.4L15.7,62.8z M14.9,63.3v0.1c0,0.3,0,0.4-0.3,0.5h0c-0.2,0.1-0.3,0-0.4-0.3l0-0.5c0-0.4,0-0.5,0.3-0.6h0
	c0.2-0.1,0.3,0,0.3,0.2l0.2-0.1c0-0.4-0.3-0.5-0.6-0.3c-0.1,0.1-0.3,0.2-0.4,0.3c-0.1,0.2-0.2,0.5-0.1,0.9c0,0.4,0.1,0.6,0.3,0.7
	c0.1,0,0.2,0,0.4,0c0.1,0,0.3-0.2,0.3-0.4h0V64l0.2-0.1l-0.1-1l-0.7,0.3l0,0.2L14.9,63.3z M12.7,63.3l0.2-0.1
	c0.2-0.1,0.4-0.1,0.4,0.3l0,0.5c0,0.4-0.1,0.5-0.3,0.6l-0.2,0.1L12.7,63.3z M13.1,64.8c0.5-0.2,0.6-0.7,0.5-1.3
	c0-0.6-0.3-0.9-0.7-0.7l-0.5,0.2l0.2,1.9L13.1,64.8L13.1,64.8z M11.4,64.7l0.7-0.3l0-0.2l-0.7,0.3l0-0.6l0.8-0.4l0-0.2L11,63.8
	l0.2,1.9l1.1-0.5l0-0.2l-0.9,0.4L11.4,64.7z M9.8,64.3l-0.2,0.1l0.2,1.9l1.1-0.5l0-0.2L10,66L9.8,64.3z M8.1,67.1l0.1,1.3l1.7-0.8
	l0-0.3L8.5,68l-0.1-1L8.1,67.1z M7.7,63.9l0.1,1.3L8.1,65l-0.1-1l1.4-0.7l0-0.3L7.7,63.9z"/>
</svg>
