<svg width="24" height="24" viewBox="0 0 24 24" fill="none" xmlns="http://www.w3.org/2000/svg">
<path d="M8.9998 21.8399C9.4798 21.8399 10.1758 21.6239 10.6318 21.4319C11.2558 21.1919 11.8798 21.0479 12.4318 21.0479C12.9358 21.0479 13.5118 21.1919 14.1838 21.4319C14.8078 21.6959 15.3358 21.8399 15.7918 21.8399C16.4158 21.8399 16.9918 21.5519 17.5438 21.0479C17.8798 20.7839 18.3358 20.2079 18.8878 19.4159C19.2958 18.8639 19.6558 18.2159 19.9678 17.5199L20.3038 16.6079C18.7678 15.9599 17.6158 14.4959 17.6158 12.5999C17.5678 10.9679 18.3118 9.69591 19.7998 8.80791C18.9358 7.60791 17.7118 6.95991 16.0798 6.83991C15.4318 6.79191 14.6878 6.93591 13.8238 7.24791C12.8878 7.58391 12.3118 7.75191 12.1438 7.75191C11.9518 7.75191 11.4238 7.60791 10.6798 7.29591C9.8638 7.03191 9.2638 6.88791 8.7838 6.88791C7.9198 6.91191 7.1278 7.10391 6.3838 7.55991C5.6158 7.99191 5.0398 8.59191 4.5838 9.38391C4.0078 10.3199 3.6958 11.4719 3.6958 12.7919C3.6958 13.9199 3.9118 15.1199 4.3678 16.3679C4.7518 17.4959 5.2558 18.4799 5.8558 19.3439C6.4558 20.1839 6.9118 20.7359 7.2958 21.0479C7.8478 21.5759 8.4238 21.8399 8.9998 21.8399ZM12.0238 6.45591C12.0238 6.57591 12.0238 6.69591 12.0478 6.81591C14.1358 7.00791 16.1518 4.72791 16.1518 2.54391V2.15991C15.6478 2.18391 15.0958 2.32791 14.5438 2.61591C13.0078 3.38391 12.0238 4.91991 12.0238 6.45591Z" fill="black"/>
</svg>
