<svg width="24" height="24" viewBox="0 0 24 24" fill="none" xmlns="http://www.w3.org/2000/svg">
<path d="M3.06006 19.4879L7.93206 22.3199L11.9881 19.9679L16.0441 22.3199L20.9401 19.4879V13.8719L17.7001 11.9999L20.9401 10.1279V4.51193L16.0441 1.67993L11.9881 4.03193L7.93206 1.67993L3.06006 4.51193V10.1279L6.27606 11.9999L3.06006 13.8719V19.4879ZM4.71606 18.5279V15.5999L7.28406 17.0639V20.0159L4.71606 18.5279ZM4.71606 9.16793V6.23993L7.28406 7.70393V10.6559L4.71606 9.16793ZM5.36406 14.4479L8.10006 12.8639L10.6681 14.3519L7.93206 15.9119L5.36406 14.4479ZM5.36406 5.08793L7.93206 3.59993L10.5001 5.08793L7.93206 6.55193L5.36406 5.08793ZM8.60406 20.0159V17.0639L11.3401 15.4799V18.4319L8.60406 20.0159ZM8.60406 10.8479V7.70393L11.3401 6.11993V9.26393L8.60406 10.8479ZM9.25206 11.9999L11.9881 10.4159L14.7241 11.9999L11.9881 13.5839L9.25206 11.9999ZM12.6601 18.4319V15.4799L15.3961 17.0639V20.0159L12.6601 18.4319ZM12.6601 9.26393V6.11993L15.3961 7.70393V10.8479L12.6601 9.26393ZM13.3081 14.3519L15.8761 12.8639L18.6121 14.4479L16.0441 15.9119L13.3081 14.3519ZM13.4761 5.08793L16.0441 3.59993L18.6121 5.08793L16.0441 6.55193L13.4761 5.08793ZM16.7161 20.0159V17.0639L19.2841 15.5999V18.5279L16.7161 20.0159ZM16.7161 10.6559V7.70393L19.2841 6.23993V9.16793L16.7161 10.6559Z" fill="black"/>
</svg>
