<svg width="24" height="24" viewBox="0 0 24 24" fill="none" xmlns="http://www.w3.org/2000/svg">
<path d="M11.9999 21.3599C17.2559 21.3599 21.3599 17.0879 21.3599 11.9999C21.3599 6.76789 17.2319 2.63989 11.9999 2.63989C6.76789 2.63989 2.63989 6.76789 2.63989 11.9999C2.63989 17.2319 6.76789 21.3599 11.9999 21.3599ZM4.55989 11.9999C4.55989 7.82389 7.82389 4.55989 11.9999 4.55989C16.1759 4.55989 19.4399 7.82389 19.4399 11.9999C19.4399 16.0559 16.1759 19.4399 11.9999 19.4399C7.82389 19.4399 4.55989 16.1759 4.55989 11.9999ZM8.23189 13.4159C8.18389 15.2159 9.47989 16.5359 11.3519 16.7759V17.9759H12.6719V16.7759C14.4959 16.5359 15.7919 15.3359 15.7919 13.7759C15.7919 12.3119 14.7839 11.4719 13.1039 11.2319L11.5439 11.0159C10.6079 10.8959 10.2479 10.6559 10.2479 9.93589C10.2479 8.97589 10.8239 8.73589 12.0239 8.73589C13.3679 8.73589 13.7519 9.07189 13.7279 10.2719H15.5759C15.5759 8.71189 14.3519 7.43989 12.6719 7.17589V5.97589H11.3519V7.17589C9.64789 7.41589 8.49589 8.59189 8.49589 10.0559C8.49589 11.4719 9.35989 12.2879 10.9199 12.5039L12.4799 12.7199C13.5599 12.8639 13.9199 13.1279 13.9199 13.9199C13.9199 14.9279 13.4159 15.1919 12.0239 15.1919C10.4399 15.1919 10.0079 14.8079 10.0319 13.4159H8.23189Z" fill="black"/>
</svg>
