<svg width="24" height="24" viewBox="0 0 24 24" fill="none" xmlns="http://www.w3.org/2000/svg">
<path d="M9.14414 16.1519L14.1841 11.1119C14.1601 11.7119 14.1121 12.2879 14.1121 12.8639L14.1361 14.3759H15.7921V8.20789H9.64814V9.88789H11.1601C11.6881 9.88789 12.2881 9.88789 12.8641 9.83989L7.84814 14.8559L9.14414 16.1519ZM2.64014 11.9999C2.64014 17.2319 6.76814 21.3599 12.0001 21.3599C17.2561 21.3599 21.3601 17.0879 21.3601 11.9999C21.3601 6.76789 17.2321 2.63989 12.0001 2.63989C6.76814 2.63989 2.64014 6.76789 2.64014 11.9999ZM4.56014 11.9999C4.56014 7.82389 7.82414 4.55989 12.0001 4.55989C16.1761 4.55989 19.4401 7.82389 19.4401 11.9999C19.4401 16.0559 16.1761 19.4399 12.0001 19.4399C7.82414 19.4399 4.56014 16.1759 4.56014 11.9999Z" fill="black"/>
</svg>
