<svg width="24" height="24" viewBox="0 0 24 24" fill="none" xmlns="http://www.w3.org/2000/svg">
<path d="M12.0001 17.2799L16.3441 12.9359L15.1441 11.7599L14.0881 12.8159C13.7041 13.1999 13.2961 13.6319 12.9121 14.0639V6.95989H11.0881V14.1119C10.6801 13.6559 10.2961 13.2239 9.88814 12.8159L8.80814 11.7599L7.63214 12.9359L12.0001 17.2799ZM2.64014 11.9999C2.64014 17.2319 6.76814 21.3599 12.0001 21.3599C17.2561 21.3599 21.3601 17.0879 21.3601 11.9999C21.3601 6.76789 17.2321 2.63989 12.0001 2.63989C6.76814 2.63989 2.64014 6.76789 2.64014 11.9999ZM4.56014 11.9999C4.56014 7.82389 7.82414 4.55989 12.0001 4.55989C16.1761 4.55989 19.4401 7.82389 19.4401 11.9999C19.4401 16.0559 16.1761 19.4399 12.0001 19.4399C7.82414 19.4399 4.56014 16.1759 4.56014 11.9999Z" fill="black"/>
</svg>
