<svg width="24" height="24" viewBox="0 0 24 24" fill="none" xmlns="http://www.w3.org/2000/svg">
<path d="M12.9361 16.3679L17.2801 11.9999L12.9361 7.65589L11.7601 8.85589L12.8161 9.91189C13.2001 10.2959 13.6321 10.7039 14.0641 11.0879H6.96014V12.9119H14.1121C13.6561 13.3199 13.2241 13.7039 12.8161 14.1119L11.7601 15.1919L12.9361 16.3679ZM2.64014 11.9999C2.64014 17.2319 6.76814 21.3599 12.0001 21.3599C17.2561 21.3599 21.3601 17.0879 21.3601 11.9999C21.3601 6.76789 17.2321 2.63989 12.0001 2.63989C6.76814 2.63989 2.64014 6.76789 2.64014 11.9999ZM4.56014 11.9999C4.56014 7.82389 7.82414 4.55989 12.0001 4.55989C16.1761 4.55989 19.4401 7.82389 19.4401 11.9999C19.4401 16.0559 16.1761 19.4399 12.0001 19.4399C7.82414 19.4399 4.56014 16.1759 4.56014 11.9999Z" fill="black"/>
</svg>
