<svg width="24" height="24" viewBox="0 0 24 24" fill="none" xmlns="http://www.w3.org/2000/svg">
<path d="M9.64804 21.3719C13.584 21.3719 16.68 20.0999 16.68 17.8679V16.4279C19.392 16.0439 21.408 14.8919 21.408 13.0919V6.10793C21.408 3.87593 18.408 2.62793 14.376 2.62793C10.512 2.62793 7.32004 3.85193 7.32004 6.10793V7.54793C4.58404 7.95593 2.59204 9.08393 2.59204 10.8839V17.8679C2.59204 20.0999 5.64004 21.3719 9.64804 21.3719ZM4.27204 17.8679V16.8119C5.54404 17.5319 7.46404 17.9159 9.64804 17.9159C11.808 17.9159 13.728 17.5319 15 16.8119V17.8679C15 18.8759 13.08 19.6919 9.64804 19.6919C6.14404 19.6919 4.27204 18.8759 4.27204 17.8679ZM4.27204 14.4119V13.2839C5.54404 14.0039 7.46404 14.3879 9.64804 14.3879C11.808 14.3879 13.728 14.0039 15 13.2839V14.4119C15 15.4199 13.08 16.2359 9.64804 16.2359C6.14404 16.2359 4.27204 15.4199 4.27204 14.4119ZM4.27204 10.8839C4.27204 9.87593 6.21604 9.08393 9.64804 9.08393C13.176 9.08393 15 9.87593 15 10.8839C15 11.8919 13.08 12.7079 9.64804 12.7079C6.14404 12.7079 4.27204 11.8919 4.27204 10.8839ZM9.00004 6.10793C9.00004 5.09993 10.944 4.30793 14.376 4.30793C17.904 4.30793 19.728 5.09993 19.728 6.10793C19.728 7.11593 17.328 8.17193 13.656 7.90793C12.72 7.64393 11.64 7.47593 10.44 7.42793C9.48004 7.09193 9.00004 6.61193 9.00004 6.10793ZM16.224 9.51593C17.616 9.34793 18.84 9.01193 19.728 8.50793V9.63593C19.728 10.3799 18.72 11.0039 16.68 11.2919V10.8839C16.68 10.3799 16.512 9.92393 16.224 9.51593ZM16.68 14.7479V12.9719C17.856 12.8039 18.912 12.4919 19.728 12.0359V13.0919C19.728 13.8359 18.72 14.4599 16.68 14.7479Z" fill="black"/>
</svg>
