<svg width="24" height="24" viewBox="0 0 24 24" fill="none" xmlns="http://www.w3.org/2000/svg">
<path d="M4.46392 19.9201H11.7599V18.2401H9.91192L10.4159 15.8401H11.7599V14.0401H3.88792C3.86392 14.0401 3.83992 14.0161 3.83992 13.9921V4.96812C3.83992 4.94412 3.86392 4.92012 3.88792 4.92012H18.6719C18.6959 4.92012 18.7199 4.94412 18.7199 4.96812V6.12012H20.6399V4.92012C20.6399 3.93612 19.8239 3.12012 18.8399 3.12012H3.71992C2.73592 3.12012 1.91992 3.93612 1.91992 4.92012V14.0401C1.91992 15.0241 2.73592 15.8401 3.71992 15.8401H8.80792L8.30392 18.2401H6.35992C5.39992 18.2401 4.58392 18.9841 4.46392 19.9201ZM13.3199 19.0801C13.3199 20.0641 14.1359 20.8801 15.1199 20.8801H20.2799C21.2639 20.8801 22.0799 20.0641 22.0799 19.0801V9.60012C22.0799 8.61612 21.2639 7.80012 20.2799 7.80012H15.1199C14.1359 7.80012 13.3199 8.61612 13.3199 9.60012V19.0801ZM15.1199 19.1521V9.52812C15.1199 9.50412 15.1439 9.48012 15.1679 9.48012H20.2319C20.2559 9.48012 20.2799 9.50412 20.2799 9.52812V19.1521C20.2799 19.1761 20.2559 19.2001 20.2319 19.2001H15.1679C15.1439 19.2001 15.1199 19.1761 15.1199 19.1521ZM16.9199 17.6881C16.9199 18.1201 17.2559 18.4801 17.7119 18.4801C18.1439 18.4801 18.4799 18.1201 18.4799 17.6881C18.4799 17.2561 18.1439 16.9201 17.7119 16.9201C17.2559 16.9201 16.9199 17.2561 16.9199 17.6881Z" fill="black"/>
</svg>
