<svg width="24" height="24" viewBox="0 0 24 24" fill="none" xmlns="http://www.w3.org/2000/svg">
<path d="M10.4162 16.7039H10.4642C12.4562 16.7039 13.9922 15.5279 13.9922 13.9919C13.9922 13.0559 13.4402 12.2639 12.5522 11.9999V11.7119C13.2242 11.4479 13.6802 10.7279 13.6802 9.93589C13.6802 8.47189 12.2162 7.34389 10.4402 7.34389H10.4162C8.64019 7.34389 7.1762 8.47189 7.1762 9.93589C7.1762 10.7519 7.6562 11.4719 8.3522 11.7359V11.9999C7.4642 12.2639 6.8882 13.0319 6.8882 13.9919C6.8882 15.5279 8.42419 16.7039 10.4162 16.7039ZM4.2002 21.3599H10.4402C15.6962 21.3599 19.8002 17.0879 19.8002 11.9999C19.8002 6.76789 15.6722 2.63989 10.4402 2.63989H4.2002V4.55989H10.4402C14.6162 4.55989 17.8802 7.82389 17.8802 11.9999C17.8802 16.0559 14.6162 19.4399 10.4402 19.4399H4.2002V21.3599ZM8.92819 14.2079V13.6319C8.92819 13.0319 9.33619 12.7919 10.3442 12.7919H10.5842C11.6162 12.7919 12.0242 13.0319 12.0242 13.6319V14.2079C12.0242 14.8079 11.6162 15.0239 10.5842 15.0239H10.3442C9.33619 15.0239 8.92819 14.8079 8.92819 14.2079ZM9.0242 10.3919V9.81589C9.0242 9.26389 9.38419 9.04789 10.3202 9.04789H10.5362C11.4482 9.04789 11.8322 9.26389 11.8322 9.81589V10.3919C11.8322 10.9439 11.4482 11.1599 10.5362 11.1599H10.3202C9.38419 11.1599 9.0242 10.9439 9.0242 10.3919Z" fill="black"/>
</svg>
