<svg width="24" height="24" viewBox="0 0 24 24" fill="none" xmlns="http://www.w3.org/2000/svg">
<path d="M12.0002 19.6801C15.9842 19.6801 20.2802 16.3921 22.3202 12.0001C20.2802 7.60807 15.9842 4.32007 12.0002 4.32007C8.01618 4.32007 3.72018 7.60807 1.68018 12.0001C3.72018 16.3921 8.01618 19.6801 12.0002 19.6801ZM3.79218 12.0001C5.73618 8.40007 8.90418 6.12007 12.0002 6.12007C15.0962 6.12007 18.2642 8.40007 20.2082 12.0001C18.2642 15.6001 15.0962 17.8801 12.0002 17.8801C8.90418 17.8801 5.73618 15.6001 3.79218 12.0001ZM8.40018 12.0001C8.40018 13.9921 10.0082 15.6001 12.0002 15.6001C13.9922 15.6001 15.6002 13.9921 15.6002 12.0001C15.6002 10.0081 13.9922 8.40007 12.0002 8.40007C10.0082 8.40007 8.40018 10.0081 8.40018 12.0001ZM10.0802 12.0001C10.0802 10.9441 10.9442 10.0801 12.0002 10.0801C13.0562 10.0801 13.9202 10.9441 13.9202 12.0001C13.9202 13.0561 13.0562 13.9201 12.0002 13.9201C10.9442 13.9201 10.0802 13.0561 10.0802 12.0001Z" fill="black"/>
</svg>
