<svg width="24" height="24" viewBox="0 0 24 24" fill="none" xmlns="http://www.w3.org/2000/svg">
<path d="M10.692 20.6761C10.932 20.6761 11.148 20.6521 11.388 20.6521L9.46804 18.7321L8.55604 18.6601C6.15604 18.3961 4.90804 17.7001 4.90804 16.8841V15.6361C6.25204 16.4041 8.31604 16.8361 10.692 16.8361H11.484L13.332 14.9881L14.676 16.3321C16.908 15.7081 18.396 14.5321 18.396 12.9241V5.72406C18.396 3.27605 15.06 1.95605 10.692 1.95605C6.44404 1.95605 2.98804 3.27605 2.98804 5.72406V16.8841C2.98804 19.3321 6.37204 20.8201 10.692 20.6761ZM4.90804 13.1641V11.9161C6.25204 12.7081 8.31604 13.1401 10.692 13.1401C13.044 13.1401 15.108 12.7081 16.476 11.9161V13.1641C16.476 14.8921 12.228 15.1561 10.692 15.1561C6.94804 15.1561 4.90804 14.2681 4.90804 13.1641ZM4.90804 9.44406V8.22006C6.25204 8.98806 8.31604 9.42006 10.692 9.42006C13.02 9.42006 15.108 8.98806 16.476 8.19606V9.44406C16.476 10.5481 14.364 11.4601 10.692 11.4601C6.94804 11.4601 4.90804 10.5481 4.90804 9.44406ZM4.90804 5.72406C4.90804 4.71605 6.97204 3.87605 10.692 3.87605C14.532 3.87605 16.476 4.69205 16.476 5.72406C16.476 6.85206 14.364 7.74006 10.692 7.74006C6.94804 7.74006 4.90804 6.85206 4.90804 5.72406ZM11.988 18.6601L15.348 22.0441L21.012 16.3561L19.668 15.0121L15.348 19.3081L13.332 17.3161L11.988 18.6601Z" fill="black"/>
</svg>
