<svg width="24" height="24" viewBox="0 0 24 24" fill="none" xmlns="http://www.w3.org/2000/svg">
<path d="M5.80818 17.9761V19.6801H18.1922V17.9761C18.1922 14.4721 15.9602 13.0321 13.5842 13.0321H10.4162C7.58418 13.0321 5.80818 14.9041 5.80818 17.9761ZM1.68018 19.6801H3.60018V18.3361C3.60018 17.4241 3.81618 16.9441 4.44018 16.7281C4.56018 16.0081 4.72818 15.4081 4.99218 14.8561C3.14418 15.0241 1.68018 16.3441 1.68018 19.0801V19.6801ZM1.68018 10.4401C1.68018 12.0961 3.02418 13.4401 4.68018 13.4401C6.33618 13.4401 7.68018 12.0961 7.68018 10.4401C7.68018 8.78407 6.33618 7.44007 4.68018 7.44007C3.02418 7.44007 1.68018 8.78407 1.68018 10.4401ZM3.24018 10.4401C3.24018 9.64807 3.88818 9.00007 4.68018 9.00007C5.47218 9.00007 6.12018 9.64807 6.12018 10.4401C6.12018 11.2321 5.47218 11.8801 4.68018 11.8801C3.88818 11.8801 3.24018 11.2321 3.24018 10.4401ZM7.77618 18.0481V16.8961C7.77618 15.3601 8.35218 14.8321 10.0082 14.8321H13.9922C15.6242 14.8321 16.2242 15.3601 16.2242 16.8961V18.0481H7.77618ZM8.04018 8.13607C8.04018 10.3201 9.84018 11.9761 12.0002 11.9761C14.1602 11.9761 15.9602 10.3201 15.9602 8.13607C15.9602 5.97607 14.1602 4.32007 12.0002 4.32007C9.84018 4.32007 8.04018 5.97607 8.04018 8.13607ZM9.84018 8.13607C9.84018 6.93607 10.8002 6.00007 12.0002 6.00007C13.2002 6.00007 14.1602 6.93607 14.1602 8.13607C14.1602 9.36007 13.2002 10.2961 12.0002 10.2961C10.8002 10.2961 9.84018 9.36007 9.84018 8.13607ZM16.3202 10.4401C16.3202 12.0961 17.6642 13.4401 19.3202 13.4401C20.9762 13.4401 22.3202 12.0961 22.3202 10.4401C22.3202 8.78407 20.9762 7.44007 19.3202 7.44007C17.6642 7.44007 16.3202 8.78407 16.3202 10.4401ZM17.8802 10.4401C17.8802 9.64807 18.5282 9.00007 19.3202 9.00007C20.1122 9.00007 20.7602 9.64807 20.7602 10.4401C20.7602 11.2321 20.1122 11.8801 19.3202 11.8801C18.5282 11.8801 17.8802 11.2321 17.8802 10.4401ZM19.0082 14.8561C19.2722 15.4081 19.4402 16.0081 19.5602 16.7281C20.1842 16.9441 20.4002 17.4241 20.4002 18.3361V19.6801H22.3202V19.0801C22.3202 16.3441 20.8562 15.0241 19.0082 14.8561Z" fill="black"/>
</svg>
