<svg width="24" height="24" viewBox="0 0 24 24" fill="none" xmlns="http://www.w3.org/2000/svg">
<path d="M9.96014 21.3599H14.0401C19.6321 21.3599 21.3601 19.5839 21.3601 14.0399V9.95989C21.3601 4.41589 19.6321 2.63989 14.0401 2.63989H9.96014C4.36814 2.63989 2.64014 4.41589 2.64014 9.95989V14.0399C2.64014 19.5839 4.36814 21.3599 9.96014 21.3599ZM4.29614 14.0399V9.95989C4.29614 5.35189 5.32814 4.29589 9.96014 4.29589H14.0401C18.6721 4.29589 19.7041 5.35189 19.7041 9.95989V14.0399C19.7041 18.6479 18.6721 19.7039 14.0401 19.7039H9.96014C5.32814 19.7039 4.29614 18.6479 4.29614 14.0399ZM7.20014 11.9999C7.20014 14.6639 9.33614 16.7999 12.0001 16.7999C14.6641 16.7999 16.8001 14.6639 16.8001 11.9999C16.8001 9.33589 14.6641 7.19989 12.0001 7.19989C9.33614 7.19989 7.20014 9.33589 7.20014 11.9999ZM8.88014 11.9999C8.88014 10.2719 10.2721 8.87989 12.0001 8.87989C13.7281 8.87989 15.1201 10.2719 15.1201 11.9999C15.1201 13.7279 13.7281 15.1199 12.0001 15.1199C10.2721 15.1199 8.88014 13.7279 8.88014 11.9999ZM15.8881 7.00789C15.8881 7.60789 16.3921 8.11189 16.9921 8.11189C17.5921 8.11189 18.0961 7.60789 18.0961 7.00789C18.0961 6.40789 17.5921 5.90389 16.9921 5.90389C16.3921 5.90389 15.8881 6.40789 15.8881 7.00789Z" fill="black"/>
</svg>
