<svg width="24" height="24" viewBox="0 0 24 24" fill="none" xmlns="http://www.w3.org/2000/svg">
<path d="M7.77593 21.4921L9.21593 20.0521L7.03193 17.8921L8.06393 16.8601L10.2239 19.0201L11.6639 17.5801L9.50393 15.4201L13.4159 11.5081C14.1599 11.9401 15.0479 12.2041 16.0079 12.2041C18.8159 12.2041 20.9759 9.99606 20.9759 7.35606C20.9759 4.71606 18.8159 2.50806 16.0079 2.50806C13.1999 2.50806 11.0399 4.71606 11.0399 7.35606C11.0399 8.38806 11.3519 9.32406 11.9279 10.1161L3.02393 19.0201L4.46393 20.4601L5.59193 19.3321L7.77593 21.4921ZM13.0799 7.35606C13.0799 5.72406 14.3759 4.42806 16.0079 4.42806C17.6399 4.42806 18.9359 5.72406 18.9359 7.35606C18.9359 8.98806 17.6399 10.2841 16.0079 10.2841C14.3759 10.2841 13.0799 8.98806 13.0799 7.35606Z" fill="black"/>
</svg>
