<svg width="24" height="24" viewBox="0 0 24 24" fill="none" xmlns="http://www.w3.org/2000/svg">
<path d="M8.25604 17.5439V21.8399H15.744V17.5439C15.744 16.6559 15.888 16.3679 16.872 15.2879L17.424 14.6639C18.816 13.1039 19.512 11.4479 19.512 9.52791C19.512 5.18391 15.984 2.15991 12 2.15991C8.01604 2.15991 4.48804 5.18391 4.48804 9.52791C4.48804 11.4479 5.18404 13.1039 6.57604 14.6639L7.12804 15.2879C8.11204 16.3679 8.25604 16.6559 8.25604 17.5439ZM6.40804 9.52791C6.40804 6.21591 9.02404 3.95991 12 3.95991C14.976 3.95991 17.592 6.21591 17.592 9.52791C17.592 11.0159 17.064 12.2639 15.984 13.4639L15.432 14.0879C14.4 15.2639 13.92 16.0559 13.848 17.1599H12.912V12.4799H11.112V17.1599H10.152C10.08 16.0559 9.60004 15.2639 8.56804 14.0879L8.01604 13.4639C6.93604 12.2639 6.40804 11.0159 6.40804 9.52791ZM10.176 20.0399V18.8399H13.824V20.0399H10.176Z" fill="black"/>
</svg>
