<svg width="24" height="24" viewBox="0 0 24 24" fill="none" xmlns="http://www.w3.org/2000/svg">
<path d="M15.8039 22.3199C16.6679 22.3199 17.4839 21.7919 17.9879 21.1199C18.5879 20.3519 20.5799 19.9919 20.5799 19.0079C20.5799 18.5279 20.1959 18.1919 19.9319 17.8079C19.5719 17.3759 19.7399 16.6079 19.2119 16.1519C19.1159 16.0559 18.9719 15.9839 18.8759 15.9119C18.9719 15.5279 19.0439 15.0959 19.0439 14.6879C19.0439 11.1119 15.4919 9.52793 15.4919 6.93593V6.16793C15.4919 3.98393 15.1319 1.67993 12.4199 1.67993C10.0679 1.67993 9.20392 2.99993 9.20392 5.20793C9.20392 5.83193 9.29992 6.43193 9.29992 7.03193C9.29992 10.0319 5.36392 11.9519 5.77192 15.6239C5.53192 15.8879 5.33992 16.1999 5.09992 16.4639C4.61992 16.9439 3.51592 16.7279 3.51592 17.9519C3.51592 18.2879 3.65992 18.6239 3.65992 18.9839C3.65992 19.3439 3.41992 19.7039 3.41992 20.1119C3.41992 20.6159 3.73192 20.9519 4.21192 21.0719C5.05192 21.3119 5.93992 21.1919 6.75592 21.5999C7.33192 21.8879 7.90792 22.0799 8.53192 22.0799C9.13192 22.0799 10.0199 21.7919 10.1879 21.1199C10.8359 21.0479 11.4359 20.8319 12.0839 20.8319C12.7559 20.8319 13.4279 21.0479 14.1239 20.9999C14.3639 21.8159 14.9399 22.3199 15.8039 22.3199ZM3.92392 20.0879C3.92392 19.7039 4.11592 19.3919 4.11592 18.9839C4.11592 18.6239 3.99592 18.2879 3.99592 17.9279C3.99592 17.8079 4.01992 17.7119 4.06792 17.6159C4.33192 17.1359 5.05192 17.1839 5.43592 16.7999C5.60392 16.6319 5.74792 16.3919 5.91592 16.1999C6.08392 16.0079 6.15592 15.8879 6.44392 15.8399C6.92392 15.8399 7.16392 16.0319 7.45192 16.4399C7.76392 16.8719 7.97992 17.3759 8.21992 17.8319C8.41192 18.1919 8.67592 18.5279 8.91592 18.8399C9.22792 19.2959 9.85192 19.9199 9.85192 20.4959C9.85192 21.1919 9.25192 21.5999 8.57992 21.5999C8.02792 21.5999 7.49992 21.4319 6.97192 21.1919C6.41992 20.9039 5.77192 20.8079 5.14792 20.7359C4.83592 20.6879 4.16392 20.6639 3.97192 20.3759C3.92392 20.2799 3.92392 20.1839 3.92392 20.0879ZM7.09192 14.2319C7.09192 13.1759 7.71592 11.9759 8.26792 11.0879C7.97992 12.1199 7.33192 12.6239 7.33192 13.8479C7.33192 14.3519 7.49992 14.8319 7.78792 15.2159C7.85992 12.7199 9.70792 10.7759 9.89992 8.30393C10.3079 8.68793 10.9319 9.16793 11.5319 9.16793C12.0839 9.16793 13.5239 8.37593 13.9319 7.96793C14.2679 9.26393 14.7719 10.5839 15.3959 11.7599C15.8279 12.5759 16.1639 13.4399 16.3319 14.3519C16.4999 14.3279 16.6199 14.3759 16.7639 14.3999C16.8839 14.1119 16.9319 13.7999 16.9319 13.5119C16.9319 12.1199 15.7319 10.8239 15.7319 10.7759C15.7319 10.7759 15.7079 10.7519 15.7319 10.7279C16.5479 11.4479 17.2199 12.7199 17.2199 13.8239C17.2199 14.0639 17.2199 14.2799 17.1479 14.5199C17.5799 14.6159 18.4439 15.2159 18.4439 15.7199L18.4199 15.8399L18.2519 15.8159L18.2759 15.7199C18.2759 15.1199 16.8839 14.6639 16.3799 14.6639C16.0439 14.6639 15.8519 14.9759 15.8039 15.2639L15.5639 15.3839H15.5399C14.6759 15.8639 14.6999 17.1839 14.6519 18.0719C14.6279 18.3839 14.4599 19.0079 14.3399 19.3439C13.5959 19.7999 12.7319 20.1359 11.8439 20.1359C11.2199 20.1359 10.5959 19.9679 10.0679 19.6319C9.87592 19.3199 9.70792 19.0079 9.44392 18.7439C9.75592 18.6719 10.0199 18.5519 10.0199 18.1919C10.0199 16.5839 7.09192 16.2719 7.09192 14.2319ZM9.65992 5.75993C9.65992 5.35193 9.87592 4.75193 10.3319 4.75193C10.8839 4.75193 11.1239 5.49593 11.1239 5.92793V6.02393C10.9559 6.04793 10.8119 6.11993 10.6919 6.19193C10.6919 5.99993 10.6199 5.49593 10.3079 5.49593C10.1159 5.49593 10.0199 5.83193 10.0199 5.99993C10.0199 6.19193 10.0679 6.43193 10.2119 6.59993C10.1639 6.62393 10.0199 6.74393 9.94792 6.79193C9.70792 6.50393 9.65992 6.11993 9.65992 5.75993ZM9.68392 7.51193C9.68392 7.24793 10.3799 6.79193 10.4279 6.81593C10.6919 6.52793 11.0279 6.26393 11.5079 6.26393C11.8919 6.26393 13.8359 7.00793 13.8359 7.39193C13.8359 7.89593 13.3319 8.13593 12.9239 8.27993C12.3719 8.49593 12.1799 8.87993 11.5079 8.87993C11.0519 8.87993 9.68392 7.96793 9.68392 7.51193ZM9.85192 7.58393C10.3559 7.84793 10.8599 8.37593 11.3879 8.37593C12.2279 8.37593 13.1879 7.51193 13.4999 7.51193L13.4759 7.34393C13.0439 7.34393 12.2519 8.18393 11.3639 8.18393C10.9319 8.18393 10.4039 7.63193 9.85192 7.36793V7.58393ZM11.8679 5.99993C11.8679 5.39993 12.1079 4.53593 12.8519 4.53593C13.4999 4.53593 13.9079 5.23193 13.9079 5.80793C13.9079 6.14393 13.8119 6.47993 13.6199 6.74393C13.4519 6.71993 13.2839 6.59993 13.1159 6.55193C13.2119 6.38393 13.2359 6.16793 13.2359 5.97593C13.2359 5.71193 13.1159 5.32793 12.7799 5.32793C12.3719 5.32793 12.3239 5.87993 12.3239 6.19193C12.1559 6.09593 12.0119 6.02393 11.8679 5.99993ZM14.5559 20.6159C14.5559 19.7759 15.0839 18.9599 15.1319 18.0719C15.1319 17.4239 15.1799 16.4879 15.5639 15.9359C15.6599 15.8879 15.7319 15.8399 15.7799 15.7919C15.9239 16.2959 16.0919 16.8719 16.7399 16.8719C17.1479 16.8719 17.6999 16.6079 17.9639 16.3199H18.1799C18.3479 16.3199 18.5399 16.3199 18.7079 16.3919C18.7799 16.3919 18.8519 16.4399 18.8999 16.4879C19.2839 16.7519 19.1879 17.7119 19.5719 18.1439C19.7879 18.3839 20.0999 18.6959 20.0999 19.0319C20.0999 19.4159 18.1319 20.2079 17.6039 20.8559C17.1719 21.3839 16.5479 21.8399 15.8279 21.8399C15.1319 21.8399 14.5559 21.3359 14.5559 20.6159Z" fill="black"/>
</svg>
