<svg width="24" height="24" viewBox="0 0 24 24" fill="none" xmlns="http://www.w3.org/2000/svg">
<path d="M2.64014 9.47989H21.3601V2.63989H2.66414L2.64014 9.47989ZM4.32014 7.79989L4.34414 4.31989H10.2001C9.88814 4.82389 9.72014 5.42389 9.72014 6.07189C9.72014 6.69589 9.88814 7.29589 10.2001 7.79989H4.32014ZM7.63214 17.0159L12.0001 21.3599L16.3441 17.0159L15.1441 15.8399L14.0881 16.8959C13.7041 17.2799 13.2961 17.7119 12.9121 18.1439V11.0399H11.0881V18.1919C10.6801 17.7359 10.2961 17.3039 9.88814 16.8959L8.80814 15.8399L7.63214 17.0159ZM11.4001 6.07189C11.4001 5.11189 12.1921 4.31989 13.0801 4.31989H19.6801V7.79989H13.0801C12.1921 7.79989 11.4001 7.00789 11.4001 6.07189ZM12.4081 6.07189C12.4081 6.55189 12.8161 6.95989 13.2961 6.95989C13.7761 6.95989 14.2081 6.55189 14.2081 6.07189C14.2081 5.56789 13.7761 5.15989 13.2961 5.15989C12.8161 5.15989 12.4081 5.56789 12.4081 6.07189Z" fill="black"/>
</svg>
