<svg width="24" height="24" viewBox="0 0 24 24" fill="none" xmlns="http://www.w3.org/2000/svg">
<path d="M17.4722 22.3199L22.3202 17.4719L13.0322 8.18393L13.7042 7.51193L12.0002 5.80793L11.3282 6.47993L9.40818 4.58393L10.1042 3.88793L8.40018 2.18393L7.70418 2.87993L6.50418 1.67993L1.68018 6.52793L17.4722 22.3199ZM4.05618 6.52793L6.50418 4.05593L12.5282 10.0559C11.9522 10.1999 11.4002 10.5119 10.9202 10.9679C10.4882 11.3999 10.2002 11.9519 10.0562 12.5279L4.05618 6.52793ZM12.0482 14.5439C11.4242 13.8959 11.4722 12.8159 12.1202 12.1439C12.8162 11.4719 13.8962 11.4719 14.5202 12.0719L19.9442 17.4719L17.4722 19.9439L12.0482 14.5439ZM12.6002 13.5119C12.6002 13.9919 13.0082 14.3999 13.4882 14.3999C13.9682 14.3999 14.4002 13.9919 14.4002 13.5119C14.4002 13.0079 13.9682 12.5999 13.4882 12.5999C13.0082 12.5999 12.6002 13.0079 12.6002 13.5119Z" fill="black"/>
</svg>
