<svg width="24" height="24" viewBox="0 0 24 24" fill="none" xmlns="http://www.w3.org/2000/svg">
<path d="M11.9999 21.3599C17.2559 21.3599 21.3599 17.0879 21.3599 11.9999C21.3599 6.76789 17.2319 2.63989 11.9999 2.63989C6.76789 2.63989 2.63989 6.76789 2.63989 11.9999C2.63989 17.2319 6.76789 21.3599 11.9999 21.3599ZM4.55989 11.9999C4.55989 7.82389 7.82389 4.55989 11.9999 4.55989C16.1759 4.55989 19.4399 7.82389 19.4399 11.9999C19.4399 16.0559 16.1759 19.4399 11.9999 19.4399C7.82389 19.4399 4.55989 16.1759 4.55989 11.9999ZM8.73589 13.7759C8.80789 15.5519 10.2719 16.7039 12.1439 16.7039C14.5199 16.7039 15.7919 14.8319 15.7679 11.9039C15.7439 9.04789 14.3999 7.34389 12.1199 7.34389C10.3919 7.34389 8.85589 8.66389 8.85589 10.5119C8.85589 12.2159 10.1759 13.5119 11.8079 13.5119C12.5039 13.5119 13.2239 13.2719 13.6319 12.7919H13.8959C13.8959 14.3999 13.2959 15.0479 12.0959 15.0479C11.1359 15.0479 10.6799 14.6399 10.6079 13.7759H8.73589ZM10.7519 10.7999V10.0559C10.7519 9.33589 11.1359 9.04789 12.0719 9.04789H12.3119C13.2479 9.04789 13.6319 9.33589 13.6319 10.0559V10.7999C13.6319 11.5199 13.2479 11.8079 12.3119 11.8079H12.0719C11.1359 11.8079 10.7519 11.5199 10.7519 10.7999Z" fill="black"/>
</svg>
