<svg width="24" height="24" viewBox="0 0 24 24" fill="none" xmlns="http://www.w3.org/2000/svg">
<path d="M13.704 16.7039C16.08 16.7039 17.352 14.8319 17.328 11.9039C17.304 9.04789 15.96 7.34389 13.68 7.34389C11.952 7.34389 10.416 8.66389 10.416 10.5119C10.416 12.2159 11.736 13.5119 13.368 13.5119C14.064 13.5119 14.784 13.2719 15.192 12.7919H15.456C15.456 14.3999 14.856 15.0479 13.656 15.0479C12.696 15.0479 12.24 14.6399 12.168 13.7759H10.296C10.368 15.5519 11.832 16.7039 13.704 16.7039ZM4.19995 11.9999C4.19995 17.2319 8.32795 21.3599 13.56 21.3599H19.7999V19.4399H13.56C9.38395 19.4399 6.11995 16.1759 6.11995 11.9999C6.11995 7.94389 9.38395 4.55989 13.56 4.55989H19.7999V2.63989H13.56C8.30395 2.63989 4.19995 6.91189 4.19995 11.9999ZM12.312 10.7999V10.0559C12.312 9.33589 12.696 9.04789 13.632 9.04789H13.872C14.808 9.04789 15.192 9.33589 15.192 10.0559V10.7999C15.192 11.5199 14.808 11.8079 13.872 11.8079H13.632C12.696 11.8079 12.312 11.5199 12.312 10.7999Z" fill="black"/>
</svg>
