<svg width="24" height="24" viewBox="0 0 24 24" fill="none" xmlns="http://www.w3.org/2000/svg">
<path d="M10.584 16.7039C12.96 16.7039 14.232 14.8319 14.208 11.9039C14.184 9.04789 12.84 7.34389 10.56 7.34389C8.83195 7.34389 7.29595 8.66389 7.29595 10.5119C7.29595 12.2159 8.61595 13.5119 10.248 13.5119C10.944 13.5119 11.664 13.2719 12.072 12.7919H12.336C12.336 14.3999 11.736 15.0479 10.536 15.0479C9.57595 15.0479 9.11995 14.6399 9.04795 13.7759H7.17595C7.24795 15.5519 8.71195 16.7039 10.584 16.7039ZM4.19995 21.3599H10.44C15.696 21.3599 19.7999 17.0879 19.7999 11.9999C19.7999 6.76789 15.672 2.63989 10.44 2.63989H4.19995V4.55989H10.44C14.616 4.55989 17.88 7.82389 17.88 11.9999C17.88 16.0559 14.616 19.4399 10.44 19.4399H4.19995V21.3599ZM9.19195 10.7999V10.0559C9.19195 9.33589 9.57595 9.04789 10.512 9.04789H10.752C11.688 9.04789 12.072 9.33589 12.072 10.0559V10.7999C12.072 11.5199 11.688 11.8079 10.752 11.8079H10.512C9.57595 11.8079 9.19195 11.5199 9.19195 10.7999Z" fill="black"/>
</svg>
