<svg width="24" height="24" viewBox="0 0 24 24" fill="none" xmlns="http://www.w3.org/2000/svg">
<path d="M11.9999 21.3599C17.2559 21.3599 21.3599 17.0879 21.3599 11.9999C21.3599 6.76789 17.2319 2.63989 11.9999 2.63989C6.76789 2.63989 2.63989 6.76789 2.63989 11.9999C2.63989 17.2319 6.76789 21.3599 11.9999 21.3599ZM4.55989 11.9999C4.55989 7.82389 7.82389 4.55989 11.9999 4.55989C13.7279 4.55989 15.3119 5.13589 16.5599 6.09589L6.09589 16.5599C5.13589 15.3119 4.55989 13.7279 4.55989 11.9999ZM7.43989 17.9039L17.9039 7.43989C18.8639 8.68789 19.4399 10.2719 19.4399 11.9999C19.4399 16.0559 16.1759 19.4399 11.9999 19.4399C10.2719 19.4399 8.68789 18.8639 7.43989 17.9039Z" fill="black"/>
</svg>
