<svg width="24" height="24" viewBox="0 0 24 24" fill="none" xmlns="http://www.w3.org/2000/svg">
<path d="M11.9999 21.8399C18.2399 19.3679 21.3599 15.4319 21.3599 10.1279V5.08791C18.6959 3.16791 15.4559 2.15991 11.9999 2.15991C8.54389 2.15991 5.30389 3.16791 2.63989 5.08791V10.1279C2.63989 15.4319 5.75989 19.3679 11.9999 21.8399ZM4.55989 10.1279V5.99991C6.79189 4.60791 9.19189 3.95991 11.9999 3.95991C14.8079 3.95991 17.2079 4.60791 19.4399 5.99991V10.1279C19.4399 14.6399 17.2079 17.6399 11.9999 19.8719C6.79189 17.6399 4.55989 14.6399 4.55989 10.1279ZM7.31989 11.0639C7.31989 11.1839 7.34389 11.2799 7.41589 11.3759L9.52789 14.8079C10.0559 15.7199 11.0159 16.2959 12.1199 16.2959C13.7519 16.2959 15.0479 15.0479 15.1439 13.4159L15.2639 7.82391C15.2639 7.53591 15.0479 7.29591 14.7599 7.29591C14.4719 7.29591 14.2559 7.53591 14.2559 7.79991L14.1839 10.7999H13.6559L13.6799 6.79191C13.6799 6.50391 13.4879 6.26391 13.1759 6.26391C12.8879 6.26391 12.6719 6.50391 12.6719 6.76791L12.6479 10.5599H12.1199L12.0959 6.26391C12.0959 5.99991 11.9039 5.75991 11.5919 5.75991C11.3039 5.75991 11.0879 5.99991 11.0879 6.28791L11.1119 10.7999H10.5599L10.5119 7.29591C10.5119 7.03191 10.3199 6.76791 10.0079 6.76791C9.69589 6.76791 9.50389 7.03191 9.50389 7.31991L9.57589 12.5279L8.47189 10.7279C8.37589 10.5359 8.15989 10.4159 7.94389 10.4159C7.58389 10.4159 7.31989 10.6799 7.31989 11.0639Z" fill="black"/>
</svg>
