<svg width="24" height="24" viewBox="0 0 24 24" fill="none" xmlns="http://www.w3.org/2000/svg">
<path d="M11.9999 21.3599C17.2559 21.3599 21.3599 17.0879 21.3599 11.9999C21.3599 6.76789 17.2319 2.63989 11.9999 2.63989C6.76789 2.63989 2.63989 6.76789 2.63989 11.9999C2.63989 17.2319 6.76789 21.3599 11.9999 21.3599ZM4.55989 11.9999C4.55989 7.82389 7.82389 4.55989 11.9999 4.55989C16.1759 4.55989 19.4399 7.82389 19.4399 11.9999C19.4399 16.0559 16.1759 19.4399 11.9999 19.4399C7.82389 19.4399 4.55989 16.1759 4.55989 11.9999ZM8.30389 12.1439C8.32789 14.9999 9.67189 16.7039 11.9519 16.7039C13.9199 16.7039 15.2639 15.3839 15.2639 13.6079C15.2639 11.8319 13.8959 10.5359 12.2639 10.5359C11.5679 10.5359 10.8719 10.7759 10.4399 11.2319H10.1519C10.1999 9.69589 10.7279 8.99989 11.9759 8.99989C12.8399 8.99989 13.3919 9.28789 13.4879 9.98389H15.2399C14.9999 8.37589 13.7759 7.34389 11.9999 7.34389C9.62389 7.34389 8.27989 9.21589 8.30389 12.1439ZM10.3919 13.9439V13.1759C10.3919 12.4319 10.7999 12.1199 11.7839 12.1199H12.0239C13.0079 12.1199 13.4159 12.4319 13.4159 13.1759V13.9439C13.4159 14.6879 13.0079 14.9999 12.0239 14.9999H11.7839C10.7999 14.9999 10.3919 14.6879 10.3919 13.9439Z" fill="black"/>
</svg>
