<svg width="24" height="24" viewBox="0 0 24 24" fill="none" xmlns="http://www.w3.org/2000/svg">
<path d="M10.392 16.7039C12.36 16.7039 13.704 15.3839 13.704 13.6079C13.704 11.8319 12.336 10.5359 10.704 10.5359C10.008 10.5359 9.31195 10.7759 8.87995 11.2319H8.59195C8.63995 9.69589 9.16795 8.99989 10.416 8.99989C11.28 8.99989 11.832 9.28789 11.928 9.98389H13.68C13.44 8.37589 12.216 7.34389 10.44 7.34389C8.06395 7.34389 6.71995 9.21589 6.74395 12.1439C6.76795 14.9999 8.11195 16.7039 10.392 16.7039ZM4.19995 21.3599H10.44C15.696 21.3599 19.7999 17.0879 19.7999 11.9999C19.7999 6.76789 15.672 2.63989 10.44 2.63989H4.19995V4.55989H10.44C14.616 4.55989 17.88 7.82389 17.88 11.9999C17.88 16.0559 14.616 19.4399 10.44 19.4399H4.19995V21.3599ZM8.83195 13.9439V13.1759C8.83195 12.4319 9.23995 12.1199 10.224 12.1199H10.464C11.448 12.1199 11.856 12.4319 11.856 13.1759V13.9439C11.856 14.6879 11.448 14.9999 10.464 14.9999H10.224C9.23995 14.9999 8.83195 14.6879 8.83195 13.9439Z" fill="black"/>
</svg>
