<svg width="24" height="24" viewBox="0 0 24 24" fill="none" xmlns="http://www.w3.org/2000/svg">
<path d="M10.4642 21.3599H13.5362C14.2802 21.3599 14.8562 20.8559 14.9762 20.1599C16.9682 19.2239 18.3842 17.4719 18.8402 15.3599H19.2242C20.9762 15.3599 22.3202 14.0159 22.3202 12.2639V11.2559C22.3202 9.50389 20.9762 8.15989 19.2242 8.15989H18.8402C18.1922 5.03989 15.4082 2.63989 12.0002 2.63989C8.59218 2.63989 5.80818 5.03989 5.16018 8.15989H4.77618C3.02418 8.15989 1.68018 9.50389 1.68018 11.2559V12.2639C1.68018 14.0159 3.02418 15.3599 4.77618 15.3599H6.93618V9.55189C6.93618 6.74389 9.19218 4.43989 12.0002 4.43989C14.8082 4.43989 17.0642 6.74389 17.0642 9.55189V13.9199C17.0642 15.6239 16.2242 17.1359 14.9522 18.0719C14.7602 17.4479 14.2322 17.0399 13.5362 17.0399H10.4642C9.62418 17.0399 9.00018 17.6639 9.00018 18.5039V19.8959C9.00018 20.7359 9.62418 21.3599 10.4642 21.3599ZM3.36018 12.2639V11.2559C3.36018 10.1999 3.72018 9.83989 4.77618 9.83989H5.01618V13.6799H4.77618C3.72018 13.6799 3.36018 13.3199 3.36018 12.2639ZM10.5602 19.7519V18.6479C10.5602 18.6239 10.5842 18.5999 10.6082 18.5999H13.3922C13.4162 18.5999 13.4402 18.6239 13.4402 18.6479V19.7519C13.4402 19.7759 13.4162 19.7999 13.3922 19.7999H10.6082C10.5842 19.7999 10.5602 19.7759 10.5602 19.7519ZM18.9842 13.6799V9.83989H19.2242C20.2802 9.83989 20.6402 10.1999 20.6402 11.2559V12.2639C20.6402 13.3199 20.2802 13.6799 19.2242 13.6799H18.9842Z" fill="black"/>
</svg>
