<svg width="24" height="24" viewBox="0 0 24 24" fill="none" xmlns="http://www.w3.org/2000/svg">
<path d="M4.00818 20.4001H19.9922C21.4322 18.6481 22.3202 16.3681 22.3202 13.9201C22.3202 12.0241 21.8162 10.2481 20.9282 8.7361L19.5122 10.1521C20.0882 11.2801 20.4002 12.5761 20.4002 13.9201C20.4002 15.6001 19.8962 17.1601 19.0322 18.4801H4.96818C4.10418 17.1601 3.60018 15.6001 3.60018 13.9201C3.60018 9.2881 7.36818 5.5201 12.0002 5.5201C13.3442 5.5201 14.6402 5.8321 15.7682 6.4081L17.1842 4.9921C15.6722 4.1041 13.8962 3.6001 12.0002 3.6001C6.31218 3.6001 1.68018 8.2321 1.68018 13.9201C1.68018 16.3681 2.56818 18.6481 4.00818 20.4001ZM11.0402 13.9201C11.0402 14.4481 11.4722 14.8801 12.0002 14.8801C12.2642 14.8801 12.5042 14.7841 12.6722 14.5921L19.9922 7.2721L18.6482 5.9281L11.3282 13.2481C11.1362 13.4161 11.0402 13.6561 11.0402 13.9201Z" fill="black"/>
</svg>
