<svg width="24" height="24" viewBox="0 0 24 24" fill="none" xmlns="http://www.w3.org/2000/svg">
<path d="M2.63989 20.4001H21.3599V11.1601L18.5999 8.4001H16.8239V5.3761C16.8239 4.3681 16.0559 3.6001 15.0719 3.6001H8.92789C7.94389 3.6001 7.17589 4.3681 7.17589 5.3761V8.4001H5.39989L2.63989 11.1601V20.4001ZM4.51189 18.6001V15.6481H7.63189V16.7761H9.43189V15.6481H14.5919V16.7761H16.3919V15.6481H19.4879V18.6001H4.51189ZM4.51189 13.8481V11.8801L6.19189 10.2001H17.8079L19.4879 11.8801V13.8481H16.3919V12.6961H14.5919V13.8481H9.43189V12.6961H7.63189V13.8481H4.51189ZM8.97589 8.4001V5.4481C8.97589 5.4241 8.99989 5.4001 9.02389 5.4001H14.9759C14.9999 5.4001 15.0239 5.4241 15.0239 5.4481V8.4001H8.97589Z" fill="black"/>
</svg>
