<svg width="24" height="24" viewBox="0 0 24 24" fill="none" xmlns="http://www.w3.org/2000/svg">
<path d="M8.17197 20.4001C11.94 20.4001 15.18 18.8161 17.148 16.4401C19.14 14.1121 20.244 11.1601 20.244 8.3281C20.244 8.0881 20.244 7.9201 20.196 7.8001C21.036 7.2001 21.756 6.4561 22.332 5.5681C21.54 5.9281 20.724 6.1681 19.932 6.2641C20.844 5.7121 21.468 4.9201 21.78 3.9121C20.94 4.3921 20.052 4.7521 19.068 4.9441C18.228 4.0321 17.196 3.6001 15.948 3.6001C13.644 3.6001 11.772 5.5201 11.772 7.8241C11.772 8.1601 11.796 8.4721 11.844 8.8081C8.38797 8.6641 5.24397 7.0081 3.13197 4.3681C2.72397 5.0401 2.50797 5.7601 2.50797 6.5041C2.50797 8.0161 3.15597 9.1921 4.40397 10.0561C3.75597 10.0321 3.10797 9.8401 2.50797 9.5041V9.5761C2.53197 11.7601 4.54797 13.5601 5.48397 13.8001C5.24397 13.8481 5.00397 13.8721 4.76397 13.8721C4.54797 13.8721 4.28397 13.8241 3.99597 13.8001C4.54797 15.4801 6.08397 16.7281 7.97997 16.7281C6.41997 17.9281 4.64397 18.5521 2.67597 18.5521C2.31597 18.5521 1.97997 18.5281 1.66797 18.5041C3.63597 19.7521 5.79597 20.4001 8.17197 20.4001Z" fill="black"/>
</svg>
