<svg width="24" height="24" viewBox="0 0 24 24" fill="none" xmlns="http://www.w3.org/2000/svg">
<path d="M7.29595 16.4639H13.656V14.8079L9.55195 14.8319V14.5199L11.784 13.1519C13.2 12.2879 13.776 11.3519 13.776 10.2239C13.776 8.42389 12.312 7.34389 10.464 7.34389C8.47195 7.34389 7.07995 8.63989 7.07995 10.1519V10.4639H8.97595V10.1999C8.97595 9.33589 9.26395 9.02389 10.368 9.02389H10.536C11.544 9.02389 11.856 9.33589 11.856 10.2719C11.856 10.9439 11.688 11.4479 10.08 12.4559L7.29595 14.2079V16.4639ZM4.19995 21.3599H10.44C15.696 21.3599 19.7999 17.0879 19.7999 11.9999C19.7999 6.76789 15.672 2.63989 10.44 2.63989H4.19995V4.55989H10.44C14.616 4.55989 17.88 7.82389 17.88 11.9999C17.88 16.0559 14.616 19.4399 10.44 19.4399H4.19995V21.3599Z" fill="black"/>
</svg>
