<svg width="24" height="24" viewBox="0 0 24 24" fill="none" xmlns="http://www.w3.org/2000/svg">
<path d="M10.416 16.4639H16.776V14.8079L12.672 14.8319V14.5199L14.904 13.1519C16.32 12.2879 16.896 11.3519 16.896 10.2239C16.896 8.42389 15.432 7.34389 13.584 7.34389C11.592 7.34389 10.2 8.63989 10.2 10.1519V10.4639H12.096V10.1999C12.096 9.33589 12.384 9.02389 13.488 9.02389H13.656C14.664 9.02389 14.976 9.33589 14.976 10.2719C14.976 10.9439 14.808 11.4479 13.2 12.4559L10.416 14.2079V16.4639ZM4.19995 11.9999C4.19995 17.2319 8.32795 21.3599 13.56 21.3599H19.7999V19.4399H13.56C9.38395 19.4399 6.11995 16.1759 6.11995 11.9999C6.11995 7.94389 9.38395 4.55989 13.56 4.55989H19.7999V2.63989H13.56C8.30395 2.63989 4.19995 6.91189 4.19995 11.9999Z" fill="black"/>
</svg>
