<svg width="24" height="24" viewBox="0 0 24 24" fill="none" xmlns="http://www.w3.org/2000/svg">
<path d="M11.916 22.3199C13.308 22.3199 14.436 21.1919 14.436 19.7999C14.436 18.7439 13.788 17.8559 12.876 17.4719V15.1919L17.22 13.8479C17.988 13.6079 18.468 12.9839 18.468 12.2159V8.75993H19.356V5.39993H15.852V8.75993H16.788V12.1439C16.788 12.2159 16.74 12.2399 16.668 12.2639L12.876 13.4399V6.11993H14.604L11.916 1.67993L9.22804 6.11993H10.956V14.9759L7.57204 13.8479C7.45204 13.7999 7.40404 13.7759 7.40404 13.6559V10.1279C8.05204 9.81593 8.48404 9.14393 8.48404 8.39993C8.48404 7.34393 7.62004 6.47993 6.56404 6.47993C5.50804 6.47993 4.64404 7.34393 4.64404 8.39993C4.64404 9.14393 5.07604 9.81593 5.72404 10.1279V13.7999C5.72404 14.5679 6.20404 15.1679 6.94804 15.4079L10.956 16.7519V17.4719C10.044 17.8559 9.39604 18.7439 9.39604 19.7999C9.39604 21.1919 10.524 22.3199 11.916 22.3199Z" fill="black"/>
</svg>
