<svg width="24" height="24" viewBox="0 0 24 24" fill="none" xmlns="http://www.w3.org/2000/svg">
<path d="M13.5602 16.7039C16.0322 16.7039 17.3282 14.8559 17.3282 12.0239C17.3282 9.16789 16.0562 7.34389 13.5602 7.34389C11.0882 7.34389 9.7682 9.19189 9.7682 12.0239C9.7682 14.8559 11.0882 16.7039 13.5602 16.7039ZM4.2002 11.9999C4.2002 17.2319 8.3282 21.3599 13.5602 21.3599H19.8002V19.4399H13.5602C9.38419 19.4399 6.1202 16.1759 6.1202 11.9999C6.1202 7.94389 9.38419 4.55989 13.5602 4.55989H19.8002V2.63989H13.5602C8.30419 2.63989 4.2002 6.91189 4.2002 11.9999ZM11.7602 13.1519V10.9439C11.7602 9.26389 12.2642 8.95189 13.5362 8.95189C14.2562 8.95189 14.7362 9.04789 15.0242 9.45589L11.7602 13.1519ZM12.0482 14.6399L15.3362 10.9439V13.1759C15.3362 14.8319 14.8082 15.1439 13.5362 15.1439C12.8162 15.1439 12.3362 15.0479 12.0482 14.6399Z" fill="black"/>
</svg>
