<svg width="133" height="184" viewBox="0 0 133 184" fill="none" xmlns="http://www.w3.org/2000/svg">
    <g clip-path="url(#clip0)">
        <path d="M0.539962 51.9848L1.81054 54.7225L6.98816 65.8962L59.209 178.588C60.8608 182.122 65.6572 184.509 69.9454 183.904L157.266 171.808L163.81 170.884L166.224 170.534C168.384 170.248 170.004 169.229 170.893 167.86C171.751 166.523 171.846 164.804 171.052 163.053L112.415 36.5135C110.763 32.9799 105.966 30.5924 101.678 31.1972L5.36817 44.5038C2.69995 44.8858 0.825842 46.3183 0.222317 48.1965C-0.158858 49.3425 -0.0635639 50.6477 0.539962 51.9848Z" fill="url(#paint0_radial)"/>
        <path d="M175.213 142.361L87.7655 154.458C83.4773 155.063 78.6491 152.675 77.0291 149.142L24.7447 36.2906L19.5354 25.0851L18.2648 22.3473C17.6612 21.0103 17.566 19.7051 17.9471 18.5909L12.6425 27.7591L12.6742 27.7909C11.626 29.1916 11.4354 31.0062 12.293 32.9162L71.0256 159.711C72.6774 163.244 77.4738 165.632 81.762 165.027L178.199 151.689C180.836 151.338 182.678 149.906 183.313 148.059L188.84 138.477C187.983 139.846 186.363 140.865 184.171 141.151L181.757 141.502" fill="#475B80"/>
        <path d="M12.8328 28.7778L72.5183 157.578C74.1701 161.175 79.0618 163.594 83.4453 162.99L181.375 149.428C184.075 149.046 185.918 147.614 186.585 145.736L189.571 140.101C189.571 140.101 189.666 138.382 187.474 138.7L184.996 139.05L178.326 139.974L89.5123 152.262C85.1288 152.866 80.2689 150.447 78.5853 146.85L25.4751 32.2159L20.2022 20.8511L18.9316 18.0816C18.2963 16.7446 16.4857 18.1134 16.8351 16.9674L13.1504 23.557L13.1822 23.5889C12.1657 24.9896 11.9434 26.8678 12.8328 28.7778Z" fill="url(#paint1_linear)"/>
        <path d="M18.2646 24.0027L23.5376 35.3993L76.6478 150.033C78.2996 153.63 83.1913 156.05 87.5748 155.445L176.388 143.157L183.059 142.234L177.437 130.105L124.676 16.2034C123.024 12.6062 118.132 10.1868 113.749 10.7916L25.8564 22.9522L18.2646 24.0027Z" fill="white"/>
        <path d="M16.994 21.2332L18.2646 24.0027L23.5375 35.3993L76.6477 150.033C78.2995 153.63 83.1912 156.05 87.5747 155.445L176.388 143.157L183.059 142.234L185.536 141.884C187.728 141.565 189.38 140.547 190.269 139.178C191.127 137.809 191.254 136.09 190.428 134.307L130.774 5.50724C129.091 1.91 124.199 -0.509374 119.847 0.0954707L21.8857 13.6567C19.154 14.0387 17.2799 15.5031 16.6446 17.4131C16.2952 18.591 16.3587 19.8962 16.994 21.2332Z" fill="white"/>
        <path d="M18.8685 22.2518L20.1391 24.9896L25.3167 36.1951L77.5376 148.887C79.1893 152.421 83.9857 154.808 88.274 154.203L175.595 142.107L182.138 141.183L184.552 140.833C186.712 140.547 188.332 139.528 189.222 138.159C190.079 136.822 190.174 135.103 189.38 133.352L130.711 6.78056C129.06 3.247 124.263 0.859454 119.975 1.4643L23.6649 14.8027C20.9967 15.1847 19.1226 16.6172 18.5191 18.4954C18.1697 19.6415 18.265 20.9467 18.8685 22.2518Z" fill="url(#paint2_linear)"/>
        <path d="M34.1788 27.2497C34.2106 27.2497 34.2423 27.2497 34.2741 27.2497L118.863 15.7895C119.339 15.7259 119.784 15.9805 119.975 16.3944L173.847 129.468C173.879 129.564 173.911 129.659 173.943 129.755C174.61 129.628 174.959 128.895 174.673 128.259L120.769 15.1847C120.578 14.7708 120.102 14.5162 119.657 14.5798L35.0682 26.0401C34.4647 26.1037 34.0517 26.6767 34.1788 27.2497Z" fill="#475B80"/>
        <path d="M34.1787 27.2498C34.1787 27.3453 34.2105 27.4408 34.274 27.5363L73.4714 109.827L88.1149 140.579C88.3055 140.992 88.7819 141.247 89.2266 141.183L173.816 129.723C173.847 129.723 173.879 129.723 173.911 129.723C173.911 129.628 173.879 129.532 173.816 129.437L119.943 16.3945C119.752 15.9806 119.276 15.726 118.831 15.7896L117.974 15.917L34.2422 27.218C34.2105 27.218 34.2105 27.218 34.1787 27.2498Z" fill="url(#paint3_linear)"/>
        <path d="M34.1787 27.2498C34.1787 27.3453 34.2105 27.4408 34.274 27.5363L73.4714 109.827L118.005 15.8851L34.2422 27.2179C34.2105 27.2179 34.2105 27.2179 34.1787 27.2498Z" fill="url(#paint4_linear)"/>
        <path d="M130.362 154.363L137.985 153.248C138.684 153.153 139.383 152.548 139.574 151.943C139.732 151.338 139.319 150.893 138.621 151.02L130.997 152.134C130.298 152.23 129.599 152.835 129.409 153.439C129.25 154.044 129.663 154.458 130.362 154.363Z" fill="url(#paint5_linear)"/>
        <path d="M19.4719 37.0546L22.9342 43.9307C23.2519 44.5674 23.8872 44.7584 24.3636 44.3446C24.8401 43.9307 24.9354 43.1031 24.6177 42.4664L21.1554 35.5903C20.8378 34.9536 20.2025 34.7626 19.726 35.1764C19.2495 35.5584 19.1225 36.4179 19.4719 37.0546Z" fill="url(#paint6_linear)"/>
        <path d="M18.8682 37.0546L22.3305 43.9307C22.6482 44.5674 23.2835 44.7584 23.7599 44.3446C24.2364 43.9307 24.3317 43.1031 24.0141 42.4664L20.5517 35.5903C20.2341 34.9536 19.5988 34.7626 19.1223 35.1764C18.6459 35.5584 18.5506 36.4179 18.8682 37.0546Z" fill="url(#paint7_linear)"/>
    </g>
    <defs>
        <radialGradient id="paint0_radial" cx="0" cy="0" r="1" gradientUnits="userSpaceOnUse" gradientTransform="translate(85.8032 107.548) rotate(-179.717) scale(81.3781 81.5559)">
            <stop stop-color="#687B99" stop-opacity="0.2"/>
            <stop offset="0.5133" stop-color="#55688A" stop-opacity="0.1487"/>
            <stop offset="1" stop-color="#475B80" stop-opacity="0.1"/>
        </radialGradient>
        <linearGradient id="paint1_linear" x1="101.735" y1="124.726" x2="96.0935" y2="121.09" gradientUnits="userSpaceOnUse">
            <stop stop-color="#8598B6"/>
            <stop offset="0.1225" stop-color="#92A4BE"/>
            <stop offset="0.5" stop-color="#B7C5D6"/>
            <stop offset="0.8059" stop-color="#CEDAE4"/>
            <stop offset="1" stop-color="#D6E1E9"/>
        </linearGradient>
        <linearGradient id="paint2_linear" x1="190.214" y1="78.2526" x2="18.0315" y2="77.4066" gradientUnits="userSpaceOnUse">
            <stop stop-color="#687B99"/>
            <stop offset="0.1381" stop-color="#5F738F"/>
            <stop offset="0.6786" stop-color="#41576B"/>
            <stop offset="0.9671" stop-color="#364C5D"/>
        </linearGradient>
        <linearGradient id="paint3_linear" x1="142.19" y1="108.114" x2="55.5389" y2="41.1081" gradientUnits="userSpaceOnUse">
            <stop stop-color="#293643"/>
            <stop offset="1" stop-color="#21313E"/>
        </linearGradient>
        <linearGradient id="paint4_linear" x1="188.142" y1="149.125" x2="56.2667" y2="26.5602" gradientUnits="userSpaceOnUse">
            <stop stop-color="white" stop-opacity="0.2"/>
            <stop offset="1" stop-color="white" stop-opacity="0"/>
        </linearGradient>
        <linearGradient id="paint5_linear" x1="142.826" y1="159.869" x2="134.402" y2="150.217" gradientUnits="userSpaceOnUse">
            <stop offset="0.1912" stop-color="#293643"/>
            <stop offset="0.3966" stop-color="#4A505B"/>
            <stop offset="1" stop-color="#21313E"/>
        </linearGradient>
        <linearGradient id="paint6_linear" x1="22.2617" y1="39.5915" x2="20.5382" y2="40.7753" gradientUnits="userSpaceOnUse">
            <stop stop-color="#8598B6"/>
            <stop offset="0.1225" stop-color="#92A4BE"/>
            <stop offset="0.5" stop-color="#B7C5D6"/>
            <stop offset="0.8059" stop-color="#CEDAE4"/>
            <stop offset="1" stop-color="#D6E1E9"/>
        </linearGradient>
        <linearGradient id="paint7_linear" x1="18.8633" y1="41.2385" x2="22.5799" y2="39.0922" gradientUnits="userSpaceOnUse">
            <stop stop-color="#8598B6"/>
            <stop offset="0.1225" stop-color="#92A4BE"/>
            <stop offset="0.5" stop-color="#B7C5D6"/>
            <stop offset="0.8059" stop-color="#CEDAE4"/>
            <stop offset="1" stop-color="#D6E1E9"/>
        </linearGradient>
        <clipPath id="clip0">
            <rect width="191" height="184" fill="white"/>
        </clipPath>
    </defs>
</svg>
