<svg width="36" height="180" viewBox="0 0 36 180" fill="none" xmlns="http://www.w3.org/2000/svg">
<path d="M18.9447 97.0405C17.2903 95.9495 15.801 94.2586 14.6985 92.3491C13.5009 90.2747 12.7597 87.9423 12.7599 85.8433C12.7599 85.4654 12.784 85.1071 12.8314 84.7705C12.4725 84.5002 12.105 84.2553 11.731 84.0394C9.68571 82.8589 7.73607 82.6839 6.24063 83.5473C4.75709 84.4038 3.93994 86.1584 3.94003 88.4877C3.94057 93.0623 7.18301 98.6564 11.1683 100.957C13.2132 102.138 15.1628 102.313 16.6584 101.45C18.0268 100.659 18.8283 99.1053 18.9447 97.0405Z" fill="black"/>
<path d="M18.9592 96.5088C18.9592 94.2302 18.1549 91.6995 16.8552 89.4483C15.5451 87.1792 13.7317 85.1942 11.731 84.0394C9.68571 82.8589 7.73607 82.6839 6.24063 83.5473C4.75709 84.4038 3.93994 86.1584 3.94003 88.4877C3.94057 93.0623 7.18301 98.6564 11.1683 100.957C13.2132 102.138 15.1628 102.313 16.6584 101.45C18.1419 100.593 18.9588 98.8383 18.9592 96.5088Z" fill="black"/>
<path d="M9.48869 123.633L9.48938 122.741L6.13684 120.802L6.13218 126.921L6.8755 127.351L6.87948 122.124L9.48869 123.633Z" fill="black"/>
<path d="M17.1955 133.32L17.9388 133.75L17.9435 127.632L14.5911 125.693L14.5904 126.584L17.1995 128.093L17.1955 133.32Z" fill="black"/>
<path d="M17.172 163.404L17.168 168.631L14.559 167.122L14.5583 168.013L17.9109 169.952L17.9155 163.834L17.172 163.404Z" fill="black"/>
<path d="M14.1886 145.52C14.4876 145.325 14.6483 144.911 14.6487 144.413C14.6491 143.889 14.4745 143.306 14.0958 142.843L14.0959 142.721L14.5769 142.999L14.5775 142.195L11.9466 140.673L11.9448 143.042L12.6153 143.429L12.6165 141.9L12.9663 142.102C13.7023 142.528 13.9427 142.99 13.9421 143.803L13.9419 143.995C13.9413 144.808 13.7223 145.075 12.7093 144.489L11.3391 143.697C10.3188 143.106 10.1076 142.573 10.1082 141.761L10.1084 141.586C10.109 140.79 10.357 140.68 11.0421 141.068L11.0428 140.106C10.037 139.612 9.40241 140.05 9.40151 141.256C9.40107 141.841 9.55378 142.419 9.84491 142.955C10.2745 143.754 11.0032 144.482 12.0234 145.072C13.0073 145.641 13.7364 145.8 14.1886 145.52Z" fill="black"/>
<path d="M9.46316 158.045L9.46247 158.936L14.5641 161.887L14.5672 157.866L13.8967 157.479L13.8943 160.608L9.46316 158.045Z" fill="black"/>
<path d="M6.84769 162.663L6.85169 157.436L6.10837 157.006L6.10369 163.124L9.45624 165.063L9.4569 164.172L6.84769 162.663Z" fill="black"/>
<path d="M14.5712 152.752L13.9008 152.365L13.8984 155.45L12.3387 154.548L12.3408 151.856L11.6703 151.468L11.6683 154.16L10.1377 153.275L10.1399 150.321L9.46945 149.933L9.46653 153.779L14.5682 156.729L14.5712 152.752Z" fill="black"/>
<path d="M14.5834 137.019L13.9129 136.631L13.9106 139.717L12.3509 138.815L12.3529 136.123L11.6825 135.735L11.6804 138.427L10.1499 137.542L10.1521 134.588L9.48162 134.2L9.4787 138.046L14.5804 140.996L14.5834 137.019Z" fill="black"/>
<path d="M14.5736 149.711C14.5749 148.041 13.5186 146.81 12.0245 145.945C10.5086 145.069 9.47324 145.134 9.47199 146.778L9.47057 148.666L14.5722 151.616L14.5736 149.711ZM10.1415 148.179L10.1423 147.226C10.1429 146.326 10.3327 145.946 11.3532 146.536L12.6941 147.312C13.7144 147.902 13.9036 148.501 13.9029 149.401L13.9022 150.354L10.1415 148.179Z" fill="black"/>
<path d="M14.5851 134.966L12.5518 133.79L12.5528 132.479C12.5533 131.806 12.7867 131.669 13.3699 132.007L14.587 132.711L14.5877 131.819L13.4872 131.183C12.6854 130.719 12.3792 130.769 12.2912 131.418L12.1891 131.359C12.0511 130.641 11.5558 129.908 10.9656 129.567C10.5939 129.352 10.2584 129.333 9.98849 129.509C9.65283 129.735 9.48483 130.197 9.4843 130.923L9.48278 132.889L14.5844 135.84L14.5851 134.966ZM10.1541 132.403L10.1552 131.004C10.1557 130.323 10.3453 130.187 10.8629 130.487L11.1689 130.664C11.7009 130.971 11.8829 131.313 11.8824 132.003L11.8813 133.402L10.1541 132.403Z" fill="black"/>
<path d="M7.98659 22.1245V67.2009L16.8186 72.8392V27.571L7.98659 22.1245Z" fill="black"/>
<path d="M31.1709 29.114C31.1709 29.0221 31.0652 28.9704 30.9927 29.0268L29.3465 30.3072C29.1045 30.4955 28.9629 30.7849 28.9629 31.0915V41.8612C28.9629 41.953 29.0686 42.0047 29.1411 41.9483L30.7873 40.6679C31.0293 40.4797 31.1709 40.1902 31.1709 39.8836V29.114Z" fill="black"/>
<path d="M31.1709 60.026C31.1709 59.9341 31.0652 59.8825 30.9927 59.9389L29.3465 61.2193C29.1045 61.4075 28.9629 61.6969 28.9629 62.0036V72.7732C28.9629 72.8651 29.0686 72.9167 29.1411 72.8603L30.7873 71.5799C31.0293 71.3917 31.1709 71.1023 31.1709 70.7957V60.026Z" fill="black"/>
<path fill-rule="evenodd" clip-rule="evenodd" d="M23.3252 96.15C23.0557 94.734 22.6784 93.3171 22.1902 91.9278L22.2021 91.9328L22.1995 20.1754L0.672091 7.60789L0.58476 82.7673L0.652048 82.7958C0.227096 84.1862 0.00201916 85.7822 0.0020467 87.5369L0.00247596 165.554L23.7806 179.283L23.7806 179.189L35.2699 171.986L35.2696 93.9825C35.2696 91.4064 34.768 88.6326 33.8824 85.9155L34.2511 13.0788L11.5984 6.10352e-05L0.513745 6.21681L23.3247 19.3872L23.3252 96.15ZM1.12763 164.905L1.12778 87.5368C1.1275 83.3584 2.45204 80.1974 4.76137 78.8641C6.63616 77.7817 9.06819 77.9942 11.6099 79.4618C17.6999 82.9775 22.6551 92.467 22.6548 100.616L22.6551 177.319L19.2097 175.329L19.2029 175.341L1.12763 164.905ZM34.1439 93.9826L34.1444 171.364L23.7806 177.861L23.7806 107.589L33.802 101.803L33.859 90.5393C34.0426 91.7109 34.1439 92.867 34.1439 93.9826ZM6.883 20.1467L17.9229 26.9548V74.8538L6.883 67.8058V20.1467ZM30.3153 28.1554C31.113 27.535 32.2753 28.1034 32.2753 29.114V39.8836C32.2753 40.5309 31.9764 41.142 31.4655 41.5394L29.8193 42.8198C29.0216 43.4402 27.8593 42.8717 27.8593 41.8612V31.0915C27.8593 30.4442 28.1582 29.8332 28.6691 29.4358L30.3153 28.1554ZM30.3153 59.0674C31.113 58.447 32.2753 59.0155 32.2753 60.026V70.7957C32.2753 71.4429 31.9764 72.054 31.4655 72.4514L29.8193 73.7318C29.0216 74.3522 27.8593 73.7838 27.8593 72.7732V62.0036C27.8593 61.3563 28.1582 60.7452 28.6691 60.3478L30.3153 59.0674Z" fill="black"/>
</svg>
