<svg width="36" height="181" viewBox="0 0 36 181" fill="none" xmlns="http://www.w3.org/2000/svg">
<path d="M19.3591 97.5932C19.3591 95.3038 18.551 92.7612 17.2451 90.4993C15.9289 88.2194 14.1066 86.225 12.0965 85.0647C10.0415 83.8786 8.08262 83.7028 6.58011 84.5703C5.08955 85.4308 4.26854 87.1938 4.26862 89.5341C4.26916 94.1303 7.52695 99.7508 11.5311 102.062C13.5856 103.249 15.5445 103.424 17.0471 102.557C18.5377 101.697 19.3587 99.9337 19.3591 97.5932ZM12.0967 101.083C10.2423 100.012 8.56146 98.1732 7.34748 96.0706C6.14414 93.9863 5.39947 91.643 5.39967 89.534C5.39961 87.6145 6.01938 86.1998 7.14555 85.5496C8.28367 84.8925 9.84076 85.0682 11.5309 86.0442C15.2233 88.1757 18.2286 93.3567 18.2281 97.5933C18.228 99.5125 17.6079 100.928 16.4817 101.578C15.3439 102.234 13.7868 102.059 12.0967 101.083Z" fill="black"/>
<path d="M18.6694 34.9294C18.6694 30.6941 15.666 25.5129 11.9727 23.38C10.2826 22.404 8.72489 22.2284 7.58724 22.8852C6.46106 23.5354 5.84143 24.9503 5.84134 26.8695C5.84128 28.9788 6.58608 31.3224 7.78956 33.4069C9.0034 35.5093 10.6837 37.3485 12.5381 38.4189C14.2282 39.3949 15.7859 39.5705 16.9235 38.9137C18.0497 38.2635 18.6694 36.8486 18.6694 34.9294Z" fill="black"/>
<path d="M23.7416 97.2327C23.4708 95.81 23.0917 94.3864 22.6012 92.9905L22.6132 92.9956L22.6106 20.8987L0.981317 8.27175L0.893575 83.7867L0.961182 83.8154C0.53422 85.2123 0.308078 86.8159 0.308105 88.5788L0.308539 166.965L24.1992 180.759L24.1992 180.665L35.7427 173.428L35.7425 95.0549C35.7425 92.4666 35.2385 89.6797 34.3487 86.9497L34.7192 13.7686L11.9593 0.62793L0.822223 6.87408L23.7411 20.1068L23.7416 97.2327ZM11.9707 39.3993C7.96673 37.0871 4.70812 31.4673 4.70854 26.8706C4.70847 24.5303 5.52962 22.7676 7.02005 21.9068C8.52209 21.0395 10.4814 21.2151 12.5366 22.4014C14.5463 23.562 16.3686 25.5567 17.6846 27.836C18.9908 30.0984 19.7988 32.6408 19.7987 34.9302C19.7988 37.2705 18.9777 39.0332 17.4872 39.894C15.9852 40.7612 14.0259 40.5856 11.9707 39.3993ZM1.43902 166.313L1.43916 88.5787C1.43889 84.3806 2.76969 81.2046 5.08995 79.865C6.9736 78.7775 9.41713 78.991 11.9709 80.4655C18.0897 83.9979 23.0683 93.5322 23.0681 101.72L23.0683 178.786L19.6066 176.786L19.5997 176.798L1.43902 166.313ZM34.6115 95.055L34.612 172.802L24.1992 179.33L24.1991 108.726L34.2679 102.913L34.3252 91.5954C34.5097 92.7726 34.6114 93.9342 34.6115 95.055Z" fill="black"/>
<path d="M9.84394 124.846L9.84463 123.95L6.47623 122.002L6.47156 128.149L7.21839 128.581L7.22239 123.329L9.84394 124.846Z" fill="black"/>
<path d="M17.5876 134.579L18.3344 135.011L18.3391 128.864L14.9709 126.915L14.9702 127.811L17.5915 129.327L17.5876 134.579Z" fill="black"/>
<path d="M17.5646 164.805L17.5606 170.056L14.9392 168.54L14.9385 169.436L18.3069 171.384L18.3116 165.237L17.5646 164.805Z" fill="black"/>
<path d="M14.5667 146.836C14.8672 146.641 15.0286 146.225 15.029 145.724C15.0294 145.197 14.854 144.612 14.4735 144.146L14.4736 144.024L14.9568 144.303L14.9575 143.495L12.3141 141.966L12.3123 144.346L12.986 144.736L12.9871 143.199L13.3386 143.402C14.0781 143.83 14.3196 144.295 14.319 145.111L14.3189 145.304C14.3183 146.121 14.0982 146.389 13.0804 145.801L11.7037 145.004C10.6786 144.411 10.4664 143.876 10.467 143.059L10.4672 142.884C10.4678 142.084 10.717 141.974 11.4053 142.363L11.406 141.397C10.3954 140.901 9.75786 141.34 9.75696 142.552C9.75652 143.14 9.90995 143.721 10.2025 144.259C10.6341 145.062 11.3662 145.793 12.3913 146.386C13.3798 146.958 14.1124 147.118 14.5667 146.836Z" fill="black"/>
<path d="M9.81777 159.421L9.81708 160.316L14.9429 163.281L14.9459 159.241L14.2723 158.852L14.2699 161.996L9.81777 159.421Z" fill="black"/>
<path d="M7.19149 164.061L7.19551 158.809L6.44868 158.377L6.44398 164.524L9.81238 166.472L9.81305 165.577L7.19149 164.061Z" fill="black"/>
<path d="M14.9504 154.103L14.2768 153.713L14.2744 156.813L12.7074 155.907L12.7094 153.202L12.0358 152.813L12.0337 155.517L10.4959 154.628L10.4982 151.66L9.82453 151.27L9.8216 155.134L14.9474 158.099L14.9504 154.103Z" fill="black"/>
<path d="M14.9625 138.295L14.2888 137.906L14.2865 141.006L12.7194 140.099L12.7215 137.395L12.0478 137.005L12.0458 139.71L10.508 138.82L10.5102 135.852L9.83657 135.463L9.83364 139.327L14.9594 142.291L14.9625 138.295Z" fill="black"/>
<path d="M14.9533 151.047C14.9546 149.369 13.8933 148.132 12.3922 147.264C10.8691 146.383 9.82878 146.449 9.82753 148.1L9.8261 149.997L14.9519 152.961L14.9533 151.047ZM10.5002 149.508L10.501 148.551C10.5016 147.646 10.6923 147.264 11.7176 147.857L13.0649 148.637C14.09 149.229 14.2801 149.831 14.2794 150.736L14.2787 151.693L10.5002 149.508Z" fill="black"/>
<path d="M14.9646 136.232L12.9217 135.051L12.9227 133.733C12.9232 133.057 13.1578 132.921 13.7437 133.259L14.9665 133.967L14.9672 133.071L13.8615 132.431C13.056 131.966 12.7483 132.016 12.6599 132.668L12.5573 132.608C12.4186 131.887 11.921 131.151 11.328 130.808C10.9545 130.592 10.6175 130.573 10.3463 130.75C10.009 130.977 9.84023 131.441 9.8397 132.17L9.83817 134.146L14.964 137.111L14.9646 136.232ZM10.5127 133.657L10.5137 132.252C10.5143 131.567 10.7048 131.431 11.2248 131.732L11.5323 131.91C12.0668 132.219 12.2497 132.562 12.2492 133.256L12.2481 134.661L10.5127 133.657Z" fill="black"/>
</svg>
