<svg width="36" height="180" viewBox="0 0 36 180" fill="none" xmlns="http://www.w3.org/2000/svg">
<path d="M19.2282 96.5053C17.5491 95.3982 16.0377 93.6821 14.9189 91.7442C13.7035 89.6391 12.9513 87.2723 12.9515 85.1422C12.9515 84.7585 12.976 84.3948 13.0242 84.0531C12.6601 83.7788 12.2873 83.5304 11.9079 83.3114C9.83231 82.1134 7.85385 81.9358 6.33629 82.812C4.8308 83.6812 4.00157 85.4617 4.00166 87.8255C4.0022 92.4677 7.29261 98.1445 11.3369 100.479C13.412 101.677 15.3904 101.855 16.9081 100.979C18.2967 100.177 19.11 98.6003 19.2282 96.5053Z" fill="black"/>
<path d="M19.2438 95.9652C19.2438 93.653 18.4276 91.0849 17.1086 88.8003C15.7792 86.4976 13.9382 84.4833 11.9079 83.3114C9.83231 82.1134 7.85385 81.9358 6.33629 82.812C4.8308 83.6812 4.00157 85.4617 4.00166 87.8255C4.0022 92.4677 7.29261 98.1445 11.3369 100.479C13.412 101.677 15.3904 101.855 16.9081 100.979C18.4136 100.11 19.2434 98.3292 19.2438 95.9652Z" fill="black"/>
<path d="M9.63322 123.491L9.63393 122.586L6.2318 120.618L6.22707 126.827L6.98139 127.263L6.98543 121.959L9.63322 123.491Z" fill="black"/>
<path d="M17.4544 133.321L18.2087 133.757L18.2134 127.548L14.8115 125.581L14.8108 126.485L17.4584 128.017L17.4544 133.321Z" fill="black"/>
<path d="M17.4309 163.85L17.4268 169.154L14.7792 167.622L14.7785 168.527L18.1806 170.495L18.1853 164.286L17.4309 163.85Z" fill="black"/>
<path d="M14.4029 145.701C14.7064 145.504 14.8695 145.084 14.8699 144.578C14.8703 144.046 14.6931 143.455 14.3088 142.985L14.3089 142.861L14.797 143.143L14.7976 142.327L12.1278 140.783L12.126 143.186L12.8064 143.58L12.8076 142.027L13.1625 142.233C13.9095 142.665 14.1534 143.134 14.1528 143.959L14.1526 144.154C14.152 144.979 13.9297 145.25 12.9017 144.655L11.5112 143.851C10.4759 143.252 10.2616 142.711 10.2622 141.886L10.2624 141.709C10.2629 140.902 10.5146 140.79 11.2099 141.184L11.2106 140.208C10.1899 139.706 9.54595 140.15 9.54505 141.374C9.54459 141.968 9.69957 142.555 9.995 143.098C10.431 143.91 11.1704 144.648 12.2058 145.247C13.2042 145.824 13.9441 145.986 14.4029 145.701Z" fill="black"/>
<path d="M9.60271 158.411L9.60201 159.316L14.7791 162.31L14.7822 158.23L14.1018 157.837L14.0994 161.012L9.60271 158.411Z" fill="black"/>
<path d="M6.9542 163.098L6.95826 157.794L6.20395 157.357L6.1992 163.566L9.60133 165.534L9.602 164.629L6.9542 163.098Z" fill="black"/>
<path d="M14.7864 153.041L14.106 152.647L14.1037 155.778L12.5209 154.863L12.523 152.131L11.8426 151.738L11.8405 154.469L10.2873 153.571L10.2896 150.573L9.60921 150.18L9.60624 154.083L14.7833 157.077L14.7864 153.041Z" fill="black"/>
<path d="M14.7991 137.075L14.1187 136.681L14.1163 139.812L12.5336 138.897L12.5357 136.165L11.8553 135.771L11.8532 138.503L10.3 137.605L10.3023 134.607L9.62189 134.214L9.61893 138.116L14.796 141.111L14.7991 137.075Z" fill="black"/>
<path d="M14.789 149.954C14.7903 148.26 13.7184 147.01 12.2022 146.133C10.6639 145.243 9.61316 145.31 9.61189 146.978L9.61045 148.894L14.7875 151.888L14.789 149.954ZM10.2913 148.4L10.2921 147.433C10.2928 146.519 10.4854 146.134 11.5209 146.733L12.8817 147.52C13.917 148.119 14.1091 148.727 14.1083 149.64L14.1076 150.607L10.2913 148.4Z" fill="black"/>
<path d="M14.801 134.991L12.7376 133.798L12.7386 132.467C12.7391 131.784 12.976 131.646 13.5678 131.988L14.8029 132.703L14.8036 131.798L13.6868 131.152C12.8732 130.682 12.5625 130.732 12.4731 131.391L12.3695 131.331C12.2295 130.602 11.7268 129.859 11.1279 129.513C10.7507 129.294 10.4103 129.275 10.1364 129.454C9.79574 129.683 9.62525 130.152 9.62472 130.888L9.62318 132.884L14.8003 135.878L14.801 134.991ZM10.3044 132.39L10.3055 130.971C10.3061 130.279 10.4985 130.142 11.0237 130.446L11.3342 130.625C11.8741 130.938 12.0588 131.284 12.0583 131.985L12.0572 133.404L10.3044 132.39Z" fill="black"/>
<path d="M31.6311 27.4476C31.6311 27.3544 31.5239 27.3019 31.4503 27.3592L29.7798 28.6585C29.5341 28.8495 29.3905 29.1433 29.3905 29.4544V40.3833C29.3905 40.4766 29.4977 40.529 29.5713 40.4718L31.2419 39.1724C31.4875 38.9814 31.6311 38.6877 31.6311 38.3765V27.4476Z" fill="black"/>
<path d="M31.6311 58.8167C31.6311 58.7235 31.5239 58.6711 31.4503 58.7283L29.7798 60.0276C29.5341 60.2187 29.3905 60.5124 29.3905 60.8235V71.7525C29.3905 71.8457 29.4977 71.8981 29.5713 71.8409L31.2419 70.5416C31.4875 70.3506 31.6311 70.0568 31.6311 69.7457V58.8167Z" fill="black"/>
<path fill-rule="evenodd" clip-rule="evenodd" d="M23.6691 23.1674C23.669 19.7781 21.8882 16.6381 18.9794 14.8985L7.341 7.93826C6.09541 7.19335 4.5662 7.09779 3.23756 7.68185L1.88404 8.27684C2.35644 7.56824 2.97543 6.96931 3.6992 6.52051L12.2011 1.24854C13.7283 0.301546 15.6526 0.271279 17.2088 1.16977L30.608 8.90589C33.1734 10.3871 34.7478 13.13 34.7328 16.0923L34.3829 85.2153C35.2815 87.9726 35.7906 90.7875 35.7906 93.4016L35.7908 172.559L24.1317 179.869L24.1317 179.964L0.00184075 166.032L0.00141907 86.8607C0.00139159 85.0801 0.229795 83.4605 0.661033 82.0496L0.59275 82.0206L0.673801 12.2722C0.677162 9.37939 3.81613 7.57959 6.31441 9.03806L16.9725 15.2601C20.4123 17.2683 22.5273 20.9518 22.5275 24.9349L22.5299 91.3217L22.5177 91.3166C23.0132 92.7264 23.3961 94.1643 23.6695 95.6012L23.6691 23.1674ZM1.14379 86.8606L1.14364 165.373L19.4862 175.963L19.4932 175.951L22.9895 177.971L22.9893 100.133C22.9895 91.8637 17.961 82.2339 11.781 78.6662C9.20166 77.1769 6.73365 76.9612 4.83114 78.0597C2.48765 79.4127 1.14352 82.6204 1.14379 86.8606ZM34.6488 171.927L34.6482 93.4017C34.6482 92.2697 34.5455 91.0965 34.3591 89.9075L34.3208 97.48C34.3087 99.8693 33.0292 102.073 30.9599 103.267L24.1316 107.21L24.1317 178.521L34.6488 171.927ZM30.7625 26.4748C31.572 25.8453 32.7515 26.4221 32.7515 27.4476V38.3765C32.7515 39.0334 32.4482 39.6535 31.9297 40.0568L30.2591 41.3561C29.4496 41.9857 28.2702 41.4088 28.2702 40.3833V29.4544C28.2702 28.7975 28.5734 28.1775 29.0919 27.7742L30.7625 26.4748ZM30.7625 57.844C31.572 57.2144 32.7515 57.7912 32.7515 58.8167V69.7457C32.7515 70.4025 32.4482 71.0226 31.9297 71.4259L30.2591 72.7252C29.4496 73.3548 28.2702 72.778 28.2702 71.7525V60.8235C28.2702 60.1667 28.5734 59.5466 29.0919 59.1433L30.7625 57.844Z" fill="black"/>
</svg>
