<svg width="75" height="25" viewBox="0 0 75 25" fill="none" xmlns="http://www.w3.org/2000/svg">
  <path
    d="M64.157 23.4257V24.9996H74.9996V17.9013H73.4198V23.4257H64.157ZM64.157 0V1.57392H73.4198V7.09868H74.9996V0H64.157ZM58.5655 12.176V8.51871H61.0439C62.2522 8.51871 62.686 8.91985 62.686 10.0157V10.6637C62.686 11.7902 62.2676 12.176 61.0439 12.176H58.5655ZM62.4996 12.824C63.6303 12.5308 64.4202 11.4813 64.4202 10.2316C64.4202 9.44461 64.1105 8.73459 63.522 8.16352C62.7785 7.4535 61.787 7.09868 60.5015 7.09868H57.0165V17.9009H58.5655V13.5957H60.8891C62.0816 13.5957 62.5619 14.0894 62.5619 15.3242V17.9013H64.1417V15.5711C64.1417 13.8735 63.739 13.2255 62.4996 13.0403V12.824ZM49.4579 13.1788H54.2288V11.7592H49.4579V8.51834H54.6933V7.09868H47.8777V17.9009H54.9257V16.4813H49.4579V13.1788ZM44.2687 13.7499V14.4906C44.2687 16.0492 43.6955 16.5586 42.2551 16.5586H41.9143C40.4736 16.5586 39.7767 16.0955 39.7767 13.9505V11.0492C39.7767 8.88885 40.5048 8.44102 41.9451 8.44102H42.2547C43.6643 8.44102 44.1135 8.96579 44.1288 10.4164H45.8327C45.6779 8.28677 44.2529 6.94442 42.1153 6.94442C41.0776 6.94442 40.2101 7.26862 39.5597 7.88564C38.5838 8.79622 38.0417 10.3395 38.0417 12.4998C38.0417 14.5832 38.5066 16.1265 39.4667 17.083C40.1171 17.7157 41.0157 18.0552 41.8986 18.0552C42.828 18.0552 43.6801 17.6847 44.1135 16.8824H44.3301V17.9009H45.7551V12.3302H41.5575V13.7499H44.2687ZM30.6073 8.51834H32.2958C33.8913 8.51834 34.7588 8.91947 34.7588 11.0802V13.9195C34.7588 16.0798 33.8913 16.4813 32.2958 16.4813H30.6073V8.51834ZM32.4348 17.9013C35.3935 17.9013 36.493 15.6637 36.493 12.5002C36.493 9.29036 35.3159 7.09905 32.4037 7.09905H29.0578V17.9013H32.4348ZM21.5769 13.1788H26.3477V11.7592H21.5769V8.51834H26.8122V7.09868H19.9967V17.9009H27.0447V16.4813H21.5769V13.1788ZM12.4381 7.09868H10.8584V17.9009H17.9835V16.4813H12.4381V7.09868ZM0 17.9013V25H10.8426V23.4257H1.57979V17.9013H0ZM0 0V7.09868H1.57979V1.57392H10.8426V0H0Z"
    fill="black" />
</svg>