<svg width="24" height="24" viewBox="0 0 24 24" fill="none" xmlns="http://www.w3.org/2000/svg">
<path d="M2.35205 18.9H3.16805V15.06H20.8321V18.9H21.6481V11.388C21.6481 9.732 20.4001 8.508 18.7441 8.508H11.4481V14.22H3.16805V5.1H2.35205V18.9ZM4.39205 10.092C4.39205 11.724 5.71205 13.02 7.29605 13.02C8.92805 13.02 10.2241 11.724 10.2241 10.092C10.2241 8.484 8.92805 7.188 7.29605 7.188C5.71205 7.188 4.39205 8.484 4.39205 10.092ZM5.13605 10.092C5.13605 8.892 6.12005 7.932 7.29605 7.932C8.52005 7.932 9.48005 8.892 9.48005 10.092C9.48005 11.316 8.52005 12.252 7.29605 12.252C6.12005 12.252 5.13605 11.316 5.13605 10.092ZM12.2641 14.22V9.324L18.8881 9.3C20.0881 9.3 20.8321 10.068 20.8321 11.244V14.22H12.2641Z" fill="black"/>
</svg>
