<svg width="24" height="24" viewBox="0 0 24 24" fill="none" xmlns="http://www.w3.org/2000/svg">
<path d="M12 21C17.04 21 21 16.896 21 12C21 6.96 17.04 3 12 3C6.96 3 3 6.96 3 12C3 17.04 6.96 21 12 21ZM3.84 12C3.84 7.416 7.44 3.84 12 3.84C16.584 3.84 20.16 7.416 20.16 12C20.16 16.44 16.584 20.16 12 20.16C7.44 20.16 3.84 16.56 3.84 12ZM8.352 13.416C8.376 15.384 9.72 16.68 11.664 16.824V17.976H12.36V16.8C14.16 16.68 15.48 15.6 15.48 14.016C15.48 12.624 14.448 11.808 12.864 11.592L12.36 11.52V7.92C13.752 8.04 14.496 8.856 14.496 10.272H15.312C15.312 8.544 14.136 7.296 12.36 7.152V5.976H11.664V7.152C10.008 7.272 8.712 8.304 8.712 9.792C8.712 11.136 9.624 11.952 11.088 12.12L11.664 12.192V16.056C10.056 15.936 9.192 15.048 9.168 13.416H8.352ZM9.504 9.744C9.504 8.664 10.368 7.992 11.664 7.896V11.448L11.304 11.4C10.104 11.256 9.504 10.728 9.504 9.744ZM12.36 16.056V12.288L12.648 12.312C13.968 12.48 14.664 13.008 14.664 14.064C14.664 15.24 13.8 15.936 12.36 16.056Z" fill="black"/>
</svg>
