<svg width="24" height="24" viewBox="0 0 24 24" fill="none" xmlns="http://www.w3.org/2000/svg">
<path d="M19.6681 20.136C20.8921 20.136 21.9001 19.128 21.9001 17.904C21.9001 16.68 20.8921 15.672 19.6681 15.672C19.0201 15.672 18.4201 15.984 18.0121 16.44L15.2761 14.832C15.4681 14.448 15.5641 14.016 15.5641 13.56C15.5641 11.856 14.1721 10.44 12.4441 10.44C12.0841 10.44 11.7481 10.512 11.4361 10.632L10.1401 7.896C10.6921 7.488 11.0761 6.816 11.0761 6.096C11.0761 4.872 10.0681 3.864 8.8441 3.864C7.6201 3.864 6.6121 4.872 6.6121 6.096C6.6121 7.32 7.6201 8.328 8.8441 8.328C9.0601 8.328 9.2761 8.28 9.4681 8.232L10.7641 10.944C9.9001 11.496 9.3481 12.456 9.3481 13.56C9.3481 15.312 10.7161 16.68 12.4441 16.68C13.4521 16.68 14.3401 16.2 14.8921 15.48L17.6041 17.088C17.5081 17.328 17.4361 17.616 17.4361 17.904C17.4361 19.128 18.4441 20.136 19.6681 20.136ZM2.1001 13.584C2.1001 14.448 2.8201 15.168 3.6841 15.168C4.5721 15.168 5.2921 14.448 5.2921 13.584C5.2921 12.696 4.5721 11.976 3.6841 11.976C2.8201 11.976 2.1001 12.696 2.1001 13.584ZM6.2041 13.92H8.4121V13.248H6.2041V13.92ZM7.3801 6.096C7.3801 5.28 8.0521 4.608 8.8441 4.608C9.6601 4.608 10.3321 5.28 10.3321 6.096C10.3321 6.888 9.6601 7.56 8.8441 7.56C8.0521 7.56 7.3801 6.888 7.3801 6.096ZM10.1161 13.56C10.1161 12.264 11.1481 11.232 12.4441 11.232C13.7401 11.232 14.7721 12.264 14.7721 13.56C14.7721 14.88 13.7401 15.888 12.4441 15.888C11.1481 15.888 10.1161 14.88 10.1161 13.56ZM15.5641 10.848L15.9481 11.4L18.3241 9.672L17.9161 9.12L15.5641 10.848ZM18.2041 17.904C18.2041 17.088 18.8761 16.416 19.6681 16.416C20.4841 16.416 21.1561 17.088 21.1561 17.904C21.1561 18.696 20.4841 19.368 19.6681 19.368C18.8761 19.368 18.2041 18.696 18.2041 17.904ZM18.6121 7.872C18.6121 8.76 19.3321 9.48 20.1961 9.48C21.0841 9.48 21.8041 8.76 21.8041 7.872C21.8041 6.984 21.0841 6.264 20.1961 6.264C19.3321 6.264 18.6121 6.984 18.6121 7.872Z" fill="black"/>
</svg>
