<svg width="24" height="24" viewBox="0 0 24 24" fill="none" xmlns="http://www.w3.org/2000/svg">
<path d="M8.208 15.792H14.352V15H12.168C11.304 15 10.44 15 9.552 15.024L15.816 8.784L15.216 8.184L8.976 14.448C8.976 13.56 9 12.696 9 11.808L8.976 9.648H8.208V15.792ZM3 12C3 17.04 6.96 21 12 21C17.04 21 21 16.896 21 12C21 6.96 17.04 3 12 3C6.96 3 3 6.96 3 12ZM3.84 12C3.84 7.416 7.44 3.84 12 3.84C16.584 3.84 20.16 7.416 20.16 12C20.16 16.44 16.584 20.16 12 20.16C7.44 20.16 3.84 16.56 3.84 12Z" fill="black"/>
</svg>
