<svg width="24" height="24" viewBox="0 0 24 24" fill="none" xmlns="http://www.w3.org/2000/svg">
<path d="M8.84409 16.14H11.7961C13.4041 16.14 14.7961 15.54 15.7801 14.244C15.9721 14.004 16.1161 13.788 16.2361 13.524H16.8361C19.5961 13.524 21.6601 11.7 21.6601 9.156C21.6601 6.564 19.5961 4.74 16.8361 4.74H3.78009V10.26C3.78009 12.084 4.11609 13.284 4.88409 14.244C5.89209 15.54 7.23609 16.14 8.84409 16.14ZM2.34009 18.42C2.60409 18.9 3.15609 19.26 3.78009 19.26H17.9401C18.5881 19.26 19.1161 18.9 19.3801 18.42H2.34009ZM4.64409 10.596V5.556H15.9961V10.596C15.9961 13.452 14.7001 15.3 11.8441 15.3H8.79609C6.03609 15.3 4.64409 13.524 4.64409 10.596ZM16.5481 12.708C16.7881 12.036 16.8601 11.244 16.8601 10.26V5.556C19.3321 5.556 20.7961 6.804 20.7961 9.012V9.324C20.7961 11.46 19.3321 12.708 16.8841 12.708H16.5481Z" fill="black"/>
</svg>
