<svg width="24" height="24" viewBox="0 0 24 24" fill="none" xmlns="http://www.w3.org/2000/svg">
<path d="M4.7641 19.92H12.2041V19.128H9.5401L10.2361 15.84H12.2041V15.024H3.9481C3.3481 15.024 2.9401 14.616 2.9401 14.016V4.92C2.9401 4.32 3.3481 3.936 3.9481 3.936H18.9721C19.5721 3.936 19.9801 4.32 19.9801 4.92V6.12H20.8201V4.92C20.8201 3.936 20.0041 3.12 19.0201 3.12H3.9001C2.9161 3.12 2.1001 3.936 2.1001 4.92V14.04C2.1001 15.024 2.9161 15.84 3.9001 15.84H9.4441L8.7481 19.128H6.1801C5.5801 19.128 5.0281 19.464 4.7641 19.92ZM13.8601 19.08C13.8601 20.064 14.6761 20.88 15.6601 20.88H20.1001C21.0841 20.88 21.9001 20.064 21.9001 19.08V9.6C21.9001 8.616 21.0841 7.8 20.1001 7.8H15.6601C14.6761 7.8 13.8601 8.616 13.8601 9.6V19.08ZM14.6761 19.104V9.576C14.6761 8.976 15.0841 8.568 15.6841 8.568H20.1001C20.7001 8.568 21.0841 8.976 21.0841 9.576V19.104C21.0841 19.704 20.7001 20.112 20.1001 20.112H15.6841C15.0841 20.112 14.6761 19.704 14.6761 19.104ZM17.1001 18.312C17.1001 18.744 17.4361 19.104 17.8921 19.104C18.3241 19.104 18.6601 18.744 18.6601 18.312C18.6601 17.88 18.3241 17.544 17.8921 17.544C17.4361 17.544 17.1001 17.88 17.1001 18.312Z" fill="black"/>
</svg>
