<svg width="24" height="24" viewBox="0 0 24 24" fill="none" xmlns="http://www.w3.org/2000/svg">
<path d="M12 21C17.04 21 21 16.896 21 12C21 6.96 17.04 3 12 3C6.96 3 3 6.96 3 12C3 17.04 6.96 21 12 21ZM3.84 12C3.84 7.416 7.44 3.84 12 3.84C16.584 3.84 20.16 7.416 20.16 12C20.16 16.44 16.584 20.16 12 20.16C7.44 20.16 3.84 16.56 3.84 12ZM8.784 14.088C8.784 15.576 10.104 16.704 11.976 16.704H12.024C13.92 16.704 15.24 15.576 15.24 14.088C15.24 13.08 14.616 12.24 13.584 11.904V11.784C14.472 11.448 15 10.704 15 9.816C15 8.424 13.752 7.344 12.024 7.344H11.976C10.248 7.344 9 8.424 9 9.816C9 10.728 9.528 11.448 10.416 11.784V11.904C9.384 12.24 8.784 13.08 8.784 14.088ZM9.648 14.16V13.968C9.648 12.912 10.44 12.24 11.952 12.24H12.048C13.584 12.24 14.376 12.912 14.376 13.968V14.16C14.376 15.24 13.56 15.912 12.048 15.912H11.952C10.464 15.912 9.648 15.24 9.648 14.16ZM9.84 9.936V9.768C9.84 8.76 10.584 8.136 11.952 8.136H12.048C13.416 8.136 14.16 8.76 14.16 9.768V9.936C14.16 10.92 13.44 11.52 12.048 11.52H11.952C10.56 11.52 9.84 10.92 9.84 9.936Z" fill="black"/>
</svg>
