<svg width="24" height="24" viewBox="0 0 24 24" fill="none" xmlns="http://www.w3.org/2000/svg">
<path d="M13.0681 16.704C14.9881 16.704 16.2121 15.384 16.2121 13.608C16.2121 11.808 14.9641 10.536 13.2361 10.536C12.3481 10.536 11.6281 10.896 11.1721 11.496H11.0761L11.4121 8.352H15.7081V7.584H10.7161L10.2361 12.744H11.0281C11.3161 11.856 11.9641 11.28 13.0921 11.28H13.1401C14.5561 11.28 15.3721 12.12 15.3721 13.512V13.704C15.3721 15.096 14.6041 15.936 13.0921 15.936H13.0441C11.5321 15.936 10.7641 15.072 10.7401 13.752H9.92411C9.92411 15.408 11.1481 16.704 13.0681 16.704ZM4.06812 12C4.06812 17.04 8.02812 21 13.0681 21H19.9321V20.16H13.0681C8.50811 20.16 4.90812 16.56 4.90812 12C4.90812 7.536 8.50811 3.84 13.0681 3.84H19.9321V3H13.0681C8.02812 3 4.06812 7.08 4.06812 12Z" fill="black"/>
</svg>
