<svg width="24" height="24" viewBox="0 0 24 24" fill="none" xmlns="http://www.w3.org/2000/svg">
<path d="M12 21C17.04 21 21 16.896 21 12C21 6.96 17.04 3 12 3C6.96 3 3 6.96 3 12C3 17.04 6.96 21 12 21ZM3.84 12C3.84 7.416 7.44 3.84 12 3.84C16.584 3.84 20.16 7.416 20.16 12C20.16 16.44 16.584 20.16 12 20.16C7.44 20.16 3.84 16.56 3.84 12ZM8.256 14.4H12.792V16.464H13.608V14.4H15.072V13.656H13.608V7.584H12.264L8.256 13.632V14.4ZM9.072 13.656L12.528 8.472H12.792V11.856V13.656H9.072Z" fill="black"/>
</svg>
