<svg width="24" height="24" viewBox="0 0 24 24" fill="none" xmlns="http://www.w3.org/2000/svg">
<path d="M12 21C17.088 21 21 16.896 21 12C21 6.96 17.064 3 12 3C6.936 3 3 6.96 3 12C3 17.04 6.936 21 12 21ZM3.816 12.336H7.008C7.032 13.968 7.296 15.456 7.752 16.728H5.256C4.392 15.48 3.888 13.968 3.816 12.336ZM3.816 11.664C3.888 10.008 4.392 8.52 5.232 7.272H7.752C7.296 8.544 7.032 10.032 7.008 11.664H3.816ZM5.76 6.576C6.816 5.328 8.256 4.416 9.888 4.008C9.144 4.584 8.496 5.472 8.016 6.576H5.76ZM5.784 17.424H8.016C8.496 18.528 9.144 19.416 9.888 19.992C8.256 19.56 6.84 18.672 5.784 17.424ZM7.704 12.336H11.664V16.728H8.448C8.016 15.48 7.752 13.968 7.704 12.336ZM7.704 11.664C7.728 10.008 8.016 8.52 8.448 7.272H11.664V11.664H7.704ZM8.736 6.576C9.456 4.968 10.488 3.936 11.664 3.768V6.576H8.736ZM8.736 17.424H11.664V20.232C10.488 20.064 9.456 19.008 8.736 17.424ZM12.336 20.232V17.424H15.264C14.544 19.008 13.512 20.064 12.336 20.232ZM12.336 16.728V12.336H16.296C16.248 13.968 15.984 15.48 15.552 16.728H12.336ZM12.336 11.664V7.272H15.552C15.984 8.52 16.272 10.008 16.296 11.664H12.336ZM12.336 6.576V3.768C13.512 3.936 14.544 4.968 15.264 6.576H12.336ZM14.112 4.008C15.744 4.416 17.184 5.328 18.24 6.576H15.984C15.504 5.472 14.856 4.584 14.112 4.008ZM14.136 19.968C14.88 19.392 15.504 18.528 15.984 17.424H18.192C17.136 18.648 15.744 19.56 14.136 19.968ZM16.248 16.728C16.704 15.456 16.968 13.968 16.992 12.336H20.184C20.112 13.968 19.584 15.48 18.72 16.728H16.248ZM16.248 7.272H18.768C19.608 8.52 20.112 10.008 20.184 11.664H16.992C16.968 10.032 16.704 8.544 16.248 7.272Z" fill="black"/>
</svg>
