<svg width="24" height="24" viewBox="0 0 24 24" fill="none" xmlns="http://www.w3.org/2000/svg">
<path d="M12 15.072C10.296 15.072 8.928 13.704 8.928 12C8.928 10.296 10.296 8.928 12 8.928C13.704 8.928 15.072 10.296 15.072 12C15.072 13.704 13.704 15.072 12 15.072ZM3 12C3 17.04 6.96 21 12 21C17.04 21 21 16.896 21 12C21 6.96 17.04 3 12 3C6.96 3 3 6.96 3 12ZM3.84 12C3.84 9.864 4.608 7.944 5.904 6.504L9 9.6C8.472 10.248 8.136 11.088 8.136 12C8.136 12.912 8.472 13.752 9 14.4L5.928 17.472C4.632 16.032 3.84 14.136 3.84 12ZM6.504 5.904C7.944 4.608 9.864 3.84 12 3.84C14.136 3.84 16.056 4.608 17.496 5.904L14.4 9C13.752 8.472 12.912 8.136 12 8.136C11.088 8.136 10.248 8.472 9.6 9L6.504 5.904ZM6.528 18.072L9.6 15C10.248 15.528 11.088 15.864 12 15.864C12.912 15.864 13.752 15.528 14.4 15L17.472 18.072C16.032 19.368 14.112 20.16 12 20.16C9.864 20.16 7.968 19.368 6.528 18.072ZM15 14.4C15.528 13.752 15.864 12.912 15.864 12C15.864 11.088 15.528 10.248 15 9.6L18.096 6.504C19.392 7.944 20.16 9.864 20.16 12C20.16 14.088 19.368 16.008 18.072 17.472L15 14.4Z" fill="black"/>
</svg>
