<svg width="24" height="24" viewBox="0 0 24 24" fill="none" xmlns="http://www.w3.org/2000/svg">
<path d="M18.0482 22.32L22.3202 18.048L5.95218 1.67999L1.68018 5.95199L18.0482 22.32ZM2.78418 5.95199L5.95218 2.78399L13.2242 10.032C12.3842 9.93599 11.5202 10.2 10.8482 10.848C10.2002 11.496 9.93618 12.384 10.0322 13.2L2.78418 5.95199ZM4.63218 5.90399C4.63218 6.62399 5.20818 7.19999 5.92818 7.19999C6.64818 7.19999 7.22418 6.62399 7.22418 5.90399C7.22418 5.18399 6.64818 4.60799 5.92818 4.60799C5.20818 4.60799 4.63218 5.18399 4.63218 5.90399ZM5.20818 5.90399C5.20818 5.51999 5.52018 5.18399 5.92818 5.18399C6.31218 5.18399 6.64818 5.51999 6.64818 5.90399C6.64818 6.31199 6.31218 6.62399 5.92818 6.62399C5.52018 6.62399 5.20818 6.31199 5.20818 5.90399ZM11.3762 14.52C10.5362 13.68 10.5362 12.264 11.4002 11.376C12.2882 10.536 13.6802 10.536 14.5202 11.376L21.2162 18.048L18.0482 21.216L11.3762 14.52ZM11.7122 13.032C11.7122 13.728 12.3122 14.328 13.0322 14.328C13.7282 14.328 14.3282 13.728 14.3282 13.032C14.3282 12.312 13.7282 11.712 13.0322 11.712C12.3122 11.712 11.7122 12.312 11.7122 13.032ZM12.3122 13.032C12.3122 12.624 12.6242 12.312 13.0322 12.312C13.4162 12.312 13.7522 12.624 13.7522 13.032C13.7522 13.416 13.4162 13.752 13.0322 13.752C12.6242 13.752 12.3122 13.416 12.3122 13.032Z" fill="black"/>
</svg>
