<svg width="24" height="24" viewBox="0 0 24 24" fill="none" xmlns="http://www.w3.org/2000/svg">
<path d="M2.90381 9.528L13.3198 19.92V21.84H20.4958V12.144H21.0958V9.6H20.4958V6.816H21.0958V4.32H20.4958V2.16H13.4878V9.504L8.18381 4.224L2.90381 9.528ZM4.05581 9.528L8.20781 5.376L18.9118 16.104C19.5358 16.704 19.7998 17.4 19.7998 18.192C19.7998 19.8 18.4558 21.144 16.8718 21.144C16.1038 21.144 15.3598 20.832 14.7598 20.232L4.05581 9.528ZM15.1918 18.192C15.1918 19.08 15.9358 19.872 16.8958 19.872C17.8078 19.872 18.5038 19.08 18.5038 18.192C18.5038 17.28 17.7838 16.536 16.8958 16.536C15.9358 16.536 15.1918 17.28 15.1918 18.192ZM15.8878 18.192C15.8878 17.64 16.3198 17.208 16.8958 17.208C17.3998 17.208 17.8318 17.64 17.8318 18.192C17.8318 18.72 17.3998 19.2 16.8958 19.2C16.3198 19.2 15.8878 18.72 15.8878 18.192Z" fill="black"/>
</svg>
