<svg width="24" height="24" viewBox="0 0 24 24" fill="none" xmlns="http://www.w3.org/2000/svg">
<path d="M12 21C17.04 21 21 16.896 21 12C21 6.96 17.04 3 12 3C6.96 3 3 6.96 3 12C3 17.04 6.96 21 12 21ZM3.84 12C3.84 7.416 7.44 3.84 12 3.84C16.584 3.84 20.16 7.416 20.16 12C20.16 16.44 16.584 20.16 12 20.16C7.44 20.16 3.84 16.56 3.84 12ZM8.976 13.968C9.144 15.624 10.368 16.704 12.024 16.704C14.232 16.704 15.48 14.832 15.456 11.904C15.432 9.048 14.184 7.344 12.048 7.344C10.296 7.344 8.976 8.664 8.976 10.464C8.976 12.216 10.248 13.536 11.976 13.536C13.2 13.536 14.184 12.816 14.52 11.736H14.616C14.712 14.04 14.16 15.936 12 15.936C10.728 15.936 9.984 15.24 9.792 13.968H8.976ZM9.816 10.536V10.32C9.816 8.976 10.632 8.136 12.024 8.136H12.12C13.56 8.136 14.328 9.072 14.328 10.32V10.536C14.328 11.88 13.536 12.744 12.12 12.744H12.024C10.632 12.744 9.816 11.904 9.816 10.536Z" fill="black"/>
</svg>
