<svg width="24" height="24" viewBox="0 0 24 24" fill="none" xmlns="http://www.w3.org/2000/svg">
<path d="M12.0001 21.36C17.1601 21.36 21.3601 17.16 21.3601 12C21.3601 6.84 17.1601 2.64 12.0001 2.64C6.84014 2.64 2.64014 6.84 2.64014 12C2.64014 17.16 6.84014 21.36 12.0001 21.36ZM6.40814 11.712C6.40814 11.016 6.96014 10.464 7.65614 10.464C7.99214 10.464 8.30414 10.608 8.52014 10.824C9.38414 10.224 10.5121 9.864 11.7841 9.816L12.5041 6.552C12.5281 6.408 12.6241 6.36 12.7681 6.384L15.0721 6.888C15.2161 6.576 15.5281 6.384 15.9121 6.384C16.4401 6.384 16.8481 6.792 16.8481 7.32C16.8481 7.848 16.4401 8.256 15.9121 8.256C15.3841 8.256 14.9761 7.848 14.9761 7.32L12.8881 6.864L12.2401 9.816C13.4881 9.864 14.6401 10.224 15.4801 10.824C15.6961 10.608 16.0081 10.464 16.3441 10.464C17.0401 10.464 17.5921 11.016 17.5921 11.712C17.5921 12.192 17.3281 12.6 16.9201 12.816C16.9681 13.008 16.9921 13.2 16.9921 13.392C16.9921 15.36 14.7841 16.968 12.0001 16.968C9.21614 16.968 7.00814 15.36 7.00814 13.392C7.00814 13.2 7.03214 13.008 7.08014 12.816C6.67214 12.6 6.40814 12.192 6.40814 11.712ZM9.00014 12.936C9.00014 13.464 9.40814 13.872 9.93614 13.872C10.4641 13.872 10.8721 13.464 10.8721 12.936C10.8721 12.408 10.4641 12 9.93614 12C9.40814 12 9.00014 12.408 9.00014 12.936ZM9.81614 15C9.81614 15.072 9.84014 15.144 9.91214 15.192C10.3921 15.576 11.2321 15.792 12.0001 15.792C12.7921 15.792 13.6561 15.576 14.1121 15.168C14.1601 15.144 14.1841 15.072 14.1841 15C14.1841 14.856 14.0881 14.76 13.9441 14.76C13.8721 14.76 13.8241 14.784 13.7761 14.832C13.4161 15.144 12.7441 15.312 12.0001 15.312C11.2801 15.312 10.6081 15.144 10.2001 14.808C10.1761 14.784 10.1041 14.76 10.0561 14.76C9.91214 14.76 9.81614 14.856 9.81614 15ZM13.1281 12.936C13.1281 13.464 13.5361 13.872 14.0641 13.872C14.5921 13.872 15.0001 13.464 15.0001 12.936C15.0001 12.408 14.5921 12 14.0641 12C13.5361 12 13.1281 12.408 13.1281 12.936Z" fill="black"/>
</svg>
