<svg width="24" height="24" viewBox="0 0 24 24" fill="none" xmlns="http://www.w3.org/2000/svg">
<path d="M18.7679 16.632V15.816H8.61591L8.18391 13.56H19.9199L21.8399 4.79999L6.43191 4.77599L6.09591 3.09599H2.15991V3.91199H5.42391L7.94391 16.632H18.7679ZM6.59991 5.59199L20.8079 5.61599L19.2479 12.744H8.01591L6.59991 5.59199ZM7.27191 19.512C7.27191 20.256 7.89591 20.904 8.68791 20.904C9.45591 20.904 10.0799 20.256 10.0799 19.512C10.0799 18.744 9.45591 18.12 8.68791 18.12C7.89591 18.12 7.27191 18.744 7.27191 19.512ZM7.96791 19.512C7.96791 19.104 8.27991 18.792 8.68791 18.792C9.07191 18.792 9.40791 19.104 9.40791 19.512C9.40791 19.896 9.07191 20.232 8.68791 20.232C8.27991 20.232 7.96791 19.896 7.96791 19.512ZM16.4399 19.512C16.4399 20.256 17.0639 20.904 17.8319 20.904C18.5999 20.904 19.2239 20.256 19.2239 19.512C19.2239 18.744 18.5999 18.12 17.8319 18.12C17.0639 18.12 16.4399 18.744 16.4399 19.512ZM17.1119 19.512C17.1119 19.104 17.4479 18.792 17.8319 18.792C18.2399 18.792 18.5519 19.104 18.5519 19.512C18.5519 19.896 18.2399 20.232 17.8319 20.232C17.4479 20.232 17.1119 19.896 17.1119 19.512Z" fill="black"/>
</svg>
