<svg width="24" height="24" viewBox="0 0 24 24" fill="none" xmlns="http://www.w3.org/2000/svg">
<path d="M10.9081 16.704C12.7081 16.704 13.9801 15.384 13.9801 13.608C13.9801 11.832 12.7081 10.512 10.9801 10.512C9.75611 10.512 8.77211 11.232 8.41212 12.288H8.34012C8.24411 10.008 8.77211 8.112 10.9561 8.112C12.2041 8.112 12.9721 8.76 13.1641 10.008H13.9561C13.7401 8.4 12.5881 7.344 10.9561 7.344C8.74812 7.344 7.47611 9.216 7.50011 12.144C7.52412 15 8.77211 16.704 10.9081 16.704ZM4.06812 21H10.9321C15.9721 21 19.9321 16.896 19.9321 12C19.9321 6.96 15.9721 3 10.9321 3H4.06812V3.84H10.9321C15.5161 3.84 19.0921 7.416 19.0921 12C19.0921 16.44 15.5161 20.16 10.9321 20.16H4.06812V21ZM8.60412 13.704V13.488C8.60412 12.144 9.42011 11.28 10.8361 11.28H10.9321C12.3481 11.28 13.1641 12.12 13.1641 13.488V13.704C13.1641 15.072 12.3481 15.912 10.9321 15.912H10.8361C9.39611 15.912 8.60412 14.952 8.60412 13.704Z" fill="black"/>
</svg>
