<svg width="24" height="24" viewBox="0 0 24 24" fill="none" xmlns="http://www.w3.org/2000/svg">
<path d="M12.0001 21.54C16.3681 21.54 19.9201 17.988 19.9201 13.62C19.9201 11.604 19.1521 9.75599 17.8801 8.33999L19.2721 6.97199L18.6481 6.34799L17.2801 7.73999C15.9841 6.56399 14.2801 5.79599 12.4321 5.72399V3.29999H14.4001V2.45999H9.60008V3.29999H11.5921V5.72399C7.41608 5.93999 4.08008 9.39599 4.08008 13.62C4.08008 17.988 7.63208 21.54 12.0001 21.54ZM4.92008 13.62C4.92008 9.70799 8.11208 6.53999 12.0001 6.53999C15.9121 6.53999 19.0801 9.70799 19.0801 13.62C19.0801 17.508 15.9121 20.7 12.0001 20.7C8.11208 20.7 4.92008 17.508 4.92008 13.62ZM11.5921 14.1C11.5921 14.34 11.7601 14.508 12.0001 14.508C12.2401 14.508 12.4321 14.34 12.4321 14.1V8.38799H11.5921V14.1Z" fill="black"/>
</svg>
