<svg width="24" height="24" viewBox="0 0 24 24" fill="none" xmlns="http://www.w3.org/2000/svg">
<path d="M12 21C17.04 21 21 16.896 21 12C21 6.96 17.04 3 12 3C6.96 3 3 6.96 3 12C3 17.04 6.96 21 12 21ZM3.84 12C3.84 7.416 7.44 3.84 12 3.84C16.584 3.84 20.16 7.416 20.16 12C20.16 16.44 16.584 20.16 12 20.16C7.44 20.16 3.84 16.56 3.84 12ZM8.808 13.68C8.808 15.408 10.008 16.68 11.976 16.68C13.848 16.68 15.216 15.576 15.216 14.016C15.216 13.008 14.64 12.192 13.464 11.88V11.76C14.568 11.448 14.952 10.704 14.952 9.888C14.952 8.424 13.68 7.32 12 7.32C10.2 7.32 8.952 8.568 8.952 10.128V10.296H9.792C9.792 8.88 10.536 8.088 12 8.088C13.368 8.088 14.112 8.76 14.112 9.936C14.112 10.896 13.752 11.472 11.904 11.472H11.208V12.24H11.904C13.752 12.24 14.376 12.864 14.376 13.992C14.376 15.216 13.536 15.888 11.976 15.888C10.344 15.888 9.648 15.12 9.648 13.56H8.808V13.68Z" fill="black"/>
</svg>
