<svg width="24" height="24" viewBox="0 0 24 24" fill="none" xmlns="http://www.w3.org/2000/svg">
<path d="M13.0439 16.68C14.9159 16.68 16.2839 15.576 16.2839 14.016C16.2839 13.008 15.7079 12.192 14.5319 11.88V11.76C15.6359 11.448 16.0199 10.704 16.0199 9.888C16.0199 8.424 14.7479 7.32 13.0679 7.32C11.2679 7.32 10.0199 8.568 10.0199 10.128V10.296H10.8599C10.8599 8.88 11.6039 8.088 13.0679 8.088C14.4359 8.088 15.1799 8.76 15.1799 9.936C15.1799 10.896 14.8199 11.472 12.9719 11.472H12.2759V12.24H12.9719C14.8199 12.24 15.4439 12.864 15.4439 13.992C15.4439 15.216 14.6039 15.888 13.0439 15.888C11.4119 15.888 10.7159 15.12 10.7159 13.56H9.87587V13.68C9.87587 15.408 11.0759 16.68 13.0439 16.68ZM4.06787 12C4.06787 17.04 8.02787 21 13.0679 21H19.9319V20.16H13.0679C8.50787 20.16 4.90787 16.56 4.90787 12C4.90787 7.536 8.50787 3.84 13.0679 3.84H19.9319V3H13.0679C8.02787 3 4.06787 7.08 4.06787 12Z" fill="black"/>
</svg>
