<svg width="24" height="24" viewBox="0 0 24 24" fill="none" xmlns="http://www.w3.org/2000/svg">
<path d="M4.55999 21.504C5.08799 21.504 5.59199 21.312 6.02399 20.904L15.744 11.208C16.152 11.352 16.632 11.424 17.088 11.424C19.56 11.424 21.6 9.38399 21.6 6.91199C21.6 5.92799 21.24 4.89599 20.568 4.22399L17.616 7.17599L16.824 6.38399L19.776 3.43199C19.104 2.75999 18.072 2.39999 17.088 2.39999C14.616 2.39999 12.576 4.43999 12.576 6.91199C12.576 7.39199 12.648 7.84799 12.792 8.25599L3.11999 17.952C2.68799 18.384 2.49599 18.912 2.49599 19.416C2.49599 20.568 3.40799 21.504 4.55999 21.504ZM2.13599 6.33599L7.27199 11.472L7.82399 10.92L7.27199 10.368L8.80799 8.80799L8.37599 8.37599L6.81599 9.93599L5.23199 8.35199L6.79199 6.79199L6.35999 6.33599L4.79999 7.89599L3.23999 6.33599L6.33599 3.21599L10.872 7.75199L10.968 7.65599C10.92 7.27199 10.944 6.98399 10.968 6.74399L6.33599 2.13599L2.13599 6.33599ZM3.31199 19.44C3.31199 19.104 3.40799 18.792 3.69599 18.528L13.728 8.47199C13.512 8.01599 13.392 7.48799 13.392 6.91199C13.392 4.87199 15.048 3.21599 17.088 3.21599C17.64 3.21599 18.192 3.33599 18.648 3.57599L15.888 6.35999L17.64 8.11199L20.424 5.35199C20.664 5.80799 20.784 6.35999 20.784 6.91199C20.784 8.95199 19.128 10.608 17.088 10.608C16.512 10.608 15.984 10.488 15.528 10.272L5.44799 20.328C5.18399 20.592 4.89599 20.712 4.55999 20.712C3.86399 20.712 3.31199 20.136 3.31199 19.44ZM12.528 16.728L17.664 21.864L21.864 17.664L17.256 13.032C17.016 13.056 16.728 13.08 16.344 13.032L16.248 13.128L20.76 17.664L17.664 20.76L16.104 19.2L17.664 17.664L17.208 17.208L15.648 18.768L14.064 17.184L15.624 15.624L15.192 15.192L13.632 16.728L13.08 16.176L12.528 16.728Z" fill="black"/>
</svg>
