<svg width="24" height="24" viewBox="0 0 24 24" fill="none" xmlns="http://www.w3.org/2000/svg">
<path d="M4.4639 21.6C4.9919 21.6 5.5199 21.408 5.9279 21L15.7439 11.208C16.1519 11.352 16.6319 11.424 17.0879 11.424C19.5599 11.424 21.5999 9.38399 21.5999 6.91199C21.5999 5.92799 21.2399 4.89599 20.5679 4.22399L17.6159 7.17599L16.8239 6.38399L19.7759 3.43199C19.1039 2.75999 18.0719 2.39999 17.0879 2.39999C14.6159 2.39999 12.5759 4.43999 12.5759 6.91199C12.5759 7.39199 12.6479 7.84799 12.7919 8.25599L3.0239 18.048C2.5919 18.48 2.3999 18.984 2.3999 19.512C2.3999 20.664 3.3119 21.6 4.4639 21.6ZM3.2159 19.536C3.2159 19.2 3.3359 18.888 3.5999 18.624L13.7279 8.47199C13.5119 8.01599 13.3919 7.48799 13.3919 6.91199C13.3919 4.87199 15.0479 3.21599 17.0879 3.21599C17.6399 3.21599 18.1919 3.33599 18.6479 3.57599L15.8879 6.35999L17.6399 8.11199L20.4239 5.35199C20.6639 5.80799 20.7839 6.35999 20.7839 6.91199C20.7839 8.95199 19.1279 10.608 17.0879 10.608C16.5119 10.608 15.9839 10.488 15.5279 10.272L5.3759 20.424C5.0879 20.688 4.7999 20.784 4.4639 20.784C3.7679 20.784 3.2159 20.208 3.2159 19.536Z" fill="black"/>
</svg>
