<svg width="24" height="24" viewBox="0 0 24 24" fill="none" xmlns="http://www.w3.org/2000/svg">
<path d="M4.66797 19.188V21.18H19.332V19.188C19.308 17.892 18.924 16.788 18.252 15.9C17.268 14.652 15.708 13.86 14.004 13.86H9.97197C8.26797 13.86 6.70797 14.652 5.74797 15.9C5.05197 16.788 4.66797 17.892 4.66797 19.188ZM5.53197 20.364V18.9C5.53197 16.428 7.30797 14.724 9.80397 14.724H14.196C16.668 14.724 18.444 16.428 18.444 18.9V20.364H5.53197ZM7.59597 7.18801C7.59597 9.61201 9.56397 11.556 11.988 11.556C14.412 11.556 16.38 9.61201 16.38 7.18801C16.38 4.76401 14.412 2.82001 11.988 2.82001C9.56397 2.82001 7.59597 4.76401 7.59597 7.18801ZM8.43597 7.18801C8.43597 5.22001 10.02 3.63601 11.988 3.63601C13.956 3.63601 15.54 5.22001 15.54 7.18801C15.54 9.15601 13.956 10.74 11.988 10.74C10.02 10.74 8.43597 9.15601 8.43597 7.18801Z" fill="black"/>
</svg>
