<svg width="24" height="24" viewBox="0 0 24 24" fill="none" xmlns="http://www.w3.org/2000/svg">
<path d="M4.66797 19.344V21.36H19.332V19.344C19.332 17.232 18.228 15.456 16.452 14.616V11.112H7.52397V14.616C5.74797 15.48 4.66797 17.232 4.66797 19.344ZM5.53197 20.544V19.032C5.53197 17.136 6.53997 15.792 8.33997 15.192V11.88H11.604V20.544H5.53197ZM5.74797 7.15202H18.228V6.33601H15.828V4.17601C15.828 3.31201 15.156 2.64001 14.292 2.64001H9.68397C8.81997 2.64001 8.14797 3.31201 8.14797 4.17601V6.33601H5.74797V7.15202ZM8.67597 8.64002C8.67597 9.40802 9.29997 10.032 10.068 10.032C10.716 10.032 11.268 9.57602 11.412 8.97602H12.54C12.684 9.57602 13.236 10.032 13.884 10.032C14.652 10.032 15.276 9.40802 15.276 8.64002C15.276 7.87201 14.652 7.24801 13.884 7.24801C13.236 7.24801 12.684 7.70402 12.54 8.30402H11.412C11.268 7.70402 10.716 7.24801 10.068 7.24801C9.29997 7.24801 8.67597 7.87201 8.67597 8.64002ZM8.93997 6.33601V4.22401C8.93997 3.72001 9.22797 3.40801 9.73197 3.40801H14.244C14.748 3.40801 15.06 3.72001 15.06 4.22401V6.33601H8.93997ZM9.34797 8.64002C9.34797 8.23202 9.68397 7.92002 10.068 7.92002C10.476 7.92002 10.788 8.23202 10.788 8.64002C10.788 9.02402 10.476 9.36002 10.068 9.36002C9.68397 9.36002 9.34797 9.02402 9.34797 8.64002ZM12.372 20.544V11.88H15.636V15.192C17.436 15.768 18.444 17.136 18.444 19.032V20.544H12.372ZM13.164 8.64002C13.164 8.23202 13.5 7.92002 13.884 7.92002C14.292 7.92002 14.604 8.23202 14.604 8.64002C14.604 9.02402 14.292 9.36002 13.884 9.36002C13.5 9.36002 13.164 9.02402 13.164 8.64002Z" fill="black"/>
</svg>
