<svg width="24" height="24" viewBox="0 0 24 24" fill="none" xmlns="http://www.w3.org/2000/svg">
<path d="M3.26416 19.188V21.18H17.9282V18.204L17.0402 19.068V20.364H4.12816V18.9C4.12816 16.452 5.90416 14.724 8.40016 14.724H10.0082L9.14416 13.86H8.49616C6.79216 13.86 5.30416 14.652 4.34416 15.9C3.64816 16.788 3.26416 17.892 3.26416 19.188ZM6.19216 7.18801C6.19216 9.61201 8.16016 11.556 10.5842 11.556C13.0082 11.556 14.9762 9.61201 14.9762 7.18801C14.9762 4.76401 13.0082 2.82001 10.5842 2.82001C8.16016 2.82001 6.19216 4.76401 6.19216 7.18801ZM7.03216 7.18801C7.03216 5.22001 8.61616 3.63601 10.5842 3.63601C12.5522 3.63601 14.1362 5.22001 14.1362 7.18801C14.1362 9.15601 12.5522 10.74 10.5842 10.74C8.61616 10.74 7.03216 9.15601 7.03216 7.18801ZM12.0722 14.028L15.2402 17.22L20.7362 11.7L20.1602 11.124L15.2402 16.02L12.6482 13.452L12.0722 14.028Z" fill="black"/>
</svg>
