<svg width="24" height="24" viewBox="0 0 24 24" fill="none" xmlns="http://www.w3.org/2000/svg">
<path d="M2.08789 8.532L2.71189 9.156C5.08789 6.852 8.23189 5.412 11.9999 5.412C15.7679 5.412 18.9119 6.852 21.3119 9.156L21.9119 8.532C19.3919 6.108 15.9599 4.548 11.9999 4.548C8.03989 4.548 4.60789 6.108 2.08789 8.532ZM5.13589 11.844L5.71189 12.492C7.43989 11.004 9.50389 10.14 11.9999 10.14C14.4959 10.14 16.5599 11.004 18.2879 12.492L18.8639 11.844C17.0159 10.26 14.6639 9.276 11.9999 9.276C9.33589 9.276 6.98389 10.26 5.13589 11.844ZM8.18389 15.252L8.75989 15.876C9.62389 15.156 10.7279 14.7 11.9999 14.7C13.2719 14.7 14.3519 15.156 15.2399 15.876L15.7919 15.228C14.8079 14.388 13.4639 13.836 11.9999 13.836C10.5359 13.836 9.19189 14.388 8.18389 15.252ZM10.7519 18.084L11.9999 19.452L13.2479 18.084C12.9359 17.796 12.5039 17.628 11.9999 17.628C11.4959 17.628 11.0639 17.796 10.7519 18.084Z" fill="black"/>
</svg>
