<svg width="24" height="24" viewBox="0 0 24 24" fill="none" xmlns="http://www.w3.org/2000/svg">
<path d="M12 21C17.04 21 21 16.896 21 12C21 6.96 17.04 3 12 3C6.96 3 3 6.96 3 12C3 17.04 6.96 21 12 21ZM3.84 12C3.84 7.416 7.44 3.84 12 3.84C16.584 3.84 20.16 7.416 20.16 12C20.16 16.44 16.584 20.16 12 20.16C7.44 20.16 3.84 16.56 3.84 12ZM8.544 12.024C8.544 14.856 9.72 16.704 12 16.704C14.28 16.704 15.456 14.856 15.456 12.024C15.456 9.192 14.304 7.344 12 7.344C9.72 7.344 8.544 9.192 8.544 12.024ZM9.384 12.336V11.736C9.384 9.288 10.224 8.112 12 8.112C12.96 8.112 13.656 8.448 14.064 9.144L9.624 14.184C9.456 13.68 9.384 13.056 9.384 12.336ZM9.912 14.856L14.376 9.792C14.544 10.32 14.616 10.968 14.616 11.736V12.336C14.616 14.76 13.776 15.96 12 15.96C11.016 15.96 10.32 15.6 9.912 14.856Z" fill="black"/>
</svg>
