<svg width="24" height="24" viewBox="0 0 24 24" fill="none" xmlns="http://www.w3.org/2000/svg">
<path d="M10.9319 16.704C13.2119 16.704 14.3879 14.856 14.3879 12.024C14.3879 9.192 13.2359 7.344 10.9319 7.344C8.65187 7.344 7.47587 9.192 7.47587 12.024C7.47587 14.856 8.65187 16.704 10.9319 16.704ZM4.06787 21H10.9319C15.9719 21 19.9319 16.896 19.9319 12C19.9319 6.96 15.9719 3 10.9319 3H4.06787V3.84H10.9319C15.5159 3.84 19.0919 7.416 19.0919 12C19.0919 16.44 15.5159 20.16 10.9319 20.16H4.06787V21ZM8.31587 12.336V11.736C8.31587 9.288 9.15587 8.112 10.9319 8.112C11.8919 8.112 12.5879 8.448 12.9959 9.144L8.55587 14.184C8.38787 13.68 8.31587 13.056 8.31587 12.336ZM8.84387 14.88L13.3079 9.816C13.4759 10.344 13.5479 10.968 13.5479 11.736V12.336C13.5479 14.76 12.7079 15.96 10.9319 15.96C9.94787 15.96 9.27587 15.6 8.84387 14.88Z" fill="black"/>
</svg>
