<svg width="24" height="24" viewBox="0 0 24 24" fill="none" xmlns="http://www.w3.org/2000/svg">
<path d="M3.64795 19.152L7.94395 21.648L11.9999 19.296L16.0559 21.648L20.3519 19.152V14.208L16.5359 12L20.3519 9.79199V4.84799L16.0559 2.35199L11.9999 4.70399L7.94395 2.35199L3.64795 4.84799V9.79199L7.46395 12L3.64795 14.208V19.152ZM4.12795 18.864V14.736L7.72795 16.8V20.952L4.12795 18.864ZM4.12795 9.50399V5.37599L7.72795 7.43999V11.592L4.12795 9.50399ZM4.34395 14.376L7.96795 12.264L11.5679 14.352L7.94395 16.44L4.34395 14.376ZM4.34395 5.01599L7.94395 2.92799L11.5439 5.01599L7.94395 7.07999L4.34395 5.01599ZM8.15995 20.952V16.8L11.7839 14.736V18.864L8.15995 20.952ZM8.15995 11.616V7.43999L11.7839 5.37599V9.52799L8.15995 11.616ZM8.37595 12L11.9999 9.88799L15.6239 12L11.9999 14.112L8.37595 12ZM12.2159 18.864V14.736L15.8399 16.8V20.952L12.2159 18.864ZM12.2159 9.52799V5.37599L15.8399 7.43999V11.616L12.2159 9.52799ZM12.4319 14.352L16.0319 12.264L19.6559 14.376L16.0559 16.44L12.4319 14.352ZM12.4559 5.01599L16.0559 2.92799L19.6559 5.01599L16.0559 7.07999L12.4559 5.01599ZM16.2719 20.952V16.8L19.8719 14.736V18.864L16.2719 20.952ZM16.2719 11.592V7.43999L19.8719 5.37599V9.50399L16.2719 11.592Z" fill="black"/>
</svg>
