<svg width="24" height="24" viewBox="0 0 24 24" fill="none" xmlns="http://www.w3.org/2000/svg">
<path d="M19.6559 20.016C20.8079 20.016 21.7679 19.056 21.7679 17.904C21.7679 16.752 20.8079 15.792 19.6559 15.792C18.9839 15.792 18.3839 16.104 17.9999 16.608L15.1199 14.904C15.3119 14.496 15.4319 14.04 15.4319 13.56C15.4319 11.904 14.0879 10.56 12.4319 10.56C12.0479 10.56 11.6879 10.632 11.3519 10.752L9.95993 7.87201C10.5599 7.48801 10.9439 6.84001 10.9439 6.09601C10.9439 4.94401 9.98393 3.98401 8.83193 3.98401C7.67993 3.98401 6.71993 4.94401 6.71993 6.09601C6.71993 7.24801 7.67993 8.20801 8.83193 8.20801C9.07193 8.20801 9.31193 8.16001 9.55193 8.08801L10.9199 10.968C10.0319 11.496 9.43193 12.456 9.43193 13.56C9.43193 15.24 10.7519 16.56 12.4319 16.56C13.4399 16.56 14.3279 16.08 14.8799 15.312L17.7359 17.016C17.6159 17.28 17.5439 17.592 17.5439 17.904C17.5439 19.056 18.5039 20.016 19.6559 20.016ZM2.23193 13.584C2.23193 14.376 2.87993 15.024 3.67193 15.024C4.46393 15.024 5.11193 14.376 5.11193 13.584C5.11193 12.792 4.46393 12.144 3.67193 12.144C2.87993 12.144 2.23193 12.792 2.23193 13.584ZM6.07193 13.824H8.47193V13.344H6.07193V13.824ZM7.19993 6.09601C7.19993 5.20801 7.94393 4.46401 8.83193 4.46401C9.71993 4.46401 10.4639 5.20801 10.4639 6.09601C10.4639 6.98401 9.71993 7.72801 8.83193 7.72801C7.94393 7.72801 7.19993 6.98401 7.19993 6.09601ZM9.91193 13.56C9.91193 12.168 11.0159 11.04 12.4319 11.04C13.8239 11.04 14.9519 12.168 14.9519 13.56C14.9519 14.976 13.8239 16.08 12.4319 16.08C11.0159 16.08 9.91193 14.976 9.91193 13.56ZM15.4799 11.016L15.7679 11.4L18.4079 9.48001L18.1199 9.09601L15.4799 11.016ZM18.0239 17.904C18.0239 17.016 18.7679 16.272 19.6559 16.272C20.5439 16.272 21.2879 17.016 21.2879 17.904C21.2879 18.792 20.5439 19.536 19.6559 19.536C18.7679 19.536 18.0239 18.792 18.0239 17.904ZM18.7439 7.87201C18.7439 8.66401 19.3919 9.31201 20.1839 9.31201C20.9759 9.31201 21.6239 8.66401 21.6239 7.87201C21.6239 7.08001 20.9759 6.43201 20.1839 6.43201C19.3919 6.43201 18.7439 7.08001 18.7439 7.87201Z" fill="black"/>
</svg>
