<svg width="24" height="24" viewBox="0 0 24 24" fill="none" xmlns="http://www.w3.org/2000/svg">
<path d="M9.64812 15.792H15.7921V9.648H15.3121V12.048V14.976L8.66412 8.304L8.30412 8.664L14.9761 15.312H12.0481H9.64812V15.792ZM3.12012 12C3.12012 16.968 7.03212 20.88 12.0001 20.88C16.9681 20.88 20.8801 16.848 20.8801 12C20.8801 7.032 16.9681 3.12 12.0001 3.12C7.03212 3.12 3.12012 7.032 3.12012 12ZM3.60012 12C3.60012 7.296 7.29612 3.6 12.0001 3.6C16.7041 3.6 20.4001 7.296 20.4001 12C20.4001 16.584 16.7041 20.4 12.0001 20.4C7.29612 20.4 3.60012 16.704 3.60012 12Z" fill="black"/>
</svg>
