<svg width="24" height="24" viewBox="0 0 24 24" fill="none" xmlns="http://www.w3.org/2000/svg">
<path d="M17.4961 16.764V17.244C20.0401 17.052 21.8161 15.132 21.8161 12.828C21.8161 10.572 20.1601 8.72397 17.9761 8.45997C17.7121 5.62797 15.3121 3.44397 12.4801 3.44397C10.4161 3.44397 8.61608 4.57197 7.65608 6.22797C4.65608 6.25197 2.18408 8.74797 2.18408 11.748C2.18408 14.34 3.98408 16.5 6.38408 17.124V16.644C4.22408 16.044 2.66408 14.124 2.66408 11.748C2.66408 8.84397 4.99208 6.58797 7.94408 6.70797C8.80808 5.02797 10.4401 3.92397 12.4801 3.92397C15.2641 3.92397 17.4721 6.05997 17.5201 8.89197C19.7281 8.98797 21.3361 10.62 21.3361 12.828C21.3361 14.94 19.7281 16.572 17.4961 16.764ZM7.65608 16.212L12.0001 20.556L16.3441 16.212L16.0081 15.876L14.1361 17.748L12.2401 19.644V11.196H11.7601V19.644L9.86408 17.748L7.99208 15.876L7.65608 16.212Z" fill="black"/>
</svg>
