<svg width="24" height="24" viewBox="0 0 24 24" fill="none" xmlns="http://www.w3.org/2000/svg">
<path d="M10.752 21.84H13.344C16.776 21.84 19.488 17.352 19.488 12C19.488 6.64797 16.776 2.15997 13.344 2.15997H10.752C7.22396 2.15997 4.51196 6.64797 4.51196 12C4.51196 17.352 7.22396 21.84 10.752 21.84ZM4.99196 12C4.99196 6.83997 7.55996 2.63997 10.752 2.63997C13.848 2.63997 16.464 6.83997 16.464 12C16.464 17.16 13.848 21.36 10.752 21.36C7.55996 21.36 4.99196 17.16 4.99196 12ZM12.672 21.36C15.144 20.064 16.944 16.32 16.944 12C16.944 7.67997 15.144 3.93597 12.672 2.63997H13.344C16.44 2.63997 19.008 6.83997 19.008 12C19.008 17.16 16.44 21.36 13.344 21.36H12.672Z" fill="black"/>
</svg>
