<svg width="24" height="24" viewBox="0 0 24 24" fill="none" xmlns="http://www.w3.org/2000/svg">
<path d="M11.9758 22.32H12.4558V20.4C15.2398 20.328 17.7838 18.72 17.7838 15.792C17.7838 13.416 16.0558 12.096 13.5118 11.736L12.4558 11.592V4.07999C15.2638 4.17599 17.0158 6.04799 17.0398 8.99999H17.5198C17.4958 5.80799 15.4798 3.71999 12.4558 3.59999V1.67999H11.9758V3.59999C9.52782 3.69599 6.88782 5.11199 6.88782 7.96799C6.88782 10.224 8.35182 11.52 10.8238 11.856L11.9758 12.024V19.92C8.75982 19.824 6.76782 17.808 6.69582 14.496H6.21582C6.28782 18.096 8.59182 20.28 11.9758 20.4V22.32ZM7.36782 7.99199V7.94399C7.36782 5.66399 9.33582 4.15199 11.9758 4.07999V11.52L10.8718 11.376C8.61582 11.064 7.36782 9.98399 7.36782 7.99199ZM12.4558 19.92V12.072L13.4638 12.216C15.8398 12.528 17.3038 13.68 17.3038 15.768V15.816C17.3038 18.288 15.2638 19.848 12.4558 19.92Z" fill="black"/>
</svg>
