<svg width="24" height="24" viewBox="0 0 24 24" fill="none" xmlns="http://www.w3.org/2000/svg">
<path d="M21.1922 21.528L21.5282 21.192L2.80817 2.47198L2.47217 2.80798L6.67217 7.00799C4.99217 8.25598 3.57617 10.008 2.64017 12C4.48817 15.984 8.37617 18.984 12.0002 18.984C13.6562 18.984 15.3842 18.336 16.9442 17.28L21.1922 21.528ZM3.16817 12C4.08017 10.128 5.42417 8.51998 7.00817 7.34399L9.62417 9.95998C9.16817 10.512 8.88017 11.232 8.88017 12C8.88017 13.728 10.2722 15.12 12.0002 15.12C12.7682 15.12 13.4882 14.856 14.0402 14.376L16.5842 16.92C15.0962 17.928 13.5362 18.504 12.0002 18.504C8.59217 18.504 4.99217 15.768 3.16817 12ZM9.36017 12C9.36017 11.352 9.57617 10.752 9.96017 10.296L13.7042 14.04C13.2242 14.424 12.6242 14.64 12.0002 14.64C10.5362 14.64 9.36017 13.464 9.36017 12ZM9.45617 5.47198L9.84017 5.85598C10.5602 5.61598 11.2802 5.49598 12.0002 5.49598C15.4082 5.49598 19.0082 8.23199 20.8322 12C20.3042 13.056 19.6562 14.04 18.8882 14.904L19.2242 15.24C20.0882 14.28 20.8082 13.176 21.3602 12C19.5122 8.01599 15.6242 5.01598 12.0002 5.01598C11.1602 5.01598 10.2962 5.18398 9.45617 5.47198Z" fill="black"/>
</svg>
