<svg width="24" height="24" viewBox="0 0 24 24" fill="none" xmlns="http://www.w3.org/2000/svg">
<path d="M12.0001 18.984C15.6241 18.984 19.5121 15.984 21.3601 12C19.5121 8.01599 15.6241 5.01599 12.0001 5.01599C8.37614 5.01599 4.48814 8.01599 2.64014 12C4.48814 15.984 8.37614 18.984 12.0001 18.984ZM3.16814 12C4.99214 8.23199 8.59214 5.49599 12.0001 5.49599C15.4081 5.49599 19.0081 8.23199 20.8321 12C19.0081 15.768 15.4081 18.504 12.0001 18.504C8.59214 18.504 4.99214 15.768 3.16814 12ZM8.88014 12C8.88014 13.728 10.2721 15.12 12.0001 15.12C13.7281 15.12 15.1201 13.728 15.1201 12C15.1201 10.272 13.7281 8.87999 12.0001 8.87999C10.2721 8.87999 8.88014 10.272 8.88014 12ZM9.36014 12C9.36014 10.536 10.5361 9.35999 12.0001 9.35999C13.4641 9.35999 14.6401 10.536 14.6401 12C14.6401 13.464 13.4641 14.64 12.0001 14.64C10.5361 14.64 9.36014 13.464 9.36014 12Z" fill="black"/>
</svg>
