<svg width="24" height="24" viewBox="0 0 24 24" fill="none" xmlns="http://www.w3.org/2000/svg">
<path d="M12.912 16.704C14.808 16.704 15.984 15.384 15.984 13.608C15.984 11.784 14.736 10.512 12.984 10.512C12.024 10.512 11.232 10.944 10.752 11.64H10.728L11.064 8.064H15.48V7.584H10.632L10.152 12.744H10.632C10.944 11.688 11.712 10.992 12.96 10.992H13.008C14.544 10.992 15.504 12 15.504 13.584V13.632C15.504 15.216 14.592 16.224 12.936 16.224H12.888C11.232 16.224 10.32 15.192 10.32 13.752H9.83998C9.83998 15.384 11.016 16.704 12.912 16.704ZM4.03198 12C4.03198 16.968 7.94398 20.88 12.912 20.88H19.968V20.4H12.912C8.20798 20.4 4.51198 16.704 4.51198 12C4.51198 7.416 8.20798 3.6 12.912 3.6H19.968V3.12H12.912C7.94398 3.12 4.03198 7.152 4.03198 12Z" fill="black"/>
</svg>
