<svg width="24" height="24" viewBox="0 0 24 24" fill="none" xmlns="http://www.w3.org/2000/svg">
<path d="M11.088 16.704C12.984 16.704 14.16 15.384 14.16 13.608C14.16 11.784 12.912 10.512 11.16 10.512C10.2 10.512 9.40798 10.944 8.92798 11.64H8.90398L9.23998 8.064H13.656V7.584H8.80798L8.32798 12.744H8.80798C9.11998 11.688 9.88798 10.992 11.136 10.992H11.184C12.72 10.992 13.68 12 13.68 13.584V13.632C13.68 15.216 12.768 16.224 11.112 16.224H11.064C9.40798 16.224 8.49598 15.192 8.49598 13.752H8.01598C8.01598 15.384 9.19198 16.704 11.088 16.704ZM4.03198 20.88H11.088C16.056 20.88 19.968 16.848 19.968 12C19.968 7.032 16.056 3.12 11.088 3.12H4.03198V3.6H11.088C15.792 3.6 19.488 7.296 19.488 12C19.488 16.584 15.792 20.4 11.088 20.4H4.03198V20.88Z" fill="black"/>
</svg>
