<svg width="24" height="24" viewBox="0 0 24 24" fill="none" xmlns="http://www.w3.org/2000/svg">
<path d="M11.7599 21.36H12.2399V17.28L14.6639 19.776L14.9999 19.44L12.2399 16.68L12.2159 12.528L18.0959 18.432L18.4319 18.096L12.5279 12.216L16.6799 12.24L19.4399 15L19.7759 14.664L17.2799 12.24H21.3599V11.76H17.2799L19.7759 9.33602L19.4399 9.00002L16.6799 11.76L12.5279 11.784L18.4319 5.90401L18.0959 5.56801L12.2159 11.472L12.2399 7.32001L14.9999 4.56001L14.6639 4.22401L12.2399 6.72002V2.64001H11.7599V6.72002L9.33589 4.22401L8.99989 4.56001L11.7599 7.32001L11.7839 11.472L5.90389 5.56801L5.56789 5.90401L11.4719 11.784L7.31989 11.76L4.55989 9.00002L4.22389 9.33602L6.71989 11.76H2.63989V12.24H6.71989L4.22389 14.664L4.55989 15L7.31989 12.24L11.4719 12.216L5.56789 18.096L5.90389 18.432L11.7839 12.528L11.7599 16.68L8.99989 19.44L9.33589 19.776L11.7599 17.28V21.36Z" fill="black"/>
</svg>
