<svg width="24" height="24" viewBox="0 0 24 24" fill="none" xmlns="http://www.w3.org/2000/svg">
<path d="M10.7999 20.556C11.1839 20.556 11.5679 20.556 11.9279 20.532L11.4719 20.076H10.7999C6.45595 20.076 3.57595 18.924 3.57595 17.34V14.628C4.63195 15.876 7.36795 16.644 10.7999 16.644C11.3039 16.644 11.7839 16.62 12.2399 16.596L12.4079 16.572H12.5759C15.1679 16.356 17.1599 15.684 18.0239 14.652V16.068L18.5039 15.588V5.50798C18.5039 3.53998 15.2879 2.31598 10.7999 2.31598C6.43195 2.31598 3.09595 3.53998 3.09595 5.50798V17.34C3.09595 19.308 6.35995 20.556 10.7999 20.556ZM3.57595 13.404V10.692C4.63195 11.964 7.36795 12.732 10.7999 12.732C14.1839 12.732 16.9439 11.964 18.0239 10.668V13.404C18.0239 14.964 15.0719 16.164 10.7999 16.164C6.45595 16.164 3.57595 14.964 3.57595 13.404ZM3.57595 9.44398V6.75598C4.63195 8.02798 7.36795 8.74798 10.7999 8.74798C14.1839 8.74798 16.9439 8.00398 18.0239 6.73198V9.44398C18.0239 11.052 15.0719 12.252 10.7999 12.252C6.45595 12.252 3.57595 11.052 3.57595 9.44398ZM3.57595 5.50798C3.57595 3.92398 6.52795 2.79598 10.7999 2.79598C15.1919 2.79598 18.0239 3.92398 18.0239 5.50798C18.0239 7.13998 15.0719 8.26798 10.7999 8.26798C6.45595 8.26798 3.57595 7.13998 3.57595 5.50798ZM12.3359 18.564L15.4559 21.684L20.9039 16.236L20.5679 15.9L15.4559 21.012L12.6719 18.228L12.3359 18.564Z" fill="black"/>
</svg>
