<svg width="24" height="24" viewBox="0 0 24 24" fill="none" xmlns="http://www.w3.org/2000/svg">
<path d="M5.04012 20.292H18.9601C20.0641 20.292 20.8801 19.476 20.8801 18.372V10.212C20.8801 9.10801 20.0641 8.29201 18.9601 8.29201H17.0401C17.9041 7.78801 18.2401 6.90001 18.2401 6.18001C18.2401 4.88401 17.2081 3.70801 15.8161 3.70801C15.3841 3.70801 14.9281 3.82801 14.5921 4.04401C13.8001 4.50001 13.2241 5.43601 12.7681 6.30001L12.0001 7.78801L11.2321 6.30001C10.7761 5.43601 10.2001 4.50001 9.40812 4.04401C9.07212 3.82801 8.61612 3.70801 8.18412 3.70801C6.79212 3.70801 5.76012 4.88401 5.76012 6.18001C5.76012 6.90001 6.09612 7.78801 6.96012 8.29201H5.04012C3.93612 8.29201 3.12012 9.10801 3.12012 10.212V18.372C3.12012 19.476 3.93612 20.292 5.04012 20.292ZM3.60012 18.372V13.572H20.4001V18.372C20.4001 19.284 19.8721 19.812 18.9601 19.812H5.04012C4.12812 19.812 3.60012 19.284 3.60012 18.372ZM3.60012 11.652V10.212C3.60012 9.30001 4.12812 8.77201 5.04012 8.77201H18.9601C19.8721 8.77201 20.4001 9.30001 20.4001 10.212V11.652H3.60012ZM5.52012 17.892H9.12012V15.972H5.52012V17.892ZM6.24012 6.18001C6.24012 5.12401 7.08012 4.18801 8.18412 4.18801C9.40812 4.18801 10.1521 5.26801 10.8001 6.51601L11.7361 8.29201H9.69612C8.78412 8.29201 7.80012 8.26801 7.12812 7.83601C6.50412 7.47601 6.24012 6.78001 6.24012 6.18001ZM12.2641 8.29201L13.2001 6.51601C13.8481 5.26801 14.5921 4.18801 15.8161 4.18801C16.9201 4.18801 17.7601 5.12401 17.7601 6.18001C17.7601 6.78001 17.4961 7.47601 16.8721 7.83601C16.2001 8.26801 15.2161 8.29201 14.3041 8.29201H12.2641Z" fill="black"/>
</svg>
