<svg width="24" height="24" viewBox="0 0 24 24" fill="none" xmlns="http://www.w3.org/2000/svg">
<path d="M5.92818 17.652V19.452H18.0722V17.652C18.0722 15.276 16.0322 13.188 13.5842 13.188H10.4162C7.96818 13.188 5.92818 15.276 5.92818 17.652ZM1.68018 19.452H2.16018V18.012C2.16018 16.764 3.04818 15.78 4.27218 15.636C4.36818 15.468 4.46418 15.3 4.58418 15.132C3.00018 15.132 1.68018 16.476 1.68018 18.012V19.452ZM1.92018 10.212C1.92018 11.748 3.14418 12.972 4.68018 12.972C6.21618 12.972 7.44018 11.748 7.44018 10.212C7.44018 8.67597 6.21618 7.45197 4.68018 7.45197C3.14418 7.45197 1.92018 8.67597 1.92018 10.212ZM2.40018 10.212C2.40018 8.93997 3.40818 7.93197 4.68018 7.93197C5.95218 7.93197 6.96018 8.93997 6.96018 10.212C6.96018 11.484 5.95218 12.492 4.68018 12.492C3.40818 12.492 2.40018 11.484 2.40018 10.212ZM6.40818 18.972V17.652C6.40818 15.54 8.23218 13.668 10.4162 13.668H13.5842C15.7682 13.668 17.5922 15.54 17.5922 17.652V18.972H6.40818ZM8.64018 7.90797C8.64018 9.75597 10.1522 11.268 12.0002 11.268C13.8482 11.268 15.3602 9.75597 15.3602 7.90797C15.3602 6.05997 13.8482 4.54797 12.0002 4.54797C10.1522 4.54797 8.64018 6.05997 8.64018 7.90797ZM9.12018 7.90797C9.12018 6.32397 10.4162 5.02797 12.0002 5.02797C13.5842 5.02797 14.8802 6.32397 14.8802 7.90797C14.8802 9.49197 13.5842 10.788 12.0002 10.788C10.4162 10.788 9.12018 9.49197 9.12018 7.90797ZM16.5602 10.212C16.5602 11.748 17.7842 12.972 19.3202 12.972C20.8562 12.972 22.0802 11.748 22.0802 10.212C22.0802 8.67597 20.8562 7.45197 19.3202 7.45197C17.7842 7.45197 16.5602 8.67597 16.5602 10.212ZM17.0402 10.212C17.0402 8.93997 18.0482 7.93197 19.3202 7.93197C20.5922 7.93197 21.6002 8.93997 21.6002 10.212C21.6002 11.484 20.5922 12.492 19.3202 12.492C18.0482 12.492 17.0402 11.484 17.0402 10.212ZM19.4162 15.132C19.5362 15.3 19.6322 15.468 19.7282 15.636C20.9522 15.78 21.8402 16.764 21.8402 18.012V19.452H22.3202V18.012C22.3202 16.476 21.0002 15.132 19.4162 15.132Z" fill="black"/>
</svg>
