<svg width="24" height="24" viewBox="0 0 24 24" fill="none" xmlns="http://www.w3.org/2000/svg">
<path d="M13.7762 7.70397L11.1602 10.32C10.8242 10.656 10.5842 10.752 10.2962 10.752C9.69618 10.752 9.21618 10.272 9.21618 9.67197C9.21618 9.40797 9.36018 9.09597 9.55218 8.90397L12.2642 6.21597C12.6482 5.85597 13.1522 5.63997 13.6562 5.63997H15.7682C16.2962 5.63997 16.7762 5.85597 17.1602 6.21597L18.7442 7.77597C19.1282 8.13597 19.6322 8.32797 20.1362 8.32797H22.3202V7.84797H20.1362C19.7282 7.84797 19.3682 7.72797 19.0802 7.43997L17.4962 5.87997C17.0402 5.42397 16.4162 5.15997 15.7682 5.15997H8.23218C7.58418 5.15997 6.96018 5.42397 6.50418 5.87997L4.92018 7.43997C4.63218 7.72797 4.27218 7.84797 3.86418 7.84797H1.68018V8.32797H3.86418C4.36818 8.32797 4.87218 8.13597 5.25618 7.77597L6.84018 6.21597C7.22418 5.85597 7.70418 5.63997 8.23218 5.63997H12.2162C12.1202 5.71197 12.0242 5.78397 11.9282 5.87997L9.21618 8.56797C8.92818 8.83197 8.73618 9.23997 8.73618 9.71997C8.73618 10.512 9.36018 11.232 10.2962 11.232C10.6802 11.232 11.0642 11.088 11.3762 10.776L12.6242 9.52797L17.8082 14.736L14.7122 17.784C14.3522 18.144 13.8482 18.36 13.3442 18.36H9.00018C8.47218 18.36 7.99218 18.144 7.63218 17.784L4.75218 14.976C4.36818 14.616 3.88818 14.4 3.36018 14.4H1.68018V14.88H3.36018C3.79218 14.88 4.10418 15.024 4.41618 15.312L7.29618 18.12C7.72818 18.552 8.35218 18.84 9.00018 18.84H13.3442C13.9682 18.84 14.6162 18.552 15.0482 18.12L18.3362 14.88H22.3202V14.4H18.1442L12.9602 9.19197L14.1122 8.03997L13.7762 7.70397Z" fill="black"/>
</svg>
