<svg width="24" height="24" viewBox="0 0 24 24" fill="none" xmlns="http://www.w3.org/2000/svg">
<path d="M9.96014 21.36H14.0401C19.6321 21.36 21.3601 19.584 21.3601 14.04V9.96002C21.3601 4.41601 19.6321 2.64001 14.0401 2.64001H9.96014C4.36814 2.64001 2.64014 4.41601 2.64014 9.96002V14.04C2.64014 19.584 4.36814 21.36 9.96014 21.36ZM4.29614 14.04V9.96002C4.29614 5.35201 5.32814 4.29601 9.96014 4.29601H14.0401C18.6721 4.29601 19.7041 5.35201 19.7041 9.96002V14.04C19.7041 18.648 18.6721 19.704 14.0401 19.704H9.96014C5.32814 19.704 4.29614 18.648 4.29614 14.04ZM7.20014 12C7.20014 14.664 9.33614 16.8 12.0001 16.8C14.6641 16.8 16.8001 14.664 16.8001 12C16.8001 9.33602 14.6641 7.20002 12.0001 7.20002C9.33614 7.20002 7.20014 9.33602 7.20014 12ZM8.88014 12C8.88014 10.272 10.2721 8.88002 12.0001 8.88002C13.7281 8.88002 15.1201 10.272 15.1201 12C15.1201 13.728 13.7281 15.12 12.0001 15.12C10.2721 15.12 8.88014 13.728 8.88014 12ZM15.8881 7.00802C15.8881 7.60802 16.3921 8.11202 16.9921 8.11202C17.5921 8.11202 18.0961 7.60802 18.0961 7.00802C18.0961 6.40802 17.5921 5.90401 16.9921 5.90401C16.3921 5.90401 15.8881 6.40802 15.8881 7.00802Z" fill="black"/>
</svg>
