<svg width="24" height="24" viewBox="0 0 24 24" fill="none" xmlns="http://www.w3.org/2000/svg">
<path d="M7.07998 13.704V21.36L12 18.624L16.92 21.36V13.704C17.976 12.528 18.624 10.968 18.624 9.26402C18.624 5.61601 15.648 2.64001 12 2.64001C8.35198 2.64001 5.37598 5.61601 5.37598 9.26402C5.37598 10.968 6.02398 12.528 7.07998 13.704ZM5.85598 9.26402C5.85598 5.88001 8.61598 3.12001 12 3.12001C15.384 3.12001 18.144 5.88001 18.144 9.26402C18.144 12.648 15.384 15.408 12 15.408C8.61598 15.408 5.85598 12.648 5.85598 9.26402ZM7.55998 20.544V14.16C8.75998 15.216 10.296 15.888 12 15.888C13.704 15.888 15.24 15.216 16.44 14.16V20.544L12 18.072L7.55998 20.544Z" fill="black"/>
</svg>
