<svg width="24" height="24" viewBox="0 0 24 24" fill="none" xmlns="http://www.w3.org/2000/svg">
<path d="M2.16016 20.928H18.2402C20.1842 20.928 21.8402 19.296 21.8402 17.304C21.8402 16.176 21.3362 15.288 20.4962 14.448L9.12016 3.07202L4.10416 8.06402L9.76816 13.704H2.16016V20.928ZM2.64016 20.448V14.184H18.2402C19.9682 14.184 21.3602 15.552 21.3602 17.304C21.3602 19.08 19.9682 20.448 18.2402 20.448H2.64016ZM4.77616 8.06402L9.12016 3.74402L19.1522 13.824C18.8642 13.752 18.5522 13.704 18.2402 13.704H10.4402L4.77616 8.06402ZM7.39216 8.13602C7.39216 9.09602 8.18416 9.96002 9.21616 9.96002C10.1762 9.96002 10.9682 9.09602 10.9682 8.13602C10.9682 7.15202 10.1762 6.36002 9.21616 6.36002C8.18416 6.36002 7.39216 7.15202 7.39216 8.13602ZM7.87216 8.13602C7.87216 7.41602 8.44816 6.84002 9.21616 6.84002C9.91216 6.84002 10.4882 7.41602 10.4882 8.13602C10.4882 8.85602 9.91216 9.48002 9.21616 9.48002C8.44816 9.48002 7.87216 8.85602 7.87216 8.13602ZM16.2962 17.304C16.2962 18.264 17.0882 19.128 18.1202 19.128C19.0802 19.128 19.8722 18.264 19.8722 17.304C19.8722 16.32 19.0802 15.528 18.1202 15.528C17.0882 15.528 16.2962 16.32 16.2962 17.304ZM16.7762 17.304C16.7762 16.584 17.3522 16.008 18.1202 16.008C18.8162 16.008 19.3922 16.584 19.3922 17.304C19.3922 18.024 18.8162 18.648 18.1202 18.648C17.3522 18.648 16.7762 18.024 16.7762 17.304Z" fill="black"/>
</svg>
