<svg width="24" height="24" viewBox="0 0 24 24" fill="none" xmlns="http://www.w3.org/2000/svg">
<path d="M18.2402 22.32L22.3202 18.24L5.76018 1.67999L1.68018 5.75999L18.2402 22.32ZM2.35218 5.75999L5.76018 2.35199L13.4402 10.032C12.5282 9.83999 11.5442 10.104 10.8242 10.8C10.1042 11.52 9.84018 12.528 10.0322 13.44L2.35218 5.75999ZM4.27218 5.68799C4.27218 6.47999 4.92018 7.12799 5.71218 7.12799C6.50418 7.12799 7.15218 6.47999 7.15218 5.68799C7.15218 4.89599 6.50418 4.24799 5.71218 4.24799C4.92018 4.24799 4.27218 4.89599 4.27218 5.68799ZM4.75218 5.68799C4.75218 5.15999 5.18418 4.72799 5.71218 4.72799C6.24018 4.72799 6.67218 5.15999 6.67218 5.68799C6.67218 6.21599 6.24018 6.64799 5.71218 6.64799C5.18418 6.64799 4.75218 6.21599 4.75218 5.68799ZM11.1362 14.52C10.2242 13.608 10.2242 12.096 11.1602 11.136C12.0962 10.224 13.6082 10.224 14.5202 11.136L21.6482 18.24L18.2402 21.648L11.1362 14.52ZM11.4242 12.864C11.4242 13.656 12.0722 14.304 12.8642 14.304C13.6562 14.304 14.3042 13.656 14.3042 12.864C14.3042 12.072 13.6562 11.424 12.8642 11.424C12.0722 11.424 11.4242 12.072 11.4242 12.864ZM11.9042 12.864C11.9042 12.336 12.3362 11.904 12.8642 11.904C13.3922 11.904 13.8242 12.336 13.8242 12.864C13.8242 13.392 13.3922 13.824 12.8642 13.824C12.3362 13.824 11.9042 13.392 11.9042 12.864Z" fill="black"/>
</svg>
