<svg width="24" height="24" viewBox="0 0 24 24" fill="none" xmlns="http://www.w3.org/2000/svg">
<path d="M12.888 16.704C15.048 16.704 16.296 14.832 16.272 11.904C16.248 9.048 15.024 7.344 12.936 7.344C11.184 7.344 9.93598 8.664 9.93598 10.44C9.93598 12.216 11.184 13.536 12.936 13.536C14.352 13.536 15.408 12.672 15.744 11.4H15.768C15.888 13.92 15.36 16.224 12.888 16.224C11.496 16.224 10.656 15.456 10.44 14.04H9.95998C10.176 15.648 11.304 16.704 12.888 16.704ZM4.03198 12C4.03198 16.968 7.94398 20.88 12.912 20.88H19.968V20.4H12.912C8.20798 20.4 4.51198 16.704 4.51198 12C4.51198 7.416 8.20798 3.6 12.912 3.6H19.968V3.12H12.912C7.94398 3.12 4.03198 7.152 4.03198 12ZM10.416 10.464V10.416C10.416 8.856 11.376 7.824 12.912 7.824H12.96C14.568 7.824 15.48 9 15.48 10.416V10.464C15.48 12 14.544 13.056 12.96 13.056H12.912C11.376 13.056 10.416 12.024 10.416 10.464Z" fill="black"/>
</svg>
