<svg width="24" height="24" viewBox="0 0 24 24" fill="none" xmlns="http://www.w3.org/2000/svg">
<path d="M11.064 16.704C13.224 16.704 14.472 14.832 14.448 11.904C14.424 9.048 13.2 7.344 11.112 7.344C9.35998 7.344 8.11198 8.664 8.11198 10.44C8.11198 12.216 9.35998 13.536 11.112 13.536C12.528 13.536 13.584 12.672 13.92 11.4H13.944C14.064 13.92 13.536 16.224 11.064 16.224C9.67198 16.224 8.83198 15.456 8.61598 14.04H8.13598C8.35198 15.648 9.47998 16.704 11.064 16.704ZM4.03198 20.88H11.088C16.056 20.88 19.968 16.848 19.968 12C19.968 7.032 16.056 3.12 11.088 3.12H4.03198V3.6H11.088C15.792 3.6 19.488 7.296 19.488 12C19.488 16.584 15.792 20.4 11.088 20.4H4.03198V20.88ZM8.59198 10.464V10.416C8.59198 8.856 9.55198 7.824 11.088 7.824H11.136C12.744 7.824 13.656 9 13.656 10.416V10.464C13.656 12 12.72 13.056 11.136 13.056H11.088C9.55198 13.056 8.59198 12.024 8.59198 10.464Z" fill="black"/>
</svg>
