<svg width="24" height="24" viewBox="0 0 24 24" fill="none" xmlns="http://www.w3.org/2000/svg">
<path d="M13.8241 9.51601H19.7521V3.58801H13.8241V9.51601ZM2.64014 12.564H21.3601V12.084H2.64014V12.564ZM4.24814 20.412H10.1761V15.036H9.69614V19.932H4.72814V15.036H4.24814V20.412ZM4.24814 9.51601H10.1761V3.58801H4.24814V9.51601ZM4.72814 9.03601V4.06801H9.69614V9.03601H4.72814ZM6.50414 18.132H7.94414V16.692H6.50414V18.132ZM6.50414 7.28401H7.94414V5.84401H6.50414V7.28401ZM13.8241 20.388H15.1681V19.044H13.8241V20.388ZM13.8241 16.38H16.5121V15.036H13.8241V16.38ZM14.3041 9.03601V4.06801H19.2721V9.03601H14.3041ZM15.1681 19.044H17.8321V16.38H16.5121V17.7H15.1681V19.044ZM16.0561 7.28401H17.4961V5.84401H16.0561V7.28401ZM18.4081 20.388H19.7521V17.7H18.4081V20.388Z" fill="black"/>
</svg>
