<svg width="24" height="24" viewBox="0 0 24 24" fill="none" xmlns="http://www.w3.org/2000/svg">
<path d="M14.2561 21.84L14.5201 18.816C15.3121 18.528 16.0081 18.12 16.6561 17.616L19.3921 18.888L21.6481 14.952L19.1761 13.272C19.2481 12.84 19.2721 12.432 19.2721 12C19.2721 11.568 19.2481 11.16 19.1761 10.728L21.6481 9.048L19.3921 5.112L16.6801 6.384C16.0321 5.856 15.3121 5.448 14.4961 5.16L14.2561 2.16H9.74405L9.50405 5.16C8.68805 5.448 7.96805 5.856 7.34405 6.384L4.63205 5.112L2.35205 9.024L4.87205 10.752C4.80005 11.16 4.77605 11.568 4.77605 12C4.77605 12.432 4.80005 12.84 4.87205 13.248L2.35205 14.976L4.63205 18.888L7.34405 17.616C7.96805 18.144 8.68805 18.552 9.50405 18.84L9.74405 21.84H14.2561ZM3.00005 15.12L5.40005 13.464C5.30405 12.984 5.25605 12.528 5.25605 12C5.25605 11.472 5.30405 11.016 5.40005 10.536L3.00005 8.88L4.82405 5.736L7.41605 6.96C8.16005 6.288 8.97605 5.808 9.93605 5.52L10.1761 2.64H13.8241L14.0641 5.52C15.0481 5.808 15.8641 6.264 16.6081 6.936L19.1761 5.736L21.0001 8.904L18.6481 10.512C18.7441 11.016 18.7921 11.496 18.7921 12C18.7921 12.504 18.7441 12.984 18.6481 13.488L21.0001 15.096L19.1761 18.264L16.5841 17.04C15.8401 17.688 15.0241 18.168 14.0641 18.48L13.8241 21.36H10.1761L9.93605 18.48C8.97605 18.192 8.16005 17.712 7.41605 17.04L4.82405 18.264L3.00005 15.12ZM8.88005 12C8.88005 13.728 10.2721 15.12 12.0001 15.12C13.7281 15.12 15.1201 13.728 15.1201 12C15.1201 10.272 13.7281 8.88 12.0001 8.88C10.2721 8.88 8.88005 10.272 8.88005 12ZM9.36005 12C9.36005 10.536 10.5361 9.36 12.0001 9.36C13.4641 9.36 14.6401 10.536 14.6401 12C14.6401 13.464 13.4641 14.64 12.0001 14.64C10.5361 14.64 9.36005 13.464 9.36005 12Z" fill="black"/>
</svg>
