<svg width="24" height="24" viewBox="0 0 24 24" fill="none" xmlns="http://www.w3.org/2000/svg">
<path d="M18.6479 16.272V15.792H8.44791L7.99191 13.416H19.9439L21.8399 4.77599L6.26391 4.75199L5.95191 3.23999H2.15991V3.71999H5.56791L8.06391 16.272H18.6479ZM6.35991 5.23199L21.2399 5.25599L19.5599 12.936H7.89591L6.35991 5.23199ZM7.29591 19.32C7.29591 20.112 7.94391 20.76 8.73591 20.76C9.52791 20.76 10.1759 20.112 10.1759 19.32C10.1759 18.528 9.52791 17.88 8.73591 17.88C7.94391 17.88 7.29591 18.528 7.29591 19.32ZM7.77591 19.32C7.77591 18.792 8.20791 18.36 8.73591 18.36C9.26391 18.36 9.69591 18.792 9.69591 19.32C9.69591 19.848 9.26391 20.28 8.73591 20.28C8.20791 20.28 7.77591 19.848 7.77591 19.32ZM16.2719 19.32C16.2719 20.112 16.9199 20.76 17.7119 20.76C18.5039 20.76 19.1519 20.112 19.1519 19.32C19.1519 18.528 18.5039 17.88 17.7119 17.88C16.9199 17.88 16.2719 18.528 16.2719 19.32ZM16.7519 19.32C16.7519 18.792 17.1839 18.36 17.7119 18.36C18.2399 18.36 18.6719 18.792 18.6719 19.32C18.6719 19.848 18.2399 20.28 17.7119 20.28C17.1839 20.28 16.7519 19.848 16.7519 19.32Z" fill="black"/>
</svg>
