<svg width="24" height="24" viewBox="0 0 24 24" fill="none" xmlns="http://www.w3.org/2000/svg">
<path d="M12.888 16.704C14.64 16.704 15.888 15.384 15.888 13.608C15.888 11.832 14.64 10.512 12.888 10.512C11.472 10.512 10.416 11.376 10.08 12.648H10.056C9.93598 10.128 10.464 7.824 12.936 7.824C14.328 7.824 15.168 8.592 15.384 10.008H15.864C15.648 8.4 14.52 7.344 12.936 7.344C10.776 7.344 9.52798 9.216 9.55198 12.144C9.57598 15 10.8 16.704 12.888 16.704ZM4.03198 12C4.03198 16.968 7.94398 20.88 12.912 20.88H19.968V20.4H12.912C8.20798 20.4 4.51198 16.704 4.51198 12C4.51198 7.416 8.20798 3.6 12.912 3.6H19.968V3.12H12.912C7.94398 3.12 4.03198 7.152 4.03198 12ZM10.344 13.632V13.584C10.344 12.048 11.28 10.992 12.864 10.992H12.912C14.448 10.992 15.408 12.024 15.408 13.584V13.632C15.408 15.192 14.448 16.224 12.912 16.224H12.864C11.256 16.224 10.344 15.048 10.344 13.632Z" fill="black"/>
</svg>
