<svg width="24" height="24" viewBox="0 0 24 24" fill="none" xmlns="http://www.w3.org/2000/svg">
<path d="M12.0001 20.88C16.9681 20.88 20.8801 16.848 20.8801 12C20.8801 7.032 16.9681 3.12 12.0001 3.12C7.03212 3.12 3.12012 7.032 3.12012 12C3.12012 16.968 7.03212 20.88 12.0001 20.88ZM3.60012 12C3.60012 7.296 7.29612 3.6 12.0001 3.6C16.7041 3.6 20.4001 7.296 20.4001 12C20.4001 16.584 16.7041 20.4 12.0001 20.4C7.29612 20.4 3.60012 16.704 3.60012 12ZM8.64012 12.144C8.66412 15 9.88812 16.704 11.9761 16.704C13.7281 16.704 14.9761 15.384 14.9761 13.608C14.9761 11.832 13.7281 10.512 11.9761 10.512C10.5601 10.512 9.50412 11.376 9.16812 12.648H9.14412C9.02412 10.128 9.55212 7.824 12.0241 7.824C13.4161 7.824 14.2561 8.592 14.4721 10.008H14.9521C14.7361 8.4 13.6081 7.344 12.0241 7.344C9.86412 7.344 8.61612 9.216 8.64012 12.144ZM9.43212 13.632V13.584C9.43212 12.048 10.3681 10.992 11.9521 10.992H12.0001C13.5361 10.992 14.4961 12.024 14.4961 13.584V13.632C14.4961 15.192 13.5361 16.224 12.0001 16.224H11.9521C10.3441 16.224 9.43212 15.048 9.43212 13.632Z" fill="black"/>
</svg>
