<svg width="24" height="24" viewBox="0 0 24 24" fill="none" xmlns="http://www.w3.org/2000/svg">
<path d="M11.976 16.704C13.728 16.704 14.976 15.384 14.976 13.608C14.976 11.832 13.728 10.512 11.976 10.512C10.56 10.512 9.50401 11.376 9.16801 12.648H9.14401C9.02401 10.128 9.55201 7.824 12.024 7.824C13.416 7.824 14.256 8.592 14.472 10.008H14.952C14.736 8.4 13.608 7.344 12.024 7.344C9.86401 7.344 8.61601 9.216 8.64001 12.144C8.66401 15 9.88801 16.704 11.976 16.704ZM5.76001 20.88H18.24V20.4H5.76001V20.88ZM5.76001 3.6H18.24V3.12H5.76001V3.6ZM9.43201 13.632V13.584C9.43201 12.048 10.368 10.992 11.952 10.992H12C13.536 10.992 14.496 12.024 14.496 13.584V13.632C14.496 15.192 13.536 16.224 12 16.224H11.952C10.344 16.224 9.43201 15.048 9.43201 13.632Z" fill="black"/>
</svg>
