<svg width="24" height="24" viewBox="0 0 24 24" fill="none" xmlns="http://www.w3.org/2000/svg">
<path d="M11.064 16.704C12.816 16.704 14.064 15.384 14.064 13.608C14.064 11.832 12.816 10.512 11.064 10.512C9.64798 10.512 8.59198 11.376 8.25598 12.648H8.23198C8.11198 10.128 8.63998 7.824 11.112 7.824C12.504 7.824 13.344 8.592 13.56 10.008H14.04C13.824 8.4 12.696 7.344 11.112 7.344C8.95198 7.344 7.70398 9.216 7.72798 12.144C7.75198 15 8.97598 16.704 11.064 16.704ZM4.03198 20.88H11.088C16.056 20.88 19.968 16.848 19.968 12C19.968 7.032 16.056 3.12 11.088 3.12H4.03198V3.6H11.088C15.792 3.6 19.488 7.296 19.488 12C19.488 16.584 15.792 20.4 11.088 20.4H4.03198V20.88ZM8.51998 13.632V13.584C8.51998 12.048 9.45598 10.992 11.04 10.992H11.088C12.624 10.992 13.584 12.024 13.584 13.584V13.632C13.584 15.192 12.624 16.224 11.088 16.224H11.04C9.43198 16.224 8.51998 15.048 8.51998 13.632Z" fill="black"/>
</svg>
