<svg width="24" height="24" viewBox="0 0 24 24" fill="none" xmlns="http://www.w3.org/2000/svg">
<path d="M11.9999 20.688C16.9199 20.688 20.6399 19.152 20.6399 16.776V7.17601C20.6399 4.82401 17.0879 3.31201 11.9999 3.31201C7.10386 3.31201 3.35986 4.82401 3.35986 7.17601V16.776C3.35986 19.152 7.00786 20.688 11.9999 20.688ZM3.83986 16.776V13.416C4.99186 14.952 8.06386 15.912 11.9999 15.912C15.8879 15.912 19.0079 14.952 20.1599 13.416V16.776C20.1599 18.768 16.8239 20.208 11.9999 20.208C7.10386 20.208 3.83986 18.768 3.83986 16.776ZM3.83986 12.048V8.54401C4.99186 10.08 8.06386 11.04 11.9999 11.04C15.8879 11.04 19.0079 10.08 20.1599 8.54401V12.048C20.1599 13.968 16.8239 15.432 11.9999 15.432C7.10386 15.432 3.83986 13.992 3.83986 12.048ZM3.83986 7.17601C3.83986 5.20801 7.19986 3.79201 11.9999 3.79201C16.9679 3.79201 20.1599 5.20801 20.1599 7.17601C20.1599 9.12001 16.8239 10.56 11.9999 10.56C7.10386 10.56 3.83986 9.12001 3.83986 7.17601Z" fill="black"/>
</svg>
