<svg width="24" height="24" viewBox="0 0 24 24" fill="none" xmlns="http://www.w3.org/2000/svg">
<path d="M4.3322 19.284H19.6442C20.6522 17.82 21.3002 15.972 21.3002 14.028C21.3002 11.988 20.6282 10.092 19.5002 8.532L19.1642 8.892C20.1962 10.332 20.8202 12.108 20.8202 14.028C20.8202 15.78 20.2682 17.436 19.3802 18.804H4.5962C3.7082 17.436 3.1802 15.78 3.1802 14.028C3.1802 9.156 7.1162 5.196 11.9882 5.196C13.9082 5.196 15.6842 5.82 17.1242 6.852L17.4842 6.516C15.9242 5.388 14.0282 4.716 11.9882 4.716C6.8522 4.716 2.7002 8.892 2.7002 14.028C2.7002 15.972 3.3242 17.82 4.3322 19.284ZM11.7482 14.028C11.7482 14.172 11.8442 14.268 11.9882 14.268C12.0602 14.268 12.1082 14.244 12.1562 14.196L18.7562 7.596L18.4202 7.26L11.8202 13.86C11.7722 13.908 11.7482 13.956 11.7482 14.028Z" fill="black"/>
</svg>
