<svg width="24" height="24" viewBox="0 0 24 24" fill="none" xmlns="http://www.w3.org/2000/svg">
<path d="M4.3562 19.284H19.6682C20.6762 17.82 21.3002 15.972 21.3002 14.028C21.3002 8.892 17.1482 4.716 12.0122 4.716C9.97219 4.716 8.07619 5.388 6.5162 6.516L6.87619 6.852C8.3162 5.82 10.0922 5.196 12.0122 5.196C16.8842 5.196 20.8202 9.156 20.8202 14.028C20.8202 15.78 20.2922 17.436 19.4042 18.804H4.6202C3.7322 17.436 3.1802 15.78 3.1802 14.028C3.1802 12.108 3.8042 10.332 4.8362 8.892L4.5002 8.532C3.3722 10.092 2.7002 11.988 2.7002 14.028C2.7002 15.972 3.3482 17.82 4.3562 19.284ZM5.2442 7.596L11.8442 14.196C11.8922 14.244 11.9402 14.268 12.0122 14.268C12.1562 14.268 12.2522 14.172 12.2522 14.028C12.2522 13.956 12.2282 13.908 12.1802 13.86L5.5802 7.26L5.2442 7.596Z" fill="black"/>
</svg>
