<svg width="24" height="24" viewBox="0 0 24 24" fill="none" xmlns="http://www.w3.org/2000/svg">
<path d="M11.9758 16.68C13.7758 16.68 15.1198 15.6 15.1198 14.04C15.1198 13.008 14.5438 12.192 13.2478 11.856V11.808C14.4958 11.472 14.8558 10.704 14.8558 9.888C14.8558 8.4 13.6318 7.32 11.9998 7.32C10.2238 7.32 9.04777 8.568 9.04777 10.128V10.296H9.52777C9.52777 8.76 10.4398 7.8 11.9998 7.8C13.4398 7.8 14.3758 8.616 14.3758 9.888C14.3758 10.848 13.9438 11.592 11.8078 11.592H11.2078V12.072H11.8078C13.8958 12.072 14.6398 12.816 14.6398 14.04C14.6398 15.36 13.6078 16.2 11.9758 16.2C10.2238 16.2 9.38377 15.24 9.38377 13.56H8.90377V13.68C8.90377 15.408 10.0078 16.68 11.9758 16.68ZM5.75977 20.88H18.2398V20.4H5.75977V20.88ZM5.75977 3.6H18.2398V3.12H5.75977V3.6Z" fill="black"/>
</svg>
