<svg width="24" height="24" viewBox="0 0 24 24" fill="none" xmlns="http://www.w3.org/2000/svg">
<path d="M12.0001 20.88C16.9681 20.88 20.8801 16.848 20.8801 12C20.8801 7.032 16.9681 3.12 12.0001 3.12C7.03212 3.12 3.12012 7.032 3.12012 12C3.12012 16.968 7.03212 20.88 12.0001 20.88ZM3.60012 12C3.60012 7.296 7.29612 3.6 12.0001 3.6C16.7041 3.6 20.4001 7.296 20.4001 12C20.4001 16.584 16.7041 20.4 12.0001 20.4C7.29612 20.4 3.60012 16.704 3.60012 12ZM8.90412 13.68C8.90412 15.408 10.0081 16.68 11.9761 16.68C13.7761 16.68 15.1201 15.6 15.1201 14.04C15.1201 13.008 14.5441 12.192 13.2481 11.856V11.808C14.4961 11.472 14.8561 10.704 14.8561 9.888C14.8561 8.4 13.6321 7.32 12.0001 7.32C10.2241 7.32 9.04812 8.568 9.04812 10.128V10.296H9.52812C9.52812 8.76 10.4401 7.8 12.0001 7.8C13.4401 7.8 14.3761 8.616 14.3761 9.888C14.3761 10.848 13.9441 11.592 11.8081 11.592H11.2081V12.072H11.8081C13.8961 12.072 14.6401 12.816 14.6401 14.04C14.6401 15.36 13.6081 16.2 11.9761 16.2C10.2241 16.2 9.38412 15.24 9.38412 13.56H8.90412V13.68Z" fill="black"/>
</svg>
