<svg width="24" height="24" viewBox="0 0 24 24" fill="none" xmlns="http://www.w3.org/2000/svg">
<path d="M12.0001 20.868C16.8961 20.868 20.8801 16.908 20.8801 12.012C20.8801 7.11599 16.8961 3.13199 12.0001 3.13199C7.10412 3.13199 3.12012 7.11599 3.12012 12.012C3.12012 16.908 7.10412 20.868 12.0001 20.868ZM5.64012 8.55599V8.07599H12.0721V8.55599H9.09612V16.428H8.61612V8.55599H5.64012ZM13.2481 16.428V8.07599H16.2241C17.7841 8.07599 18.8641 9.10799 18.8641 10.548C18.8641 11.964 17.7841 12.996 16.2241 12.996H13.7281V16.428H13.2481ZM13.7281 12.516H16.2241C17.5921 12.516 18.3841 11.748 18.3841 10.572V10.524C18.3841 9.32399 17.5921 8.55599 16.2241 8.55599H13.7281V12.516Z" fill="black"/>
</svg>
