<svg width="24" height="24" viewBox="0 0 24 24" fill="none" xmlns="http://www.w3.org/2000/svg">
<path d="M8.17197 20.4C11.94 20.4 15.18 18.816 17.148 16.44C19.14 14.112 20.244 11.16 20.244 8.32801C20.244 8.08801 20.244 7.92001 20.196 7.80001C21.036 7.20001 21.756 6.45601 22.332 5.56801C21.54 5.92801 20.724 6.16801 19.932 6.26401C20.844 5.71201 21.468 4.92001 21.78 3.91201C20.94 4.39201 20.052 4.75201 19.068 4.94401C18.228 4.03201 17.196 3.60001 15.948 3.60001C13.644 3.60001 11.772 5.52001 11.772 7.82401C11.772 8.16001 11.796 8.47201 11.844 8.80801C8.38797 8.66401 5.24397 7.00801 3.13197 4.36801C2.72397 5.04001 2.50797 5.76001 2.50797 6.50401C2.50797 8.01601 3.15597 9.19201 4.40397 10.056C3.75597 10.032 3.10797 9.84001 2.50797 9.50401V9.57601C2.53197 11.76 4.54797 13.56 5.48397 13.8C5.24397 13.848 5.00397 13.872 4.76397 13.872C4.54797 13.872 4.28397 13.824 3.99597 13.8C4.54797 15.48 6.08397 16.728 7.97997 16.728C6.41997 17.928 4.64397 18.552 2.67597 18.552C2.31597 18.552 1.97997 18.528 1.66797 18.504C3.63597 19.752 5.79597 20.4 8.17197 20.4Z" fill="black"/>
</svg>
