<svg width="24" height="24" viewBox="0 0 24 24" fill="none" xmlns="http://www.w3.org/2000/svg">
<path d="M12.0001 20.88C16.9681 20.88 20.8801 16.848 20.8801 12C20.8801 7.032 16.9681 3.12 12.0001 3.12C7.03212 3.12 3.12012 7.032 3.12012 12C3.12012 16.968 7.03212 20.88 12.0001 20.88ZM3.60012 12C3.60012 7.296 7.29612 3.6 12.0001 3.6C16.7041 3.6 20.4001 7.296 20.4001 12C20.4001 16.584 16.7041 20.4 12.0001 20.4C7.29612 20.4 3.60012 16.704 3.60012 12ZM8.97612 10.464H9.45612V10.248C9.45612 8.928 10.3201 7.824 11.9761 7.824H12.0241C13.3921 7.824 14.4481 8.568 14.4481 10.056C14.4481 11.016 14.0161 11.688 12.4321 12.864L9.16812 15.264V16.464H15.0481V15.984H9.64812V15.504L12.7201 13.248C14.3761 12.024 14.9281 11.184 14.9281 10.056C14.9281 8.28 13.5601 7.344 12.0001 7.344C10.0801 7.344 8.97612 8.712 8.97612 10.248V10.464Z" fill="black"/>
</svg>
