<svg width="24" height="24" viewBox="0 0 24 24" fill="none" xmlns="http://www.w3.org/2000/svg">
<path d="M2.23193 8.58001L2.56793 8.91601C4.96793 6.58801 8.20793 5.12401 11.9999 5.12401C15.7919 5.12401 19.0319 6.58801 21.4319 8.91601L21.7679 8.58001C19.2959 6.18001 15.9119 4.64401 11.9999 4.64401C8.08793 4.64401 4.70393 6.18001 2.23193 8.58001ZM5.18393 11.796L5.49593 12.156C7.27193 10.644 9.43193 9.73201 11.9999 9.73201C14.5679 9.73201 16.7279 10.644 18.4799 12.18L18.8159 11.796C16.9919 10.236 14.6639 9.25201 11.9999 9.25201C9.33593 9.25201 7.00793 10.236 5.18393 11.796ZM8.11193 15.06L8.42393 15.42C9.38393 14.604 10.6079 14.1 11.9999 14.1C13.3919 14.1 14.6159 14.604 15.5759 15.42L15.8639 15.036C14.8559 14.172 13.4879 13.62 11.9999 13.62C10.5119 13.62 9.14393 14.172 8.11193 15.06ZM10.7519 17.988L11.9999 19.356L13.2479 17.988C12.9359 17.7 12.5039 17.532 11.9999 17.532C11.4959 17.532 11.0639 17.7 10.7519 17.988Z" fill="black"/>
</svg>
