<svg width="24" height="24" viewBox="0 0 24 24" fill="none" xmlns="http://www.w3.org/2000/svg">
<path d="M12.0002 19.248C16.3202 19.248 19.0082 19.128 20.0642 18.864C21.0482 18.552 21.6482 17.952 21.8882 17.04C22.2722 15.624 22.3202 13.176 22.3202 12C22.3202 10.872 22.2482 8.35201 21.8882 6.96001C21.6482 6.04801 21.0482 5.44801 20.0642 5.13601C19.0082 4.87201 16.3202 4.75201 12.0002 4.75201C7.68018 4.75201 4.99218 4.87201 3.93618 5.13601C2.95218 5.44801 2.35218 6.04801 2.11218 6.96001C1.75218 8.35201 1.68018 10.872 1.68018 12C1.68018 13.176 1.72818 15.624 2.11218 17.04C2.35218 17.952 2.95218 18.552 3.93618 18.864C4.99218 19.128 7.68018 19.248 12.0002 19.248ZM9.88818 15.096V8.92801L15.3122 12L9.88818 15.096Z" fill="black"/>
</svg>
