<svg xmlns="http://www.w3.org/2000/svg" width="148" height="300" viewBox="0 0 148 300">
    <defs>
        <linearGradient id="a" x1="50%" x2="50%" y1="98.633%" y2="0%">
            <stop offset="0%" stop-color="#FFF"/>
            <stop offset="100%" stop-color="#142533"/>
        </linearGradient>
    </defs>
    <g fill="none" fill-rule="evenodd">
        <g fill-rule="nonzero">
            <path fill="url(#a)" d="M8.889 51.49h.889v1.98H8v-1.98h1.778-.89zM9.778 101v-1.98H8V101h1.778zM8 51.49h1.778V101H8V51.49zm8 0h-1.778v1.98H16v-1.98zm0 0h-.889H16zM16 101v-1.98h-1.778V101H16zm-1.778-49.51H16V101h-1.778V51.49z" transform="matrix(-1 0 0 1 83.184 194.01)"/>
            <path fill="#142533" d="M75.184 233.618V245.5h-8v-11.882h8zm2-1.98h-12v14.655c0 .656.537 1.188 1.2 1.188h9.6c.662 0 1.2-.532 1.2-1.188v-14.655z"/>
            <path fill="#142533" d="M80.784 195.99c.22 0 .4.178.4.397v30.102c0 2.843-2.328 5.149-5.2 5.149h-9.6c-2.872 0-5.2-2.306-5.2-5.15v-30.101c0-.219.179-.396.4-.396h19.2zm0-1.98h-19.2c-1.326 0-2.4 1.064-2.4 2.377v30.102c0 3.937 3.223 7.13 7.2 7.13h9.6c3.976 0 7.2-3.193 7.2-7.13v-30.102c0-1.313-1.075-2.377-2.4-2.377z"/>
        </g>
        <path fill="#1D2028" d="M144.986 29.829c1.09 0 1.973.883 1.973 1.972v13.281a1.973 1.973 0 1 1-3.945 0v-13.28c0-1.09.883-1.973 1.972-1.973z"/>
        <path fill="#6490F1" fill-opacity=".1" stroke="#1D2027" stroke-width="2.5" d="M7.973 3.99h129.176a6 6 0 0 1 6 6v179.02a6 6 0 0 1-6 6H7.973a6 6 0 0 1-6-6V9.99a6 6 0 0 1 6-6z"/>
        <path fill="#FFF" stroke="#6490F1" d="M25.685 25.383a2.5 2.5 0 0 0-2.5 2.5v143.234a2.5 2.5 0 0 0 2.5 2.5H119.3a2.5 2.5 0 0 0 2.5-2.5V27.883a2.5 2.5 0 0 0-2.5-2.5H25.685z"/>
    </g>
</svg>
