<svg width="417" height="83" viewBox="0 0 417 83" fill="none" xmlns="http://www.w3.org/2000/svg">
<path d="M192.762 44.1411C198.053 44.1411 203.929 42.2735 209.157 39.2554C214.426 36.2134 219.035 32.002 221.717 27.3563C224.458 22.607 224.864 18.0798 222.859 14.6074C220.87 11.1625 216.796 9.26506 211.387 9.26525C200.765 9.2665 187.775 16.7956 182.433 26.0497C179.691 30.7979 179.285 35.3251 181.289 38.7978C183.278 42.2427 187.353 44.1402 192.762 44.1411ZM184.697 27.3569C187.171 23.071 191.421 19.1865 196.281 16.3808C201.098 13.5998 206.514 11.8788 211.388 11.8792C215.824 11.8791 219.093 13.3114 220.596 15.9142C222.114 18.5445 221.708 22.1431 219.453 26.0491C214.527 34.5827 202.553 41.5283 192.762 41.5271C188.326 41.5269 185.055 40.0938 183.553 37.4911C182.035 34.8615 182.441 31.2629 184.697 27.3569Z" fill="black"/>
<path d="M337.585 42.5471C347.373 42.5471 359.347 35.6058 364.277 27.0702C366.532 23.1642 366.938 19.5642 365.42 16.9349C363.918 14.3322 360.648 12.9002 356.212 12.9C351.337 12.8999 345.921 14.6211 341.104 17.4025C336.245 20.2078 331.994 24.0913 329.52 28.3769C327.265 32.2829 326.859 35.8829 328.377 38.5122C329.879 41.1149 333.149 42.5469 337.585 42.5471Z" fill="black"/>
<path d="M193.595 54.2694C196.883 53.6437 200.173 52.7675 203.399 51.6338L203.387 51.6616L370.011 51.6556L399.194 1.66793L224.67 1.46515L224.604 1.62139C221.375 0.634635 217.669 0.111997 213.595 0.112061L32.435 0.113062L0.556091 55.3269L0.774445 55.327L17.4995 82.0054L198.628 82.0049C204.61 82.0048 211.051 80.84 217.36 78.7837L386.49 79.6399L416.859 27.0392L402.424 1.30024L371.842 54.2682L193.595 54.2694ZM327.254 27.0657C332.598 17.812 345.586 10.281 356.21 10.282C361.618 10.2818 365.692 12.1796 367.682 15.6241C369.686 19.0955 369.28 23.6238 366.538 28.3734C363.856 33.018 359.246 37.2297 353.978 40.2711C348.75 43.2899 342.874 45.1571 337.583 45.1571C332.174 45.1573 328.101 43.2595 326.111 39.815C324.107 36.3436 324.513 31.8153 327.254 27.0657ZM33.9434 2.72572L213.595 2.72605C223.298 2.72542 230.638 5.80105 233.734 11.1634C236.247 15.5167 235.754 21.164 232.346 27.066C224.182 41.2072 202.147 52.7134 183.225 52.7128L5.11719 52.7134L9.73868 44.7131L9.71106 44.6972L33.9434 2.72572ZM198.628 79.3909L18.9453 79.3921L3.8591 55.3269L167.033 55.3268L180.468 78.597L206.623 78.7294C203.903 79.1558 201.218 79.3909 198.628 79.3909Z" fill="black"/>
<path d="M129.778 22.1504L131.848 22.152L136.351 14.3673L122.144 14.3565L121.146 16.0825L133.282 16.0917L129.778 22.1504Z" fill="black"/>
<path d="M107.284 40.0468L106.286 41.7729L120.493 41.7837L124.995 33.9994L122.925 33.9977L119.421 40.056L107.284 40.0468Z" fill="black"/>
<path d="M37.4283 39.9937L25.2912 39.9845L28.7952 33.9261L26.7252 33.9246L22.2228 41.7093L36.4297 41.7202L37.4283 39.9937Z" fill="black"/>
<path d="M78.9562 33.0651C79.4072 33.7596 80.3693 34.1328 81.5261 34.1337C82.7438 34.1346 84.0953 33.7291 85.172 32.8498L85.4559 32.85L84.8099 33.9669L86.677 33.9683L90.2104 27.8593L84.7102 27.8552L83.8098 29.4121L87.3622 29.4147L86.8924 30.2269C85.9039 31.9361 84.8297 32.4942 82.9424 32.4928L82.4959 32.4925C80.6082 32.4911 79.9888 31.9825 81.3493 29.6302L83.1895 26.4485C84.5597 24.0794 85.7977 23.5891 87.6849 23.5905L88.0907 23.5908C89.9377 23.5921 90.1933 24.1681 89.2933 25.759L91.5258 25.7606C92.6737 23.425 91.6581 21.9515 88.8572 21.9494C87.4975 21.9484 86.1552 22.303 84.9116 22.979C83.0554 23.9766 81.3663 25.6686 79.9961 28.0377C78.6747 30.3223 78.3049 32.0152 78.9562 33.0651Z" fill="black"/>
<path d="M49.8719 22.09L47.8019 22.0884L40.9505 33.9346L50.2865 33.9417L51.187 32.3849L43.9209 32.3794L49.8719 22.09Z" fill="black"/>
<path d="M39.1483 16.0203L51.2853 16.0296L52.2836 14.3036L38.0767 14.2927L33.5743 22.0775L35.6443 22.079L39.1483 16.0203Z" fill="black"/>
<path d="M62.1613 33.9521L63.0617 32.3952L55.8973 32.3898L57.9919 28.7681L64.2432 28.7729L65.1436 27.216L58.8924 27.2113L60.9479 23.6572L67.8077 23.6625L68.7082 22.1056L59.7779 22.0988L52.9265 33.9451L62.1613 33.9521Z" fill="black"/>
<path d="M98.6945 33.9799L99.5949 32.4231L92.4305 32.4176L94.5251 28.796L100.776 28.8007L101.677 27.2439L95.4256 27.2391L97.4811 23.6851L104.341 23.6903L105.241 22.1334L96.3111 22.1266L89.4597 33.9729L98.6945 33.9799Z" fill="black"/>
<path d="M69.2245 33.9587C73.1011 33.9617 75.9611 31.5089 77.9677 28.0396C80.0035 24.5196 79.851 22.1154 76.0352 22.1125L71.6512 22.1092L64.7996 33.9554L69.2245 33.9587ZM72.7811 23.6672L74.9935 23.6689C77.0842 23.6704 77.9664 24.1112 76.5959 26.4807L74.7951 29.5944C73.4249 31.9635 72.0335 32.4029 69.9429 32.4013L67.7305 32.3997L72.7811 23.6672Z" fill="black"/>
<path d="M103.463 33.985L106.193 29.2636L109.238 29.2659C110.8 29.267 111.117 29.809 110.333 31.1631L108.699 33.9893L110.769 33.9909L112.247 31.4355C113.323 29.5738 113.207 28.8628 111.7 28.6584L111.838 28.4213C113.505 28.1008 115.206 26.9507 115.998 25.5802C116.497 24.7171 116.542 23.9382 116.133 23.3114C115.609 22.532 114.535 22.1419 112.851 22.1406L108.284 22.1371L101.433 33.9834L103.463 33.985ZM109.413 23.6959L112.661 23.6984C114.244 23.6997 114.558 24.14 113.863 25.3417L113.452 26.0523C112.737 27.2877 111.945 27.7104 110.341 27.7091L107.094 27.7067L109.413 23.6959Z" fill="black"/>
</svg>
