<?xml version="1.0" encoding="utf-8"?>
<!-- Generator: Adobe Illustrator 26.0.3, SVG Export Plug-In . SVG Version: 6.00 Build 0)  -->
<svg version="1.1" id="Layer_1" xmlns="http://www.w3.org/2000/svg" xmlns:xlink="http://www.w3.org/1999/xlink" x="0px" y="0px"
	 viewBox="0 0 443 160" style="enable-background:new 0 0 443 160;" xml:space="preserve">
<style type="text/css">
	.st0{fill:url(#SVGID_1_);}
	.st1{fill:url(#SVGID_00000011012981235851724000000007456525712162938283_);}
	.st2{fill:url(#SVGID_00000062152499491825643330000016205846901010130329_);}
	.st3{fill:url(#SVGID_00000164515433476319116470000010876816726207542683_);}
	.st4{fill:url(#SVGID_00000062884038810151843680000000176538029402840722_);}
	.st5{fill:url(#SVGID_00000093884723532084271840000016144262761967419806_);}
	.st6{fill:url(#SVGID_00000120523861188736380400000005402813057228762000_);}
	.st7{fill:#79A0F3;}
	.st8{fill:url(#SVGID_00000056422431243202661510000002450142611121134475_);}
	.st9{fill:url(#SVGID_00000152944736927595628030000014717084622603242431_);}
	.st10{fill:url(#SVGID_00000165220356316973101340000008985930095762991549_);}
	.st11{fill:url(#SVGID_00000050659867313346600620000015036738309888249497_);}
	.st12{fill:url(#SVGID_00000147941398190316785460000008160535089793262469_);}
	.st13{fill:url(#SVGID_00000088838616050012573460000001965016951328438430_);}
	.st14{fill:url(#SVGID_00000175314148111952503670000015833053911710870665_);}
	.st15{fill:url(#SVGID_00000076583738433512753110000004398560760377605292_);}
	.st16{fill:url(#SVGID_00000049200426733275974590000000131763256010286008_);}
	.st17{fill:url(#SVGID_00000093157901206149760400000003858366179020979120_);}
	.st18{fill:url(#SVGID_00000160900527541276965780000000367285053797347460_);}
	.st19{fill:url(#SVGID_00000127722797105294348220000010327528708641770418_);}
	.st20{fill:url(#SVGID_00000081631693486765883040000004345634575160401339_);}
	.st21{fill:url(#SVGID_00000135675418815515482020000013586200884028291721_);}
	.st22{fill:url(#SVGID_00000168796268376543995600000015878322772557920959_);}
	.st23{fill:url(#SVGID_00000121270145620323526900000009444391968568045470_);}
	.st24{fill:url(#SVGID_00000027563555555661058280000005445088368160258707_);}
	.st25{fill:url(#SVGID_00000139268803626449592130000001082422769500752005_);}
	.st26{fill:url(#SVGID_00000145774983685818897410000003614464251118082461_);}
	.st27{fill:url(#SVGID_00000090262801280082287830000010261529065990307974_);}
	.st28{fill:url(#SVGID_00000008149524622221846700000006968517799147369402_);}
	.st29{fill:url(#SVGID_00000163067056786153443960000010314977345713619599_);}
	.st30{fill:url(#SVGID_00000044860591246840533270000009931189386778808500_);}
	.st31{fill:url(#SVGID_00000174569066790196338340000002086043019782317461_);}
	.st32{fill:url(#SVGID_00000119807068397034287140000001136325991110046850_);}
	.st33{fill:url(#SVGID_00000078763710334840332430000013077592245026842774_);}
	.st34{opacity:0.5;fill:url(#SVGID_00000048498964337130834790000016844811326536181419_);enable-background:new    ;}
	.st35{fill:url(#SVGID_00000096047741221490636950000011035517898319973286_);}
	.st36{opacity:0.6;fill:#FFFFFF;enable-background:new    ;}
	.st37{fill:url(#SVGID_00000173881898294219776330000005584309680069544585_);}
	.st38{fill:url(#SVGID_00000135687116940911913700000000950494591840861089_);}
	.st39{fill:url(#SVGID_00000175289923958052640150000013371562319233085851_);}
	.st40{fill:url(#SVGID_00000059303508301390665370000009237417279147018936_);}
	.st41{fill:url(#SVGID_00000033356287512174622720000008714105036550194830_);}
	.st42{fill:url(#SVGID_00000012456518915674550650000011098624975102245016_);}
	.st43{opacity:0.4;fill:url(#SVGID_00000088103393921771780170000004302182343995428995_);enable-background:new    ;}
	.st44{fill:url(#SVGID_00000161613767024252547280000007346410940680543616_);}
	.st45{fill:url(#SVGID_00000133520205497933547180000014004947095888628864_);}
	.st46{fill:url(#SVGID_00000163769349118451933420000011393664018075266492_);}
	.st47{fill:none;}
	.st48{fill:url(#SVGID_00000136370987481825487890000015076442182131695775_);}
	.st49{fill:url(#SVGID_00000177486359304552573280000011454621552437806748_);}
	.st50{fill:url(#SVGID_00000174564857567221018610000007088108038169528985_);}
	.st51{fill:url(#SVGID_00000098932036051764062670000015504690118796997055_);}
	.st52{fill:url(#SVGID_00000029735544984739020810000001751637242406036385_);}
	.st53{fill:url(#SVGID_00000048475166909798267180000004808575277046025360_);}
	.st54{fill:url(#SVGID_00000165921735492256423260000005216039549787715969_);}
	.st55{fill:#475B80;}
	.st56{fill:url(#SVGID_00000141448720798313051930000015945300943372656542_);}
	.st57{fill:url(#SVGID_00000082341177235501591070000008103088002781919144_);}
</style>
<linearGradient id="SVGID_1_" gradientUnits="userSpaceOnUse" x1="158.8878" y1="33.874" x2="344.388" y2="33.874" gradientTransform="matrix(1 0 0 -1 0 162)">
	<stop  offset="0" style="stop-color:#2E3E69"/>
	<stop  offset="1" style="stop-color:#212F5D"/>
</linearGradient>
<path class="st0" d="M221.8,160c-21.9,0-43.5-2.1-62.2-5.9c-0.4-0.1-0.7-0.5-0.6-0.9c0.1-0.4,0.5-0.7,0.9-0.6
	c18.7,3.9,40.1,5.9,61.9,5.9c32.5,0,63-4.4,85.9-12.4c22.7-7.9,35.2-18.4,35.2-29.4c0-6.5-4.6-13.1-13.3-19
	c-0.3-0.2-0.5-0.7-0.2-1.1c0.2-0.3,0.7-0.5,1.1-0.2c9.3,6.2,14,13,14,20.2c0,11.7-12.8,22.7-36.2,30.8
	C285.1,155.6,254.4,160,221.8,160z"/>
<linearGradient id="SVGID_00000080888374708971239510000009535409380154541497_" gradientUnits="userSpaceOnUse" x1="99.1543" y1="54.1584" x2="311.8989" y2="54.1584" gradientTransform="matrix(1 0 0 -1 0 162)">
	<stop  offset="0" style="stop-color:#2E3E69"/>
	<stop  offset="1" style="stop-color:#212F5D"/>
</linearGradient>
<path style="fill:url(#SVGID_00000080888374708971239510000009535409380154541497_);" d="M123.1,142.4c-0.1,0-0.2,0-0.3-0.1
	c-15.4-7.4-23.6-16.3-23.6-25.7c0-11.7,12.8-22.7,36.2-30.8c23.1-8.1,53.8-12.5,86.4-12.5c33.9,0,66.5,5,89.6,13.7
	c0.4,0.2,0.6,0.6,0.5,1c-0.2,0.4-0.6,0.6-1,0.5c-23-8.6-55.5-13.5-89.1-13.5c-32.5,0-63,4.4-85.9,12.4
	c-22.7,7.9-35.2,18.4-35.2,29.4c0,8.7,7.9,17.1,22.7,24.3c0.4,0.2,0.5,0.6,0.3,1C123.6,142.2,123.3,142.4,123.1,142.4z"/>
<linearGradient id="SVGID_00000064321148331157269860000001587538472525940873_" gradientUnits="userSpaceOnUse" x1="129.162" y1="47.4996" x2="314.496" y2="47.4996" gradientTransform="matrix(1 0 0 -1 0 162)">
	<stop  offset="0" style="stop-color:#2E3E69"/>
	<stop  offset="1" style="stop-color:#212F5D"/>
</linearGradient>
<path style="fill:url(#SVGID_00000064321148331157269860000001587538472525940873_);" d="M221.8,147.4c-24.6,0-47.8-3.4-65.2-9.5
	c-17.7-6.2-27.4-14.5-27.4-23.4c0-8.9,9.7-17.3,27.4-23.4c17.4-6.1,40.6-9.5,65.2-9.5s47.8,3.4,65.2,9.5
	c17.7,6.2,27.4,14.5,27.4,23.4c0,8.9-9.7,17.3-27.4,23.4C269.6,144,246.5,147.4,221.8,147.4z M221.8,83.1c-24.5,0-47.4,3.3-64.7,9.4
	c-17,5.9-26.4,13.8-26.4,22c0,8.2,9.4,16,26.4,22c17.3,6,40.3,9.4,64.7,9.4c24.5,0,47.4-3.3,64.7-9.4c17-5.9,26.4-13.8,26.4-22
	c0-8.2-9.4-16-26.4-22C269.3,86.5,246.3,83.1,221.8,83.1z"/>
<linearGradient id="SVGID_00000044862213138525775590000018385595241244597901_" gradientUnits="userSpaceOnUse" x1="111.4735" y1="50.9312" x2="302.1835" y2="38.5522" gradientTransform="matrix(1 0 0 -1 0 162)">
	<stop  offset="0" style="stop-color:#213351;stop-opacity:0.4"/>
	<stop  offset="0.6453" style="stop-color:#273957;stop-opacity:0.2709"/>
	<stop  offset="1" style="stop-color:#2D3F5D;stop-opacity:0.2"/>
</linearGradient>
<path style="fill:url(#SVGID_00000044862213138525775590000018385595241244597901_);" d="M233.9,143c48.4,0,87.6-10.7,87.6-24
	c0-13.3-39.2-24-87.6-24c-48.4,0-87.6,10.7-87.6,24C146.3,132.3,185.5,143,233.9,143z"/>
<linearGradient id="SVGID_00000126302322320302052530000015290396372533404092_" gradientUnits="userSpaceOnUse" x1="146.7938" y1="9.5526" x2="318.7708" y2="107.9704" gradientTransform="matrix(1 0 0 -1 0 162)">
	<stop  offset="0" style="stop-color:#FFFFFF"/>
	<stop  offset="0.4607" style="stop-color:#90B0FF"/>
	<stop  offset="0.5349" style="stop-color:#89ABFD"/>
	<stop  offset="0.6451" style="stop-color:#759EF7"/>
	<stop  offset="0.7779" style="stop-color:#5488EE"/>
	<stop  offset="0.9269" style="stop-color:#266AE2"/>
	<stop  offset="1" style="stop-color:#0D5ADB"/>
</linearGradient>
<path style="fill:url(#SVGID_00000126302322320302052530000015290396372533404092_);" d="M296.4,109.3c-0.2,0.2-0.3,0.5-0.5,0.7
	c-0.8,1.1-1.8,2.2-3.1,3.3c-0.3,0.3-0.7,0.5-1,0.8c-0.8,0.6-1.6,1.1-2.5,1.7c-0.2,0.2-0.5,0.3-0.7,0.4c-0.5,0.3-1,0.6-1.5,0.8
	c-0.3,0.2-0.5,0.3-0.8,0.4c-1.1,0.6-2.3,1.1-3.5,1.6c-0.2,0.1-0.5,0.2-0.7,0.3c-0.8,0.3-1.5,0.6-2.3,0.9c-1.1,0.4-2.3,0.8-3.5,1.2
	c-0.5,0.2-1,0.3-1.5,0.5c-0.5,0.2-1,0.3-1.5,0.5c-1.1,0.3-2.3,0.7-3.5,1c-0.7,0.2-1.3,0.3-2,0.5c-0.2,0-0.5,0.1-0.7,0.2
	c-0.1,0-0.2,0-0.3,0.1c-1.2,0.3-2.3,0.5-3.5,0.8c-0.4,0.1-0.8,0.2-1.1,0.2c-0.4,0.1-0.8,0.2-1.1,0.2c0,0-0.1,0-0.1,0
	c-1.3,0.3-2.8,0.5-4.2,0.8c-0.5,0.1-1,0.2-1.5,0.2c-0.5,0.1-1,0.2-1.5,0.2c-1.1,0.2-2.3,0.3-3.5,0.5c-1,0.1-2,0.3-3.1,0.4
	c-1.2,0.1-2.3,0.3-3.5,0.3c-0.4,0-0.8,0.1-1.1,0.1c-0.3,0-0.6,0-0.9,0.1c-0.3,0-0.7,0.1-1,0.1c-1.2,0.1-2.3,0.2-3.5,0.3
	c-1,0.1-2,0.1-3.1,0.2c-1.1,0.1-2.3,0.1-3.5,0.2c-0.5,0-1,0-1.6,0c-0.5,0-1,0-1.5,0c-0.3,0-0.7,0-1.1,0c-0.5,0-1,0-1.5,0
	c-0.3,0-0.6,0-0.9,0h-0.3c-0.1,0-0.2,0-0.3,0c-0.5,0-1,0-1.5,0c-0.3,0-0.7,0-1.1,0c-0.4,0-0.7,0-1.1,0c-0.3,0-0.5,0-0.8,0
	c-0.5,0-1.1,0-1.6,0c-0.5,0-1,0-1.5,0c-0.4,0-0.8,0-1.2,0h0c-0.1,0-0.2,0-0.3,0c-0.4,0-0.7,0-1.1,0c-0.5,0-1,0-1.5-0.1
	c-0.3,0-0.6,0-0.9,0c-1,0-2-0.1-3.1-0.2c-1.1-0.1-2.3-0.2-3.5-0.2c-0.4,0-0.8-0.1-1.3-0.1c-0.6,0-1.2-0.1-1.8-0.2
	c-1.2-0.1-2.3-0.2-3.5-0.3c-0.5-0.1-1-0.1-1.5-0.2c-0.3,0-0.5-0.1-0.8-0.1c-0.3,0-0.5-0.1-0.8-0.1c-1.2-0.2-2.3-0.3-3.5-0.5
	c-0.5-0.1-1-0.2-1.5-0.2c-0.1,0-0.2,0-0.3,0c-0.5-0.1-0.9-0.2-1.3-0.2c-1.2-0.2-2.3-0.4-3.5-0.6c-0.1,0-0.1,0-0.2,0
	c-0.5-0.1-0.9-0.2-1.3-0.3c-0.5-0.1-1-0.2-1.5-0.3c-1.2-0.2-2.3-0.5-3.5-0.7c-1-0.2-2.1-0.5-3.1-0.7c-1.2-0.3-2.3-0.6-3.5-0.9
	c-0.3-0.1-0.5-0.2-0.8-0.2c-0.5-0.2-1-0.3-1.6-0.5c-0.2-0.1-0.5-0.2-0.7-0.2c-1.2-0.4-2.3-0.8-3.5-1.2l-0.5-0.2
	c-0.3-0.1-0.6-0.2-0.9-0.3c-0.5-0.2-1-0.4-1.4-0.6c-0.7-0.3-1.3-0.5-1.9-0.8c-0.5-0.2-1.1-0.5-1.6-0.7c-0.8-0.4-1.6-0.8-2.3-1.2
	c-0.2-0.2-0.5-0.3-0.7-0.4c-1.3-0.7-2.4-1.5-3.4-2.3c0,0,0,0-0.1-0.1c-0.6-0.5-1.2-0.9-1.6-1.4c-0.1-0.1-0.3-0.2-0.4-0.3
	c-0.4-0.3-0.7-0.7-1-1.1c-0.5-0.6-1-1.2-1.4-1.9c0.3-0.4,0.6-0.8,0.9-1.3c0.5-0.6,1-1.2,1.6-1.8c0.6-0.6,1.3-1.1,2-1.6
	c5.2-3.9,13.5-7.3,23.8-9.9c12.7-3.1,28.6-5,45.8-5c28.7,0,53.6,5.1,66.5,12.7c1.2,0.7,2.3,1.4,3.3,2.1c0.7,0.5,1.4,1.1,2,1.6
	c0.6,0.6,1.2,1.2,1.6,1.8C295.9,108.5,296.2,108.9,296.4,109.3z"/>
<linearGradient id="SVGID_00000006685886689709350220000012415430026698143390_" gradientUnits="userSpaceOnUse" x1="146.522" y1="57.4302" x2="297.863" y2="57.4302" gradientTransform="matrix(1 0 0 -1 0 162)">
	<stop  offset="0" style="stop-color:#3DB39A"/>
	<stop  offset="0.1071" style="stop-color:#41C9B1"/>
	<stop  offset="1" style="stop-color:#7ACA94"/>
</linearGradient>
<path style="fill:url(#SVGID_00000006685886689709350220000012415430026698143390_);" d="M297.9,104.6c0,1-0.2,1.9-0.5,2.8
	c-0.2,0.7-0.5,1.3-0.9,1.9c-0.2,0.2-0.3,0.5-0.5,0.7c-0.8,1.1-1.8,2.2-3.1,3.3c-0.3,0.3-0.7,0.5-1,0.8c-0.8,0.6-1.6,1.1-2.5,1.7
	c-0.2,0.2-0.5,0.3-0.7,0.4c-0.5,0.3-1,0.6-1.5,0.8c-0.3,0.2-0.5,0.3-0.8,0.4c-1.1,0.6-2.3,1.1-3.5,1.6c-0.2,0.1-0.5,0.2-0.7,0.3
	c-0.8,0.3-1.5,0.6-2.3,0.9c-1.1,0.4-2.3,0.8-3.5,1.2c-0.5,0.2-1,0.3-1.5,0.5c-0.5,0.2-1,0.3-1.5,0.5c-1.1,0.3-2.3,0.7-3.5,1
	c-0.7,0.2-1.3,0.3-2,0.5c-0.2,0-0.5,0.1-0.7,0.2c-0.1,0-0.2,0-0.3,0.1c-1.2,0.3-2.3,0.5-3.5,0.8c-0.4,0.1-0.8,0.2-1.1,0.2
	c-0.4,0.1-0.8,0.2-1.1,0.2c0,0-0.1,0-0.1,0c-1.3,0.3-2.8,0.5-4.2,0.8c-0.5,0.1-1,0.2-1.5,0.2c-0.5,0.1-1,0.2-1.5,0.2
	c-1.1,0.2-2.3,0.3-3.5,0.5c-1,0.1-2,0.3-3.1,0.4c-1.2,0.1-2.3,0.3-3.5,0.3c-0.4,0-0.8,0.1-1.1,0.1c-0.3,0-0.6,0-0.9,0.1
	c-0.3,0-0.7,0.1-1,0.1c-1.2,0.1-2.3,0.2-3.5,0.3c-1,0.1-2,0.1-3.1,0.2c-1.1,0.1-2.3,0.1-3.5,0.2c-0.5,0-1,0-1.6,0c-0.5,0-1,0-1.5,0
	c-0.3,0-0.7,0-1.1,0c-0.5,0-1,0-1.5,0c-0.3,0-0.6,0-0.9,0h-0.3c-0.1,0-0.2,0-0.3,0c-0.5,0-1,0-1.5,0c-0.3,0-0.7,0-1.1,0
	c-0.4,0-0.7,0-1.1,0c-0.3,0-0.5,0-0.8,0c-0.5,0-1.1,0-1.6,0c-0.5,0-1,0-1.5,0c-0.4,0-0.8,0-1.2,0h0c-0.1,0-0.2,0-0.3,0
	c-0.4,0-0.7,0-1.1,0c-0.5,0-1,0-1.5-0.1c-0.3,0-0.6,0-0.9,0c-1,0-2-0.1-3.1-0.2c-1.1-0.1-2.3-0.2-3.5-0.2c-0.4,0-0.8-0.1-1.3-0.1
	c-0.6,0-1.2-0.1-1.8-0.2c-1.2-0.1-2.3-0.2-3.5-0.3c-0.5-0.1-1-0.1-1.5-0.2c-0.3,0-0.5-0.1-0.8-0.1c-0.3,0-0.5-0.1-0.8-0.1
	c-1.2-0.2-2.3-0.3-3.5-0.5c-0.5-0.1-1-0.2-1.5-0.2c-0.1,0-0.2,0-0.3,0c-0.5-0.1-0.9-0.2-1.3-0.2c-1.2-0.2-2.3-0.4-3.5-0.6
	c-0.1,0-0.1,0-0.2,0c-0.5-0.1-0.9-0.2-1.3-0.3c-0.5-0.1-1-0.2-1.5-0.3c-1.2-0.2-2.3-0.5-3.5-0.7c-1-0.2-2.1-0.5-3.1-0.7
	c-1.2-0.3-2.3-0.6-3.5-0.9c-0.3-0.1-0.5-0.2-0.8-0.2c-0.5-0.2-1-0.3-1.6-0.5c-0.2-0.1-0.5-0.2-0.7-0.2c-1.2-0.4-2.3-0.8-3.5-1.2
	l-0.5-0.2c-0.3-0.1-0.6-0.2-0.9-0.3c-0.5-0.2-1-0.4-1.4-0.6c-0.7-0.3-1.3-0.5-1.9-0.8c-0.5-0.2-1.1-0.5-1.6-0.7
	c-0.8-0.4-1.6-0.8-2.3-1.2c-0.2-0.2-0.5-0.3-0.7-0.4c-1.3-0.7-2.4-1.5-3.4-2.3c0,0,0,0-0.1-0.1c-0.6-0.5-1.2-0.9-1.6-1.4
	c-0.1-0.1-0.3-0.2-0.4-0.3c-0.4-0.3-0.7-0.7-1-1.1c-0.5-0.6-1-1.2-1.4-1.9c-0.9-1.5-1.4-3.1-1.4-4.7c0-0.4,0-0.8,0.1-1.3
	c0.1-0.6,0.3-1.2,0.5-1.8c4.7-12,36.5-21.2,75-21.2c0.4,0,0.9,0,1.3,0c33,0.2,60.8,7.1,70.6,16.7c1.5,1.5,2.6,2.9,3.2,4.5
	c0.2,0.6,0.4,1.2,0.5,1.8c0,0.2,0,0.3,0.1,0.5C297.9,104.1,297.9,104.4,297.9,104.6z"/>
<linearGradient id="SVGID_00000045613871106261546980000012740937510591979666_" gradientUnits="userSpaceOnUse" x1="164.375" y1="40.5165" x2="263.201" y2="40.5165" gradientTransform="matrix(1 0 0 -1 0 162)">
	<stop  offset="0" style="stop-color:#36B399"/>
	<stop  offset="1" style="stop-color:#22807A"/>
</linearGradient>
<path style="fill:url(#SVGID_00000045613871106261546980000012740937510591979666_);" d="M297.9,104.6v9.5c0,1.8-0.7,3.6-1.9,5.4
	c-0.8,1.1-1.8,2.2-3.1,3.3c-1,0.8-2.2,1.7-3.5,2.5c-1,0.6-2,1.1-3.1,1.7c-1.1,0.6-2.3,1.1-3.5,1.6c-1,0.4-2,0.8-3.1,1.2
	c-1.1,0.4-2.3,0.8-3.5,1.2c-1,0.3-2,0.7-3.1,1c-1.1,0.3-2.3,0.7-3.5,1c-1,0.3-2,0.5-3.1,0.8c-1.1,0.3-2.3,0.5-3.5,0.8
	c-0.3,0.1-0.7,0.2-1,0.2c-0.7,0.2-1.4,0.3-2.1,0.4c-1.2,0.2-2.3,0.4-3.5,0.6c-1,0.2-2,0.3-3.1,0.5c-1.1,0.2-2.3,0.3-3.5,0.5
	c-1,0.1-2,0.3-3.1,0.4c-1.2,0.1-2.3,0.3-3.5,0.3c-1,0.1-2,0.2-3.1,0.3c-1.1,0.1-2.3,0.2-3.5,0.3c-1,0.1-2,0.1-3.1,0.2
	c-1.1,0.1-2.3,0.1-3.5,0.2c-1,0-2,0.1-3.1,0.1c-1.2,0-2.3,0-3.5,0c-0.7,0-1.3,0-2,0c-0.3,0-0.7,0-1.1,0c-1.1,0-2.3,0-3.5,0
	c-1,0-2,0-3.1-0.1c-1.1,0-2.3-0.1-3.5-0.2c-1,0-2-0.1-3.1-0.2c-1.1-0.1-2.3-0.2-3.5-0.2c-1-0.1-2-0.2-3.1-0.3
	c-1.2-0.1-2.3-0.2-3.5-0.3c-1-0.1-2-0.2-3.1-0.3c-1.2-0.2-2.3-0.3-3.5-0.5c-1-0.2-2-0.3-3.1-0.5c-1.2-0.2-2.3-0.4-3.5-0.6
	c-1-0.2-2.1-0.4-3.1-0.6c-0.7-0.2-1.4-0.3-2.1-0.4c-0.5-0.1-0.9-0.2-1.4-0.3c-1-0.2-2.1-0.5-3.1-0.7c-1.2-0.3-2.3-0.6-3.5-0.9
	c-1-0.3-2.1-0.6-3.1-0.9c-1.2-0.4-2.3-0.8-3.5-1.2c-1.1-0.4-2.1-0.8-3.1-1.2c-1.2-0.5-2.4-1-3.5-1.6c-1.1-0.5-2.1-1.1-3.1-1.6
	c-1.3-0.8-2.5-1.5-3.5-2.3c-1.2-0.9-2.2-1.8-3.1-2.8c-1.8-2.1-2.8-4.3-2.8-6.6v-9.5c0,1.6,0.5,3.2,1.4,4.7c0.4,0.6,0.8,1.3,1.4,1.9
	c0.8,1,1.9,1.9,3.1,2.8c0,0,0,0,0.1,0.1c1,0.8,2.1,1.5,3.4,2.3c1,0.6,2,1.1,3.1,1.6c1.1,0.5,2.3,1.1,3.5,1.6c1,0.4,2,0.8,3.1,1.2
	c1.1,0.4,2.3,0.8,3.5,1.2c1,0.3,2,0.6,3.1,0.9c1.1,0.3,2.3,0.7,3.5,0.9c1,0.3,2,0.5,3.1,0.7c1.1,0.3,2.3,0.5,3.5,0.7
	c1,0.2,2,0.4,3.1,0.6c1.1,0.2,2.3,0.4,3.5,0.6c1,0.2,2,0.3,3.1,0.5c1.2,0.2,2.3,0.3,3.5,0.5c1,0.1,2,0.2,3.1,0.3
	c1.1,0.1,2.3,0.2,3.5,0.3c1,0.1,2,0.2,3.1,0.3c1.1,0.1,2.3,0.2,3.5,0.2c1,0.1,2,0.1,3.1,0.2c1.1,0,2.3,0.1,3.5,0.2
	c1,0,2,0.1,3.1,0.1c1.2,0,2.3,0,3.5,0c0.3,0,0.7,0,1.1,0c0.7,0,1.3,0,2,0c1.2,0,2.3,0,3.5-0.1c1,0,2,0,3.1-0.1
	c1.1,0,2.3-0.1,3.5-0.2c1,0,2-0.1,3.1-0.2c1.1-0.1,2.3-0.2,3.5-0.3c1-0.1,2-0.2,3.1-0.3c1.2-0.1,2.3-0.2,3.5-0.3
	c1-0.1,2-0.2,3.1-0.4c1.2-0.2,2.3-0.3,3.5-0.5c1-0.2,2-0.3,3.1-0.5c1.2-0.2,2.3-0.4,3.5-0.6c1-0.2,2-0.4,3.1-0.6
	c1.2-0.3,2.3-0.5,3.5-0.8c1-0.2,2.1-0.5,3.1-0.8c1.2-0.3,2.3-0.6,3.5-1c1-0.3,2.1-0.6,3.1-1c1.2-0.4,2.4-0.8,3.5-1.2
	c1.1-0.4,2.1-0.8,3.1-1.2c1.2-0.5,2.4-1.1,3.5-1.6c1.1-0.6,2.1-1.1,3.1-1.7c0.7-0.4,1.3-0.8,1.8-1.2c0.2-0.2,0.4-0.3,0.6-0.5
	c0.3-0.3,0.7-0.5,1-0.8c1.2-1,2.3-2.1,3.1-3.3c0.2-0.2,0.3-0.5,0.5-0.7c0.3-0.5,0.6-1.1,0.8-1.6
	C297.7,106.7,297.9,105.7,297.9,104.6z"/>
<path class="st7" d="M293.5,48l0.8,0.5l-0.8,0.5l-0.4,0.8l-0.5-0.8l-0.8-0.5l0.8-0.5l0.5-0.8L293.5,48z"/>
<linearGradient id="SVGID_00000031892029611137107900000009656683516887050120_" gradientUnits="userSpaceOnUse" x1="149.417" y1="44.266" x2="152.468" y2="44.266" gradientTransform="matrix(1 0 0 -1 0 162)">
	<stop  offset="0" style="stop-color:#2E3E69"/>
	<stop  offset="1" style="stop-color:#212F5D"/>
</linearGradient>
<path style="fill:url(#SVGID_00000031892029611137107900000009656683516887050120_);" d="M152.5,117.3v3.6c-1.2-0.9-2.2-1.8-3.1-2.8
	v-3.6C150.2,115.5,151.3,116.4,152.5,117.3z"/>
<linearGradient id="SVGID_00000117651114214161031850000003874627133280069819_" gradientUnits="userSpaceOnUse" x1="155.944" y1="39.7695" x2="158.995" y2="39.7695" gradientTransform="matrix(1 0 0 -1 0 162)">
	<stop  offset="0" style="stop-color:#2E3E69"/>
	<stop  offset="1" style="stop-color:#212F5D"/>
</linearGradient>
<path style="fill:url(#SVGID_00000117651114214161031850000003874627133280069819_);" d="M155.9,119.6c1,0.5,2,1.1,3.1,1.6v3.6
	c-1.1-0.5-2.1-1.1-3.1-1.6V119.6z"/>
<linearGradient id="SVGID_00000048498131066017153350000011777994514817027463_" gradientUnits="userSpaceOnUse" x1="162.465" y1="36.804" x2="165.516" y2="36.804" gradientTransform="matrix(1 0 0 -1 0 162)">
	<stop  offset="0" style="stop-color:#2E3E69"/>
	<stop  offset="1" style="stop-color:#212F5D"/>
</linearGradient>
<path style="fill:url(#SVGID_00000048498131066017153350000011777994514817027463_);" d="M162.5,122.8c1,0.4,2,0.8,3.1,1.2v3.6
	c-1.1-0.4-2.1-0.8-3.1-1.2V122.8z"/>
<linearGradient id="SVGID_00000149376192876015515790000007531738038566423991_" gradientUnits="userSpaceOnUse" x1="168.988" y1="34.5655" x2="172.043" y2="34.5655" gradientTransform="matrix(1 0 0 -1 0 162)">
	<stop  offset="0" style="stop-color:#2E3E69"/>
	<stop  offset="1" style="stop-color:#212F5D"/>
</linearGradient>
<path style="fill:url(#SVGID_00000149376192876015515790000007531738038566423991_);" d="M169,125.2c1,0.3,2,0.6,3.1,0.9v3.6
	c-1-0.3-2.1-0.6-3.1-0.9V125.2z"/>
<linearGradient id="SVGID_00000034083752703628532960000000436772845751353261_" gradientUnits="userSpaceOnUse" x1="175.514" y1="32.824" x2="178.565" y2="32.824" gradientTransform="matrix(1 0 0 -1 0 162)">
	<stop  offset="0" style="stop-color:#2E3E69"/>
	<stop  offset="1" style="stop-color:#212F5D"/>
</linearGradient>
<path style="fill:url(#SVGID_00000034083752703628532960000000436772845751353261_);" d="M175.5,127c1,0.3,2,0.5,3.1,0.7v3.6
	c-1-0.2-2.1-0.5-3.1-0.7V127z"/>
<linearGradient id="SVGID_00000049917121195698760570000006202621618200945059_" gradientUnits="userSpaceOnUse" x1="182.036" y1="31.4085" x2="185.091" y2="31.4085" gradientTransform="matrix(1 0 0 -1 0 162)">
	<stop  offset="0" style="stop-color:#2E3E69"/>
	<stop  offset="1" style="stop-color:#212F5D"/>
</linearGradient>
<path style="fill:url(#SVGID_00000049917121195698760570000006202621618200945059_);" d="M182,128.5c1,0.2,2,0.4,3.1,0.6v3.6
	c-1-0.2-2.1-0.4-3.1-0.6V128.5z"/>
<linearGradient id="SVGID_00000054984120173054932960000017761113926356553350_" gradientUnits="userSpaceOnUse" x1="188.563" y1="30.2795" x2="191.614" y2="30.2795" gradientTransform="matrix(1 0 0 -1 0 162)">
	<stop  offset="0" style="stop-color:#2E3E69"/>
	<stop  offset="1" style="stop-color:#212F5D"/>
</linearGradient>
<path style="fill:url(#SVGID_00000054984120173054932960000017761113926356553350_);" d="M191.6,130.2v3.6c-1-0.2-2-0.3-3.1-0.5
	v-3.6C189.6,129.8,190.6,130,191.6,130.2z"/>
<linearGradient id="SVGID_00000078021857683783316940000004852698963042602163_" gradientUnits="userSpaceOnUse" x1="195.084" y1="29.4185" x2="198.135" y2="29.4185" gradientTransform="matrix(1 0 0 -1 0 162)">
	<stop  offset="0" style="stop-color:#2E3E69"/>
	<stop  offset="1" style="stop-color:#212F5D"/>
</linearGradient>
<path style="fill:url(#SVGID_00000078021857683783316940000004852698963042602163_);" d="M198.1,131v3.6c-1-0.1-2-0.2-3.1-0.3v-3.6
	C196.1,130.7,197.1,130.8,198.1,131z"/>
<linearGradient id="SVGID_00000134957370068817233080000008006757545952900994_" gradientUnits="userSpaceOnUse" x1="201.611" y1="28.7675" x2="204.662" y2="28.7675" gradientTransform="matrix(1 0 0 -1 0 162)">
	<stop  offset="0" style="stop-color:#2E3E69"/>
	<stop  offset="1" style="stop-color:#212F5D"/>
</linearGradient>
<path style="fill:url(#SVGID_00000134957370068817233080000008006757545952900994_);" d="M204.7,131.6v3.6c-1-0.1-2-0.2-3.1-0.3
	v-3.6C202.6,131.4,203.6,131.5,204.7,131.6z"/>
<linearGradient id="SVGID_00000075846640415462633340000006808455354241601951_" gradientUnits="userSpaceOnUse" x1="208.132" y1="28.328" x2="211.184" y2="28.328" gradientTransform="matrix(1 0 0 -1 0 162)">
	<stop  offset="0" style="stop-color:#2E3E69"/>
	<stop  offset="1" style="stop-color:#212F5D"/>
</linearGradient>
<path style="fill:url(#SVGID_00000075846640415462633340000006808455354241601951_);" d="M211.2,131.9v3.6c-1,0-2-0.1-3.1-0.2v-3.6
	C209.1,131.8,210.2,131.9,211.2,131.9z"/>
<linearGradient id="SVGID_00000120516745962057365110000001117588027344729732_" gradientUnits="userSpaceOnUse" x1="214.662" y1="28.06" x2="217.713" y2="28.06" gradientTransform="matrix(1 0 0 -1 0 162)">
	<stop  offset="0" style="stop-color:#2E3E69"/>
	<stop  offset="1" style="stop-color:#212F5D"/>
</linearGradient>
<path style="fill:url(#SVGID_00000120516745962057365110000001117588027344729732_);" d="M217.7,132.2v3.6c-1,0-2,0-3.1-0.1v-3.6
	C215.7,132.1,216.7,132.1,217.7,132.2z"/>
<linearGradient id="SVGID_00000163756795705332589930000007630497069888275087_" gradientUnits="userSpaceOnUse" x1="221.181" y1="27.9835" x2="224.232" y2="27.9835" gradientTransform="matrix(1 0 0 -1 0 162)">
	<stop  offset="0" style="stop-color:#2E3E69"/>
	<stop  offset="1" style="stop-color:#212F5D"/>
</linearGradient>
<path style="fill:url(#SVGID_00000163756795705332589930000007630497069888275087_);" d="M224.2,132.2v3.6c-0.7,0-1.3,0-2,0
	c-0.3,0-0.7,0-1.1,0v-3.6c0.3,0,0.7,0,1.1,0C222.9,132.2,223.6,132.2,224.2,132.2z"/>
<linearGradient id="SVGID_00000101090243216063021870000009280127217822930818_" gradientUnits="userSpaceOnUse" x1="227.703" y1="28.098" x2="230.758" y2="28.098" gradientTransform="matrix(1 0 0 -1 0 162)">
	<stop  offset="0" style="stop-color:#2E3E69"/>
	<stop  offset="1" style="stop-color:#212F5D"/>
</linearGradient>
<path style="fill:url(#SVGID_00000101090243216063021870000009280127217822930818_);" d="M230.8,132.1v3.6c-1,0-2,0.1-3.1,0.1v-3.6
	C228.7,132.1,229.8,132.1,230.8,132.1z"/>
<linearGradient id="SVGID_00000061451357278268839680000008958452673444323468_" gradientUnits="userSpaceOnUse" x1="234.229" y1="28.385" x2="237.28" y2="28.385" gradientTransform="matrix(1 0 0 -1 0 162)">
	<stop  offset="0" style="stop-color:#2E3E69"/>
	<stop  offset="1" style="stop-color:#212F5D"/>
</linearGradient>
<path style="fill:url(#SVGID_00000061451357278268839680000008958452673444323468_);" d="M237.3,131.7v3.6c-1,0.1-2,0.1-3.1,0.2
	v-3.6C235.2,131.9,236.3,131.8,237.3,131.7z"/>
<linearGradient id="SVGID_00000176748725041631692240000011300258008082864567_" gradientUnits="userSpaceOnUse" x1="240.751" y1="28.8445" x2="243.802" y2="28.8445" gradientTransform="matrix(1 0 0 -1 0 162)">
	<stop  offset="0" style="stop-color:#2E3E69"/>
	<stop  offset="1" style="stop-color:#212F5D"/>
</linearGradient>
<path style="fill:url(#SVGID_00000176748725041631692240000011300258008082864567_);" d="M243.8,131.2v3.6c-1,0.1-2,0.2-3.1,0.3
	v-3.6C241.8,131.4,242.8,131.3,243.8,131.2z"/>
<linearGradient id="SVGID_00000171680632068768779160000013567636225535062439_" gradientUnits="userSpaceOnUse" x1="247.275" y1="29.514" x2="250.326" y2="29.514" gradientTransform="matrix(1 0 0 -1 0 162)">
	<stop  offset="0" style="stop-color:#2E3E69"/>
	<stop  offset="1" style="stop-color:#212F5D"/>
</linearGradient>
<path style="fill:url(#SVGID_00000171680632068768779160000013567636225535062439_);" d="M250.3,130.5v3.6c-1,0.1-2,0.3-3.1,0.4
	v-3.6C248.3,130.7,249.3,130.6,250.3,130.5z"/>
<linearGradient id="SVGID_00000159471388095765509090000011017779341150613174_" gradientUnits="userSpaceOnUse" x1="253.799" y1="30.433" x2="256.85" y2="30.433" gradientTransform="matrix(1 0 0 -1 0 162)">
	<stop  offset="0" style="stop-color:#2E3E69"/>
	<stop  offset="1" style="stop-color:#212F5D"/>
</linearGradient>
<path style="fill:url(#SVGID_00000159471388095765509090000011017779341150613174_);" d="M256.9,129.5v3.6c-1,0.2-2,0.3-3.1,0.5V130
	C254.8,129.8,255.9,129.7,256.9,129.5z"/>
<linearGradient id="SVGID_00000131367339157480866360000013538591028376965265_" gradientUnits="userSpaceOnUse" x1="260.326" y1="31.5995" x2="263.377" y2="31.5995" gradientTransform="matrix(1 0 0 -1 0 162)">
	<stop  offset="0" style="stop-color:#2E3E69"/>
	<stop  offset="1" style="stop-color:#212F5D"/>
</linearGradient>
<path style="fill:url(#SVGID_00000131367339157480866360000013538591028376965265_);" d="M263.4,128.3v3.6c-0.3,0.1-0.7,0.2-1,0.2
	c-0.7,0.2-1.4,0.3-2.1,0.4v-3.6c0.7-0.1,1.4-0.3,2.1-0.4C262.7,128.5,263.1,128.4,263.4,128.3z"/>
<linearGradient id="SVGID_00000059293835364119412610000006218076562783208839_" gradientUnits="userSpaceOnUse" x1="266.848" y1="33.0345" x2="269.899" y2="33.0345" gradientTransform="matrix(1 0 0 -1 0 162)">
	<stop  offset="0" style="stop-color:#2E3E69"/>
	<stop  offset="1" style="stop-color:#212F5D"/>
</linearGradient>
<path style="fill:url(#SVGID_00000059293835364119412610000006218076562783208839_);" d="M269.9,126.8v3.6c-1,0.3-2,0.5-3.1,0.8
	v-3.6C267.9,127.3,268.9,127.1,269.9,126.8z"/>
<linearGradient id="SVGID_00000154399743061851015120000012318262599500841650_" gradientUnits="userSpaceOnUse" x1="273.37" y1="34.8525" x2="276.425" y2="34.8525" gradientTransform="matrix(1 0 0 -1 0 162)">
	<stop  offset="0" style="stop-color:#2E3E69"/>
	<stop  offset="1" style="stop-color:#212F5D"/>
</linearGradient>
<path style="fill:url(#SVGID_00000154399743061851015120000012318262599500841650_);" d="M276.4,124.9v3.6c-1,0.3-2,0.6-3.1,1v-3.6
	C274.4,125.5,275.4,125.2,276.4,124.9z"/>
<linearGradient id="SVGID_00000108995444057919823380000012483540321225722760_" gradientUnits="userSpaceOnUse" x1="279.896" y1="37.168" x2="282.947" y2="37.168" gradientTransform="matrix(1 0 0 -1 0 162)">
	<stop  offset="0" style="stop-color:#2E3E69"/>
	<stop  offset="1" style="stop-color:#212F5D"/>
</linearGradient>
<path style="fill:url(#SVGID_00000108995444057919823380000012483540321225722760_);" d="M283,122.4v3.6c-1,0.4-2,0.8-3.1,1.2v-3.6
	C281,123.3,282,122.8,283,122.4z"/>
<linearGradient id="SVGID_00000013906439217588404350000013890310937509166003_" gradientUnits="userSpaceOnUse" x1="286.419" y1="40.2865" x2="289.474" y2="40.2865" gradientTransform="matrix(1 0 0 -1 0 162)">
	<stop  offset="0" style="stop-color:#2E3E69"/>
	<stop  offset="1" style="stop-color:#212F5D"/>
</linearGradient>
<path style="fill:url(#SVGID_00000013906439217588404350000013890310937509166003_);" d="M289.5,119.1v3.6c-1,0.6-2,1.1-3.1,1.7
	v-3.6C287.5,120.2,288.5,119.7,289.5,119.1z"/>
<linearGradient id="SVGID_00000114795423508642824550000011256920615743776959_" gradientUnits="userSpaceOnUse" x1="292.944" y1="45.261" x2="295.995" y2="45.261" gradientTransform="matrix(1 0 0 -1 0 162)">
	<stop  offset="0" style="stop-color:#2E3E69"/>
	<stop  offset="1" style="stop-color:#212F5D"/>
</linearGradient>
<path style="fill:url(#SVGID_00000114795423508642824550000011256920615743776959_);" d="M296,113.3v3.6c-0.8,1.1-1.8,2.2-3.1,3.3
	v-3.6C294.2,115.5,295.2,114.4,296,113.3z"/>
<linearGradient id="SVGID_00000106118329384561107980000015236716148638843549_" gradientUnits="userSpaceOnUse" x1="274.473" y1="14.5587" x2="281.25" y2="14.5587" gradientTransform="matrix(1 0 0 -1 0 162)">
	<stop  offset="0" style="stop-color:#2E3E69"/>
	<stop  offset="1" style="stop-color:#212F5D"/>
</linearGradient>
<path style="fill:url(#SVGID_00000106118329384561107980000015236716148638843549_);" d="M280.5,155.1c-0.3,0-0.6-0.2-0.7-0.5
	l-5.2-13.8c-0.2-0.4,0-0.8,0.5-1c0.4-0.2,0.8,0,1,0.5l5.3,13.8c0.2,0.4,0,0.8-0.5,1C280.7,155.1,280.6,155.1,280.5,155.1z"/>
<linearGradient id="SVGID_00000156553072058757999150000006786598947920295070_" gradientUnits="userSpaceOnUse" x1="174.212" y1="155.2828" x2="194.664" y2="132.9386" gradientTransform="matrix(1 0 0 -1 0 162)">
	<stop  offset="0" style="stop-color:#90B0FF"/>
	<stop  offset="0.1375" style="stop-color:#89ABFD"/>
	<stop  offset="0.342" style="stop-color:#759EF7"/>
	<stop  offset="0.5882" style="stop-color:#5488EE"/>
	<stop  offset="0.8645" style="stop-color:#266AE2"/>
	<stop  offset="1" style="stop-color:#0D5ADB"/>
</linearGradient>
<path style="fill:url(#SVGID_00000156553072058757999150000006786598947920295070_);" d="M214.7,27.4c0.2,1.5,0.3,3.1,0.1,4.7
	c-0.1,0.9-0.3,1.7-0.5,2.6c-0.5,1.9-1.3,3.7-2.3,5.4c-1.2,1.9-2.7,3.6-4.5,5c-1.9,1.5-4,2.6-6.3,3.3c-2.2,0.7-4.5,1-6.9,0.8
	c-0.2,0-0.5,0-0.7-0.1c-5.5-0.6-10.1-3.6-12.9-7.8c-0.1-0.2-0.2-0.3-0.3-0.5c-0.1-0.2-0.3-0.4-0.4-0.6c-0.1-0.2-0.2-0.4-0.3-0.5
	c-0.1-0.2-0.2-0.4-0.3-0.6c-0.1-0.2-0.2-0.4-0.3-0.6c-0.1-0.2-0.2-0.4-0.2-0.6c-0.1-0.3-0.2-0.5-0.3-0.8c0-0.1-0.1-0.3-0.1-0.4
	c0-0.1-0.1-0.2-0.1-0.3c0-0.1-0.1-0.2-0.1-0.4c0-0.1-0.1-0.3-0.1-0.4v0c0-0.2-0.1-0.3-0.1-0.5c0-0.2-0.1-0.4-0.1-0.6
	c0-0.2,0-0.3-0.1-0.4c0-0.1,0-0.2,0-0.3c0-0.4-0.1-0.8-0.1-1.2c0-0.1,0-0.2,0-0.3c0-0.4,0-0.7,0-1.1c0-0.1,0-0.2,0-0.3
	c0-0.1,0-0.3,0-0.4c0,0,0-0.1,0-0.1c0-0.1,0-0.2,0-0.3c0-0.1,0-0.2,0-0.3c0-0.3,0.1-0.5,0.1-0.8c0-0.3,0.1-0.5,0.1-0.8
	c0-0.1,0-0.3,0.1-0.4c0-0.2,0.1-0.5,0.2-0.7c0.1-0.5,0.3-1,0.5-1.5c0-0.1,0.1-0.2,0.1-0.3c0.2-0.5,0.4-1,0.6-1.4
	c0-0.1,0.1-0.2,0.2-0.3c0.1-0.2,0.2-0.5,0.3-0.7c0.1-0.1,0.1-0.2,0.2-0.3c0.1-0.2,0.3-0.4,0.4-0.7c0-0.1,0.1-0.2,0.2-0.3
	c0,0,0-0.1,0.1-0.1c0.1-0.2,0.3-0.4,0.4-0.6c0.1-0.1,0.2-0.2,0.2-0.3c0.1-0.2,0.2-0.3,0.3-0.5c0.1-0.2,0.2-0.3,0.3-0.4
	c0.1-0.1,0.2-0.2,0.2-0.3c0.1-0.1,0.2-0.2,0.3-0.3l0.3-0.3c0.1-0.1,0.2-0.2,0.3-0.3c0.2-0.2,0.3-0.3,0.5-0.5
	c0.1-0.1,0.2-0.2,0.3-0.3c0.1-0.1,0.2-0.2,0.2-0.2c0.1-0.1,0.2-0.2,0.2-0.2c0.1-0.1,0.3-0.2,0.4-0.3c0.2-0.2,0.4-0.3,0.6-0.5
	c0.2-0.1,0.3-0.2,0.4-0.3c0.1,0,0.1-0.1,0.2-0.1c0.1-0.1,0.2-0.2,0.3-0.2c0.1-0.1,0.2-0.2,0.3-0.2c0.2-0.1,0.4-0.3,0.7-0.4
	c0.2-0.1,0.4-0.3,0.7-0.4c0.1,0,0.2-0.1,0.3-0.2c0.1,0,0.2-0.1,0.3-0.2c0.5-0.2,0.9-0.4,1.4-0.6c0.2-0.1,0.4-0.2,0.6-0.2
	c0.2-0.1,0.4-0.1,0.6-0.2c0.3-0.1,0.5-0.2,0.8-0.2c0.5-0.2,1.1-0.3,1.6-0.3c0,0,0.1,0,0.1,0c0.2,0,0.3,0,0.4-0.1c0.1,0,0.3,0,0.4,0
	c0,0,0,0,0,0c0.3,0,0.6-0.1,0.8-0.1c0,0,0.1,0,0.2,0c0.1,0,0.2,0,0.3,0c0,0,0,0,0,0c0.1,0,0.2,0,0.2,0h0c0.1,0,0.2,0,0.4,0
	c0.4,0,0.7,0,1.1,0c0.2,0,0.4,0,0.7,0c0.5,0,1,0.1,1.5,0.2c0.5,0.1,0.9,0.2,1.4,0.3c0.1,0,0.2,0,0.3,0.1c0.2,0,0.4,0.1,0.7,0.2
	c0.4,0.1,0.8,0.3,1.3,0.4c0.2,0,0.3,0.1,0.4,0.2c0.1,0,0.2,0,0.2,0.1c0.1,0,0.2,0.1,0.2,0.1c0.2,0.1,0.3,0.1,0.4,0.2
	c0.3,0.1,0.5,0.3,0.8,0.4c0.2,0.1,0.3,0.2,0.4,0.2c0.1,0.1,0.3,0.2,0.4,0.2c0.1,0.1,0.3,0.2,0.4,0.2c0.1,0.1,0.3,0.2,0.4,0.2
	c0.1,0.1,0.2,0.2,0.4,0.3c0.8,0.6,1.6,1.3,2.4,2c0.2,0.2,0.4,0.4,0.6,0.7c0.1,0.1,0.2,0.2,0.3,0.3c0.1,0.1,0.2,0.2,0.3,0.3
	C213,21.4,214.2,24.3,214.7,27.4z"/>
<linearGradient id="SVGID_00000036969230924361588770000012424709133251532436_" gradientUnits="userSpaceOnUse" x1="178.4455" y1="159.1424" x2="223.0365" y2="89.7214" gradientTransform="matrix(1 0 0 -1 0 162)">
	<stop  offset="0" style="stop-color:#90B0FF"/>
	<stop  offset="0.1375" style="stop-color:#89ABFD"/>
	<stop  offset="0.342" style="stop-color:#759EF7"/>
	<stop  offset="0.5882" style="stop-color:#5488EE"/>
	<stop  offset="0.8645" style="stop-color:#266AE2"/>
	<stop  offset="1" style="stop-color:#0D5ADB"/>
</linearGradient>
<path style="fill:url(#SVGID_00000036969230924361588770000012424709133251532436_);" d="M213.8,26.8c0.2,1.3,0.2,2.6,0,3.9
	c-0.1,1.1-0.3,2.1-0.6,3.1c-0.3,1.3-0.8,2.4-1.5,3.6c-0.2,0.4-0.5,0.8-0.7,1.2c-1.2,1.9-2.7,3.6-4.5,5c-1.8,1.5-4,2.6-6.3,3.3
	c-2.2,0.7-4.5,1-6.9,0.8c-0.3,0-0.5,0-0.8-0.1c-4.9-0.5-9-2.9-11.9-6.5c-2.1-3.1-3.1-6.9-2.8-10.9c0-0.3,0-0.5,0.1-0.8
	c0.7-6.2,4.4-11.4,9.5-14.4c3.2-1.9,7-2.8,10.9-2.5c2.7,0.2,5.3,1,7.5,2.2c2,1.1,3.8,2.6,5.2,4.4C212.6,21.3,213.5,23.9,213.8,26.8z
	"/>
<linearGradient id="SVGID_00000113320466292807437840000002047439545528962208_" gradientUnits="userSpaceOnUse" x1="204.1113" y1="145.8801" x2="199.0493" y2="134.4809" gradientTransform="matrix(1 0 0 -1 0 162)">
	<stop  offset="0" style="stop-color:#FFFFFF"/>
	<stop  offset="1" style="stop-color:#FFFFFF;stop-opacity:0.2"/>
</linearGradient>
<path style="opacity:0.5;fill:url(#SVGID_00000113320466292807437840000002047439545528962208_);enable-background:new    ;" d="
	M213.8,30.7c-0.3,2.4-1,4.7-2.1,6.7c-1.8-0.1-3.6-0.5-5.2-0.9c-8.3-2.3-15.1-8.6-17.9-17.1c-0.3-1-0.6-2.1-0.8-3.2
	c-0.1-0.4-0.2-0.8-0.2-1.2c3.2-1.9,7-2.8,10.9-2.5c2.7,0.2,5.3,1,7.5,2.2c2,1.1,3.8,2.6,5.2,4.4C213.2,22.3,214.3,26.4,213.8,30.7z"
	/>
<radialGradient id="SVGID_00000178891169393370381270000004969592236660541325_" cx="-174.3487" cy="455.4352" r="1.0007" gradientTransform="matrix(48.7522 0 0 -12.4791 8708.9404 5789.834)" gradientUnits="userSpaceOnUse">
	<stop  offset="0" style="stop-color:#2064E5;stop-opacity:0.4"/>
	<stop  offset="1" style="stop-color:#739AEF;stop-opacity:0"/>
</radialGradient>
<path style="fill:url(#SVGID_00000178891169393370381270000004969592236660541325_);" d="M142.3,102.3c0,0-1.8,1.3,5.6,3.7
	c7.4,2.4,47.3,15.1,55.8,14.7c8.5-0.5,74.5-11.1,72.2-17.5c-2.4-6.4-58.9-10.9-66.8-10.8C201.1,92.2,142.3,102.3,142.3,102.3z"/>
<path class="st36" d="M307.9,66.4l1.2,0.7l-1.2,0.6l-0.7,1.2l-0.6-1.2l-1.2-0.6l1.2-0.7l0.6-1.2L307.9,66.4z"/>
<path class="st36" d="M176.1,58.9l1.2,0.6l-1.2,0.7l-0.6,1.2l-0.7-1.2l-1.2-0.7l1.2-0.6l0.7-1.2L176.1,58.9z"/>
<radialGradient id="SVGID_00000083796521195781324990000018035619040998639524_" cx="-174.6463" cy="458.19" r="0.9993" gradientTransform="matrix(53.0769 0 0 -13.9839 9488.6387 6513.1431)" gradientUnits="userSpaceOnUse">
	<stop  offset="0" style="stop-color:#0D9032;stop-opacity:0.3"/>
	<stop  offset="0.779" style="stop-color:#3A676E;stop-opacity:6.628890e-02"/>
	<stop  offset="1" style="stop-color:#475B80;stop-opacity:0"/>
</radialGradient>
<path style="fill:url(#SVGID_00000083796521195781324990000018035619040998639524_);" d="M146.3,101.4c0,0-2,1.4,6.1,4
	c8,2.6,51.5,16.5,60.8,15.9c9.3-0.5,81.2-12.1,78.6-19.1c-2.6-7-64.1-11.8-72.8-11.8C210.3,90.5,146.3,101.4,146.3,101.4z"/>
<linearGradient id="SVGID_00000052068887505059211350000003632496421042461877_" gradientUnits="userSpaceOnUse" x1="246.4762" y1="165.089" x2="262.4091" y2="124.9108" gradientTransform="matrix(1 0 0 -1 0 162)">
	<stop  offset="0" style="stop-color:#687B99"/>
	<stop  offset="0.1381" style="stop-color:#5F738F"/>
	<stop  offset="0.6786" style="stop-color:#41576B"/>
	<stop  offset="0.9671" style="stop-color:#364C5D"/>
</linearGradient>
<path style="fill:url(#SVGID_00000052068887505059211350000003632496421042461877_);" d="M284.6,3.4l-11,26.5l-11.3,27l-1.1,2.7v0
	l-0.7,1.6c0,0,0,0,0,0l-0.8,1.8l-2.3,5.6l-0.1,0.2c-0.1,0.2-0.2,0.3-0.4,0.5c-0.1,0.1-0.3,0.1-0.4,0.1c0,0,0,0-0.1,0l-17.7-1.2
	l7.1-17l17.5-42l2.9-7.1c0.3-0.7,1-1.2,1.8-1.1c0,0,15.2,1,16.1,1.1c0,0,0,0,0.1,0c0.1,0,0.2,0.1,0.2,0.2c0,0,0,0,0.1,0.1
	c0,0,0,0,0,0.1c0,0,0,0,0,0.1c0,0,0,0.1,0,0.1c0,0,0,0.1,0,0.1C284.8,3,284.7,3.2,284.6,3.4z"/>
<linearGradient id="SVGID_00000093143806421618328690000009296780859123456428_" gradientUnits="userSpaceOnUse" x1="257.5115" y1="93.3877" x2="257.3395" y2="93.1301" gradientTransform="matrix(1 0 0 -1 0 162)">
	<stop  offset="0" style="stop-color:#475B80"/>
	<stop  offset="0.6559" style="stop-color:#2C3D51"/>
	<stop  offset="1" style="stop-color:#21313E"/>
</linearGradient>
<path style="fill:url(#SVGID_00000093143806421618328690000009296780859123456428_);" d="M257.4,68.7c0,0,0,0.1,0,0.1c0,0,0,0,0,0.1
	L257.4,68.7z"/>
<linearGradient id="SVGID_00000105384362286789591370000008664420880891637421_" gradientUnits="userSpaceOnUse" x1="251.3777" y1="97.2677" x2="251.9307" y2="97.9305" gradientTransform="matrix(1 0 0 -1 0 162)">
	<stop  offset="0" style="stop-color:#475B80"/>
	<stop  offset="0.6559" style="stop-color:#2C3D51"/>
	<stop  offset="1" style="stop-color:#21313E"/>
</linearGradient>
<path style="fill:url(#SVGID_00000105384362286789591370000008664420880891637421_);" d="M289.1,7.6l-26,65.7c0,0,0,0.1,0,0.1
	c-0.1,0.2-0.3,0.4-0.5,0.5l-1.3-1l-4.2-3.4l-0.6,0c0,0,0,0,0.1,0c0.2,0,0.3,0,0.4-0.1c0.2-0.1,0.3-0.3,0.4-0.5c0,0,0,0,0-0.1
	c0,0,0-0.1,0-0.1c0,0,0,0,0,0l2.3-5.6l0.8-1.8v0l0.7-1.6c0,0,0,0,0,0l1.1-2.7l22.3-53.5c0.1-0.2,0.1-0.5,0.1-0.7c0,0,0-0.1,0-0.1
	c0,0,0-0.1,0-0.1c0,0,0-0.1,0-0.1c0,0,0,0,0-0.1c0,0,0,0-0.1-0.1l4.1,3.4C289.2,6.2,289.4,6.9,289.1,7.6z"/>
<radialGradient id="SVGID_00000119804256609454840950000004910780317530254493_" cx="-154.9217" cy="445.6588" r="1.0001" gradientTransform="matrix(8.6421 0.6077 0.6068 -8.6295 1319.1141 4011.0317)" gradientUnits="userSpaceOnUse">
	<stop  offset="0" style="stop-color:#687B99"/>
	<stop  offset="0.5133" style="stop-color:#55688A"/>
	<stop  offset="1" style="stop-color:#475B80"/>
</radialGradient>
<path style="fill:url(#SVGID_00000119804256609454840950000004910780317530254493_);" d="M262.6,73.9c-0.1,0.1-0.3,0.1-0.4,0.1h-0.2
	l-4.2-0.3l-2-0.2l-7.5-0.7h-0.1l-1-0.1l-3.3-0.3l-5.1-4.2l18.3,1.3l4.2,3.4L262.6,73.9z"/>
<linearGradient id="SVGID_00000087380879954790385870000017895123398810938299_" gradientUnits="userSpaceOnUse" x1="267.7531" y1="59.1758" x2="225.858" y2="90.3279" gradientTransform="matrix(1 0 0 -1 0 162)">
	<stop  offset="0" style="stop-color:#8598B6"/>
	<stop  offset="0.2128" style="stop-color:#899CB9"/>
	<stop  offset="0.4407" style="stop-color:#96A7C1"/>
	<stop  offset="0.6757" style="stop-color:#ACBBCE"/>
	<stop  offset="0.9139" style="stop-color:#C9D6E1"/>
	<stop  offset="1" style="stop-color:#D6E1E9"/>
</linearGradient>
<path style="fill:url(#SVGID_00000087380879954790385870000017895123398810938299_);" d="M259.3,62.2c-0.8,1.1-1.7,2.1-2.6,2.9v0
	l-10,7.8l-36.1,28.5l-4.1,3.2c-0.1,0.1-0.2,0.1-0.3,0.2c-0.3,0-0.7-0.2-0.8-0.5l-0.1-0.2l-5.2-14.8l-0.1-0.3c-0.3-0.8,0-1.7,0.7-2.2
	l44-34.7c4.7-4.2,9.7-7.3,13.8-4.5c0,0,0,0,0,0c1.6,1.1,2.6,2.8,3.1,4.8C262.1,55.5,261.4,59.1,259.3,62.2z"/>
<linearGradient id="SVGID_00000101814652510273146790000002448552606991171998_" gradientUnits="userSpaceOnUse" x1="208.2694" y1="87.1757" x2="260.8458" y2="83.4677" gradientTransform="matrix(1 0 0 -1 0 162)">
	<stop  offset="0" style="stop-color:#475B80"/>
	<stop  offset="0.6559" style="stop-color:#2C3D51"/>
	<stop  offset="1" style="stop-color:#21313E"/>
</linearGradient>
<path style="opacity:0.4;fill:url(#SVGID_00000101814652510273146790000002448552606991171998_);enable-background:new    ;" d="
	M262.3,56.9l-2.6,6.2c-0.7,1-1.5,1.8-2.3,2.5v0l-4.6,3.6l-5.4,4.2l-36.1,28.5l-4.1,3.2c-0.4,0.3-0.9,0.2-1.1-0.3
	c0.1,0,0.3-0.1,0.3-0.2l4.1-3.2L246.7,73l5-3.9l5-3.9v0c1-0.8,1.9-1.8,2.6-2.9c2.1-3.1,2.8-6.7,2.2-9.6c-0.4-2-1.5-3.7-3.1-4.8
	c0.2,0.1,0.5,0.3,0.7,0.4c1.6,1.1,2.7,2.8,3.1,4.8C262.5,54.2,262.5,55.5,262.3,56.9z"/>
<linearGradient id="SVGID_00000034067916050349683710000009125548759200459175_" gradientUnits="userSpaceOnUse" x1="236.2409" y1="79.8098" x2="235.6249" y2="80.5855" gradientTransform="matrix(1 0 0 -1 0 162)">
	<stop  offset="0" style="stop-color:#8598B6"/>
	<stop  offset="0.1225" style="stop-color:#92A4BE"/>
	<stop  offset="0.5" style="stop-color:#B7C5D6"/>
	<stop  offset="0.8059" style="stop-color:#CEDAE4"/>
	<stop  offset="1" style="stop-color:#D6E1E9"/>
</linearGradient>
<path style="fill:url(#SVGID_00000034067916050349683710000009125548759200459175_);" d="M259.5,63c-0.8,1.1-1.7,2.1-2.6,2.9v0
	l-8.9,7l-1.1,0.9l-36.1,28.5l-0.3,0.2l-3.8,3c-0.2,0.2-0.5,0.2-0.7,0.1c-0.2-0.2-0.3-0.4-0.5-0.6c0,0,0,0,0,0l-0.2-0.4l-5.1-14.6
	c0-0.2-0.1-0.3-0.1-0.5l5.2,14.8l0.1,0.2c0.2,0.5,0.7,0.6,1.1,0.3l4.1-3.2l36.1-28.5l10-7.8v0c1-0.8,1.9-1.8,2.6-2.9
	c2.1-3.1,2.8-6.7,2.2-9.6C262.5,55.7,261.8,59.5,259.5,63z"/>
<linearGradient id="SVGID_00000016772733562708836420000017136387453325365632_" gradientUnits="userSpaceOnUse" x1="212.4482" y1="59.0583" x2="206.0482" y2="50.6643" gradientTransform="matrix(1 0 0 -1 0 162)">
	<stop  offset="0" style="stop-color:#8598B6"/>
	<stop  offset="0.3943" style="stop-color:#66799B"/>
	<stop  offset="0.7649" style="stop-color:#4F6387"/>
	<stop  offset="1" style="stop-color:#475B80"/>
</linearGradient>
<path style="fill:url(#SVGID_00000016772733562708836420000017136387453325365632_);" d="M212.1,109.2c-0.5,0-0.7-0.1-0.7-0.1
	s-4.3-2.6-5.3-3.5c0,0,0,0-0.1-0.1c0.2,0.1,0.5,0.1,0.7-0.1l3.8-3L212.1,109.2z"/>
<linearGradient id="SVGID_00000119801983172483919420000011417226527397092788_" gradientUnits="userSpaceOnUse" x1="237.6559" y1="56.199" x2="227.2969" y2="109.2991" gradientTransform="matrix(1 0 0 -1 0 162)">
	<stop  offset="0" style="stop-color:#7C889D"/>
	<stop  offset="0.1864" style="stop-color:#929EB0"/>
	<stop  offset="0.5363" style="stop-color:#B7C2CF"/>
	<stop  offset="0.82" style="stop-color:#CED9E2"/>
	<stop  offset="1" style="stop-color:#D6E1E9"/>
</linearGradient>
<path style="fill:url(#SVGID_00000119801983172483919420000011417226527397092788_);" d="M257.9,73.6c0,0-43.4,34.3-44.5,35.1
	c-0.5,0.3-0.9,0.5-1.3,0.5l-1.6-6.7l0.3-0.2L247,73.7l1.2-1L257.9,73.6z"/>
<rect x="245.7" y="49.9" class="st47" width="12.3" height="14.2"/>
<linearGradient id="SVGID_00000173121940229952183620000002680078886086371986_" gradientUnits="userSpaceOnUse" x1="223.1325" y1="80.5587" x2="269.8505" y2="120.4428" gradientTransform="matrix(1 0 0 -1 0 162)">
	<stop  offset="0" style="stop-color:#8598B6"/>
	<stop  offset="0.1225" style="stop-color:#92A4BE"/>
	<stop  offset="0.5" style="stop-color:#B7C5D6"/>
	<stop  offset="0.8059" style="stop-color:#CEDAE4"/>
	<stop  offset="1" style="stop-color:#D6E1E9"/>
</linearGradient>
<path style="fill:url(#SVGID_00000173121940229952183620000002680078886086371986_);" d="M256.6,58.8c-1.3,3.4-4.5,5.3-7.1,4.2
	c-2.6-1-3.6-4.6-2.3-8c1.3-3.4,4.5-5.3,7.1-4.2C256.9,51.9,257.9,55.4,256.6,58.8z"/>
<linearGradient id="SVGID_00000144307305901250475540000008807189097612447149_" gradientUnits="userSpaceOnUse" x1="273.6791" y1="155.2524" x2="268.6191" y2="143.4962" gradientTransform="matrix(1 0 0 -1 0 162)">
	<stop  offset="0" style="stop-color:#28394C"/>
	<stop  offset="0.7981" style="stop-color:#5F7398"/>
</linearGradient>
<path style="fill:url(#SVGID_00000144307305901250475540000008807189097612447149_);" d="M276.8,10.6c-0.8,2.6-3.6,4.6-6.2,4.5
	c-2.5-0.2-3.9-2.4-3.1-5.1c0.8-2.6,3.6-4.6,6.2-4.5C276.3,5.6,277.7,7.9,276.8,10.6z"/>
<linearGradient id="SVGID_00000130637491821761160100000001354103788935650206_" gradientUnits="userSpaceOnUse" x1="265.7712" y1="143.4158" x2="278.7912" y2="160.5421" gradientTransform="matrix(1 0 0 -1 0 162)">
	<stop  offset="0" style="stop-color:#556A81"/>
	<stop  offset="0.308" style="stop-color:#455B6F"/>
	<stop  offset="0.6534" style="stop-color:#3A5062"/>
	<stop  offset="0.9671" style="stop-color:#364C5D"/>
</linearGradient>
<path style="fill:url(#SVGID_00000130637491821761160100000001354103788935650206_);" d="M276.6,10.5c-0.8,2.5-3.4,4.4-5.9,4.3
	c-2.5-0.2-3.8-2.4-2.9-4.9c0.8-2.5,3.4-4.4,5.9-4.3S277.4,7.9,276.6,10.5z"/>
<linearGradient id="SVGID_00000145780835668775511740000012231747656625927581_" gradientUnits="userSpaceOnUse" x1="269.1032" y1="178.0567" x2="278.5772" y2="136.1528" gradientTransform="matrix(1 0 0 -1 0 162)">
	<stop  offset="0" style="stop-color:#FFFFFF;stop-opacity:0.1"/>
	<stop  offset="1" style="stop-color:#FFFFFF;stop-opacity:0"/>
</linearGradient>
<path style="fill:url(#SVGID_00000145780835668775511740000012231747656625927581_);" d="M284.6,3.4l-11,26.5L263.4,9.2l3-7.1
	c0.3-0.7,1-1.2,1.8-1.1c0,0,15.2,1,16.1,1.1c0,0,0,0,0.1,0c0.1,0,0.2,0.1,0.2,0.2c0,0,0,0,0.1,0.1c0,0,0,0,0,0.1c0,0,0,0,0,0.1
	c0,0,0,0.1,0,0.1c0,0,0,0.1,0,0.1C284.8,3,284.7,3.2,284.6,3.4z"/>
<linearGradient id="SVGID_00000021118174504335448620000017490949416546389384_" gradientUnits="userSpaceOnUse" x1="193.277" y1="124.5313" x2="198.948" y2="124.5313" gradientTransform="matrix(1 0 0 -1 0 162)">
	<stop  offset="0" style="stop-color:#2E3E69"/>
	<stop  offset="1" style="stop-color:#212F5D"/>
</linearGradient>
<path style="fill:url(#SVGID_00000021118174504335448620000017490949416546389384_);" d="M198.9,36.3l-1,1.1l-1.8,2l-1-0.9l-1.3-1.2
	l-0.7-0.7c0.8-0.8,1.9-1.2,3.1-1.2c0.4,0,0.8,0,1.2,0.2C198,35.7,198.5,36,198.9,36.3z"/>
<linearGradient id="SVGID_00000035516466708561119200000001141271533797614519_" gradientUnits="userSpaceOnUse" x1="189.407" y1="129.315" x2="202.514" y2="129.315" gradientTransform="matrix(1 0 0 -1 0 162)">
	<stop  offset="0" style="stop-color:#2E3E69"/>
	<stop  offset="1" style="stop-color:#212F5D"/>
</linearGradient>
<path style="fill:url(#SVGID_00000035516466708561119200000001141271533797614519_);" d="M202.5,32.2l-0.4,0.4l-2,2.3
	c-1.1-0.8-2.4-1.3-3.8-1.3c-1.6,0-3.1,0.7-4.3,1.8l-0.6-0.6l-1.3-1.2l-0.7-0.7c1.8-2,4.3-3.1,6.9-3.1c0.5,0,1,0,1.5,0.1
	C199.6,30.3,201.1,31.1,202.5,32.2z"/>
<linearGradient id="SVGID_00000174577633163565129380000002090709152858986894_" gradientUnits="userSpaceOnUse" x1="184.693" y1="134.5383" x2="206.806" y2="134.5383" gradientTransform="matrix(1 0 0 -1 0 162)">
	<stop  offset="0" style="stop-color:#2E3E69"/>
	<stop  offset="1" style="stop-color:#212F5D"/>
</linearGradient>
<path style="fill:url(#SVGID_00000174577633163565129380000002090709152858986894_);" d="M206.8,27.3l-0.2,0.3l-2.9,3.3
	c-2.1-1.8-4.6-2.8-7.3-2.8c-3.1,0-6.1,1.3-8.2,3.7l-1.5-1.4l-2-1.9c3-3.4,7.2-5.4,11.7-5.4C200.2,23.2,203.9,24.7,206.8,27.3z"/>
<path class="st55" d="M198,37.4l-1.8,2l-1-0.9C196,37.8,197,37.4,198,37.4z"/>
<path class="st55" d="M202.1,32.7l-2,2.3c-1.1-0.8-2.4-1.3-3.8-1.3c-1.6,0-3.1,0.7-4.3,1.8l-0.6-0.6c1.8-1.9,4.3-3,6.9-3
	C199.6,31.8,200.9,32.1,202.1,32.7z"/>
<path class="st55" d="M206.6,27.6l-2.9,3.3c-2.1-1.8-4.6-2.8-7.3-2.8c-3.1,0-6.1,1.3-8.2,3.7l-1.5-1.4c3-3.4,7.2-5.3,11.6-5.3
	C201.2,25.1,204.1,26,206.6,27.6z"/>
<linearGradient id="SVGID_00000168796973347212367350000005978579612065458818_" gradientUnits="userSpaceOnUse" x1="185.8758" y1="132.9147" x2="205.8298" y2="132.9147" gradientTransform="matrix(1 0 0 -1 0 162)">
	<stop  offset="0" style="stop-color:#2E3E69"/>
	<stop  offset="1" style="stop-color:#212F5D"/>
</linearGradient>
<path style="fill:url(#SVGID_00000168796973347212367350000005978579612065458818_);" d="M186.6,39.5c-0.2,0-0.4-0.1-0.5-0.2
	c-0.3-0.3-0.3-0.8,0-1.1l18.4-19.2c0.3-0.3,0.8-0.3,1.1,0c0.3,0.3,0.3,0.8,0,1.1l-18.4,19.2C187.1,39.4,186.8,39.5,186.6,39.5z"/>
<linearGradient id="SVGID_00000052093440799221622810000017302969593823852455_" gradientUnits="userSpaceOnUse" x1="221.1915" y1="88.7452" x2="217.1629" y2="77.6766" gradientTransform="matrix(0.9367 -0.1736 1.338974e-02 0.8856 12.4134 46.9943)">
	<stop  offset="1.154727e-02" style="stop-color:#8099A8;stop-opacity:0.5"/>
	<stop  offset="0.7872" style="stop-color:#A3B7C4;stop-opacity:0.4"/>
</linearGradient>
<path style="fill:url(#SVGID_00000052093440799221622810000017302969593823852455_);" d="M228.8,80.2l0.2,0.5l3.4-2.8l-0.9-2.4
	L231,76l0.7,1.8L228.8,80.2z M225.9,72.4l0.2,0.5l2.9-2.4l0.7,1.8l0.5-0.4l-0.9-2.4L225.9,72.4z M225.7,77.9l-0.4-1.2L226,76
	c0.4-0.3,0.6-0.3,0.7,0.1l0.1,0.2c0.1,0.4,0.1,0.6-0.3,0.9L225.7,77.9z M227,77.1c0.3-0.4,0.4-0.9,0.3-1.4c-0.1-0.3-0.3-0.4-0.5-0.5
	c-0.3,0-0.7,0.1-1.1,0.4l-1.1,0.9l1.3,3.6l0.5-0.4l-0.5-1.4l0.7-0.6c0.4-0.3,0.6-0.3,0.7,0.2l0.3,0.9l0.5-0.4l-0.3-0.8
	C227.6,77,227.4,76.9,227,77.1L227,77.1z M222.9,80.5l1.5-1.2l-0.2-0.5l-1.5,1.2l-0.4-1.1l1.6-1.3l-0.2-0.5l-2.1,1.7l1.3,3.6
	l2.2-1.8l-0.2-0.5l-1.7,1.4L222.9,80.5z M221.4,82l0.1,0.2c0.2,0.5,0.1,0.8-0.4,1.2l-0.1,0.1c-0.5,0.4-0.7,0.4-1-0.3l-0.4-1
	c-0.3-0.7-0.1-1.1,0.4-1.4l0.1-0.1c0.4-0.4,0.6-0.3,0.8,0.2l0.5-0.4c-0.3-0.7-0.9-0.8-1.6-0.2c-0.3,0.3-0.6,0.6-0.7,1
	c-0.2,0.6-0.2,1.2,0.1,1.9c0.3,0.7,0.6,1.1,1,1.2c0.3,0,0.6-0.1,0.9-0.3c0.3-0.2,0.5-0.6,0.5-1l0.1-0.1l0.1,0.3l0.4-0.4l-0.7-1.9
	l-1.3,1.1l0.2,0.5L221.4,82z M216.5,83.8l0.5-0.4c0.5-0.4,0.8-0.5,1.1,0.2l0.3,0.9c0.3,0.7,0,1.1-0.5,1.5l-0.5,0.4L216.5,83.8z
	 M218.2,86.4c0.9-0.8,1-1.8,0.6-2.8c-0.4-1.1-1-1.5-1.9-0.8l-1,0.8l1.3,3.6L218.2,86.4L218.2,86.4z M214.2,87.6l1.5-1.2l-0.2-0.5
	l-1.5,1.2l-0.4-1.1l1.6-1.3l-0.2-0.5L213,86l1.3,3.6l2.2-1.8l-0.2-0.5l-1.7,1.4L214.2,87.6z M210.6,87.9l-0.5,0.4l1.3,3.6l2.2-1.8
	l-0.2-0.5l-1.7,1.4L210.6,87.9z M208.1,94.7l0.9,2.4l3.4-2.8l-0.2-0.5l-2.9,2.4l-0.7-1.8L208.1,94.7z M205.9,88.7l0.9,2.4l0.5-0.4
	l-0.7-1.8l2.9-2.4l-0.2-0.5L205.9,88.7z"/>
</svg>
