<?xml version="1.0" encoding="utf-8"?>
<!-- Generator: Adobe Illustrator 26.0.3, SVG Export Plug-In . SVG Version: 6.00 Build 0)  -->
<svg version="1.1" id="Layer_1" xmlns="http://www.w3.org/2000/svg" xmlns:xlink="http://www.w3.org/1999/xlink" x="0px" y="0px"
	 viewBox="0 0 188 141" style="enable-background:new 0 0 188 141;" xml:space="preserve">
<style type="text/css">
	.st0{clip-path:url(#SVGID_00000054238629752718871580000012189745899108493215_);}
	
		.st1{fill:none;stroke:url(#SVGID_00000163753476763757628820000003664107210511044763_);stroke-width:3;stroke-linecap:round;stroke-linejoin:round;stroke-miterlimit:10;}
	
		.st2{fill:none;stroke:url(#SVGID_00000011752861460662806590000000138505100119347344_);stroke-width:3;stroke-linecap:round;stroke-linejoin:round;stroke-miterlimit:10;}
	
		.st3{fill:none;stroke:url(#SVGID_00000127727629900780468120000011567502158657533851_);stroke-width:3;stroke-linecap:round;stroke-linejoin:round;stroke-miterlimit:10;}
	
		.st4{fill:none;stroke:url(#SVGID_00000124873391308748447760000009966060712911842956_);stroke-width:3;stroke-linecap:round;stroke-linejoin:round;stroke-miterlimit:10;}
	
		.st5{fill:none;stroke:url(#SVGID_00000156564494800403244200000009087629432622835591_);stroke-width:3;stroke-linecap:round;stroke-linejoin:round;stroke-miterlimit:10;}
	
		.st6{fill:none;stroke:url(#SVGID_00000114051318394818897410000002129803446687810449_);stroke-width:3;stroke-linecap:round;stroke-linejoin:round;stroke-miterlimit:10;}
	
		.st7{fill:none;stroke:url(#SVGID_00000111155879213286926600000015192363012333812893_);stroke-width:3;stroke-linecap:round;stroke-linejoin:round;stroke-miterlimit:10;}
	.st8{fill:url(#SVGID_00000157299662557604051020000012234052692612371328_);}
	.st9{fill:url(#SVGID_00000031925040641224257170000002630195276827052674_);}
	.st10{fill:url(#SVGID_00000135679030195200822910000008329580664571134337_);}
	.st11{fill:url(#SVGID_00000175286231030649477460000004238890142670174363_);}
	.st12{fill:url(#SVGID_00000038372637731368377750000005396900225589718943_);}
	.st13{opacity:0.4;fill:url(#SVGID_00000062184958245521575680000016599214754145445792_);enable-background:new    ;}
	.st14{fill:url(#SVGID_00000049915310593589004480000009141974491116743349_);}
	.st15{fill:url(#SVGID_00000133531662111833941920000013929153749445363623_);}
	.st16{fill:url(#SVGID_00000017518205288550371530000005975996064475081403_);}
	.st17{fill:none;}
	.st18{fill:url(#SVGID_00000078034404826703438750000018383743302881836734_);}
	.st19{fill:url(#SVGID_00000015331240750279994990000003800081424080713609_);}
	.st20{fill:url(#SVGID_00000085214813692237562360000005310475037083927456_);}
	.st21{opacity:0.7;fill:url(#SVGID_00000120561076816670184140000013343221615040699522_);enable-background:new    ;}
	.st22{opacity:0.5;fill:url(#SVGID_00000061451018472399431330000006595988211624989090_);enable-background:new    ;}
	.st23{fill:url(#SVGID_00000137114925035057654080000001217350769013331390_);}
	.st24{fill:url(#SVGID_00000152980881867954020260000009633516183214217659_);}
	.st25{fill:url(#SVGID_00000180349241395427838490000012307017013908646550_);}
	.st26{fill:url(#SVGID_00000183208681283026186610000005502582509591178885_);}
	.st27{fill:url(#SVGID_00000127722821242666789930000009876470678581728916_);}
	.st28{fill:url(#SVGID_00000041264608400438550270000007712803953698574977_);}
	.st29{fill:url(#SVGID_00000044172193093848314800000008021554037353344666_);}
	.st30{fill:#475B80;}
	.st31{fill:#C6BCE2;}
	.st32{fill:url(#SVGID_00000028323339569627620670000002266656933815792275_);}
	.st33{fill:#B04B47;}
	.st34{fill:#FFFFFF;}
	.st35{fill:#7FAAF2;}
	.st36{fill:url(#SVGID_00000087401274779739473330000015518071549364868238_);}
	.st37{fill:url(#SVGID_00000012472783013794180480000012235794954215359662_);}
	.st38{fill:url(#SVGID_00000048482968866730655080000017593038530508925856_);}
	.st39{fill:url(#SVGID_00000106827926201123615600000015831035892668783262_);}
	.st40{fill:url(#SVGID_00000134957289641756283050000013004703029444997562_);}
	.st41{fill:#DDE9FD;}
	.st42{fill:url(#SVGID_00000157292767452155411780000000156940279599983800_);}
	.st43{fill:url(#SVGID_00000049216122130570358590000015957126965145050241_);}
	.st44{opacity:0.7;fill:url(#SVGID_00000037675184309445378080000012943846598809907590_);enable-background:new    ;}
	.st45{fill:url(#SVGID_00000114771062902085224300000002783287484682668680_);}
	.st46{opacity:0.5;fill:url(#SVGID_00000101821822756578330400000012690893519044912538_);enable-background:new    ;}
	.st47{fill:url(#SVGID_00000071522749340060366800000011151653346750505364_);}
</style>
<g>
	<g>
		<defs>
			<rect id="SVGID_1_" y="-4" width="188" height="145"/>
		</defs>
		<clipPath id="SVGID_00000042694289891421697210000013858737318864213157_">
			<use xlink:href="#SVGID_1_"  style="overflow:visible;"/>
		</clipPath>
		<g style="clip-path:url(#SVGID_00000042694289891421697210000013858737318864213157_);">
			
				<linearGradient id="SVGID_00000078021292749642647320000003737582231927455923_" gradientUnits="userSpaceOnUse" x1="144.4913" y1="724.9314" x2="170.0893" y2="760.9414" gradientTransform="matrix(1 0 0 1 0 -658)">
				<stop  offset="0" style="stop-color:#2E3E69"/>
				<stop  offset="1" style="stop-color:#212F5D"/>
			</linearGradient>
			
				<path style="fill:none;stroke:url(#SVGID_00000078021292749642647320000003737582231927455923_);stroke-width:3;stroke-linecap:round;stroke-linejoin:round;stroke-miterlimit:10;" d="
				M132,76.3c0,0,33.1,2.7,50.6,17.3"/>
			
				<linearGradient id="SVGID_00000063597091864167896690000009412325110279932327_" gradientUnits="userSpaceOnUse" x1="120.7929" y1="725.0294" x2="160.5869" y2="781.0085" gradientTransform="matrix(1 0 0 1 0 -658)">
				<stop  offset="0" style="stop-color:#2E3E69"/>
				<stop  offset="1" style="stop-color:#212F5D"/>
			</linearGradient>
			
				<path style="fill:none;stroke:url(#SVGID_00000063597091864167896690000009412325110279932327_);stroke-width:3;stroke-linecap:round;stroke-linejoin:round;stroke-miterlimit:10;" d="
				M102.6,80.5c0,0,56.8-0.1,76.2,29.1"/>
			
				<linearGradient id="SVGID_00000052064056392480682940000016494731793550329496_" gradientUnits="userSpaceOnUse" x1="97.2972" y1="730.5671" x2="142.3635" y2="793.9644" gradientTransform="matrix(1 0 0 1 0 -658)">
				<stop  offset="0" style="stop-color:#2E3E69"/>
				<stop  offset="1" style="stop-color:#212F5D"/>
			</linearGradient>
			
				<path style="fill:none;stroke:url(#SVGID_00000052064056392480682940000016494731793550329496_);stroke-width:3;stroke-linecap:round;stroke-linejoin:round;stroke-miterlimit:10;" d="
				M75.4,88.6c0,0,75.8-7.9,87.3,32.5"/>
			
				<linearGradient id="SVGID_00000013179433150546427360000009878560098709434258_" gradientUnits="userSpaceOnUse" x1="81.9826" y1="741.4535" x2="124.2103" y2="800.857" gradientTransform="matrix(1 0 0 1 0 -658)">
				<stop  offset="0" style="stop-color:#2E3E69"/>
				<stop  offset="1" style="stop-color:#212F5D"/>
			</linearGradient>
			
				<path style="fill:none;stroke:url(#SVGID_00000013179433150546427360000009878560098709434258_);stroke-width:3;stroke-linecap:round;stroke-linejoin:round;stroke-miterlimit:10;" d="
				M56.4,102.1c0,0,36.6-14,67.7-0.9c31.2,13.1,18.4,28.1,18.4,28.1"/>
			
				<linearGradient id="SVGID_00000013890593910232277210000001218743560032153745_" gradientUnits="userSpaceOnUse" x1="76.4755" y1="756.533" x2="107.0191" y2="799.4999" gradientTransform="matrix(1 0 0 1 0 -658)">
				<stop  offset="0" style="stop-color:#2E3E69"/>
				<stop  offset="1" style="stop-color:#212F5D"/>
			</linearGradient>
			
				<path style="fill:none;stroke:url(#SVGID_00000013890593910232277210000001218743560032153745_);stroke-width:3;stroke-linecap:round;stroke-linejoin:round;stroke-miterlimit:10;" d="
				M51,117.1c0,0,11.9-2.4,17.5-8.2c5.7-5.7,32.5-7.5,48.5-0.6c13.2,5.8,18.2,14.1-1.8,26.6"/>
			
				<linearGradient id="SVGID_00000169545993153758997630000014295763598543434914_" gradientUnits="userSpaceOnUse" x1="77.4496" y1="768.5652" x2="95.45" y2="793.8862" gradientTransform="matrix(1 0 0 1 0 -658)">
				<stop  offset="0" style="stop-color:#2E3E69"/>
				<stop  offset="1" style="stop-color:#212F5D"/>
			</linearGradient>
			
				<path style="fill:none;stroke:url(#SVGID_00000169545993153758997630000014295763598543434914_);stroke-width:3;stroke-linecap:round;stroke-linejoin:round;stroke-miterlimit:10;" d="
				M58.4,124.6c0,0,16.6-3.5,22.6-10.3c6-6.7,34-3.5,30.4,7c-3.5,10.5-26.7,15.2-26.7,15.2"/>
			
				<linearGradient id="SVGID_00000019669085479940209030000006219799374831434644_" gradientUnits="userSpaceOnUse" x1="80.7945" y1="781.8635" x2="83.574" y2="785.7736" gradientTransform="matrix(1 0 0 1 0 -658)">
				<stop  offset="0" style="stop-color:#2E3E69"/>
				<stop  offset="1" style="stop-color:#212F5D"/>
			</linearGradient>
			
				<path style="fill:none;stroke:url(#SVGID_00000019669085479940209030000006219799374831434644_);stroke-width:3;stroke-linecap:round;stroke-linejoin:round;stroke-miterlimit:10;" d="
				M94.1,119.5c0,0-5.5,5.8-24,12.4"/>
			
				<linearGradient id="SVGID_00000067930566262494851270000016135920252512956549_" gradientUnits="userSpaceOnUse" x1="84.1405" y1="669.0253" x2="87.3478" y2="712.9748" gradientTransform="matrix(1 0 0 1 0 -658)">
				<stop  offset="0" style="stop-color:#687B99"/>
				<stop  offset="0.1381" style="stop-color:#5F738F"/>
				<stop  offset="0.6786" style="stop-color:#41576B"/>
				<stop  offset="0.9671" style="stop-color:#364C5D"/>
			</linearGradient>
			<path style="fill:url(#SVGID_00000067930566262494851270000016135920252512956549_);" d="M116.5,27.8L83,73.8l-1.7,2.3l0,0
				l-1,1.4l0,0L79,79.1l-3.5,4.8l-0.1,0.2c-0.1,0.2-0.3,0.3-0.5,0.3c-0.1,0-0.3,0-0.4,0c0,0,0,0-0.1,0l-16.6-5.2l10.6-14.6
				l30.8-42.2c0.5-0.6,1.3-0.9,2-0.6c0,0,14.3,4.5,15.1,4.7c0,0,0,0,0.1,0c0.1,0.1,0.1,0.1,0.2,0.2v0.1c0,0,0,0,0,0.1V27v0.1v0.1
				C116.7,27.4,116.6,27.6,116.5,27.8z"/>
			
				<linearGradient id="SVGID_00000015331666697426295080000012505988683018181284_" gradientUnits="userSpaceOnUse" x1="75.5778" y1="741.8816" x2="75.3545" y2="742.0886" gradientTransform="matrix(1 0 0 1 0 -658)">
				<stop  offset="0" style="stop-color:#475B80"/>
				<stop  offset="0.6559" style="stop-color:#2C3D51"/>
				<stop  offset="1" style="stop-color:#21313E"/>
			</linearGradient>
			<path style="fill:url(#SVGID_00000015331666697426295080000012505988683018181284_);" d="M75.5,83.9C75.5,84,75.5,84,75.5,83.9
				c-0.1,0.1-0.1,0.1-0.1,0.2L75.5,83.9z"/>
			
				<linearGradient id="SVGID_00000105429187462180234870000004054088991494936461_" gradientUnits="userSpaceOnUse" x1="70.6483" y1="736.8367" x2="71.3278" y2="736.329" gradientTransform="matrix(1 0 0 1 0 -658)">
				<stop  offset="0" style="stop-color:#475B80"/>
				<stop  offset="0.6559" style="stop-color:#2C3D51"/>
				<stop  offset="1" style="stop-color:#21313E"/>
			</linearGradient>
			<path style="fill:url(#SVGID_00000105429187462180234870000004054088991494936461_);" d="M119.8,32.8L79.9,89.6
				c0,0,0,0.1-0.1,0.1c-0.2,0.2-0.4,0.3-0.6,0.4l-1-1.3L75,84.6l-0.6-0.2c0,0,0,0,0.1,0s0.3,0,0.4,0c0.2-0.1,0.4-0.2,0.5-0.3
				c0,0,0,0,0.1-0.1c0,0,0-0.1,0.1-0.1l0,0l3.5-4.8l1.2-1.6l0,0l1-1.4l0,0l1.7-2.3l33.5-46c0.1-0.2,0.2-0.4,0.2-0.6v-0.1V27v-0.1
				v-0.1v-0.1l3.2,4.2C120.2,31.5,120.2,32.3,119.8,32.8z"/>
			
				<radialGradient id="SVGID_00000146463207331863225400000007598075260212337322_" cx="-518.5081" cy="52.4091" r="1.0001" gradientTransform="matrix(8.1242 2.5498 -2.5434 8.1038 4414.2622 982.1118)" gradientUnits="userSpaceOnUse">
				<stop  offset="0" style="stop-color:#687B99"/>
				<stop  offset="0.5133" style="stop-color:#55688A"/>
				<stop  offset="1" style="stop-color:#475B80"/>
			</radialGradient>
			<path style="fill:url(#SVGID_00000146463207331863225400000007598075260212337322_);" d="M79.3,90.1c-0.1,0-0.3,0-0.4,0h-0.1
				l-3.9-1.3L73,88.2l-7-2.3h-0.1l-1-0.3l-3.1-1l-3.9-5.2L75,84.6l3.3,4.2L79.3,90.1z"/>
			
				<linearGradient id="SVGID_00000183968487884319964480000014342968743803368320_" gradientUnits="userSpaceOnUse" x1="77.5384" y1="776.9229" x2="44.6738" y2="737.5818" gradientTransform="matrix(1 0 0 1 0 -658)">
				<stop  offset="0" style="stop-color:#8598B6"/>
				<stop  offset="0.2128" style="stop-color:#899CB9"/>
				<stop  offset="0.4407" style="stop-color:#96A7C1"/>
				<stop  offset="0.6757" style="stop-color:#ACBBCE"/>
				<stop  offset="0.9139" style="stop-color:#C9D6E1"/>
				<stop  offset="1" style="stop-color:#D6E1E9"/>
			</linearGradient>
			<path style="fill:url(#SVGID_00000183968487884319964480000014342968743803368320_);" d="M78.8,78.2c-1,0.9-2.1,1.7-3.2,2.2l0,0
				l-11.3,5.2l-41.1,19l-4.7,2.1c-0.1,0.1-0.3,0.1-0.4,0.1c-0.3,0-0.6-0.3-0.6-0.6V106L16,90.7v-0.3c-0.1-0.8,0.4-1.6,1.1-2l50-23.1
				c5.5-2.9,10.9-4.7,14.2-1.2l0,0c1.3,1.4,1.9,3.3,1.9,5.3C83,72.4,81.5,75.7,78.8,78.2z"/>
			
				<linearGradient id="SVGID_00000114789156197330741770000007731720132874324377_" gradientUnits="userSpaceOnUse" x1="27.1316" y1="736.6041" x2="76.505" y2="752.1951" gradientTransform="matrix(1 0 0 1 0 -658)">
				<stop  offset="0" style="stop-color:#475B80"/>
				<stop  offset="0.6559" style="stop-color:#2C3D51"/>
				<stop  offset="1" style="stop-color:#21313E"/>
			</linearGradient>
			<path style="opacity:0.4;fill:url(#SVGID_00000114789156197330741770000007731720132874324377_);enable-background:new    ;" d="
				M82.9,73.8L79,79.1c-0.9,0.7-1.8,1.4-2.8,1.9l0,0L71,83.4l-6.2,2.8l-41.1,19l-4.7,2.1c-0.4,0.2-0.9-0.1-1-0.5
				c0.1,0,0.3,0,0.4-0.1l4.7-2.1l41.1-19l5.6-2.6l5.7-2.6l0,0c1.1-0.6,2.2-1.3,3.2-2.2c2.7-2.5,4.2-5.7,4.3-8.7c0-2-0.6-3.9-1.9-5.3
				c0.2,0.2,0.4,0.4,0.6,0.6c1.3,1.4,1.9,3.3,1.9,5.3C83.7,71.3,83.4,72.5,82.9,73.8z"/>
			
				<linearGradient id="SVGID_00000033348030274429413890000014747615516710955661_" gradientUnits="userSpaceOnUse" x1="52.115" y1="750.0367" x2="51.7046" y2="749.1555" gradientTransform="matrix(1 0 0 1 0 -658)">
				<stop  offset="0" style="stop-color:#8598B6"/>
				<stop  offset="0.1225" style="stop-color:#92A4BE"/>
				<stop  offset="0.5" style="stop-color:#B7C5D6"/>
				<stop  offset="0.8059" style="stop-color:#CEDAE4"/>
				<stop  offset="1" style="stop-color:#D6E1E9"/>
			</linearGradient>
			<path style="fill:url(#SVGID_00000033348030274429413890000014747615516710955661_);" d="M78.8,78.9c-1,0.9-2.1,1.7-3.2,2.2l0,0
				l-10,4.6l-1.3,0.6l-41.1,19l-0.4,0.2l-4.3,2c-0.3,0.1-0.5,0.1-0.7-0.1s-0.3-0.5-0.3-0.7l0,0v-0.4L16,91.2c0-0.2,0-0.3,0-0.5
				l1.6,15.3v0.2c0,0.5,0.6,0.7,1,0.6l4.7-2.1l41.1-19l11.3-5.2l0,0c1.1-0.6,2.2-1.3,3.2-2.2c2.7-2.5,4.2-5.7,4.3-8.7
				C83.3,72.6,81.8,76.2,78.8,78.9z"/>
			
				<linearGradient id="SVGID_00000155842711626364363100000000204917938283142551_" gradientUnits="userSpaceOnUse" x1="24.6358" y1="764.3867" x2="16.604" y2="770.9537" gradientTransform="matrix(1 0 0 1 0 -658)">
				<stop  offset="0" style="stop-color:#8598B6"/>
				<stop  offset="0.3943" style="stop-color:#66799B"/>
				<stop  offset="0.7649" style="stop-color:#4F6387"/>
				<stop  offset="1" style="stop-color:#475B80"/>
			</linearGradient>
			<path style="fill:url(#SVGID_00000155842711626364363100000000204917938283142551_);" d="M22.9,112.3c-0.5-0.1-0.7-0.3-0.7-0.3
				s-3.5-3.5-4.2-4.5c0,0,0-0.1-0.1-0.1c0.2,0.1,0.5,0.2,0.7,0.1l4.3-2L22.9,112.3z"/>
			
				<linearGradient id="SVGID_00000027569562951086192970000005019779230544562077_" gradientUnits="userSpaceOnUse" x1="48.1095" y1="772.8845" x2="50.3187" y2="719.8298" gradientTransform="matrix(1 0 0 1 0 -658)">
				<stop  offset="0" style="stop-color:#7C889D"/>
				<stop  offset="0.1864" style="stop-color:#929EB0"/>
				<stop  offset="0.5363" style="stop-color:#B7C2CF"/>
				<stop  offset="0.82" style="stop-color:#CED9E2"/>
				<stop  offset="1" style="stop-color:#D6E1E9"/>
			</linearGradient>
			<path style="fill:url(#SVGID_00000027569562951086192970000005019779230544562077_);" d="M74.8,88.7c0,0-49.3,22.8-50.6,23.4
				c-0.5,0.2-1,0.3-1.3,0.2v-6.8l0.4-0.2l41.1-19l1.4-0.6L74.8,88.7z"/>
			<rect x="66.6" y="64.6" class="st17" width="12.4" height="13.6"/>
			
				<linearGradient id="SVGID_00000173873654978308182160000003267047391206926224_" gradientUnits="userSpaceOnUse" x1="39.7927" y1="746.3193" x2="93.5668" y2="718.8365" gradientTransform="matrix(1 0 0 1 0 -658)">
				<stop  offset="0" style="stop-color:#8598B6"/>
				<stop  offset="0.1225" style="stop-color:#92A4BE"/>
				<stop  offset="0.5" style="stop-color:#B7C5D6"/>
				<stop  offset="0.8059" style="stop-color:#CEDAE4"/>
				<stop  offset="1" style="stop-color:#D6E1E9"/>
			</linearGradient>
			<path style="fill:url(#SVGID_00000173873654978308182160000003267047391206926224_);" d="M76.9,74.3c-2.1,2.9-5.5,4-7.8,2.4
				c-2.2-1.6-2.4-5.2-0.4-8.1c2.1-2.9,5.5-4,7.8-2.4C78.8,67.7,79,71.4,76.9,74.3z"/>
			
				<linearGradient id="SVGID_00000101082183810054612660000007227085889169527230_" gradientUnits="userSpaceOnUse" x1="105.1596" y1="686.4833" x2="97.649" y2="696.5671" gradientTransform="matrix(1 0 0 1 0 -658)">
				<stop  offset="0" style="stop-color:#28394C"/>
				<stop  offset="0.7981" style="stop-color:#5F7398"/>
			</linearGradient>
			<path style="fill:url(#SVGID_00000101082183810054612660000007227085889169527230_);" d="M107.3,32.8c-1.4,2.3-4.5,3.6-6.9,2.9
				c-2.4-0.7-3.2-3.2-1.8-5.6c1.4-2.3,4.5-3.6,6.9-2.9C108,28,108.7,30.5,107.3,32.8z"/>
			
				<linearGradient id="SVGID_00000052799628714890540250000016134446402539961507_" gradientUnits="userSpaceOnUse" x1="94.906" y1="695.972" x2="111.2542" y2="682.5638" gradientTransform="matrix(1 0 0 1 0 -658)">
				<stop  offset="0" style="stop-color:#556A81"/>
				<stop  offset="0.308" style="stop-color:#455B6F"/>
				<stop  offset="0.6534" style="stop-color:#3A5062"/>
				<stop  offset="0.9671" style="stop-color:#364C5D"/>
			</linearGradient>
			<path style="fill:url(#SVGID_00000052799628714890540250000016134446402539961507_);" d="M107.1,32.7c-1.4,2.2-4.3,3.4-6.6,2.7
				c-2.3-0.7-3-3.1-1.7-5.3s4.3-3.5,6.6-2.8C107.8,28.1,108.5,30.5,107.1,32.7z"/>
			
				<linearGradient id="SVGID_00000155140940844578131590000005274364262121156485_" gradientUnits="userSpaceOnUse" x1="4.5331" y1="699.1" x2="10.0212" y2="699.1" gradientTransform="matrix(1 0 0 1 0 -658)">
				<stop  offset="0" style="stop-color:#36B399"/>
				<stop  offset="1" style="stop-color:#77CA91"/>
			</linearGradient>
			<path style="opacity:0.7;fill:url(#SVGID_00000155140940844578131590000005274364262121156485_);enable-background:new    ;" d="
				M7.3,43.8c1.5,0,2.7-1.2,2.7-2.7s-1.2-2.7-2.7-2.7s-2.7,1.2-2.7,2.7C4.5,42.6,5.8,43.8,7.3,43.8z"/>
			
				<radialGradient id="SVGID_00000027575907148826634930000008194584268238177159_" cx="-432.5615" cy="191.9836" r="1" gradientTransform="matrix(3.4378 0 0 3.4274 1555.6184 -613.9648)" gradientUnits="userSpaceOnUse">
				<stop  offset="0" style="stop-color:#FFFFFF"/>
				<stop  offset="1" style="stop-color:#90B0FF"/>
			</radialGradient>
			<path style="opacity:0.5;fill:url(#SVGID_00000027575907148826634930000008194584268238177159_);enable-background:new    ;" d="
				M67.5,46.7c0.8,0,1.4-0.6,1.4-1.4c0-0.8-0.6-1.4-1.4-1.4s-1.4,0.6-1.4,1.4C66.1,46.1,66.7,46.7,67.5,46.7z"/>
			
				<linearGradient id="SVGID_00000145058649104627916910000014057907554281118609_" gradientUnits="userSpaceOnUse" x1="42.3818" y1="685.7119" x2="28.1199" y2="666.0679" gradientTransform="matrix(1 0 0 1 0 -658)">
				<stop  offset="0" style="stop-color:#DDE7FF"/>
				<stop  offset="0.1403" style="stop-color:#AEC1E9"/>
				<stop  offset="0.4607" style="stop-color:#90B0FF"/>
				<stop  offset="0.5599" style="stop-color:#6D99F5"/>
				<stop  offset="0.6958" style="stop-color:#447EEA"/>
				<stop  offset="0.8193" style="stop-color:#266AE2"/>
				<stop  offset="0.9248" style="stop-color:#145EDD"/>
				<stop  offset="1" style="stop-color:#0D5ADB"/>
			</linearGradient>
			<path style="fill:url(#SVGID_00000145058649104627916910000014057907554281118609_);" d="M23.5,25l3.8,2.1
				c13.5-3.1,20.6-7.7,23-9.6c0.6-0.5,0.9-0.7,1-0.8l-3.4-0.6l0,0l0.2,0.9v0.1l0,0v0.1c0.1,0.4-0.7,1-1.9,1.2c-0.1,0-0.2,0-0.3,0.1
				c-0.1,0-0.2,0-0.2,0h-0.1c-0.1,0-0.1,0-0.2,0c-0.1,0-0.2,0-0.3,0c-0.3,0-0.5,0-0.7-0.1S44,18.2,44,18.1l-0.3-1.4
				c-4.5,1.4-8.7,3-12,4.4l0.4,1.5c0,0,0.1,0.3,0.1,0.5v0.1l0,0c0,0,0,0,0,0.1c0,0,0,0,0,0.1l0,0c0,0,0,0,0,0.1c0,0,0,0-0.1,0.1
				c0,0,0,0-0.1,0.1l-0.1,0.1c0,0-0.1,0-0.1,0.1c0,0-0.1,0-0.1,0.1c0,0,0,0-0.1,0l0,0c0,0,0,0-0.1,0l0,0c0,0,0,0-0.1,0h-0.1
				l-0.1,0.1c-0.1,0.1-0.2,0.1-0.4,0.2h-0.1l0,0h-0.1c-0.1,0-0.2,0.1-0.3,0.1c-0.1,0-0.2,0.1-0.3,0.1c-0.1,0-0.2,0-0.2,0h-0.2h-0.1
				l0,0c-0.1,0-0.1,0-0.2,0h-0.1c-0.1,0-0.2,0-0.3,0c-0.1,0-0.2,0-0.3,0h-0.1h-0.1c-0.1,0-0.1,0-0.2,0h-0.1c0,0,0,0-0.1,0
				c0,0,0,0-0.1,0h-0.1c0,0,0,0-0.1,0s0,0-0.1,0c0,0,0,0-0.1,0l0,0l0,0l0,0l0,0c0,0,0,0,0-0.1l0,0c0,0-0.1-0.4-0.4-1.1
				C24.9,24.2,23.5,25,23.5,25z"/>
			
				<linearGradient id="SVGID_00000183960064080841910240000016721534410067695539_" gradientUnits="userSpaceOnUse" x1="56.1015" y1="690.954" x2="27.2536" y2="690.438" gradientTransform="matrix(1 0 0 1 0 -658)">
				<stop  offset="0" style="stop-color:#90B0FF"/>
				<stop  offset="0.1375" style="stop-color:#89ABFD"/>
				<stop  offset="0.342" style="stop-color:#759EF7"/>
				<stop  offset="0.5882" style="stop-color:#5488EE"/>
				<stop  offset="0.8645" style="stop-color:#266AE2"/>
				<stop  offset="1" style="stop-color:#0D5ADB"/>
			</linearGradient>
			<path style="fill:url(#SVGID_00000183960064080841910240000016721534410067695539_);" d="M27.3,27.1l5.2,21.6h0.1
				c16.9-4,23.3-10,23.3-10l-4.6-22c-0.2,0.2-0.5,0.5-1,0.8c-0.8,0.6-2,1.4-3.7,2.4C42.8,22.1,36.6,24.9,27.3,27.1z"/>
			
				<linearGradient id="SVGID_00000096057430790393636890000010850402573720482229_" gradientUnits="userSpaceOnUse" x1="15.0942" y1="704.7009" x2="38.6363" y2="686.7314" gradientTransform="matrix(1 0 0 1 0 -658)">
				<stop  offset="0" style="stop-color:#90B0FF"/>
				<stop  offset="0.1375" style="stop-color:#89ABFD"/>
				<stop  offset="0.342" style="stop-color:#759EF7"/>
				<stop  offset="0.5882" style="stop-color:#5488EE"/>
				<stop  offset="0.8645" style="stop-color:#266AE2"/>
				<stop  offset="1" style="stop-color:#0D5ADB"/>
			</linearGradient>
			<path style="fill:url(#SVGID_00000096057430790393636890000010850402573720482229_);" d="M23.5,25l5.2,21.4l3.8,2.3l-5.2-21.6
				L23.5,25z"/>
			
				<linearGradient id="SVGID_00000047739452477988933970000018036298050682947987_" gradientUnits="userSpaceOnUse" x1="32.0613" y1="682.4826" x2="27.7724" y2="681.3709" gradientTransform="matrix(1 0 0 1 0 -658)">
				<stop  offset="0" style="stop-color:#90B0FF"/>
				<stop  offset="0.1375" style="stop-color:#89ABFD"/>
				<stop  offset="0.342" style="stop-color:#759EF7"/>
				<stop  offset="0.5882" style="stop-color:#5488EE"/>
				<stop  offset="0.8645" style="stop-color:#266AE2"/>
				<stop  offset="1" style="stop-color:#0D5ADB"/>
			</linearGradient>
			<path style="fill:url(#SVGID_00000047739452477988933970000018036298050682947987_);" d="M27.5,24.4c0.1,0.5,1.3,0.6,2.6,0.3
				c1.3-0.3,2.3-0.9,2.2-1.4c0-0.2-0.1-0.1-0.1-0.1v0.1l0,0c0,0,0,0,0,0.1c0,0,0,0,0,0.1l0,0c0,0,0,0,0,0.1c0,0,0,0-0.1,0.1
				c0,0,0,0-0.1,0.1l-0.1,0.1L31.8,24l-0.1,0.1c0,0,0,0-0.1,0l0,0c0,0,0,0-0.1,0l0,0c0,0,0,0-0.1,0h-0.1l-0.1,0.1
				c-0.1,0.1-0.2,0.1-0.4,0.2h-0.1l0,0h-0.1c-0.1,0-0.2,0.1-0.3,0.1c-0.1,0-0.2,0.1-0.3,0.1c-0.1,0-0.2,0-0.2,0h-0.2h-0.1l0,0
				c-0.1,0-0.1,0-0.2,0h-0.1c-0.2,0-0.4,0-0.6,0h-0.1h-0.1c-0.1,0-0.1,0-0.2,0h-0.1c0,0,0,0-0.1,0c0,0,0,0-0.1,0h-0.1c0,0,0,0-0.1,0
				c0,0,0,0-0.1,0c0,0,0,0-0.1,0l0,0l0,0l0,0l0,0c0,0,0,0,0-0.1C27.5,24.4,27.5,24.4,27.5,24.4z"/>
			
				<linearGradient id="SVGID_00000170276647449398431940000004779683459027987092_" gradientUnits="userSpaceOnUse" x1="37.8446" y1="662.5398" x2="37.3783" y2="662.089" gradientTransform="matrix(1 0 0 1 0 -658)">
				<stop  offset="1.675520e-02" style="stop-color:#5D7480"/>
				<stop  offset="0.2953" style="stop-color:#879AB6"/>
				<stop  offset="1" style="stop-color:#C5CEFF"/>
			</linearGradient>
			<path style="fill:url(#SVGID_00000170276647449398431940000004779683459027987092_);" d="M37.4,4.3c0.2,0.1,0.4,0.1,0.6,0.2
				C37.8,4.4,37.6,4.4,37.4,4.3z"/>
			<rect x="24.6" y="-0.3" class="st17" width="23.8" height="25.3"/>
			
				<linearGradient id="SVGID_00000060020094895488307890000005207283362536520869_" gradientUnits="userSpaceOnUse" x1="48.0407" y1="676.2479" x2="44.2807" y2="675.2733" gradientTransform="matrix(1 0 0 1 0 -658)">
				<stop  offset="0" style="stop-color:#90B0FF"/>
				<stop  offset="0.1375" style="stop-color:#89ABFD"/>
				<stop  offset="0.342" style="stop-color:#759EF7"/>
				<stop  offset="0.5882" style="stop-color:#5488EE"/>
				<stop  offset="0.8645" style="stop-color:#266AE2"/>
				<stop  offset="1" style="stop-color:#0D5ADB"/>
			</linearGradient>
			<path style="fill:url(#SVGID_00000060020094895488307890000005207283362536520869_);" d="M44.1,18.2c0,0.2,0.2,0.3,0.4,0.3
				c0.4,0.1,1.1,0.1,1.9,0c1.2-0.3,2-0.8,1.9-1.2c0,0,0-0.1-0.1-0.2l0,0v0.1c0.1,0.4-0.7,1-1.9,1.2c-0.1,0-0.2,0-0.3,0.1
				c-0.1,0-0.2,0-0.2,0h-0.1c-0.1,0-0.1,0-0.2,0c-0.1,0-0.2,0-0.3,0c-0.3,0-0.5,0-0.7-0.1s-0.4-0.2-0.4-0.3
				C44.1,18.1,44.1,18.2,44.1,18.2z"/>
			
				<linearGradient id="SVGID_00000041297088126226204970000009117379937280592051_" gradientUnits="userSpaceOnUse" x1="44.9829" y1="691.6582" x2="40.6893" y2="691.5814" gradientTransform="matrix(1 0 0 1 0 -658)">
				<stop  offset="0" style="stop-color:#132534"/>
				<stop  offset="1" style="stop-color:#354249"/>
			</linearGradient>
			<path style="fill:url(#SVGID_00000041297088126226204970000009117379937280592051_);" d="M40.8,31.9c0.2,0.8,0.7,1.5,1.4,1.7
				l0.1,0.6l0.8,3.6l1.8-0.9L44,33.2c0.4-0.5,0.6-1.3,0.4-2c-0.1-0.4-0.3-0.7-0.5-1c-0.5-0.6-1.2-0.9-1.8-0.7
				c-0.7,0.2-1.2,0.8-1.3,1.5C40.7,31.2,40.7,31.6,40.8,31.9z"/>
			<path class="st30" d="M40.8,31.9c0.2,0.8,0.7,1.5,1.4,1.7l0.1,0.6l0.8,3.4l0.4-0.3l-0.8-3.6c0.6-0.4,0.9-1.2,0.7-2.1
				c0-0.2-0.1-0.4-0.2-0.6c-0.4-0.7-1.1-1.1-1.8-1c-0.5,0.1-0.4,0.3-0.6,0.8C40.7,31.2,40.7,31.6,40.8,31.9z"/>
			<path class="st31" d="M54.2,38.7c0.1,0,0.2-0.2,0.2-0.3c0-0.2-0.1-0.3-0.2-0.3c-0.1,0-0.2,0.2-0.2,0.3
				C54,38.6,54.1,38.7,54.2,38.7z"/>
			<path class="st31" d="M53.9,37.4c0.1,0,0.2-0.2,0.2-0.3c0-0.2-0.1-0.3-0.2-0.3c-0.1,0-0.2,0.2-0.2,0.3
				C53.7,37.3,53.8,37.4,53.9,37.4z"/>
			<path class="st31" d="M53.7,36c0.1,0,0.2-0.2,0.2-0.3c0-0.2-0.1-0.3-0.2-0.3c-0.1,0-0.2,0.2-0.2,0.3C53.5,35.9,53.6,36,53.7,36z"
				/>
			<path class="st31" d="M53.4,34.7c0.1,0,0.2-0.2,0.2-0.3c0-0.2-0.1-0.3-0.2-0.3c-0.1,0-0.2,0.2-0.2,0.3S53.3,34.7,53.4,34.7z"/>
			<path class="st31" d="M53.1,33.3c0.1,0,0.2-0.2,0.2-0.3c0-0.2-0.1-0.3-0.2-0.3c-0.1,0-0.2,0.2-0.2,0.3
				C52.9,33.2,53,33.3,53.1,33.3z"/>
			<path class="st31" d="M52.8,31.9c0.1,0,0.2-0.2,0.2-0.3c0-0.2-0.1-0.3-0.2-0.3s-0.2,0.2-0.2,0.3C52.6,31.8,52.7,31.9,52.8,31.9z"
				/>
			<path class="st31" d="M52.3,40.1c0.1,0,0.2-0.2,0.2-0.3c0-0.2-0.1-0.3-0.2-0.3c-0.1,0-0.2,0.2-0.2,0.3
				C52.1,39.9,52.2,40.1,52.3,40.1z"/>
			<path class="st31" d="M52,38.7c0.1,0,0.2-0.2,0.2-0.3c0-0.2-0.1-0.3-0.2-0.3c-0.1,0-0.2,0.2-0.2,0.3C51.8,38.6,51.9,38.7,52,38.7
				z"/>
			<path class="st31" d="M51.7,37.3c0.1,0,0.2-0.2,0.2-0.3c0-0.2-0.1-0.3-0.2-0.3c-0.1,0-0.2,0.2-0.2,0.3
				C51.5,37.2,51.6,37.3,51.7,37.3z"/>
			<path class="st31" d="M51.5,36c0.1,0,0.2-0.2,0.2-0.3c0-0.2-0.1-0.3-0.2-0.3c-0.1,0-0.2,0.2-0.2,0.3S51.4,36,51.5,36z"/>
			<path class="st31" d="M50.4,41.1c0.1,0,0.2-0.2,0.2-0.3c0-0.2-0.1-0.3-0.2-0.3c-0.1,0-0.2,0.2-0.2,0.3
				C50.2,41,50.3,41.1,50.4,41.1z"/>
			<path class="st31" d="M50.1,39.8c0.1,0,0.2-0.2,0.2-0.3c0-0.2-0.1-0.3-0.2-0.3c-0.1,0-0.2,0.2-0.2,0.3
				C49.9,39.7,50,39.8,50.1,39.8z"/>
			<path class="st31" d="M48.5,42c0.1,0,0.2-0.2,0.2-0.3c0-0.2-0.1-0.3-0.2-0.3c-0.1,0-0.2,0.2-0.2,0.3C48.3,41.9,48.4,42,48.5,42z"
				/>
			<path class="st31" d="M48.2,40.7c0.1,0,0.2-0.2,0.2-0.3c0-0.2-0.1-0.3-0.2-0.3c-0.1,0-0.2,0.2-0.2,0.3S48.1,40.7,48.2,40.7z"/>
			<path class="st31" d="M47.9,39.3c0.1,0,0.2-0.2,0.2-0.3c0-0.2-0.1-0.3-0.2-0.3c-0.1,0-0.2,0.2-0.2,0.3
				C47.7,39.2,47.8,39.3,47.9,39.3z"/>
			<path class="st31" d="M47.6,37.9c0.1,0,0.2-0.2,0.2-0.3c0-0.2-0.1-0.3-0.2-0.3c-0.1,0-0.2,0.2-0.2,0.3
				C47.4,37.8,47.5,37.9,47.6,37.9z"/>
			<path class="st31" d="M47.3,36.6c0.1,0,0.2-0.2,0.2-0.3c0-0.2-0.1-0.3-0.2-0.3c-0.1,0-0.2,0.2-0.2,0.3
				C47.1,36.4,47.2,36.6,47.3,36.6z"/>
			<path class="st31" d="M46.5,42.9c0.1,0,0.2-0.2,0.2-0.3c0-0.2-0.1-0.3-0.2-0.3c-0.1,0-0.2,0.2-0.2,0.3
				C46.3,42.8,46.4,42.9,46.5,42.9z"/>
			<path class="st31" d="M46.3,41.5c0.1,0,0.2-0.2,0.2-0.3c0-0.2-0.1-0.3-0.2-0.3c-0.1,0-0.2,0.2-0.2,0.3
				C46,41.4,46.1,41.6,46.3,41.5z"/>
			<path class="st31" d="M46,40.2c0.1,0,0.2-0.2,0.2-0.3c0-0.2-0.1-0.3-0.2-0.3c-0.1,0-0.2,0.2-0.2,0.3S45.9,40.2,46,40.2z"/>
			<path class="st31" d="M45.7,38.8c0.1,0,0.2-0.2,0.2-0.3c0-0.2-0.1-0.3-0.2-0.3c-0.1,0-0.2,0.2-0.2,0.3
				C45.5,38.7,45.6,38.9,45.7,38.8z"/>
			<path class="st31" d="M44.6,43.8c0.1,0,0.2-0.2,0.2-0.3c0-0.2-0.1-0.3-0.2-0.3c-0.1,0-0.2,0.2-0.2,0.3
				C44.4,43.6,44.5,43.8,44.6,43.8z"/>
			<path class="st31" d="M44.3,42.5c0.1,0,0.2-0.2,0.2-0.3c0-0.2-0.1-0.3-0.2-0.3c-0.1,0-0.2,0.2-0.2,0.3S44.2,42.5,44.3,42.5z"/>
			<path class="st31" d="M44,41.1c0.1,0,0.2-0.2,0.2-0.3c0-0.2-0.1-0.3-0.2-0.3c-0.1,0-0.2,0.2-0.2,0.3C43.8,41,43.9,41.1,44,41.1z"
				/>
			<path class="st31" d="M42.7,44.5c0.1,0,0.2-0.2,0.2-0.3c0-0.2-0.1-0.3-0.2-0.3c-0.1,0-0.2,0.2-0.2,0.3S42.6,44.5,42.7,44.5z"/>
			<path class="st31" d="M42.4,43.1c0.1,0,0.2-0.2,0.2-0.3c0-0.2-0.1-0.3-0.2-0.3c-0.1,0-0.2,0.2-0.2,0.3
				C42.2,43,42.3,43.1,42.4,43.1z"/>
			<path class="st31" d="M40.8,45c0.1,0,0.2-0.2,0.2-0.3c0-0.2-0.1-0.3-0.2-0.3c-0.1,0-0.2,0.2-0.2,0.3S40.7,45,40.8,45z"/>
			<path class="st31" d="M40.5,43.6c0.1,0,0.2-0.2,0.2-0.3c0-0.2-0.1-0.3-0.2-0.3c-0.1,0-0.2,0.2-0.2,0.3
				C40.3,43.5,40.4,43.6,40.5,43.6z"/>
			<path class="st31" d="M40.2,42.2c0.1,0,0.2-0.2,0.2-0.3c0-0.2-0.1-0.3-0.2-0.3c-0.1,0-0.2,0.2-0.2,0.3
				C40,42.1,40.1,42.2,40.2,42.2z"/>
			<path class="st31" d="M39.9,40.9c0.1,0,0.2-0.2,0.2-0.3c0-0.2-0.1-0.3-0.2-0.3c-0.1,0-0.2,0.2-0.2,0.3S39.8,40.9,39.9,40.9z"/>
			<path class="st31" d="M39.6,39.5c0.1,0,0.2-0.2,0.2-0.3c0-0.2-0.1-0.3-0.2-0.3c-0.1,0-0.2,0.2-0.2,0.3
				C39.4,39.4,39.5,39.5,39.6,39.5z"/>
			<path class="st31" d="M38.9,45.6c0.1,0,0.2-0.2,0.2-0.3c0-0.2-0.1-0.3-0.2-0.3c-0.1,0-0.2,0.2-0.2,0.3
				C38.7,45.5,38.8,45.6,38.9,45.6z"/>
			<path class="st31" d="M38.6,44.3c0.1,0,0.2-0.2,0.2-0.3c0-0.2-0.1-0.3-0.2-0.3c-0.1,0-0.2,0.2-0.2,0.3
				C38.4,44.1,38.5,44.3,38.6,44.3z"/>
			<path class="st31" d="M38.3,42.9c0.1,0,0.2-0.2,0.2-0.3c0-0.2-0.1-0.3-0.2-0.3c-0.1,0-0.2,0.2-0.2,0.3
				C38.1,42.8,38.2,42.9,38.3,42.9z"/>
			<path class="st31" d="M38,41.5c0.1,0,0.2-0.2,0.2-0.3c0-0.2-0.1-0.3-0.2-0.3c-0.1,0-0.2,0.2-0.2,0.3C37.8,41.4,37.9,41.6,38,41.5
				z"/>
			<path class="st31" d="M37.7,40.2c0.1,0,0.2-0.2,0.2-0.3c0-0.2-0.1-0.3-0.2-0.3c-0.1,0-0.2,0.2-0.2,0.3S37.6,40.2,37.7,40.2z"/>
			<path class="st31" d="M37.5,38.8c0.1,0,0.2-0.2,0.2-0.3c0-0.2-0.1-0.3-0.2-0.3c-0.1,0-0.2,0.2-0.2,0.3
				C37.3,38.7,37.4,38.8,37.5,38.8z"/>
			<path class="st31" d="M36.9,46.1c0.1,0,0.2-0.2,0.2-0.3c0-0.2-0.1-0.3-0.2-0.3c-0.1,0-0.2,0.2-0.2,0.3
				C36.7,46,36.8,46.1,36.9,46.1z"/>
			<path class="st31" d="M36.7,44.7c0.1,0,0.2-0.2,0.2-0.3c0-0.2-0.1-0.3-0.2-0.3c-0.1,0-0.2,0.2-0.2,0.3
				C36.5,44.6,36.6,44.7,36.7,44.7z"/>
			<path class="st31" d="M34.8,46.8c0.1,0,0.2-0.2,0.2-0.3c0-0.2-0.1-0.3-0.2-0.3c-0.1,0-0.2,0.2-0.2,0.3S34.7,46.8,34.8,46.8z"/>
			<path class="st31" d="M34.5,45.4c0.1,0,0.2-0.2,0.2-0.3c0-0.2-0.1-0.3-0.2-0.3c-0.1,0-0.2,0.2-0.2,0.3
				C34.3,45.3,34.4,45.4,34.5,45.4z"/>
			<path class="st31" d="M34.3,44c0.1,0,0.2-0.2,0.2-0.3c0-0.2-0.1-0.3-0.2-0.3c-0.1,0-0.2,0.2-0.2,0.3C34.1,43.9,34.2,44,34.3,44z"
				/>
			<path class="st31" d="M34,42.7c0.1,0,0.2-0.2,0.2-0.3c0-0.2-0.1-0.3-0.2-0.3c-0.1,0-0.2,0.2-0.2,0.3S33.9,42.7,34,42.7z"/>
			
				<linearGradient id="SVGID_00000052074029743160677550000004007522615355453575_" gradientUnits="userSpaceOnUse" x1="94.7243" y1="655.4752" x2="145.8572" y2="713.8941" gradientTransform="matrix(1 0 0 1 0 -658)">
				<stop  offset="0" style="stop-color:#8598B6"/>
				<stop  offset="0.2128" style="stop-color:#899CB9"/>
				<stop  offset="0.4407" style="stop-color:#96A7C1"/>
				<stop  offset="0.6757" style="stop-color:#ACBBCE"/>
				<stop  offset="0.9139" style="stop-color:#C9D6E1"/>
				<stop  offset="1" style="stop-color:#D6E1E9"/>
			</linearGradient>
			<path style="fill:url(#SVGID_00000052074029743160677550000004007522615355453575_);" d="M147.5,43.7c-0.3,0.7-0.7,1.3-1.1,1.9
				c-0.3,0.5-0.7,0.9-1.1,1.4c0.1-0.1,0-0.2,0.1-0.3s0.1-0.3,0-0.4c0.1-0.6,0.1-1.3,0.2-1.9c0-0.3,0-0.6,0-0.8s0-0.5,0-0.7
				c0-0.1,0-0.1,0-0.1c-0.1-1-0.2-1.9-0.4-2.9c-0.1-0.6-0.3-1.3-0.5-1.9c-0.1-0.3-0.2-0.6-0.4-1c0-0.1-0.1-0.2-0.1-0.3v-0.1v-0.1
				c0-0.1,0-0.1-0.1-0.2c-0.1-0.4-0.4-0.8-0.5-1.3c-0.1-0.3-0.2-0.5-0.4-0.8c-0.1-0.2-0.2-0.4-0.3-0.6c-0.1-0.2-0.1-0.3-0.3-0.5
				c-0.4-0.8-0.8-1.6-1.3-2.3c-0.1-0.3-0.3-0.5-0.5-0.8s-0.4-0.6-0.6-0.8c-0.2-0.3-0.4-0.5-0.6-0.8c-0.1-0.2-0.3-0.3-0.4-0.5
				c-0.3-0.3-0.5-0.6-0.8-1c-0.3-0.3-0.6-0.7-0.8-1s-0.5-0.6-0.7-0.8c-0.4-0.5-0.7-0.8-1.2-1.2c-0.2-0.2-0.3-0.4-0.5-0.5
				c-0.1-0.1-0.1-0.1-0.2-0.3c-0.1-0.1-0.2-0.3-0.3-0.4c-0.2-0.3-0.4-0.4-0.7-0.6c-0.1-0.1-0.2-0.2-0.3-0.3
				c-0.2-0.3-0.4-0.4-0.7-0.6c-0.1-0.1-0.3-0.3-0.4-0.4c-0.2-0.2-0.3-0.3-0.5-0.5c-0.1-0.1-0.3-0.3-0.5-0.4c-0.1,0-0.1-0.1-0.2-0.2
				c-0.1-0.1-0.3-0.2-0.5-0.4c-0.1-0.1-0.3-0.2-0.5-0.4c-0.3-0.2-0.5-0.4-0.7-0.6c-0.1-0.1-0.2-0.2-0.3-0.2
				c-0.3-0.2-0.6-0.4-0.8-0.6c-0.9-0.6-1.8-1.2-2.7-1.8c-0.2-0.2-0.4-0.3-0.7-0.4c-0.2-0.2-0.4-0.3-0.7-0.4c-0.9-0.5-1.7-1-2.6-1.4
				c-0.4-0.2-0.7-0.4-1.1-0.5c-0.5-0.2-0.9-0.5-1.4-0.6c-0.2-0.1-0.3-0.1-0.5-0.2c-0.1,0-0.1,0-0.1-0.1c-0.3-0.2-0.7-0.3-1-0.4
				c-0.3-0.2-0.7-0.3-1.1-0.5c-0.6-0.2-1.2-0.4-1.8-0.6c-0.3-0.1-0.5-0.2-0.8-0.3c-0.1,0-0.1-0.1-0.2-0.1c-0.4-0.1-0.7-0.2-1-0.3
				c-0.2-0.1-0.4-0.1-0.5-0.2c-0.4-0.1-0.8-0.2-1.2-0.4c-0.2,0-0.4-0.1-0.6-0.1c-0.3-0.1-0.6-0.1-0.8-0.2c-0.2,0-0.3-0.1-0.5-0.1
				c-0.3-0.1-0.5-0.1-0.7-0.2c-0.2,0-0.5-0.1-0.7-0.1s-0.4-0.1-0.6-0.1c-0.3-0.1-0.5-0.1-0.7-0.1c-0.4,0-0.7-0.2-1.1-0.2
				c-0.3-0.1-0.6-0.1-0.8-0.1c-0.1,0-0.3-0.1-0.4,0c-0.2,0-0.3,0-0.5,0c-0.3-0.1-0.5,0-0.8,0S102.3,8,102,8c-0.5,0-1-0.1-1.5,0
				c-0.4,0-0.9,0-1.3,0s-0.9,0-1.3,0.1c-0.3,0-0.5,0-0.8,0c-0.1,0-0.1,0-0.2,0c-0.4,0-0.7,0.1-1.1,0.1c-0.5,0.1-0.9,0.1-1.4,0.2
				c-0.3,0.1-0.7,0.1-1,0.2c-0.4,0.1-0.8,0.2-1.1,0.2c-0.5,0.1-0.9,0.3-1.3,0.4c-0.3,0.1-0.5,0.2-0.7,0.3S90,9.6,89.8,9.7
				c-0.3,0.1-0.4,0.2-0.7,0.2c-0.5,0.2-0.9,0.4-1.4,0.6c-0.4,0.2-0.8,0.4-1.2,0.6c-0.1,0.1-0.2,0.1-0.3,0.2
				c-0.3,0.2-0.6,0.4-0.8,0.6c-0.1,0-0.1,0.1-0.2,0.2c-0.1,0-0.1,0.1-0.2,0.2c-0.1,0.1-0.3,0.2-0.4,0.3s-0.3,0.2-0.4,0.3
				c-0.5,0.4-0.9,0.8-1.4,1.3c-0.1,0.1-0.2,0.2-0.3,0.3c-0.1,0.1-0.1,0.1-0.2,0.3c0.1-0.5,0.2-1,0.3-1.4c0.2-0.8,0.5-1.5,0.9-2.3
				c0.4-0.7,0.8-1.5,1.2-2.1c6.8-9.6,24.1-10.8,40.6-2.4c16.4,8.4,26,23.5,22.8,34.9C148.2,42.1,147.9,42.9,147.5,43.7z"/>
			<path class="st33" d="M143.8,37.5L143.8,37.5C143.8,37.4,143.8,37.4,143.8,37.5z"/>
			<path class="st34" d="M143.8,37.5L143.8,37.5C143.8,37.4,143.8,37.4,143.8,37.5z"/>
			<path class="st34" d="M145.4,46.9c-0.4,0.5-0.8,0.9-1.3,1.4c-7.8,7.2-23.5,7.5-38.3-0.1c-3.6-1.9-6.8-4-9.6-6.4
				C88.7,35.7,83.8,28.1,82.7,21c-0.3-1.5-0.3-2.9-0.2-4.3c0-0.6,0.2-1.4,0.3-2c0.1-0.1,0.1-0.1,0.2-0.3c0.1-0.1,0.2-0.2,0.3-0.3
				c-0.2,0.4-0.3,0.8-0.4,1.2c-0.2,1.6-0.2,3.3,0.1,5c1.1,7.1,6,14.6,13.4,20.8c2.8,2.4,6.1,4.4,9.6,6.4c15.2,7.8,31.2,7.4,38.8-0.4
				c0.2-0.3,0.4-0.6,0.6-1c0,0.1-0.1,0.3,0,0.4C145.4,46.7,145.5,46.8,145.4,46.9z"/>
			<path class="st35" d="M146.7,45l-0.3,0.6c-0.3,0.5-0.7,0.9-1.1,1.4c-0.4,0.5-0.8,0.9-1.3,1.4c-7.8,7.2-23.5,7.5-38.3-0.1
				c-3.6-1.8-6.8-4-9.6-6.4C88.7,35.7,83.8,28.1,82.7,21c-0.3-1.5-0.3-2.9-0.2-4.3c0-0.6,0.2-1.4,0.3-2c0.1-0.5,0.2-1,0.3-1.4
				l0.3-0.6c-0.2,0.5-0.3,1-0.3,1.4c-0.1,0.1,0,0.2-0.1,0.3c-0.1,0.3-0.1,0.6-0.2,0.9c-0.2,1.6-0.2,3.3,0.1,5
				c1.1,7.1,6,14.6,13.4,20.8c2.8,2.4,6.1,4.4,9.6,6.4c15.2,7.8,31.2,7.4,38.8-0.4c0.2-0.2,0.4-0.4,0.6-0.6c0.1-0.1,0.1-0.1,0.2-0.3
				C146,45.9,146.4,45.5,146.7,45z"/>
			
				<linearGradient id="SVGID_00000155129697937998889840000004336182067095469452_" gradientUnits="userSpaceOnUse" x1="123.8606" y1="723.6796" x2="134.0696" y2="717.8278" gradientTransform="matrix(1 0 0 1 0 -658)">
				<stop  offset="0" style="stop-color:#3DB39A"/>
				<stop  offset="0.1071" style="stop-color:#41C9B1"/>
				<stop  offset="1" style="stop-color:#7ACA94"/>
			</linearGradient>
			<path style="fill:url(#SVGID_00000155129697937998889840000004336182067095469452_);" d="M137.8,65.9c-0.8-0.2-1.6-0.3-2.3-0.3
				c-4.1,0.2-5.7,4.2-6,5.1l-1.9-3l-0.1-0.1l-3.4-5.3c-0.2-0.6-0.3-1.1-0.3-1.6c-0.1-1,0.2-1.9,0.6-2.7c0.5-1,1.4-1.7,2.3-2.2
				c0.8-0.4,1.7-0.6,2.4-0.6c0.9,0,1.6,0.3,2,0.8c0.2,0.3,0.5,0.6,0.7,0.9c0.5,0.7,1,1.6,1.6,2.4c0.7,1.1,1.6,2.3,2.4,3.6
				c0,0,0,0.1,0.1,0.1C136.6,64,137.2,64.9,137.8,65.9z"/>
			
				<linearGradient id="SVGID_00000003063679741260577320000015411997567299279255_" gradientUnits="userSpaceOnUse" x1="143.547" y1="752.5228" x2="152.9491" y2="746.4061" gradientTransform="matrix(1 0 0 1 0 -658)">
				<stop  offset="0" style="stop-color:#3DB39A"/>
				<stop  offset="0.1071" style="stop-color:#41C9B1"/>
				<stop  offset="1" style="stop-color:#7ACA94"/>
			</linearGradient>
			<path style="fill:url(#SVGID_00000003063679741260577320000015411997567299279255_);" d="M167.2,111.7
				C167.2,111.7,167.1,111.7,167.2,111.7c-0.8-0.4-2-0.4-3.2,0.1c-1,0.4-2.1,1-3.1,1.8c-1.4,1.3-2.1,2.7-1.8,3.6
				c-0.1-0.1-0.2-0.2-0.3-0.3l-0.1-0.2l-0.1-0.2l-0.1-0.1l-27.8-43.8l-0.1-0.2c0-0.1,0.1-0.2,0.1-0.3c0,0,0-0.1,0.1-0.1
				c0.1-0.2,0.2-0.4,0.3-0.6c0-0.1,0.1-0.1,0.1-0.2c0,0,0,0,0-0.1s0.1-0.2,0.1-0.3c0.3-0.4,0.6-0.9,0.9-1.3c0.1-0.1,0.2-0.2,0.3-0.3
				c0.2-0.2,0.5-0.5,0.7-0.7c0.1-0.1,0.2-0.2,0.3-0.2c0.1-0.1,0.2-0.1,0.4-0.2c0.1-0.1,0.2-0.1,0.4-0.2c0,0,0.1,0,0.1-0.1
				c0,0,0.1,0,0.1-0.1c0.1,0,0.2-0.1,0.3-0.1c0.3-0.1,0.6-0.2,0.9-0.2c0.1,0,0.2,0,0.3-0.1c0.1,0,0.2,0,0.3,0s0.2,0,0.2,0
				c0.6,0,1.1,0,1.8,0.2c0.2,0,0.4,0.1,0.6,0.1c0,0,0,0.1,0.1,0.1c10.5,15.9,24.2,37.3,27.8,42.9c0,0.1,0,0,0,0.1
				C167.1,111.1,167.2,111.4,167.2,111.7z"/>
			
				<linearGradient id="SVGID_00000016760407566240721640000009996003416197147824_" gradientUnits="userSpaceOnUse" x1="158.5056" y1="771.8521" x2="167.1626" y2="771.8521" gradientTransform="matrix(1 0 0 1 0 -658)">
				<stop  offset="0" style="stop-color:#36B399"/>
				<stop  offset="1" style="stop-color:#22807A"/>
			</linearGradient>
			<path style="fill:url(#SVGID_00000016760407566240721640000009996003416197147824_);" d="M165.5,115c-1.9,2-4.6,3-6.1,2.4
				c-0.1-0.1-0.2-0.1-0.3-0.1l0,0c-0.1-0.1-0.2-0.2-0.3-0.3c-0.1,0,0-0.1-0.1-0.1c0,0-0.1,0,0-0.1c0-0.1-0.1-0.1-0.1-0.2
				c-0.4-0.9,0.2-2.4,1.6-3.9c0.9-0.9,2-1.7,3.1-2.1c1.1-0.5,2.2-0.6,3-0.3c0.2,0.1,0.5,0.4,0.7,0.6c0,0.1,0,0,0,0.1
				c0.1,0.2,0.2,0.4,0.2,0.8C167.2,112.7,166.7,113.9,165.5,115z"/>
			
				<radialGradient id="SVGID_00000166668599684611576590000006389826425715938977_" cx="-598.9888" cy="11.9139" r="1" gradientTransform="matrix(55.3986 0 0 55.2296 33286.7422 -601.606)" gradientUnits="userSpaceOnUse">
				<stop  offset="0.5028" style="stop-color:#D7E2FC;stop-opacity:0.1"/>
				<stop  offset="0.7967" style="stop-color:#B6D3F8;stop-opacity:0.4"/>
				<stop  offset="1" style="stop-color:#A1CAF6;stop-opacity:0.6"/>
			</radialGradient>
			<path style="fill:url(#SVGID_00000166668599684611576590000006389826425715938977_);" d="M145.7,45.2c0-0.3,0-0.6,0-0.9
				c0-0.2,0-0.4,0-0.7c0-0.1,0-0.1,0-0.2c0-0.2,0-0.5,0-0.7c0-0.1,0-0.1,0-0.1c0-0.6-0.1-1.1-0.1-1.6c-0.1-0.5-0.1-0.9-0.3-1.4
				c0-0.2-0.1-0.5-0.1-0.6c-0.1-0.5-0.2-0.9-0.3-1.3c-0.1-0.3-0.2-0.6-0.4-1c-0.1-0.2-0.1-0.3-0.2-0.5c0-0.1,0-0.1-0.1-0.2
				c-0.1-0.3-0.2-0.5-0.3-0.8c0-0.1-0.1-0.2-0.1-0.3s-0.1-0.2-0.1-0.3v-0.1c-0.1-0.3-0.2-0.4-0.3-0.7c-0.1-0.2-0.1-0.4-0.3-0.6
				c0-0.1-0.1-0.2-0.1-0.3s-0.1-0.1-0.1-0.2c-0.1,0,0-0.1-0.1-0.1c-0.1-0.3-0.3-0.6-0.5-0.9c-0.1-0.2-0.1-0.3-0.2-0.4
				c-0.1-0.2-0.3-0.5-0.4-0.6c0-0.1-0.1-0.2-0.1-0.2s-0.1,0,0-0.1c-0.2-0.2-0.3-0.5-0.4-0.7c-0.2-0.3-0.4-0.6-0.6-0.8
				c-0.1-0.1-0.2-0.3-0.3-0.4c-0.1,0,0-0.1-0.1-0.1c-0.1-0.1-0.1-0.2-0.2-0.3c-0.1-0.2-0.3-0.3-0.4-0.5c-0.3-0.3-0.5-0.6-0.8-1
				c-0.1-0.2-0.3-0.3-0.4-0.6c-0.1-0.1-0.1-0.2-0.2-0.3c0-0.1-0.1-0.1-0.2-0.2c-0.1-0.1-0.3-0.3-0.4-0.5c-0.1-0.1-0.2-0.3-0.3-0.4
				h-0.1c-0.3-0.4-0.7-0.8-1.1-1.2c-0.2-0.2-0.3-0.4-0.5-0.5c-0.1-0.1-0.1-0.1-0.2-0.3c-0.1-0.1-0.2-0.3-0.3-0.3
				c-0.2-0.3-0.4-0.4-0.7-0.6h-0.1l-0.2-0.2c-0.1,0-0.1-0.1-0.2-0.2c-0.1-0.1-0.3-0.3-0.5-0.4c-0.1-0.1-0.3-0.3-0.4-0.4
				c-0.2-0.2-0.3-0.3-0.5-0.5c-0.1-0.1-0.3-0.3-0.5-0.4c-0.1,0-0.1-0.1-0.2-0.2c-0.1-0.1-0.3-0.2-0.5-0.4c-0.1-0.1-0.3-0.3-0.5-0.4
				c-0.3-0.2-0.5-0.4-0.7-0.6c-0.1-0.1-0.2-0.2-0.3-0.2c-0.3-0.2-0.6-0.4-0.8-0.6c-0.9-0.6-1.7-1.2-2.7-1.8
				c-0.2-0.2-0.5-0.3-0.7-0.4c-0.2-0.1-0.4-0.3-0.7-0.4c-0.9-0.5-1.7-1-2.6-1.4c-0.4-0.2-0.7-0.4-1.1-0.5c-0.5-0.2-0.9-0.5-1.4-0.6
				c-0.2-0.1-0.3-0.1-0.5-0.2c-0.1,0-0.1,0-0.1-0.1c-0.3-0.2-0.7-0.3-1-0.4c-0.3-0.2-0.7-0.3-1.1-0.5c-0.6-0.2-1.2-0.4-1.8-0.6
				c-0.3-0.1-0.5-0.2-0.8-0.3c-0.1,0-0.1-0.1-0.2-0.1c-0.4-0.1-0.7-0.2-1-0.3c-0.2-0.1-0.4-0.1-0.5-0.2c-0.4-0.1-0.8-0.2-1.2-0.4
				c-0.2-0.1-0.4-0.1-0.6-0.1c-0.3-0.1-0.6-0.1-0.8-0.2c-0.1,0-0.3-0.1-0.5-0.1c-0.3-0.1-0.5-0.1-0.7-0.2c-0.2,0-0.5-0.1-0.7-0.1
				s-0.4-0.1-0.6-0.1c-0.3-0.1-0.5-0.1-0.7-0.1c-0.1,0-0.1,0-0.2,0c-0.3-0.1-0.7-0.1-1-0.1c-0.3-0.1-0.6-0.1-0.8-0.1
				c-0.1,0-0.3-0.1-0.4,0c-0.2,0-0.3,0-0.5,0c-0.3-0.1-0.5,0-0.8,0s-0.7,0-1-0.1C102,8,101.4,8,101,8s-0.9,0-1.3,0s-0.9,0-1.3,0.1
				c-0.3,0-0.6,0-0.8,0c-0.1,0-0.1,0-0.2,0c-0.4,0-0.7,0.1-1.1,0.1c-0.5,0.1-0.9,0.1-1.4,0.2c-0.3,0.1-0.6,0.1-1,0.2
				c-0.4,0.1-0.8,0.2-1.1,0.2c-0.5,0.1-0.9,0.3-1.3,0.4c-0.3,0.1-0.5,0.2-0.7,0.3s-0.3,0.1-0.5,0.2c-0.3,0.1-0.4,0.2-0.7,0.2
				c-0.3,0.1-0.5,0.2-0.8,0.4c-0.2,0.1-0.4,0.2-0.6,0.3c-0.1,0-0.2,0.1-0.3,0.1c-0.4,0.2-0.6,0.3-0.9,0.5c-0.1,0.1-0.2,0.1-0.3,0.2
				c-0.1,0.1-0.2,0.2-0.4,0.2c-0.1,0.1-0.3,0.1-0.4,0.3V12c-0.1,0-0.1,0.1-0.2,0.2c-0.1,0-0.1,0.1-0.2,0.2c-0.1,0.1-0.3,0.2-0.4,0.3
				s-0.3,0.2-0.4,0.3s-0.3,0.3-0.5,0.4c-0.3,0.3-0.6,0.6-0.8,0.8c-0.2,0.4-0.3,0.8-0.4,1.2v0.1c0,0.2,0,0.4-0.1,0.6
				c-0.1,1.4-0.1,2.8,0.1,4.2c0,0.1,0,0.1,0,0.2c0.4,2.1,1,4.4,2.1,6.6c2.3,5,6.2,9.9,11.4,14.2c0.1,0.1,0.2,0.2,0.3,0.3
				c0.7,0.5,1.3,1,2,1.5c0.8,0.6,1.6,1.2,2.5,1.8c1.3,0.8,2.5,1.6,3.9,2.3c0.3,0.2,0.7,0.3,1,0.5c0.6,0.3,1.1,0.6,1.7,0.9
				c4.7,2.2,9.4,3.7,14,4.3c6.3,0.9,12.1,0.4,16.9-1.4c2.5-1,4.6-2.4,6.3-4.1c0.2-0.3,0.4-0.6,0.6-1
				C145.6,45.9,145.7,45.6,145.7,45.2z"/>
			<path class="st34" d="M143.7,37.4L143.7,37.4C143.8,37.4,143.8,37.4,143.7,37.4z"/>
			
				<linearGradient id="SVGID_00000054969215532803903800000010120788996938932375_" gradientUnits="userSpaceOnUse" x1="76.4479" y1="684.3958" x2="140.9785" y2="715.2079" gradientTransform="matrix(1 0 0 1 0 -658)">
				<stop  offset="0" style="stop-color:#7C889D"/>
				<stop  offset="0.1864" style="stop-color:#929EB0"/>
				<stop  offset="0.5363" style="stop-color:#B7C2CF"/>
				<stop  offset="0.82" style="stop-color:#CED9E2"/>
				<stop  offset="1" style="stop-color:#D6E1E9"/>
			</linearGradient>
			<path style="fill:url(#SVGID_00000054969215532803903800000010120788996938932375_);" d="M144.2,50.7
				c-3.3,6.8-11.2,10.3-20.8,10.1c-5.5-0.1-11.6-1.5-17.6-4.1c-1.1-0.5-2.2-1-3.4-1.6C84.9,46.1,75,29.5,80.5,18
				c0.1-0.1,0.1-0.2,0.1-0.3C81,17,83,13.2,83,13.2c-0.2,0.5-0.3,1-0.3,1.4c-0.1,0.6-0.2,1.3-0.3,2c-0.1,1.4-0.1,2.9,0.2,4.3
				c1.1,7.1,6,14.6,13.4,20.8c2.8,2.4,6.1,4.4,9.6,6.4c14.9,7.6,30.5,7.4,38.3,0.1c0.5-0.4,0.9-0.9,1.3-1.4c0.4-0.5,0.7-0.9,1.1-1.4
				l-1.4,2.9v0.1c-0.2,0.7-0.4,1.2-0.7,1.9C144.3,50.4,144.2,50.6,144.2,50.7z"/>
			<path class="st41" d="M144.9,47.2c-0.2,0.4-0.5,0.7-0.8,1.1c-7.8,7.2-23.4,7.5-38.3-0.1c-3.6-1.9-6.8-4-9.6-6.4
				C88.8,35.6,83.9,28,82.8,21c-0.3-1.5-0.3-2.9-0.2-4.3c0.1-0.5,0.2-0.9,0.4-1.3c-0.2,1.6-0.2,3.3,0.1,5c1.1,7.1,6,14.6,13.4,20.8
				c2.8,2.4,6.1,4.4,9.6,6.4C121.3,55.4,137.3,54.9,144.9,47.2z"/>
			
				<linearGradient id="SVGID_00000127746937975444875640000015359362674883404683_" gradientUnits="userSpaceOnUse" x1="87.1822" y1="690.541" x2="143.7415" y2="677.7101" gradientTransform="matrix(1 0 0 1 0 -658)">
				<stop  offset="0" style="stop-color:#B4C0D9"/>
				<stop  offset="1" style="stop-color:#EDEEFF"/>
			</linearGradient>
			<path style="fill:url(#SVGID_00000127746937975444875640000015359362674883404683_);" d="M146,45.2c-0.2,0.3-0.3,0.7-0.5,0.9
				c0.1-0.6,0.2-1.3,0.2-1.9c0-0.3,0-0.6,0-0.8s0-0.5,0-0.7c0-0.1,0-0.1,0-0.1c-0.1-1-0.2-1.9-0.4-2.9c-0.1-0.6-0.3-1.3-0.5-2
				c-0.1-0.3-0.2-0.6-0.4-1c-0.1-0.2-0.1-0.3-0.2-0.5c0-0.1,0-0.1-0.1-0.2c-0.1-0.4-0.4-0.8-0.5-1.3c-0.1-0.3-0.2-0.5-0.4-0.8
				c-0.1-0.2-0.1-0.4-0.3-0.6c-0.1-0.2-0.1-0.3-0.3-0.5c-0.4-0.8-0.8-1.6-1.3-2.3c-0.1-0.3-0.3-0.5-0.5-0.8s-0.4-0.6-0.6-0.8
				c-0.2-0.3-0.4-0.5-0.6-0.8c-0.1-0.2-0.3-0.3-0.4-0.5c-0.3-0.3-0.5-0.6-0.8-1c-0.3-0.3-0.6-0.7-0.8-1s-0.4-0.6-0.7-0.8
				c-0.4-0.5-0.7-0.8-1.2-1.2c-0.2-0.2-0.3-0.4-0.5-0.5c-0.1-0.1-0.1-0.1-0.2-0.3c-0.1-0.1-0.2-0.3-0.3-0.3
				c-0.2-0.3-0.4-0.4-0.7-0.6l-0.3-0.3c-0.2-0.3-0.4-0.4-0.7-0.6c-0.1-0.1-0.3-0.3-0.4-0.4c-0.2-0.2-0.3-0.3-0.5-0.5
				c-0.1-0.1-0.3-0.3-0.5-0.4c-0.1,0-0.1-0.1-0.2-0.2c-0.1-0.1-0.3-0.2-0.5-0.4c-0.1-0.1-0.3-0.3-0.5-0.4c-0.3-0.2-0.5-0.4-0.7-0.6
				c-0.1-0.1-0.2-0.2-0.3-0.2c-0.3-0.2-0.6-0.4-0.8-0.6c-0.9-0.6-1.7-1.2-2.7-1.8c-0.2-0.2-0.5-0.3-0.7-0.4
				c-0.2-0.1-0.4-0.3-0.7-0.4c-0.9-0.5-1.7-1-2.6-1.4c-0.4-0.2-0.7-0.4-1.1-0.5c-0.5-0.2-0.9-0.5-1.4-0.6c-0.2-0.1-0.3-0.1-0.5-0.2
				c-0.1,0-0.1,0-0.1-0.1c-0.3-0.2-0.7-0.3-1-0.4c-0.3-0.2-0.7-0.3-1.1-0.5c-0.6-0.2-1.2-0.4-1.8-0.6c-0.3-0.1-0.5-0.2-0.8-0.3
				c-0.1,0-0.1-0.1-0.2-0.1c-0.4-0.1-0.7-0.2-1-0.3c-0.2-0.1-0.4-0.1-0.5-0.2c-0.4-0.1-0.8-0.2-1.2-0.4C111,9,110.8,9,110.6,9
				c-0.3-0.1-0.6-0.1-0.8-0.2c-0.1,0-0.3-0.1-0.5-0.1c-0.3-0.1-0.5-0.1-0.7-0.2c-0.2,0-0.5-0.1-0.7-0.1s-0.4-0.1-0.6-0.1
				c-0.3-0.1-0.5-0.1-0.7-0.1c-0.4,0-0.7-0.2-1.1-0.2c-0.3-0.1-0.6-0.1-0.8-0.1c-0.1,0-0.3-0.1-0.4,0c-0.2,0-0.3,0-0.5,0
				c-0.3-0.1-0.5,0-0.8,0s-0.7,0-1-0.1c-0.5,0-1-0.1-1.5-0.1c-0.4,0-0.9,0-1.3,0s-0.9,0-1.3,0.1c-0.3,0-0.6,0-0.8,0
				c-0.1,0-0.1,0-0.2,0h-0.1c-0.4,0-0.7,0.1-1,0.1C95.3,8,94.9,8,94.4,8.1c-0.3,0.1-0.6,0.1-1,0.2c-0.4,0.1-0.8,0.2-1.1,0.2
				c-0.5,0.1-0.9,0.3-1.3,0.4c-0.3,0.1-0.5,0.2-0.7,0.3S90,9.3,89.8,9.4c-0.2,0.1-0.4,0.1-0.6,0.3c0,0,0,0-0.1,0
				c-0.5,0.2-0.9,0.4-1.4,0.6c-0.4,0.2-0.8,0.4-1.2,0.6c-0.1,0.1-0.2,0.1-0.3,0.2c-0.3,0.2-0.6,0.4-0.8,0.6c-0.1,0-0.1,0.1-0.2,0.2
				c-0.1,0-0.1,0.1-0.2,0.2c-0.1,0.1-0.3,0.2-0.4,0.3s-0.3,0.2-0.4,0.3c-0.5,0.4-0.9,0.8-1.4,1.3c0.2-0.3,0.2-0.6,0.4-1
				c1-2.1,2.5-3.9,4.4-5.4c1.4-1.1,3-2,4.9-2.8c8.3-3.2,20.3-2.1,31.7,3.8C141.8,17.7,151.4,34,146,45.2z"/>
			
				<linearGradient id="SVGID_00000125564772968818223540000007005355988783185043_" gradientUnits="userSpaceOnUse" x1="126.1962" y1="720.4085" x2="131.0262" y2="717.6442" gradientTransform="matrix(1 0 0 1 0 -658)">
				<stop  offset="0" style="stop-color:#7C889D"/>
				<stop  offset="0.1864" style="stop-color:#929EB0"/>
				<stop  offset="0.5363" style="stop-color:#B7C2CF"/>
				<stop  offset="0.82" style="stop-color:#CED9E2"/>
				<stop  offset="1" style="stop-color:#D6E1E9"/>
			</linearGradient>
			<path style="fill:url(#SVGID_00000125564772968818223540000007005355988783185043_);" d="M135.9,63c-1.2-0.7-3.4-1.4-5.8,0
				c-2.5,1.5-2.6,3.7-2.5,4.6c0,0.1,0-0.1,0,0l-3.5-5.2c-0.3-1-0.4-1.8-0.3-2.5c0-0.1,0.1-0.3,0-0.3c0.1-0.5,0.3-1,0.5-1.4
				c0.6-1,1.5-1.8,2.4-2.2c1.8-0.8,3.7-0.7,4.4,0.2c0.2,0.3,0.5,0.6,0.7,0.9c0.5,0.7,1,1.6,1.6,2.4C134.2,60.5,135,61.7,135.9,63z"
				/>
			
				<linearGradient id="SVGID_00000096760288721706370360000011182868625831770797_" gradientUnits="userSpaceOnUse" x1="109.3779" y1="675.2191" x2="127.0269" y2="675.9592" gradientTransform="matrix(1 0 0 1 0 -658)">
				<stop  offset="0" style="stop-color:#FFFFFF"/>
				<stop  offset="1" style="stop-color:#FFFFFF;stop-opacity:0.6"/>
			</linearGradient>
			<path style="opacity:0.7;fill:url(#SVGID_00000096760288721706370360000011182868625831770797_);enable-background:new    ;" d="
				M108.7,13.7c2.6,0.1,7.6,0.8,13.2,5.1c0.6,0.4,0.7,1.2,0.4,1.8c-0.4,0.6-1.1,0.8-1.8,0.4c-2.2-1.1-7.3-3.6-11.7-4.2
				c-0.5-0.1-0.9-0.4-1.1-0.8l-0.3-0.5C107.1,14.6,107.7,13.6,108.7,13.7z"/>
			
				<linearGradient id="SVGID_00000142874872850935792720000010831646573283155619_" gradientUnits="userSpaceOnUse" x1="132.16" y1="728.1643" x2="136.325" y2="725.031" gradientTransform="matrix(1 0 0 1 0 -658)">
				<stop  offset="0" style="stop-color:#7C889D"/>
				<stop  offset="0.1864" style="stop-color:#929EB0"/>
				<stop  offset="0.5363" style="stop-color:#B7C2CF"/>
				<stop  offset="0.82" style="stop-color:#CED9E2"/>
				<stop  offset="1" style="stop-color:#D6E1E9"/>
			</linearGradient>
			<path style="fill:url(#SVGID_00000142874872850935792720000010831646573283155619_);" d="M139.1,67.9c-0.2-0.1-0.4-0.1-0.6-0.1
				c-0.7-0.1-1.2-0.2-1.8-0.2c-0.1,0-0.2,0-0.2,0c-0.1,0-0.2,0-0.3,0s-0.2,0-0.3,0.1c-0.3,0.1-0.6,0.1-0.9,0.2
				c-0.1,0-0.2,0.1-0.3,0.1c0,0-0.1,0-0.1,0.1c0,0-0.1,0-0.1,0.1c-0.1,0.1-0.3,0.1-0.4,0.2c-0.1,0.1-0.2,0.1-0.4,0.2
				c-0.1,0.1-0.2,0.2-0.3,0.3c-0.3,0.2-0.5,0.4-0.7,0.7c-0.1,0.1-0.2,0.2-0.3,0.3c-0.4,0.4-0.7,0.9-0.9,1.3
				c-0.1,0.1-0.1,0.2-0.1,0.3c0,0,0,0,0,0.1s-0.1,0.1-0.1,0.2c-0.1,0.2-0.2,0.5-0.3,0.6c0,0.1,0,0.1-0.1,0.1c0,0.1-0.1,0.2-0.1,0.3
				l-1.1-1.7l-0.1-0.1c0.3-0.9,1.9-4.9,6-5.1c0.7,0,1.4,0,2.3,0.3c0,0.1,0.1,0.1,0.1,0.2C138.4,66.7,138.7,67.3,139.1,67.9z"/>
			
				<linearGradient id="SVGID_00000047047601574533491630000012851907805219924905_" gradientUnits="userSpaceOnUse" x1="151.369" y1="743.7205" x2="149.919" y2="744.5451" gradientTransform="matrix(1 0 0 1 0 -658)">
				<stop  offset="0" style="stop-color:#FFFFFF"/>
				<stop  offset="1" style="stop-color:#FFFFFF;stop-opacity:0"/>
			</linearGradient>
			<path style="opacity:0.5;fill:url(#SVGID_00000047047601574533491630000012851907805219924905_);enable-background:new    ;" d="
				M166.9,110.7c-0.2-0.1-0.4-0.4-0.6-0.5c-0.7-0.3-1.6-0.2-2.6,0.2l-23.3-37.7l-1-1.7l-5.6-9.1c0.7,0,1.4,0.2,1.7,0.7
				c0.2,0.3,0.4,0.5,0.6,0.8c0.5,0.6,0.9,1.4,1.4,2.1c0.7,1,1.4,2,2.1,3.1c0,0,0,0.1,0.1,0.1c0.5,0.8,1.1,1.6,1.7,2.5
				c0,0.1,0.1,0.1,0.1,0.2c0.3,0.5,0.7,1,1,1.5c-0.2-0.1-0.4-0.1-0.5-0.1c0.2,0,0.4,0.1,0.5,0.1c0,0,0,0.1,0.1,0.1
				C151.7,87,163.7,105.8,166.9,110.7z"/>
		</g>
	</g>
</g>
<linearGradient id="SVGID_00000173879722019948676450000016848839724362138548_" gradientUnits="userSpaceOnUse" x1="22.4" y1="52.9" x2="63.7907" y2="52.9" gradientTransform="matrix(1 0 0 -1 0 142)">
	<stop  offset="0" style="stop-color:#7C889D"/>
	<stop  offset="0.1864" style="stop-color:#929EB0"/>
	<stop  offset="0.5363" style="stop-color:#B7C2CF"/>
	<stop  offset="0.82" style="stop-color:#CED9E2"/>
	<stop  offset="1" style="stop-color:#D6E1E9"/>
</linearGradient>
<path style="fill:url(#SVGID_00000173879722019948676450000016848839724362138548_);" d="M44.1,89.2l0.1,0.6l3.5-1.6l-0.3-2.6
	l-0.5,0.2l0.2,2L44.1,89.2z M43.1,80.6l0.1,0.6l3-1.4l0.2,2l0.5-0.2L46.6,79L43.1,80.6z M41.8,85.9l-0.2-1.4l0.8-0.4
	c0.4-0.2,0.5-0.1,0.6,0.3v0.2c0,0.4-0.1,0.6-0.5,0.8L41.8,85.9z M43.1,85.6c0.4-0.3,0.6-0.8,0.5-1.2c0-0.3-0.2-0.5-0.4-0.6
	c-0.3-0.2-0.6-0.1-1,0l-1.1,0.5l0.4,4L42,88l-0.2-1.6l0.7-0.3c0.4-0.2,0.6-0.1,0.6,0.4l0.1,1l0.5-0.2l-0.1-0.9
	C43.7,85.7,43.5,85.5,43.1,85.6L43.1,85.6z M38.9,87.6l1.5-0.7l-0.1-0.5l-1.5,0.7l-0.1-1.2l1.7-0.8l-0.1-0.5l-2.2,1l0.4,4l2.3-1
	l0-0.6L39,88.8L38.9,87.6z M37.2,88.6v0.3c0.1,0.6-0.1,0.9-0.6,1.1h-0.1c-0.5,0.2-0.7,0.1-0.8-0.7l-0.1-1.1
	c-0.1-0.8,0.1-1.1,0.6-1.3h0.1c0.5-0.2,0.6-0.1,0.7,0.5l0.5-0.2c-0.1-0.8-0.7-1.1-1.3-0.7c-0.3,0.2-0.6,0.4-0.8,0.7
	c-0.3,0.5-0.4,1.1-0.3,1.9c0.1,0.8,0.3,1.3,0.6,1.5c0.2,0.1,0.5,0.1,0.8,0s0.6-0.4,0.7-0.8h0.1v0.4l0.5-0.2l-0.2-2.1l-1.4,0.6
	l0.1,0.5L37.2,88.6z M32.6,88.6l0.5-0.2c0.5-0.2,0.8-0.2,0.9,0.6l0.1,1.1c0.1,0.8-0.2,1.1-0.7,1.3L33,91.6L32.6,88.6z M33.6,91.8
	c1-0.4,1.2-1.4,1.1-2.6c-0.1-1.2-0.6-1.8-1.5-1.4l-1.1,0.5l0.4,4L33.6,91.8L33.6,91.8z M29.9,91.7l1.5-0.7l-0.1-0.5l-1.5,0.7
	L29.7,90l1.7-0.8l-0.1-0.5l-2.2,1l0.4,4l2.3-1l-0.1-0.5L29.9,93L29.9,91.7z M26.7,90.7L26.2,91l0.4,4l2.3-1l-0.1-0.5L27,94.3
	L26.7,90.7z M23.2,96.6l0.3,2.6l3.5-1.6L26.9,97l-3,1.4l-0.2-2L23.2,96.6z M22.4,89.9l0.3,2.6l0.5-0.2l-0.2-2l3-1.4l-0.1-0.6
	L22.4,89.9z"/>
</svg>
