<svg width="205" height="165" viewBox="0 0 205 165" fill="none" xmlns="http://www.w3.org/2000/svg">
    <path d="M102.567 164.775C84.2726 164.775 66.3001 163.067 50.6426 159.779C50.2889 159.715 50.0638 159.36 50.1281 159.006C50.1924 158.651 50.5461 158.426 50.8998 158.49C66.493 161.745 84.3369 163.453 102.567 163.453C129.67 163.453 155.101 159.747 174.263 153.044C193.2 146.405 203.617 137.672 203.617 128.423C203.617 122.944 199.759 117.434 192.493 112.535C192.204 112.342 192.107 111.923 192.332 111.633C192.525 111.343 192.943 111.246 193.232 111.472C200.981 116.693 204.935 122.429 204.935 128.455C204.935 138.284 194.197 147.469 174.713 154.301C155.423 161.068 129.798 164.775 102.567 164.775Z" fill="url(#paint0_linear)"/>
    <path d="M20.2275 150.047C20.1311 150.047 20.0346 150.015 19.9382 149.982C7.04558 143.763 0.261719 136.318 0.261719 128.487C0.261719 118.658 11.0002 109.474 30.4837 102.642C49.7422 95.874 75.3666 92.168 102.598 92.168C130.859 92.168 158.123 96.3574 177.35 103.608C177.671 103.737 177.864 104.092 177.735 104.446C177.607 104.769 177.253 104.962 176.9 104.833C157.77 97.6143 130.699 93.457 102.598 93.457C75.4952 93.457 50.0637 97.1631 30.9017 103.866C11.9647 110.505 1.54776 119.238 1.54776 128.487C1.54776 135.803 8.10657 142.828 20.5169 148.822C20.8384 148.983 20.967 149.37 20.8062 149.692C20.6776 149.886 20.4526 150.047 20.2275 150.047Z" fill="url(#paint1_linear)"/>
    <path d="M102.663 154.172C82.1186 154.172 62.7637 151.368 48.2314 146.244C33.4741 141.056 25.3398 134.095 25.3398 126.618C25.3398 119.142 33.4741 112.148 48.2314 106.992C62.7958 101.9 82.1186 99.0645 102.663 99.0645C123.208 99.0645 142.563 101.868 157.095 106.992C171.852 112.181 179.986 119.142 179.986 126.618C179.986 134.095 171.852 141.088 157.095 146.244C142.53 151.368 123.208 154.172 102.663 154.172ZM102.663 100.354C82.2472 100.354 63.053 103.125 48.6494 108.185C34.4386 113.18 26.6259 119.722 26.6259 126.618C26.6259 133.515 34.4386 140.057 48.6494 145.052C63.053 150.111 82.2472 152.883 102.663 152.883C123.079 152.883 142.273 150.111 156.677 145.052C170.888 140.057 178.7 133.515 178.7 126.618C178.7 119.722 170.888 113.18 156.677 108.185C142.241 103.157 123.079 100.354 102.663 100.354Z" fill="url(#paint2_linear)"/>
    <path d="M130.635 154.816C171.049 154.816 203.811 145.828 203.811 134.739C203.811 123.651 171.049 114.662 130.635 114.662C90.2209 114.662 57.459 123.651 57.459 134.739C57.459 145.828 90.2209 154.816 130.635 154.816Z" fill="url(#paint3_linear)"/>
    <path d="M164.907 122.332C164.779 122.525 164.682 122.719 164.522 122.88C163.879 123.814 163.011 124.717 161.982 125.587C161.725 125.813 161.435 126.038 161.146 126.264C160.503 126.747 159.828 127.198 159.088 127.682C158.895 127.811 158.702 127.939 158.477 128.036C158.059 128.294 157.641 128.52 157.191 128.745C156.966 128.874 156.741 129.003 156.516 129.1C155.616 129.583 154.651 130.034 153.622 130.453C153.43 130.55 153.204 130.646 153.012 130.711C152.401 130.969 151.758 131.227 151.083 131.484C150.15 131.839 149.186 132.193 148.189 132.516C147.771 132.645 147.353 132.773 146.935 132.902C146.517 133.031 146.067 133.16 145.649 133.289C144.717 133.579 143.752 133.837 142.755 134.095C142.209 134.256 141.63 134.385 141.051 134.514C140.858 134.546 140.666 134.61 140.505 134.643C140.408 134.675 140.312 134.675 140.215 134.707C139.283 134.933 138.319 135.158 137.322 135.352C137 135.416 136.679 135.48 136.357 135.545C136.036 135.609 135.746 135.674 135.425 135.738C135.393 135.738 135.393 135.738 135.361 135.738C134.235 135.964 133.078 136.157 131.888 136.351C131.47 136.415 131.052 136.479 130.634 136.544C130.217 136.608 129.799 136.673 129.348 136.737C128.384 136.866 127.419 137.027 126.455 137.124C125.619 137.221 124.783 137.35 123.915 137.446C122.95 137.543 121.986 137.672 121.021 137.736C120.7 137.769 120.378 137.801 120.057 137.833C119.8 137.865 119.575 137.865 119.317 137.897C119.028 137.93 118.739 137.962 118.481 137.962C117.517 138.026 116.552 138.123 115.588 138.155C114.752 138.22 113.884 138.252 113.048 138.316C112.083 138.381 111.119 138.413 110.154 138.445C109.704 138.478 109.286 138.478 108.836 138.478C108.418 138.478 108 138.51 107.582 138.51C107.293 138.51 106.971 138.51 106.682 138.542C106.264 138.542 105.878 138.542 105.46 138.574C105.203 138.574 104.946 138.574 104.689 138.574H104.464C104.399 138.574 104.303 138.574 104.238 138.574C103.82 138.574 103.435 138.574 103.017 138.574C102.727 138.574 102.438 138.574 102.149 138.574C101.827 138.574 101.538 138.574 101.216 138.574C100.991 138.574 100.798 138.574 100.573 138.574C100.123 138.574 99.673 138.574 99.2229 138.542C98.8049 138.542 98.3548 138.51 97.9369 138.51C97.6154 138.51 97.2617 138.478 96.9402 138.478H96.908C96.8116 138.478 96.7473 138.478 96.6508 138.478C96.3293 138.478 96.0399 138.445 95.7184 138.445C95.3005 138.445 94.9147 138.413 94.4967 138.413C94.2395 138.413 93.9823 138.381 93.7572 138.381C92.8892 138.349 92.0532 138.284 91.2173 138.252C90.2528 138.188 89.2882 138.123 88.3237 138.059C87.97 138.026 87.6164 137.994 87.2627 137.962C86.7804 137.93 86.266 137.865 85.7838 137.833C84.8192 137.736 83.8547 137.64 82.8902 137.543C82.4722 137.511 82.0221 137.446 81.6041 137.414C81.3791 137.382 81.1862 137.382 80.9611 137.35C80.7361 137.317 80.5432 137.317 80.3181 137.285C79.3536 137.156 78.389 137.027 77.4245 136.898C77.0065 136.834 76.6207 136.77 76.2028 136.705C76.1385 136.705 76.042 136.673 75.9777 136.673C75.5919 136.608 75.2382 136.544 74.8846 136.512C73.92 136.351 72.9555 136.189 71.991 136.028C71.9588 136.028 71.8945 135.996 71.8302 135.996C71.4444 135.932 71.0586 135.867 70.7049 135.771C70.287 135.706 69.869 135.609 69.451 135.513C68.4544 135.319 67.4898 135.126 66.5574 134.9C65.6894 134.707 64.8534 134.514 64.0175 134.288C63.0208 134.03 62.0563 133.772 61.1239 133.515C60.8989 133.45 60.706 133.386 60.4809 133.321C60.0308 133.192 59.6128 133.063 59.1627 132.935C58.9698 132.87 58.7769 132.806 58.584 132.741C57.5873 132.419 56.6228 132.097 55.6904 131.742L55.0474 131.484C54.7902 131.388 54.5651 131.291 54.3401 131.194C53.9542 131.033 53.5363 130.872 53.1826 130.711C52.636 130.485 52.1216 130.26 51.5751 130.034C51.1249 129.841 50.707 129.615 50.289 129.422C49.6139 129.1 48.9708 128.745 48.36 128.423C48.1671 128.294 47.942 128.197 47.7491 128.068C46.7203 127.456 45.7557 126.844 44.9198 126.199C44.8877 126.167 44.8877 126.167 44.8555 126.135C44.3732 125.748 43.891 125.361 43.473 124.975C43.3766 124.878 43.248 124.781 43.1515 124.685C42.83 124.395 42.5728 124.104 42.2834 123.782C41.8333 123.267 41.4475 122.751 41.126 122.235C41.351 121.881 41.6082 121.526 41.8655 121.172C42.2834 120.656 42.7335 120.141 43.2479 119.657C43.7302 119.174 44.2768 118.723 44.8877 118.271C49.1959 114.984 56.1084 112.148 64.7891 110.021C75.399 107.411 88.6452 105.864 103.049 105.864C126.969 105.864 147.803 110.15 158.509 116.467C159.506 117.047 160.406 117.659 161.21 118.271C161.821 118.723 162.368 119.174 162.85 119.657C163.364 120.141 163.846 120.656 164.232 121.172C164.457 121.623 164.715 121.978 164.907 122.332Z" fill="url(#paint4_linear)"/>
    <path d="M166.097 118.368C166.097 119.142 165.969 119.947 165.679 120.688C165.486 121.236 165.229 121.752 164.908 122.3C164.779 122.493 164.683 122.687 164.522 122.848C163.879 123.782 163.011 124.685 161.982 125.555C161.725 125.78 161.435 126.006 161.146 126.231C160.503 126.715 159.828 127.166 159.088 127.649C158.895 127.778 158.702 127.907 158.477 128.004C158.059 128.262 157.641 128.487 157.191 128.713C156.966 128.842 156.741 128.971 156.516 129.067C155.616 129.551 154.651 130.002 153.623 130.421C153.43 130.518 153.205 130.614 153.012 130.679C152.401 130.937 151.758 131.194 151.083 131.452C150.15 131.807 149.186 132.161 148.189 132.483C147.771 132.612 147.353 132.741 146.935 132.87C146.517 132.999 146.067 133.128 145.649 133.257C144.717 133.547 143.752 133.805 142.756 134.062C142.209 134.224 141.63 134.353 141.052 134.481C140.859 134.514 140.666 134.578 140.505 134.61C140.409 134.643 140.312 134.643 140.216 134.675C139.283 134.9 138.319 135.126 137.322 135.319C137 135.384 136.679 135.448 136.357 135.513C136.036 135.577 135.747 135.642 135.425 135.706C135.393 135.706 135.393 135.706 135.361 135.706C134.236 135.932 133.078 136.125 131.888 136.318C131.471 136.383 131.053 136.447 130.635 136.512C130.217 136.576 129.799 136.641 129.349 136.705C128.384 136.834 127.419 136.995 126.455 137.092C125.619 137.188 124.783 137.317 123.915 137.414C122.95 137.511 121.986 137.64 121.021 137.704C120.7 137.736 120.378 137.769 120.057 137.801C119.8 137.833 119.575 137.833 119.317 137.865C119.028 137.897 118.739 137.93 118.482 137.93C117.517 137.994 116.552 138.091 115.588 138.123C114.752 138.188 113.884 138.22 113.048 138.284C112.083 138.349 111.119 138.381 110.154 138.413C109.704 138.445 109.286 138.445 108.836 138.445C108.418 138.445 108 138.478 107.582 138.478C107.293 138.478 106.971 138.478 106.682 138.51C106.264 138.51 105.878 138.51 105.46 138.542C105.203 138.542 104.946 138.542 104.689 138.542H104.464C104.399 138.542 104.303 138.542 104.239 138.542C103.821 138.542 103.435 138.542 103.017 138.542C102.727 138.542 102.438 138.542 102.149 138.542C101.827 138.542 101.538 138.542 101.216 138.542C100.991 138.542 100.798 138.542 100.573 138.542C100.123 138.542 99.6731 138.542 99.223 138.51C98.8051 138.51 98.3549 138.478 97.937 138.478C97.6155 138.478 97.2618 138.445 96.9403 138.445H96.9081C96.8117 138.445 96.7474 138.445 96.6509 138.445C96.3294 138.445 96.0401 138.413 95.7186 138.413C95.3006 138.413 94.9148 138.381 94.4968 138.381C94.2396 138.381 93.9824 138.349 93.7574 138.349C92.8893 138.316 92.0533 138.252 91.2174 138.22C90.2529 138.155 89.2884 138.091 88.3238 138.026C87.9702 137.994 87.6165 137.962 87.2628 137.93C86.7806 137.897 86.2662 137.833 85.7839 137.801C84.8194 137.704 83.8548 137.607 82.8903 137.511C82.4723 137.479 82.0222 137.414 81.6043 137.382C81.3792 137.35 81.1863 137.35 80.9612 137.317C80.7362 137.285 80.5433 137.285 80.3182 137.253C79.3537 137.124 78.3892 136.995 77.4246 136.866C77.0067 136.802 76.6209 136.737 76.2029 136.673C76.1386 136.673 76.0421 136.641 75.9778 136.641C75.592 136.576 75.2384 136.512 74.8847 136.479C73.9202 136.318 72.9556 136.157 71.9911 135.996C71.9589 135.996 71.8946 135.964 71.8303 135.964C71.4445 135.899 71.0587 135.835 70.7051 135.738C70.2871 135.674 69.8691 135.577 69.4512 135.48C68.4545 135.287 67.49 135.094 66.5576 134.868C65.6895 134.675 64.8536 134.481 64.0176 134.256C63.021 133.998 62.0564 133.74 61.1241 133.482C60.899 133.418 60.7061 133.354 60.481 133.289C60.0309 133.16 59.613 133.031 59.1628 132.902C58.9699 132.838 58.777 132.773 58.5841 132.709C57.5874 132.387 56.6229 132.064 55.6905 131.71L55.0475 131.452C54.7903 131.355 54.5652 131.259 54.3402 131.162C53.9544 131.001 53.5364 130.84 53.1827 130.679C52.6362 130.453 52.1218 130.228 51.5752 130.002C51.1251 129.809 50.7071 129.583 50.2892 129.39C49.614 129.067 48.971 128.713 48.3601 128.391C48.1672 128.262 47.9421 128.165 47.7492 128.036C46.7204 127.424 45.7559 126.812 44.9199 126.167C44.8878 126.135 44.8878 126.135 44.8556 126.103C44.3734 125.716 43.8911 125.329 43.4731 124.942C43.3767 124.846 43.2481 124.749 43.1516 124.652C42.8301 124.362 42.5729 124.072 42.2835 123.75C41.8334 123.234 41.4476 122.719 41.1261 122.203C40.3545 120.914 39.9365 119.593 39.9365 118.239C39.9365 117.885 39.9687 117.53 40.033 117.176C40.0973 116.66 40.258 116.177 40.4509 115.661C44.3734 105.639 70.898 97.9043 103.081 97.9043C103.435 97.9043 103.821 97.9043 104.174 97.9043C131.663 98.0654 154.876 103.866 163.075 111.891C164.329 113.115 165.197 114.372 165.711 115.661C165.904 116.145 166.033 116.66 166.129 117.176C166.161 117.305 166.161 117.466 166.194 117.627C166.097 117.949 166.097 118.175 166.097 118.368Z" fill="url(#paint5_linear)"/>
    <g clip-path="url(#clip0)">
        <path d="M96.8762 51.0791C97.3263 53.3994 97.2941 55.6875 96.8118 57.8467L96.1045 57.3311C96.7797 55.0752 97.0048 52.626 96.6511 50.1445C96.7797 50.4668 96.844 50.7568 96.8762 51.0791Z" fill="url(#paint6_linear)"/>
        <path d="M131.084 82.7578L96.8112 57.8466L96.1038 57.331C96.779 55.0752 97.0041 52.6259 96.6825 50.1445C96.6825 50.1123 96.6826 50.08 96.6504 50.0156C95.5573 41.8945 88.8055 35.5459 80.607 35.1914C72.3764 34.8369 65.8176 39.8964 63.4384 46.664C62.4417 49.4677 62.1523 52.5615 62.7632 55.6552C62.8275 55.9775 62.8918 56.2998 62.9883 56.5898C65.2067 65.3877 73.9196 71.0273 82.8898 69.2871C84.015 69.0615 85.1082 68.7392 86.137 68.3203L85.8477 68.707L92.2779 72.9609L96.2003 69.4482L101.312 72.8964L102.534 71.0918L107.099 74.1855L108.096 72.7031L115.298 77.5693L114.526 78.6972L113.015 80.9531L118.449 84.6591L120.539 81.5654L121.632 82.371L119.735 85.207L119.767 85.2392L120.86 85.9804L125.168 88.8808L127.13 85.9482L130.441 88.2041L131.727 86.2705C132.531 85.207 132.242 83.6279 131.084 82.7578ZM76.8454 48.082C76.8132 48.1787 76.781 48.2431 76.7489 48.3076C76.6524 48.4687 76.5882 48.6298 76.4595 48.7587C75.7201 49.6933 74.5305 50.0478 73.373 49.79C72.8908 49.6933 72.4407 49.4677 72.0227 49.1455C70.9296 48.3076 70.4795 46.8896 70.8331 45.7295C70.9296 45.375 71.0903 45.0527 71.3154 44.7627C71.5726 44.4404 71.8941 44.1826 72.2478 43.9892C72.3764 43.9248 72.505 43.8603 72.6657 43.8281C73.3409 43.7636 74.0804 43.9248 74.7234 44.247C74.9484 44.3759 75.1735 44.5048 75.3986 44.666C76.4596 45.4716 76.974 46.664 76.974 47.8242C76.9097 47.8886 76.8775 47.9853 76.8454 48.082Z" fill="url(#paint7_linear)"/>
        <path d="M93.3391 49.7901C93.3712 49.919 93.3712 50.0479 93.4034 50.1768C91.8601 42.7969 84.6904 37.9952 77.2635 39.4454C69.8045 40.8956 64.9497 48.0499 66.2679 55.5264C66.2357 55.3653 66.2036 55.2364 66.1714 55.0753C64.7246 47.5665 69.6437 40.2833 77.1349 38.8331C84.6583 37.3507 91.8923 42.2813 93.3391 49.7901Z" fill="url(#paint8_radial)"/>
        <path d="M93.4356 50.4348C93.4356 50.3381 93.4035 50.2737 93.4035 50.177C93.3713 49.9836 93.307 49.758 93.2749 49.5647C93.1784 49.178 93.0498 48.7912 92.9212 48.4045C92.664 47.6311 92.3103 46.9221 91.9245 46.2131C91.7316 45.8586 91.5387 45.5364 91.3137 45.2141C91.2172 45.053 91.0886 44.8918 90.96 44.7307C90.6063 44.2795 90.2205 43.8283 89.8347 43.4094C86.716 40.1545 82.0541 38.511 77.2958 39.4133C76.8778 39.51 76.4599 39.6067 76.074 39.7033C75.4632 39.8645 74.9166 40.0901 74.3379 40.3156C73.9842 40.4768 73.5984 40.6701 73.2448 40.8635C72.023 41.5403 70.9299 42.3781 69.9653 43.3772C69.7081 43.6672 69.4188 43.9572 69.1937 44.2473C68.5829 44.9885 68.0363 45.8264 67.5862 46.6965C67.3933 47.051 67.2325 47.4055 67.1039 47.76C66.8145 48.469 66.5573 49.2424 66.3966 50.0158C66.1394 51.2404 66.0108 52.4973 66.1072 53.8186C66.1072 53.9475 66.1394 54.1086 66.1394 54.2375C66.1394 54.3987 66.1715 54.5276 66.2037 54.6887C66.2037 54.7854 66.2358 54.8821 66.2358 54.9787C66.268 55.1399 66.268 55.2688 66.3001 55.4299C66.3001 55.4621 66.3001 55.4621 66.3001 55.4944C67.9398 62.7453 75.0452 67.4504 82.4078 66.0324C89.674 64.6145 94.5288 57.718 93.4356 50.4348ZM76.8457 48.0822C76.8135 48.1789 76.7814 48.2434 76.7492 48.3078C76.6528 48.469 76.5885 48.6301 76.4599 48.759C75.7204 49.6936 74.5308 50.0481 73.3734 49.7903C72.8911 49.6936 72.441 49.468 72.023 49.1457C70.9299 48.3078 70.4798 46.8899 70.8334 45.7297C70.9299 45.3752 71.0906 45.0529 71.3157 44.7629C71.5729 44.4406 71.8944 44.1828 72.2481 43.9895C72.3767 43.925 72.5053 43.8606 72.666 43.8283C73.3412 43.7639 74.0807 43.925 74.7237 44.2473C74.9488 44.3762 75.1738 44.5051 75.3989 44.6662C76.4599 45.4719 76.9743 46.6643 76.9743 47.8244C76.91 47.8889 76.8778 47.9856 76.8457 48.0822Z" fill="url(#paint9_linear)"/>
        <path d="M85.8477 68.7715L92.2779 73.0254L92.6315 74.9268L86.137 70.415L86.4907 70.2861C86.3621 70.3184 86.2656 70.3828 86.137 70.415L85.8477 68.7715Z" fill="url(#paint10_linear)"/>
        <path d="M85.8477 68.7715L86.1692 70.415C86.2978 70.3828 86.1692 70.415 86.1692 70.415L92.6637 74.9268L92.31 73.0254L85.8477 68.7715ZM120.539 81.6943L120.892 83.5635L121.6 82.5L120.539 81.6943Z" fill="url(#paint11_linear)"/>
        <path d="M115.299 77.6982L114.527 78.8262L108.45 74.7334L108.097 72.7998L115.299 77.6982Z" fill="url(#paint12_linear)"/>
        <path d="M107.1 74.2822L107.453 76.1836L102.92 73.0898L102.566 71.1885L107.1 74.2822Z" fill="url(#paint13_linear)"/>
        <path d="M101.344 72.9932L101.698 74.8945L96.5861 71.4463L96.2324 69.5449L101.344 72.9932Z" fill="url(#paint14_linear)"/>
        <path d="M85.8477 68.7715L86.137 68.3848C85.1082 68.8037 84.0151 69.126 82.8898 69.3516C73.8875 71.0918 65.1746 65.4522 62.9883 56.6543C63.0204 56.9766 63.0847 57.2988 63.149 57.6211C64.9495 66.9668 73.9518 73.0898 83.2756 71.2852C84.2723 71.0918 85.269 70.8018 86.2013 70.4473L85.8477 68.7715Z" fill="url(#paint15_linear)"/>
        <path d="M127.13 86.0449L127.484 87.9785L125.523 90.8789L125.137 88.9775L127.13 86.0449Z" fill="url(#paint16_linear)"/>
        <path d="M131.985 83.6602C131.985 83.6602 132.66 85.9482 132.563 86.6894C132.435 87.6562 130.795 90.2021 130.795 90.2021L130.441 88.3008C130.441 88.3008 131.952 86.2061 132.145 85.4004C132.242 84.9814 131.985 83.6602 131.985 83.6602Z" fill="url(#paint17_linear)"/>
        <path d="M121.6 82.4678L120.893 83.5313L120.539 81.6943L121.6 82.4678Z" fill="url(#paint18_linear)"/>
        <path d="M96.233 69.5449L96.5866 71.4463L92.6642 74.959L92.3105 73.0576L96.233 69.5449Z" fill="url(#paint19_linear)"/>
        <path d="M102.566 71.1885L102.92 73.0898L101.698 74.8945L101.345 72.9932L102.566 71.1885Z" fill="url(#paint20_linear)"/>
        <path d="M108.096 72.7998L108.45 74.7334L107.453 76.1836L107.1 74.2822L108.096 72.7998Z" fill="url(#paint21_linear)"/>
        <path d="M118.449 84.7881L118.803 86.6572L113.369 82.9834L113.016 81.082L118.449 84.7881Z" fill="url(#paint22_linear)"/>
        <path d="M120.893 83.5313L119.703 85.3037H119.735L118.803 86.6572L118.449 84.7881L120.539 81.6943L120.893 83.5313Z" fill="url(#paint23_linear)"/>
        <path d="M120.893 83.5312V83.5957L119.735 85.3037H119.703L120.893 83.5312Z" fill="url(#paint24_linear)"/>
        <path d="M125.137 88.9775L125.523 90.8789L120.057 87.2051L119.735 85.3037L120.828 86.0771L125.137 88.9775Z" fill="url(#paint25_linear)"/>
        <path d="M130.441 88.333L130.795 90.2021L127.484 87.9785L127.13 86.0449L130.441 88.333Z" fill="url(#paint26_linear)"/>
        <path d="M76.9422 47.8242C76.9422 48.2432 76.8779 48.6621 76.7171 49.0488C76.685 49.1455 76.6207 49.2422 76.5885 49.3389C76.4921 49.5322 76.3956 49.6934 76.267 49.8867C75.3989 51.0146 73.9843 51.4336 72.6018 51.1113C72.0552 50.9824 71.5086 50.7568 71.0264 50.3701C69.7082 49.3711 69.1938 47.7275 69.6117 46.3096C69.7082 45.9229 69.9011 45.5039 70.1905 45.1494C70.4798 44.7627 70.8656 44.4404 71.2836 44.2471C71.7016 44.0215 72.1838 43.8926 72.6661 43.8281C72.5375 43.8604 72.3767 43.9248 72.2481 43.9893C71.8945 44.1826 71.573 44.4404 71.3157 44.7627C71.0907 45.0527 70.9299 45.4072 70.8335 45.7295C70.512 46.9219 70.9299 48.3076 72.0231 49.1455C72.441 49.4678 72.8911 49.6934 73.3734 49.79C74.5308 50.0479 75.7526 49.6934 76.4599 48.7588C76.5885 48.6299 76.6528 48.4687 76.7493 48.3076C76.7814 48.2432 76.8457 48.1465 76.8457 48.082C76.8779 47.9854 76.91 47.8887 76.9422 47.8242Z" fill="url(#paint27_linear)"/>
    </g>
    <path d="M127.323 83.4346L95.7509 61.4883C95.7188 61.4561 95.7188 61.4238 95.7188 61.3916L96.0724 60.9082C96.1046 60.876 96.1367 60.876 96.1689 60.876L127.741 82.8223C127.773 82.8545 127.773 82.8867 127.773 82.919L127.42 83.4023C127.42 83.4668 127.355 83.4668 127.323 83.4346Z" fill="url(#paint28_linear)"/>
    <path d="M95.5574 61.7139V61.9717L95.4609 61.875L95.5574 61.7139Z" fill="url(#paint29_linear)"/>
    <path d="M96.3293 61.585L96.2971 62.4551L95.5576 61.9717V61.7139L95.847 61.2627L96.3293 61.585Z" fill="url(#paint30_linear)"/>
    <path d="M97.0685 62.0684L97.0363 62.9385L96.2969 62.4551L96.329 61.585L97.0685 62.0684Z" fill="url(#paint31_linear)"/>
    <path d="M97.8077 62.5518L97.7756 63.4219L97.0361 62.9385L97.0683 62.0684L97.8077 62.5518Z" fill="url(#paint32_linear)"/>
    <path d="M98.547 63.0352L98.5148 63.9053L97.7754 63.4219L97.8075 62.5518L98.547 63.0352Z" fill="url(#paint33_linear)"/>
    <path d="M99.2872 63.5186L99.2229 64.3887L98.5156 63.9053L98.5478 63.0352L99.2872 63.5186Z" fill="url(#paint34_linear)"/>
    <path d="M100.026 64.002L99.9621 64.8721L99.2227 64.3887L99.287 63.5186L100.026 64.002Z" fill="url(#paint35_linear)"/>
    <path d="M100.766 64.4854L100.701 65.3555L99.9619 64.8721L100.026 64.002L100.766 64.4854Z" fill="url(#paint36_linear)"/>
    <path d="M101.473 64.9688L101.441 65.8389L100.701 65.3555L100.765 64.4854L101.473 64.9688Z" fill="url(#paint37_linear)"/>
    <path d="M102.213 65.4521L102.181 66.3223L101.441 65.8389L101.474 64.9688L102.213 65.4521Z" fill="url(#paint38_linear)"/>
    <path d="M102.952 65.9355L102.92 66.8057L102.181 66.3223L102.213 65.4521L102.952 65.9355Z" fill="url(#paint39_linear)"/>
    <path d="M103.692 66.4189L103.659 67.2891L102.92 66.8057L102.952 65.9355L103.692 66.4189Z" fill="url(#paint40_linear)"/>
    <path d="M104.431 66.9023L104.399 67.7725L103.659 67.2891L103.691 66.4189L104.431 66.9023Z" fill="url(#paint41_linear)"/>
    <path d="M105.171 67.3857L105.107 68.2559L104.399 67.7725L104.432 66.9023L105.171 67.3857Z" fill="url(#paint42_linear)"/>
    <path d="M105.91 67.8691L105.846 68.7393L105.106 68.2559L105.171 67.3857L105.91 67.8691Z" fill="url(#paint43_linear)"/>
    <path d="M106.649 68.3525L106.585 69.2227L105.846 68.7393L105.91 67.8691L106.649 68.3525Z" fill="url(#paint44_linear)"/>
    <path d="M107.357 68.8359L107.324 69.7061L106.585 69.2227L106.649 68.3525L107.357 68.8359Z" fill="url(#paint45_linear)"/>
    <path d="M108.096 69.3193L108.064 70.1895L107.324 69.7061L107.356 68.8359L108.096 69.3193Z" fill="url(#paint46_linear)"/>
    <path d="M108.836 69.8027L108.804 70.6729L108.064 70.1895L108.097 69.3193L108.836 69.8027Z" fill="url(#paint47_linear)"/>
    <path d="M109.575 70.2861L109.543 71.1562L108.804 70.6729L108.836 69.8027L109.575 70.2861Z" fill="url(#paint48_linear)"/>
    <path d="M110.315 70.7695L110.282 71.6396L109.543 71.1562L109.575 70.2861L110.315 70.7695Z" fill="url(#paint49_linear)"/>
    <path d="M111.055 71.2529L111.023 72.123L110.283 71.6396L110.315 70.7695L111.055 71.2529Z" fill="url(#paint50_linear)"/>
    <path d="M111.793 71.7363L111.729 72.6064L111.021 72.123L111.054 71.2529L111.793 71.7363Z" fill="url(#paint51_linear)"/>
    <path d="M112.533 72.2197L112.469 73.0898L111.729 72.6064L111.794 71.7363L112.533 72.2197Z" fill="url(#paint52_linear)"/>
    <path d="M113.273 72.7031L113.208 73.5732L112.469 73.0898L112.533 72.2197L113.273 72.7031Z" fill="url(#paint53_linear)"/>
    <path d="M113.98 73.1865L113.948 74.0566L113.208 73.5732L113.272 72.7031L113.98 73.1865Z" fill="url(#paint54_linear)"/>
    <path d="M114.719 73.6699L114.687 74.54L113.947 74.0566L113.979 73.1865L114.719 73.6699Z" fill="url(#paint55_linear)"/>
    <path d="M115.459 74.1533L115.427 75.0234L114.688 74.54L114.72 73.6699L115.459 74.1533Z" fill="url(#paint56_linear)"/>
    <path d="M116.198 74.6367L116.166 75.5068L115.427 75.0234L115.459 74.1533L116.198 74.6367Z" fill="url(#paint57_linear)"/>
    <path d="M116.938 75.1201L116.905 75.9902L116.166 75.5068L116.198 74.6367L116.938 75.1201Z" fill="url(#paint58_linear)"/>
    <path d="M117.677 75.6035L117.613 76.4736L116.905 75.9902L116.937 75.1201L117.677 75.6035Z" fill="url(#paint59_linear)"/>
    <path d="M118.417 76.0869L118.353 76.957L117.613 76.4736L117.678 75.6035L118.417 76.0869Z" fill="url(#paint60_linear)"/>
    <path d="M119.156 76.5703L119.092 77.4404L118.353 76.957L118.417 76.0869L119.156 76.5703Z" fill="url(#paint61_linear)"/>
    <path d="M119.863 77.0537L119.831 77.9238L119.092 77.4404L119.156 76.5703L119.863 77.0537Z" fill="url(#paint62_linear)"/>
    <path d="M120.604 77.5371L120.572 78.4072L119.832 77.9238L119.864 77.0537L120.604 77.5371Z" fill="url(#paint63_linear)"/>
    <path d="M121.343 78.0205L121.311 78.8906L120.571 78.4072L120.603 77.5371L121.343 78.0205Z" fill="url(#paint64_linear)"/>
    <path d="M122.082 78.5039L122.05 79.374L121.311 78.8906L121.343 78.0205L122.082 78.5039Z" fill="url(#paint65_linear)"/>
    <path d="M122.821 78.9873L122.789 79.8574L122.05 79.374L122.082 78.5039L122.821 78.9873Z" fill="url(#paint66_linear)"/>
    <path d="M123.561 79.4707L123.529 80.3408L122.789 79.8574L122.821 78.9873L123.561 79.4707Z" fill="url(#paint67_linear)"/>
    <path d="M124.301 79.9541L124.237 80.8242L123.529 80.3408L123.561 79.4707L124.301 79.9541Z" fill="url(#paint68_linear)"/>
    <path d="M125.04 80.4375L124.976 81.3076L124.236 80.8242L124.301 79.9541L125.04 80.4375Z" fill="url(#paint69_linear)"/>
    <path d="M125.779 80.9209L125.715 81.791L124.976 81.3076L125.04 80.4375L125.779 80.9209Z" fill="url(#paint70_linear)"/>
    <path d="M126.486 81.4043L126.454 82.2744L125.715 81.791L125.779 80.9209L126.486 81.4043Z" fill="url(#paint71_linear)"/>
    <path d="M127.226 81.8877L127.194 82.7578L126.454 82.2744L126.486 81.4043L127.226 81.8877Z" fill="url(#paint72_linear)"/>
    <path d="M127.966 82.3711V82.6611L127.677 83.0801L127.194 82.7578L127.226 81.8877L127.966 82.3711Z" fill="url(#paint73_linear)"/>
    <path d="M127.966 82.6611V82.3711L128.094 82.4678L127.966 82.6611Z" fill="url(#paint74_linear)"/>
    <path d="M125.844 84.0469L95.3001 63.6475C95.1715 63.5508 95.1393 63.3897 95.2358 63.2286L95.3001 63.1319C95.3965 63.003 95.5894 62.9708 95.718 63.0674L126.262 83.4669C126.39 83.5635 126.422 83.7247 126.326 83.8858L126.262 83.9825C126.165 84.0792 125.972 84.1114 125.844 84.0469Z" fill="url(#paint75_linear)"/>
    <path d="M94.9147 63.7119V63.9697L94.7861 63.873L94.9147 63.7119Z" fill="url(#paint76_linear)"/>
    <path d="M95.6536 63.583L95.6214 64.4209L94.9141 63.9697V63.7119L95.1713 63.293L95.6536 63.583Z" fill="url(#paint77_linear)"/>
    <path d="M96.3937 64.0664L96.3294 64.8721L95.6221 64.4209L95.6542 63.583L96.3937 64.0664Z" fill="url(#paint78_linear)"/>
    <path d="M97.1007 64.5176L97.0686 65.3232L96.3291 64.8721L96.3934 64.0664L97.1007 64.5176Z" fill="url(#paint79_linear)"/>
    <path d="M97.8088 64.9688L97.7767 65.7744L97.0693 65.3232L97.1015 64.5176L97.8088 64.9688Z" fill="url(#paint80_linear)"/>
    <path d="M98.548 65.4199L98.5158 66.2256L97.7764 65.7744L97.8085 64.9688L98.548 65.4199Z" fill="url(#paint81_linear)"/>
    <path d="M99.2551 65.8711L99.2229 66.6768L98.5156 66.2256L98.5478 65.4199L99.2551 65.8711Z" fill="url(#paint82_linear)"/>
    <path d="M99.9943 66.3223L99.93 67.1279L99.2227 66.6768L99.2548 65.8711L99.9943 66.3223Z" fill="url(#paint83_linear)"/>
    <path d="M100.702 66.7734L100.67 67.5791L99.9307 67.1279L99.995 66.3223L100.702 66.7734Z" fill="url(#paint84_linear)"/>
    <path d="M101.409 67.2246L101.377 68.0625L100.67 67.5791L100.702 66.7734L101.409 67.2246Z" fill="url(#paint85_linear)"/>
    <path d="M102.149 67.6758L102.116 68.5137L101.377 68.0625L101.409 67.2246L102.149 67.6758Z" fill="url(#paint86_linear)"/>
    <path d="M102.856 68.127L102.824 68.9648L102.116 68.5137L102.148 67.6758L102.856 68.127Z" fill="url(#paint87_linear)"/>
    <path d="M103.596 68.6104L103.532 69.416L102.824 68.9648L102.856 68.127L103.596 68.6104Z" fill="url(#paint88_linear)"/>
    <path d="M104.303 69.0615L104.271 69.8672L103.531 69.416L103.596 68.6104L104.303 69.0615Z" fill="url(#paint89_linear)"/>
    <path d="M105.042 69.5127L104.978 70.3184L104.271 69.8672L104.303 69.0615L105.042 69.5127Z" fill="url(#paint90_linear)"/>
    <path d="M105.749 69.9639L105.717 70.7695L104.978 70.3184L105.042 69.5127L105.749 69.9639Z" fill="url(#paint91_linear)"/>
    <path d="M106.457 70.415L106.425 71.2207L105.718 70.7695L105.75 69.9639L106.457 70.415Z" fill="url(#paint92_linear)"/>
    <path d="M107.196 70.8662L107.164 71.6719L106.425 71.2207L106.457 70.415L107.196 70.8662Z" fill="url(#paint93_linear)"/>
    <path d="M107.904 71.3174L107.871 72.1231L107.164 71.6719L107.196 70.8662L107.904 71.3174Z" fill="url(#paint94_linear)"/>
    <path d="M108.643 71.7686L108.578 72.6064L107.871 72.123L107.903 71.3174L108.643 71.7686Z" fill="url(#paint95_linear)"/>
    <path d="M109.351 72.2197L109.319 73.0576L108.579 72.6064L108.643 71.7686L109.351 72.2197Z" fill="url(#paint96_linear)"/>
    <path d="M110.058 72.6709L110.026 73.5088L109.318 73.0576L109.351 72.2197L110.058 72.6709Z" fill="url(#paint97_linear)"/>
    <path d="M110.797 73.1543L110.765 73.96L110.025 73.5088L110.058 72.6709L110.797 73.1543Z" fill="url(#paint98_linear)"/>
    <path d="M111.505 73.6055L111.473 74.4111L110.766 73.96L110.798 73.1543L111.505 73.6055Z" fill="url(#paint99_linear)"/>
    <path d="M112.244 74.0566L112.18 74.8623L111.473 74.4111L111.505 73.6055L112.244 74.0566Z" fill="url(#paint100_linear)"/>
    <path d="M112.951 74.5078L112.919 75.3135L112.18 74.8623L112.244 74.0566L112.951 74.5078Z" fill="url(#paint101_linear)"/>
    <path d="M113.658 74.959L113.626 75.7647L112.919 75.3135L112.951 74.5078L113.658 74.959Z" fill="url(#paint102_linear)"/>
    <path d="M114.399 75.4102L114.366 76.2158L113.627 75.7646L113.659 74.959L114.399 75.4102Z" fill="url(#paint103_linear)"/>
    <path d="M115.106 75.8613L115.074 76.667L114.366 76.2158L114.398 75.4102L115.106 75.8613Z" fill="url(#paint104_linear)"/>
    <path d="M115.845 76.3125L115.781 77.1182L115.073 76.667L115.105 75.8613L115.845 76.3125Z" fill="url(#paint105_linear)"/>
    <path d="M116.553 76.7637L116.521 77.6016L115.781 77.1182L115.846 76.3125L116.553 76.7637Z" fill="url(#paint106_linear)"/>
    <path d="M117.26 77.2148L117.228 78.0527L116.521 77.6016L116.553 76.7637L117.26 77.2148Z" fill="url(#paint107_linear)"/>
    <path d="M117.999 77.6982L117.967 78.5039L117.228 78.0527L117.26 77.2148L117.999 77.6982Z" fill="url(#paint108_linear)"/>
    <path d="M118.706 78.1494L118.674 78.9551L117.967 78.5039L117.999 77.6982L118.706 78.1494Z" fill="url(#paint109_linear)"/>
    <path d="M119.446 78.6006L119.414 79.4062L118.675 78.9551L118.707 78.1494L119.446 78.6006Z" fill="url(#paint110_linear)"/>
    <path d="M120.154 79.0518L120.121 79.8574L119.414 79.4063L119.446 78.6006L120.154 79.0518Z" fill="url(#paint111_linear)"/>
    <path d="M120.893 79.5029L120.828 80.3086L120.121 79.8574L120.153 79.0518L120.893 79.5029Z" fill="url(#paint112_linear)"/>
    <path d="M121.6 79.9541L121.568 80.7598L120.828 80.3086L120.892 79.5029L121.6 79.9541Z" fill="url(#paint113_linear)"/>
    <path d="M122.308 80.4053L122.276 81.2109L121.568 80.7598L121.601 79.9541L122.308 80.4053Z" fill="url(#paint114_linear)"/>
    <path d="M123.047 80.8564L123.015 81.6621L122.275 81.2109L122.308 80.4053L123.047 80.8564Z" fill="url(#paint115_linear)"/>
    <path d="M123.754 81.3076L123.722 82.1455L123.015 81.6621L123.047 80.8564L123.754 81.3076Z" fill="url(#paint116_linear)"/>
    <path d="M124.493 81.7588L124.429 82.5967L123.722 82.1455L123.754 81.3076L124.493 81.7588Z" fill="url(#paint117_linear)"/>
    <path d="M125.201 82.2422L125.169 83.0479L124.43 82.5967L124.494 81.7588L125.201 82.2422Z" fill="url(#paint118_linear)"/>
    <path d="M125.908 82.6934L125.876 83.499L125.169 83.0479L125.201 82.2422L125.908 82.6934Z" fill="url(#paint119_linear)"/>
    <path d="M126.648 83.1445L126.615 83.4023L126.358 83.7891L125.876 83.499L125.908 82.6934L126.648 83.1445Z" fill="url(#paint120_linear)"/>
    <path d="M126.615 83.4023L126.647 83.1445L126.744 83.209L126.615 83.4023Z" fill="url(#paint121_linear)"/>
    <path d="M133.335 70.5439L134.107 70.9629L133.335 71.3818L132.917 72.1553L132.499 71.3818L131.76 70.9629L132.499 70.5439L132.917 69.8027L133.335 70.5439Z" fill="white"/>
    <path d="M95.59 83.4668L96.3295 83.8857L95.59 84.3047L95.172 85.0459L94.754 84.3047L93.9824 83.8857L94.754 83.4668L95.172 82.7256L95.59 83.4668Z" fill="#5E85F8"/>
    <path d="M66.3008 96.3252L67.4904 96.9697L66.3008 97.6465L65.6256 98.8389L64.9826 97.6465L63.793 96.9697L64.9826 96.3252L65.6256 95.1328L66.3008 96.3252Z" fill="white"/>
    <path d="M120.122 52.3682L121.536 53.1416L120.122 53.915L119.318 55.3652L118.546 53.915L117.1 53.1416L118.546 52.3682L119.318 50.918L120.122 52.3682Z" fill="white"/>
    <path opacity="0.6" d="M117.066 12.9551C131.181 16.9512 143.43 25.1367 152.4 36.0293" stroke="white" stroke-width="12" stroke-miterlimit="10" stroke-linecap="round" stroke-linejoin="round"/>
    <path d="M166.098 118.368V126.296C166.098 127.843 165.551 129.357 164.522 130.808C163.879 131.742 163.011 132.645 161.982 133.515C161.146 134.224 160.182 134.933 159.089 135.609C158.285 136.093 157.449 136.576 156.549 137.06C155.648 137.543 154.684 137.994 153.655 138.413C152.851 138.768 151.983 139.122 151.115 139.444C150.183 139.799 149.218 140.153 148.222 140.476C147.386 140.733 146.55 141.023 145.682 141.281C144.749 141.571 143.785 141.829 142.788 142.087C141.952 142.312 141.116 142.506 140.248 142.731C139.316 142.957 138.319 143.183 137.355 143.376C137.097 143.44 136.808 143.505 136.519 143.537C135.94 143.666 135.393 143.763 134.815 143.859C133.85 144.053 132.886 144.214 131.921 144.375C131.085 144.504 130.249 144.633 129.381 144.762C128.417 144.891 127.452 145.052 126.487 145.148C125.652 145.245 124.816 145.374 123.948 145.438C122.983 145.535 122.019 145.664 121.054 145.729C120.218 145.793 119.382 145.89 118.514 145.954C117.55 146.019 116.585 146.115 115.62 146.147C114.785 146.212 113.916 146.244 113.08 146.309C112.116 146.373 111.151 146.405 110.187 146.437C109.351 146.47 108.483 146.502 107.647 146.502C106.682 146.534 105.718 146.534 104.753 146.534C104.207 146.534 103.628 146.534 103.082 146.534C102.792 146.534 102.503 146.534 102.213 146.534C101.249 146.534 100.284 146.534 99.3199 146.502C98.4518 146.47 97.6159 146.47 96.7799 146.437C95.8154 146.405 94.8509 146.373 93.8863 146.309C93.0183 146.276 92.1823 146.212 91.3464 146.18C90.3819 146.115 89.4173 146.051 88.4528 145.986C87.5847 145.922 86.7488 145.857 85.9129 145.761C84.9483 145.664 83.9838 145.567 83.0193 145.471C82.1512 145.374 81.3153 145.277 80.4794 145.181C79.5148 145.052 78.5503 144.923 77.5858 144.794C76.7177 144.665 75.8818 144.536 75.0458 144.407C74.0813 144.246 73.0846 144.085 72.1522 143.924C71.2842 143.763 70.4482 143.602 69.6123 143.44C69.0336 143.312 68.4549 143.215 67.8762 143.086C67.4903 142.989 67.1045 142.925 66.7187 142.828C65.8506 142.635 65.0147 142.441 64.1788 142.216C63.1821 141.958 62.2176 141.7 61.2852 141.442C60.4171 141.185 59.549 140.927 58.7453 140.669C57.7486 140.347 56.784 140.024 55.8517 139.67C54.9836 139.348 54.1155 139.025 53.3117 138.671C52.2829 138.252 51.3184 137.801 50.4181 137.35C49.5179 136.898 48.6498 136.447 47.8782 135.996C46.8172 135.384 45.8527 134.739 44.9846 134.062C43.9879 133.289 43.152 132.516 42.4447 131.71C40.9014 129.97 40.0977 128.101 40.0977 126.199V118.271C40.0977 119.625 40.5156 120.946 41.2872 122.235C41.6087 122.751 41.9946 123.267 42.4447 123.782C43.152 124.588 43.9879 125.361 44.9846 126.135C45.0168 126.167 45.0168 126.167 45.0489 126.199C45.8848 126.844 46.8494 127.456 47.8782 128.068C48.682 128.552 49.5179 129.003 50.4181 129.422C51.3184 129.873 52.3151 130.292 53.3117 130.711C54.1155 131.065 54.9836 131.388 55.8517 131.71C56.784 132.064 57.7486 132.387 58.7453 132.709C59.5812 132.967 60.4171 133.225 61.2852 133.482C62.2176 133.74 63.1821 133.998 64.1788 134.256C65.0147 134.481 65.8506 134.675 66.7187 134.868C67.6511 135.094 68.6478 135.287 69.6123 135.48C70.4482 135.642 71.2842 135.803 72.1522 135.964C73.1168 136.125 74.0813 136.318 75.0458 136.447C75.8818 136.576 76.7177 136.705 77.5858 136.834C78.5503 136.963 79.5148 137.092 80.4794 137.221C81.3153 137.317 82.1512 137.414 83.0193 137.511C83.9838 137.607 84.9483 137.704 85.9129 137.801C86.7488 137.865 87.6169 137.962 88.4528 138.026C89.4173 138.091 90.3819 138.155 91.3464 138.22C92.1823 138.284 93.0504 138.316 93.8863 138.349C94.8509 138.381 95.8154 138.445 96.7799 138.478C97.6159 138.51 98.4839 138.542 99.3199 138.542C100.284 138.574 101.249 138.574 102.213 138.574C102.503 138.574 102.792 138.574 103.082 138.574C103.628 138.574 104.207 138.574 104.753 138.574C105.718 138.574 106.682 138.542 107.647 138.542C108.515 138.51 109.351 138.51 110.187 138.478C111.151 138.445 112.116 138.413 113.08 138.349C113.949 138.316 114.785 138.252 115.62 138.187C116.585 138.123 117.55 138.059 118.514 137.962C119.382 137.897 120.218 137.833 121.054 137.736C122.019 137.64 122.983 137.543 123.948 137.446C124.816 137.35 125.652 137.253 126.487 137.124C127.452 136.995 128.417 136.866 129.381 136.737C130.249 136.608 131.085 136.479 131.921 136.351C132.886 136.189 133.882 136.028 134.815 135.835C135.683 135.674 136.519 135.513 137.355 135.319C138.351 135.094 139.316 134.9 140.248 134.675C141.116 134.481 141.952 134.256 142.788 134.03C143.785 133.772 144.749 133.515 145.682 133.225C146.55 132.967 147.418 132.709 148.222 132.419C149.218 132.097 150.183 131.742 151.115 131.388C151.983 131.065 152.851 130.711 153.655 130.356C154.684 129.905 155.648 129.454 156.549 129.003C157.449 128.552 158.317 128.068 159.089 127.553C159.635 127.23 160.15 126.876 160.632 126.521C160.793 126.393 160.986 126.264 161.146 126.135C161.436 125.909 161.725 125.684 161.982 125.458C163.011 124.588 163.879 123.686 164.522 122.751C164.651 122.558 164.779 122.364 164.908 122.203C165.197 121.752 165.422 121.269 165.615 120.817C165.937 120.108 166.098 119.238 166.098 118.368Z" fill="url(#paint122_linear)"/>
    <path d="M44.7587 129.003V132.032C43.762 131.259 42.9261 130.485 42.2188 129.68V126.65C42.9261 127.456 43.762 128.262 44.7587 129.003Z" fill="url(#paint123_linear)"/>
    <path d="M47.6523 130.937C48.4561 131.388 49.292 131.839 50.1923 132.29V135.319C49.292 134.868 48.424 134.417 47.6523 133.966V130.937Z" fill="url(#paint124_linear)"/>
    <path d="M53.1182 133.611C53.9219 133.966 54.79 134.288 55.6581 134.61V137.64C54.79 137.317 53.9219 136.995 53.1182 136.641V133.611Z" fill="url(#paint125_linear)"/>
    <path d="M58.5518 135.577C59.3877 135.835 60.2236 136.093 61.0917 136.351V139.38C60.2236 139.122 59.3555 138.864 58.5518 138.606V135.577Z" fill="url(#paint126_linear)"/>
    <path d="M63.9854 137.156C64.8213 137.35 65.6572 137.575 66.5253 137.769V140.798C65.6572 140.604 64.8213 140.411 63.9854 140.186V137.156Z" fill="url(#paint127_linear)"/>
    <path d="M69.4502 138.381C70.2861 138.542 71.122 138.703 71.9901 138.864V141.894C71.122 141.732 70.2861 141.571 69.4502 141.41V138.381Z" fill="url(#paint128_linear)"/>
    <path d="M77.4247 139.767V142.796C76.5566 142.667 75.7207 142.538 74.8848 142.409V139.38C75.7207 139.509 76.5888 139.638 77.4247 139.767Z" fill="url(#paint129_linear)"/>
    <path d="M82.8896 140.443V143.473C82.0215 143.376 81.1855 143.279 80.3496 143.183V140.153C81.1855 140.25 82.0215 140.347 82.8896 140.443Z" fill="url(#paint130_linear)"/>
    <path d="M88.3231 140.927V143.956C87.455 143.892 86.6191 143.827 85.7832 143.73V140.701C86.6191 140.798 87.455 140.862 88.3231 140.927Z" fill="url(#paint131_linear)"/>
    <path d="M93.7567 141.281V144.311C92.8887 144.278 92.0527 144.214 91.2168 144.182V141.152C92.0527 141.185 92.9208 141.217 93.7567 141.281Z" fill="url(#paint132_linear)"/>
    <path d="M99.2225 141.442V144.472C98.3545 144.439 97.5185 144.439 96.6826 144.407V141.378C97.5185 141.41 98.3545 141.442 99.2225 141.442Z" fill="url(#paint133_linear)"/>
    <path d="M104.656 141.475V144.504C104.11 144.504 103.531 144.504 102.984 144.504C102.695 144.504 102.406 144.504 102.116 144.504V141.475C102.406 141.475 102.695 141.475 102.984 141.475C103.563 141.475 104.11 141.475 104.656 141.475Z" fill="url(#paint134_linear)"/>
    <path d="M110.09 141.378V144.407C109.254 144.439 108.386 144.472 107.55 144.472V141.442C108.418 141.41 109.254 141.378 110.09 141.378Z" fill="url(#paint135_linear)"/>
    <path d="M115.556 141.088V144.117C114.72 144.182 113.852 144.214 113.016 144.278V141.249C113.852 141.185 114.72 141.152 115.556 141.088Z" fill="url(#paint136_linear)"/>
    <path d="M120.989 140.637V143.666C120.153 143.73 119.317 143.827 118.449 143.892V140.862C119.317 140.798 120.153 140.733 120.989 140.637Z" fill="url(#paint137_linear)"/>
    <path d="M126.423 140.057V143.086C125.587 143.183 124.751 143.312 123.883 143.376V140.347C124.751 140.25 125.587 140.153 126.423 140.057Z" fill="url(#paint138_linear)"/>
    <path d="M131.888 139.251V142.28C131.052 142.409 130.216 142.538 129.348 142.667V139.638C130.184 139.509 131.052 139.38 131.888 139.251Z" fill="url(#paint139_linear)"/>
    <path d="M137.321 138.22V141.249C137.064 141.313 136.775 141.378 136.485 141.41C135.907 141.539 135.36 141.636 134.781 141.732V138.703C135.36 138.606 135.939 138.478 136.485 138.381C136.775 138.316 137.064 138.284 137.321 138.22Z" fill="url(#paint140_linear)"/>
    <path d="M142.755 136.931V139.96C141.919 140.186 141.083 140.379 140.215 140.604V137.575C141.083 137.382 141.951 137.156 142.755 136.931Z" fill="url(#paint141_linear)"/>
    <path d="M148.221 135.319V138.349C147.385 138.606 146.549 138.896 145.681 139.154V136.125C146.549 135.867 147.385 135.609 148.221 135.319Z" fill="url(#paint142_linear)"/>
    <path d="M153.654 133.289V136.318C152.85 136.673 151.982 137.027 151.114 137.35V134.32C151.982 133.966 152.85 133.644 153.654 133.289Z" fill="url(#paint143_linear)"/>
    <path d="M159.12 130.485V133.515C158.316 133.998 157.48 134.481 156.58 134.965V131.936C157.48 131.452 158.316 130.969 159.12 130.485Z" fill="url(#paint144_linear)"/>
    <path d="M164.554 125.651V128.681C163.911 129.615 163.042 130.518 162.014 131.388V128.358C163.042 127.488 163.911 126.586 164.554 125.651Z" fill="url(#paint145_linear)"/>
    <path d="M0.9055 129.099C0.583989 129.099 0.29463 128.842 0.262479 128.487C0.230328 128.133 0.487532 127.81 0.841194 127.81L25.919 125.973C26.2727 125.941 26.5942 126.199 26.5942 126.554C26.6263 126.908 26.3691 127.23 26.0154 127.23L0.937643 129.067C0.937643 129.099 0.9055 129.099 0.9055 129.099Z" fill="url(#paint146_linear)"/>
    <path d="M151.597 160.65C151.34 160.65 151.082 160.488 150.986 160.231L146.613 148.694C146.485 148.371 146.645 147.985 146.999 147.856C147.321 147.727 147.706 147.888 147.835 148.242L152.208 159.779C152.336 160.102 152.175 160.488 151.822 160.617C151.757 160.65 151.661 160.65 151.597 160.65Z" fill="url(#paint147_linear)"/>
    <path d="M113.595 112.277C113.595 113.083 112.952 113.824 111.859 114.437C109.994 113.373 106.843 112.696 103.242 112.696C99.6414 112.696 96.4906 113.373 94.6258 114.437C93.5327 113.824 92.8896 113.083 92.8896 112.277C92.8896 110.118 97.5194 108.378 103.242 108.378C108.965 108.378 113.595 110.118 113.595 112.277Z" fill="url(#paint148_linear)"/>
    <path d="M111.859 114.437C110.637 115.146 108.805 115.661 106.683 115.951V126.425H99.7701V115.951C97.6481 115.661 95.8476 115.146 94.5938 114.437C96.4585 113.373 99.6093 112.696 103.21 112.696C106.843 112.696 109.994 113.405 111.859 114.437Z" fill="#142534"/>
    <path d="M166.098 117.079C166.098 117.24 166.098 117.498 166.065 117.756C166.001 118.594 165.84 119.818 165.68 120.721C165.615 121.043 165.551 121.333 165.487 121.526C165.069 122.106 164.779 122.59 164.554 123.009C163.976 124.072 163.783 124.749 162.4 126.038C162.272 126.167 162.143 126.264 162.014 126.393C161.178 127.134 160.182 127.843 159.121 128.487C158.317 128.971 157.481 129.454 156.581 129.905C155.681 130.356 154.716 130.808 153.687 131.227C152.884 131.581 152.015 131.903 151.147 132.226C150.215 132.548 149.25 132.87 148.254 133.192C147.418 133.45 146.582 133.708 145.714 133.934C144.781 134.191 143.817 134.449 142.82 134.675C141.984 134.868 141.148 135.062 140.28 135.255C139.316 135.448 138.351 135.642 137.387 135.835C136.551 135.996 135.715 136.157 134.847 136.286C133.882 136.447 132.918 136.608 131.953 136.737C131.117 136.866 130.281 136.995 129.413 137.092C128.449 137.221 127.484 137.35 126.52 137.446C125.684 137.543 124.816 137.64 123.98 137.704C123.015 137.801 122.051 137.897 121.086 137.962C120.25 138.026 119.382 138.091 118.546 138.155C117.582 138.22 116.617 138.284 115.653 138.349C114.817 138.381 113.949 138.445 113.113 138.478C112.148 138.51 111.184 138.542 110.219 138.606C109.383 138.639 108.515 138.639 107.679 138.671C107.39 138.671 107.068 138.671 106.779 138.703C106.361 138.703 105.975 138.703 105.557 138.735C105.3 138.735 105.043 138.735 104.786 138.735H104.56C104.496 138.735 104.4 138.735 104.335 138.735C103.917 138.735 103.532 138.735 103.114 138.735C102.824 138.735 102.535 138.735 102.246 138.735C101.924 138.735 101.635 138.735 101.313 138.735C101.088 138.735 100.895 138.735 100.67 138.735C100.22 138.735 99.77 138.735 99.3199 138.703C98.9019 138.703 98.4518 138.671 98.0338 138.671C97.7123 138.671 97.3586 138.639 97.0371 138.639H97.005C96.9728 138.639 96.9085 138.639 96.8764 138.639C96.8442 138.639 96.8121 138.639 96.7478 138.639C96.587 138.639 96.4263 138.639 96.2977 138.606C96.1369 138.606 95.9762 138.606 95.8475 138.574C95.4296 138.574 95.0438 138.542 94.6258 138.542C94.3686 138.542 94.1114 138.51 93.8863 138.51C93.0183 138.478 92.1823 138.413 91.3464 138.381C90.3819 138.316 89.4173 138.252 88.4528 138.188C87.5847 138.123 86.7488 138.059 85.9129 137.994C84.9483 137.897 83.9838 137.801 83.0193 137.704C82.1512 137.607 81.3153 137.511 80.4793 137.414C79.5148 137.285 78.5503 137.156 77.5858 137.027C76.9749 136.931 76.364 136.866 75.7531 136.77C75.5281 136.737 75.2709 136.705 75.0458 136.673C74.0813 136.512 73.1167 136.351 72.1522 136.189C71.2841 136.028 70.4482 135.867 69.6123 135.706C68.6156 135.513 67.6511 135.319 66.7187 135.094C65.8506 134.9 65.0147 134.707 64.1788 134.481C63.1821 134.224 62.2175 133.998 61.2852 133.74C60.4171 133.482 59.5812 133.257 58.7452 132.999C57.7486 132.677 56.784 132.387 55.8516 132.032C54.9836 131.71 54.1155 131.388 53.3117 131.065C52.958 130.937 52.5722 130.775 52.2186 130.614C51.6077 130.356 50.9968 130.066 50.386 129.809C49.4857 129.39 48.6498 128.938 47.846 128.487C46.785 127.907 45.8205 127.295 44.9524 126.65C44.5988 126.393 44.2451 126.135 43.9236 125.877C43.4413 125.49 42.8948 124.846 42.4125 124.169C41.1908 122.493 40.0655 120.431 40.0655 120.431C30.6774 107.895 25.1152 92.458 25.1152 75.7324C25.1152 33.9023 59.8384 0 102.696 0C145.553 0 180.276 33.9023 180.276 75.7324C180.276 91.8779 175.1 106.831 166.29 119.109V117.079H166.098Z" fill="url(#paint149_radial)"/>
    <defs>
        <linearGradient id="paint0_linear" x1="50.1269" y1="138.079" x2="204.894" y2="138.079" gradientUnits="userSpaceOnUse">
            <stop stop-color="#2E3E69"/>
            <stop offset="1" stop-color="#212F5D"/>
        </linearGradient>
        <linearGradient id="paint1_linear" x1="0.249662" y1="121.085" x2="177.753" y2="121.085" gradientUnits="userSpaceOnUse">
            <stop stop-color="#2E3E69"/>
            <stop offset="1" stop-color="#212F5D"/>
        </linearGradient>
        <linearGradient id="paint2_linear" x1="25.316" y1="126.619" x2="179.982" y2="126.619" gradientUnits="userSpaceOnUse">
            <stop stop-color="#2E3E69"/>
            <stop offset="1" stop-color="#212F5D"/>
        </linearGradient>
        <linearGradient id="paint3_linear" x1="28.4638" y1="128.114" x2="187.627" y2="138.406" gradientUnits="userSpaceOnUse">
            <stop stop-color="#213351" stop-opacity="0.4"/>
            <stop offset="0.6453" stop-color="#273957" stop-opacity="0.2709"/>
            <stop offset="1" stop-color="#2D3F5D" stop-opacity="0.2"/>
        </linearGradient>
        <linearGradient id="paint4_linear" x1="40.0091" y1="158.401" x2="183.805" y2="76.425" gradientUnits="userSpaceOnUse">
            <stop stop-color="white"/>
            <stop offset="0.4607" stop-color="#90B0FF"/>
            <stop offset="0.5349" stop-color="#89ABFD"/>
            <stop offset="0.6451" stop-color="#759EF7"/>
            <stop offset="0.7779" stop-color="#5488EE"/>
            <stop offset="0.9269" stop-color="#266AE2"/>
            <stop offset="1" stop-color="#0D5ADB"/>
        </linearGradient>
        <linearGradient id="paint5_linear" x1="39.8729" y1="118.371" x2="166.111" y2="118.371" gradientUnits="userSpaceOnUse">
            <stop stop-color="#36B399"/>
            <stop offset="1" stop-color="#77CA91"/>
        </linearGradient>
        <linearGradient id="paint6_linear" x1="96.9923" y1="50.1644" x2="96.5647" y2="57.8273" gradientUnits="userSpaceOnUse">
            <stop stop-color="#8598B6"/>
            <stop offset="0.3943" stop-color="#66799B"/>
            <stop offset="0.7649" stop-color="#4F6387"/>
            <stop offset="1" stop-color="#475B80"/>
        </linearGradient>
        <linearGradient id="paint7_linear" x1="87.7644" y1="65.598" x2="181.705" y2="43.6078" gradientUnits="userSpaceOnUse">
            <stop stop-color="#C0D2E1"/>
            <stop offset="0.0290399" stop-color="#C4D5E3"/>
            <stop offset="0.2563" stop-color="#DEE7EF"/>
            <stop offset="0.4904" stop-color="#F0F5F8"/>
            <stop offset="0.7336" stop-color="#FBFCFD"/>
            <stop offset="1" stop-color="white"/>
        </linearGradient>
        <radialGradient id="paint8_radial" cx="0" cy="0" r="1" gradientUnits="userSpaceOnUse" gradientTransform="translate(77.8427 47.4349) rotate(-22.3242) scale(11.4114 11.4304)">
            <stop stop-color="white"/>
            <stop offset="1" stop-color="white" stop-opacity="0"/>
        </radialGradient>
        <linearGradient id="paint9_linear" x1="131.89" y1="61.1437" x2="58.1155" y2="49.2775" gradientUnits="userSpaceOnUse">
            <stop stop-color="#475B80"/>
            <stop offset="0.0366022" stop-color="#596C8D"/>
            <stop offset="0.1262" stop-color="#7E8FAA"/>
            <stop offset="0.2231" stop-color="#9EADC3"/>
            <stop offset="0.3275" stop-color="#B8C6D6"/>
            <stop offset="0.4421" stop-color="#CCD9E6"/>
            <stop offset="0.5721" stop-color="#DAE7F1"/>
            <stop offset="0.7309" stop-color="#E3EFF7"/>
            <stop offset="1" stop-color="#E5F1F9"/>
        </linearGradient>
        <linearGradient id="paint10_linear" x1="89.4256" y1="68.9661" x2="89.1037" y2="74.7341" gradientUnits="userSpaceOnUse">
            <stop stop-color="#369280"/>
            <stop offset="1" stop-color="#65B490"/>
        </linearGradient>
        <linearGradient id="paint11_linear" x1="89.5361" y1="95.8332" x2="104.102" y2="75.2315" gradientUnits="userSpaceOnUse">
            <stop offset="0.00119739" stop-color="#A8B5CC"/>
            <stop offset="0.2567" stop-color="#B2BFD4"/>
            <stop offset="0.6948" stop-color="#CEDAE8"/>
            <stop offset="1" stop-color="#E5F1F9"/>
        </linearGradient>
        <linearGradient id="paint12_linear" x1="94.6773" y1="99.4678" x2="109.243" y2="78.8661" gradientUnits="userSpaceOnUse">
            <stop offset="0.00119739" stop-color="#A8B5CC"/>
            <stop offset="0.2567" stop-color="#B2BFD4"/>
            <stop offset="0.6948" stop-color="#CEDAE8"/>
            <stop offset="1" stop-color="#E5F1F9"/>
        </linearGradient>
        <linearGradient id="paint13_linear" x1="89.4666" y1="95.7839" x2="104.032" y2="75.1822" gradientUnits="userSpaceOnUse">
            <stop offset="0.00119739" stop-color="#A8B5CC"/>
            <stop offset="0.2567" stop-color="#B2BFD4"/>
            <stop offset="0.6948" stop-color="#CEDAE8"/>
            <stop offset="1" stop-color="#E5F1F9"/>
        </linearGradient>
        <linearGradient id="paint14_linear" x1="84.7331" y1="92.4374" x2="99.2988" y2="71.8357" gradientUnits="userSpaceOnUse">
            <stop offset="0.00119739" stop-color="#A8B5CC"/>
            <stop offset="0.2567" stop-color="#B2BFD4"/>
            <stop offset="0.6948" stop-color="#CEDAE8"/>
            <stop offset="1" stop-color="#E5F1F9"/>
        </linearGradient>
        <linearGradient id="paint15_linear" x1="84.1142" y1="71.5746" x2="67.3434" y2="62.9887" gradientUnits="userSpaceOnUse">
            <stop stop-color="#475B80"/>
            <stop offset="0.1234" stop-color="#516588"/>
            <stop offset="0.3358" stop-color="#6D7F9D"/>
            <stop offset="0.6117" stop-color="#9AAAC0"/>
            <stop offset="0.9372" stop-color="#D8E5EF"/>
            <stop offset="1" stop-color="#E5F1F9"/>
        </linearGradient>
        <linearGradient id="paint16_linear" x1="135.883" y1="52.0166" x2="132.376" y2="65.3118" gradientUnits="userSpaceOnUse">
            <stop stop-color="#8598B6"/>
            <stop offset="0.3943" stop-color="#66799B"/>
            <stop offset="0.7649" stop-color="#4F6387"/>
            <stop offset="1" stop-color="#475B80"/>
        </linearGradient>
        <linearGradient id="paint17_linear" x1="140.948" y1="51.5418" x2="137.28" y2="65.4462" gradientUnits="userSpaceOnUse">
            <stop stop-color="#8598B6"/>
            <stop offset="0.3943" stop-color="#66799B"/>
            <stop offset="0.7649" stop-color="#4F6387"/>
            <stop offset="1" stop-color="#475B80"/>
        </linearGradient>
        <linearGradient id="paint18_linear" x1="120.557" y1="82.7137" x2="121.545" y2="82.3099" gradientUnits="userSpaceOnUse">
            <stop stop-color="#879AB6"/>
            <stop offset="1" stop-color="#C5CEFF"/>
        </linearGradient>
        <linearGradient id="paint19_linear" x1="102.093" y1="43.1038" x2="98.5865" y2="56.399" gradientUnits="userSpaceOnUse">
            <stop stop-color="#8598B6"/>
            <stop offset="0.3943" stop-color="#66799B"/>
            <stop offset="0.7649" stop-color="#4F6387"/>
            <stop offset="1" stop-color="#475B80"/>
        </linearGradient>
        <linearGradient id="paint20_linear" x1="109.473" y1="45.0503" x2="105.966" y2="58.3456" gradientUnits="userSpaceOnUse">
            <stop stop-color="#8598B6"/>
            <stop offset="0.3943" stop-color="#66799B"/>
            <stop offset="0.7649" stop-color="#4F6387"/>
            <stop offset="1" stop-color="#475B80"/>
        </linearGradient>
        <linearGradient id="paint21_linear" x1="115.12" y1="46.5398" x2="111.613" y2="59.835" gradientUnits="userSpaceOnUse">
            <stop stop-color="#8598B6"/>
            <stop offset="0.3943" stop-color="#66799B"/>
            <stop offset="0.7649" stop-color="#4F6387"/>
            <stop offset="1" stop-color="#475B80"/>
        </linearGradient>
        <linearGradient id="paint22_linear" x1="101.532" y1="104.314" x2="116.097" y2="83.7123" gradientUnits="userSpaceOnUse">
            <stop offset="0.00119739" stop-color="#A8B5CC"/>
            <stop offset="0.2567" stop-color="#B2BFD4"/>
            <stop offset="0.6948" stop-color="#CEDAE8"/>
            <stop offset="1" stop-color="#E5F1F9"/>
        </linearGradient>
        <linearGradient id="paint23_linear" x1="128.61" y1="50.0981" x2="125.103" y2="63.3933" gradientUnits="userSpaceOnUse">
            <stop stop-color="#8598B6"/>
            <stop offset="0.3943" stop-color="#66799B"/>
            <stop offset="0.7649" stop-color="#4F6387"/>
            <stop offset="1" stop-color="#475B80"/>
        </linearGradient>
        <linearGradient id="paint24_linear" x1="120.355" y1="83.492" x2="120.252" y2="85.3297" gradientUnits="userSpaceOnUse">
            <stop stop-color="#369280"/>
            <stop offset="1" stop-color="#65B490"/>
        </linearGradient>
        <linearGradient id="paint25_linear" x1="107.997" y1="108.885" x2="122.563" y2="88.2834" gradientUnits="userSpaceOnUse">
            <stop offset="0.00119739" stop-color="#A8B5CC"/>
            <stop offset="0.2567" stop-color="#B2BFD4"/>
            <stop offset="0.6948" stop-color="#CEDAE8"/>
            <stop offset="1" stop-color="#E5F1F9"/>
        </linearGradient>
        <linearGradient id="paint26_linear" x1="127.776" y1="88.6652" x2="130.183" y2="87.6812" gradientUnits="userSpaceOnUse">
            <stop stop-color="#879AB6"/>
            <stop offset="1" stop-color="#C5CEFF"/>
        </linearGradient>
        <linearGradient id="paint27_linear" x1="75.9363" y1="49.0945" x2="68.4817" y2="45.5666" gradientUnits="userSpaceOnUse">
            <stop stop-color="#475B80"/>
            <stop offset="0.1234" stop-color="#516588"/>
            <stop offset="0.3358" stop-color="#6D7F9D"/>
            <stop offset="0.6117" stop-color="#9AAAC0"/>
            <stop offset="0.9372" stop-color="#D8E5EF"/>
            <stop offset="1" stop-color="#E5F1F9"/>
        </linearGradient>
        <linearGradient id="paint28_linear" x1="144.122" y1="88.1941" x2="87.6563" y2="60.3682" gradientUnits="userSpaceOnUse">
            <stop stop-color="#475B80"/>
            <stop offset="0.1234" stop-color="#516588"/>
            <stop offset="0.3358" stop-color="#6D7F9D"/>
            <stop offset="0.6117" stop-color="#9AAAC0"/>
            <stop offset="0.9372" stop-color="#D8E5EF"/>
            <stop offset="1" stop-color="#E5F1F9"/>
        </linearGradient>
        <linearGradient id="paint29_linear" x1="97.0604" y1="59.1486" x2="88.7893" y2="73.8326" gradientUnits="userSpaceOnUse">
            <stop stop-color="#879AB6"/>
            <stop offset="1" stop-color="#C5CEFF"/>
        </linearGradient>
        <linearGradient id="paint30_linear" x1="97.4505" y1="59.3679" x2="89.1806" y2="74.0538" gradientUnits="userSpaceOnUse">
            <stop stop-color="#879AB6"/>
            <stop offset="1" stop-color="#C5CEFF"/>
        </linearGradient>
        <linearGradient id="paint31_linear" x1="98.1026" y1="59.7352" x2="89.8325" y2="74.4209" gradientUnits="userSpaceOnUse">
            <stop stop-color="#879AB6"/>
            <stop offset="1" stop-color="#C5CEFF"/>
        </linearGradient>
        <linearGradient id="paint32_linear" x1="98.8675" y1="60.1661" x2="90.5975" y2="74.8518" gradientUnits="userSpaceOnUse">
            <stop stop-color="#879AB6"/>
            <stop offset="1" stop-color="#C5CEFF"/>
        </linearGradient>
        <linearGradient id="paint33_linear" x1="99.6324" y1="60.597" x2="91.3624" y2="75.2827" gradientUnits="userSpaceOnUse">
            <stop stop-color="#879AB6"/>
            <stop offset="1" stop-color="#C5CEFF"/>
        </linearGradient>
        <linearGradient id="paint34_linear" x1="100.398" y1="61.0278" x2="92.1284" y2="75.7137" gradientUnits="userSpaceOnUse">
            <stop stop-color="#879AB6"/>
            <stop offset="1" stop-color="#C5CEFF"/>
        </linearGradient>
        <linearGradient id="paint35_linear" x1="101.163" y1="61.4587" x2="92.8933" y2="76.1446" gradientUnits="userSpaceOnUse">
            <stop stop-color="#879AB6"/>
            <stop offset="1" stop-color="#C5CEFF"/>
        </linearGradient>
        <linearGradient id="paint36_linear" x1="101.928" y1="61.8896" x2="93.6581" y2="76.5755" gradientUnits="userSpaceOnUse">
            <stop stop-color="#879AB6"/>
            <stop offset="1" stop-color="#C5CEFF"/>
        </linearGradient>
        <linearGradient id="paint37_linear" x1="102.693" y1="62.3204" x2="94.423" y2="77.0063" gradientUnits="userSpaceOnUse">
            <stop stop-color="#879AB6"/>
            <stop offset="1" stop-color="#C5CEFF"/>
        </linearGradient>
        <linearGradient id="paint38_linear" x1="103.459" y1="62.7513" x2="95.1888" y2="77.4371" gradientUnits="userSpaceOnUse">
            <stop stop-color="#879AB6"/>
            <stop offset="1" stop-color="#C5CEFF"/>
        </linearGradient>
        <linearGradient id="paint39_linear" x1="104.224" y1="63.1822" x2="95.9538" y2="77.868" gradientUnits="userSpaceOnUse">
            <stop stop-color="#879AB6"/>
            <stop offset="1" stop-color="#C5CEFF"/>
        </linearGradient>
        <linearGradient id="paint40_linear" x1="104.989" y1="63.6131" x2="96.719" y2="78.2992" gradientUnits="userSpaceOnUse">
            <stop stop-color="#879AB6"/>
            <stop offset="1" stop-color="#C5CEFF"/>
        </linearGradient>
        <linearGradient id="paint41_linear" x1="105.754" y1="64.0439" x2="97.4837" y2="78.7298" gradientUnits="userSpaceOnUse">
            <stop stop-color="#879AB6"/>
            <stop offset="1" stop-color="#C5CEFF"/>
        </linearGradient>
        <linearGradient id="paint42_linear" x1="106.52" y1="64.4748" x2="98.2497" y2="79.1608" gradientUnits="userSpaceOnUse">
            <stop stop-color="#879AB6"/>
            <stop offset="1" stop-color="#C5CEFF"/>
        </linearGradient>
        <linearGradient id="paint43_linear" x1="107.284" y1="64.9057" x2="99.0144" y2="79.5915" gradientUnits="userSpaceOnUse">
            <stop stop-color="#879AB6"/>
            <stop offset="1" stop-color="#C5CEFF"/>
        </linearGradient>
        <linearGradient id="paint44_linear" x1="108.049" y1="65.3365" x2="99.7791" y2="80.0222" gradientUnits="userSpaceOnUse">
            <stop stop-color="#879AB6"/>
            <stop offset="1" stop-color="#C5CEFF"/>
        </linearGradient>
        <linearGradient id="paint45_linear" x1="108.814" y1="65.7674" x2="100.544" y2="80.4531" gradientUnits="userSpaceOnUse">
            <stop stop-color="#879AB6"/>
            <stop offset="1" stop-color="#C5CEFF"/>
        </linearGradient>
        <linearGradient id="paint46_linear" x1="109.579" y1="66.1983" x2="101.309" y2="80.8841" gradientUnits="userSpaceOnUse">
            <stop stop-color="#879AB6"/>
            <stop offset="1" stop-color="#C5CEFF"/>
        </linearGradient>
        <linearGradient id="paint47_linear" x1="110.345" y1="66.6291" x2="102.075" y2="81.3151" gradientUnits="userSpaceOnUse">
            <stop stop-color="#879AB6"/>
            <stop offset="1" stop-color="#C5CEFF"/>
        </linearGradient>
        <linearGradient id="paint48_linear" x1="111.11" y1="67.06" x2="102.84" y2="81.746" gradientUnits="userSpaceOnUse">
            <stop stop-color="#879AB6"/>
            <stop offset="1" stop-color="#C5CEFF"/>
        </linearGradient>
        <linearGradient id="paint49_linear" x1="111.875" y1="67.4909" x2="103.605" y2="82.1769" gradientUnits="userSpaceOnUse">
            <stop stop-color="#879AB6"/>
            <stop offset="1" stop-color="#C5CEFF"/>
        </linearGradient>
        <linearGradient id="paint50_linear" x1="112.641" y1="67.9217" x2="104.371" y2="82.6077" gradientUnits="userSpaceOnUse">
            <stop stop-color="#879AB6"/>
            <stop offset="1" stop-color="#C5CEFF"/>
        </linearGradient>
        <linearGradient id="paint51_linear" x1="113.405" y1="68.3526" x2="105.135" y2="83.0383" gradientUnits="userSpaceOnUse">
            <stop stop-color="#879AB6"/>
            <stop offset="1" stop-color="#C5CEFF"/>
        </linearGradient>
        <linearGradient id="paint52_linear" x1="114.171" y1="68.7835" x2="105.9" y2="83.4691" gradientUnits="userSpaceOnUse">
            <stop stop-color="#879AB6"/>
            <stop offset="1" stop-color="#C5CEFF"/>
        </linearGradient>
        <linearGradient id="paint53_linear" x1="114.936" y1="69.2144" x2="106.666" y2="83.9003" gradientUnits="userSpaceOnUse">
            <stop stop-color="#879AB6"/>
            <stop offset="1" stop-color="#C5CEFF"/>
        </linearGradient>
        <linearGradient id="paint54_linear" x1="115.701" y1="69.6453" x2="107.431" y2="84.3314" gradientUnits="userSpaceOnUse">
            <stop stop-color="#879AB6"/>
            <stop offset="1" stop-color="#C5CEFF"/>
        </linearGradient>
        <linearGradient id="paint55_linear" x1="116.465" y1="70.0761" x2="108.196" y2="84.7621" gradientUnits="userSpaceOnUse">
            <stop stop-color="#879AB6"/>
            <stop offset="1" stop-color="#C5CEFF"/>
        </linearGradient>
        <linearGradient id="paint56_linear" x1="117.231" y1="70.507" x2="108.961" y2="85.193" gradientUnits="userSpaceOnUse">
            <stop stop-color="#879AB6"/>
            <stop offset="1" stop-color="#C5CEFF"/>
        </linearGradient>
        <linearGradient id="paint57_linear" x1="117.996" y1="70.9378" x2="109.726" y2="85.6235" gradientUnits="userSpaceOnUse">
            <stop stop-color="#879AB6"/>
            <stop offset="1" stop-color="#C5CEFF"/>
        </linearGradient>
        <linearGradient id="paint58_linear" x1="118.761" y1="71.3687" x2="110.491" y2="86.0544" gradientUnits="userSpaceOnUse">
            <stop stop-color="#879AB6"/>
            <stop offset="1" stop-color="#C5CEFF"/>
        </linearGradient>
        <linearGradient id="paint59_linear" x1="119.526" y1="71.7996" x2="111.256" y2="86.4856" gradientUnits="userSpaceOnUse">
            <stop stop-color="#879AB6"/>
            <stop offset="1" stop-color="#C5CEFF"/>
        </linearGradient>
        <linearGradient id="paint60_linear" x1="120.292" y1="72.2304" x2="112.022" y2="86.9163" gradientUnits="userSpaceOnUse">
            <stop stop-color="#879AB6"/>
            <stop offset="1" stop-color="#C5CEFF"/>
        </linearGradient>
        <linearGradient id="paint61_linear" x1="121.057" y1="72.6613" x2="112.787" y2="87.3473" gradientUnits="userSpaceOnUse">
            <stop stop-color="#879AB6"/>
            <stop offset="1" stop-color="#C5CEFF"/>
        </linearGradient>
        <linearGradient id="paint62_linear" x1="121.822" y1="73.0922" x2="113.552" y2="87.7781" gradientUnits="userSpaceOnUse">
            <stop stop-color="#879AB6"/>
            <stop offset="1" stop-color="#C5CEFF"/>
        </linearGradient>
        <linearGradient id="paint63_linear" x1="122.588" y1="73.5231" x2="114.318" y2="88.209" gradientUnits="userSpaceOnUse">
            <stop stop-color="#879AB6"/>
            <stop offset="1" stop-color="#C5CEFF"/>
        </linearGradient>
        <linearGradient id="paint64_linear" x1="123.353" y1="73.9539" x2="115.082" y2="88.6398" gradientUnits="userSpaceOnUse">
            <stop stop-color="#879AB6"/>
            <stop offset="1" stop-color="#C5CEFF"/>
        </linearGradient>
        <linearGradient id="paint65_linear" x1="124.117" y1="74.3848" x2="115.847" y2="89.0705" gradientUnits="userSpaceOnUse">
            <stop stop-color="#879AB6"/>
            <stop offset="1" stop-color="#C5CEFF"/>
        </linearGradient>
        <linearGradient id="paint66_linear" x1="124.882" y1="74.8157" x2="116.612" y2="89.5016" gradientUnits="userSpaceOnUse">
            <stop stop-color="#879AB6"/>
            <stop offset="1" stop-color="#C5CEFF"/>
        </linearGradient>
        <linearGradient id="paint67_linear" x1="125.647" y1="75.2466" x2="117.377" y2="89.9325" gradientUnits="userSpaceOnUse">
            <stop stop-color="#879AB6"/>
            <stop offset="1" stop-color="#C5CEFF"/>
        </linearGradient>
        <linearGradient id="paint68_linear" x1="126.413" y1="75.6774" x2="118.143" y2="90.3634" gradientUnits="userSpaceOnUse">
            <stop stop-color="#879AB6"/>
            <stop offset="1" stop-color="#C5CEFF"/>
        </linearGradient>
        <linearGradient id="paint69_linear" x1="127.178" y1="76.1083" x2="118.908" y2="90.7941" gradientUnits="userSpaceOnUse">
            <stop stop-color="#879AB6"/>
            <stop offset="1" stop-color="#C5CEFF"/>
        </linearGradient>
        <linearGradient id="paint70_linear" x1="127.943" y1="76.5392" x2="119.673" y2="91.2249" gradientUnits="userSpaceOnUse">
            <stop stop-color="#879AB6"/>
            <stop offset="1" stop-color="#C5CEFF"/>
        </linearGradient>
        <linearGradient id="paint71_linear" x1="128.708" y1="76.97" x2="120.437" y2="91.6556" gradientUnits="userSpaceOnUse">
            <stop stop-color="#879AB6"/>
            <stop offset="1" stop-color="#C5CEFF"/>
        </linearGradient>
        <linearGradient id="paint72_linear" x1="129.473" y1="77.4009" x2="121.203" y2="92.0866" gradientUnits="userSpaceOnUse">
            <stop stop-color="#879AB6"/>
            <stop offset="1" stop-color="#C5CEFF"/>
        </linearGradient>
        <linearGradient id="paint73_linear" x1="130.126" y1="77.7683" x2="121.856" y2="92.4542" gradientUnits="userSpaceOnUse">
            <stop stop-color="#879AB6"/>
            <stop offset="1" stop-color="#C5CEFF"/>
        </linearGradient>
        <linearGradient id="paint74_linear" x1="130.515" y1="77.9876" x2="122.244" y2="92.6724" gradientUnits="userSpaceOnUse">
            <stop stop-color="#879AB6"/>
            <stop offset="1" stop-color="#C5CEFF"/>
        </linearGradient>
        <linearGradient id="paint75_linear" x1="143.379" y1="89.691" x2="86.92" y2="61.8687" gradientUnits="userSpaceOnUse">
            <stop stop-color="#475B80"/>
            <stop offset="0.1234" stop-color="#516588"/>
            <stop offset="0.3358" stop-color="#6D7F9D"/>
            <stop offset="0.6117" stop-color="#9AAAC0"/>
            <stop offset="0.9372" stop-color="#D8E5EF"/>
            <stop offset="1" stop-color="#E5F1F9"/>
        </linearGradient>
        <linearGradient id="paint76_linear" x1="96.3361" y1="61.2054" x2="88.5138" y2="75.4013" gradientUnits="userSpaceOnUse">
            <stop stop-color="#879AB6"/>
            <stop offset="1" stop-color="#C5CEFF"/>
        </linearGradient>
        <linearGradient id="paint77_linear" x1="96.7093" y1="61.4262" x2="88.9401" y2="75.5293" gradientUnits="userSpaceOnUse">
            <stop stop-color="#879AB6"/>
            <stop offset="1" stop-color="#C5CEFF"/>
        </linearGradient>
        <linearGradient id="paint78_linear" x1="97.3457" y1="61.7794" x2="89.6004" y2="75.8384" gradientUnits="userSpaceOnUse">
            <stop stop-color="#879AB6"/>
            <stop offset="1" stop-color="#C5CEFF"/>
        </linearGradient>
        <linearGradient id="paint79_linear" x1="98.0935" y1="62.1835" x2="90.3484" y2="76.2426" gradientUnits="userSpaceOnUse">
            <stop stop-color="#879AB6"/>
            <stop offset="1" stop-color="#C5CEFF"/>
        </linearGradient>
        <linearGradient id="paint80_linear" x1="98.8424" y1="62.5875" x2="91.0971" y2="76.6465" gradientUnits="userSpaceOnUse">
            <stop stop-color="#879AB6"/>
            <stop offset="1" stop-color="#C5CEFF"/>
        </linearGradient>
        <linearGradient id="paint81_linear" x1="99.5902" y1="62.9915" x2="91.845" y2="77.0505" gradientUnits="userSpaceOnUse">
            <stop stop-color="#879AB6"/>
            <stop offset="1" stop-color="#C5CEFF"/>
        </linearGradient>
        <linearGradient id="paint82_linear" x1="100.338" y1="63.3955" x2="92.5928" y2="77.4544" gradientUnits="userSpaceOnUse">
            <stop stop-color="#879AB6"/>
            <stop offset="1" stop-color="#C5CEFF"/>
        </linearGradient>
        <linearGradient id="paint83_linear" x1="101.086" y1="63.7995" x2="93.3409" y2="77.8588" gradientUnits="userSpaceOnUse">
            <stop stop-color="#879AB6"/>
            <stop offset="1" stop-color="#C5CEFF"/>
        </linearGradient>
        <linearGradient id="paint84_linear" x1="101.835" y1="64.2035" x2="94.0896" y2="78.2626" gradientUnits="userSpaceOnUse">
            <stop stop-color="#879AB6"/>
            <stop offset="1" stop-color="#C5CEFF"/>
        </linearGradient>
        <linearGradient id="paint85_linear" x1="102.583" y1="64.6076" x2="94.8375" y2="78.6667" gradientUnits="userSpaceOnUse">
            <stop stop-color="#879AB6"/>
            <stop offset="1" stop-color="#C5CEFF"/>
        </linearGradient>
        <linearGradient id="paint86_linear" x1="103.33" y1="65.0115" x2="95.5851" y2="79.0704" gradientUnits="userSpaceOnUse">
            <stop stop-color="#879AB6"/>
            <stop offset="1" stop-color="#C5CEFF"/>
        </linearGradient>
        <linearGradient id="paint87_linear" x1="104.078" y1="65.4156" x2="96.3331" y2="79.4745" gradientUnits="userSpaceOnUse">
            <stop stop-color="#879AB6"/>
            <stop offset="1" stop-color="#C5CEFF"/>
        </linearGradient>
        <linearGradient id="paint88_linear" x1="104.827" y1="65.8196" x2="97.0821" y2="79.8787" gradientUnits="userSpaceOnUse">
            <stop stop-color="#879AB6"/>
            <stop offset="1" stop-color="#C5CEFF"/>
        </linearGradient>
        <linearGradient id="paint89_linear" x1="105.575" y1="66.2236" x2="97.8296" y2="80.2826" gradientUnits="userSpaceOnUse">
            <stop stop-color="#879AB6"/>
            <stop offset="1" stop-color="#C5CEFF"/>
        </linearGradient>
        <linearGradient id="paint90_linear" x1="106.323" y1="66.6277" x2="98.5776" y2="80.6865" gradientUnits="userSpaceOnUse">
            <stop stop-color="#879AB6"/>
            <stop offset="1" stop-color="#C5CEFF"/>
        </linearGradient>
        <linearGradient id="paint91_linear" x1="107.071" y1="67.0316" x2="99.3254" y2="81.0907" gradientUnits="userSpaceOnUse">
            <stop stop-color="#879AB6"/>
            <stop offset="1" stop-color="#C5CEFF"/>
        </linearGradient>
        <linearGradient id="paint92_linear" x1="107.82" y1="67.4357" x2="100.074" y2="81.4945" gradientUnits="userSpaceOnUse">
            <stop stop-color="#879AB6"/>
            <stop offset="1" stop-color="#C5CEFF"/>
        </linearGradient>
        <linearGradient id="paint93_linear" x1="108.567" y1="67.8397" x2="100.822" y2="81.8987" gradientUnits="userSpaceOnUse">
            <stop stop-color="#879AB6"/>
            <stop offset="1" stop-color="#C5CEFF"/>
        </linearGradient>
        <linearGradient id="paint94_linear" x1="109.315" y1="68.2437" x2="101.57" y2="82.3029" gradientUnits="userSpaceOnUse">
            <stop stop-color="#879AB6"/>
            <stop offset="1" stop-color="#C5CEFF"/>
        </linearGradient>
        <linearGradient id="paint95_linear" x1="110.063" y1="68.6477" x2="102.318" y2="82.7065" gradientUnits="userSpaceOnUse">
            <stop stop-color="#879AB6"/>
            <stop offset="1" stop-color="#C5CEFF"/>
        </linearGradient>
        <linearGradient id="paint96_linear" x1="110.812" y1="69.0517" x2="103.067" y2="83.1109" gradientUnits="userSpaceOnUse">
            <stop stop-color="#879AB6"/>
            <stop offset="1" stop-color="#C5CEFF"/>
        </linearGradient>
        <linearGradient id="paint97_linear" x1="111.56" y1="69.4557" x2="103.814" y2="83.5145" gradientUnits="userSpaceOnUse">
            <stop stop-color="#879AB6"/>
            <stop offset="1" stop-color="#C5CEFF"/>
        </linearGradient>
        <linearGradient id="paint98_linear" x1="112.308" y1="69.8597" x2="104.563" y2="83.9189" gradientUnits="userSpaceOnUse">
            <stop stop-color="#879AB6"/>
            <stop offset="1" stop-color="#C5CEFF"/>
        </linearGradient>
        <linearGradient id="paint99_linear" x1="113.057" y1="70.2638" x2="105.311" y2="84.3229" gradientUnits="userSpaceOnUse">
            <stop stop-color="#879AB6"/>
            <stop offset="1" stop-color="#C5CEFF"/>
        </linearGradient>
        <linearGradient id="paint100_linear" x1="113.804" y1="70.6678" x2="106.059" y2="84.7267" gradientUnits="userSpaceOnUse">
            <stop stop-color="#879AB6"/>
            <stop offset="1" stop-color="#C5CEFF"/>
        </linearGradient>
        <linearGradient id="paint101_linear" x1="114.552" y1="71.0718" x2="106.807" y2="85.131" gradientUnits="userSpaceOnUse">
            <stop stop-color="#879AB6"/>
            <stop offset="1" stop-color="#C5CEFF"/>
        </linearGradient>
        <linearGradient id="paint102_linear" x1="115.3" y1="71.4758" x2="107.555" y2="85.5352" gradientUnits="userSpaceOnUse">
            <stop stop-color="#879AB6"/>
            <stop offset="1" stop-color="#C5CEFF"/>
        </linearGradient>
        <linearGradient id="paint103_linear" x1="116.049" y1="71.8798" x2="108.304" y2="85.9389" gradientUnits="userSpaceOnUse">
            <stop stop-color="#879AB6"/>
            <stop offset="1" stop-color="#C5CEFF"/>
        </linearGradient>
        <linearGradient id="paint104_linear" x1="116.797" y1="72.2839" x2="109.052" y2="86.3429" gradientUnits="userSpaceOnUse">
            <stop stop-color="#879AB6"/>
            <stop offset="1" stop-color="#C5CEFF"/>
        </linearGradient>
        <linearGradient id="paint105_linear" x1="117.545" y1="72.6878" x2="109.799" y2="86.747" gradientUnits="userSpaceOnUse">
            <stop stop-color="#879AB6"/>
            <stop offset="1" stop-color="#C5CEFF"/>
        </linearGradient>
        <linearGradient id="paint106_linear" x1="118.293" y1="73.0919" x2="110.548" y2="87.1509" gradientUnits="userSpaceOnUse">
            <stop stop-color="#879AB6"/>
            <stop offset="1" stop-color="#C5CEFF"/>
        </linearGradient>
        <linearGradient id="paint107_linear" x1="119.041" y1="73.4959" x2="111.296" y2="87.5549" gradientUnits="userSpaceOnUse">
            <stop stop-color="#879AB6"/>
            <stop offset="1" stop-color="#C5CEFF"/>
        </linearGradient>
        <linearGradient id="paint108_linear" x1="119.789" y1="73.8999" x2="112.044" y2="87.959" gradientUnits="userSpaceOnUse">
            <stop stop-color="#879AB6"/>
            <stop offset="1" stop-color="#C5CEFF"/>
        </linearGradient>
        <linearGradient id="paint109_linear" x1="120.537" y1="74.3039" x2="112.792" y2="88.3628" gradientUnits="userSpaceOnUse">
            <stop stop-color="#879AB6"/>
            <stop offset="1" stop-color="#C5CEFF"/>
        </linearGradient>
        <linearGradient id="paint110_linear" x1="121.286" y1="74.7079" x2="113.541" y2="88.7671" gradientUnits="userSpaceOnUse">
            <stop stop-color="#879AB6"/>
            <stop offset="1" stop-color="#C5CEFF"/>
        </linearGradient>
        <linearGradient id="paint111_linear" x1="122.034" y1="75.1119" x2="114.289" y2="89.1711" gradientUnits="userSpaceOnUse">
            <stop stop-color="#879AB6"/>
            <stop offset="1" stop-color="#C5CEFF"/>
        </linearGradient>
        <linearGradient id="paint112_linear" x1="122.782" y1="75.5159" x2="115.036" y2="89.5749" gradientUnits="userSpaceOnUse">
            <stop stop-color="#879AB6"/>
            <stop offset="1" stop-color="#C5CEFF"/>
        </linearGradient>
        <linearGradient id="paint113_linear" x1="123.529" y1="75.92" x2="115.784" y2="89.9788" gradientUnits="userSpaceOnUse">
            <stop stop-color="#879AB6"/>
            <stop offset="1" stop-color="#C5CEFF"/>
        </linearGradient>
        <linearGradient id="paint114_linear" x1="124.278" y1="76.324" x2="116.533" y2="90.383" gradientUnits="userSpaceOnUse">
            <stop stop-color="#879AB6"/>
            <stop offset="1" stop-color="#C5CEFF"/>
        </linearGradient>
        <linearGradient id="paint115_linear" x1="125.026" y1="76.728" x2="117.281" y2="90.7868" gradientUnits="userSpaceOnUse">
            <stop stop-color="#879AB6"/>
            <stop offset="1" stop-color="#C5CEFF"/>
        </linearGradient>
        <linearGradient id="paint116_linear" x1="125.774" y1="77.132" x2="118.029" y2="91.1911" gradientUnits="userSpaceOnUse">
            <stop stop-color="#879AB6"/>
            <stop offset="1" stop-color="#C5CEFF"/>
        </linearGradient>
        <linearGradient id="paint117_linear" x1="126.522" y1="77.5361" x2="118.777" y2="91.5949" gradientUnits="userSpaceOnUse">
            <stop stop-color="#879AB6"/>
            <stop offset="1" stop-color="#C5CEFF"/>
        </linearGradient>
        <linearGradient id="paint118_linear" x1="127.271" y1="77.94" x2="119.525" y2="91.9991" gradientUnits="userSpaceOnUse">
            <stop stop-color="#879AB6"/>
            <stop offset="1" stop-color="#C5CEFF"/>
        </linearGradient>
        <linearGradient id="paint119_linear" x1="128.018" y1="78.3441" x2="120.273" y2="92.403" gradientUnits="userSpaceOnUse">
            <stop stop-color="#879AB6"/>
            <stop offset="1" stop-color="#C5CEFF"/>
        </linearGradient>
        <linearGradient id="paint120_linear" x1="128.666" y1="78.6757" x2="120.897" y2="92.7785" gradientUnits="userSpaceOnUse">
            <stop stop-color="#879AB6"/>
            <stop offset="1" stop-color="#C5CEFF"/>
        </linearGradient>
        <linearGradient id="paint121_linear" x1="129.064" y1="78.8501" x2="121.243" y2="93.046" gradientUnits="userSpaceOnUse">
            <stop stop-color="#879AB6"/>
            <stop offset="1" stop-color="#C5CEFF"/>
        </linearGradient>
        <linearGradient id="paint122_linear" x1="13.9649" y1="124.868" x2="151.829" y2="133.783" gradientUnits="userSpaceOnUse">
            <stop stop-color="#36B399"/>
            <stop offset="1" stop-color="#22807A"/>
        </linearGradient>
        <linearGradient id="paint123_linear" x1="42.2194" y1="129.348" x2="44.7658" y2="129.348" gradientUnits="userSpaceOnUse">
            <stop stop-color="#2E3E69"/>
            <stop offset="1" stop-color="#212F5D"/>
        </linearGradient>
        <linearGradient id="paint124_linear" x1="47.6659" y1="133.136" x2="50.2122" y2="133.136" gradientUnits="userSpaceOnUse">
            <stop stop-color="#2E3E69"/>
            <stop offset="1" stop-color="#212F5D"/>
        </linearGradient>
        <linearGradient id="paint125_linear" x1="53.1092" y1="135.617" x2="55.6556" y2="135.617" gradientUnits="userSpaceOnUse">
            <stop stop-color="#2E3E69"/>
            <stop offset="1" stop-color="#212F5D"/>
        </linearGradient>
        <linearGradient id="paint126_linear" x1="58.5524" y1="137.485" x2="61.102" y2="137.485" gradientUnits="userSpaceOnUse">
            <stop stop-color="#2E3E69"/>
            <stop offset="1" stop-color="#212F5D"/>
        </linearGradient>
        <linearGradient id="paint127_linear" x1="63.9989" y1="138.958" x2="66.5452" y2="138.958" gradientUnits="userSpaceOnUse">
            <stop stop-color="#2E3E69"/>
            <stop offset="1" stop-color="#212F5D"/>
        </linearGradient>
        <linearGradient id="paint128_linear" x1="69.4412" y1="140.132" x2="71.9908" y2="140.132" gradientUnits="userSpaceOnUse">
            <stop stop-color="#2E3E69"/>
            <stop offset="1" stop-color="#212F5D"/>
        </linearGradient>
        <linearGradient id="paint129_linear" x1="74.8887" y1="141.067" x2="77.435" y2="141.067" gradientUnits="userSpaceOnUse">
            <stop stop-color="#2E3E69"/>
            <stop offset="1" stop-color="#212F5D"/>
        </linearGradient>
        <linearGradient id="paint130_linear" x1="80.331" y1="141.794" x2="82.8774" y2="141.794" gradientUnits="userSpaceOnUse">
            <stop stop-color="#2E3E69"/>
            <stop offset="1" stop-color="#212F5D"/>
        </linearGradient>
        <linearGradient id="paint131_linear" x1="85.7774" y1="142.337" x2="88.3238" y2="142.337" gradientUnits="userSpaceOnUse">
            <stop stop-color="#2E3E69"/>
            <stop offset="1" stop-color="#212F5D"/>
        </linearGradient>
        <linearGradient id="paint132_linear" x1="91.2207" y1="142.712" x2="93.767" y2="142.712" gradientUnits="userSpaceOnUse">
            <stop stop-color="#2E3E69"/>
            <stop offset="1" stop-color="#212F5D"/>
        </linearGradient>
        <linearGradient id="paint133_linear" x1="96.6672" y1="142.928" x2="99.2136" y2="142.928" gradientUnits="userSpaceOnUse">
            <stop stop-color="#2E3E69"/>
            <stop offset="1" stop-color="#212F5D"/>
        </linearGradient>
        <linearGradient id="paint134_linear" x1="102.11" y1="142.994" x2="104.657" y2="142.994" gradientUnits="userSpaceOnUse">
            <stop stop-color="#2E3E69"/>
            <stop offset="1" stop-color="#212F5D"/>
        </linearGradient>
        <linearGradient id="paint135_linear" x1="107.554" y1="142.909" x2="110.103" y2="142.909" gradientUnits="userSpaceOnUse">
            <stop stop-color="#2E3E69"/>
            <stop offset="1" stop-color="#212F5D"/>
        </linearGradient>
        <linearGradient id="paint136_linear" x1="113" y1="142.669" x2="115.547" y2="142.669" gradientUnits="userSpaceOnUse">
            <stop stop-color="#2E3E69"/>
            <stop offset="1" stop-color="#212F5D"/>
        </linearGradient>
        <linearGradient id="paint137_linear" x1="118.443" y1="142.272" x2="120.99" y2="142.272" gradientUnits="userSpaceOnUse">
            <stop stop-color="#2E3E69"/>
            <stop offset="1" stop-color="#212F5D"/>
        </linearGradient>
        <linearGradient id="paint138_linear" x1="123.89" y1="141.703" x2="126.436" y2="141.703" gradientUnits="userSpaceOnUse">
            <stop stop-color="#2E3E69"/>
            <stop offset="1" stop-color="#212F5D"/>
        </linearGradient>
        <linearGradient id="paint139_linear" x1="129.332" y1="140.948" x2="131.879" y2="140.948" gradientUnits="userSpaceOnUse">
            <stop stop-color="#2E3E69"/>
            <stop offset="1" stop-color="#212F5D"/>
        </linearGradient>
        <linearGradient id="paint140_linear" x1="134.779" y1="139.979" x2="137.325" y2="139.979" gradientUnits="userSpaceOnUse">
            <stop stop-color="#2E3E69"/>
            <stop offset="1" stop-color="#212F5D"/>
        </linearGradient>
        <linearGradient id="paint141_linear" x1="140.222" y1="138.766" x2="142.768" y2="138.766" gradientUnits="userSpaceOnUse">
            <stop stop-color="#2E3E69"/>
            <stop offset="1" stop-color="#212F5D"/>
        </linearGradient>
        <linearGradient id="paint142_linear" x1="145.665" y1="137.245" x2="148.215" y2="137.245" gradientUnits="userSpaceOnUse">
            <stop stop-color="#2E3E69"/>
            <stop offset="1" stop-color="#212F5D"/>
        </linearGradient>
        <linearGradient id="paint143_linear" x1="151.112" y1="135.303" x2="153.658" y2="135.303" gradientUnits="userSpaceOnUse">
            <stop stop-color="#2E3E69"/>
            <stop offset="1" stop-color="#212F5D"/>
        </linearGradient>
        <linearGradient id="paint144_linear" x1="156.555" y1="132.699" x2="159.105" y2="132.699" gradientUnits="userSpaceOnUse">
            <stop stop-color="#2E3E69"/>
            <stop offset="1" stop-color="#212F5D"/>
        </linearGradient>
        <linearGradient id="paint145_linear" x1="162.001" y1="128.531" x2="164.548" y2="128.531" gradientUnits="userSpaceOnUse">
            <stop stop-color="#2E3E69"/>
            <stop offset="1" stop-color="#212F5D"/>
        </linearGradient>
        <linearGradient id="paint146_linear" x1="0.250422" y1="127.539" x2="26.6025" y2="127.539" gradientUnits="userSpaceOnUse">
            <stop stop-color="#2E3E69"/>
            <stop offset="1" stop-color="#212F5D"/>
        </linearGradient>
        <linearGradient id="paint147_linear" x1="146.586" y1="154.241" x2="152.242" y2="154.241" gradientUnits="userSpaceOnUse">
            <stop stop-color="#2E3E69"/>
            <stop offset="1" stop-color="#212F5D"/>
        </linearGradient>
        <linearGradient id="paint148_linear" x1="92.8858" y1="111.411" x2="113.585" y2="111.411" gradientUnits="userSpaceOnUse">
            <stop stop-color="#2E3E69"/>
            <stop offset="1" stop-color="#212F5D"/>
        </linearGradient>
        <radialGradient id="paint149_radial" cx="0" cy="0" r="1" gradientUnits="userSpaceOnUse" gradientTransform="translate(152.893 65.7049) scale(101.598 101.836)">
            <stop offset="0.1795" stop-color="white" stop-opacity="0.1"/>
            <stop offset="0.5028" stop-color="#D7E2FC" stop-opacity="0.3"/>
            <stop offset="0.7967" stop-color="#B6D3F8" stop-opacity="0.4"/>
            <stop offset="1" stop-color="#A1CAF6" stop-opacity="0.6"/>
        </radialGradient>
        <clipPath id="clip0">
            <rect width="70.8642" height="56.6923" fill="white" transform="translate(62.4277 34.6924)"/>
        </clipPath>
    </defs>
</svg>
