<svg width="430" height="177" viewBox="0 0 430 177" fill="none" xmlns="http://www.w3.org/2000/svg">
    <g clip-path="url(#clip0)">
        <g clip-path="url(#clip1)">
            <g clip-path="url(#clip2)">
                <path d="M238.937 151.612C238.937 151.612 290.358 38.5468 294.909 28.8922C298.17 21.9195 294.049 16.5201 293.906 16.234C293.906 16.234 290.967 11.6213 284.876 10.3698C283.12 10.0122 278.856 9.1898 276.849 8.76071C276.921 8.61768 240.872 1.64495 240.944 1.50192C238.292 0.96556 236.25 0.572227 235.067 0.357681C227.041 -1.10838 223.421 4.64859 223.421 4.64859L215.18 20.2031C215.18 20.2031 166.196 118.894 161.967 127.476C160.749 129.907 160.713 132.231 160.641 134.162C160.498 137.595 163.687 145.39 167.916 146.606C186.047 151.862 211.238 158.549 222.526 161.231C233.849 163.877 238.937 151.612 238.937 151.612Z" fill="url(#paint0_linear)"/>
                <path d="M288.888 24.1361C287.133 28.0337 275.308 54.4586 263.196 81.384C259.362 89.8586 255.528 98.4046 251.944 106.307C242.126 127.905 234.207 145.39 234.207 145.39C234.207 145.39 229.763 156.117 219.873 153.793C210.378 151.54 172.251 141.421 169.743 140.491C167.557 139.705 162.003 135.128 165.407 128.226C169.098 120.717 217.329 23.3852 217.329 23.3852L223.242 11.5852C223.278 11.5495 223.278 11.5137 223.313 11.478C224.711 8.93917 227.04 5.32765 231.698 4.50523C232.738 4.32644 233.884 4.29068 235.103 4.50523C236.034 4.68401 237.575 4.97007 239.474 5.32765C239.51 5.32765 239.797 5.39916 240.334 5.47068C246.211 6.57916 280.539 12.9798 280.539 12.9798C280.539 12.9798 283.908 13.7307 284.911 14.1598C287.455 15.1967 291.648 18.0216 288.888 24.1361Z" fill="url(#paint1_linear)"/>
                <path d="M287.563 24.1722C285.592 28.7134 270.291 62.3256 256.459 92.791C254.596 96.8674 252.768 100.908 251.013 104.806C241.194 126.367 233.275 143.817 233.275 143.817C233.275 143.817 228.832 154.544 218.942 152.22C209.446 149.967 173.971 140.241 171.427 139.49C169.635 138.99 163.078 135.128 167.091 127.226C170.889 119.788 219.013 22.4201 219.013 22.4201C219.013 22.4201 223.313 13.4092 224.962 10.5128C225.392 9.76191 226.574 7.93828 228.617 6.651C230.337 5.57828 232.63 4.86313 235.64 5.36373C236.608 5.54252 241.015 6.50797 241.338 6.57949C240.263 8.61767 240.585 11.3352 242.986 11.8001L269.216 16.9134C271.688 17.3783 275.594 15.2686 277.529 13.3019C277.565 13.2662 277.601 13.1946 277.673 13.1589C278.282 13.2662 278.819 13.3734 279.285 13.4449C280.683 13.6952 280.933 13.731 281.507 13.874C285.807 14.8395 290.573 17.2352 287.563 24.1722Z" fill="url(#paint2_linear)"/>
            </g>
        </g>
    </g>
    <path d="M289.067 26.4603C287.061 30.7155 274.376 59.3573 261.046 88.8931L234.027 3.3252C240.728 4.5052 280.252 11.9785 280.252 11.9785C280.252 11.9785 284.087 12.801 285.197 13.2658C288.136 14.4458 292.221 19.8094 289.067 26.4603Z" fill="url(#paint3_linear)"/>
    <path d="M238.721 66.1871C235.998 65.4362 233.239 64.7568 230.336 64.0059C228.616 67.2598 227.004 70.3349 225.355 73.4459C229.225 74.4471 232.952 75.4125 236.822 76.378C238.076 73.9822 239.33 71.6937 240.477 69.4053C241.194 67.9034 240.549 66.6877 238.721 66.1871Z" fill="#142534"/>
    <path d="M224.245 69.2622C222.812 68.9046 221.45 68.547 220.089 68.1895C219.444 69.4052 218.87 70.5137 218.297 71.5864C219.766 71.9797 221.128 72.3016 222.453 72.6591C223.098 71.4791 223.636 70.4064 224.245 69.2622Z" fill="#142534"/>
    <path d="M222.417 79.3457C223.886 79.739 225.248 80.0608 226.574 80.4184C227.183 79.2384 227.756 78.1657 228.365 77.0215C226.932 76.6639 225.57 76.3063 224.209 75.9487C223.564 77.1287 222.99 78.2372 222.417 79.3457Z" fill="#142534"/>
    <path d="M217.078 74.0537C215.215 76.6283 216.039 78.2016 219.371 78.4876C219.945 77.3792 220.554 76.2707 221.199 75.0192C220.16 74.7689 219.264 74.5186 218.332 74.304C217.938 74.161 217.472 74.1252 217.078 74.0537Z" fill="#142534"/>
    <path d="M229.44 81.1692C232.773 82.2776 234.923 81.3122 235.245 78.7376C233.92 78.3801 232.594 78.0583 231.268 77.7007C230.623 78.9164 230.05 79.9892 229.44 81.1692Z" fill="#142534"/>
    <path d="M227.399 63.3264C224.102 62.3252 222.346 63.0403 221.45 65.6864C222.812 66.044 224.174 66.3658 225.571 66.7591C226.216 65.5791 226.789 64.5064 227.399 63.3264Z" fill="#142534"/>
    <path d="M208.801 99.9426C209.016 107.881 200.344 114.532 189.415 114.818C178.522 115.104 176.157 114.174 175.942 106.272C175.727 98.3335 182.177 89.5371 193.07 89.2511C203.999 88.965 208.622 92.0401 208.801 99.9426Z" fill="url(#paint4_radial)"/>
    <path d="M204.895 92.648C207.833 97.6898 203.605 105.556 195.507 110.241C187.408 114.925 178.486 114.603 175.547 109.561C172.609 104.52 176.837 96.6528 184.936 91.9686C193.034 87.2844 201.957 87.6062 204.895 92.648Z" fill="url(#paint5_linear)"/>
    <path d="M194.575 30.7514C196.976 32.8254 196.188 37.5811 192.855 41.4072C189.523 45.2333 184.9 46.6278 182.499 44.5539C180.099 42.4799 180.887 37.7242 184.219 33.8981C187.552 30.1078 192.174 28.6775 194.575 30.7514Z" fill="url(#paint6_linear)"/>
    <path d="M286.236 66.6878C283.226 73.0169 274.733 75.3054 267.28 71.8011C259.827 68.2612 256.208 60.2872 259.218 53.9224C262.228 47.5933 270.72 45.3048 278.173 48.809C285.627 52.3133 289.246 60.323 286.236 66.6878Z" fill="url(#paint7_linear)"/>
    <path d="M204.071 100.622L203.713 100.908C203.713 100.908 203.677 100.908 203.677 100.944C203.605 100.98 203.533 101.051 203.462 101.087C203.283 101.194 203.103 101.301 202.888 101.409C202.673 101.516 202.423 101.588 202.172 101.695C201.957 101.766 201.706 101.802 201.491 101.874C201.204 101.909 200.918 101.945 200.595 101.981C200.523 101.981 200.488 101.981 200.416 101.981C200.093 102.017 199.735 102.017 199.413 101.981C199.126 101.981 198.839 101.945 198.517 101.874C198.373 101.874 198.266 101.838 198.123 101.802C197.8 101.766 197.478 101.695 197.119 101.588C196.546 101.444 195.973 101.23 195.363 101.015C195.041 100.908 194.718 100.765 194.396 100.622C194.109 100.515 193.823 100.372 193.536 100.229C193.428 100.193 193.357 100.157 193.249 100.086C192.963 99.9427 192.676 99.7639 192.389 99.6208C192.031 99.4421 191.708 99.2275 191.35 99.013C191.314 98.9772 191.243 98.9772 191.207 98.9414C190.526 98.5124 189.881 98.0833 189.2 97.5827C189.093 97.4754 188.985 97.4039 188.842 97.2966C188.591 97.1178 188.304 96.9033 188.053 96.6887C187.695 96.4027 187.337 96.1166 186.978 95.7948C186.692 95.5445 186.405 95.2584 186.118 95.0081C185.868 94.7936 185.617 94.5433 185.402 94.3287C184.864 93.7923 184.327 93.256 183.825 92.6839C183.718 92.5766 183.61 92.4693 183.538 92.362C182.499 91.2178 181.532 90.002 180.708 88.822C180.242 88.1784 179.812 87.499 179.382 86.8554C179.167 86.5336 178.988 86.176 178.808 85.8542C178.629 85.5323 178.45 85.2105 178.271 84.8887C178.092 84.5311 177.877 84.1378 177.698 83.7802C177.662 83.7087 177.626 83.6372 177.59 83.5299C177.303 82.8863 177.017 82.2427 176.802 81.6348C176.623 81.1342 176.443 80.6336 176.336 80.1687C176.013 79.1317 175.834 78.1305 175.727 77.2008C175.655 76.3426 175.655 75.556 175.763 74.8051C175.798 74.5548 175.87 74.2687 175.906 74.0184C175.978 73.7681 176.013 73.5536 176.121 73.339C176.157 73.196 176.228 73.0887 176.264 72.9457C176.336 72.8384 176.372 72.6954 176.443 72.5881C176.73 72.0517 177.088 71.5869 177.518 71.1578C181.496 67.582 190.669 71.3366 197.979 79.5251C200.631 82.4572 202.673 85.6039 203.999 88.5717C206.436 93.6493 206.615 98.3693 204.071 100.622Z" fill="url(#paint8_linear)"/>
    <path d="M200.093 95.7234L199.842 95.9022C199.52 96.081 199.161 96.224 198.803 96.2955C197.836 96.5101 196.653 96.3671 195.363 95.938C192.532 95.0083 189.164 92.6125 186.261 89.2871C183.216 85.7471 181.388 81.9925 181.173 79.1677C181.101 78.1307 181.209 77.201 181.603 76.4858C181.818 76.0568 182.105 75.6992 182.499 75.4131C185.258 73.3749 191.457 76.2355 196.331 81.8495C201.168 87.4634 202.888 93.6495 200.093 95.7234Z" fill="url(#paint9_linear)"/>
    <path d="M203.605 101.015C203.247 101.373 201.85 102.589 201.24 103.161C201.133 103.268 201.061 103.34 201.025 103.375C200.99 103.411 200.954 103.447 200.954 103.447C200.56 103.804 200.094 104.091 199.556 104.305C199.019 104.52 198.481 104.663 197.872 104.734C196.224 104.913 194.289 104.591 192.246 103.769C190.885 103.232 189.451 102.517 187.982 101.588C186.62 100.729 185.259 99.6924 183.897 98.5124C182.751 97.5112 181.604 96.4027 180.493 95.1512C180.493 95.1154 180.457 95.1154 180.457 95.1154C179.382 93.9354 178.415 92.7196 177.591 91.5039C176.587 90.1093 175.727 88.679 175.046 87.2845C174.258 85.7469 173.649 84.2451 173.255 82.8148C172.646 80.6336 172.502 78.6312 172.825 76.9863C173.004 76.1281 173.291 75.3772 173.756 74.7693C173.756 74.7693 173.756 74.7336 173.792 74.7336C173.792 74.6978 173.792 74.6978 173.828 74.6978C174.007 74.4118 174.258 74.1615 174.509 73.9112C174.724 73.7324 174.939 73.5536 175.19 73.4106L176.372 72.3021L177.662 71.1221C177.232 71.5512 176.874 71.9803 176.587 72.5524C176.516 72.6596 176.48 72.7669 176.408 72.9099C176.336 73.0172 176.301 73.1603 176.265 73.3033C176.193 73.5178 176.121 73.7681 176.05 73.9827C175.978 74.233 175.942 74.4833 175.906 74.7693C175.799 75.5203 175.799 76.3069 175.871 77.1651C175.942 78.0948 176.157 79.096 176.48 80.133C176.623 80.6336 176.766 81.1342 176.946 81.599C177.161 82.2069 177.447 82.8506 177.734 83.4942C177.77 83.5657 177.806 83.6372 177.841 83.7445C178.021 84.1021 178.2 84.4954 178.415 84.853C178.594 85.1748 178.773 85.4966 178.952 85.8184C179.131 86.1402 179.346 86.4621 179.526 86.8196C179.92 87.4633 180.386 88.1427 180.851 88.7863C181.676 90.0021 182.643 91.1821 183.682 92.3263C183.79 92.4336 183.897 92.5409 183.969 92.6481C184.506 93.2202 185.008 93.7924 185.545 94.293C185.796 94.5433 186.047 94.7578 186.262 94.9724C186.549 95.2584 186.835 95.5087 187.122 95.759C187.48 96.0808 187.839 96.3669 188.197 96.653C188.448 96.8675 188.735 97.0821 188.985 97.2608C189.093 97.3681 189.2 97.4396 189.344 97.5469C189.989 98.0475 190.67 98.4766 191.35 98.9057C191.386 98.9415 191.458 98.9415 191.494 98.9772C191.816 99.1918 192.175 99.4063 192.533 99.5851C192.82 99.7639 193.106 99.9069 193.393 100.05C193.5 100.086 193.572 100.157 193.68 100.193C193.966 100.336 194.253 100.479 194.54 100.586C194.862 100.729 195.22 100.872 195.507 100.98C196.08 101.194 196.69 101.409 197.263 101.552C197.621 101.659 197.944 101.731 198.266 101.766C198.41 101.802 198.517 101.838 198.66 101.838C198.983 101.874 199.27 101.909 199.556 101.945C199.915 101.981 200.237 101.981 200.56 101.945C200.595 101.945 200.667 101.945 200.739 101.945C201.025 101.909 201.348 101.909 201.635 101.838C201.85 101.802 202.1 101.731 202.315 101.659C202.566 101.588 202.781 101.48 203.032 101.373C203.247 101.266 203.426 101.158 203.605 101.051C203.498 101.051 203.57 101.015 203.605 101.015Z" fill="url(#paint10_linear)"/>
    <path d="M173.755 74.6621C173.72 74.6621 173.72 74.6975 173.72 74.6975V74.6621H173.755Z" fill="url(#paint11_linear)"/>
    <path d="M176.408 80.0615L173.219 82.7791C172.609 80.5979 172.466 78.5954 172.789 76.9506L175.834 74.6621C175.727 75.413 175.727 76.1997 175.799 77.0579C175.87 78.0233 176.085 79.0245 176.408 80.0615Z" fill="url(#paint12_linear)"/>
    <path d="M180.744 88.7507L177.555 91.504C176.552 90.1095 175.692 88.6792 175.011 87.2847L178.343 84.8174C178.988 86.1047 179.812 87.4277 180.744 88.7507Z" fill="url(#paint13_linear)"/>
    <path d="M187.086 95.759L183.896 98.5123C182.75 97.5111 181.603 96.4026 180.492 95.1511L183.896 92.6123C184.936 93.7565 186.011 94.7935 187.086 95.759Z" fill="url(#paint14_linear)"/>
    <path d="M195.435 100.98L192.21 103.733C190.849 103.197 189.415 102.481 187.946 101.552L191.422 98.9414C192.784 99.8353 194.11 100.515 195.435 100.98Z" fill="url(#paint15_linear)"/>
    <path d="M203.677 100.944C203.39 101.194 201.204 103.197 200.918 103.447C200.523 103.804 200.058 104.091 199.52 104.305C198.983 104.52 198.445 104.663 197.836 104.734L201.491 101.874C201.706 101.838 201.957 101.766 202.172 101.695C202.745 101.516 203.247 101.266 203.677 100.944Z" fill="url(#paint16_linear)"/>
    <path d="M204.071 88.4287C202.924 88.5002 201.67 88.3929 200.344 88.1069C195.757 87.2487 190.131 84.5669 184.721 80.4547C183.466 79.4893 182.32 78.5238 181.209 77.5226C179.381 75.842 177.805 74.1614 176.479 72.445C176.407 72.3735 176.336 72.2662 176.3 72.1947L177.59 71.0147C181.567 67.439 190.741 71.1935 198.051 79.382C200.702 82.3499 202.745 85.4608 204.071 88.4287Z" fill="url(#paint17_linear)"/>
    <path d="M187.444 85.103C187.086 84.7454 186.692 84.3521 186.333 83.9945C186.692 83.6012 187.014 83.2436 187.337 82.8503C187.337 82.8503 187.337 82.8503 187.337 82.8145C186.799 82.2782 186.226 81.706 185.688 81.1697C185.868 80.9909 186.011 80.8121 186.19 80.6333C186.728 81.1697 187.265 81.706 187.803 82.2066C187.946 82.0636 188.053 81.9206 188.197 81.7776C187.659 81.2412 187.122 80.7406 186.62 80.2042C186.799 80.0254 186.943 79.8466 187.122 79.7036L187.158 79.7394C187.659 80.24 188.161 80.7406 188.663 81.2412C188.663 81.2412 188.698 81.277 188.734 81.277C188.77 81.277 188.77 81.2412 188.806 81.2412C188.985 81.0982 189.2 80.9909 189.415 80.9194C189.666 80.8479 189.953 80.8479 190.311 80.9551C190.741 81.0982 191.135 81.3842 191.565 81.7776C192.21 82.3854 192.604 82.9933 192.676 83.637V83.6727C192.712 83.6727 192.748 83.637 192.783 83.637C192.819 83.637 192.855 83.6012 192.891 83.6012C193.285 83.4939 193.787 83.637 194.396 84.1018C194.503 84.1733 194.611 84.2806 194.718 84.3521C194.862 84.4951 194.969 84.6024 195.113 84.7454C195.148 84.7812 195.148 84.817 195.184 84.817C195.507 85.1745 195.793 85.5321 196.008 85.9254C196.295 86.4618 196.403 86.8909 196.403 87.2842C196.403 87.6776 196.295 87.9636 196.188 88.2855C196.152 88.357 196.116 88.4642 196.08 88.5358C196.116 88.5715 196.116 88.5715 196.152 88.6073C196.653 89.1079 197.155 89.6085 197.657 90.1091L197.693 90.1449C197.585 90.3594 197.442 90.5739 197.334 90.7885C196.797 90.2521 196.259 89.7158 195.722 89.1794C195.614 89.3582 195.507 89.5012 195.435 89.68C195.973 90.2164 196.546 90.7527 197.083 91.2891C196.976 91.5036 196.833 91.7182 196.725 91.9685C196.152 91.4321 195.614 90.86 195.041 90.2879C195.041 90.3236 195.005 90.3236 195.005 90.3594C194.826 90.6455 194.647 90.9315 194.468 91.2533C194.396 91.3964 194.288 91.5036 194.217 91.6467L194.181 91.6109C194.073 91.5036 194.002 91.3606 193.894 91.2533C193.643 90.9315 193.357 90.6097 193.07 90.2879C193.07 90.2521 193.106 90.2521 193.106 90.2164C193.213 90.0733 193.285 89.9303 193.393 89.7873C193.5 89.6085 193.393 89.3939 193.142 89.1436C191.637 87.6776 190.132 86.1757 188.663 84.7097C188.627 84.6739 188.591 84.6382 188.555 84.6024C188.268 84.3879 188.053 84.3521 187.91 84.5309C187.695 84.7812 187.552 84.96 187.444 85.103ZM191.995 86.3545C192.748 87.1055 193.464 87.8206 194.217 88.5358C194.432 88.2497 194.611 87.9636 194.718 87.6061C194.79 87.3915 194.826 87.1412 194.79 86.8194C194.683 86.2473 194.073 85.5321 193.536 85.3891C193.321 85.3176 193.142 85.3533 192.963 85.3891C192.676 85.4964 192.497 85.7109 192.318 85.9254C192.21 86.0685 192.103 86.2115 191.995 86.3545ZM190.992 85.3891C190.992 85.3891 190.992 85.3533 190.992 85.3891C191.171 85.1388 191.314 84.9242 191.458 84.6739C191.565 84.4951 191.565 84.3164 191.565 84.0661C191.493 83.5654 190.992 82.9576 190.454 82.7073C190.203 82.6 190.024 82.6 189.845 82.6357C189.594 82.7073 189.415 82.886 189.236 83.0648C189.128 83.1721 189.057 83.2794 188.949 83.3867C189.666 84.066 190.311 84.7097 190.992 85.3891Z" fill="white"/>
    <path d="M257.964 57.4266C258.143 58.6066 258.502 59.8224 259.003 61.0024C259.29 61.646 259.613 62.2539 259.935 62.826C260.759 64.149 261.763 65.329 262.945 66.3302C264.307 67.4745 265.848 68.4042 267.496 69.012C269.252 69.6914 271.115 70.0133 273.014 70.0133C274.806 70.0133 276.669 69.6557 278.425 68.9763C278.604 68.9048 278.783 68.8333 278.963 68.7617C282.976 67.0096 285.771 63.6484 286.882 59.7866C286.918 59.6436 286.953 59.5005 286.989 59.3933C287.025 59.2145 287.097 59.0357 287.133 58.8211C287.168 58.6423 287.204 58.4993 287.24 58.3205C287.276 58.1417 287.312 57.9987 287.312 57.8199C287.348 57.6411 287.348 57.4981 287.383 57.3193C287.419 57.1405 287.419 56.9975 287.419 56.8187C287.419 56.6042 287.455 56.3896 287.455 56.1393C287.455 56.032 287.455 55.9248 287.455 55.8175C287.455 55.7102 287.455 55.6387 287.455 55.5314C287.455 55.4242 287.455 55.3169 287.455 55.2454C287.455 55.1381 287.455 55.0308 287.419 54.9236V54.8878C287.419 54.7448 287.383 54.6017 287.383 54.4587C287.383 54.2799 287.348 54.1369 287.312 53.9581C287.312 53.8508 287.276 53.7436 287.276 53.6363C287.276 53.5648 287.24 53.4933 287.24 53.4217C287.168 53.0999 287.097 52.7781 287.025 52.4563C286.989 52.3848 286.989 52.2775 286.953 52.206C286.882 51.9199 286.774 51.6339 286.703 51.3836C286.667 51.2763 286.631 51.2048 286.595 51.0975C286.559 50.9902 286.523 50.9187 286.488 50.8114C286.488 50.7757 286.452 50.7399 286.452 50.7399C286.416 50.6684 286.38 50.5611 286.344 50.4896C286.308 50.4181 286.273 50.3108 286.237 50.2393C286.165 50.0605 286.058 49.8817 285.986 49.6672C285.878 49.4884 285.807 49.3096 285.699 49.1308C285.663 49.0236 285.592 48.952 285.556 48.8448C285.448 48.666 285.377 48.5229 285.269 48.3442C285.054 47.9866 284.803 47.629 284.553 47.3072C284.481 47.2357 284.445 47.1642 284.373 47.0569C284.123 46.7351 283.872 46.449 283.585 46.1272C283.513 46.0557 283.442 45.9842 283.37 45.9126C283.227 45.7696 283.083 45.6266 282.94 45.4836C282.868 45.412 282.797 45.3405 282.725 45.269C282.582 45.126 282.438 45.0187 282.295 44.8757C282.223 44.8399 282.188 44.7684 282.116 44.7326C282.08 44.6969 282.044 44.6969 282.008 44.6611C281.865 44.5539 281.722 44.4466 281.578 44.3393C281.507 44.2678 281.435 44.232 281.328 44.1605C281.22 44.089 281.077 43.9817 280.969 43.9102C280.862 43.8387 280.718 43.7314 280.611 43.6599C280.539 43.5884 280.432 43.5526 280.36 43.5169C280.288 43.4454 280.181 43.4096 280.109 43.3739L279.858 43.2308C279.787 43.1951 279.679 43.1236 279.608 43.0878C279.428 42.9805 279.249 42.909 279.07 42.8017C278.998 42.766 278.891 42.7302 278.819 42.6587C278.748 42.6229 278.676 42.5872 278.604 42.5514C278.533 42.5157 278.461 42.4799 278.389 42.4442C278.282 42.3726 278.138 42.3369 278.031 42.3011C277.852 42.2296 277.673 42.1581 277.493 42.0866C277.35 42.0508 277.243 41.9793 277.099 41.9436C277.028 41.9078 276.992 41.9078 276.956 41.9078C276.848 41.872 276.777 41.8363 276.669 41.8363C276.562 41.8005 276.49 41.7648 276.383 41.7648C276.203 41.729 275.988 41.6575 275.809 41.6217C275.63 41.586 275.415 41.5502 275.236 41.5145C275.128 41.5145 275.057 41.4787 274.949 41.4787C274.842 41.4787 274.77 41.4429 274.663 41.4429C274.268 41.3714 273.874 41.3357 273.48 41.2999C273.301 41.2999 273.158 41.2642 272.978 41.2642C272.799 41.2642 272.656 41.2642 272.477 41.2642C272.262 41.2642 272.011 41.2642 271.796 41.2642C271.366 41.2642 270.936 41.2999 270.506 41.3714C270.47 41.3714 270.434 41.3714 270.398 41.3714C270.291 41.3714 270.183 41.4072 270.076 41.4072C269.968 41.4072 269.861 41.4429 269.753 41.4429C269.538 41.4787 269.323 41.5145 269.073 41.586C269.037 41.586 268.965 41.6217 268.929 41.6217C268.858 41.6217 268.786 41.6575 268.714 41.6575C268.714 41.6575 268.714 41.6575 268.678 41.6575C268.643 41.6575 268.571 41.6933 268.535 41.6933H268.499C268.392 41.729 268.32 41.729 268.213 41.7648C267.926 41.8363 267.639 41.9436 267.353 42.0508C267.173 42.1223 267.03 42.1581 266.887 42.2296C266.528 42.3726 266.17 42.5157 265.848 42.6945C265.525 42.8733 265.167 43.0163 264.88 43.2308C264.808 43.2666 264.737 43.3381 264.665 43.3739C264.522 43.4811 264.378 43.5526 264.199 43.6599C263.913 43.8387 263.626 44.0533 263.339 44.2678C263.232 44.3393 263.16 44.4108 263.053 44.4823C263.017 44.5181 262.945 44.5539 262.909 44.5896C262.873 44.6254 262.802 44.6611 262.766 44.6969C262.658 44.7684 262.587 44.8399 262.479 44.9472C262.3 45.0902 262.121 45.269 261.978 45.4478C261.906 45.5193 261.798 45.6266 261.727 45.6981C261.655 45.7696 261.548 45.8769 261.476 45.9484C261.404 46.0199 261.333 46.1272 261.225 46.2345C261.153 46.3417 261.082 46.4133 261.01 46.5205C260.938 46.6278 260.867 46.6993 260.795 46.8066C260.293 47.4502 259.863 48.1654 259.469 48.8805C259.362 49.0951 259.254 49.3096 259.147 49.5242C259.111 49.6314 259.039 49.7387 259.003 49.846C258.968 49.9533 258.896 50.0605 258.86 50.1678C257.857 52.492 257.57 54.9593 257.964 57.4266Z" fill="url(#paint18_linear)"/>
    <path d="M258.467 56.7112C258.682 57.7124 258.968 58.7136 259.398 59.679C259.757 60.4657 260.151 61.2166 260.617 61.896C261.19 62.7542 261.835 63.5409 262.552 64.256C262.802 64.5063 263.089 64.7566 263.34 65.0069C264.702 66.1512 266.242 67.0809 267.927 67.6888C269.682 68.3324 271.546 68.69 273.445 68.69C275.237 68.69 277.064 68.3324 278.856 67.653C279.035 67.5815 279.25 67.51 279.429 67.4027C282.977 65.8294 285.557 63.0403 286.882 59.7506C287.707 56.9257 287.599 53.8148 286.452 50.8469C286.381 50.6681 286.309 50.4536 286.202 50.2748C284.231 45.7693 280.182 42.6584 275.631 41.6572C272.764 41.0136 269.682 41.1924 266.78 42.3366C264.773 43.1233 263.017 44.3033 261.656 45.7693C260.402 47.0924 259.434 48.5942 258.789 50.2748C258.18 52.313 258.037 54.53 258.467 56.7112Z" fill="url(#paint19_linear)"/>
    <path opacity="0.5" d="M259.432 59.7148C260.185 61.4669 261.296 63.0045 262.586 64.2918C263.912 63.7554 265.166 63.1118 266.348 62.3609C272.046 58.6421 275.736 52.2772 275.88 45.233C275.88 44.3748 275.844 43.5166 275.772 42.6227C275.736 42.3009 275.701 41.979 275.665 41.6572C272.798 41.0136 269.716 41.1924 266.814 42.3366C264.807 43.1233 263.052 44.3033 261.69 45.7693C260.436 47.0924 259.468 48.5942 258.823 50.2748C257.892 53.2427 258.035 56.5681 259.432 59.7148Z" fill="url(#paint20_linear)"/>
    <path d="M266.385 52.2417L269.287 47.772L269.825 49.2023L272.082 48.3441C273.731 47.7005 275.558 48.5229 276.203 50.1677L277.099 52.5277C276.561 51.0974 275.236 50.5253 273.408 51.2405L270.971 52.1701L271.509 53.6004L266.385 52.2417Z" fill="white"/>
    <path d="M279.285 57.7123L276.383 62.182L275.845 60.7517L273.588 61.6099C271.94 62.2535 270.112 61.4311 269.467 59.7862L268.571 57.4262C269.109 58.8565 270.435 59.4287 272.262 58.7135L274.699 57.7838L274.161 56.3535L279.285 57.7123Z" fill="white"/>
    <path d="M189.774 30.2144C189.738 30.3932 189.702 30.5362 189.594 30.715C189.379 31.1799 189.057 31.6805 188.878 32.1811L188.842 32.2526C188.591 32.8962 188.806 33.5041 188.555 34.0762C188.197 34.8987 187.803 35.6853 187.373 36.4005C187.194 36.6865 187.014 36.9726 186.835 37.2229C186.728 37.3659 186.656 37.4732 186.549 37.6162C186.119 38.1883 185.617 38.7247 185.044 39.2253C183.933 40.2265 182.714 41.049 181.639 41.4065C181.281 41.5138 180.923 41.5853 180.6 41.6568C180.493 41.6926 180.385 41.2635 180.278 41.2635C180.242 41.2993 180.17 41.2635 180.134 41.2635C179.776 41.2635 179.454 41.2635 179.131 41.192C179.024 41.192 178.916 41.1562 178.809 41.1562C178.665 41.1205 178.558 41.1205 178.45 41.0847C177.232 40.7271 176.157 39.9405 175.404 38.7962C173.828 36.5077 173.29 32.8962 174.15 29.1417C174.258 28.7841 174.365 28.4265 174.437 28.069C174.652 27.3181 174.903 26.6387 175.189 25.9593C175.727 24.7435 176.372 23.6708 177.089 22.7411C177.304 22.4908 177.483 22.2405 177.698 21.9902C177.734 21.9187 177.769 21.8829 177.841 21.8471C179.059 20.5241 180.493 19.6302 181.89 19.2368C182.356 19.1296 182.786 19.0223 183.252 19.0223C183.789 18.9865 184.327 19.0581 184.9 19.2011C185.079 19.2368 185.366 19.3441 185.581 19.4514C185.904 19.5587 186.19 19.7732 186.477 19.952C186.656 20.095 186.871 20.2381 187.014 20.3811C187.194 20.5599 187.803 20.7744 187.982 20.9532C188.448 21.4896 188.842 22.1332 189.129 22.8126C189.379 23.349 189.559 23.8853 189.702 24.4932C189.881 25.1368 189.559 25.7805 189.594 26.4956H190.024C190.06 27.1035 190.096 27.7471 190.06 28.3908H189.63C189.594 28.9987 189.559 29.6065 189.415 30.2502C189.379 30.1787 189.774 30.2144 189.774 30.2144Z" fill="url(#paint21_linear)"/>
    <path d="M180.529 37.5809C180.278 37.5809 180.027 37.5809 179.812 37.5093C179.705 37.4736 179.49 37.4736 179.382 37.4021C178.486 37.116 177.77 36.5439 177.268 35.7572C176.265 34.1839 175.906 31.7881 176.48 29.2136C176.551 29.0348 176.587 28.7845 176.623 28.57C176.766 28.0336 176.981 27.5687 177.161 27.0681C178.2 24.7797 179.848 23.0991 181.568 22.5984C182.249 22.3839 182.966 22.3839 183.646 22.5269C183.79 22.5627 183.933 22.6342 184.076 22.7057C184.291 22.7772 184.471 22.8845 184.65 23.0275C184.757 23.0633 184.829 23.1706 184.936 23.2421C186.406 24.5294 187.086 27.0681 186.656 29.8572C186.585 30.3578 186.477 30.8227 186.334 31.3233C186.191 31.7524 186.047 32.11 185.904 32.4675C184.793 35.5069 182.643 37.4736 180.529 37.5809Z" fill="url(#paint22_linear)"/>
    <path d="M191.78 28.9632C191.744 29.5711 191.708 30.2147 191.601 30.8226V30.8584C191.493 31.502 191.35 32.1456 191.171 32.825C190.884 33.4687 190.705 34.1123 190.454 34.7202C190.167 35.3638 189.845 36.0075 189.522 36.5796C189.164 37.1875 188.806 37.7596 188.411 38.2602C187.981 38.8323 187.516 39.2972 187.014 39.762C186.369 40.3699 185.688 40.799 185.007 41.2281C184.291 41.6214 183.502 41.8359 182.75 41.9432C182.499 41.979 182.248 41.979 181.961 41.979C181.675 41.979 181.352 41.9432 181.066 41.8359C180.922 41.8359 179.955 41.5499 179.811 41.5141L178.629 41.1565C178.701 41.1923 178.772 41.1923 178.844 41.1923C178.987 41.2281 179.095 41.2281 179.238 41.2281C179.596 41.3353 179.919 41.2996 180.277 41.2996C180.456 41.2996 180.6 41.2638 180.743 41.2281H180.779C181.496 41.1208 182.212 40.8705 182.893 40.5129C182.893 40.5129 182.929 40.5129 182.929 40.4772C183.61 40.1196 184.219 39.6547 184.864 39.1184C184.864 39.1184 184.9 39.1184 184.9 39.0826C184.936 39.0469 184.971 39.0111 184.971 39.0111C185.437 38.582 185.867 38.1172 186.261 37.5808C186.261 37.5808 186.261 37.5808 186.297 37.545C186.691 37.0444 187.05 36.4723 187.408 35.9002V35.8644C187.766 35.2923 188.053 34.6487 188.304 33.9693C188.519 33.4687 188.698 32.9681 188.841 32.3959C188.877 32.3244 188.877 32.2172 188.913 32.1456C188.913 32.1456 188.913 32.1456 188.913 32.1099C189.056 31.6093 189.2 31.1444 189.271 30.6438C189.307 30.465 189.343 30.2862 189.379 30.0717C189.379 30.0002 189.415 29.9287 189.415 29.8214V29.7856C189.415 29.7141 189.451 29.6426 189.451 29.5711C189.486 29.4281 189.486 29.2493 189.522 29.1062C189.522 28.999 189.558 28.8917 189.558 28.7844C189.558 28.7487 189.558 28.6772 189.558 28.6414C189.558 28.6056 189.558 28.5699 189.558 28.5341C189.558 28.4984 189.558 28.4269 189.558 28.3911C189.558 28.3196 189.558 28.2481 189.594 28.1765V28.1408C189.63 27.4972 189.594 26.8893 189.558 26.2814C189.558 26.2456 189.558 26.2099 189.558 26.2099V26.1741C189.558 26.1384 189.558 26.1384 189.558 26.1026C189.522 25.602 189.415 25.1372 189.343 24.6723C189.307 24.5293 189.271 24.422 189.271 24.3147C189.128 23.7069 188.949 23.1347 188.734 22.6341C188.626 22.3838 188.483 22.1335 188.34 21.8832C188.232 21.7402 188.161 21.5614 188.053 21.4184C187.91 21.2038 187.731 20.9893 187.551 20.7747C187.408 20.6317 187.229 20.4529 187.086 20.2741C187.086 20.2741 187.086 20.2384 187.05 20.2384C186.942 20.1311 186.871 20.0596 186.763 19.9881C186.691 19.9165 186.584 19.845 186.512 19.8093C186.441 19.7735 186.369 19.702 186.297 19.6662L186.261 19.6305C186.19 19.5947 186.118 19.5232 186.046 19.4875C185.975 19.4517 185.903 19.4159 185.831 19.3802C185.76 19.3444 185.688 19.3087 185.581 19.2729C185.509 19.2372 185.473 19.2014 185.401 19.2014C185.33 19.1656 185.258 19.1656 185.222 19.1299L185.294 19.1656C185.294 19.1656 185.33 19.1656 185.33 19.2014L187.444 19.8093L187.301 19.7735C187.695 19.9165 188.125 20.1311 188.483 20.3814C188.698 20.5244 188.877 20.6675 189.056 20.8105C189.092 20.8462 189.092 20.8462 189.128 20.882C189.164 20.9178 189.2 20.9535 189.236 20.9893C189.737 21.4541 190.203 22.062 190.526 22.7414C190.526 22.7772 190.561 22.7772 190.561 22.8129C190.597 22.8844 190.669 22.9917 190.705 23.0632C190.991 23.6353 191.206 24.2432 191.421 24.9226V24.9584C191.457 25.1372 191.493 25.3159 191.529 25.4947C191.636 25.9596 191.708 26.4602 191.744 26.9608C191.816 27.6759 191.816 28.3196 191.78 28.9632Z" fill="url(#paint23_linear)"/>
    <path d="M191.028 32.8608L190.383 34.7202L188.233 34.0408C188.484 33.4687 188.699 32.8966 188.843 32.2529L191.028 32.8608Z" fill="url(#paint24_linear)"/>
    <path d="M189.451 36.5796C189.092 37.1874 188.734 37.7596 188.34 38.2602L186.226 37.6165C186.226 37.6165 186.226 37.6165 186.261 37.5808C186.656 37.0802 187.014 36.5438 187.372 35.9717L189.451 36.5796Z" fill="url(#paint25_linear)"/>
    <path d="M186.943 39.7618C186.298 40.3697 185.618 40.7988 184.937 41.1921L182.858 40.5127C182.858 40.5127 182.894 40.5127 182.894 40.4769C183.575 40.1194 184.184 39.6545 184.829 39.1182L186.943 39.7618Z" fill="url(#paint26_linear)"/>
    <path d="M182.643 41.8718C182.069 41.9433 181.532 41.9075 180.959 41.7645C180.851 41.7645 179.884 41.4784 179.704 41.4427L178.809 41.1924C178.952 41.2281 179.059 41.2281 179.203 41.2281C179.561 41.3354 179.884 41.2997 180.242 41.2997C180.421 41.2997 180.564 41.2997 180.708 41.2281H180.744L182.643 41.8718Z" fill="url(#paint27_linear)"/>
    <path d="M191.816 28.9635C191.78 29.5713 191.744 30.215 191.637 30.8229C191.637 30.8229 191.637 30.8586 191.637 30.8944L189.415 30.215V30.1792C189.415 30.1077 189.451 30.0004 189.451 29.9289C189.451 29.8574 189.487 29.7859 189.487 29.7144C189.523 29.4998 189.523 29.321 189.558 29.1065C189.558 28.9992 189.558 28.8919 189.594 28.7847C189.594 28.6416 189.63 28.4986 189.63 28.3198L191.816 28.9635Z" fill="url(#paint28_linear)"/>
    <path d="M191.745 27.0679L189.523 26.4243C189.523 26.3885 189.523 26.3885 189.523 26.3528C189.487 25.8164 189.38 25.3158 189.308 24.7795C189.272 24.6722 189.236 24.5291 189.236 24.4219L191.386 25.0655C191.422 25.2443 191.494 25.4231 191.494 25.6019C191.637 26.0667 191.709 26.5673 191.745 27.0679Z" fill="url(#paint29_linear)"/>
    <path d="M190.706 23.1346L188.699 22.7412C188.592 22.4909 188.448 22.2406 188.305 21.9903C188.197 21.8473 188.126 21.6685 188.018 21.5255C187.875 21.3109 187.696 21.0964 187.517 20.8818L189.022 20.9176C189.057 20.9534 189.057 20.9534 189.093 20.9891C189.129 21.0249 189.165 21.0606 189.201 21.0964C189.702 21.5612 190.168 22.1691 190.491 22.8485C190.491 22.8843 190.527 22.8843 190.527 22.92C190.598 22.9915 190.634 23.063 190.706 23.1346Z" fill="url(#paint30_linear)"/>
    <path d="M181.496 30.7868L181.46 28.5698L178.629 32.5747L181.496 30.7868Z" fill="white"/>
    <path d="M181.603 34.7204L181.496 30.7871L178.629 32.575L181.603 34.7204Z" fill="white"/>
    <path d="M184.363 27.5332L181.496 30.7871L181.604 34.7205L184.363 27.5332Z" fill="white"/>
    <path d="M183.968 26.7107L180.994 25.1016L181.137 27.6046L183.968 26.7107Z" fill="white"/>
    <path d="M181.138 27.6046L180.994 25.1016L178.199 31.6452L181.138 27.6046Z" fill="white"/>
    <path d="M184.362 27.5332L181.46 28.5702L181.496 30.7871L184.362 27.5332Z" fill="white"/>
    <path opacity="0.5" d="M185.188 19.2373L185.295 19.2731C185.295 19.2731 185.331 19.2731 185.331 19.3088C185.403 19.3446 185.475 19.3803 185.547 19.4161C185.439 19.3088 185.295 19.2731 185.188 19.2373Z" fill="url(#paint31_linear)"/>
    <path d="M189.594 28.3199C189.558 28.3914 189.558 28.4629 189.558 28.5344C189.558 28.5702 189.558 28.6059 189.558 28.6774C189.558 28.7132 189.558 28.749 189.558 28.7847C189.558 28.8205 189.558 28.892 189.558 28.9277C189.558 29.035 189.558 29.1423 189.522 29.2496C189.486 29.3926 189.486 29.5714 189.45 29.7144C189.45 29.7859 189.415 29.8574 189.415 29.929V29.9647C189.415 30.0362 189.379 30.1077 189.379 30.215C189.343 30.3938 189.307 30.5726 189.271 30.7871C188.555 30.8229 187.874 30.8229 187.157 30.7156C182.75 30.1793 179.13 27.0683 177.088 22.7059C177.303 22.4556 177.482 22.2053 177.697 21.955C177.733 21.8835 177.769 21.8477 177.84 21.812C179.059 20.489 180.492 19.595 181.89 19.2017C182.355 19.0944 182.785 18.9871 183.251 18.9871C183.789 18.9514 184.326 19.0229 184.9 19.1659C185.007 19.2017 185.15 19.2374 185.294 19.2732L185.222 19.2374C185.294 19.2732 185.365 19.2732 185.401 19.309C185.473 19.3447 185.509 19.3447 185.58 19.3805C185.652 19.4162 185.724 19.452 185.831 19.4877C185.903 19.5235 185.975 19.5593 186.046 19.595C186.118 19.6308 186.19 19.6665 186.261 19.738C186.333 19.7738 186.405 19.8453 186.476 19.8811C186.584 19.9526 186.655 20.0241 186.763 20.0956C186.87 20.1671 186.942 20.2387 187.014 20.3459C187.014 20.3459 187.05 20.3817 187.085 20.3817C187.229 20.5247 187.408 20.7035 187.551 20.8823C187.73 21.0968 187.874 21.3114 188.053 21.5259C188.16 21.669 188.232 21.8477 188.34 21.9908C188.483 22.2411 188.59 22.4914 188.734 22.7417C188.949 23.2423 189.128 23.8144 189.271 24.4223C189.307 24.5296 189.343 24.6726 189.343 24.7799C189.415 25.2805 189.522 25.7453 189.558 26.2102C189.558 26.2459 189.558 26.2817 189.558 26.3174C189.558 26.3532 189.558 26.389 189.558 26.389C189.558 27.0326 189.594 27.6405 189.594 28.3199Z" fill="url(#paint32_linear)"/>
    <path d="M185.331 19.2731C185.367 19.2731 185.367 19.2731 185.367 19.3088C185.295 19.2731 185.223 19.2731 185.188 19.2373L185.259 19.2731C185.259 19.2731 185.295 19.2731 185.331 19.2731Z" fill="url(#paint33_linear)"/>
    <path d="M189.522 28.928C189.522 28.8923 189.522 28.8208 189.522 28.785C189.522 28.7492 189.522 28.7135 189.522 28.6777C189.558 28.7492 189.522 28.8208 189.522 28.928Z" fill="url(#paint34_linear)"/>
    <path opacity="0.6" d="M296.484 80.7403L297.559 81.3482L296.484 81.9561L295.875 83.0646L295.266 81.9561L294.155 81.3482L295.266 80.7403L295.875 79.6318L296.484 80.7403Z" fill="white"/>
    <path opacity="0.6" d="M165.049 95.6515L166.16 96.2593L165.049 96.8315L164.44 97.9399L163.831 96.8315L162.72 96.2593L163.831 95.6515L164.44 94.543L165.049 95.6515Z" fill="white"/>
    <path d="M256.709 32.3609L257.82 32.9688L256.709 33.5767L256.1 34.6852L255.491 33.5767L254.38 32.9688L255.491 32.3609L256.1 31.2524L256.709 32.3609Z" fill="white"/>
    <path d="M269.072 121.147C269.072 121.147 274.161 107.416 242.914 100.05" stroke="url(#paint35_linear)" stroke-width="3" stroke-miterlimit="10" stroke-linecap="round" stroke-linejoin="round"/>
    <path d="M251.191 97.2964L242.483 99.4776L247.285 107.022" stroke="url(#paint36_linear)" stroke-width="3" stroke-miterlimit="10" stroke-linecap="round" stroke-linejoin="round"/>
    <path d="M160.892 64.5072C160.892 64.5072 154.514 51.992 166.59 41.6938" stroke="url(#paint37_linear)" stroke-width="3" stroke-miterlimit="10" stroke-linecap="round" stroke-linejoin="round"/>
    <path d="M162.541 42.0867L167.271 41.2285L166.626 45.9843" stroke="url(#paint38_linear)" stroke-width="3" stroke-miterlimit="10" stroke-linecap="round" stroke-linejoin="round"/>
    <path d="M162.218 60.3589L161.502 65.4722L157.596 63.5771" stroke="url(#paint39_linear)" stroke-width="3" stroke-miterlimit="10" stroke-linecap="round" stroke-linejoin="round"/>
    <path d="M313.004 46.4848C314.706 46.4848 316.085 45.108 316.085 43.4096C316.085 41.7113 314.706 40.3345 313.004 40.3345C311.302 40.3345 309.922 41.7113 309.922 43.4096C309.922 45.108 311.302 46.4848 313.004 46.4848Z" fill="url(#paint40_linear)"/>
    <path d="M206.436 73.6606C207.287 73.6606 207.977 72.9722 207.977 72.123C207.977 71.2738 207.287 70.5854 206.436 70.5854C205.585 70.5854 204.896 71.2738 204.896 72.123C204.896 72.9722 205.585 73.6606 206.436 73.6606Z" fill="url(#paint41_radial)"/>
    <path opacity="0.8" d="M309.923 43.4096C311.624 43.4096 313.004 42.0328 313.004 40.3344C313.004 38.6361 311.624 37.2593 309.923 37.2593C308.221 37.2593 306.841 38.6361 306.841 40.3344C306.841 42.0328 308.221 43.4096 309.923 43.4096Z" fill="url(#paint42_radial)"/>
    <path d="M147.848 154.544C147.848 154.544 145.626 156.082 154.656 159.05C163.686 162.018 212.599 177.536 222.991 176.964C233.418 176.392 314.258 163.376 311.356 155.545C308.453 147.715 239.295 142.279 229.512 142.315C219.73 142.351 147.848 154.544 147.848 154.544Z" fill="url(#paint43_radial)"/>
    <defs>
        <linearGradient id="paint0_linear" x1="235.605" y1="156.618" x2="224.9" y2="10.3665" gradientUnits="userSpaceOnUse">
            <stop stop-color="#3DB39A"/>
            <stop offset="0.1071" stop-color="#41C9B1"/>
            <stop offset="1" stop-color="#41C9B1"/>
        </linearGradient>
        <linearGradient id="paint1_linear" x1="163.956" y1="79.6565" x2="290.228" y2="78.7546" gradientUnits="userSpaceOnUse">
            <stop stop-color="#21313E"/>
            <stop offset="0.1912" stop-color="#293643"/>
            <stop offset="0.3966" stop-color="#4A505B"/>
            <stop offset="0.6915" stop-color="#21313E"/>
            <stop offset="0.9971" stop-color="#3D4653"/>
        </linearGradient>
        <linearGradient id="paint2_linear" x1="165.645" y1="144.401" x2="273.977" y2="29.9855" gradientUnits="userSpaceOnUse">
            <stop stop-color="#C0D2E1"/>
            <stop offset="0.2999" stop-color="#D7E3EC"/>
            <stop offset="0.7451" stop-color="#F4F7FA"/>
            <stop offset="1" stop-color="white"/>
        </linearGradient>
        <linearGradient id="paint3_linear" x1="249.321" y1="44.4012" x2="266.38" y2="27.9415" gradientUnits="userSpaceOnUse">
            <stop stop-color="white" stop-opacity="0.1"/>
            <stop offset="1" stop-color="white" stop-opacity="0"/>
        </linearGradient>
        <radialGradient id="paint4_radial" cx="0" cy="0" r="1" gradientUnits="userSpaceOnUse" gradientTransform="translate(192.349 102.013) rotate(-1.50468) scale(17.0237 12.3598)">
            <stop stop-color="#696A7E" stop-opacity="0.3"/>
            <stop offset="1" stop-color="white" stop-opacity="0"/>
        </radialGradient>
        <linearGradient id="paint5_linear" x1="175.548" y1="109.558" x2="204.854" y2="92.6018" gradientUnits="userSpaceOnUse">
            <stop stop-color="#213351" stop-opacity="0.1"/>
            <stop offset="0.6453" stop-color="#273957" stop-opacity="0.0677337"/>
            <stop offset="1" stop-color="#2D3F5D" stop-opacity="0.05"/>
        </linearGradient>
        <linearGradient id="paint6_linear" x1="182.524" y1="44.5689" x2="194.551" y2="30.751" gradientUnits="userSpaceOnUse">
            <stop stop-color="#213351" stop-opacity="0.4"/>
            <stop offset="0.6453" stop-color="#273957" stop-opacity="0.2709"/>
            <stop offset="1" stop-color="#2D3F5D" stop-opacity="0.2"/>
        </linearGradient>
        <linearGradient id="paint7_linear" x1="259.176" y1="53.8818" x2="286.178" y2="66.6853" gradientUnits="userSpaceOnUse">
            <stop stop-color="#213351" stop-opacity="0.1"/>
            <stop offset="0.6453" stop-color="#273957" stop-opacity="0.0677337"/>
            <stop offset="1" stop-color="#2D3F5D" stop-opacity="0.05"/>
        </linearGradient>
        <linearGradient id="paint8_linear" x1="173.819" y1="79.7265" x2="207.834" y2="92.0542" gradientUnits="userSpaceOnUse">
            <stop stop-color="#FFD184"/>
            <stop offset="0.3277" stop-color="#FFCE81"/>
            <stop offset="0.5992" stop-color="#FFC676"/>
            <stop offset="0.8497" stop-color="#FFB865"/>
            <stop offset="1" stop-color="#FFAC57"/>
        </linearGradient>
        <linearGradient id="paint9_linear" x1="191.232" y1="105.719" x2="191.327" y2="77.0265" gradientUnits="userSpaceOnUse">
            <stop stop-color="#F1BB6D"/>
            <stop offset="1" stop-color="#FFA131"/>
        </linearGradient>
        <linearGradient id="paint10_linear" x1="170.762" y1="82.3292" x2="205.797" y2="95.0266" gradientUnits="userSpaceOnUse">
            <stop stop-color="#FF9800"/>
            <stop offset="1" stop-color="#FFC054"/>
        </linearGradient>
        <linearGradient id="paint11_linear" x1="173.705" y1="74.7109" x2="173.734" y2="74.7213" gradientUnits="userSpaceOnUse">
            <stop stop-color="#61D99A"/>
            <stop offset="1" stop-color="#65B490"/>
        </linearGradient>
        <linearGradient id="paint12_linear" x1="174.475" y1="86.3282" x2="174.511" y2="75.5303" gradientUnits="userSpaceOnUse">
            <stop stop-color="#FFD184"/>
            <stop offset="1" stop-color="#FFAC57"/>
        </linearGradient>
        <linearGradient id="paint13_linear" x1="177.864" y1="94.4036" x2="177.894" y2="85.5041" gradientUnits="userSpaceOnUse">
            <stop stop-color="#FFD184"/>
            <stop offset="1" stop-color="#FFAC57"/>
        </linearGradient>
        <linearGradient id="paint14_linear" x1="183.777" y1="101.067" x2="183.803" y2="93.2451" gradientUnits="userSpaceOnUse">
            <stop stop-color="#FFD184"/>
            <stop offset="1" stop-color="#FFAC57"/>
        </linearGradient>
        <linearGradient id="paint15_linear" x1="191.678" y1="105.852" x2="191.699" y2="99.4813" gradientUnits="userSpaceOnUse">
            <stop stop-color="#FFD184"/>
            <stop offset="1" stop-color="#FFAC57"/>
        </linearGradient>
        <linearGradient id="paint16_linear" x1="200.758" y1="106.406" x2="200.775" y2="101.359" gradientUnits="userSpaceOnUse">
            <stop stop-color="#FFD184"/>
            <stop offset="1" stop-color="#FFAC57"/>
        </linearGradient>
        <linearGradient id="paint17_linear" x1="175.928" y1="73.3202" x2="205.664" y2="84.0973" gradientUnits="userSpaceOnUse">
            <stop stop-color="white" stop-opacity="0.3"/>
            <stop offset="1" stop-color="white" stop-opacity="0"/>
        </linearGradient>
        <linearGradient id="paint18_linear" x1="287.309" y1="54.1444" x2="257.955" y2="57.2472" gradientUnits="userSpaceOnUse">
            <stop stop-color="#687B99"/>
            <stop offset="0.1381" stop-color="#5F738F"/>
            <stop offset="0.6786" stop-color="#41576B"/>
            <stop offset="0.9671" stop-color="#364C5D"/>
        </linearGradient>
        <linearGradient id="paint19_linear" x1="287.246" y1="53.5322" x2="258.453" y2="56.5757" gradientUnits="userSpaceOnUse">
            <stop stop-color="#8598B6"/>
            <stop offset="0.3943" stop-color="#66799B"/>
            <stop offset="0.7649" stop-color="#4F6387"/>
            <stop offset="1" stop-color="#475B80"/>
        </linearGradient>
        <linearGradient id="paint20_linear" x1="263.346" y1="46.4814" x2="269.848" y2="53.8998" gradientUnits="userSpaceOnUse">
            <stop stop-color="white"/>
            <stop offset="1" stop-color="white" stop-opacity="0.2"/>
        </linearGradient>
        <linearGradient id="paint21_linear" x1="173.707" y1="30.2921" x2="190.014" y2="30.2921" gradientUnits="userSpaceOnUse">
            <stop stop-color="#90B0FF"/>
            <stop offset="0.1375" stop-color="#89ABFD"/>
            <stop offset="0.342" stop-color="#759EF7"/>
            <stop offset="0.5882" stop-color="#5488EE"/>
            <stop offset="0.8645" stop-color="#266AE2"/>
            <stop offset="1" stop-color="#0D5ADB"/>
        </linearGradient>
        <linearGradient id="paint22_linear" x1="149.804" y1="6.67317" x2="178.939" y2="28.2278" gradientUnits="userSpaceOnUse">
            <stop stop-color="#90B0FF"/>
            <stop offset="0.1375" stop-color="#89ABFD"/>
            <stop offset="0.342" stop-color="#759EF7"/>
            <stop offset="0.5882" stop-color="#5488EE"/>
            <stop offset="0.8645" stop-color="#266AE2"/>
            <stop offset="1" stop-color="#0D5ADB"/>
        </linearGradient>
        <linearGradient id="paint23_linear" x1="185.192" y1="19.0325" x2="185.192" y2="19.8797" gradientUnits="userSpaceOnUse">
            <stop stop-color="#90B0FF"/>
            <stop offset="0.1375" stop-color="#89ABFD"/>
            <stop offset="0.342" stop-color="#759EF7"/>
            <stop offset="0.5882" stop-color="#5488EE"/>
            <stop offset="0.8645" stop-color="#266AE2"/>
            <stop offset="1" stop-color="#0D5ADB"/>
        </linearGradient>
        <linearGradient id="paint24_linear" x1="191.262" y1="24.654" x2="188.277" y2="41.0534" gradientUnits="userSpaceOnUse">
            <stop stop-color="#90B0FF"/>
            <stop offset="0.1375" stop-color="#89ABFD"/>
            <stop offset="0.342" stop-color="#759EF7"/>
            <stop offset="0.5882" stop-color="#5488EE"/>
            <stop offset="0.8645" stop-color="#266AE2"/>
            <stop offset="1" stop-color="#0D5ADB"/>
        </linearGradient>
        <linearGradient id="paint25_linear" x1="190.149" y1="24.4518" x2="187.165" y2="40.8512" gradientUnits="userSpaceOnUse">
            <stop stop-color="#90B0FF"/>
            <stop offset="0.1375" stop-color="#89ABFD"/>
            <stop offset="0.342" stop-color="#759EF7"/>
            <stop offset="0.5882" stop-color="#5488EE"/>
            <stop offset="0.8645" stop-color="#266AE2"/>
            <stop offset="1" stop-color="#0D5ADB"/>
        </linearGradient>
        <linearGradient id="paint26_linear" x1="187.84" y1="24.0312" x2="184.856" y2="40.4306" gradientUnits="userSpaceOnUse">
            <stop stop-color="#90B0FF"/>
            <stop offset="0.1375" stop-color="#89ABFD"/>
            <stop offset="0.342" stop-color="#759EF7"/>
            <stop offset="0.5882" stop-color="#5488EE"/>
            <stop offset="0.8645" stop-color="#266AE2"/>
            <stop offset="1" stop-color="#0D5ADB"/>
        </linearGradient>
        <linearGradient id="paint27_linear" x1="184.039" y1="23.3398" x2="181.054" y2="39.7392" gradientUnits="userSpaceOnUse">
            <stop stop-color="#90B0FF"/>
            <stop offset="0.1375" stop-color="#89ABFD"/>
            <stop offset="0.342" stop-color="#759EF7"/>
            <stop offset="0.5882" stop-color="#5488EE"/>
            <stop offset="0.8645" stop-color="#266AE2"/>
            <stop offset="1" stop-color="#0D5ADB"/>
        </linearGradient>
        <linearGradient id="paint28_linear" x1="191.48" y1="24.6941" x2="188.495" y2="41.0935" gradientUnits="userSpaceOnUse">
            <stop stop-color="#90B0FF"/>
            <stop offset="0.1375" stop-color="#89ABFD"/>
            <stop offset="0.342" stop-color="#759EF7"/>
            <stop offset="0.5882" stop-color="#5488EE"/>
            <stop offset="0.8645" stop-color="#266AE2"/>
            <stop offset="1" stop-color="#0D5ADB"/>
        </linearGradient>
        <linearGradient id="paint29_linear" x1="190.71" y1="24.5535" x2="187.725" y2="40.953" gradientUnits="userSpaceOnUse">
            <stop stop-color="#90B0FF"/>
            <stop offset="0.1375" stop-color="#89ABFD"/>
            <stop offset="0.342" stop-color="#759EF7"/>
            <stop offset="0.5882" stop-color="#5488EE"/>
            <stop offset="0.8645" stop-color="#266AE2"/>
            <stop offset="1" stop-color="#0D5ADB"/>
        </linearGradient>
        <linearGradient id="paint30_linear" x1="188.696" y1="24.2593" x2="185.647" y2="41.0135" gradientUnits="userSpaceOnUse">
            <stop stop-color="#90B0FF"/>
            <stop offset="0.1375" stop-color="#89ABFD"/>
            <stop offset="0.342" stop-color="#759EF7"/>
            <stop offset="0.5882" stop-color="#5488EE"/>
            <stop offset="0.8645" stop-color="#266AE2"/>
            <stop offset="1" stop-color="#0D5ADB"/>
        </linearGradient>
        <linearGradient id="paint31_linear" x1="185.435" y1="19.3423" x2="185.34" y2="18.9781" gradientUnits="userSpaceOnUse">
            <stop stop-color="white"/>
            <stop offset="1" stop-color="white" stop-opacity="0.5"/>
        </linearGradient>
        <linearGradient id="paint32_linear" x1="176.942" y1="23.7701" x2="189.976" y2="25.3795" gradientUnits="userSpaceOnUse">
            <stop stop-color="white" stop-opacity="0.3"/>
            <stop offset="1" stop-color="white" stop-opacity="0"/>
        </linearGradient>
        <linearGradient id="paint33_linear" x1="185.17" y1="19.2661" x2="185.363" y2="19.2661" gradientUnits="userSpaceOnUse">
            <stop stop-color="white" stop-opacity="0.3"/>
            <stop offset="1" stop-color="white" stop-opacity="0"/>
        </linearGradient>
        <linearGradient id="paint34_linear" x1="189.526" y1="28.7957" x2="189.545" y2="28.7957" gradientUnits="userSpaceOnUse">
            <stop stop-color="white" stop-opacity="0.3"/>
            <stop offset="1" stop-color="white" stop-opacity="0"/>
        </linearGradient>
        <linearGradient id="paint35_linear" x1="242.371" y1="110.576" x2="269.904" y2="110.576" gradientUnits="userSpaceOnUse">
            <stop stop-color="#2E3E69"/>
            <stop offset="1" stop-color="#212F5D"/>
        </linearGradient>
        <linearGradient id="paint36_linear" x1="241.955" y1="102.163" x2="251.715" y2="102.163" gradientUnits="userSpaceOnUse">
            <stop stop-color="#2E3E69"/>
            <stop offset="1" stop-color="#212F5D"/>
        </linearGradient>
        <linearGradient id="paint37_linear" x1="171.496" y1="46.2747" x2="156.199" y2="59.9988" gradientUnits="userSpaceOnUse">
            <stop stop-color="#2E3E69"/>
            <stop offset="1" stop-color="#212F5D"/>
        </linearGradient>
        <linearGradient id="paint38_linear" x1="168.38" y1="42.3502" x2="163.173" y2="44.7458" gradientUnits="userSpaceOnUse">
            <stop stop-color="#2E3E69"/>
            <stop offset="1" stop-color="#212F5D"/>
        </linearGradient>
        <linearGradient id="paint39_linear" x1="160.893" y1="66.1585" x2="159.548" y2="60.4305" gradientUnits="userSpaceOnUse">
            <stop stop-color="#2E3E69"/>
            <stop offset="1" stop-color="#212F5D"/>
        </linearGradient>
        <linearGradient id="paint40_linear" x1="309.939" y1="43.3981" x2="316.075" y2="43.3981" gradientUnits="userSpaceOnUse">
            <stop stop-color="#213351" stop-opacity="0.4"/>
            <stop offset="0.6453" stop-color="#273957" stop-opacity="0.2709"/>
            <stop offset="1" stop-color="#2D3F5D" stop-opacity="0.2"/>
        </linearGradient>
        <radialGradient id="paint41_radial" cx="0" cy="0" r="1" gradientUnits="userSpaceOnUse" gradientTransform="translate(207.664 70.7328) scale(3.8437 3.83553)">
            <stop stop-color="white"/>
            <stop offset="1" stop-color="#90B0FF"/>
        </radialGradient>
        <radialGradient id="paint42_radial" cx="0" cy="0" r="1" gradientUnits="userSpaceOnUse" gradientTransform="translate(312.363 37.5647) scale(7.68739 7.67111)">
            <stop stop-color="white"/>
            <stop offset="1" stop-color="#90B0FF"/>
        </radialGradient>
        <radialGradient id="paint43_radial" cx="0" cy="0" r="1" gradientUnits="userSpaceOnUse" gradientTransform="translate(229.531 159.615) scale(59.6927 15.717)">
            <stop stop-color="#21313E" stop-opacity="0.3"/>
            <stop offset="0.9143" stop-color="#44577A" stop-opacity="0.0257033"/>
            <stop offset="1" stop-color="#475B80" stop-opacity="0"/>
        </radialGradient>
        <clipPath id="clip0">
            <rect width="135.861" height="161.432" fill="white" transform="translate(160.3 0.172363)"/>
        </clipPath>
        <clipPath id="clip1">
            <rect width="135.861" height="161.432" fill="white" transform="translate(160.3 0.172363)"/>
        </clipPath>
        <clipPath id="clip2">
            <rect width="135.861" height="161.432" fill="white" transform="translate(160.3 0.172363)"/>
        </clipPath>
    </defs>
</svg>
