<?xml version="1.0" encoding="utf-8"?>
<!-- Generator: Adobe Illustrator 26.0.3, SVG Export Plug-In . SVG Version: 6.00 Build 0)  -->
<svg version="1.1" id="Layer_1" xmlns="http://www.w3.org/2000/svg" xmlns:xlink="http://www.w3.org/1999/xlink" x="0px" y="0px"
	 viewBox="0 0 430 177" style="enable-background:new 0 0 430 177;" xml:space="preserve">
<style type="text/css">
	.st0{clip-path:url(#SVGID_00000044143600732402068570000010389348123579623048_);}
	.st1{clip-path:url(#SVGID_00000036940504842603630440000004924798603975400835_);}
	.st2{clip-path:url(#SVGID_00000143611728482577412140000010675867126716470707_);}
	.st3{fill:url(#SVGID_00000099655399843623852610000013968667968275206278_);}
	.st4{fill:url(#SVGID_00000172437060131331122660000006465925284927221436_);}
	.st5{fill:url(#SVGID_00000182499981888007892930000002008069389318410667_);}
	.st6{fill:url(#SVGID_00000051358554179941312760000010517734464124964501_);}
	.st7{fill:url(#SVGID_00000157276966879703384980000012828965393420033153_);}
	.st8{fill:url(#SVGID_00000007399514740589539470000008552086007543229342_);}
	.st9{fill:url(#SVGID_00000039855773281309195650000012857138978496092836_);}
	.st10{fill:url(#SVGID_00000111182155505292428180000002878014622949843075_);}
	.st11{fill:url(#SVGID_00000021119408522321162310000003477486034274859915_);}
	.st12{fill:url(#SVGID_00000049943808333681251560000006764956349037512887_);}
	.st13{fill:url(#SVGID_00000093860073844101644380000004123438036002694813_);}
	.st14{fill:url(#SVGID_00000177468854654682460690000009529601332871799215_);}
	.st15{fill:url(#SVGID_00000121972814087740173750000008908700070280359309_);}
	.st16{fill:url(#SVGID_00000170987794146443188840000017746964245357450419_);}
	.st17{fill:url(#SVGID_00000145765426707577911620000004902796483825210017_);}
	.st18{fill:url(#SVGID_00000160163270773389568450000011091865294544238239_);}
	.st19{fill:url(#SVGID_00000057856218768453951500000008598083973313806762_);}
	.st20{fill:url(#SVGID_00000048473538814959447580000006259936888462672288_);}
	.st21{fill:#FFFFFF;}
	.st22{fill:url(#SVGID_00000048503429704102187340000017454562246118913941_);}
	.st23{fill:url(#SVGID_00000047037268428112550690000003435698895024711309_);}
	.st24{opacity:0.5;fill:url(#SVGID_00000044163895359476215500000009884946600736822696_);enable-background:new    ;}
	.st25{fill:url(#SVGID_00000093876281534960808080000000699931266618686398_);}
	.st26{fill:url(#SVGID_00000014630568208305191400000014053414379290201499_);}
	.st27{fill:url(#SVGID_00000121964047119041406710000002124954273467221933_);}
	.st28{fill:url(#SVGID_00000176763259233965345720000018117970981203292581_);}
	.st29{fill:url(#SVGID_00000119804941339130672550000001078563992233115796_);}
	.st30{fill:url(#SVGID_00000135683116324791863650000014707838537886823065_);}
	.st31{fill:url(#SVGID_00000064325435071793213980000000331473353732046508_);}
	.st32{fill:url(#SVGID_00000056389505826002873320000003116141598216689314_);}
	.st33{fill:url(#SVGID_00000170259814085461102070000001057182161537329029_);}
	.st34{fill:url(#SVGID_00000000191790642761663550000002987513866872651952_);}
	.st35{opacity:0.5;fill:url(#SVGID_00000125584690485757030860000004833164692206656158_);enable-background:new    ;}
	.st36{fill:url(#SVGID_00000068636987958566001120000012796459664717050535_);}
	.st37{fill:url(#SVGID_00000113330480095114184390000015741314166394228370_);}
	.st38{fill:url(#SVGID_00000098187159233564913490000000804380322250113169_);}
	.st39{opacity:0.6;fill:#FFFFFF;enable-background:new    ;}
	
		.st40{fill:none;stroke:url(#SVGID_00000014604726127139304720000017945725128451399818_);stroke-width:3;stroke-linecap:round;stroke-linejoin:round;stroke-miterlimit:10;}
	
		.st41{fill:none;stroke:url(#SVGID_00000111914032670194615450000007457425087942835643_);stroke-width:3;stroke-linecap:round;stroke-linejoin:round;stroke-miterlimit:10;}
	
		.st42{fill:none;stroke:url(#SVGID_00000110460279667270042470000007760744357170609038_);stroke-width:3;stroke-linecap:round;stroke-linejoin:round;stroke-miterlimit:10;}
	
		.st43{fill:none;stroke:url(#SVGID_00000163046651750810690400000004476836780463861390_);stroke-width:3;stroke-linecap:round;stroke-linejoin:round;stroke-miterlimit:10;}
	
		.st44{fill:none;stroke:url(#SVGID_00000041288960513647962640000000323946190648853667_);stroke-width:3;stroke-linecap:round;stroke-linejoin:round;stroke-miterlimit:10;}
	.st45{fill:url(#SVGID_00000082362989225146763800000011917233574632181918_);}
	.st46{fill:url(#SVGID_00000111907147702334133900000007820690055065234074_);}
	.st47{opacity:0.8;fill:url(#SVGID_00000005225753088045550440000007477296653694896028_);enable-background:new    ;}
	.st48{fill:url(#SVGID_00000178168665730063238210000017799206809561438088_);}
</style>
<g>
	<defs>
		<rect id="SVGID_1_" x="160.3" y="0.2" width="135.9" height="161.4"/>
	</defs>
	<clipPath id="SVGID_00000060737530883125272920000000605390447474688186_">
		<use xlink:href="#SVGID_1_"  style="overflow:visible;"/>
	</clipPath>
	<g style="clip-path:url(#SVGID_00000060737530883125272920000000605390447474688186_);">
		<g>
			<defs>
				<rect id="SVGID_00000147921484854436851820000006292676083318084017_" x="160.3" y="0.2" width="135.9" height="161.4"/>
			</defs>
			<clipPath id="SVGID_00000179611185734764687340000001063817424331186309_">
				<use xlink:href="#SVGID_00000147921484854436851820000006292676083318084017_"  style="overflow:visible;"/>
			</clipPath>
			<g style="clip-path:url(#SVGID_00000179611185734764687340000001063817424331186309_);">
				<g>
					<defs>
						<rect id="SVGID_00000038411964414671032840000012833077487713614507_" x="160.3" y="0.2" width="135.9" height="161.4"/>
					</defs>
					<clipPath id="SVGID_00000070804711228087089030000004504173095956283572_">
						<use xlink:href="#SVGID_00000038411964414671032840000012833077487713614507_"  style="overflow:visible;"/>
					</clipPath>
					<g style="clip-path:url(#SVGID_00000070804711228087089030000004504173095956283572_);">
						
							<linearGradient id="SVGID_00000137095197266473001850000002587366599064688005_" gradientUnits="userSpaceOnUse" x1="234.1016" y1="21.272" x2="223.3966" y2="167.5235" gradientTransform="matrix(1 0 0 -1 0 178)">
							<stop  offset="0" style="stop-color:#3DB39A"/>
							<stop  offset="0.1071" style="stop-color:#41C9B1"/>
							<stop  offset="1" style="stop-color:#41C9B1"/>
						</linearGradient>
						<path style="fill:url(#SVGID_00000137095197266473001850000002587366599064688005_);" d="M238.9,151.6
							c0,0,51.4-113.1,56-122.7c3.3-7-0.9-12.4-1-12.7c0,0-2.9-4.6-9-5.9c-1.8-0.4-6-1.2-8-1.6c0.1-0.1-36-7.1-35.9-7.3
							c-2.7-0.5-4.7-0.9-5.9-1.1c-8-1.5-11.6,4.3-11.6,4.3l-8.2,15.6c0,0-49,98.7-53.2,107.3c-1.2,2.4-1.3,4.8-1.3,6.7
							c-0.1,3.4,3,11.2,7.3,12.4c18.1,5.3,43.3,11.9,54.6,14.6C233.8,163.9,238.9,151.6,238.9,151.6z"/>
						
							<linearGradient id="SVGID_00000105388034262240753840000017856976628396059526_" gradientUnits="userSpaceOnUse" x1="163.952" y1="98.3024" x2="290.2109" y2="99.2042" gradientTransform="matrix(1 0 0 -1 0 178)">
							<stop  offset="0" style="stop-color:#21313E"/>
							<stop  offset="0.1912" style="stop-color:#293643"/>
							<stop  offset="0.3966" style="stop-color:#4A505B"/>
							<stop  offset="0.6915" style="stop-color:#21313E"/>
							<stop  offset="0.9971" style="stop-color:#3D4653"/>
						</linearGradient>
						<path style="fill:url(#SVGID_00000105388034262240753840000017856976628396059526_);" d="M288.9,24.1
							c-1.8,3.9-13.6,30.3-25.7,57.2c-3.8,8.5-7.7,17-11.3,24.9c-9.8,21.6-17.7,39.1-17.7,39.1s-4.4,10.7-14.3,8.4
							c-9.5-2.3-47.6-12.4-50.1-13.3c-2.2-0.8-7.7-5.4-4.3-12.3c3.7-7.5,51.9-104.8,51.9-104.8l5.9-11.8c0,0,0-0.1,0.1-0.1
							c1.4-2.5,3.7-6.2,8.4-7c1-0.2,2.2-0.2,3.4,0c0.9,0.2,2.5,0.5,4.4,0.8c0,0,0.3,0.1,0.9,0.1c5.9,1.1,40.2,7.5,40.2,7.5
							s3.4,0.8,4.4,1.2C287.5,15.2,291.6,18,288.9,24.1z"/>
						
							<linearGradient id="SVGID_00000145021375155549071570000001975964263679980935_" gradientUnits="userSpaceOnUse" x1="165.7862" y1="33.4653" x2="274.1182" y2="147.8808" gradientTransform="matrix(1 0 0 -1 0 178)">
							<stop  offset="0" style="stop-color:#C0D2E1"/>
							<stop  offset="0.2999" style="stop-color:#D7E3EC"/>
							<stop  offset="0.7451" style="stop-color:#F4F7FA"/>
							<stop  offset="1" style="stop-color:#FFFFFF"/>
						</linearGradient>
						<path style="fill:url(#SVGID_00000145021375155549071570000001975964263679980935_);" d="M287.6,24.2
							c-2,4.5-17.3,38.2-31.1,68.6c-1.9,4.1-3.7,8.1-5.4,12c-9.8,21.6-17.7,39-17.7,39s-4.4,10.7-14.3,8.4c-9.5-2.3-45-12-47.5-12.7
							c-1.8-0.5-8.3-4.4-4.3-12.3c3.8-7.4,51.9-104.8,51.9-104.8s4.3-9,5.9-11.9c0.4-0.8,1.6-2.6,3.7-3.9c1.7-1.1,4-1.8,7-1.3
							c1,0.2,5.4,1.1,5.7,1.2c-1.1,2-0.8,4.8,1.6,5.2l26.2,5.1c2.5,0.5,6.4-1.6,8.3-3.6c0,0,0.1-0.1,0.1-0.1
							c0.6,0.1,1.1,0.2,1.6,0.3c1.4,0.3,1.6,0.3,2.2,0.4C285.8,14.8,290.6,17.2,287.6,24.2z"/>
					</g>
				</g>
			</g>
		</g>
	</g>
</g>
<linearGradient id="SVGID_00000179641273339715877410000004281807952600293003_" gradientUnits="userSpaceOnUse" x1="249.3141" y1="133.606" x2="266.3731" y2="150.0657" gradientTransform="matrix(1 0 0 -1 0 178)">
	<stop  offset="0" style="stop-color:#FFFFFF;stop-opacity:0.1"/>
	<stop  offset="1" style="stop-color:#FFFFFF;stop-opacity:0"/>
</linearGradient>
<path style="fill:url(#SVGID_00000179641273339715877410000004281807952600293003_);" d="M289.1,26.5c-2,4.3-14.7,32.9-28,62.4
	L234,3.3c6.7,1.2,46.2,8.7,46.2,8.7s3.8,0.8,4.9,1.3C288.1,14.4,292.2,19.8,289.1,26.5z"/>
<radialGradient id="SVGID_00000013193243575348350120000010714905165942008733_" cx="-173.6753" cy="463.4561" r="1.0003" gradientTransform="matrix(17.0178 -0.447 -0.3246 -12.3555 3298.3352 5750.6196)" gradientUnits="userSpaceOnUse">
	<stop  offset="0" style="stop-color:#696A7E;stop-opacity:0.3"/>
	<stop  offset="1" style="stop-color:#FFFFFF;stop-opacity:0"/>
</radialGradient>
<path style="fill:url(#SVGID_00000013193243575348350120000010714905165942008733_);" d="M208.8,99.9c0.2,7.9-8.5,14.6-19.4,14.9
	c-10.9,0.3-13.3-0.6-13.5-8.5c-0.2-7.9,6.2-16.7,17.1-17C204,89,208.6,92,208.8,99.9z"/>
<linearGradient id="SVGID_00000113338309178324986930000001239469529489581989_" gradientUnits="userSpaceOnUse" x1="175.5619" y1="68.4133" x2="204.8807" y2="85.3769" gradientTransform="matrix(1 0 0 -1 0 178)">
	<stop  offset="0" style="stop-color:#213351;stop-opacity:0.1"/>
	<stop  offset="0.6453" style="stop-color:#273957;stop-opacity:6.773370e-02"/>
	<stop  offset="1" style="stop-color:#2D3F5D;stop-opacity:5.000000e-02"/>
</linearGradient>
<path style="fill:url(#SVGID_00000113338309178324986930000001239469529489581989_);" d="M204.9,92.6c2.9,5-1.3,12.9-9.4,17.6
	c-8.1,4.7-17,4.4-20-0.7c-2.9-5,1.3-12.9,9.4-17.6C193,87.3,202,87.6,204.9,92.6z"/>
<linearGradient id="SVGID_00000008122898009798409840000012307613774894908334_" gradientUnits="userSpaceOnUse" x1="182.5167" y1="133.4306" x2="194.5437" y2="147.2485" gradientTransform="matrix(1 0 0 -1 0 178)">
	<stop  offset="0" style="stop-color:#213351;stop-opacity:0.4"/>
	<stop  offset="0.6453" style="stop-color:#273957;stop-opacity:0.2709"/>
	<stop  offset="1" style="stop-color:#2D3F5D;stop-opacity:0.2"/>
</linearGradient>
<path style="fill:url(#SVGID_00000008122898009798409840000012307613774894908334_);" d="M194.6,30.8c2.4,2.1,1.6,6.8-1.7,10.7
	c-3.3,3.8-8,5.2-10.4,3.1c-2.4-2.1-1.6-6.8,1.7-10.7C187.6,30.1,192.2,28.7,194.6,30.8z"/>
<linearGradient id="SVGID_00000112603979521529546930000005795432362406777480_" gradientUnits="userSpaceOnUse" x1="259.1768" y1="124.1199" x2="286.1771" y2="111.3172" gradientTransform="matrix(1 0 0 -1 0 178)">
	<stop  offset="0" style="stop-color:#213351;stop-opacity:0.1"/>
	<stop  offset="0.6453" style="stop-color:#273957;stop-opacity:6.773370e-02"/>
	<stop  offset="1" style="stop-color:#2D3F5D;stop-opacity:5.000000e-02"/>
</linearGradient>
<path style="fill:url(#SVGID_00000112603979521529546930000005795432362406777480_);" d="M286.2,66.7c-3,6.3-11.5,8.6-19,5.1
	c-7.5-3.5-11.1-11.5-8.1-17.9c3-6.3,11.5-8.6,19-5.1C285.6,52.3,289.2,60.3,286.2,66.7z"/>
<linearGradient id="SVGID_00000010279635173388335330000005380878022422635695_" gradientUnits="userSpaceOnUse" x1="173.7865" y1="98.2485" x2="207.8035" y2="85.9201" gradientTransform="matrix(1 0 0 -1 0 178)">
	<stop  offset="0" style="stop-color:#FFD184"/>
	<stop  offset="0.3277" style="stop-color:#FFCE81"/>
	<stop  offset="0.5992" style="stop-color:#FFC676"/>
	<stop  offset="0.8497" style="stop-color:#FFB865"/>
	<stop  offset="1" style="stop-color:#FFAC57"/>
</linearGradient>
<path style="fill:url(#SVGID_00000010279635173388335330000005380878022422635695_);" d="M204.1,100.6l-0.4,0.3c0,0,0,0,0,0
	c-0.1,0-0.1,0.1-0.2,0.1c-0.2,0.1-0.4,0.2-0.6,0.3c-0.2,0.1-0.5,0.2-0.7,0.3c-0.2,0.1-0.5,0.1-0.7,0.2c-0.3,0-0.6,0.1-0.9,0.1
	c-0.1,0-0.1,0-0.2,0c-0.3,0-0.7,0-1,0c-0.3,0-0.6,0-0.9-0.1c-0.1,0-0.3,0-0.4-0.1c-0.3,0-0.6-0.1-1-0.2c-0.6-0.1-1.1-0.4-1.8-0.6
	c-0.3-0.1-0.6-0.2-1-0.4c-0.3-0.1-0.6-0.2-0.9-0.4c-0.1,0-0.2-0.1-0.3-0.1c-0.3-0.1-0.6-0.3-0.9-0.5c-0.4-0.2-0.7-0.4-1-0.6
	c0,0-0.1,0-0.1-0.1c-0.7-0.4-1.3-0.9-2-1.4c-0.1-0.1-0.2-0.2-0.4-0.3c-0.3-0.2-0.5-0.4-0.8-0.6c-0.4-0.3-0.7-0.6-1.1-0.9
	c-0.3-0.3-0.6-0.5-0.9-0.8c-0.2-0.2-0.5-0.5-0.7-0.7c-0.5-0.5-1.1-1.1-1.6-1.6c-0.1-0.1-0.2-0.2-0.3-0.3c-1-1.1-2-2.4-2.8-3.5
	c-0.5-0.6-0.9-1.3-1.3-2c-0.2-0.3-0.4-0.7-0.6-1c-0.2-0.3-0.4-0.6-0.5-1c-0.2-0.4-0.4-0.8-0.6-1.1c0-0.1-0.1-0.1-0.1-0.3
	c-0.3-0.6-0.6-1.3-0.8-1.9c-0.2-0.5-0.4-1-0.5-1.5c-0.3-1-0.5-2-0.6-3c-0.1-0.9-0.1-1.6,0-2.4c0-0.3,0.1-0.5,0.1-0.8
	c0.1-0.3,0.1-0.5,0.2-0.7c0-0.1,0.1-0.3,0.1-0.4c0.1-0.1,0.1-0.3,0.2-0.4c0.3-0.5,0.6-1,1.1-1.4c4-3.6,13.2,0.2,20.5,8.4
	c2.7,2.9,4.7,6.1,6,9C206.4,93.6,206.6,98.4,204.1,100.6z"/>
<linearGradient id="SVGID_00000089547992726779413430000005519082421621199752_" gradientUnits="userSpaceOnUse" x1="191.2271" y1="72.281" x2="191.3221" y2="100.9735" gradientTransform="matrix(1 0 0 -1 0 178)">
	<stop  offset="0" style="stop-color:#F1BB6D"/>
	<stop  offset="1" style="stop-color:#FFA131"/>
</linearGradient>
<path style="fill:url(#SVGID_00000089547992726779413430000005519082421621199752_);" d="M200.1,95.7l-0.3,0.2
	c-0.3,0.2-0.7,0.3-1,0.4c-1,0.2-2.1,0.1-3.4-0.4c-2.8-0.9-6.2-3.3-9.1-6.7c-3-3.5-4.9-7.3-5.1-10.1c-0.1-1,0-2,0.4-2.7
	c0.2-0.4,0.5-0.8,0.9-1.1c2.8-2,9,0.8,13.8,6.4C201.2,87.5,202.9,93.6,200.1,95.7z"/>
<linearGradient id="SVGID_00000165947809822807568750000015545412113733640585_" gradientUnits="userSpaceOnUse" x1="170.7689" y1="95.69" x2="205.8039" y2="82.9926" gradientTransform="matrix(1 0 0 -1 0 178)">
	<stop  offset="0" style="stop-color:#FF9800"/>
	<stop  offset="1" style="stop-color:#FFC054"/>
</linearGradient>
<path style="fill:url(#SVGID_00000165947809822807568750000015545412113733640585_);" d="M203.6,101c-0.4,0.4-1.8,1.6-2.4,2.1
	c-0.1,0.1-0.2,0.2-0.2,0.2c0,0-0.1,0.1-0.1,0.1c-0.4,0.4-0.9,0.6-1.4,0.9c-0.5,0.2-1.1,0.4-1.7,0.4c-1.6,0.2-3.6-0.1-5.6-1
	c-1.4-0.5-2.8-1.3-4.3-2.2c-1.4-0.9-2.7-1.9-4.1-3.1c-1.1-1-2.3-2.1-3.4-3.4c0,0,0,0,0,0c-1.1-1.2-2-2.4-2.9-3.6
	c-1-1.4-1.9-2.8-2.5-4.2c-0.8-1.5-1.4-3-1.8-4.5c-0.6-2.2-0.8-4.2-0.4-5.8c0.2-0.9,0.5-1.6,0.9-2.2c0,0,0,0,0,0c0,0,0,0,0,0
	c0.2-0.3,0.4-0.5,0.7-0.8c0.2-0.2,0.4-0.4,0.7-0.5l1.2-1.1l1.3-1.2c-0.4,0.4-0.8,0.9-1.1,1.4c-0.1,0.1-0.1,0.2-0.2,0.4
	c-0.1,0.1-0.1,0.3-0.1,0.4c-0.1,0.2-0.1,0.5-0.2,0.7c-0.1,0.3-0.1,0.5-0.1,0.8c-0.1,0.8-0.1,1.5,0,2.4c0.1,0.9,0.3,1.9,0.6,3
	c0.1,0.5,0.3,1,0.5,1.5c0.2,0.6,0.5,1.3,0.8,1.9c0,0.1,0.1,0.1,0.1,0.3c0.2,0.4,0.4,0.8,0.6,1.1c0.2,0.3,0.4,0.6,0.5,1
	s0.4,0.6,0.6,1c0.4,0.6,0.9,1.3,1.3,2c0.8,1.2,1.8,2.4,2.8,3.5c0.1,0.1,0.2,0.2,0.3,0.3c0.5,0.6,1,1.1,1.6,1.6
	c0.3,0.3,0.5,0.5,0.7,0.7c0.3,0.3,0.6,0.5,0.9,0.8c0.4,0.3,0.7,0.6,1.1,0.9c0.3,0.2,0.5,0.4,0.8,0.6c0.1,0.1,0.2,0.2,0.4,0.3
	c0.6,0.5,1.3,0.9,2,1.4c0,0,0.1,0,0.1,0.1c0.3,0.2,0.7,0.4,1,0.6c0.3,0.2,0.6,0.3,0.9,0.5c0.1,0,0.2,0.1,0.3,0.1
	c0.3,0.1,0.6,0.3,0.9,0.4c0.3,0.1,0.7,0.3,1,0.4c0.6,0.2,1.2,0.4,1.8,0.6c0.4,0.1,0.7,0.2,1,0.2c0.1,0,0.3,0.1,0.4,0.1
	c0.3,0,0.6,0.1,0.9,0.1c0.4,0,0.7,0,1,0c0,0,0.1,0,0.2,0c0.3,0,0.6,0,0.9-0.1c0.2,0,0.5-0.1,0.7-0.2c0.3-0.1,0.5-0.2,0.7-0.3
	C203.2,101.3,203.4,101.2,203.6,101C203.5,101.1,203.6,101,203.6,101z"/>
<linearGradient id="SVGID_00000137825722506580357850000017665933743733476762_" gradientUnits="userSpaceOnUse" x1="173.7186" y1="103.327" x2="173.7476" y2="103.3166" gradientTransform="matrix(1 0 0 -1 0 178)">
	<stop  offset="0" style="stop-color:#61D99A"/>
	<stop  offset="1" style="stop-color:#65B490"/>
</linearGradient>
<path style="fill:url(#SVGID_00000137825722506580357850000017665933743733476762_);" d="M173.8,74.7
	C173.7,74.7,173.7,74.7,173.8,74.7L173.8,74.7L173.8,74.7z"/>
<linearGradient id="SVGID_00000147191966269062506610000007350698607302846623_" gradientUnits="userSpaceOnUse" x1="174.4915" y1="91.6717" x2="174.5275" y2="102.4697" gradientTransform="matrix(1 0 0 -1 0 178)">
	<stop  offset="0" style="stop-color:#FFD184"/>
	<stop  offset="1" style="stop-color:#FFAC57"/>
</linearGradient>
<path style="fill:url(#SVGID_00000147191966269062506610000007350698607302846623_);" d="M176.4,80.1l-3.2,2.7
	c-0.6-2.2-0.8-4.2-0.4-5.8l3-2.3c-0.1,0.8-0.1,1.5,0,2.4C175.9,78,176.1,79,176.4,80.1z"/>
<linearGradient id="SVGID_00000178193030568575472790000014345118951999237039_" gradientUnits="userSpaceOnUse" x1="177.856" y1="83.5964" x2="177.886" y2="92.4959" gradientTransform="matrix(1 0 0 -1 0 178)">
	<stop  offset="0" style="stop-color:#FFD184"/>
	<stop  offset="1" style="stop-color:#FFAC57"/>
</linearGradient>
<path style="fill:url(#SVGID_00000178193030568575472790000014345118951999237039_);" d="M180.7,88.8l-3.2,2.8
	c-1-1.4-1.9-2.8-2.5-4.2l3.3-2.5C179,86.1,179.8,87.4,180.7,88.8z"/>
<linearGradient id="SVGID_00000146494019699551158820000011641005605580929963_" gradientUnits="userSpaceOnUse" x1="183.7703" y1="76.933" x2="183.7963" y2="84.7549" gradientTransform="matrix(1 0 0 -1 0 178)">
	<stop  offset="0" style="stop-color:#FFD184"/>
	<stop  offset="1" style="stop-color:#FFAC57"/>
</linearGradient>
<path style="fill:url(#SVGID_00000146494019699551158820000011641005605580929963_);" d="M187.1,95.8l-3.2,2.8
	c-1.1-1-2.3-2.1-3.4-3.4l3.4-2.5C184.9,93.8,186,94.8,187.1,95.8z"/>
<linearGradient id="SVGID_00000010993565789402581660000017477011938656803509_" gradientUnits="userSpaceOnUse" x1="191.6754" y1="72.148" x2="191.6964" y2="78.5187" gradientTransform="matrix(1 0 0 -1 0 178)">
	<stop  offset="0" style="stop-color:#FFD184"/>
	<stop  offset="1" style="stop-color:#FFAC57"/>
</linearGradient>
<path style="fill:url(#SVGID_00000010993565789402581660000017477011938656803509_);" d="M195.4,101l-3.2,2.8
	c-1.4-0.5-2.8-1.3-4.3-2.2l3.5-2.6C192.8,99.8,194.1,100.5,195.4,101z"/>
<linearGradient id="SVGID_00000031166078080921565830000009149987639719291565_" gradientUnits="userSpaceOnUse" x1="200.7445" y1="71.594" x2="200.7615" y2="76.641" gradientTransform="matrix(1 0 0 -1 0 178)">
	<stop  offset="0" style="stop-color:#FFD184"/>
	<stop  offset="1" style="stop-color:#FFAC57"/>
</linearGradient>
<path style="fill:url(#SVGID_00000031166078080921565830000009149987639719291565_);" d="M203.7,100.9c-0.3,0.2-2.5,2.3-2.8,2.5
	c-0.4,0.4-0.9,0.6-1.4,0.9c-0.5,0.2-1.1,0.4-1.7,0.4l3.7-2.9c0.2,0,0.5-0.1,0.7-0.2C202.7,101.5,203.2,101.3,203.7,100.9z"/>
<linearGradient id="SVGID_00000052076628342220689360000009189972323809660829_" gradientUnits="userSpaceOnUse" x1="175.9498" y1="104.7399" x2="205.697" y2="93.9587" gradientTransform="matrix(1 0 0 -1 0 178)">
	<stop  offset="0" style="stop-color:#FFFFFF;stop-opacity:0.3"/>
	<stop  offset="1" style="stop-color:#FFFFFF;stop-opacity:0"/>
</linearGradient>
<path style="fill:url(#SVGID_00000052076628342220689360000009189972323809660829_);" d="M204.1,88.4c-1.1,0.1-2.4,0-3.7-0.3
	c-4.6-0.9-10.2-3.5-15.6-7.7c-1.3-1-2.4-1.9-3.5-2.9c-1.8-1.7-3.4-3.4-4.7-5.1c-0.1-0.1-0.1-0.2-0.2-0.3l1.3-1.2
	c4-3.6,13.2,0.2,20.5,8.4C200.7,82.3,202.7,85.5,204.1,88.4z"/>
<path class="st21" d="M187.4,85.1c-0.4-0.4-0.8-0.8-1.1-1.1c0.4-0.4,0.7-0.8,1-1.1c0,0,0,0,0,0c-0.5-0.5-1.1-1.1-1.6-1.6
	c0.2-0.2,0.3-0.4,0.5-0.5c0.5,0.5,1.1,1.1,1.6,1.6c0.1-0.1,0.2-0.3,0.4-0.4c-0.5-0.5-1.1-1-1.6-1.6c0.2-0.2,0.3-0.4,0.5-0.5l0,0
	c0.5,0.5,1,1,1.5,1.5c0,0,0,0,0.1,0c0,0,0,0,0.1,0c0.2-0.1,0.4-0.3,0.6-0.3c0.3-0.1,0.5-0.1,0.9,0c0.4,0.1,0.8,0.4,1.3,0.8
	c0.6,0.6,1,1.2,1.1,1.9v0c0,0,0.1,0,0.1,0c0,0,0.1,0,0.1,0c0.4-0.1,0.9,0,1.5,0.5c0.1,0.1,0.2,0.2,0.3,0.3c0.1,0.1,0.3,0.3,0.4,0.4
	c0,0,0,0.1,0.1,0.1c0.3,0.4,0.6,0.7,0.8,1.1c0.3,0.5,0.4,1,0.4,1.4c0,0.4-0.1,0.7-0.2,1c0,0.1-0.1,0.2-0.1,0.3c0,0,0,0,0.1,0.1
	c0.5,0.5,1,1,1.5,1.5l0,0c-0.1,0.2-0.3,0.4-0.4,0.6c-0.5-0.5-1.1-1.1-1.6-1.6c-0.1,0.2-0.2,0.3-0.3,0.5c0.5,0.5,1.1,1.1,1.6,1.6
	c-0.1,0.2-0.2,0.4-0.4,0.7c-0.6-0.5-1.1-1.1-1.7-1.7c0,0,0,0,0,0.1c-0.2,0.3-0.4,0.6-0.5,0.9c-0.1,0.1-0.2,0.3-0.3,0.4l0,0
	c-0.1-0.1-0.2-0.3-0.3-0.4c-0.3-0.3-0.5-0.6-0.8-1c0,0,0,0,0-0.1c0.1-0.1,0.2-0.3,0.3-0.4c0.1-0.2,0-0.4-0.3-0.6
	c-1.5-1.5-3-3-4.5-4.4c0,0-0.1-0.1-0.1-0.1c-0.3-0.2-0.5-0.3-0.6-0.1C187.7,84.8,187.6,85,187.4,85.1z M192,86.4
	c0.8,0.8,1.5,1.5,2.2,2.2c0.2-0.3,0.4-0.6,0.5-0.9c0.1-0.2,0.1-0.5,0.1-0.8c-0.1-0.6-0.7-1.3-1.3-1.4c-0.2-0.1-0.4,0-0.6,0
	c-0.3,0.1-0.5,0.3-0.6,0.5C192.2,86.1,192.1,86.2,192,86.4z M191,85.4C191,85.4,191,85.4,191,85.4c0.2-0.3,0.3-0.5,0.5-0.7
	c0.1-0.2,0.1-0.4,0.1-0.6c-0.1-0.5-0.6-1.1-1.1-1.4c-0.3-0.1-0.4-0.1-0.6-0.1c-0.3,0.1-0.4,0.3-0.6,0.4c-0.1,0.1-0.2,0.2-0.3,0.3
	C189.7,84.1,190.3,84.7,191,85.4z"/>
<linearGradient id="SVGID_00000145045047225673147080000011390593354280513154_" gradientUnits="userSpaceOnUse" x1="287.3023" y1="123.9192" x2="257.9483" y2="120.8164" gradientTransform="matrix(1 0 0 -1 0 178)">
	<stop  offset="0" style="stop-color:#687B99"/>
	<stop  offset="0.1381" style="stop-color:#5F738F"/>
	<stop  offset="0.6786" style="stop-color:#41576B"/>
	<stop  offset="0.9671" style="stop-color:#364C5D"/>
</linearGradient>
<path style="fill:url(#SVGID_00000145045047225673147080000011390593354280513154_);" d="M258,57.4c0.2,1.2,0.5,2.4,1,3.6
	c0.3,0.6,0.6,1.3,0.9,1.8c0.8,1.3,1.8,2.5,3,3.5c1.4,1.1,2.9,2.1,4.6,2.7c1.8,0.7,3.6,1,5.5,1c1.8,0,3.7-0.4,5.4-1
	c0.2-0.1,0.4-0.1,0.5-0.2c4-1.8,6.8-5.1,7.9-9c0-0.1,0.1-0.3,0.1-0.4c0-0.2,0.1-0.4,0.1-0.6c0-0.2,0.1-0.3,0.1-0.5
	c0-0.2,0.1-0.3,0.1-0.5c0-0.2,0-0.3,0.1-0.5c0-0.2,0-0.3,0-0.5c0-0.2,0-0.4,0-0.7c0-0.1,0-0.2,0-0.3s0-0.2,0-0.3c0-0.1,0-0.2,0-0.3
	c0-0.1,0-0.2,0-0.3v0c0-0.1,0-0.3,0-0.4c0-0.2,0-0.3-0.1-0.5c0-0.1,0-0.2,0-0.3c0-0.1,0-0.1,0-0.2c-0.1-0.3-0.1-0.6-0.2-1
	c0-0.1,0-0.2-0.1-0.3c-0.1-0.3-0.2-0.6-0.2-0.8c0-0.1-0.1-0.2-0.1-0.3s-0.1-0.2-0.1-0.3c0,0,0-0.1,0-0.1c0-0.1-0.1-0.2-0.1-0.3
	c0-0.1-0.1-0.2-0.1-0.3c-0.1-0.2-0.2-0.4-0.3-0.6c-0.1-0.2-0.2-0.4-0.3-0.5c0-0.1-0.1-0.2-0.1-0.3c-0.1-0.2-0.2-0.3-0.3-0.5
	c-0.2-0.4-0.5-0.7-0.7-1c-0.1-0.1-0.1-0.1-0.2-0.3c-0.2-0.3-0.5-0.6-0.8-0.9c-0.1-0.1-0.1-0.1-0.2-0.2c-0.1-0.1-0.3-0.3-0.4-0.4
	c-0.1-0.1-0.1-0.1-0.2-0.2c-0.1-0.1-0.3-0.3-0.4-0.4c-0.1,0-0.1-0.1-0.2-0.1c0,0-0.1,0-0.1-0.1c-0.1-0.1-0.3-0.2-0.4-0.3
	c-0.1-0.1-0.1-0.1-0.2-0.2c-0.1-0.1-0.3-0.2-0.4-0.3c-0.1-0.1-0.3-0.2-0.4-0.3c-0.1-0.1-0.2-0.1-0.3-0.1c-0.1-0.1-0.2-0.1-0.3-0.1
	l-0.3-0.1c-0.1,0-0.2-0.1-0.2-0.1c-0.2-0.1-0.4-0.2-0.5-0.3c-0.1,0-0.2-0.1-0.3-0.1c-0.1,0-0.1-0.1-0.2-0.1c-0.1,0-0.1-0.1-0.2-0.1
	c-0.1-0.1-0.3-0.1-0.4-0.1c-0.2-0.1-0.4-0.1-0.5-0.2c-0.1,0-0.2-0.1-0.4-0.1c-0.1,0-0.1,0-0.1,0c-0.1,0-0.2-0.1-0.3-0.1
	c-0.1,0-0.2-0.1-0.3-0.1c-0.2,0-0.4-0.1-0.6-0.1c-0.2,0-0.4-0.1-0.6-0.1c-0.1,0-0.2,0-0.3,0c-0.1,0-0.2,0-0.3,0
	c-0.4-0.1-0.8-0.1-1.2-0.1c-0.2,0-0.3,0-0.5,0c-0.2,0-0.3,0-0.5,0c-0.2,0-0.5,0-0.7,0c-0.4,0-0.9,0-1.3,0.1c0,0-0.1,0-0.1,0
	c-0.1,0-0.2,0-0.3,0c-0.1,0-0.2,0-0.3,0c-0.2,0-0.4,0.1-0.7,0.1c0,0-0.1,0-0.1,0c-0.1,0-0.1,0-0.2,0c0,0,0,0,0,0c0,0-0.1,0-0.1,0h0
	c-0.1,0-0.2,0-0.3,0.1c-0.3,0.1-0.6,0.2-0.9,0.3c-0.2,0.1-0.3,0.1-0.5,0.2c-0.4,0.1-0.7,0.3-1,0.5c-0.3,0.2-0.7,0.3-1,0.5
	c-0.1,0-0.1,0.1-0.2,0.1c-0.1,0.1-0.3,0.2-0.5,0.3c-0.3,0.2-0.6,0.4-0.9,0.6c-0.1,0.1-0.2,0.1-0.3,0.2c0,0-0.1,0.1-0.1,0.1
	c0,0-0.1,0.1-0.1,0.1c-0.1,0.1-0.2,0.1-0.3,0.3c-0.2,0.1-0.4,0.3-0.5,0.5c-0.1,0.1-0.2,0.2-0.3,0.3c-0.1,0.1-0.2,0.2-0.3,0.3
	c-0.1,0.1-0.1,0.2-0.3,0.3c-0.1,0.1-0.1,0.2-0.2,0.3c-0.1,0.1-0.1,0.2-0.2,0.3c-0.5,0.6-0.9,1.4-1.3,2.1c-0.1,0.2-0.2,0.4-0.3,0.6
	c0,0.1-0.1,0.2-0.1,0.3c0,0.1-0.1,0.2-0.1,0.3C257.9,52.5,257.6,55,258,57.4z"/>
<linearGradient id="SVGID_00000176737030725535463960000015659840689425510551_" gradientUnits="userSpaceOnUse" x1="287.2328" y1="124.5328" x2="258.4398" y2="121.4893" gradientTransform="matrix(1 0 0 -1 0 178)">
	<stop  offset="0" style="stop-color:#8598B6"/>
	<stop  offset="0.3943" style="stop-color:#66799B"/>
	<stop  offset="0.7649" style="stop-color:#4F6387"/>
	<stop  offset="1" style="stop-color:#475B80"/>
</linearGradient>
<path style="fill:url(#SVGID_00000176737030725535463960000015659840689425510551_);" d="M258.5,56.7c0.2,1,0.5,2,0.9,3
	c0.4,0.8,0.8,1.5,1.2,2.2c0.6,0.9,1.2,1.6,1.9,2.4c0.2,0.3,0.5,0.5,0.8,0.8c1.4,1.1,2.9,2.1,4.6,2.7c1.8,0.6,3.6,1,5.5,1
	c1.8,0,3.6-0.4,5.4-1c0.2-0.1,0.4-0.1,0.6-0.3c3.5-1.6,6.1-4.4,7.5-7.7c0.8-2.8,0.7-5.9-0.4-8.9c-0.1-0.2-0.1-0.4-0.2-0.6
	c-2-4.5-6-7.6-10.6-8.6c-2.9-0.6-5.9-0.5-8.9,0.7c-2,0.8-3.8,2-5.1,3.4c-1.3,1.3-2.2,2.8-2.9,4.5C258.2,52.3,258,54.5,258.5,56.7z"
	/>
<linearGradient id="SVGID_00000056400191053036884250000016632811941750586020_" gradientUnits="userSpaceOnUse" x1="263.3825" y1="131.5506" x2="269.8845" y2="124.1322" gradientTransform="matrix(1 0 0 -1 0 178)">
	<stop  offset="0" style="stop-color:#FFFFFF"/>
	<stop  offset="1" style="stop-color:#FFFFFF;stop-opacity:0.2"/>
</linearGradient>
<path style="opacity:0.5;fill:url(#SVGID_00000056400191053036884250000016632811941750586020_);enable-background:new    ;" d="
	M259.4,59.7c0.8,1.8,1.9,3.3,3.2,4.6c1.3-0.5,2.6-1.2,3.8-1.9c5.7-3.7,9.4-10.1,9.5-17.1c0-0.9,0-1.7-0.1-2.6c0-0.3-0.1-0.6-0.1-1
	c-2.9-0.6-5.9-0.5-8.9,0.7c-2,0.8-3.8,2-5.1,3.4c-1.3,1.3-2.2,2.8-2.9,4.5C257.9,53.2,258,56.6,259.4,59.7z"/>
<path class="st21" d="M266.4,52.2l2.9-4.5l0.5,1.4l2.3-0.9c1.6-0.6,3.5,0.2,4.1,1.8l0.9,2.4c-0.5-1.4-1.9-2-3.7-1.3l-2.4,0.9
	l0.5,1.4L266.4,52.2z"/>
<path class="st21" d="M279.3,57.7l-2.9,4.5l-0.5-1.4l-2.3,0.9c-1.6,0.6-3.5-0.2-4.1-1.8l-0.9-2.4c0.5,1.4,1.9,2,3.7,1.3l2.4-0.9
	l-0.5-1.4L279.3,57.7z"/>
<linearGradient id="SVGID_00000120538471540472328730000006606907475673128085_" gradientUnits="userSpaceOnUse" x1="173.707" y1="147.664" x2="190.014" y2="147.664" gradientTransform="matrix(1 0 0 -1 0 178)">
	<stop  offset="0" style="stop-color:#90B0FF"/>
	<stop  offset="0.1375" style="stop-color:#89ABFD"/>
	<stop  offset="0.342" style="stop-color:#759EF7"/>
	<stop  offset="0.5882" style="stop-color:#5488EE"/>
	<stop  offset="0.8645" style="stop-color:#266AE2"/>
	<stop  offset="1" style="stop-color:#0D5ADB"/>
</linearGradient>
<path style="fill:url(#SVGID_00000120538471540472328730000006606907475673128085_);" d="M189.8,30.2c0,0.2-0.1,0.3-0.2,0.5
	c-0.2,0.5-0.5,1-0.7,1.5l0,0.1c-0.3,0.6,0,1.3-0.3,1.8c-0.4,0.8-0.8,1.6-1.2,2.3c-0.2,0.3-0.4,0.6-0.5,0.8c-0.1,0.1-0.2,0.3-0.3,0.4
	c-0.4,0.6-0.9,1.1-1.5,1.6c-1.1,1-2.3,1.8-3.4,2.2c-0.4,0.1-0.7,0.2-1,0.3c-0.1,0-0.2-0.4-0.3-0.4c0,0-0.1,0-0.1,0
	c-0.4,0-0.7,0-1-0.1c-0.1,0-0.2,0-0.3,0c-0.1,0-0.3,0-0.4-0.1c-1.2-0.4-2.3-1.1-3-2.3c-1.6-2.3-2.1-5.9-1.3-9.7
	c0.1-0.4,0.2-0.7,0.3-1.1c0.2-0.8,0.5-1.4,0.8-2.1c0.5-1.2,1.2-2.3,1.9-3.2c0.2-0.3,0.4-0.5,0.6-0.8c0-0.1,0.1-0.1,0.1-0.1
	c1.2-1.3,2.7-2.2,4-2.6c0.5-0.1,0.9-0.2,1.4-0.2c0.5,0,1.1,0,1.6,0.2c0.2,0,0.5,0.1,0.7,0.3c0.3,0.1,0.6,0.3,0.9,0.5
	c0.2,0.1,0.4,0.3,0.5,0.4c0.2,0.2,0.8,0.4,1,0.6c0.5,0.5,0.9,1.2,1.1,1.9c0.2,0.5,0.4,1.1,0.6,1.7c0.2,0.6-0.1,1.3-0.1,2h0.4
	c0,0.6,0.1,1.3,0,1.9h-0.4c0,0.6-0.1,1.2-0.2,1.9C189.4,30.2,189.8,30.2,189.8,30.2z"/>
<linearGradient id="SVGID_00000120539197115217335380000009983886492798225852_" gradientUnits="userSpaceOnUse" x1="149.8847" y1="171.4359" x2="179.0197" y2="149.8813" gradientTransform="matrix(1 0 0 -1 0 178)">
	<stop  offset="0" style="stop-color:#90B0FF"/>
	<stop  offset="0.1375" style="stop-color:#89ABFD"/>
	<stop  offset="0.342" style="stop-color:#759EF7"/>
	<stop  offset="0.5882" style="stop-color:#5488EE"/>
	<stop  offset="0.8645" style="stop-color:#266AE2"/>
	<stop  offset="1" style="stop-color:#0D5ADB"/>
</linearGradient>
<path style="fill:url(#SVGID_00000120539197115217335380000009983886492798225852_);" d="M180.5,37.6c-0.3,0-0.5,0-0.7-0.1
	c-0.1,0-0.3,0-0.4-0.1c-0.9-0.3-1.6-0.9-2.1-1.6c-1-1.6-1.4-4-0.8-6.5c0.1-0.2,0.1-0.4,0.1-0.6c0.1-0.5,0.4-1,0.5-1.5
	c1-2.3,2.7-4,4.4-4.5c0.7-0.2,1.4-0.2,2.1-0.1c0.1,0,0.3,0.1,0.4,0.2c0.2,0.1,0.4,0.2,0.6,0.3c0.1,0,0.2,0.1,0.3,0.2
	c1.5,1.3,2.1,3.8,1.7,6.6c-0.1,0.5-0.2,1-0.3,1.5c-0.1,0.4-0.3,0.8-0.4,1.1C184.8,35.5,182.6,37.5,180.5,37.6z"/>
<linearGradient id="SVGID_00000081640055437282095630000017013552177700136339_" gradientUnits="userSpaceOnUse" x1="185.2163" y1="158.9675" x2="185.2163" y2="158.1203" gradientTransform="matrix(1 0 0 -1 0 178)">
	<stop  offset="0" style="stop-color:#90B0FF"/>
	<stop  offset="0.1375" style="stop-color:#89ABFD"/>
	<stop  offset="0.342" style="stop-color:#759EF7"/>
	<stop  offset="0.5882" style="stop-color:#5488EE"/>
	<stop  offset="0.8645" style="stop-color:#266AE2"/>
	<stop  offset="1" style="stop-color:#0D5ADB"/>
</linearGradient>
<path style="fill:url(#SVGID_00000081640055437282095630000017013552177700136339_);" d="M191.8,29c0,0.6-0.1,1.3-0.2,1.9v0
	c-0.1,0.6-0.3,1.3-0.4,2c-0.3,0.6-0.5,1.3-0.7,1.9c-0.3,0.6-0.6,1.3-0.9,1.9c-0.4,0.6-0.7,1.2-1.1,1.7c-0.4,0.6-0.9,1-1.4,1.5
	c-0.6,0.6-1.3,1-2,1.5c-0.7,0.4-1.5,0.6-2.3,0.7c-0.3,0-0.5,0-0.8,0c-0.3,0-0.6,0-0.9-0.1c-0.1,0-1.1-0.3-1.3-0.3l-1.2-0.4
	c0.1,0,0.1,0,0.2,0c0.1,0,0.3,0,0.4,0c0.4,0.1,0.7,0.1,1,0.1c0.2,0,0.3,0,0.5-0.1h0c0.7-0.1,1.4-0.4,2.1-0.7c0,0,0,0,0,0
	c0.7-0.4,1.3-0.8,1.9-1.4c0,0,0,0,0,0c0,0,0.1-0.1,0.1-0.1c0.5-0.4,0.9-0.9,1.3-1.4c0,0,0,0,0,0c0.4-0.5,0.8-1.1,1.1-1.6v0
	c0.4-0.6,0.6-1.2,0.9-1.9c0.2-0.5,0.4-1,0.5-1.6c0-0.1,0-0.2,0.1-0.3c0,0,0,0,0,0c0.1-0.5,0.3-1,0.4-1.5c0-0.2,0.1-0.4,0.1-0.6
	c0-0.1,0-0.1,0-0.3v0c0-0.1,0-0.1,0-0.2c0-0.1,0-0.3,0.1-0.5c0-0.1,0-0.2,0-0.3c0,0,0-0.1,0-0.1c0,0,0-0.1,0-0.1c0,0,0-0.1,0-0.1
	c0-0.1,0-0.1,0-0.2v0c0-0.6,0-1.3,0-1.9c0,0,0-0.1,0-0.1v0c0,0,0,0,0-0.1c0-0.5-0.1-1-0.2-1.4c0-0.1-0.1-0.3-0.1-0.4
	c-0.1-0.6-0.3-1.2-0.5-1.7c-0.1-0.3-0.3-0.5-0.4-0.8c-0.1-0.1-0.2-0.3-0.3-0.5c-0.1-0.2-0.3-0.4-0.5-0.6c-0.1-0.1-0.3-0.3-0.5-0.5
	c0,0,0,0,0,0c-0.1-0.1-0.2-0.2-0.3-0.3c-0.1-0.1-0.2-0.1-0.3-0.2c-0.1,0-0.1-0.1-0.2-0.1l0,0c-0.1,0-0.1-0.1-0.2-0.1
	c-0.1,0-0.1-0.1-0.2-0.1c-0.1,0-0.1-0.1-0.2-0.1c-0.1,0-0.1-0.1-0.2-0.1c-0.1,0-0.1,0-0.2-0.1l0.1,0c0,0,0,0,0,0l2.1,0.6l-0.1,0
	c0.4,0.1,0.8,0.4,1.2,0.6c0.2,0.1,0.4,0.3,0.6,0.4c0,0,0,0,0.1,0.1c0,0,0.1,0.1,0.1,0.1c0.5,0.5,1,1.1,1.3,1.8c0,0,0,0,0,0.1
	c0,0.1,0.1,0.2,0.1,0.3c0.3,0.6,0.5,1.2,0.7,1.9v0c0,0.2,0.1,0.4,0.1,0.5c0.1,0.5,0.2,1,0.2,1.5C191.8,27.7,191.8,28.3,191.8,29z"/>
<linearGradient id="SVGID_00000139279839937338376910000003384135847503526041_" gradientUnits="userSpaceOnUse" x1="191.2327" y1="153.3513" x2="188.2477" y2="136.9519" gradientTransform="matrix(1 0 0 -1 0 178)">
	<stop  offset="0" style="stop-color:#90B0FF"/>
	<stop  offset="0.1375" style="stop-color:#89ABFD"/>
	<stop  offset="0.342" style="stop-color:#759EF7"/>
	<stop  offset="0.5882" style="stop-color:#5488EE"/>
	<stop  offset="0.8645" style="stop-color:#266AE2"/>
	<stop  offset="1" style="stop-color:#0D5ADB"/>
</linearGradient>
<path style="fill:url(#SVGID_00000139279839937338376910000003384135847503526041_);" d="M191,32.9l-0.6,1.9l-2.1-0.7
	c0.3-0.6,0.5-1.1,0.6-1.8L191,32.9z"/>
<linearGradient id="SVGID_00000018930187290291188820000009302336649309546416_" gradientUnits="userSpaceOnUse" x1="190.1399" y1="153.5499" x2="187.1559" y2="137.1505" gradientTransform="matrix(1 0 0 -1 0 178)">
	<stop  offset="0" style="stop-color:#90B0FF"/>
	<stop  offset="0.1375" style="stop-color:#89ABFD"/>
	<stop  offset="0.342" style="stop-color:#759EF7"/>
	<stop  offset="0.5882" style="stop-color:#5488EE"/>
	<stop  offset="0.8645" style="stop-color:#266AE2"/>
	<stop  offset="1" style="stop-color:#0D5ADB"/>
</linearGradient>
<path style="fill:url(#SVGID_00000018930187290291188820000009302336649309546416_);" d="M189.5,36.6c-0.4,0.6-0.7,1.2-1.1,1.7
	l-2.1-0.6c0,0,0,0,0,0c0.4-0.5,0.8-1,1.1-1.6L189.5,36.6z"/>
<linearGradient id="SVGID_00000127028651396590021820000014950169865038980281_" gradientUnits="userSpaceOnUse" x1="187.8314" y1="153.9704" x2="184.8474" y2="137.571" gradientTransform="matrix(1 0 0 -1 0 178)">
	<stop  offset="0" style="stop-color:#90B0FF"/>
	<stop  offset="0.1375" style="stop-color:#89ABFD"/>
	<stop  offset="0.342" style="stop-color:#759EF7"/>
	<stop  offset="0.5882" style="stop-color:#5488EE"/>
	<stop  offset="0.8645" style="stop-color:#266AE2"/>
	<stop  offset="1" style="stop-color:#0D5ADB"/>
</linearGradient>
<path style="fill:url(#SVGID_00000127028651396590021820000014950169865038980281_);" d="M186.9,39.8c-0.6,0.6-1.3,1-2,1.4l-2.1-0.7
	c0,0,0,0,0,0c0.7-0.4,1.3-0.8,1.9-1.4L186.9,39.8z"/>
<linearGradient id="SVGID_00000173846208377919799790000017119802639833248429_" gradientUnits="userSpaceOnUse" x1="184.0374" y1="154.6605" x2="181.0524" y2="138.2611" gradientTransform="matrix(1 0 0 -1 0 178)">
	<stop  offset="0" style="stop-color:#90B0FF"/>
	<stop  offset="0.1375" style="stop-color:#89ABFD"/>
	<stop  offset="0.342" style="stop-color:#759EF7"/>
	<stop  offset="0.5882" style="stop-color:#5488EE"/>
	<stop  offset="0.8645" style="stop-color:#266AE2"/>
	<stop  offset="1" style="stop-color:#0D5ADB"/>
</linearGradient>
<path style="fill:url(#SVGID_00000173846208377919799790000017119802639833248429_);" d="M182.6,41.9c-0.6,0.1-1.1,0-1.7-0.1
	c-0.1,0-1.1-0.3-1.3-0.3l-0.9-0.3c0.1,0,0.2,0,0.4,0c0.4,0.1,0.7,0.1,1,0.1c0.2,0,0.3,0,0.5-0.1h0L182.6,41.9z"/>
<linearGradient id="SVGID_00000088102982758656286530000012687807460965379996_" gradientUnits="userSpaceOnUse" x1="191.5262" y1="153.2975" x2="188.5412" y2="136.8981" gradientTransform="matrix(1 0 0 -1 0 178)">
	<stop  offset="0" style="stop-color:#90B0FF"/>
	<stop  offset="0.1375" style="stop-color:#89ABFD"/>
	<stop  offset="0.342" style="stop-color:#759EF7"/>
	<stop  offset="0.5882" style="stop-color:#5488EE"/>
	<stop  offset="0.8645" style="stop-color:#266AE2"/>
	<stop  offset="1" style="stop-color:#0D5ADB"/>
</linearGradient>
<path style="fill:url(#SVGID_00000088102982758656286530000012687807460965379996_);" d="M191.8,29c0,0.6-0.1,1.3-0.2,1.9
	c0,0,0,0,0,0.1l-2.2-0.7v0c0-0.1,0-0.2,0-0.3c0-0.1,0-0.1,0-0.2c0-0.2,0-0.4,0.1-0.6c0-0.1,0-0.2,0-0.3c0-0.1,0-0.3,0-0.5L191.8,29z
	"/>
<linearGradient id="SVGID_00000117668952286464769260000004537644077215187079_" gradientUnits="userSpaceOnUse" x1="190.7074" y1="153.447" x2="187.7224" y2="137.0475" gradientTransform="matrix(1 0 0 -1 0 178)">
	<stop  offset="0" style="stop-color:#90B0FF"/>
	<stop  offset="0.1375" style="stop-color:#89ABFD"/>
	<stop  offset="0.342" style="stop-color:#759EF7"/>
	<stop  offset="0.5882" style="stop-color:#5488EE"/>
	<stop  offset="0.8645" style="stop-color:#266AE2"/>
	<stop  offset="1" style="stop-color:#0D5ADB"/>
</linearGradient>
<path style="fill:url(#SVGID_00000117668952286464769260000004537644077215187079_);" d="M191.7,27.1l-2.2-0.6c0,0,0,0,0-0.1
	c0-0.5-0.1-1-0.2-1.6c0-0.1-0.1-0.3-0.1-0.4l2.2,0.6c0,0.2,0.1,0.4,0.1,0.5C191.6,26.1,191.7,26.6,191.7,27.1z"/>
<linearGradient id="SVGID_00000169553345073696040640000001718132459734633628_" gradientUnits="userSpaceOnUse" x1="188.7016" y1="153.7397" x2="185.6526" y2="136.9855" gradientTransform="matrix(1 0 0 -1 0 178)">
	<stop  offset="0" style="stop-color:#90B0FF"/>
	<stop  offset="0.1375" style="stop-color:#89ABFD"/>
	<stop  offset="0.342" style="stop-color:#759EF7"/>
	<stop  offset="0.5882" style="stop-color:#5488EE"/>
	<stop  offset="0.8645" style="stop-color:#266AE2"/>
	<stop  offset="1" style="stop-color:#0D5ADB"/>
</linearGradient>
<path style="fill:url(#SVGID_00000169553345073696040640000001718132459734633628_);" d="M190.7,23.1l-2-0.4
	c-0.1-0.3-0.3-0.5-0.4-0.8c-0.1-0.1-0.2-0.3-0.3-0.5c-0.1-0.2-0.3-0.4-0.5-0.6l1.5,0c0,0,0,0,0.1,0.1c0,0,0.1,0.1,0.1,0.1
	c0.5,0.5,1,1.1,1.3,1.8c0,0,0,0,0,0.1C190.6,23,190.6,23.1,190.7,23.1z"/>
<path class="st21" d="M181.5,30.8l0-2.2l-2.8,4L181.5,30.8z"/>
<path class="st21" d="M181.6,34.7l-0.1-3.9l-2.9,1.8L181.6,34.7z"/>
<path class="st21" d="M184.4,27.5l-2.9,3.3l0.1,3.9L184.4,27.5z"/>
<path class="st21" d="M184,26.7l-3-1.6l0.1,2.5L184,26.7z"/>
<path class="st21" d="M181.1,27.6l-0.1-2.5l-2.8,6.5L181.1,27.6z"/>
<path class="st21" d="M184.4,27.5l-2.9,1l0,2.2L184.4,27.5z"/>
<linearGradient id="SVGID_00000129910915408474951360000014614507804233144252_" gradientUnits="userSpaceOnUse" x1="185.3756" y1="158.6422" x2="185.2806" y2="159.0064" gradientTransform="matrix(1 0 0 -1 0 178)">
	<stop  offset="0" style="stop-color:#FFFFFF"/>
	<stop  offset="1" style="stop-color:#FFFFFF;stop-opacity:0.5"/>
</linearGradient>
<path style="opacity:0.5;fill:url(#SVGID_00000129910915408474951360000014614507804233144252_);enable-background:new    ;" d="
	M185.2,19.2l0.1,0c0,0,0,0,0,0c0.1,0,0.1,0.1,0.2,0.1C185.4,19.3,185.3,19.3,185.2,19.2z"/>
<linearGradient id="SVGID_00000043456297883422147690000001118554024020255919_" gradientUnits="userSpaceOnUse" x1="176.9391" y1="154.2068" x2="189.9731" y2="152.5974" gradientTransform="matrix(1 0 0 -1 0 178)">
	<stop  offset="0" style="stop-color:#FFFFFF;stop-opacity:0.3"/>
	<stop  offset="1" style="stop-color:#FFFFFF;stop-opacity:0"/>
</linearGradient>
<path style="fill:url(#SVGID_00000043456297883422147690000001118554024020255919_);" d="M189.6,28.3c0,0.1,0,0.1,0,0.2
	c0,0,0,0.1,0,0.1c0,0,0,0.1,0,0.1c0,0,0,0.1,0,0.1c0,0.1,0,0.2,0,0.3c0,0.1,0,0.3-0.1,0.5c0,0.1,0,0.1,0,0.2v0c0,0.1,0,0.1,0,0.3
	c0,0.2-0.1,0.4-0.1,0.6c-0.7,0-1.4,0-2.1-0.1c-4.4-0.5-8-3.6-10.1-8c0.2-0.3,0.4-0.5,0.6-0.8c0-0.1,0.1-0.1,0.1-0.1
	c1.2-1.3,2.7-2.2,4.1-2.6c0.5-0.1,0.9-0.2,1.4-0.2c0.5,0,1.1,0,1.6,0.2c0.1,0,0.2,0.1,0.4,0.1l-0.1,0c0.1,0,0.1,0,0.2,0.1
	c0.1,0,0.1,0,0.2,0.1c0.1,0,0.1,0.1,0.3,0.1c0.1,0,0.1,0.1,0.2,0.1c0.1,0,0.1,0.1,0.2,0.1c0.1,0,0.1,0.1,0.2,0.1
	c0.1,0.1,0.2,0.1,0.3,0.2c0.1,0.1,0.2,0.1,0.3,0.3c0,0,0,0,0.1,0c0.1,0.1,0.3,0.3,0.5,0.5c0.2,0.2,0.3,0.4,0.5,0.6
	c0.1,0.1,0.2,0.3,0.3,0.5c0.1,0.3,0.2,0.5,0.4,0.8c0.2,0.5,0.4,1.1,0.5,1.7c0,0.1,0.1,0.3,0.1,0.4c0.1,0.5,0.2,1,0.2,1.4
	c0,0,0,0.1,0,0.1c0,0,0,0.1,0,0.1C189.6,27,189.6,27.6,189.6,28.3z"/>
<linearGradient id="SVGID_00000025406330702033509290000007199829857583355300_" gradientUnits="userSpaceOnUse" x1="185.17" y1="158.7269" x2="185.363" y2="158.7269" gradientTransform="matrix(1 0 0 -1 0 178)">
	<stop  offset="0" style="stop-color:#FFFFFF;stop-opacity:0.3"/>
	<stop  offset="1" style="stop-color:#FFFFFF;stop-opacity:0"/>
</linearGradient>
<path style="fill:url(#SVGID_00000025406330702033509290000007199829857583355300_);" d="M185.3,19.3
	C185.4,19.3,185.4,19.3,185.3,19.3c0,0-0.1,0-0.1,0L185.3,19.3C185.3,19.3,185.3,19.3,185.3,19.3z"/>
<linearGradient id="SVGID_00000070806023166054757400000001138801200795538069_" gradientUnits="userSpaceOnUse" x1="189.526" y1="149.1971" x2="189.545" y2="149.1971" gradientTransform="matrix(1 0 0 -1 0 178)">
	<stop  offset="0" style="stop-color:#FFFFFF;stop-opacity:0.3"/>
	<stop  offset="1" style="stop-color:#FFFFFF;stop-opacity:0"/>
</linearGradient>
<path style="fill:url(#SVGID_00000070806023166054757400000001138801200795538069_);" d="M189.5,28.9c0,0,0-0.1,0-0.1
	c0,0,0-0.1,0-0.1C189.6,28.7,189.5,28.8,189.5,28.9z"/>
<path class="st39" d="M296.5,80.7l1.1,0.6l-1.1,0.6l-0.6,1.1l-0.6-1.1l-1.1-0.6l1.1-0.6l0.6-1.1L296.5,80.7z"/>
<path class="st39" d="M165,95.7l1.1,0.6l-1.1,0.6l-0.6,1.1l-0.6-1.1l-1.1-0.6l1.1-0.6l0.6-1.1L165,95.7z"/>
<path class="st21" d="M256.7,32.4l1.1,0.6l-1.1,0.6l-0.6,1.1l-0.6-1.1l-1.1-0.6l1.1-0.6l0.6-1.1L256.7,32.4z"/>
<linearGradient id="SVGID_00000134234624646549891560000011542730014038316218_" gradientUnits="userSpaceOnUse" x1="242.371" y1="67.4015" x2="269.904" y2="67.4015" gradientTransform="matrix(1 0 0 -1 0 178)">
	<stop  offset="0" style="stop-color:#2E3E69"/>
	<stop  offset="1" style="stop-color:#212F5D"/>
</linearGradient>
<path style="fill:none;stroke:url(#SVGID_00000134234624646549891560000011542730014038316218_);stroke-width:3;stroke-linecap:round;stroke-linejoin:round;stroke-miterlimit:10;" d="
	M269.1,121.1c0,0,5.1-13.7-26.2-21.1"/>
<linearGradient id="SVGID_00000000919708034847607580000006394334533947937678_" gradientUnits="userSpaceOnUse" x1="241.955" y1="75.8408" x2="251.715" y2="75.8408" gradientTransform="matrix(1 0 0 -1 0 178)">
	<stop  offset="0" style="stop-color:#2E3E69"/>
	<stop  offset="1" style="stop-color:#212F5D"/>
</linearGradient>
<path style="fill:none;stroke:url(#SVGID_00000000919708034847607580000006394334533947937678_);stroke-width:3;stroke-linecap:round;stroke-linejoin:round;stroke-miterlimit:10;" d="
	M251.2,97.3l-8.7,2.2l4.8,7.5"/>
<linearGradient id="SVGID_00000065763238618418654420000007053309927340133772_" gradientUnits="userSpaceOnUse" x1="171.4276" y1="131.8015" x2="156.1306" y2="118.0774" gradientTransform="matrix(1 0 0 -1 0 178)">
	<stop  offset="0" style="stop-color:#2E3E69"/>
	<stop  offset="1" style="stop-color:#212F5D"/>
</linearGradient>
<path style="fill:none;stroke:url(#SVGID_00000065763238618418654420000007053309927340133772_);stroke-width:3;stroke-linecap:round;stroke-linejoin:round;stroke-miterlimit:10;" d="
	M160.9,64.5c0,0-6.4-12.5,5.7-22.8"/>
<linearGradient id="SVGID_00000080172772548900882020000002944327112667247538_" gradientUnits="userSpaceOnUse" x1="168.3567" y1="135.7004" x2="163.1497" y2="133.3048" gradientTransform="matrix(1 0 0 -1 0 178)">
	<stop  offset="0" style="stop-color:#2E3E69"/>
	<stop  offset="1" style="stop-color:#212F5D"/>
</linearGradient>
<path style="fill:none;stroke:url(#SVGID_00000080172772548900882020000002944327112667247538_);stroke-width:3;stroke-linecap:round;stroke-linejoin:round;stroke-miterlimit:10;" d="
	M162.5,42.1l4.7-0.9l-0.6,4.8"/>
<linearGradient id="SVGID_00000056394869557816802360000001694852086383187386_" gradientUnits="userSpaceOnUse" x1="160.8911" y1="111.841" x2="159.5461" y2="117.569" gradientTransform="matrix(1 0 0 -1 0 178)">
	<stop  offset="0" style="stop-color:#2E3E69"/>
	<stop  offset="1" style="stop-color:#212F5D"/>
</linearGradient>
<path style="fill:none;stroke:url(#SVGID_00000056394869557816802360000001694852086383187386_);stroke-width:3;stroke-linecap:round;stroke-linejoin:round;stroke-miterlimit:10;" d="
	M162.2,60.4l-0.7,5.1l-3.9-1.9"/>
<linearGradient id="SVGID_00000062878441819747891280000000014105016630438787_" gradientUnits="userSpaceOnUse" x1="309.939" y1="134.5903" x2="316.075" y2="134.5903" gradientTransform="matrix(1 0 0 -1 0 178)">
	<stop  offset="0" style="stop-color:#213351;stop-opacity:0.4"/>
	<stop  offset="0.6453" style="stop-color:#273957;stop-opacity:0.2709"/>
	<stop  offset="1" style="stop-color:#2D3F5D;stop-opacity:0.2"/>
</linearGradient>
<path style="fill:url(#SVGID_00000062878441819747891280000000014105016630438787_);" d="M313,46.5c1.7,0,3.1-1.4,3.1-3.1
	c0-1.7-1.4-3.1-3.1-3.1s-3.1,1.4-3.1,3.1C309.9,45.1,311.3,46.5,313,46.5z"/>
<radialGradient id="SVGID_00000144328175286540909560000005151090706480249270_" cx="-136.1295" cy="407.916" r="1" gradientTransform="matrix(3.8437 0 0 -3.8355 730.9048 1635.307)" gradientUnits="userSpaceOnUse">
	<stop  offset="0" style="stop-color:#FFFFFF"/>
	<stop  offset="1" style="stop-color:#90B0FF"/>
</radialGradient>
<path style="fill:url(#SVGID_00000144328175286540909560000005151090706480249270_);" d="M206.4,73.7c0.9,0,1.5-0.7,1.5-1.5
	s-0.7-1.5-1.5-1.5s-1.5,0.7-1.5,1.5S205.6,73.7,206.4,73.7z"/>
<radialGradient id="SVGID_00000073704305619915406180000013029689870331100842_" cx="-160.0647" cy="448.4583" r="1" gradientTransform="matrix(7.6874 0 0 -7.6711 1542.8428 3477.7375)" gradientUnits="userSpaceOnUse">
	<stop  offset="0" style="stop-color:#FFFFFF"/>
	<stop  offset="1" style="stop-color:#90B0FF"/>
</radialGradient>
<path style="opacity:0.8;fill:url(#SVGID_00000073704305619915406180000013029689870331100842_);enable-background:new    ;" d="
	M309.9,43.4c1.7,0,3.1-1.4,3.1-3.1c0-1.7-1.4-3.1-3.1-3.1c-1.7,0-3.1,1.4-3.1,3.1C306.8,42,308.2,43.4,309.9,43.4z"/>
<radialGradient id="SVGID_00000132806823253330228740000006170612365302283671_" cx="-180.9177" cy="469.2105" r="1.0008" gradientTransform="matrix(59.6927 0 0 -15.717 11028.9873 7534.228)" gradientUnits="userSpaceOnUse">
	<stop  offset="0" style="stop-color:#21313E;stop-opacity:0.3"/>
	<stop  offset="0.9143" style="stop-color:#44577A;stop-opacity:2.570330e-02"/>
	<stop  offset="1" style="stop-color:#475B80;stop-opacity:0"/>
</radialGradient>
<path style="fill:url(#SVGID_00000132806823253330228740000006170612365302283671_);" d="M147.8,154.5c0,0-2.2,1.5,6.8,4.5
	s57.9,18.5,68.3,17.9c10.4-0.6,91.3-13.6,88.4-21.4c-2.9-7.8-72.1-13.3-81.8-13.2C219.7,142.4,147.8,154.5,147.8,154.5z"/>
<path d="M218.3,73.8l-2,4.6l6.5,1.6l0.4-1l-5.6-1.4l1.6-3.6L218.3,73.8z M234.7,77.8l-1.6,3.6l-5.6-1.4l-0.4,1l6.5,1.6l2-4.6
	L234.7,77.8z M227.9,68.4l-3,7l4.3,1.1l0.4-0.9l-3.3-0.8l2.6-6.1L227.9,68.4z M223.4,62.2l-2,4.6l1,0.2l1.6-3.6l5.6,1.4l0.4-1
	L223.4,62.2z M234.2,64.9l-0.4,1l5.6,1.4l-1.6,3.6l1,0.2l2-4.6L234.2,64.9z"/>
</svg>
