<svg width="24" height="24" viewBox="0 0 24 24" fill="none" xmlns="http://www.w3.org/2000/svg">
<path d="M19.6921 20.244C20.9641 20.244 22.0441 19.188 22.0441 17.916C22.0441 16.644 20.9641 15.564 19.6921 15.564C19.0441 15.564 18.4441 15.852 18.0361 16.308L15.4681 14.772C15.6121 14.412 15.7081 14.004 15.7081 13.572C15.7081 11.796 14.2441 10.356 12.4681 10.356C12.1561 10.356 11.8441 10.404 11.5561 10.5L10.3321 7.90798C10.8601 7.49998 11.2201 6.82798 11.2201 6.10798C11.2201 4.83598 10.1401 3.75598 8.86806 3.75598C7.59606 3.75598 6.54006 4.83598 6.54006 6.10798C6.54006 7.37998 7.59606 8.43598 8.86806 8.43598C9.06006 8.43598 9.22806 8.41198 9.42006 8.36398L10.6201 10.932C9.80406 11.508 9.25206 12.492 9.25206 13.572C9.25206 15.372 10.6681 16.788 12.4681 16.788C13.4521 16.788 14.3401 16.356 14.9401 15.66L17.4841 17.172C17.4121 17.388 17.3641 17.652 17.3641 17.916C17.3641 19.188 18.4201 20.244 19.6921 20.244ZM1.95605 13.596C1.95605 14.556 2.74805 15.348 3.70805 15.348C4.69205 15.348 5.46005 14.556 5.46005 13.596C5.46005 12.612 4.69205 11.844 3.70805 11.844C2.74805 11.844 1.95605 12.612 1.95605 13.596ZM6.34805 14.052H8.34006V13.14H6.34805V14.052ZM7.54806 6.10798C7.54806 5.38798 8.14806 4.78798 8.86806 4.78798C9.58806 4.78798 10.1881 5.38798 10.1881 6.10798C10.1881 6.82798 9.58806 7.42798 8.86806 7.42798C8.14806 7.42798 7.54806 6.82798 7.54806 6.10798ZM10.3321 13.572C10.3321 12.396 11.2681 11.436 12.4681 11.436C13.6681 11.436 14.6281 12.396 14.6281 13.572C14.6281 14.772 13.6681 15.708 12.4681 15.708C11.2681 15.708 10.3321 14.772 10.3321 13.572ZM15.6361 10.692L16.1641 11.412L18.2761 9.87598L17.7241 9.15598L15.6361 10.692ZM18.3721 17.916C18.3721 17.196 18.9721 16.596 19.6921 16.596C20.4121 16.596 21.0121 17.196 21.0121 17.916C21.0121 18.636 20.4121 19.236 19.6921 19.236C18.9721 19.236 18.3721 18.636 18.3721 17.916ZM18.4681 7.88398C18.4681 8.84398 19.2601 9.63598 20.2201 9.63598C21.2041 9.63598 21.9721 8.84398 21.9721 7.88398C21.9721 6.89998 21.2041 6.13198 20.2201 6.13198C19.2601 6.13198 18.4681 6.89998 18.4681 7.88398Z" fill="black"/>
</svg>
