<svg width="24" height="24" viewBox="0 0 24 24" fill="none" xmlns="http://www.w3.org/2000/svg">
<path d="M17.8079 16.188V17.34C20.2799 17.052 22.0799 15.108 22.0799 12.732C22.0799 10.404 20.3759 8.556 18.1919 8.196C17.8079 5.364 15.3359 3.276 12.5039 3.276C10.3919 3.276 8.49592 4.404 7.51192 6.156C4.51192 6.18 1.91992 8.628 1.91992 11.748C1.91992 14.268 3.57592 16.428 5.97592 17.148V15.924C4.29592 15.3 3.11992 13.692 3.11992 11.748C3.11992 8.964 5.59192 6.924 8.30392 7.38C8.92792 5.58 10.5599 4.428 12.5039 4.428C15.0959 4.428 17.2319 6.54 16.9919 9.276C19.1279 9.108 20.8799 10.596 20.8799 12.732C20.8799 14.508 19.5839 15.924 17.8079 16.188ZM7.63192 16.38L11.9759 20.724L16.3199 16.38L15.5519 15.612L14.0879 17.076C13.5839 17.58 13.0559 18.132 12.5519 18.66V11.364H11.3999V18.684C10.8959 18.132 10.3679 17.604 9.86392 17.076L8.37592 15.612L7.63192 16.38Z" fill="black"/>
</svg>
