<svg width="24" height="24" viewBox="0 0 24 24" fill="none" xmlns="http://www.w3.org/2000/svg">
<path d="M9.64796 21.3C13.44 21.3 16.392 20.076 16.392 18.012V16.26C19.128 15.924 21.144 14.796 21.144 13.116V5.94001C21.144 3.92401 18.288 2.70001 14.4 2.70001C10.608 2.70001 7.60796 3.87601 7.60796 5.94001V7.76401C4.82396 8.10001 2.85596 9.20401 2.85596 10.836V18.012C2.85596 20.052 5.75996 21.3 9.64796 21.3ZM3.93596 18.012V16.308C5.03996 17.22 7.12796 17.748 9.64796 17.748C12.096 17.748 14.184 17.22 15.312 16.284V18.012C15.312 19.26 13.128 20.22 9.64796 20.22C6.07196 20.22 3.93596 19.284 3.93596 18.012ZM3.93596 14.46V12.684C5.03996 13.596 7.12796 14.124 9.64796 14.124C12.096 14.124 14.184 13.596 15.312 12.66V14.46C15.312 15.732 13.128 16.668 9.64796 16.668C6.07196 16.668 3.93596 15.732 3.93596 14.46ZM3.93596 10.836C3.93596 9.61201 6.11996 8.67601 9.64796 8.67601C13.224 8.67601 15.312 9.58801 15.312 10.836C15.312 12.108 13.128 13.044 9.64796 13.044C6.07196 13.044 3.93596 12.108 3.93596 10.836ZM8.68796 5.94001C8.68796 4.71601 10.872 3.78001 14.4 3.78001C17.976 3.78001 20.064 4.69201 20.064 5.94001C20.064 7.18801 17.616 8.31601 13.656 8.14801C12.744 7.86001 11.688 7.66801 10.536 7.62001C9.33596 7.23601 8.68796 6.63601 8.68796 5.94001ZM15.48 9.18001C17.472 9.08401 19.152 8.55601 20.064 7.76401V9.56401C20.064 10.548 18.72 11.34 16.392 11.628V10.836C16.392 10.188 16.056 9.63601 15.48 9.18001ZM16.392 15.18V12.732C17.976 12.54 19.272 12.06 20.064 11.388V13.116C20.064 14.1 18.72 14.892 16.392 15.18Z" fill="black"/>
</svg>
