<svg width="24" height="24" viewBox="0 0 24 24" fill="none" xmlns="http://www.w3.org/2000/svg">
<path d="M2.63989 4.584V17.592L6.76789 14.424H17.6399V4.584C17.6399 3.6 16.8239 2.784 15.8399 2.784H4.43989C3.45589 2.784 2.63989 3.6 2.63989 4.584ZM3.83989 15.216V4.608C3.83989 4.224 4.15189 3.912 4.53589 3.912H15.7679C16.1279 3.912 16.4399 4.224 16.4399 4.608V13.272H6.35989L3.83989 15.216ZM7.67989 16.224C7.67989 17.208 8.49589 18.024 9.47989 18.024H17.2079L21.3599 21.216V8.544C21.3599 7.56 20.5199 6.696 19.5119 6.696V7.896C19.8719 7.896 20.1599 8.256 20.1599 8.784V18.816L17.6399 16.872H9.79189C9.19189 16.872 8.87989 16.584 8.87989 16.224H7.67989ZM7.77589 9.384C7.77589 10.56 8.59189 11.4 9.79189 11.52V12.24H10.4399V11.52C11.5919 11.424 12.4319 10.704 12.4319 9.72C12.4319 8.832 11.7599 8.28 10.7279 8.16L9.76789 8.04C9.09589 7.944 8.80789 7.704 8.80789 7.224C8.80789 6.624 9.28789 6.288 10.1279 6.288C11.0639 6.288 11.4479 6.672 11.4479 7.488H12.3119C12.3119 6.456 11.5439 5.64 10.4399 5.52V4.824H9.79189V5.52C8.75989 5.64 7.99189 6.336 7.99189 7.272C7.99189 8.136 8.54389 8.664 9.50389 8.76L10.4879 8.88C11.2079 8.976 11.5439 9.216 11.5439 9.768C11.5439 10.44 11.0879 10.752 10.1279 10.752C9.07189 10.752 8.61589 10.368 8.61589 9.384H7.77589Z" fill="black"/>
</svg>
