<svg width="24" height="24" viewBox="0 0 24 24" fill="none" xmlns="http://www.w3.org/2000/svg">
<path d="M5.25589 20.4H18.7439C18.5279 19.776 17.9279 19.32 17.1599 19.32H14.8079L14.1599 16.32H19.5599C20.5439 16.32 21.3599 15.504 21.3599 14.52V5.39998C21.3599 4.41598 20.5439 3.59998 19.5599 3.59998H4.43989C3.45589 3.59998 2.63989 4.41598 2.63989 5.39998V14.52C2.63989 15.504 3.45589 16.32 4.43989 16.32H9.83989L9.19189 19.32H6.83989C6.11989 19.32 5.49589 19.776 5.25589 20.4ZM3.83989 14.496V5.42398C3.83989 5.01598 4.12789 4.72798 4.53589 4.72798H19.4879C19.8959 4.72798 20.1599 5.01598 20.1599 5.42398V14.496C20.1599 14.904 19.8959 15.168 19.4879 15.168H4.53589C4.12789 15.168 3.83989 14.904 3.83989 14.496ZM10.2479 19.32L10.8959 16.32H13.1039L13.7519 19.32H10.2479Z" fill="black"/>
</svg>
