<svg width="24" height="24" viewBox="0 0 24 24" fill="none" xmlns="http://www.w3.org/2000/svg">
<path d="M11.8198 21.7249L14.0998 19.4209C14.9878 18.1969 13.9318 15.7729 11.5558 13.2289L13.0918 11.6689C15.6598 14.0929 18.0598 15.0529 19.4038 14.1169L21.6838 11.8369C22.7398 10.3969 21.5158 7.85286 18.8278 5.16486C16.1398 2.47686 13.5958 1.25286 12.1558 2.30886L9.87584 4.58886C8.93984 5.93286 9.89984 8.33286 12.3238 10.9009L10.7638 12.4369C8.21984 10.0609 5.79584 9.00486 4.57184 9.89286L2.29184 12.1729C1.30784 13.5889 2.41184 16.1569 5.12384 18.8689C7.83584 21.6049 10.4038 22.6849 11.8198 21.7249ZM3.13184 12.8929L4.33184 11.7169C4.40384 13.0129 5.60384 14.8129 7.40384 16.5889C9.17984 18.3889 10.9798 19.5889 12.2758 19.6609L11.0998 20.8609C10.2598 21.3169 8.12384 20.3089 5.89184 18.1009C3.68384 15.8689 2.67584 13.7329 3.13184 12.8929ZM5.29184 10.7329C6.05984 10.2529 7.97984 11.2129 10.0198 13.1809L8.81984 14.4049C8.74784 14.4529 8.81984 14.7169 9.05984 14.9329C9.27584 15.1729 9.53984 15.2449 9.58784 15.1729L10.8118 13.9729C12.7798 16.0129 13.7398 17.9329 13.2598 18.7009C12.6358 19.3249 10.3078 18.1009 8.12384 15.8689C5.89184 13.6849 4.66784 11.3569 5.29184 10.7329ZM10.7398 5.30886L11.9158 4.10886C11.9878 5.42886 13.2118 7.20486 15.0118 8.98086C16.7878 10.7809 18.5638 12.0049 19.8838 12.0769L18.6838 13.2529C17.8438 13.7089 15.7078 12.7009 13.4998 10.4929C11.2918 8.28486 10.2838 6.14886 10.7398 5.30886ZM12.8998 3.14886C13.7158 2.64486 15.8278 3.74886 18.0358 5.95686C20.2438 8.16486 21.3478 10.2769 20.8438 11.0929C20.2198 11.7409 17.9158 10.4929 15.7078 8.28486C13.4998 6.07686 12.2518 3.77286 12.8998 3.14886ZM16.3318 6.77286C16.2598 6.84486 16.3558 7.13286 16.6198 7.37286C16.8598 7.63686 17.1478 7.73286 17.2198 7.66086L17.8438 7.06086C17.9158 7.01286 17.7958 6.72486 17.5318 6.46086C17.2678 6.22086 16.9798 6.07686 16.9318 6.14886L16.3318 6.77286Z" fill="black"/>
</svg>
