<svg width="24" height="24" viewBox="0 0 24 24" fill="none" xmlns="http://www.w3.org/2000/svg">
<path d="M10.7402 16.704H10.7882C12.7082 16.704 14.1002 15.552 14.1002 14.04C14.1002 13.056 13.5242 12.24 12.5402 11.928V11.76C13.3322 11.448 13.8362 10.704 13.8362 9.84C13.8362 8.42401 12.5162 7.34401 10.7882 7.34401H10.7402C9.01221 7.34401 7.69221 8.42401 7.69221 9.84C7.69221 10.728 8.19621 11.448 9.01221 11.76V11.928C8.02821 12.24 7.42821 13.056 7.42821 14.04C7.42821 15.552 8.82021 16.704 10.7402 16.704ZM4.11621 21.12H10.7642C15.8762 21.12 19.8842 16.968 19.8842 12C19.8842 6.888 15.8762 2.88 10.7642 2.88H4.11621V4.08H10.7642C15.2042 4.08 18.6842 7.56 18.6842 12C18.6842 16.32 15.2042 19.92 10.7642 19.92H4.11621V21.12ZM8.70021 14.16V13.848C8.70021 12.936 9.34821 12.432 10.7162 12.432H10.8602C12.2282 12.432 12.8762 12.936 12.8762 13.848V14.16C12.8762 15.096 12.2042 15.624 10.8602 15.624H10.7162C9.37221 15.624 8.70021 15.096 8.70021 14.16ZM8.84421 10.08V9.768C8.84421 8.928 9.46821 8.42401 10.6922 8.42401H10.8362C12.0362 8.42401 12.6842 8.928 12.6842 9.768V10.08C12.6842 10.92 12.0602 11.4 10.8362 11.4H10.6922C9.44421 11.4 8.84421 10.92 8.84421 10.08Z" fill="black"/>
</svg>
