<svg width="24" height="24" viewBox="0 0 24 24" fill="none" xmlns="http://www.w3.org/2000/svg">
<path d="M13.2122 16.704H13.2602C15.1802 16.704 16.5722 15.552 16.5722 14.04C16.5722 13.056 15.9722 12.264 15.0122 11.928V11.76C15.8042 11.448 16.3082 10.728 16.3082 9.84C16.3082 8.42401 14.9882 7.34401 13.2602 7.34401H13.2122C11.4842 7.34401 10.1642 8.42401 10.1642 9.84C10.1642 10.728 10.6682 11.472 11.4842 11.784V11.928C10.5002 12.24 9.90021 13.056 9.90021 14.04C9.90021 15.552 11.2922 16.704 13.2122 16.704ZM4.11621 12C4.11621 17.088 8.14821 21.12 13.2362 21.12H19.8842V19.92H13.2362C8.79621 19.92 5.31621 16.44 5.31621 12C5.31621 7.68001 8.79621 4.08 13.2362 4.08H19.8842V2.88H13.2362C8.12421 2.88 4.11621 7.032 4.11621 12ZM11.1722 14.16V13.848C11.1722 12.936 11.8202 12.432 13.1882 12.432H13.3322C14.7002 12.432 15.3482 12.936 15.3482 13.848V14.16C15.3482 15.096 14.6762 15.624 13.3322 15.624H13.1882C11.8442 15.624 11.1722 15.096 11.1722 14.16ZM11.3162 10.08V9.768C11.3162 8.928 11.9402 8.42401 13.1642 8.42401H13.3082C14.5082 8.42401 15.1562 8.928 15.1562 9.768V10.08C15.1562 10.92 14.5322 11.4 13.3082 11.4H13.1642C11.9162 11.4 11.3162 10.92 11.3162 10.08Z" fill="black"/>
</svg>
