<svg width="24" height="24" viewBox="0 0 24 24" fill="none" xmlns="http://www.w3.org/2000/svg">
<path d="M11.9999 21.12C17.1119 21.12 21.1199 16.968 21.1199 12C21.1199 6.912 17.0879 2.88 11.9999 2.88C6.91188 2.88 2.87988 6.912 2.87988 12C2.87988 17.088 6.91188 21.12 11.9999 21.12ZM4.07988 12C4.07988 7.56 7.55988 4.08 11.9999 4.08C16.4399 4.08 19.9199 7.56 19.9199 12C19.9199 16.32 16.4399 19.92 11.9999 19.92C7.55988 19.92 4.07988 16.44 4.07988 12ZM8.66388 14.04C8.66388 15.552 10.0559 16.704 11.9759 16.704H12.0239C13.9439 16.704 15.3359 15.552 15.3359 14.04C15.3359 13.056 14.7359 12.264 13.7759 11.928V11.76C14.5679 11.448 15.0719 10.728 15.0719 9.84C15.0719 8.42401 13.7519 7.34401 12.0239 7.34401H11.9759C10.2479 7.34401 8.92788 8.42401 8.92788 9.84C8.92788 10.728 9.43188 11.472 10.2479 11.784V11.928C9.26388 12.24 8.66388 13.056 8.66388 14.04ZM9.93588 14.16V13.848C9.93588 12.936 10.5839 12.432 11.9519 12.432H12.0959C13.4639 12.432 14.1119 12.936 14.1119 13.848V14.16C14.1119 15.096 13.4399 15.624 12.0959 15.624H11.9519C10.6079 15.624 9.93588 15.096 9.93588 14.16ZM10.0799 10.08V9.768C10.0799 8.928 10.7039 8.42401 11.9279 8.42401H12.0719C13.2719 8.42401 13.9199 8.928 13.9199 9.768V10.08C13.9199 10.92 13.2959 11.4 12.0719 11.4H11.9279C10.6799 11.4 10.0799 10.92 10.0799 10.08Z" fill="black"/>
</svg>
