<svg width="24" height="24" viewBox="0 0 24 24" fill="none" xmlns="http://www.w3.org/2000/svg">
<path d="M20.9522 21.768L21.7682 20.952L3.04816 2.23199L2.23216 3.04799L6.14416 6.95999C4.48816 8.25599 3.07216 10.008 2.16016 12C4.10416 16.176 8.20816 19.32 12.0002 19.32C13.6562 19.32 15.3602 18.744 16.8962 17.712L20.9522 21.768ZM3.43216 12C4.29616 10.296 5.52016 8.87999 6.96016 7.77599L9.24016 10.056C8.88016 10.608 8.64016 11.28 8.64016 12C8.64016 13.848 10.1522 15.36 12.0002 15.36C12.6962 15.36 13.3922 15.12 13.9202 14.736L16.0802 16.896C14.7362 17.736 13.3922 18.192 12.0002 18.192C8.71216 18.192 5.30416 15.672 3.43216 12ZM9.19216 5.18399L10.0802 6.09599C10.7282 5.90399 11.3762 5.80799 12.0002 5.80799C15.2642 5.80799 18.6482 8.30399 20.5202 12C20.0162 12.984 19.3922 13.896 18.6962 14.688L19.5122 15.504C20.4482 14.472 21.2402 13.272 21.8402 12C19.8962 7.79999 15.8162 4.65599 12.0002 4.65599C11.0642 4.65599 10.1282 4.84799 9.19216 5.18399ZM9.72016 12C9.72016 11.568 9.84016 11.184 10.0322 10.848L13.1522 13.968C12.8162 14.16 12.4082 14.28 12.0002 14.28C10.7522 14.28 9.72016 13.248 9.72016 12Z" fill="black"/>
</svg>
