<svg width="24" height="24" viewBox="0 0 24 24" fill="none" xmlns="http://www.w3.org/2000/svg">
<path d="M11.9999 21.24C16.3199 21.24 19.7039 19.944 19.7039 17.736V6.24001C19.7039 4.03201 16.4399 2.76001 11.9999 2.76001C7.6799 2.76001 4.2959 4.03201 4.2959 6.24001V17.736C4.2959 19.944 7.6079 21.24 11.9999 21.24ZM5.4959 17.736V15.744C6.6959 16.776 9.0959 17.352 11.9999 17.352C14.8799 17.352 17.2799 16.752 18.5039 15.744V17.736C18.5039 19.032 16.0079 20.04 11.9999 20.04C7.9439 20.04 5.4959 19.032 5.4959 17.736ZM5.4959 13.896V11.928C6.6959 12.96 9.0959 13.56 11.9999 13.56C14.8799 13.56 17.2799 12.96 18.5039 11.928V13.896C18.5039 15.24 15.9599 16.272 11.9999 16.272C7.9679 16.272 5.4959 15.24 5.4959 13.896ZM5.4959 10.056V8.11201C6.6959 9.12001 9.0959 9.69601 11.9999 9.69601C14.8559 9.69601 17.2799 9.12001 18.5039 8.08801V10.056C18.5039 11.424 15.9599 12.48 11.9999 12.48C7.9679 12.48 5.4959 11.424 5.4959 10.056ZM5.4959 6.24001C5.4959 4.94401 7.9919 3.96001 11.9999 3.96001C16.1039 3.96001 18.5039 4.94401 18.5039 6.24001C18.5039 7.60801 15.9839 8.61601 11.9999 8.61601C7.9679 8.61601 5.4959 7.63201 5.4959 6.24001Z" fill="black"/>
</svg>
