<svg width="24" height="24" viewBox="0 0 24 24" fill="none" xmlns="http://www.w3.org/2000/svg">
<path d="M11.9999 21.12C17.1359 21.12 21.1199 16.968 21.1199 12C21.1199 6.888 17.1359 2.88 11.9999 2.88C6.86388 2.88 2.87988 6.888 2.87988 12C2.87988 17.112 6.86388 21.12 11.9999 21.12ZM4.03188 12C4.03188 11.016 4.19988 10.104 4.48788 9.24001H7.94388C7.82388 10.104 7.75188 11.04 7.75188 12C7.75188 12.96 7.82388 13.872 7.94388 14.736H4.48788C4.19988 13.896 4.03188 12.96 4.03188 12ZM4.91988 8.23201C5.97588 6.144 7.91988 4.632 10.2959 4.128C9.23988 5.064 8.54388 6.504 8.13588 8.23201H4.91988ZM4.91988 15.768H8.13588C8.54388 17.496 9.23988 18.936 10.2719 19.872C7.91988 19.368 5.99988 17.856 4.91988 15.768ZM8.90388 12C8.90388 11.04 8.97588 10.104 9.11988 9.24001H14.9039C15.0479 10.104 15.1199 11.04 15.1199 12C15.1199 12.96 15.0479 13.872 14.9039 14.736H9.11988C8.97588 13.872 8.90388 12.96 8.90388 12ZM9.31188 15.768H14.7119C14.1839 17.952 13.2239 19.56 11.9999 20.04C10.7999 19.56 9.83988 17.952 9.31188 15.768ZM9.31188 8.23201C9.83988 6.048 10.7999 4.44 11.9999 3.96C13.2239 4.44 14.1839 6.048 14.7119 8.23201H9.31188ZM13.7039 4.128C16.0799 4.632 18.0239 6.144 19.1039 8.23201H15.8639C15.4559 6.504 14.7599 5.064 13.7039 4.128ZM13.7279 19.848C14.7599 18.936 15.4559 17.496 15.8639 15.768H19.0559C17.9999 17.808 16.0559 19.344 13.7279 19.848ZM16.0559 9.24001H19.5359C19.8239 10.104 19.9919 11.016 19.9919 12C19.9919 12.96 19.8239 13.872 19.5119 14.736H16.0559C16.1759 13.872 16.2479 12.96 16.2479 12C16.2479 11.04 16.1759 10.104 16.0559 9.24001Z" fill="black"/>
</svg>
