<svg width="24" height="24" viewBox="0 0 24 24" fill="none" xmlns="http://www.w3.org/2000/svg">
<path d="M8.86796 17.832V21.6H15.108V17.832C15.108 16.728 15.396 16.224 16.5 14.952L17.076 14.304C18.396 12.792 19.092 11.232 19.092 9.40802C19.092 5.23202 15.732 2.40002 11.988 2.40002C8.24396 2.40002 4.90796 5.23202 4.90796 9.40802C4.90796 11.232 5.57996 12.792 6.89996 14.304L7.47596 14.952C8.57996 16.224 8.86796 16.728 8.86796 17.832ZM6.10796 9.40802C6.10796 5.90402 8.86796 3.52802 11.988 3.52802C15.132 3.52802 17.892 5.90402 17.892 9.40802C17.892 10.944 17.316 12.264 16.188 13.536L15.612 14.208C14.46 15.504 13.956 16.368 13.908 17.784H12.564V12.504H11.412V17.784H10.068C10.02 16.368 9.51596 15.504 8.38796 14.208L7.81196 13.536C6.68396 12.264 6.10796 10.944 6.10796 9.40802ZM10.068 20.448V18.864H13.908V20.448H10.068Z" fill="black"/>
</svg>
