<svg width="24" height="24" viewBox="0 0 24 24" fill="none" xmlns="http://www.w3.org/2000/svg">
<path d="M7.07978 22.32H16.9198C17.9038 22.32 18.7198 21.504 18.7198 20.52V3.47999C18.7198 2.49599 17.9038 1.67999 16.9198 1.67999H7.07978C6.09579 1.67999 5.27979 2.49599 5.27979 3.47999V20.52C5.27979 21.504 6.09579 22.32 7.07978 22.32ZM6.47979 20.496V3.50399C6.47979 3.09599 6.76779 2.80799 7.17579 2.80799H16.8478C17.2558 2.80799 17.5198 3.09599 17.5198 3.50399V20.496C17.5198 20.904 17.2558 21.192 16.8478 21.192H7.17579C6.76779 21.192 6.47979 20.904 6.47979 20.496ZM10.7278 18.696C10.7278 19.368 11.2798 19.968 11.9998 19.968C12.6958 19.968 13.2478 19.368 13.2478 18.696C13.2478 18 12.6958 17.448 11.9998 17.448C11.2798 17.448 10.7278 18 10.7278 18.696Z" fill="black"/>
</svg>
