<svg width="24" height="24" viewBox="0 0 24 24" fill="none" xmlns="http://www.w3.org/2000/svg">
<path d="M13.5722 21.84H20.8202V2.15997H13.7402V9.26397L8.65218 4.17597L3.18018 9.64797L13.5722 20.064V21.84ZM4.78818 9.64797L8.65218 5.78397L19.0442 16.176C19.6442 16.776 19.9082 17.424 19.9082 18.168C19.9082 19.68 18.6602 20.904 17.1722 20.904C16.4522 20.904 15.7562 20.616 15.1802 20.04L4.78818 9.64797ZM15.2762 5.73597C15.2762 4.63197 16.1642 3.74397 17.3162 3.74397C18.3962 3.74397 19.2842 4.63197 19.2842 5.73597C19.2842 6.76797 18.3962 7.77597 17.3162 7.77597C16.1882 7.75197 15.2762 6.76797 15.2762 5.73597ZM15.6362 18.144C15.6362 18.984 16.3082 19.704 17.1722 19.704C18.0122 19.704 18.6842 18.984 18.6842 18.144C18.6842 17.304 18.0122 16.632 17.1722 16.632C16.3082 16.632 15.6362 17.304 15.6362 18.144ZM16.0202 5.73597C16.0202 6.43197 16.5722 7.05597 17.3162 7.03197C18.0122 7.05597 18.5882 6.43197 18.5882 5.73597C18.5642 5.03997 18.0122 4.46397 17.3162 4.46397C16.5722 4.46397 16.0202 5.03997 16.0202 5.73597Z" fill="black"/>
</svg>
