<svg width="24" height="24" viewBox="0 0 24 24" fill="none" xmlns="http://www.w3.org/2000/svg">
<path d="M17.8562 22.32L22.3202 17.856L6.14418 1.67999L1.68018 6.14399L17.8562 22.32ZM3.21618 6.14399L6.14418 3.19199L12.9842 10.032C12.2402 10.008 11.4722 10.296 10.8722 10.872C10.2962 11.448 10.0322 12.24 10.0562 12.984L3.21618 6.14399ZM4.96818 6.11999C4.96818 6.76799 5.49618 7.29599 6.14418 7.29599C6.76818 7.29599 7.32018 6.76799 7.32018 6.11999C7.32018 5.47199 6.76818 4.94399 6.14418 4.94399C5.49618 4.94399 4.96818 5.47199 4.96818 6.11999ZM11.5922 14.52C10.8242 13.752 10.8482 12.456 11.6402 11.64C12.4562 10.848 13.7522 10.848 14.5202 11.592L20.8082 17.856L17.8562 20.808L11.5922 14.52ZM12.0242 13.176C12.0242 13.824 12.5522 14.352 13.1762 14.352C13.8242 14.352 14.3522 13.824 14.3522 13.176C14.3522 12.528 13.8242 12 13.1762 12C12.5522 12 12.0242 12.528 12.0242 13.176Z" fill="black"/>
</svg>
