<svg width="24" height="24" viewBox="0 0 24 24" fill="none" xmlns="http://www.w3.org/2000/svg">
<path d="M10.836 16.704C13.092 16.704 14.364 14.832 14.34 11.904C14.316 9.04801 13.02 7.34401 10.836 7.34401C9.10797 7.34401 7.71597 8.664 7.71597 10.464C7.71597 12.216 8.98797 13.512 10.692 13.512C11.748 13.512 12.636 12.96 12.996 12.096H13.14C13.212 14.16 12.636 15.624 10.812 15.624C9.63597 15.624 8.98797 15.048 8.84397 13.896H7.66797C7.81197 15.6 9.10797 16.704 10.836 16.704ZM4.11597 21.12H10.764C15.876 21.12 19.884 16.968 19.884 12C19.884 6.888 15.876 2.88 10.764 2.88H4.11597V4.08H10.764C15.204 4.08 18.684 7.56 18.684 12C18.684 16.32 15.204 19.92 10.764 19.92H4.11597V21.12ZM8.89197 10.632V10.224C8.89197 9.096 9.56397 8.42401 10.812 8.42401H10.956C12.228 8.42401 12.876 9.168 12.876 10.224V10.632C12.876 11.76 12.204 12.432 10.956 12.432H10.812C9.56397 12.432 8.89197 11.76 8.89197 10.632Z" fill="black"/>
</svg>
