<svg width="24" height="24" viewBox="0 0 24 24" fill="none" xmlns="http://www.w3.org/2000/svg">
<path d="M12.072 16.704C14.328 16.704 15.6 14.832 15.576 11.904C15.552 9.04801 14.256 7.34401 12.072 7.34401C10.344 7.34401 8.95201 8.664 8.95201 10.464C8.95201 12.216 10.224 13.512 11.928 13.512C12.984 13.512 13.872 12.96 14.232 12.096H14.376C14.448 14.16 13.872 15.624 12.048 15.624C10.872 15.624 10.224 15.048 10.08 13.896H8.90401C9.04801 15.6 10.344 16.704 12.072 16.704ZM5.76001 21.12H18.24V19.92H5.76001V21.12ZM5.76001 4.08H18.24V2.88H5.76001V4.08ZM10.128 10.632V10.224C10.128 9.096 10.8 8.42401 12.048 8.42401H12.192C13.464 8.42401 14.112 9.168 14.112 10.224V10.632C14.112 11.76 13.44 12.432 12.192 12.432H12.048C10.8 12.432 10.128 11.76 10.128 10.632Z" fill="black"/>
</svg>
