<svg width="24" height="24" viewBox="0 0 24 24" fill="none" xmlns="http://www.w3.org/2000/svg">
<path d="M9.84023 21.876L12.6002 19.236L11.4962 16.02L14.1362 13.38L18.0722 20.892L20.2322 18.516L18.1922 9.34802L21.1682 6.34802C21.6242 5.91602 21.8642 5.29202 21.8642 4.62002C21.8642 3.18002 20.7362 2.12402 19.3682 2.12402C18.6482 2.12402 18.0482 2.43602 17.4242 3.06002L14.6642 5.79602L5.44823 3.70802L3.14423 5.96402L10.6082 9.85202L7.99223 12.492L4.77623 11.46L2.13623 14.148L7.15223 16.908L9.84023 21.876ZM4.00823 13.884L5.08823 12.756L8.30423 13.764L12.5282 9.56402L5.06423 5.67602L5.80823 4.95602L15.0242 7.04402L18.2402 3.87602C18.6722 3.44402 18.9842 3.25202 19.3682 3.25202C20.1122 3.25202 20.7362 3.80402 20.7362 4.62002C20.7362 4.98002 20.6162 5.31602 20.3762 5.53202L16.9442 8.96402L19.0082 18.18L18.3362 18.924L14.4242 11.484L10.2002 15.708L11.3042 18.924L10.1282 20.004L8.01623 16.068L4.00823 13.884Z" fill="black"/>
</svg>
