<svg width="24" height="24" viewBox="0 0 24 24" fill="none" xmlns="http://www.w3.org/2000/svg">
<path d="M13.5841 9.75602H19.9921V3.34802H13.5841V9.75602ZM2.64014 12.9H21.3601V11.748H2.64014V12.9ZM4.00814 20.652H10.4161V14.844H9.38414V19.596H5.06414V14.844H4.00814V20.652ZM4.00814 9.75602H10.4161V3.34802H4.00814V9.75602ZM5.06414 8.70002V4.38002H9.38414V8.70002H5.06414ZM6.48014 18.156H7.96814V16.668H6.48014V18.156ZM6.48014 7.30802H7.96814V5.79602H6.48014V7.30802ZM13.5841 20.628H15.0481V19.164H13.5841V20.628ZM13.5841 16.284H16.4881V14.844H13.5841V16.284ZM14.6401 8.70002V4.38002H18.9601V8.70002H14.6401ZM15.0481 19.164H17.9281V16.284H16.4881V17.724H15.0481V19.164ZM16.0321 7.30802H17.5201V5.79602H16.0321V7.30802ZM18.2161 20.628H19.9921V17.724H18.2161V20.628Z" fill="black"/>
</svg>
