<svg width="24" height="24" viewBox="0 0 24 24" fill="none" xmlns="http://www.w3.org/2000/svg">
<path d="M14.496 22.032L14.736 18.936C15.456 18.648 16.104 18.288 16.704 17.832L19.488 19.152L21.936 14.904L19.416 13.2C19.488 12.792 19.512 12.408 19.512 12C19.512 11.592 19.488 11.208 19.416 10.8L21.936 9.09602L19.488 4.84802L16.728 6.14402C16.128 5.68802 15.48 5.30402 14.736 5.04002L14.496 1.96802H9.50396L9.26396 5.06402C8.54396 5.32802 7.89596 5.68802 7.29596 6.16802L4.51196 4.84802L2.06396 9.07202L4.63196 10.824C4.55996 11.208 4.53596 11.592 4.53596 12C4.53596 12.408 4.55996 12.792 4.63196 13.176L2.06396 14.928L4.51196 19.152L7.29596 17.832C7.89596 18.312 8.54396 18.672 9.26396 18.936L9.50396 22.032H14.496ZM3.62396 15.264L5.97596 13.656C5.78396 13.08 5.73596 12.6 5.73596 12C5.73596 11.4 5.78396 10.92 5.97596 10.344L3.62396 8.73602L5.01596 6.36002L7.51196 7.53602C8.35196 6.72002 9.23996 6.19202 10.392 5.90402L10.632 3.12002H13.368L13.608 5.90402C14.808 6.19202 15.672 6.69602 16.512 7.51202L18.984 6.36002L20.376 8.76002L18.096 10.32C18.264 10.92 18.312 11.4 18.312 12C18.312 12.6 18.264 13.08 18.096 13.68L20.376 15.24L18.984 17.64L16.488 16.464C15.672 17.28 14.784 17.784 13.608 18.096L13.368 20.88H10.632L10.392 18.096C9.23996 17.808 8.35196 17.28 7.51196 16.464L5.01596 17.64L3.62396 15.264ZM8.63996 12C8.63996 13.848 10.152 15.36 12 15.36C13.848 15.36 15.36 13.848 15.36 12C15.36 10.152 13.848 8.64002 12 8.64002C10.152 8.64002 8.63996 10.152 8.63996 12ZM9.71996 12C9.71996 10.728 10.752 9.72002 12 9.72002C13.272 9.72002 14.28 10.728 14.28 12C14.28 13.248 13.272 14.28 12 14.28C10.752 14.28 9.71996 13.248 9.71996 12Z" fill="black"/>
</svg>
