<svg width="24" height="24" viewBox="0 0 24 24" fill="none" xmlns="http://www.w3.org/2000/svg">
<path d="M11.9999 21.84C18.2399 19.368 21.3599 15.432 21.3599 10.128V5.08797C18.6959 3.16797 15.4559 2.15997 11.9999 2.15997C8.54389 2.15997 5.30389 3.16797 2.63989 5.08797V10.128C2.63989 15.432 5.75989 19.368 11.9999 21.84ZM3.83989 10.128V5.66397C6.23989 4.07997 8.95189 3.28797 11.9999 3.28797C15.0479 3.28797 17.7599 4.07997 20.1599 5.66397V10.128C20.1599 14.928 17.6159 18.264 11.9999 20.592C6.38389 18.264 3.83989 14.928 3.83989 10.128ZM7.31989 11.064C7.31989 11.184 7.34389 11.28 7.41589 11.376L9.52789 14.808C10.0559 15.696 11.0159 16.272 12.1199 16.272C13.7519 16.272 15.0479 15.048 15.1439 13.416L15.2639 7.82397C15.2639 7.53597 15.0479 7.29597 14.7599 7.29597C14.4719 7.29597 14.2559 7.53597 14.2559 7.79997L14.1839 10.8H13.6559L13.6799 6.79197C13.6799 6.50397 13.4879 6.26397 13.1759 6.26397C12.8879 6.26397 12.6719 6.50397 12.6719 6.76797L12.6479 10.56H12.1199L12.0959 6.26397C12.0959 5.99997 11.9039 5.75997 11.5919 5.75997C11.3039 5.75997 11.0879 5.99997 11.0879 6.28797L11.1119 10.8H10.5599L10.5119 7.29597C10.5119 7.03197 10.3199 6.76797 10.0079 6.76797C9.69589 6.76797 9.50389 7.03197 9.50389 7.31997L9.57589 12.528L8.47189 10.728C8.37589 10.536 8.15989 10.416 7.94389 10.416C7.58389 10.416 7.31989 10.68 7.31989 11.064Z" fill="black"/>
</svg>
