<svg width="24" height="24" viewBox="0 0 24 24" fill="none" xmlns="http://www.w3.org/2000/svg">
<path d="M10.74 16.704C12.588 16.704 13.884 15.384 13.884 13.608C13.884 11.832 12.588 10.512 10.884 10.512C9.82797 10.512 8.96397 11.064 8.57997 11.928H8.41197C8.38797 9.912 8.91597 8.4 10.764 8.4C11.892 8.4 12.588 8.928 12.756 9.984H13.86C13.644 8.376 12.468 7.34401 10.788 7.34401C8.50797 7.34401 7.21197 9.216 7.23597 12.144C7.25997 15 8.55597 16.704 10.74 16.704ZM4.11597 21.12H10.764C15.876 21.12 19.884 16.968 19.884 12C19.884 6.888 15.876 2.88 10.764 2.88H4.11597V4.08H10.764C15.204 4.08 18.684 7.56 18.684 12C18.684 16.32 15.204 19.92 10.764 19.92H4.11597V21.12ZM8.67597 13.776V13.368C8.67597 12.24 9.34797 11.544 10.644 11.544H10.788C12.036 11.544 12.732 12.216 12.732 13.368V13.776C12.732 14.928 12.036 15.6 10.788 15.6H10.644C9.34797 15.6 8.67597 14.856 8.67597 13.776Z" fill="black"/>
</svg>
