<svg width="24" height="24" viewBox="0 0 24 24" fill="none" xmlns="http://www.w3.org/2000/svg">
<path d="M12 21.024C17.088 21.024 21 19.392 21 16.776V7.17595C21 4.58395 17.232 2.97595 12 2.97595C6.936 2.97595 3 4.58395 3 7.17595V16.776C3 19.392 6.84 21.024 12 21.024ZM4.2 16.776V14.16C5.592 15.456 8.472 16.248 12 16.248C15.48 16.248 18.384 15.456 19.8 14.136V16.776C19.8 18.576 16.752 19.872 12 19.872C7.176 19.872 4.2 18.576 4.2 16.776ZM4.2 12.048V9.28795C5.592 10.584 8.472 11.376 12 11.376C15.48 11.376 18.384 10.584 19.8 9.28795V12.048C19.8 13.752 16.728 15.096 12 15.096C7.2 15.096 4.2 13.776 4.2 12.048ZM4.2 7.17595C4.2 5.39995 7.272 4.12795 12 4.12795C16.896 4.12795 19.8 5.39995 19.8 7.17595C19.8 8.90395 16.728 10.224 12 10.224C7.2 10.224 4.2 8.92795 4.2 7.17595Z" fill="black"/>
</svg>
