<svg width="24" height="24" viewBox="0 0 24 24" fill="none" xmlns="http://www.w3.org/2000/svg">
<path d="M4.1638 19.8359H19.8118C21.0358 18.2519 21.8038 16.1879 21.8038 13.9799C21.8038 12.0119 21.2278 10.1639 20.2198 8.62794L19.3318 9.51594C20.1478 10.8119 20.6038 12.3479 20.6038 13.9799C20.6038 15.6839 20.0758 17.2919 19.2118 18.6359H4.7878C3.8998 17.2919 3.3958 15.6839 3.3958 13.9799C3.3958 9.22794 7.2358 5.36394 11.9878 5.36394C13.6198 5.36394 15.1558 5.81994 16.4518 6.63594L17.3398 5.74794C15.8038 4.73994 13.9558 4.16394 11.9878 4.16394C6.5878 4.16394 2.1958 8.57994 2.1958 13.9799C2.1958 16.1639 2.9398 18.2279 4.1638 19.8359ZM11.3878 13.9799C11.3878 14.3159 11.6518 14.5799 11.9878 14.5799C12.1558 14.5799 12.2998 14.5079 12.4198 14.4119L19.3798 7.45194L18.5158 6.58794L11.5558 13.5479C11.4598 13.6679 11.3878 13.8119 11.3878 13.9799Z" fill="black"/>
</svg>
