<svg width="24" height="24" viewBox="0 0 24 24" fill="none" xmlns="http://www.w3.org/2000/svg">
<path d="M13.2362 16.68C15.1322 16.68 16.5722 15.552 16.5722 13.992C16.5722 13.008 15.9722 12.216 14.9162 11.928V11.736C15.8522 11.424 16.2842 10.704 16.2842 9.888C16.2842 8.42401 14.9402 7.32 13.2362 7.32C11.4122 7.32 10.0922 8.56801 10.0922 10.128V10.296H11.2682C11.2682 9 11.8442 8.4 13.2362 8.4C14.5082 8.4 15.1082 8.90401 15.1082 9.984C15.1082 10.92 14.7962 11.352 13.2362 11.352H12.4202V12.432H13.2602C14.8442 12.432 15.3482 12.888 15.3482 13.968C15.3482 15.072 14.6762 15.6 13.2122 15.6C11.7002 15.6 11.1482 15 11.1482 13.56H9.94821V13.68C9.94821 15.408 11.2202 16.68 13.2362 16.68ZM4.11621 12C4.11621 17.088 8.14821 21.12 13.2362 21.12H19.8842V19.92H13.2362C8.79621 19.92 5.31621 16.44 5.31621 12C5.31621 7.68001 8.79621 4.08 13.2362 4.08H19.8842V2.88H13.2362C8.12421 2.88 4.11621 7.032 4.11621 12Z" fill="black"/>
</svg>
