<svg width="24" height="24" viewBox="0 0 24 24" fill="none" xmlns="http://www.w3.org/2000/svg">
<path d="M4.66798 21.672C5.26798 21.672 5.86798 21.456 6.32398 20.976L15.78 11.52C16.188 11.64 16.644 11.688 17.052 11.688C19.692 11.688 21.828 9.55202 21.828 6.93602C21.828 4.32002 19.692 2.16002 17.052 2.16002C14.436 2.16002 12.3 4.29602 12.3 6.93602C12.3 7.36802 12.348 7.80002 12.468 8.20802L3.01198 17.64C2.55598 18.12 2.33998 18.696 2.33998 19.296C2.33998 20.616 3.37198 21.672 4.66798 21.672ZM1.97998 6.21602L7.01998 11.256L7.78798 10.488L7.40398 10.128L8.77198 8.76002L8.21998 8.23202L6.85198 9.57602L5.45998 8.18402L6.80398 6.81602L6.25198 6.26402L4.88398 7.60802L3.49198 6.21602L6.22798 3.50402L10.476 7.75202L10.644 7.58402C10.596 7.03202 10.62 6.69602 10.644 6.40802L6.22798 1.96802L1.97998 6.21602ZM3.46798 19.32C3.46798 19.008 3.58798 18.696 3.82798 18.456L13.788 8.49602C13.572 8.01602 13.428 7.48802 13.428 6.93602C13.428 4.92002 15.06 3.28802 17.052 3.28802C17.628 3.28802 18.18 3.43202 18.66 3.69602L15.972 6.38402L17.604 8.01602L20.292 5.32802C20.556 5.80802 20.7 6.36002 20.7 6.93602C20.7 8.92802 19.068 10.56 17.052 10.56C16.5 10.56 15.972 10.416 15.492 10.2L5.53198 20.16C5.26798 20.424 4.97998 20.52 4.66798 20.52C3.99598 20.52 3.46798 19.968 3.46798 19.32ZM12.708 16.992L17.772 22.032L22.02 17.76L17.58 13.344C17.292 13.368 16.956 13.392 16.404 13.344L16.236 13.512L20.484 17.76L17.772 20.496L16.38 19.104L17.724 17.736L17.172 17.184L15.804 18.528L14.412 17.136L15.756 15.768L15.204 15.216L13.86 16.584L13.5 16.2L12.708 16.992Z" fill="black"/>
</svg>
