<svg width="24" height="24" viewBox="0 0 24 24" fill="none" xmlns="http://www.w3.org/2000/svg">
<path d="M2.87988 20.04H21.1199V11.04L18.5999 8.51996H16.8239V5.73596C16.8239 4.72796 16.0559 3.95996 15.0719 3.95996H8.92788C7.94388 3.95996 7.17588 4.72796 7.17588 5.73596V8.51996H5.39988L2.87988 11.04V20.04ZM4.05588 18.888V15.216H7.94388V16.656H9.09588V15.216H14.9039V16.656H16.0559V15.216H19.9439V18.888H4.05588ZM4.05588 14.064V11.496L5.90388 9.64796H18.0959L19.9439 11.496V14.064H16.0559V12.576H14.9039V14.064H9.09588V12.576H7.94388V14.064H4.05588ZM8.32788 8.51996V5.75996C8.32788 5.35196 8.56788 5.08796 8.97588 5.08796H15.0239C15.4319 5.08796 15.6959 5.35196 15.6959 5.75996V8.51996H8.32788Z" fill="black"/>
</svg>
