<svg width="24" height="24" viewBox="0 0 24 24" fill="none" xmlns="http://www.w3.org/2000/svg">
<path d="M11.9999 21.12C17.1119 21.12 21.1199 16.968 21.1199 12C21.1199 6.912 17.0879 2.88 11.9999 2.88C6.91188 2.88 2.87988 6.912 2.87988 12C2.87988 17.088 6.91188 21.12 11.9999 21.12ZM4.07988 12C4.07988 7.56 7.55988 4.08 11.9999 4.08C16.4399 4.08 19.9199 7.56 19.9199 12C19.9199 16.32 16.4399 19.92 11.9999 19.92C7.55988 19.92 4.07988 16.44 4.07988 12ZM8.80788 10.464H10.0079V10.224C10.0079 9.12001 10.5839 8.42401 11.9519 8.42401H12.0719C13.2479 8.42401 13.9439 8.952 13.9439 10.152C13.9439 10.992 13.6319 11.568 12.0479 12.648L9.02388 14.736V16.464H15.1439V15.384L10.3919 15.408V15L13.0319 13.2C14.5679 12.144 15.1439 11.256 15.1439 10.128C15.1439 8.35201 13.7279 7.34401 12.0239 7.34401C10.0559 7.34401 8.80788 8.688 8.80788 10.2V10.464Z" fill="black"/>
</svg>
