<svg width="24" height="24" viewBox="0 0 24 24" fill="none" xmlns="http://www.w3.org/2000/svg">
<path d="M19.5481 21.204L20.3641 20.388L7.23606 7.26002L6.30006 6.30002L2.77205 2.79602L1.95605 3.61202L5.17206 6.82802C3.97205 7.47602 2.89205 8.26802 1.95605 9.18002L2.82005 10.068C3.80405 9.13202 4.88405 8.34002 6.08405 7.74002L8.79606 10.452C7.40406 10.908 6.15605 11.652 5.07606 12.564L5.91605 13.524C7.09206 12.516 8.34006 11.82 9.82806 11.484L13.2121 14.868C12.8281 14.796 12.4201 14.748 11.9881 14.748C10.5481 14.748 9.27606 15.276 8.26806 16.116L11.9881 20.244L15.1321 16.788L19.5481 21.204ZM8.70006 5.50802L9.75606 6.56402C10.4761 6.44402 11.2201 6.39602 11.9881 6.39602C15.7081 6.39602 18.8041 7.78802 21.1561 10.068L22.0441 9.18002C19.5241 6.73202 15.9961 5.12402 11.9881 5.12402C10.8601 5.12402 9.73206 5.26802 8.70006 5.50802ZM13.2361 10.044L14.9881 11.82C16.1401 12.156 17.1721 12.756 18.0841 13.524L18.9001 12.564C17.3401 11.244 15.3961 10.308 13.2361 10.044Z" fill="black"/>
</svg>
